%FSAX43Y43*%
%MOMM*%
G71*
G01*
G75*
G04 Layer_Color=32896*
%ADD10R,0.590X0.600*%
%ADD11R,0.630X0.610*%
%ADD12R,0.600X0.590*%
%ADD13R,0.610X0.630*%
%ADD14R,0.590X1.910*%
%ADD15R,0.550X0.300*%
%ADD16R,1.210X0.590*%
%ADD17R,1.280X0.590*%
%ADD18R,1.090X0.400*%
%ADD19R,0.400X1.090*%
%ADD20R,1.520X0.330*%
%ADD21R,0.930X0.790*%
%ADD22R,1.600X0.280*%
%ADD23C,0.750*%
%ADD24R,5.500X5.500*%
%ADD25R,0.280X1.600*%
%ADD26R,3.700X3.700*%
%ADD27O,0.800X0.220*%
%ADD28O,0.220X0.800*%
%ADD29R,1.270X1.020*%
%ADD30R,0.910X0.930*%
%ADD31R,1.140X1.470*%
%ADD32R,1.000X0.970*%
%ADD33C,1.000*%
%ADD34R,0.400X0.350*%
%ADD35R,1.350X0.400*%
%ADD36R,1.600X1.900*%
%ADD37R,1.400X1.600*%
%ADD38R,1.800X1.230*%
%ADD39R,1.160X1.470*%
%ADD40R,0.930X0.920*%
%ADD41R,0.920X0.930*%
%ADD42R,1.470X1.160*%
%ADD43R,0.350X0.400*%
%ADD44C,0.250*%
%ADD45C,0.150*%
%ADD46C,0.300*%
%ADD47C,0.500*%
%ADD48C,0.280*%
%ADD49C,0.400*%
%ADD50C,0.220*%
%ADD51C,0.160*%
%ADD52C,0.200*%
%ADD53C,0.600*%
%ADD54C,0.800*%
%ADD55C,0.590*%
%ADD56C,0.260*%
%ADD57R,1.200X1.600*%
%ADD58R,1.600X1.100*%
%ADD59R,1.200X1.600*%
%ADD60R,1.100X1.600*%
%ADD61C,1.400*%
%ADD62C,2.200*%
G04:AMPARAMS|DCode=63|XSize=0.9mm|YSize=1.6mm|CornerRadius=0.45mm|HoleSize=0mm|Usage=FLASHONLY|Rotation=270.000|XOffset=0mm|YOffset=0mm|HoleType=Round|Shape=RoundedRectangle|*
%AMROUNDEDRECTD63*
21,1,0.900,0.700,0,0,270.0*
21,1,0.000,1.600,0,0,270.0*
1,1,0.900,-0.350,0.000*
1,1,0.900,-0.350,0.000*
1,1,0.900,0.350,0.000*
1,1,0.900,0.350,0.000*
%
%ADD63ROUNDEDRECTD63*%
%ADD64C,0.600*%
%ADD65C,1.000*%
%ADD66C,1.800*%
G04:AMPARAMS|DCode=67|XSize=1.8mm|YSize=1.8mm|CornerRadius=0mm|HoleSize=0mm|Usage=FLASHONLY|Rotation=0.000|XOffset=0mm|YOffset=0mm|HoleType=Round|Shape=Relief|Width=0.2mm|Gap=0.25mm|Entries=4|*
%AMTHD67*
7,0,0,1.800,1.300,0.200,45*
%
%ADD67THD67*%
%ADD68C,1.900*%
G04:AMPARAMS|DCode=69|XSize=2.3mm|YSize=2.3mm|CornerRadius=0mm|HoleSize=0mm|Usage=FLASHONLY|Rotation=0.000|XOffset=0mm|YOffset=0mm|HoleType=Round|Shape=Relief|Width=0.2mm|Gap=0.25mm|Entries=4|*
%AMTHD69*
7,0,0,2.300,1.800,0.200,45*
%
%ADD69THD69*%
%ADD70O,1.800X1.100*%
%ADD71C,3.650*%
%ADD72C,0.850*%
%ADD73C,1.200*%
%ADD74C,0.120*%
%ADD75C,1.500*%
%ADD76C,2.000*%
%ADD77C,1.350*%
%ADD78C,3.200*%
G36*
X0200912Y0164041D02*
X0201033Y0164017D01*
X0201134Y0163985D01*
X0201222Y0163948D01*
X0201292Y0163906D01*
X0201320Y0163888D01*
X0201343Y0163874D01*
X0201361Y0163860D01*
X0201375Y0163851D01*
X0201380Y0163846D01*
X0201384Y0163842D01*
X0201426Y0163800D01*
X0201463Y0163758D01*
X0201495Y0163717D01*
X0201519Y0163670D01*
X0201565Y0163582D01*
X0201593Y0163499D01*
X0201606Y0163425D01*
X0201611Y0163393D01*
X0201616Y0163369D01*
X0201620Y0163346D01*
Y0163328D01*
Y0163319D01*
Y0163314D01*
X0201616Y0163217D01*
X0201597Y0163124D01*
X0201574Y0163046D01*
X0201546Y0162976D01*
X0201523Y0162921D01*
X0201500Y0162884D01*
X0201482Y0162856D01*
X0201477Y0162847D01*
X0201417Y0162777D01*
X0201347Y0162717D01*
X0201273Y0162661D01*
X0201204Y0162615D01*
X0201139Y0162578D01*
X0201084Y0162550D01*
X0201065Y0162541D01*
X0201051Y0162532D01*
X0201042Y0162527D01*
X0201037D01*
X0200672Y0162374D01*
X0200588Y0162333D01*
X0200519Y0162291D01*
X0200459Y0162250D01*
X0200408Y0162213D01*
X0200371Y0162175D01*
X0200343Y0162148D01*
X0200325Y0162129D01*
X0200320Y0162125D01*
X0200283Y0162069D01*
X0200255Y0162009D01*
X0200232Y0161949D01*
X0200218Y0161898D01*
X0200209Y0161847D01*
X0200204Y0161810D01*
Y0161787D01*
Y0161782D01*
Y0161777D01*
X0200213Y0161690D01*
X0200232Y0161611D01*
X0200255Y0161546D01*
X0200288Y0161486D01*
X0200320Y0161440D01*
X0200343Y0161407D01*
X0200362Y0161389D01*
X0200371Y0161379D01*
X0200436Y0161329D01*
X0200510Y0161292D01*
X0200584Y0161264D01*
X0200648Y0161245D01*
X0200713Y0161236D01*
X0200760Y0161231D01*
X0200778Y0161227D01*
X0200806D01*
X0200889Y0161231D01*
X0200959Y0161250D01*
X0201023Y0161273D01*
X0201079Y0161296D01*
X0201125Y0161324D01*
X0201158Y0161342D01*
X0201176Y0161361D01*
X0201185Y0161366D01*
X0201236Y0161421D01*
X0201283Y0161491D01*
X0201320Y0161555D01*
X0201347Y0161625D01*
X0201370Y0161685D01*
X0201384Y0161731D01*
X0201389Y0161750D01*
X0201394Y0161764D01*
X0201398Y0161773D01*
Y0161777D01*
X0201718Y0161616D01*
X0201681Y0161500D01*
X0201634Y0161393D01*
X0201579Y0161305D01*
X0201528Y0161236D01*
X0201477Y0161176D01*
X0201435Y0161134D01*
X0201407Y0161111D01*
X0201403Y0161102D01*
X0201398D01*
X0201306Y0161042D01*
X0201204Y0161000D01*
X0201107Y0160968D01*
X0201009Y0160949D01*
X0200931Y0160935D01*
X0200894Y0160931D01*
X0200866D01*
X0200838Y0160926D01*
X0200806D01*
X0200727Y0160931D01*
X0200653Y0160935D01*
X0200514Y0160963D01*
X0200454Y0160986D01*
X0200399Y0161005D01*
X0200343Y0161028D01*
X0200297Y0161051D01*
X0200255Y0161074D01*
X0200218Y0161097D01*
X0200186Y0161120D01*
X0200158Y0161139D01*
X0200139Y0161153D01*
X0200126Y0161167D01*
X0200116Y0161171D01*
X0200112Y0161176D01*
X0200065Y0161227D01*
X0200024Y0161278D01*
X0199991Y0161329D01*
X0199959Y0161384D01*
X0199931Y0161440D01*
X0199913Y0161495D01*
X0199880Y0161602D01*
X0199862Y0161694D01*
X0199857Y0161736D01*
X0199852Y0161768D01*
X0199848Y0161796D01*
Y0161819D01*
Y0161833D01*
Y0161838D01*
X0199852Y0161939D01*
X0199871Y0162032D01*
X0199894Y0162111D01*
X0199922Y0162185D01*
X0199950Y0162240D01*
X0199973Y0162282D01*
X0199991Y0162310D01*
X0199996Y0162319D01*
X0200056Y0162393D01*
X0200126Y0162458D01*
X0200200Y0162518D01*
X0200269Y0162564D01*
X0200334Y0162601D01*
X0200389Y0162629D01*
X0200408Y0162638D01*
X0200422Y0162648D01*
X0200431Y0162652D01*
X0200436D01*
X0200861Y0162837D01*
X0200935Y0162874D01*
X0200996Y0162911D01*
X0201051Y0162944D01*
X0201093Y0162976D01*
X0201125Y0163004D01*
X0201148Y0163027D01*
X0201162Y0163041D01*
X0201167Y0163046D01*
X0201199Y0163092D01*
X0201222Y0163138D01*
X0201241Y0163184D01*
X0201250Y0163226D01*
X0201259Y0163263D01*
X0201264Y0163291D01*
Y0163314D01*
Y0163319D01*
X0201259Y0163388D01*
X0201245Y0163448D01*
X0201222Y0163499D01*
X0201199Y0163545D01*
X0201181Y0163582D01*
X0201158Y0163605D01*
X0201144Y0163624D01*
X0201139Y0163629D01*
X0201088Y0163670D01*
X0201033Y0163703D01*
X0200977Y0163721D01*
X0200926Y0163740D01*
X0200880Y0163749D01*
X0200843Y0163754D01*
X0200810D01*
X0200755Y0163749D01*
X0200699Y0163740D01*
X0200653Y0163726D01*
X0200611Y0163712D01*
X0200574Y0163693D01*
X0200551Y0163680D01*
X0200533Y0163670D01*
X0200528Y0163666D01*
X0200482Y0163633D01*
X0200440Y0163592D01*
X0200403Y0163550D01*
X0200366Y0163508D01*
X0200338Y0163471D01*
X0200320Y0163439D01*
X0200306Y0163420D01*
X0200301Y0163411D01*
X0200010Y0163596D01*
X0200056Y0163675D01*
X0200107Y0163744D01*
X0200158Y0163800D01*
X0200204Y0163851D01*
X0200250Y0163888D01*
X0200288Y0163911D01*
X0200311Y0163929D01*
X0200315Y0163934D01*
X0200320D01*
X0200394Y0163971D01*
X0200473Y0163999D01*
X0200551Y0164022D01*
X0200625Y0164036D01*
X0200686Y0164045D01*
X0200736Y0164050D01*
X0200847D01*
X0200912Y0164041D01*
D02*
G37*
G36*
X0208900Y0161000D02*
X0208558D01*
X0208183Y0163027D01*
X0207252Y0160884D01*
X0206332Y0163027D01*
X0205952Y0161000D01*
X0205605D01*
X0206211Y0164101D01*
X0207252Y0161629D01*
X0208298Y0164101D01*
X0208900Y0161000D01*
D02*
G37*
G36*
X0234500Y0161472D02*
X0233561Y0160494D01*
X0233533Y0160227D01*
X0233472Y0159589D01*
X0233428Y0159128D01*
X0234433Y0158089D01*
X0234367Y0158022D01*
X0233417Y0158994D01*
X0233361Y0158400D01*
X0233333D01*
Y0158172D01*
X0233122D01*
Y0158400D01*
X0232467D01*
X0232445Y0158355D01*
X0232411Y0158311D01*
X0232367Y0158261D01*
X0232306Y0158216D01*
X0232234Y0158194D01*
X0232167Y0158189D01*
X0232100D01*
X0232050Y0158205D01*
X0231989Y0158228D01*
X0231939Y0158261D01*
X0231900Y0158300D01*
X0231861Y0158355D01*
X0231834Y0158416D01*
X0231817Y0158472D01*
X0231811Y0158522D01*
X0231817Y0158578D01*
X0231828Y0158622D01*
X0231845Y0158666D01*
X0231867Y0158711D01*
X0231895Y0158750D01*
X0231934Y0158789D01*
X0231978Y0158816D01*
X0232017Y0158833D01*
X0232011Y0158883D01*
X0231178Y0158022D01*
X0231111Y0158094D01*
X0232000Y0159016D01*
X0231928Y0159822D01*
X0231878Y0160405D01*
X0231611D01*
Y0160777D01*
X0231684D01*
X0231006Y0161472D01*
X0231078Y0161538D01*
X0231711Y0160883D01*
Y0160933D01*
X0231700Y0160944D01*
X0231684Y0160955D01*
X0231667Y0160972D01*
X0231650Y0160988D01*
X0231639Y0161016D01*
X0231634Y0161038D01*
X0231628Y0161066D01*
X0231634Y0161100D01*
X0231645Y0161122D01*
X0231667Y0161161D01*
X0231695Y0161183D01*
X0231734Y0161200D01*
X0231773Y0161205D01*
X0231811Y0161200D01*
X0231845Y0161188D01*
X0231872Y0161172D01*
X0231884Y0161155D01*
X0231911Y0161177D01*
X0231950Y0161205D01*
X0232000Y0161227D01*
X0232072Y0161255D01*
X0232150Y0161277D01*
X0232228Y0161294D01*
X0232311Y0161311D01*
X0232378Y0161316D01*
Y0161399D01*
X0232911D01*
Y0161327D01*
X0232956D01*
X0233022Y0161322D01*
X0233095Y0161311D01*
X0233167Y0161299D01*
Y0161344D01*
X0233395D01*
Y0161238D01*
X0233422Y0161222D01*
X0233461Y0161205D01*
X0233500Y0161183D01*
X0233533Y0161161D01*
X0233567Y0161133D01*
X0233589Y0161111D01*
X0233600Y0161094D01*
X0233611Y0161072D01*
X0233606Y0161033D01*
X0233739D01*
Y0160861D01*
X0233595D01*
X0233572Y0160644D01*
X0234433Y0161538D01*
X0234500Y0161472D01*
D02*
G37*
G36*
X0203809Y0164045D02*
X0203920Y0164031D01*
X0204027Y0164013D01*
X0204115Y0163990D01*
X0204193Y0163966D01*
X0204226Y0163957D01*
X0204254Y0163948D01*
X0204277Y0163939D01*
X0204291Y0163934D01*
X0204300Y0163929D01*
X0204305D01*
X0204411Y0163879D01*
X0204508Y0163828D01*
X0204596Y0163772D01*
X0204675Y0163717D01*
X0204735Y0163666D01*
X0204781Y0163629D01*
X0204800Y0163615D01*
X0204814Y0163601D01*
X0204818Y0163596D01*
X0204823Y0163592D01*
X0204902Y0163508D01*
X0204971Y0163420D01*
X0205031Y0163332D01*
X0205082Y0163258D01*
X0205119Y0163189D01*
X0205147Y0163133D01*
X0205156Y0163115D01*
X0205165Y0163101D01*
X0205170Y0163092D01*
Y0163087D01*
X0205207Y0162981D01*
X0205235Y0162874D01*
X0205258Y0162772D01*
X0205272Y0162680D01*
X0205281Y0162601D01*
Y0162569D01*
X0205286Y0162541D01*
Y0162518D01*
Y0162499D01*
Y0162490D01*
Y0162486D01*
X0205281Y0162370D01*
X0205267Y0162259D01*
X0205249Y0162157D01*
X0205225Y0162064D01*
X0205207Y0161990D01*
X0205198Y0161958D01*
X0205188Y0161935D01*
X0205179Y0161912D01*
X0205175Y0161898D01*
X0205170Y0161889D01*
Y0161884D01*
X0205119Y0161782D01*
X0205063Y0161685D01*
X0205008Y0161602D01*
X0204952Y0161528D01*
X0204902Y0161463D01*
X0204860Y0161417D01*
X0204846Y0161403D01*
X0204832Y0161389D01*
X0204827Y0161384D01*
X0204823Y0161379D01*
X0204735Y0161301D01*
X0204647Y0161231D01*
X0204559Y0161176D01*
X0204480Y0161125D01*
X0204406Y0161088D01*
X0204379Y0161074D01*
X0204355Y0161060D01*
X0204332Y0161051D01*
X0204318Y0161042D01*
X0204309Y0161037D01*
X0204305D01*
X0204193Y0161000D01*
X0204082Y0160972D01*
X0203981Y0160949D01*
X0203888Y0160935D01*
X0203809Y0160926D01*
X0203777D01*
X0203749Y0160921D01*
X0203694D01*
X0203578Y0160926D01*
X0203467Y0160940D01*
X0203360Y0160958D01*
X0203268Y0160981D01*
X0203194Y0161000D01*
X0203161Y0161009D01*
X0203134Y0161019D01*
X0203111Y0161028D01*
X0203097Y0161032D01*
X0203087Y0161037D01*
X0203083D01*
X0202976Y0161088D01*
X0202874Y0161143D01*
X0202787Y0161199D01*
X0202708Y0161255D01*
X0202648Y0161301D01*
X0202601Y0161342D01*
X0202583Y0161356D01*
X0202569Y0161370D01*
X0202564Y0161375D01*
X0202560Y0161379D01*
X0202481Y0161463D01*
X0202412Y0161551D01*
X0202352Y0161634D01*
X0202305Y0161713D01*
X0202268Y0161777D01*
X0202240Y0161833D01*
X0202231Y0161852D01*
X0202222Y0161865D01*
X0202217Y0161875D01*
Y0161879D01*
X0202176Y0161986D01*
X0202148Y0162092D01*
X0202125Y0162194D01*
X0202111Y0162287D01*
X0202102Y0162370D01*
Y0162402D01*
X0202097Y0162430D01*
Y0162453D01*
Y0162472D01*
Y0162481D01*
Y0162486D01*
X0202102Y0162601D01*
X0202116Y0162712D01*
X0202134Y0162814D01*
X0202157Y0162907D01*
X0202180Y0162981D01*
X0202190Y0163013D01*
X0202199Y0163036D01*
X0202208Y0163059D01*
X0202213Y0163073D01*
X0202217Y0163083D01*
Y0163087D01*
X0202268Y0163194D01*
X0202319Y0163286D01*
X0202379Y0163374D01*
X0202435Y0163448D01*
X0202481Y0163508D01*
X0202523Y0163555D01*
X0202537Y0163568D01*
X0202551Y0163582D01*
X0202555Y0163587D01*
X0202560Y0163592D01*
X0202648Y0163670D01*
X0202736Y0163735D01*
X0202824Y0163795D01*
X0202907Y0163842D01*
X0202976Y0163879D01*
X0203009Y0163897D01*
X0203032Y0163906D01*
X0203055Y0163916D01*
X0203069Y0163925D01*
X0203078Y0163929D01*
X0203083D01*
X0203194Y0163971D01*
X0203300Y0163999D01*
X0203402Y0164022D01*
X0203499Y0164036D01*
X0203578Y0164045D01*
X0203610D01*
X0203638Y0164050D01*
X0203694D01*
X0203809Y0164045D01*
D02*
G37*
G36*
X0210808Y0162541D02*
X0211895Y0161000D01*
X0211025D01*
X0210382Y0161939D01*
X0209799Y0161000D01*
X0208924D01*
X0209984Y0162541D01*
X0209063Y0163888D01*
X0209956D01*
X0210382Y0163143D01*
X0210808Y0163888D01*
X0211701D01*
X0210808Y0162541D01*
D02*
G37*
G36*
X0234300Y0157255D02*
Y0157244D01*
Y0157222D01*
Y0157200D01*
Y0157178D01*
Y0157155D01*
Y0157144D01*
Y0157139D01*
Y0157050D01*
Y0156967D01*
Y0156928D01*
Y0156900D01*
Y0156883D01*
Y0156878D01*
Y0156778D01*
Y0156733D01*
Y0156694D01*
Y0156661D01*
Y0156639D01*
Y0156622D01*
Y0156617D01*
Y0156578D01*
Y0156550D01*
Y0156528D01*
Y0156517D01*
Y0156500D01*
X0231261D01*
Y0156506D01*
Y0156517D01*
Y0156561D01*
Y0156600D01*
Y0156611D01*
Y0156617D01*
Y0156706D01*
Y0156789D01*
Y0156828D01*
Y0156856D01*
Y0156872D01*
Y0156878D01*
Y0156978D01*
Y0157022D01*
Y0157061D01*
Y0157094D01*
Y0157117D01*
Y0157133D01*
Y0157139D01*
Y0157178D01*
Y0157211D01*
Y0157233D01*
Y0157244D01*
Y0157255D01*
Y0157261D01*
X0234300D01*
Y0157255D01*
D02*
G37*
G36*
X0199441Y0164479D02*
X0199477Y0164474D01*
X0199510Y0164465D01*
X0199526Y0164460D01*
X0199540Y0164456D01*
X0199552Y0164450D01*
X0199565Y0164446D01*
X0199575Y0164441D01*
X0199584Y0164437D01*
X0199590Y0164434D01*
X0199596Y0164431D01*
X0199599Y0164430D01*
X0199600Y0164429D01*
X0199633Y0164408D01*
X0199663Y0164385D01*
X0199688Y0164360D01*
X0199709Y0164337D01*
X0199718Y0164326D01*
X0199726Y0164316D01*
X0199732Y0164306D01*
X0199738Y0164298D01*
X0199742Y0164292D01*
X0199746Y0164287D01*
X0199747Y0164284D01*
X0199748Y0164283D01*
X0199757Y0164265D01*
X0199764Y0164247D01*
X0199778Y0164212D01*
X0199787Y0164178D01*
X0199793Y0164148D01*
X0199796Y0164135D01*
X0199797Y0164123D01*
X0199799Y0164112D01*
Y0164103D01*
X0199800Y0164095D01*
Y0164090D01*
Y0164086D01*
Y0164085D01*
X0199799Y0164066D01*
X0199798Y0164047D01*
X0199792Y0164012D01*
X0199783Y0163979D01*
X0199779Y0163963D01*
X0199773Y0163949D01*
X0199769Y0163935D01*
X0199764Y0163924D01*
X0199760Y0163914D01*
X0199756Y0163905D01*
X0199752Y0163898D01*
X0199750Y0163893D01*
X0199748Y0163890D01*
Y0163889D01*
X0199727Y0163855D01*
X0199703Y0163827D01*
X0199679Y0163801D01*
X0199655Y0163780D01*
X0199643Y0163771D01*
X0199633Y0163763D01*
X0199625Y0163758D01*
X0199617Y0163752D01*
X0199610Y0163748D01*
X0199606Y0163744D01*
X0199602Y0163743D01*
X0199601Y0163742D01*
X0199584Y0163733D01*
X0199566Y0163726D01*
X0199530Y0163712D01*
X0199498Y0163703D01*
X0199468Y0163697D01*
X0199455Y0163694D01*
X0199443Y0163693D01*
X0199431Y0163691D01*
X0199423D01*
X0199415Y0163690D01*
X0199405D01*
X0199386Y0163691D01*
X0199367Y0163692D01*
X0199330Y0163698D01*
X0199297Y0163707D01*
X0199282Y0163711D01*
X0199268Y0163717D01*
X0199255Y0163721D01*
X0199243Y0163726D01*
X0199233Y0163730D01*
X0199225Y0163734D01*
X0199217Y0163738D01*
X0199213Y0163740D01*
X0199209Y0163742D01*
X0199208D01*
X0199175Y0163763D01*
X0199145Y0163787D01*
X0199121Y0163811D01*
X0199100Y0163835D01*
X0199091Y0163847D01*
X0199083Y0163857D01*
X0199076Y0163865D01*
X0199072Y0163873D01*
X0199067Y0163880D01*
X0199064Y0163884D01*
X0199063Y0163888D01*
X0199062Y0163889D01*
X0199053Y0163906D01*
X0199044Y0163924D01*
X0199031Y0163960D01*
X0199022Y0163992D01*
X0199015Y0164022D01*
X0199013Y0164035D01*
X0199011Y0164047D01*
X0199010Y0164059D01*
Y0164067D01*
X0199009Y0164075D01*
Y0164081D01*
Y0164084D01*
Y0164085D01*
X0199010Y0164104D01*
X0199011Y0164123D01*
X0199016Y0164160D01*
X0199025Y0164193D01*
X0199030Y0164208D01*
X0199035Y0164223D01*
X0199040Y0164236D01*
X0199045Y0164247D01*
X0199050Y0164257D01*
X0199053Y0164266D01*
X0199057Y0164274D01*
X0199060Y0164278D01*
X0199061Y0164282D01*
X0199062Y0164283D01*
X0199084Y0164316D01*
X0199107Y0164346D01*
X0199132Y0164372D01*
X0199144Y0164382D01*
X0199156Y0164392D01*
X0199167Y0164400D01*
X0199177Y0164408D01*
X0199187Y0164415D01*
X0199195Y0164420D01*
X0199202Y0164424D01*
X0199206Y0164427D01*
X0199209Y0164428D01*
X0199211Y0164429D01*
X0199228Y0164438D01*
X0199246Y0164447D01*
X0199281Y0164459D01*
X0199314Y0164469D01*
X0199343Y0164475D01*
X0199356Y0164477D01*
X0199368Y0164479D01*
X0199379Y0164480D01*
X0199388D01*
X0199395Y0164481D01*
X0199424D01*
X0199441Y0164479D01*
D02*
G37*
%LPC*%
G36*
X0233495Y0160861D02*
X0231939D01*
X0231950Y0160777D01*
X0231989D01*
Y0160600D01*
X0232222Y0160361D01*
X0232922D01*
Y0160139D01*
X0232439D01*
X0232761Y0159805D01*
X0233467Y0160538D01*
X0233495Y0160861D01*
D02*
G37*
G36*
X0232828Y0160266D02*
X0232328D01*
Y0160233D01*
X0232828D01*
Y0160266D01*
D02*
G37*
G36*
X0231895Y0160683D02*
X0231711D01*
Y0160500D01*
X0231895D01*
Y0160683D01*
D02*
G37*
G36*
X0233450Y0160383D02*
X0232828Y0159739D01*
X0233339Y0159211D01*
X0233450Y0160383D01*
D02*
G37*
G36*
X0232184Y0158694D02*
X0232156D01*
X0232100Y0158689D01*
X0232061Y0158666D01*
X0232028Y0158644D01*
X0232011Y0158611D01*
X0232000Y0158583D01*
X0231989Y0158555D01*
Y0158533D01*
Y0158528D01*
X0231995Y0158472D01*
X0232017Y0158433D01*
X0232039Y0158400D01*
X0232072Y0158383D01*
X0232100Y0158372D01*
X0232128Y0158366D01*
X0232150Y0158361D01*
X0232156D01*
X0232211Y0158366D01*
X0232250Y0158389D01*
X0232284Y0158416D01*
X0232300Y0158444D01*
X0232311Y0158478D01*
X0232317Y0158500D01*
X0232322Y0158522D01*
Y0158528D01*
X0232317Y0158583D01*
X0232295Y0158622D01*
X0232267Y0158655D01*
X0232239Y0158672D01*
X0232206Y0158683D01*
X0232184Y0158694D01*
D02*
G37*
G36*
X0232761Y0159666D02*
X0232100Y0158983D01*
X0232111Y0158861D01*
X0232156Y0158866D01*
X0232206Y0158861D01*
X0232267Y0158844D01*
X0232328Y0158816D01*
X0232372Y0158783D01*
X0232411Y0158744D01*
X0232450Y0158689D01*
X0232478Y0158622D01*
X0232495Y0158550D01*
X0232489Y0158500D01*
X0233272D01*
X0233328Y0159083D01*
X0232761Y0159666D01*
D02*
G37*
G36*
X0231989Y0160461D02*
Y0160405D01*
X0231978D01*
X0232089Y0159111D01*
X0232695Y0159739D01*
X0232306Y0160139D01*
X0232222D01*
Y0160222D01*
X0231989Y0160461D01*
D02*
G37*
G36*
X0233239Y0158400D02*
X0233217D01*
Y0158266D01*
X0233239D01*
Y0158400D01*
D02*
G37*
G36*
X0232811Y0161305D02*
X0232472D01*
Y0161250D01*
X0232811D01*
Y0161305D01*
D02*
G37*
G36*
X0203735Y0163721D02*
X0203694D01*
X0203601Y0163717D01*
X0203518Y0163707D01*
X0203439Y0163693D01*
X0203370Y0163675D01*
X0203310Y0163656D01*
X0203263Y0163643D01*
X0203235Y0163633D01*
X0203231Y0163629D01*
X0203226D01*
X0203143Y0163592D01*
X0203069Y0163550D01*
X0203004Y0163504D01*
X0202944Y0163462D01*
X0202898Y0163420D01*
X0202861Y0163388D01*
X0202837Y0163369D01*
X0202828Y0163360D01*
X0202768Y0163295D01*
X0202713Y0163226D01*
X0202671Y0163161D01*
X0202634Y0163096D01*
X0202601Y0163041D01*
X0202583Y0162999D01*
X0202569Y0162971D01*
X0202564Y0162967D01*
Y0162962D01*
X0202532Y0162879D01*
X0202509Y0162791D01*
X0202490Y0162712D01*
X0202481Y0162638D01*
X0202472Y0162578D01*
X0202467Y0162527D01*
Y0162509D01*
Y0162495D01*
Y0162490D01*
Y0162486D01*
X0202472Y0162393D01*
X0202481Y0162305D01*
X0202495Y0162226D01*
X0202514Y0162157D01*
X0202532Y0162097D01*
X0202546Y0162051D01*
X0202551Y0162037D01*
X0202555Y0162023D01*
X0202560Y0162018D01*
Y0162014D01*
X0202597Y0161935D01*
X0202638Y0161856D01*
X0202685Y0161791D01*
X0202726Y0161731D01*
X0202768Y0161685D01*
X0202800Y0161648D01*
X0202819Y0161625D01*
X0202828Y0161616D01*
X0202898Y0161555D01*
X0202962Y0161500D01*
X0203032Y0161454D01*
X0203092Y0161417D01*
X0203148Y0161384D01*
X0203189Y0161366D01*
X0203217Y0161352D01*
X0203222Y0161347D01*
X0203226D01*
X0203310Y0161315D01*
X0203393Y0161292D01*
X0203471Y0161278D01*
X0203541Y0161268D01*
X0203606Y0161259D01*
X0203652Y0161255D01*
X0203694D01*
X0203786Y0161259D01*
X0203869Y0161268D01*
X0203948Y0161282D01*
X0204018Y0161301D01*
X0204078Y0161315D01*
X0204124Y0161329D01*
X0204152Y0161338D01*
X0204156Y0161342D01*
X0204161D01*
X0204240Y0161379D01*
X0204314Y0161426D01*
X0204383Y0161467D01*
X0204443Y0161514D01*
X0204490Y0161555D01*
X0204527Y0161588D01*
X0204550Y0161606D01*
X0204559Y0161616D01*
X0204619Y0161685D01*
X0204675Y0161754D01*
X0204721Y0161819D01*
X0204758Y0161884D01*
X0204790Y0161935D01*
X0204809Y0161976D01*
X0204823Y0162004D01*
X0204827Y0162009D01*
Y0162014D01*
X0204855Y0162097D01*
X0204878Y0162180D01*
X0204892Y0162259D01*
X0204906Y0162333D01*
X0204911Y0162393D01*
X0204915Y0162444D01*
Y0162462D01*
Y0162476D01*
Y0162481D01*
Y0162486D01*
X0204911Y0162578D01*
X0204902Y0162666D01*
X0204888Y0162745D01*
X0204869Y0162814D01*
X0204855Y0162874D01*
X0204841Y0162921D01*
X0204837Y0162934D01*
X0204832Y0162948D01*
X0204827Y0162953D01*
Y0162958D01*
X0204790Y0163041D01*
X0204744Y0163115D01*
X0204703Y0163184D01*
X0204656Y0163245D01*
X0204619Y0163291D01*
X0204587Y0163328D01*
X0204568Y0163351D01*
X0204559Y0163360D01*
X0204494Y0163420D01*
X0204425Y0163476D01*
X0204360Y0163522D01*
X0204300Y0163559D01*
X0204244Y0163592D01*
X0204203Y0163610D01*
X0204175Y0163624D01*
X0204170Y0163629D01*
X0204166D01*
X0204082Y0163661D01*
X0203999Y0163684D01*
X0203920Y0163698D01*
X0203846Y0163712D01*
X0203786Y0163717D01*
X0203735Y0163721D01*
D02*
G37*
G36*
X0199413Y0164416D02*
X0199405D01*
X0199374Y0164414D01*
X0199345Y0164409D01*
X0199317Y0164403D01*
X0199293Y0164395D01*
X0199282Y0164390D01*
X0199272Y0164386D01*
X0199264Y0164383D01*
X0199256Y0164379D01*
X0199251Y0164377D01*
X0199246Y0164375D01*
X0199244Y0164373D01*
X0199243D01*
X0199214Y0164355D01*
X0199190Y0164335D01*
X0199168Y0164315D01*
X0199151Y0164295D01*
X0199136Y0164277D01*
X0199131Y0164269D01*
X0199126Y0164263D01*
X0199123Y0164257D01*
X0199121Y0164253D01*
X0199118Y0164251D01*
Y0164249D01*
X0199104Y0164219D01*
X0199093Y0164191D01*
X0199085Y0164163D01*
X0199080Y0164137D01*
X0199077Y0164126D01*
X0199076Y0164116D01*
X0199075Y0164107D01*
Y0164100D01*
X0199074Y0164094D01*
Y0164088D01*
Y0164086D01*
Y0164085D01*
X0199076Y0164054D01*
X0199081Y0164023D01*
X0199089Y0163995D01*
X0199096Y0163971D01*
X0199101Y0163960D01*
X0199104Y0163951D01*
X0199108Y0163942D01*
X0199112Y0163934D01*
X0199114Y0163929D01*
X0199116Y0163924D01*
X0199118Y0163922D01*
Y0163921D01*
X0199136Y0163893D01*
X0199156Y0163869D01*
X0199176Y0163848D01*
X0199196Y0163830D01*
X0199213Y0163817D01*
X0199221Y0163811D01*
X0199227Y0163807D01*
X0199233Y0163803D01*
X0199237Y0163801D01*
X0199239Y0163799D01*
X0199241D01*
X0199271Y0163784D01*
X0199299Y0163773D01*
X0199327Y0163767D01*
X0199353Y0163761D01*
X0199364Y0163759D01*
X0199374Y0163758D01*
X0199383Y0163757D01*
X0199390D01*
X0199396Y0163755D01*
X0199405D01*
X0199436Y0163758D01*
X0199467Y0163762D01*
X0199495Y0163769D01*
X0199519Y0163778D01*
X0199530Y0163781D01*
X0199539Y0163785D01*
X0199548Y0163789D01*
X0199556Y0163792D01*
X0199561Y0163794D01*
X0199566Y0163797D01*
X0199568Y0163799D01*
X0199569D01*
X0199597Y0163817D01*
X0199621Y0163837D01*
X0199642Y0163857D01*
X0199660Y0163876D01*
X0199673Y0163894D01*
X0199679Y0163901D01*
X0199683Y0163908D01*
X0199687Y0163913D01*
X0199689Y0163918D01*
X0199691Y0163920D01*
Y0163921D01*
X0199706Y0163951D01*
X0199717Y0163980D01*
X0199723Y0164007D01*
X0199729Y0164033D01*
X0199731Y0164044D01*
X0199732Y0164054D01*
X0199733Y0164063D01*
Y0164071D01*
X0199735Y0164076D01*
Y0164082D01*
Y0164084D01*
Y0164085D01*
X0199732Y0164116D01*
X0199728Y0164147D01*
X0199720Y0164175D01*
X0199712Y0164199D01*
X0199708Y0164211D01*
X0199705Y0164221D01*
X0199700Y0164228D01*
X0199697Y0164236D01*
X0199695Y0164242D01*
X0199692Y0164246D01*
X0199690Y0164248D01*
Y0164249D01*
X0199672Y0164277D01*
X0199652Y0164303D01*
X0199631Y0164324D01*
X0199611Y0164342D01*
X0199595Y0164355D01*
X0199587Y0164360D01*
X0199580Y0164365D01*
X0199575Y0164368D01*
X0199570Y0164370D01*
X0199568Y0164373D01*
X0199567D01*
X0199537Y0164387D01*
X0199508Y0164398D01*
X0199481Y0164406D01*
X0199456Y0164410D01*
X0199445Y0164413D01*
X0199435Y0164414D01*
X0199427Y0164415D01*
X0199419D01*
X0199413Y0164416D01*
D02*
G37*
G36*
X0232911Y0161227D02*
Y0161155D01*
X0232378D01*
Y0161216D01*
X0232267Y0161200D01*
X0232167Y0161177D01*
X0232084Y0161155D01*
X0232017Y0161122D01*
X0231967Y0161094D01*
X0231928Y0161055D01*
Y0161033D01*
X0233167D01*
Y0161194D01*
X0233089Y0161211D01*
X0233006Y0161222D01*
X0232911Y0161227D01*
D02*
G37*
G36*
X0233395Y0161127D02*
Y0161033D01*
X0233511D01*
Y0161050D01*
X0233483Y0161077D01*
X0233450Y0161100D01*
X0233395Y0161127D01*
D02*
G37*
G36*
X0231784Y0161111D02*
X0231778D01*
X0231750Y0161105D01*
X0231734Y0161088D01*
X0231728Y0161066D01*
Y0161061D01*
X0231734Y0161033D01*
X0231750Y0161022D01*
X0231773Y0161016D01*
X0231778D01*
X0231806Y0161022D01*
X0231817Y0161038D01*
X0231822Y0161055D01*
Y0161061D01*
X0231817Y0161088D01*
X0231800Y0161105D01*
X0231784Y0161111D01*
D02*
G37*
G36*
X0233300Y0161250D02*
X0233261D01*
Y0161122D01*
X0233300D01*
Y0161250D01*
D02*
G37*
%LPD*%
G36*
X0199578Y0163867D02*
X0199509D01*
Y0164047D01*
X0199469D01*
X0199456Y0164046D01*
X0199445Y0164045D01*
X0199436Y0164043D01*
X0199428Y0164041D01*
X0199421Y0164037D01*
X0199417Y0164035D01*
X0199415Y0164034D01*
X0199414Y0164033D01*
X0199408Y0164029D01*
X0199403Y0164023D01*
X0199390Y0164009D01*
X0199378Y0163993D01*
X0199367Y0163975D01*
X0199357Y0163960D01*
X0199349Y0163946D01*
X0199346Y0163941D01*
X0199344Y0163936D01*
X0199342Y0163934D01*
Y0163933D01*
X0199304Y0163867D01*
X0199219D01*
X0199272Y0163950D01*
X0199285Y0163971D01*
X0199297Y0163987D01*
X0199308Y0164002D01*
X0199317Y0164014D01*
X0199325Y0164023D01*
X0199330Y0164030D01*
X0199334Y0164033D01*
X0199335Y0164034D01*
X0199347Y0164043D01*
X0199358Y0164051D01*
X0199364Y0164054D01*
X0199368Y0164055D01*
X0199370Y0164057D01*
X0199372D01*
X0199352Y0164060D01*
X0199334Y0164065D01*
X0199319Y0164071D01*
X0199306Y0164077D01*
X0199296Y0164084D01*
X0199288Y0164090D01*
X0199284Y0164094D01*
X0199283Y0164095D01*
X0199272Y0164108D01*
X0199263Y0164123D01*
X0199257Y0164137D01*
X0199253Y0164150D01*
X0199251Y0164161D01*
X0199248Y0164170D01*
Y0164175D01*
Y0164177D01*
X0199249Y0164189D01*
X0199252Y0164201D01*
X0199255Y0164211D01*
X0199258Y0164219D01*
X0199263Y0164227D01*
X0199266Y0164234D01*
X0199268Y0164237D01*
X0199269Y0164238D01*
X0199277Y0164248D01*
X0199286Y0164257D01*
X0199295Y0164265D01*
X0199304Y0164271D01*
X0199312Y0164275D01*
X0199317Y0164278D01*
X0199322Y0164281D01*
X0199323D01*
X0199337Y0164285D01*
X0199354Y0164287D01*
X0199372Y0164289D01*
X0199389Y0164292D01*
X0199406D01*
X0199419Y0164293D01*
X0199578D01*
Y0163867D01*
D02*
G37*
G36*
X0232195Y0158633D02*
X0232222Y0158622D01*
X0232239Y0158605D01*
X0232250Y0158583D01*
X0232267Y0158544D01*
Y0158533D01*
Y0158528D01*
X0232261Y0158489D01*
X0232250Y0158461D01*
X0232234Y0158444D01*
X0232211Y0158433D01*
X0232172Y0158416D01*
X0232156D01*
X0232117Y0158422D01*
X0232089Y0158433D01*
X0232072Y0158450D01*
X0232056Y0158472D01*
X0232045Y0158511D01*
Y0158522D01*
Y0158528D01*
X0232050Y0158566D01*
X0232061Y0158594D01*
X0232078Y0158611D01*
X0232100Y0158628D01*
X0232139Y0158639D01*
X0232156D01*
X0232195Y0158633D01*
D02*
G37*
%LPC*%
G36*
X0199509Y0164235D02*
X0199414D01*
X0199399Y0164234D01*
X0199387Y0164233D01*
X0199377Y0164232D01*
X0199370Y0164229D01*
X0199365Y0164228D01*
X0199363Y0164227D01*
X0199362D01*
X0199349Y0164221D01*
X0199340Y0164213D01*
X0199335Y0164206D01*
X0199333Y0164205D01*
Y0164204D01*
X0199326Y0164193D01*
X0199323Y0164182D01*
X0199322Y0164177D01*
Y0164174D01*
Y0164172D01*
Y0164171D01*
X0199323Y0164161D01*
X0199325Y0164152D01*
X0199328Y0164143D01*
X0199333Y0164136D01*
X0199337Y0164131D01*
X0199340Y0164127D01*
X0199343Y0164125D01*
X0199344Y0164124D01*
X0199354Y0164118D01*
X0199366Y0164114D01*
X0199379Y0164111D01*
X0199393Y0164108D01*
X0199406Y0164107D01*
X0199416Y0164106D01*
X0199509D01*
Y0164235D01*
D02*
G37*
G36*
X0232161Y0158544D02*
X0232145D01*
X0232139Y0158539D01*
Y0158533D01*
Y0158528D01*
Y0158516D01*
X0232145Y0158511D01*
X0232156D01*
X0232167Y0158516D01*
X0232172Y0158522D01*
Y0158528D01*
X0232167Y0158539D01*
X0232161Y0158544D01*
D02*
G37*
%LPD*%
D45*
X0211900Y0158200D02*
Y0157000D01*
Y0158200D02*
X0211500D01*
X0211329Y0158143D01*
X0211214Y0158028D01*
X0211157Y0157914D01*
X0211100Y0157743D01*
Y0157457D01*
X0211157Y0157286D01*
X0211214Y0157171D01*
X0211329Y0157057D01*
X0211500Y0157000D01*
X0211900D01*
X0209918D02*
X0210375Y0158200D01*
X0210832Y0157000D01*
X0210660Y0157400D02*
X0210089D01*
X0208781Y0157914D02*
X0208838Y0158028D01*
X0208952Y0158143D01*
X0209066Y0158200D01*
X0209295D01*
X0209409Y0158143D01*
X0209523Y0158028D01*
X0209581Y0157914D01*
X0209638Y0157743D01*
Y0157457D01*
X0209581Y0157286D01*
X0209523Y0157171D01*
X0209409Y0157057D01*
X0209295Y0157000D01*
X0209066D01*
X0208952Y0157057D01*
X0208838Y0157171D01*
X0208781Y0157286D01*
X0208444Y0156829D02*
X0207644Y0158200D01*
X0207564D02*
Y0157000D01*
X0206764Y0158200D02*
Y0157000D01*
X0207564Y0157628D02*
X0206764D01*
X0206433Y0157571D02*
X0205918D01*
X0205747Y0157628D01*
X0205690Y0157686D01*
X0205633Y0157800D01*
Y0157971D01*
X0205690Y0158085D01*
X0205747Y0158143D01*
X0205918Y0158200D01*
X0206433D01*
Y0157000D01*
X0204422Y0158200D02*
Y0157000D01*
Y0158200D02*
X0203907D01*
X0203736Y0158143D01*
X0203679Y0158085D01*
X0203622Y0157971D01*
Y0157857D01*
X0203679Y0157743D01*
X0203736Y0157686D01*
X0203907Y0157628D01*
X0204422D01*
X0204022D02*
X0203622Y0157000D01*
X0202611Y0158200D02*
X0203353D01*
Y0157000D01*
X0202611D01*
X0203353Y0157628D02*
X0202896D01*
X0202411Y0158200D02*
Y0157000D01*
Y0158200D02*
X0201668D01*
X0202411Y0157628D02*
X0201954D01*
X0198343Y0157914D02*
Y0157971D01*
X0198286Y0158085D01*
X0198229Y0158143D01*
X0198114Y0158200D01*
X0197886D01*
X0197772Y0158143D01*
X0197714Y0158085D01*
X0197657Y0157971D01*
Y0157857D01*
X0197714Y0157743D01*
X0197829Y0157571D01*
X0198400Y0157000D01*
X0197600D01*
X0197332Y0158200D02*
X0196875Y0157000D01*
X0196418Y0158200D02*
X0196875Y0157000D01*
X0196263Y0157971D02*
X0196149Y0158028D01*
X0195978Y0158200D01*
Y0157000D01*
X0211900Y0159800D02*
X0211272Y0159000D01*
Y0159800D02*
X0211900Y0159000D01*
X0210163Y0159914D02*
X0210220Y0160028D01*
X0210335Y0160143D01*
X0210449Y0160200D01*
X0210677D01*
X0210792Y0160143D01*
X0210906Y0160028D01*
X0210963Y0159914D01*
X0211020Y0159743D01*
Y0159457D01*
X0210963Y0159286D01*
X0210906Y0159171D01*
X0210792Y0159057D01*
X0210677Y0159000D01*
X0210449D01*
X0210335Y0159057D01*
X0210220Y0159171D01*
X0210163Y0159286D01*
X0209483Y0160200D02*
X0209598Y0160143D01*
X0209712Y0160028D01*
X0209769Y0159914D01*
X0209826Y0159743D01*
Y0159457D01*
X0209769Y0159286D01*
X0209712Y0159171D01*
X0209598Y0159057D01*
X0209483Y0159000D01*
X0209255D01*
X0209141Y0159057D01*
X0209026Y0159171D01*
X0208969Y0159286D01*
X0208912Y0159457D01*
Y0159743D01*
X0208969Y0159914D01*
X0209026Y0160028D01*
X0209141Y0160143D01*
X0209255Y0160200D01*
X0209483D01*
X0208632D02*
Y0159000D01*
Y0160200D02*
X0208118D01*
X0207947Y0160143D01*
X0207889Y0160085D01*
X0207832Y0159971D01*
Y0159857D01*
X0207889Y0159743D01*
X0207947Y0159686D01*
X0208118Y0159628D01*
X0208632D01*
X0208232D02*
X0207832Y0159000D01*
X0206821Y0160200D02*
X0207564D01*
Y0159000D01*
X0206821D01*
X0207564Y0159628D02*
X0207107D01*
X0206621Y0159514D02*
X0205593D01*
X0204324Y0159000D02*
X0204782Y0160200D01*
X0205239Y0159000D01*
X0205067Y0159400D02*
X0204496D01*
X0204045Y0160200D02*
Y0159343D01*
X0203987Y0159171D01*
X0203873Y0159057D01*
X0203702Y0159000D01*
X0203587D01*
X0203416Y0159057D01*
X0203302Y0159171D01*
X0203245Y0159343D01*
Y0160200D01*
X0202913D02*
Y0159000D01*
Y0160200D02*
X0202513D01*
X0202342Y0160143D01*
X0202228Y0160028D01*
X0202171Y0159914D01*
X0202114Y0159743D01*
Y0159457D01*
X0202171Y0159286D01*
X0202228Y0159171D01*
X0202342Y0159057D01*
X0202513Y0159000D01*
X0202913D01*
X0201845Y0160200D02*
Y0159000D01*
X0201251Y0160200D02*
X0201365Y0160143D01*
X0201479Y0160028D01*
X0201537Y0159914D01*
X0201594Y0159743D01*
Y0159457D01*
X0201537Y0159286D01*
X0201479Y0159171D01*
X0201365Y0159057D01*
X0201251Y0159000D01*
X0201022D01*
X0200908Y0159057D01*
X0200794Y0159171D01*
X0200737Y0159286D01*
X0200680Y0159457D01*
Y0159743D01*
X0200737Y0159914D01*
X0200794Y0160028D01*
X0200908Y0160143D01*
X0201022Y0160200D01*
X0201251D01*
X0199457D02*
Y0159000D01*
X0198657Y0160200D02*
Y0159000D01*
X0199457Y0159628D02*
X0198657D01*
X0198326Y0160200D02*
Y0159000D01*
X0198074Y0159514D02*
X0197046D01*
X0196692Y0160200D02*
Y0159000D01*
Y0160200D02*
X0196178D01*
X0196006Y0160143D01*
X0195949Y0160085D01*
X0195892Y0159971D01*
Y0159857D01*
X0195949Y0159743D01*
X0196006Y0159686D01*
X0196178Y0159628D01*
X0196692D01*
X0196292D02*
X0195892Y0159000D01*
X0194881Y0160200D02*
X0195623D01*
Y0159000D01*
X0194881D01*
X0195623Y0159628D02*
X0195166D01*
X0193881Y0160028D02*
X0193995Y0160143D01*
X0194167Y0160200D01*
X0194395D01*
X0194567Y0160143D01*
X0194681Y0160028D01*
Y0159914D01*
X0194624Y0159800D01*
X0194567Y0159743D01*
X0194452Y0159686D01*
X0194110Y0159571D01*
X0193995Y0159514D01*
X0193938Y0159457D01*
X0193881Y0159343D01*
Y0159171D01*
X0193995Y0159057D01*
X0194167Y0159000D01*
X0194395D01*
X0194567Y0159057D01*
X0194681Y0159171D01*
X0192613Y0159914D02*
Y0159971D01*
X0192556Y0160085D01*
X0192498Y0160143D01*
X0192384Y0160200D01*
X0192156D01*
X0192041Y0160143D01*
X0191984Y0160085D01*
X0191927Y0159971D01*
Y0159857D01*
X0191984Y0159743D01*
X0192099Y0159571D01*
X0192670Y0159000D01*
X0191870D01*
X0180000Y0145500D02*
Y0144000D01*
Y0145500D02*
X0180643D01*
X0180857Y0145428D01*
X0180928Y0145357D01*
X0181000Y0145214D01*
Y0145071D01*
X0180928Y0144928D01*
X0180857Y0144857D01*
X0180643Y0144786D01*
X0180000D02*
X0180643D01*
X0180857Y0144714D01*
X0180928Y0144643D01*
X0181000Y0144500D01*
Y0144286D01*
X0180928Y0144143D01*
X0180857Y0144071D01*
X0180643Y0144000D01*
X0180000D01*
X0181764Y0145500D02*
X0181621Y0145428D01*
X0181478Y0145285D01*
X0181407Y0145143D01*
X0181335Y0144928D01*
Y0144571D01*
X0181407Y0144357D01*
X0181478Y0144214D01*
X0181621Y0144071D01*
X0181764Y0144000D01*
X0182050D01*
X0182192Y0144071D01*
X0182335Y0144214D01*
X0182407Y0144357D01*
X0182478Y0144571D01*
Y0144928D01*
X0182407Y0145143D01*
X0182335Y0145285D01*
X0182192Y0145428D01*
X0182050Y0145500D01*
X0181764D01*
X0183328D02*
Y0144000D01*
X0182828Y0145500D02*
X0183828D01*
X0184506D02*
Y0144000D01*
X0184006Y0145500D02*
X0185006D01*
X0185613D02*
X0185470Y0145428D01*
X0185327Y0145285D01*
X0185256Y0145143D01*
X0185185Y0144928D01*
Y0144571D01*
X0185256Y0144357D01*
X0185327Y0144214D01*
X0185470Y0144071D01*
X0185613Y0144000D01*
X0185899D01*
X0186042Y0144071D01*
X0186184Y0144214D01*
X0186256Y0144357D01*
X0186327Y0144571D01*
Y0144928D01*
X0186256Y0145143D01*
X0186184Y0145285D01*
X0186042Y0145428D01*
X0185899Y0145500D01*
X0185613D01*
X0186677D02*
Y0144000D01*
Y0145500D02*
X0187248Y0144000D01*
X0187820Y0145500D02*
X0187248Y0144000D01*
X0187820Y0145500D02*
Y0144000D01*
X0190426Y0145285D02*
X0190284Y0145428D01*
X0190069Y0145500D01*
X0189784D01*
X0189569Y0145428D01*
X0189427Y0145285D01*
Y0145143D01*
X0189498Y0145000D01*
X0189569Y0144928D01*
X0189712Y0144857D01*
X0190141Y0144714D01*
X0190284Y0144643D01*
X0190355Y0144571D01*
X0190426Y0144428D01*
Y0144214D01*
X0190284Y0144071D01*
X0190069Y0144000D01*
X0189784D01*
X0189569Y0144071D01*
X0189427Y0144214D01*
X0190762Y0145500D02*
Y0144000D01*
X0191076Y0145500D02*
Y0144000D01*
X0191933D01*
X0192097Y0145500D02*
Y0144000D01*
X0193097Y0145500D02*
X0192097Y0144500D01*
X0192454Y0144857D02*
X0193097Y0144000D01*
X0194433Y0145285D02*
X0194290Y0145428D01*
X0194076Y0145500D01*
X0193790D01*
X0193576Y0145428D01*
X0193433Y0145285D01*
Y0145143D01*
X0193504Y0145000D01*
X0193576Y0144928D01*
X0193718Y0144857D01*
X0194147Y0144714D01*
X0194290Y0144643D01*
X0194361Y0144571D01*
X0194433Y0144428D01*
Y0144214D01*
X0194290Y0144071D01*
X0194076Y0144000D01*
X0193790D01*
X0193576Y0144071D01*
X0193433Y0144214D01*
X0195839Y0145143D02*
X0195768Y0145285D01*
X0195625Y0145428D01*
X0195482Y0145500D01*
X0195197D01*
X0195054Y0145428D01*
X0194911Y0145285D01*
X0194840Y0145143D01*
X0194768Y0144928D01*
Y0144571D01*
X0194840Y0144357D01*
X0194911Y0144214D01*
X0195054Y0144071D01*
X0195197Y0144000D01*
X0195482D01*
X0195625Y0144071D01*
X0195768Y0144214D01*
X0195839Y0144357D01*
X0196261Y0145500D02*
Y0144000D01*
Y0145500D02*
X0196904D01*
X0197118Y0145428D01*
X0197189Y0145357D01*
X0197261Y0145214D01*
Y0145071D01*
X0197189Y0144928D01*
X0197118Y0144857D01*
X0196904Y0144786D01*
X0196261D01*
X0196761D02*
X0197261Y0144000D01*
X0198525Y0145500D02*
X0197596D01*
Y0144000D01*
X0198525D01*
X0197596Y0144786D02*
X0198168D01*
X0199703Y0145500D02*
X0198775D01*
Y0144000D01*
X0199703D01*
X0198775Y0144786D02*
X0199346D01*
X0199953Y0145500D02*
Y0144000D01*
Y0145500D02*
X0200953Y0144000D01*
Y0145500D02*
Y0144000D01*
X0180714Y0147500D02*
Y0146357D01*
X0180643Y0146143D01*
X0180571Y0146071D01*
X0180428Y0146000D01*
X0180286D01*
X0180143Y0146071D01*
X0180071Y0146143D01*
X0180000Y0146357D01*
Y0146500D01*
X0182171Y0147143D02*
X0182100Y0147285D01*
X0181957Y0147428D01*
X0181814Y0147500D01*
X0181528D01*
X0181385Y0147428D01*
X0181243Y0147285D01*
X0181171Y0147143D01*
X0181100Y0146928D01*
Y0146571D01*
X0181171Y0146357D01*
X0181243Y0146214D01*
X0181385Y0146071D01*
X0181528Y0146000D01*
X0181814D01*
X0181957Y0146071D01*
X0182100Y0146214D01*
X0182171Y0146357D01*
Y0146571D01*
X0181814D02*
X0182171D01*
X0182514Y0147500D02*
Y0146000D01*
Y0147500D02*
X0183156D01*
X0183371Y0147428D01*
X0183442Y0147357D01*
X0183514Y0147214D01*
Y0147071D01*
X0183442Y0146928D01*
X0183371Y0146857D01*
X0183156Y0146786D01*
X0182514D02*
X0183156D01*
X0183371Y0146714D01*
X0183442Y0146643D01*
X0183514Y0146500D01*
Y0146286D01*
X0183442Y0146143D01*
X0183371Y0146071D01*
X0183156Y0146000D01*
X0182514D01*
X0184278Y0147500D02*
X0184063Y0147428D01*
X0183921Y0147214D01*
X0183849Y0146857D01*
Y0146643D01*
X0183921Y0146286D01*
X0184063Y0146071D01*
X0184278Y0146000D01*
X0184420D01*
X0184635Y0146071D01*
X0184778Y0146286D01*
X0184849Y0146643D01*
Y0146857D01*
X0184778Y0147214D01*
X0184635Y0147428D01*
X0184420Y0147500D01*
X0184278D01*
X0185613D02*
X0185399Y0147428D01*
X0185256Y0147214D01*
X0185185Y0146857D01*
Y0146643D01*
X0185256Y0146286D01*
X0185399Y0146071D01*
X0185613Y0146000D01*
X0185756D01*
X0185970Y0146071D01*
X0186113Y0146286D01*
X0186184Y0146643D01*
Y0146857D01*
X0186113Y0147214D01*
X0185970Y0147428D01*
X0185756Y0147500D01*
X0185613D01*
X0186949D02*
X0186734Y0147428D01*
X0186591Y0147214D01*
X0186520Y0146857D01*
Y0146643D01*
X0186591Y0146286D01*
X0186734Y0146071D01*
X0186949Y0146000D01*
X0187091D01*
X0187306Y0146071D01*
X0187448Y0146286D01*
X0187520Y0146643D01*
Y0146857D01*
X0187448Y0147214D01*
X0187306Y0147428D01*
X0187091Y0147500D01*
X0186949D01*
X0187855Y0147214D02*
X0187998Y0147285D01*
X0188213Y0147500D01*
Y0146000D01*
X0190134Y0146857D02*
X0191419D01*
X0190134Y0146428D02*
X0191419D01*
X0193111Y0147143D02*
Y0147214D01*
X0193183Y0147357D01*
X0193254Y0147428D01*
X0193397Y0147500D01*
X0193683D01*
X0193826Y0147428D01*
X0193897Y0147357D01*
X0193968Y0147214D01*
Y0147071D01*
X0193897Y0146928D01*
X0193754Y0146714D01*
X0193040Y0146000D01*
X0194040D01*
X0194375Y0147500D02*
X0194947Y0146000D01*
X0195518Y0147500D02*
X0194947Y0146000D01*
X0195711Y0147214D02*
X0195854Y0147285D01*
X0196068Y0147500D01*
Y0146000D01*
X0197989Y0146857D02*
X0199274D01*
X0197989Y0146428D02*
X0199274D01*
X0200967Y0147143D02*
Y0147214D01*
X0201038Y0147357D01*
X0201110Y0147428D01*
X0201253Y0147500D01*
X0201538D01*
X0201681Y0147428D01*
X0201752Y0147357D01*
X0201824Y0147214D01*
Y0147071D01*
X0201752Y0146928D01*
X0201610Y0146714D01*
X0200896Y0146000D01*
X0201895D01*
X0203231Y0147500D02*
X0202517Y0146000D01*
X0202231Y0147500D02*
X0203231D01*
X0204745D02*
Y0146000D01*
Y0147500D02*
X0205316Y0146000D01*
X0205887Y0147500D02*
X0205316Y0146000D01*
X0205887Y0147500D02*
Y0146000D01*
X0207458D02*
X0206887Y0147500D01*
X0206316Y0146000D01*
X0206530Y0146500D02*
X0207244D01*
X0207808Y0147500D02*
X0208380Y0146786D01*
Y0146000D01*
X0208951Y0147500D02*
X0208380Y0146786D01*
X0210393Y0147143D02*
Y0147214D01*
X0210465Y0147357D01*
X0210536Y0147428D01*
X0210679Y0147500D01*
X0210965D01*
X0211108Y0147428D01*
X0211179Y0147357D01*
X0211250Y0147214D01*
Y0147071D01*
X0211179Y0146928D01*
X0211036Y0146714D01*
X0210322Y0146000D01*
X0211322D01*
X0212086Y0147500D02*
X0211872Y0147428D01*
X0211729Y0147214D01*
X0211658Y0146857D01*
Y0146643D01*
X0211729Y0146286D01*
X0211872Y0146071D01*
X0212086Y0146000D01*
X0212229D01*
X0212443Y0146071D01*
X0212586Y0146286D01*
X0212657Y0146643D01*
Y0146857D01*
X0212586Y0147214D01*
X0212443Y0147428D01*
X0212229Y0147500D01*
X0212086D01*
X0212993Y0147214D02*
X0213136Y0147285D01*
X0213350Y0147500D01*
Y0146000D01*
X0214950Y0147500D02*
X0214236D01*
X0214164Y0146857D01*
X0214236Y0146928D01*
X0214450Y0147000D01*
X0214664D01*
X0214878Y0146928D01*
X0215021Y0146786D01*
X0215092Y0146571D01*
Y0146428D01*
X0215021Y0146214D01*
X0214878Y0146071D01*
X0214664Y0146000D01*
X0214450D01*
X0214236Y0146071D01*
X0214164Y0146143D01*
X0214093Y0146286D01*
D74*
X0193840Y0170180D02*
G03*
X0193840Y0170180I-0000800J0000000D01*
G01*
X0221200Y0169300D02*
G03*
X0221200Y0169300I-0000700J0000000D01*
G01*
X0223200Y0171300D02*
G03*
X0223200Y0171300I-0000700J0000000D01*
G01*
X0221600Y0166100D02*
G03*
X0221600Y0166100I-0000700J0000000D01*
G01*
X0223200Y0169300D02*
G03*
X0223200Y0169300I-0000700J0000000D01*
G01*
X0196380Y0162560D02*
G03*
X0196380Y0162560I-0000800J0000000D01*
G01*
X0226860Y0160020D02*
G03*
X0226860Y0160020I-0000800J0000000D01*
G01*
X0198920Y0165100D02*
G03*
X0198920Y0165100I-0000800J0000000D01*
G01*
X0196380Y0170180D02*
G03*
X0196380Y0170180I-0000800J0000000D01*
G01*
X0247180Y0162560D02*
G03*
X0247180Y0162560I-0000800J0000000D01*
G01*
Y0167640D02*
G03*
X0247180Y0167640I-0000800J0000000D01*
G01*
X0239560Y0162560D02*
G03*
X0239560Y0162560I-0000800J0000000D01*
G01*
X0221780Y0160020D02*
G03*
X0221780Y0160020I-0000800J0000000D01*
G01*
Y0162560D02*
G03*
X0221780Y0162560I-0000800J0000000D01*
G01*
X0247180Y0157480D02*
G03*
X0247180Y0157480I-0000800J0000000D01*
G01*
X0188760Y0170180D02*
G03*
X0188760Y0170180I-0000800J0000000D01*
G01*
X0191300D02*
G03*
X0191300Y0170180I-0000800J0000000D01*
G01*
X0219240Y0167640D02*
G03*
X0219240Y0167640I-0000800J0000000D01*
G01*
X0209080D02*
G03*
X0209080Y0167640I-0000800J0000000D01*
G01*
X0211620D02*
G03*
X0211620Y0167640I-0000800J0000000D01*
G01*
X0216700D02*
G03*
X0216700Y0167640I-0000800J0000000D01*
G01*
X0214160D02*
G03*
X0214160Y0167640I-0000800J0000000D01*
G01*
X0193440Y0171467D02*
X0192640D01*
X0193440Y0171200D02*
Y0171733D01*
X0193021Y0171828D02*
Y0172171D01*
X0193059Y0172285D01*
X0193097Y0172324D01*
X0193173Y0172362D01*
X0193287D01*
X0193364Y0172324D01*
X0193402Y0172285D01*
X0193440Y0172171D01*
Y0171828D01*
X0192640D01*
X0193287Y0172541D02*
X0193326Y0172617D01*
X0193440Y0172731D01*
X0192640D01*
X0193440Y0173584D02*
Y0173203D01*
X0193097Y0173165D01*
X0193135Y0173203D01*
X0193173Y0173318D01*
Y0173432D01*
X0193135Y0173546D01*
X0193059Y0173622D01*
X0192945Y0173660D01*
X0192869D01*
X0192754Y0173622D01*
X0192678Y0173546D01*
X0192640Y0173432D01*
Y0173318D01*
X0192678Y0173203D01*
X0192716Y0173165D01*
X0192792Y0173127D01*
X0213700Y0168967D02*
X0212900D01*
X0213700Y0168700D02*
Y0169233D01*
X0213281Y0169328D02*
Y0169671D01*
X0213319Y0169785D01*
X0213357Y0169824D01*
X0213433Y0169862D01*
X0213547D01*
X0213624Y0169824D01*
X0213662Y0169785D01*
X0213700Y0169671D01*
Y0169328D01*
X0212900D01*
X0213700Y0170574D02*
X0212900Y0170193D01*
X0213700Y0170041D02*
Y0170574D01*
X0216300Y0168967D02*
X0215500D01*
X0216300Y0168700D02*
Y0169233D01*
X0215881Y0169328D02*
Y0169671D01*
X0215919Y0169785D01*
X0215957Y0169824D01*
X0216033Y0169862D01*
X0216147D01*
X0216224Y0169824D01*
X0216262Y0169785D01*
X0216300Y0169671D01*
Y0169328D01*
X0215500D01*
X0216186Y0170498D02*
X0216262Y0170460D01*
X0216300Y0170345D01*
Y0170269D01*
X0216262Y0170155D01*
X0216147Y0170079D01*
X0215957Y0170041D01*
X0215767D01*
X0215614Y0170079D01*
X0215538Y0170155D01*
X0215500Y0170269D01*
Y0170307D01*
X0215538Y0170422D01*
X0215614Y0170498D01*
X0215729Y0170536D01*
X0215767D01*
X0215881Y0170498D01*
X0215957Y0170422D01*
X0215995Y0170307D01*
Y0170269D01*
X0215957Y0170155D01*
X0215881Y0170079D01*
X0215767Y0170041D01*
X0211200Y0168967D02*
X0210400D01*
X0211200Y0168700D02*
Y0169233D01*
X0210781Y0169328D02*
Y0169671D01*
X0210819Y0169785D01*
X0210857Y0169824D01*
X0210933Y0169862D01*
X0211047D01*
X0211124Y0169824D01*
X0211162Y0169785D01*
X0211200Y0169671D01*
Y0169328D01*
X0210400D01*
X0211200Y0170231D02*
X0211162Y0170117D01*
X0211086Y0170079D01*
X0211009D01*
X0210933Y0170117D01*
X0210895Y0170193D01*
X0210857Y0170345D01*
X0210819Y0170460D01*
X0210743Y0170536D01*
X0210667Y0170574D01*
X0210552D01*
X0210476Y0170536D01*
X0210438Y0170498D01*
X0210400Y0170383D01*
Y0170231D01*
X0210438Y0170117D01*
X0210476Y0170079D01*
X0210552Y0170041D01*
X0210667D01*
X0210743Y0170079D01*
X0210819Y0170155D01*
X0210857Y0170269D01*
X0210895Y0170422D01*
X0210933Y0170498D01*
X0211009Y0170536D01*
X0211086D01*
X0211162Y0170498D01*
X0211200Y0170383D01*
Y0170231D01*
X0208700Y0168967D02*
X0207900D01*
X0208700Y0168700D02*
Y0169233D01*
X0208281Y0169328D02*
Y0169671D01*
X0208319Y0169785D01*
X0208357Y0169824D01*
X0208433Y0169862D01*
X0208547D01*
X0208624Y0169824D01*
X0208662Y0169785D01*
X0208700Y0169671D01*
Y0169328D01*
X0207900D01*
X0208433Y0170536D02*
X0208319Y0170498D01*
X0208243Y0170422D01*
X0208205Y0170307D01*
Y0170269D01*
X0208243Y0170155D01*
X0208319Y0170079D01*
X0208433Y0170041D01*
X0208471D01*
X0208586Y0170079D01*
X0208662Y0170155D01*
X0208700Y0170269D01*
Y0170307D01*
X0208662Y0170422D01*
X0208586Y0170498D01*
X0208433Y0170536D01*
X0208243D01*
X0208052Y0170498D01*
X0207938Y0170422D01*
X0207900Y0170307D01*
Y0170231D01*
X0207938Y0170117D01*
X0208014Y0170079D01*
X0218800Y0168967D02*
X0218000D01*
X0218800Y0168700D02*
Y0169233D01*
X0218381Y0169328D02*
Y0169671D01*
X0218419Y0169785D01*
X0218457Y0169824D01*
X0218533Y0169862D01*
X0218647D01*
X0218724Y0169824D01*
X0218762Y0169785D01*
X0218800Y0169671D01*
Y0169328D01*
X0218000D01*
X0218647Y0170041D02*
X0218686Y0170117D01*
X0218800Y0170231D01*
X0218000D01*
X0218800Y0170703D02*
Y0171122D01*
X0218495Y0170894D01*
Y0171008D01*
X0218457Y0171084D01*
X0218419Y0171122D01*
X0218305Y0171160D01*
X0218229D01*
X0218114Y0171122D01*
X0218038Y0171046D01*
X0218000Y0170932D01*
Y0170818D01*
X0218038Y0170703D01*
X0218076Y0170665D01*
X0218152Y0170627D01*
X0190940Y0171467D02*
X0190140D01*
X0190940Y0171200D02*
Y0171733D01*
X0190521Y0171828D02*
Y0172171D01*
X0190559Y0172285D01*
X0190597Y0172324D01*
X0190673Y0172362D01*
X0190787D01*
X0190864Y0172324D01*
X0190902Y0172285D01*
X0190940Y0172171D01*
Y0171828D01*
X0190140D01*
X0190787Y0172541D02*
X0190826Y0172617D01*
X0190940Y0172731D01*
X0190140D01*
X0190787Y0173127D02*
X0190826Y0173203D01*
X0190940Y0173318D01*
X0190140D01*
X0188400Y0171467D02*
X0187600D01*
X0188400Y0171200D02*
Y0171733D01*
X0187981Y0171828D02*
Y0172171D01*
X0188019Y0172285D01*
X0188057Y0172324D01*
X0188133Y0172362D01*
X0188247D01*
X0188324Y0172324D01*
X0188362Y0172285D01*
X0188400Y0172171D01*
Y0171828D01*
X0187600D01*
X0188247Y0172541D02*
X0188286Y0172617D01*
X0188400Y0172731D01*
X0187600D01*
X0188209Y0173165D02*
X0188247D01*
X0188324Y0173203D01*
X0188362Y0173241D01*
X0188400Y0173318D01*
Y0173470D01*
X0188362Y0173546D01*
X0188324Y0173584D01*
X0188247Y0173622D01*
X0188171D01*
X0188095Y0173584D01*
X0187981Y0173508D01*
X0187600Y0173127D01*
Y0173660D01*
X0245133Y0157900D02*
Y0157100D01*
X0245400Y0157900D02*
X0244867D01*
X0244772Y0157481D02*
X0244429D01*
X0244315Y0157519D01*
X0244276Y0157557D01*
X0244238Y0157633D01*
Y0157747D01*
X0244276Y0157824D01*
X0244315Y0157862D01*
X0244429Y0157900D01*
X0244772D01*
Y0157100D01*
X0244059Y0157747D02*
X0243983Y0157786D01*
X0243869Y0157900D01*
Y0157100D01*
X0243092Y0157900D02*
X0243473Y0157367D01*
X0242901D01*
X0243092Y0157900D02*
Y0157100D01*
X0221833Y0164400D02*
Y0163600D01*
X0222100Y0164400D02*
X0221567D01*
X0221472Y0163981D02*
X0221129D01*
X0221015Y0164019D01*
X0220976Y0164057D01*
X0220938Y0164133D01*
Y0164247D01*
X0220976Y0164324D01*
X0221015Y0164362D01*
X0221129Y0164400D01*
X0221472D01*
Y0163600D01*
X0220759Y0164247D02*
X0220683Y0164286D01*
X0220569Y0164400D01*
Y0163600D01*
X0219716Y0164286D02*
X0219754Y0164362D01*
X0219868Y0164400D01*
X0219944D01*
X0220059Y0164362D01*
X0220135Y0164247D01*
X0220173Y0164057D01*
Y0163867D01*
X0220135Y0163714D01*
X0220059Y0163638D01*
X0219944Y0163600D01*
X0219906D01*
X0219792Y0163638D01*
X0219716Y0163714D01*
X0219678Y0163829D01*
Y0163867D01*
X0219716Y0163981D01*
X0219792Y0164057D01*
X0219906Y0164095D01*
X0219944D01*
X0220059Y0164057D01*
X0220135Y0163981D01*
X0220173Y0163867D01*
X0221933Y0158900D02*
Y0158100D01*
X0222200Y0158900D02*
X0221667D01*
X0221572Y0158481D02*
X0221229D01*
X0221115Y0158519D01*
X0221076Y0158557D01*
X0221038Y0158633D01*
Y0158747D01*
X0221076Y0158824D01*
X0221115Y0158862D01*
X0221229Y0158900D01*
X0221572D01*
Y0158100D01*
X0220859Y0158747D02*
X0220783Y0158786D01*
X0220669Y0158900D01*
Y0158100D01*
X0219740Y0158900D02*
X0220120Y0158100D01*
X0220273Y0158900D02*
X0219740D01*
X0237433Y0163000D02*
Y0162200D01*
X0237700Y0163000D02*
X0237167D01*
X0237072Y0162581D02*
X0236729D01*
X0236615Y0162619D01*
X0236576Y0162657D01*
X0236538Y0162733D01*
Y0162847D01*
X0236576Y0162924D01*
X0236615Y0162962D01*
X0236729Y0163000D01*
X0237072D01*
Y0162200D01*
X0236359Y0162847D02*
X0236283Y0162886D01*
X0236169Y0163000D01*
Y0162200D01*
X0235582Y0163000D02*
X0235697Y0162962D01*
X0235735Y0162886D01*
Y0162809D01*
X0235697Y0162733D01*
X0235620Y0162695D01*
X0235468Y0162657D01*
X0235354Y0162619D01*
X0235278Y0162543D01*
X0235240Y0162467D01*
Y0162352D01*
X0235278Y0162276D01*
X0235316Y0162238D01*
X0235430Y0162200D01*
X0235582D01*
X0235697Y0162238D01*
X0235735Y0162276D01*
X0235773Y0162352D01*
Y0162467D01*
X0235735Y0162543D01*
X0235659Y0162619D01*
X0235544Y0162657D01*
X0235392Y0162695D01*
X0235316Y0162733D01*
X0235278Y0162809D01*
Y0162886D01*
X0235316Y0162962D01*
X0235430Y0163000D01*
X0235582D01*
X0247333Y0169500D02*
Y0168700D01*
X0247600Y0169500D02*
X0247067D01*
X0246972Y0169081D02*
X0246629D01*
X0246515Y0169119D01*
X0246476Y0169157D01*
X0246438Y0169233D01*
Y0169347D01*
X0246476Y0169424D01*
X0246515Y0169462D01*
X0246629Y0169500D01*
X0246972D01*
Y0168700D01*
X0246259Y0169347D02*
X0246183Y0169386D01*
X0246069Y0169500D01*
Y0168700D01*
X0245178Y0169233D02*
X0245216Y0169119D01*
X0245292Y0169043D01*
X0245406Y0169005D01*
X0245444D01*
X0245559Y0169043D01*
X0245635Y0169119D01*
X0245673Y0169233D01*
Y0169271D01*
X0245635Y0169386D01*
X0245559Y0169462D01*
X0245444Y0169500D01*
X0245406D01*
X0245292Y0169462D01*
X0245216Y0169386D01*
X0245178Y0169233D01*
Y0169043D01*
X0245216Y0168852D01*
X0245292Y0168738D01*
X0245406Y0168700D01*
X0245482D01*
X0245597Y0168738D01*
X0245635Y0168814D01*
X0247433Y0164400D02*
Y0163600D01*
X0247700Y0164400D02*
X0247167D01*
X0247072Y0163981D02*
X0246729D01*
X0246615Y0164019D01*
X0246576Y0164057D01*
X0246538Y0164133D01*
Y0164247D01*
X0246576Y0164324D01*
X0246615Y0164362D01*
X0246729Y0164400D01*
X0247072D01*
Y0163600D01*
X0246321Y0164209D02*
Y0164247D01*
X0246283Y0164324D01*
X0246245Y0164362D01*
X0246169Y0164400D01*
X0246017D01*
X0245940Y0164362D01*
X0245902Y0164324D01*
X0245864Y0164247D01*
Y0164171D01*
X0245902Y0164095D01*
X0245978Y0163981D01*
X0246359Y0163600D01*
X0245826D01*
X0245419Y0164400D02*
X0245533Y0164362D01*
X0245609Y0164247D01*
X0245647Y0164057D01*
Y0163943D01*
X0245609Y0163752D01*
X0245533Y0163638D01*
X0245419Y0163600D01*
X0245342D01*
X0245228Y0163638D01*
X0245152Y0163752D01*
X0245114Y0163943D01*
Y0164057D01*
X0245152Y0164247D01*
X0245228Y0164362D01*
X0245342Y0164400D01*
X0245419D01*
X0196000Y0171467D02*
X0195200D01*
X0196000Y0171200D02*
Y0171733D01*
X0195581Y0171828D02*
Y0172171D01*
X0195619Y0172285D01*
X0195657Y0172324D01*
X0195733Y0172362D01*
X0195847D01*
X0195924Y0172324D01*
X0195962Y0172285D01*
X0196000Y0172171D01*
Y0171828D01*
X0195200D01*
X0195809Y0172579D02*
X0195847D01*
X0195924Y0172617D01*
X0195962Y0172655D01*
X0196000Y0172731D01*
Y0172883D01*
X0195962Y0172960D01*
X0195924Y0172998D01*
X0195847Y0173036D01*
X0195771D01*
X0195695Y0172998D01*
X0195581Y0172922D01*
X0195200Y0172541D01*
Y0173074D01*
X0195847Y0173253D02*
X0195886Y0173329D01*
X0196000Y0173443D01*
X0195200D01*
X0198500Y0166467D02*
X0197700D01*
X0198500Y0166200D02*
Y0166733D01*
X0198081Y0166828D02*
Y0167171D01*
X0198119Y0167285D01*
X0198157Y0167324D01*
X0198233Y0167362D01*
X0198347D01*
X0198424Y0167324D01*
X0198462Y0167285D01*
X0198500Y0167171D01*
Y0166828D01*
X0197700D01*
X0198309Y0167579D02*
X0198347D01*
X0198424Y0167617D01*
X0198462Y0167655D01*
X0198500Y0167731D01*
Y0167883D01*
X0198462Y0167960D01*
X0198424Y0167998D01*
X0198347Y0168036D01*
X0198271D01*
X0198195Y0167998D01*
X0198081Y0167922D01*
X0197700Y0167541D01*
Y0168074D01*
X0198309Y0168291D02*
X0198347D01*
X0198424Y0168329D01*
X0198462Y0168367D01*
X0198500Y0168443D01*
Y0168596D01*
X0198462Y0168672D01*
X0198424Y0168710D01*
X0198347Y0168748D01*
X0198271D01*
X0198195Y0168710D01*
X0198081Y0168634D01*
X0197700Y0168253D01*
Y0168786D01*
X0227133Y0158900D02*
Y0158100D01*
X0227400Y0158900D02*
X0226867D01*
X0226772Y0158481D02*
X0226429D01*
X0226315Y0158519D01*
X0226276Y0158557D01*
X0226238Y0158633D01*
Y0158747D01*
X0226276Y0158824D01*
X0226315Y0158862D01*
X0226429Y0158900D01*
X0226772D01*
Y0158100D01*
X0226021Y0158709D02*
Y0158747D01*
X0225983Y0158824D01*
X0225945Y0158862D01*
X0225869Y0158900D01*
X0225717D01*
X0225640Y0158862D01*
X0225602Y0158824D01*
X0225564Y0158747D01*
Y0158671D01*
X0225602Y0158595D01*
X0225678Y0158481D01*
X0226059Y0158100D01*
X0225526D01*
X0225271Y0158900D02*
X0224852D01*
X0225080Y0158595D01*
X0224966D01*
X0224890Y0158557D01*
X0224852Y0158519D01*
X0224814Y0158405D01*
Y0158329D01*
X0224852Y0158214D01*
X0224928Y0158138D01*
X0225042Y0158100D01*
X0225157D01*
X0225271Y0158138D01*
X0225309Y0158176D01*
X0225347Y0158252D01*
X0196000Y0163867D02*
X0195200D01*
X0196000Y0163600D02*
Y0164133D01*
X0195581Y0164228D02*
Y0164571D01*
X0195619Y0164685D01*
X0195657Y0164724D01*
X0195733Y0164762D01*
X0195847D01*
X0195924Y0164724D01*
X0195962Y0164685D01*
X0196000Y0164571D01*
Y0164228D01*
X0195200D01*
X0195847Y0164941D02*
X0195886Y0165017D01*
X0196000Y0165131D01*
X0195200D01*
X0196000Y0165756D02*
X0195962Y0165641D01*
X0195847Y0165565D01*
X0195657Y0165527D01*
X0195543D01*
X0195352Y0165565D01*
X0195238Y0165641D01*
X0195200Y0165756D01*
Y0165832D01*
X0195238Y0165946D01*
X0195352Y0166022D01*
X0195543Y0166060D01*
X0195657D01*
X0195847Y0166022D01*
X0195962Y0165946D01*
X0196000Y0165832D01*
Y0165756D01*
X0223233Y0168300D02*
Y0167500D01*
X0223500Y0168300D02*
X0222967D01*
X0222872Y0167881D02*
X0222529D01*
X0222415Y0167919D01*
X0222376Y0167957D01*
X0222338Y0168033D01*
Y0168147D01*
X0222376Y0168224D01*
X0222415Y0168262D01*
X0222529Y0168300D01*
X0222872D01*
Y0167500D01*
X0222083Y0168300D02*
X0221664D01*
X0221893Y0167995D01*
X0221778D01*
X0221702Y0167957D01*
X0221664Y0167919D01*
X0221626Y0167805D01*
Y0167729D01*
X0221664Y0167614D01*
X0221740Y0167538D01*
X0221855Y0167500D01*
X0221969D01*
X0222083Y0167538D01*
X0222121Y0167576D01*
X0222159Y0167652D01*
X0223533Y0166500D02*
Y0165700D01*
X0223800Y0166500D02*
X0223267D01*
X0223172Y0166081D02*
X0222829D01*
X0222715Y0166119D01*
X0222676Y0166157D01*
X0222638Y0166233D01*
Y0166347D01*
X0222676Y0166424D01*
X0222715Y0166462D01*
X0222829Y0166500D01*
X0223172D01*
Y0165700D01*
X0222002Y0166500D02*
X0222383D01*
X0222421Y0166157D01*
X0222383Y0166195D01*
X0222269Y0166233D01*
X0222155D01*
X0222040Y0166195D01*
X0221964Y0166119D01*
X0221926Y0166005D01*
Y0165929D01*
X0221964Y0165814D01*
X0222040Y0165738D01*
X0222155Y0165700D01*
X0222269D01*
X0222383Y0165738D01*
X0222421Y0165776D01*
X0222459Y0165852D01*
X0224833Y0171700D02*
Y0170900D01*
X0225100Y0171700D02*
X0224567D01*
X0224472Y0171281D02*
X0224129D01*
X0224015Y0171319D01*
X0223976Y0171357D01*
X0223938Y0171433D01*
Y0171547D01*
X0223976Y0171624D01*
X0224015Y0171662D01*
X0224129Y0171700D01*
X0224472D01*
Y0170900D01*
X0223759Y0171547D02*
X0223683Y0171586D01*
X0223569Y0171700D01*
Y0170900D01*
X0220900Y0170467D02*
X0220100D01*
X0220900Y0170200D02*
Y0170733D01*
X0220481Y0170828D02*
Y0171171D01*
X0220519Y0171285D01*
X0220557Y0171324D01*
X0220633Y0171362D01*
X0220747D01*
X0220824Y0171324D01*
X0220862Y0171285D01*
X0220900Y0171171D01*
Y0170828D01*
X0220100D01*
X0220709Y0171579D02*
X0220747D01*
X0220824Y0171617D01*
X0220862Y0171655D01*
X0220900Y0171731D01*
Y0171883D01*
X0220862Y0171960D01*
X0220824Y0171998D01*
X0220747Y0172036D01*
X0220671D01*
X0220595Y0171998D01*
X0220481Y0171922D01*
X0220100Y0171541D01*
Y0172074D01*
M02*
