%FSAX43Y43*%
%MOMM*%
G71*
G01*
G75*
G04 Layer_Physical_Order=3*
G04 Layer_Color=128*
%ADD10R,0.590X0.600*%
%ADD11R,0.630X0.610*%
%ADD12R,0.600X0.590*%
%ADD13R,0.610X0.630*%
%ADD14R,0.590X1.910*%
%ADD15R,0.550X0.300*%
%ADD16R,1.210X0.590*%
%ADD17R,1.280X0.590*%
%ADD18R,1.090X0.400*%
%ADD19R,0.400X1.090*%
%ADD20R,1.520X0.330*%
%ADD21R,0.930X0.790*%
%ADD22R,1.600X0.280*%
%ADD23C,0.750*%
%ADD24R,5.500X5.500*%
%ADD25R,0.280X1.600*%
%ADD26R,3.700X3.700*%
%ADD27O,0.800X0.220*%
%ADD28O,0.220X0.800*%
%ADD29R,1.270X1.020*%
%ADD30R,0.910X0.930*%
%ADD31R,1.140X1.470*%
%ADD32R,1.000X0.970*%
%ADD33C,1.000*%
%ADD34R,0.400X0.350*%
%ADD35R,1.350X0.400*%
%ADD36R,1.600X1.900*%
%ADD37R,1.400X1.600*%
%ADD38R,1.800X1.230*%
%ADD39R,1.160X1.470*%
%ADD40R,0.930X0.920*%
%ADD41R,0.920X0.930*%
%ADD42R,1.470X1.160*%
%ADD43R,0.350X0.400*%
%ADD44C,0.250*%
%ADD45C,0.150*%
%ADD46C,0.300*%
%ADD47C,0.500*%
%ADD48C,0.280*%
%ADD49C,0.400*%
%ADD50C,0.220*%
%ADD51C,0.160*%
%ADD52C,0.200*%
%ADD53C,0.600*%
%ADD54C,0.800*%
%ADD55C,0.590*%
%ADD56C,0.260*%
%ADD57R,1.200X1.600*%
%ADD58R,1.600X1.100*%
%ADD59R,1.200X1.600*%
%ADD60R,1.100X1.600*%
%ADD61C,1.400*%
%ADD62C,2.200*%
G04:AMPARAMS|DCode=63|XSize=0.9mm|YSize=1.6mm|CornerRadius=0.45mm|HoleSize=0mm|Usage=FLASHONLY|Rotation=270.000|XOffset=0mm|YOffset=0mm|HoleType=Round|Shape=RoundedRectangle|*
%AMROUNDEDRECTD63*
21,1,0.900,0.700,0,0,270.0*
21,1,0.000,1.600,0,0,270.0*
1,1,0.900,-0.350,0.000*
1,1,0.900,-0.350,0.000*
1,1,0.900,0.350,0.000*
1,1,0.900,0.350,0.000*
%
%ADD63ROUNDEDRECTD63*%
%ADD64C,0.600*%
%ADD65C,1.000*%
%ADD66C,1.800*%
G04:AMPARAMS|DCode=67|XSize=1.8mm|YSize=1.8mm|CornerRadius=0mm|HoleSize=0mm|Usage=FLASHONLY|Rotation=0.000|XOffset=0mm|YOffset=0mm|HoleType=Round|Shape=Relief|Width=0.2mm|Gap=0.25mm|Entries=4|*
%AMTHD67*
7,0,0,1.800,1.300,0.200,45*
%
%ADD67THD67*%
%ADD68C,1.900*%
G04:AMPARAMS|DCode=69|XSize=2.3mm|YSize=2.3mm|CornerRadius=0mm|HoleSize=0mm|Usage=FLASHONLY|Rotation=0.000|XOffset=0mm|YOffset=0mm|HoleType=Round|Shape=Relief|Width=0.2mm|Gap=0.25mm|Entries=4|*
%AMTHD69*
7,0,0,2.300,1.800,0.200,45*
%
%ADD69THD69*%
%ADD70O,1.800X1.100*%
%ADD71C,3.650*%
%ADD72C,0.850*%
D45*
X0119000Y0067000D02*
Y0065500D01*
X0119857D01*
X0121164D02*
X0120593Y0067000D01*
X0120021Y0065500D01*
X0120235Y0066000D02*
X0120950D01*
X0121514Y0067000D02*
X0122085Y0066286D01*
Y0065500D01*
X0122656Y0067000D02*
X0122085Y0066286D01*
X0123778Y0067000D02*
X0122849D01*
Y0065500D01*
X0123778D01*
X0122849Y0066286D02*
X0123420D01*
X0124027Y0067000D02*
Y0065500D01*
Y0067000D02*
X0124670D01*
X0124884Y0066928D01*
X0124956Y0066857D01*
X0125027Y0066714D01*
Y0066571D01*
X0124956Y0066428D01*
X0124884Y0066357D01*
X0124670Y0066286D01*
X0124027D01*
X0124527D02*
X0125027Y0065500D01*
X0126684Y0067000D02*
X0127470D01*
X0127041Y0066428D01*
X0127255D01*
X0127398Y0066357D01*
X0127470Y0066286D01*
X0127541Y0066071D01*
Y0065928D01*
X0127470Y0065714D01*
X0127327Y0065571D01*
X0127113Y0065500D01*
X0126898D01*
X0126684Y0065571D01*
X0126613Y0065643D01*
X0126541Y0065786D01*
X0180000Y0145500D02*
Y0144000D01*
X0180857D01*
X0182164D02*
X0181593Y0145500D01*
X0181021Y0144000D01*
X0181235Y0144500D02*
X0181950D01*
X0182514Y0145500D02*
X0183085Y0144786D01*
Y0144000D01*
X0183656Y0145500D02*
X0183085Y0144786D01*
X0184778Y0145500D02*
X0183849D01*
Y0144000D01*
X0184778D01*
X0183849Y0144786D02*
X0184420D01*
X0185027Y0145500D02*
Y0144000D01*
Y0145500D02*
X0185670D01*
X0185884Y0145428D01*
X0185956Y0145357D01*
X0186027Y0145214D01*
Y0145071D01*
X0185956Y0144928D01*
X0185884Y0144857D01*
X0185670Y0144786D01*
X0185027D01*
X0185527D02*
X0186027Y0144000D01*
X0187684Y0145500D02*
X0188470D01*
X0188041Y0144928D01*
X0188255D01*
X0188398Y0144857D01*
X0188470Y0144786D01*
X0188541Y0144571D01*
Y0144428D01*
X0188470Y0144214D01*
X0188327Y0144071D01*
X0188113Y0144000D01*
X0187898D01*
X0187684Y0144071D01*
X0187613Y0144143D01*
X0187541Y0144286D01*
X0180714Y0147500D02*
Y0146357D01*
X0180643Y0146143D01*
X0180571Y0146071D01*
X0180428Y0146000D01*
X0180286D01*
X0180143Y0146071D01*
X0180071Y0146143D01*
X0180000Y0146357D01*
Y0146500D01*
X0182171Y0147143D02*
X0182100Y0147285D01*
X0181957Y0147428D01*
X0181814Y0147500D01*
X0181528D01*
X0181385Y0147428D01*
X0181243Y0147285D01*
X0181171Y0147143D01*
X0181100Y0146928D01*
Y0146571D01*
X0181171Y0146357D01*
X0181243Y0146214D01*
X0181385Y0146071D01*
X0181528Y0146000D01*
X0181814D01*
X0181957Y0146071D01*
X0182100Y0146214D01*
X0182171Y0146357D01*
Y0146571D01*
X0181814D02*
X0182171D01*
X0182514Y0147500D02*
Y0146000D01*
Y0147500D02*
X0183156D01*
X0183371Y0147428D01*
X0183442Y0147357D01*
X0183514Y0147214D01*
Y0147071D01*
X0183442Y0146928D01*
X0183371Y0146857D01*
X0183156Y0146786D01*
X0182514D02*
X0183156D01*
X0183371Y0146714D01*
X0183442Y0146643D01*
X0183514Y0146500D01*
Y0146286D01*
X0183442Y0146143D01*
X0183371Y0146071D01*
X0183156Y0146000D01*
X0182514D01*
X0184278Y0147500D02*
X0184063Y0147428D01*
X0183921Y0147214D01*
X0183849Y0146857D01*
Y0146643D01*
X0183921Y0146286D01*
X0184063Y0146071D01*
X0184278Y0146000D01*
X0184420D01*
X0184635Y0146071D01*
X0184778Y0146286D01*
X0184849Y0146643D01*
Y0146857D01*
X0184778Y0147214D01*
X0184635Y0147428D01*
X0184420Y0147500D01*
X0184278D01*
X0185613D02*
X0185399Y0147428D01*
X0185256Y0147214D01*
X0185185Y0146857D01*
Y0146643D01*
X0185256Y0146286D01*
X0185399Y0146071D01*
X0185613Y0146000D01*
X0185756D01*
X0185970Y0146071D01*
X0186113Y0146286D01*
X0186184Y0146643D01*
Y0146857D01*
X0186113Y0147214D01*
X0185970Y0147428D01*
X0185756Y0147500D01*
X0185613D01*
X0186949D02*
X0186734Y0147428D01*
X0186591Y0147214D01*
X0186520Y0146857D01*
Y0146643D01*
X0186591Y0146286D01*
X0186734Y0146071D01*
X0186949Y0146000D01*
X0187091D01*
X0187306Y0146071D01*
X0187448Y0146286D01*
X0187520Y0146643D01*
Y0146857D01*
X0187448Y0147214D01*
X0187306Y0147428D01*
X0187091Y0147500D01*
X0186949D01*
X0187855Y0147214D02*
X0187998Y0147285D01*
X0188213Y0147500D01*
Y0146000D01*
X0190134Y0146857D02*
X0191419D01*
X0190134Y0146428D02*
X0191419D01*
X0193111Y0147143D02*
Y0147214D01*
X0193183Y0147357D01*
X0193254Y0147428D01*
X0193397Y0147500D01*
X0193683D01*
X0193826Y0147428D01*
X0193897Y0147357D01*
X0193968Y0147214D01*
Y0147071D01*
X0193897Y0146928D01*
X0193754Y0146714D01*
X0193040Y0146000D01*
X0194040D01*
X0194375Y0147500D02*
X0194947Y0146000D01*
X0195518Y0147500D02*
X0194947Y0146000D01*
X0195711Y0147214D02*
X0195854Y0147285D01*
X0196068Y0147500D01*
Y0146000D01*
X0197989Y0146857D02*
X0199274D01*
X0197989Y0146428D02*
X0199274D01*
X0200967Y0147143D02*
Y0147214D01*
X0201038Y0147357D01*
X0201110Y0147428D01*
X0201253Y0147500D01*
X0201538D01*
X0201681Y0147428D01*
X0201752Y0147357D01*
X0201824Y0147214D01*
Y0147071D01*
X0201752Y0146928D01*
X0201610Y0146714D01*
X0200896Y0146000D01*
X0201895D01*
X0203231Y0147500D02*
X0202517Y0146000D01*
X0202231Y0147500D02*
X0203231D01*
X0204745D02*
Y0146000D01*
Y0147500D02*
X0205316Y0146000D01*
X0205887Y0147500D02*
X0205316Y0146000D01*
X0205887Y0147500D02*
Y0146000D01*
X0207458D02*
X0206887Y0147500D01*
X0206316Y0146000D01*
X0206530Y0146500D02*
X0207244D01*
X0207808Y0147500D02*
X0208380Y0146786D01*
Y0146000D01*
X0208951Y0147500D02*
X0208380Y0146786D01*
X0210393Y0147143D02*
Y0147214D01*
X0210465Y0147357D01*
X0210536Y0147428D01*
X0210679Y0147500D01*
X0210965D01*
X0211108Y0147428D01*
X0211179Y0147357D01*
X0211250Y0147214D01*
Y0147071D01*
X0211179Y0146928D01*
X0211036Y0146714D01*
X0210322Y0146000D01*
X0211322D01*
X0212086Y0147500D02*
X0211872Y0147428D01*
X0211729Y0147214D01*
X0211658Y0146857D01*
Y0146643D01*
X0211729Y0146286D01*
X0211872Y0146071D01*
X0212086Y0146000D01*
X0212229D01*
X0212443Y0146071D01*
X0212586Y0146286D01*
X0212657Y0146643D01*
Y0146857D01*
X0212586Y0147214D01*
X0212443Y0147428D01*
X0212229Y0147500D01*
X0212086D01*
X0212993Y0147214D02*
X0213136Y0147285D01*
X0213350Y0147500D01*
Y0146000D01*
X0214950Y0147500D02*
X0214236D01*
X0214164Y0146857D01*
X0214236Y0146928D01*
X0214450Y0147000D01*
X0214664D01*
X0214878Y0146928D01*
X0215021Y0146786D01*
X0215092Y0146571D01*
Y0146428D01*
X0215021Y0146214D01*
X0214878Y0146071D01*
X0214664Y0146000D01*
X0214450D01*
X0214236Y0146071D01*
X0214164Y0146143D01*
X0214093Y0146286D01*
D52*
X0205800Y0157000D02*
X0207700D01*
X0205000Y0157800D02*
X0205800Y0157000D01*
X0203700Y0157800D02*
X0205000D01*
X0201300D02*
X0203700D01*
X0201100Y0157600D02*
X0201300Y0157800D01*
X0200500Y0157000D02*
X0201100Y0157600D01*
X0196300Y0157000D02*
X0200500D01*
X0187000Y0160500D02*
X0188900Y0158600D01*
X0187000Y0160500D02*
Y0160600D01*
X0194700Y0158600D02*
X0196300Y0157000D01*
X0188900Y0158600D02*
X0194700D01*
X0209100Y0164800D02*
Y0166800D01*
X0208900Y0164600D02*
X0209100Y0164800D01*
X0208600Y0164300D02*
X0208900Y0164600D01*
X0208000Y0164300D02*
X0208600D01*
X0207800Y0164100D02*
X0208000Y0164300D01*
X0207800Y0163600D02*
Y0164100D01*
X0208700Y0163300D02*
X0209100Y0162900D01*
X0208100Y0163300D02*
X0208700D01*
X0207800Y0163600D02*
X0208100Y0163300D01*
X0209100Y0166800D02*
Y0168600D01*
Y0161400D02*
Y0162900D01*
X0224700Y0155000D02*
Y0157500D01*
X0223700Y0158500D02*
X0224700Y0157500D01*
X0204700Y0173000D02*
X0209100Y0168600D01*
X0204500Y0173000D02*
X0204700D01*
X0203600D02*
X0204500D01*
X0202100Y0171500D02*
X0203600Y0173000D01*
X0222000Y0158500D02*
X0223700D01*
X0225700Y0160500D01*
Y0162300D01*
X0225000Y0163000D02*
X0225700Y0162300D01*
X0221000Y0163000D02*
X0225000D01*
X0219000Y0165000D02*
X0221000Y0163000D01*
X0219000Y0165000D02*
Y0167000D01*
X0222500Y0170500D01*
Y0175000D01*
X0231500Y0160000D02*
Y0170000D01*
X0228000Y0173500D02*
X0231500Y0170000D01*
X0227000Y0173500D02*
X0228000D01*
X0227000Y0160000D02*
Y0173500D01*
Y0160000D02*
X0231500D01*
X0216000Y0158500D02*
X0222000D01*
X0213600Y0160900D02*
X0216000Y0158500D01*
X0211600Y0160900D02*
X0213600D01*
X0207700Y0157000D02*
X0211600Y0160900D01*
X0187000Y0160500D02*
Y0162000D01*
X0190000Y0165000D01*
Y0175000D01*
X0196400Y0171500D02*
X0202100D01*
X0207800Y0160100D02*
X0209100Y0161400D01*
X0196000Y0160100D02*
X0207800D01*
X0196000D02*
Y0161300D01*
X0200200Y0165500D01*
Y0166600D01*
X0199400Y0167400D02*
X0200200Y0166600D01*
X0198600Y0167400D02*
X0199400D01*
X0196400Y0169600D02*
X0198600Y0167400D01*
X0196400Y0169600D02*
Y0171500D01*
D61*
X0240800Y0165000D02*
D03*
Y0163000D02*
D03*
D65*
X0183000Y0175000D02*
G03*
X0180000Y0172000I0000000J-0003000D01*
G01*
X0255000D02*
G03*
X0252000Y0175000I-0003000J0000000D01*
G01*
X0252000Y0155000D02*
G03*
X0255000Y0158000I0000000J0003000D01*
G01*
X0180000D02*
G03*
X0183000Y0155000I0003000J0000000D01*
G01*
X0180000Y0158000D02*
Y0172000D01*
X0183000Y0175000D02*
X0252000D01*
X0255000Y0158000D02*
Y0172000D01*
X0183000Y0155000D02*
X0252000D01*
D66*
X0253200Y0165000D02*
D03*
X0248700D02*
D03*
D67*
X0240800Y0167000D02*
D03*
D68*
X0243900Y0167900D02*
D03*
X0253400Y0168900D02*
D03*
X0249800Y0161800D02*
D03*
X0253200D02*
D03*
D69*
X0249900Y0168400D02*
D03*
D70*
X0181425Y0161700D02*
D03*
Y0168300D02*
D03*
D71*
X0183000Y0158000D02*
D03*
Y0172000D02*
D03*
X0252000D02*
D03*
Y0158000D02*
D03*
D72*
X0212500Y0164900D02*
D03*
X0218900Y0165300D02*
D03*
X0241900Y0170900D02*
D03*
X0226500Y0166100D02*
D03*
X0219000Y0168700D02*
D03*
X0208800Y0173000D02*
D03*
X0212000Y0167300D02*
D03*
X0200300Y0168100D02*
D03*
X0199700Y0167400D02*
D03*
X0215400Y0171300D02*
D03*
X0209900Y0169400D02*
D03*
X0216535Y0169165D02*
D03*
X0204700Y0173700D02*
D03*
X0205700Y0172500D02*
D03*
X0202750Y0172160D02*
D03*
X0214000Y0169300D02*
D03*
X0213000Y0168700D02*
D03*
X0207400Y0173500D02*
D03*
X0211400Y0173700D02*
D03*
X0210500Y0157500D02*
D03*
X0208800D02*
D03*
X0222200Y0162100D02*
D03*
X0192000Y0171300D02*
D03*
X0192900D02*
D03*
X0191800Y0156500D02*
D03*
X0188100Y0159100D02*
D03*
X0191300Y0167900D02*
D03*
X0197300Y0173700D02*
D03*
X0190800D02*
D03*
X0181500Y0169800D02*
D03*
X0191100Y0171300D02*
D03*
X0181400Y0160200D02*
D03*
X0188100Y0157100D02*
D03*
X0191800Y0158700D02*
D03*
X0216100Y0159000D02*
D03*
X0213000Y0157100D02*
D03*
X0218200D02*
D03*
X0229100Y0161400D02*
D03*
X0218800Y0172900D02*
D03*
X0219500Y0170700D02*
D03*
X0211100Y0168700D02*
D03*
X0213500Y0162000D02*
D03*
X0211500Y0164800D02*
D03*
X0213300Y0166200D02*
D03*
X0200800Y0173500D02*
D03*
X0199600Y0162600D02*
D03*
X0200200Y0161800D02*
D03*
X0202750Y0160600D02*
D03*
X0206500Y0156500D02*
D03*
X0203000Y0156500D02*
D03*
X0199900D02*
D03*
X0186000Y0164300D02*
D03*
X0188500Y0161200D02*
D03*
X0222300Y0157100D02*
D03*
X0221000Y0161400D02*
D03*
X0189800Y0169300D02*
D03*
X0194800Y0163700D02*
D03*
X0195500Y0160900D02*
D03*
X0194805Y0165300D02*
D03*
X0194800Y0168500D02*
D03*
Y0167500D02*
D03*
Y0166500D02*
D03*
X0190700Y0166300D02*
D03*
X0186900Y0160400D02*
D03*
X0193000Y0163500D02*
D03*
Y0162500D02*
D03*
X0190500D02*
D03*
X0204700Y0165700D02*
D03*
X0203300D02*
D03*
X0206100D02*
D03*
X0201900D02*
D03*
X0201900Y0167100D02*
D03*
X0206100D02*
D03*
X0203300D02*
D03*
X0204700D02*
D03*
X0201900Y0164300D02*
D03*
X0206100D02*
D03*
X0203300D02*
D03*
X0204700D02*
D03*
X0201900Y0162900D02*
D03*
X0206100D02*
D03*
X0203300D02*
D03*
X0204700D02*
D03*
X0228800Y0163800D02*
D03*
X0191325Y0164425D02*
D03*
Y0165225D02*
D03*
X0192600Y0166400D02*
D03*
X0193400D02*
D03*
X0187700Y0167100D02*
D03*
X0228700Y0172900D02*
D03*
X0227000Y0172200D02*
D03*
X0226300Y0162100D02*
D03*
X0227300D02*
D03*
X0222400Y0164000D02*
D03*
X0223600Y0165100D02*
D03*
X0215700Y0160900D02*
D03*
X0218400Y0161700D02*
D03*
X0217800Y0162900D02*
D03*
X0219400Y0161700D02*
D03*
X0238175Y0166750D02*
D03*
Y0165250D02*
D03*
X0231200Y0163800D02*
D03*
X0228800Y0165000D02*
D03*
X0228800Y0166200D02*
D03*
X0231200Y0165000D02*
D03*
X0231200Y0166200D02*
D03*
X0230000Y0163800D02*
D03*
X0230000Y0165000D02*
D03*
X0230000Y0166200D02*
D03*
X0227500Y0168600D02*
D03*
X0190500Y0161500D02*
D03*
X0215800Y0166100D02*
D03*
X0214900Y0166200D02*
D03*
X0207500Y0165500D02*
D03*
X0186600Y0169600D02*
D03*
X0182800Y0163700D02*
D03*
X0207500Y0166800D02*
D03*
X0208800Y0171800D02*
D03*
X0225500Y0166100D02*
D03*
X0225100Y0170200D02*
D03*
X0225700Y0165100D02*
D03*
X0224700D02*
D03*
X0187800Y0164300D02*
D03*
M02*
