M48
;Layer_Color=9474304
;FILE_FORMAT=4:3
METRIC
;TYPE=PLATED
T1F00S00C0.250
T3F00S00C0.800
T4F00S00C1.300
%
T01
X0238900Y0158200
X0245200Y0158500
X0230000Y0157100
X0228100
X0223900Y0157200
X0222300Y0157100
X0220800Y0157300
X0218200Y0157100
X0214700Y0157200
X0213000Y0157100
X0210500Y0157500
X0208800
X0206500Y0157500
Y0156500
X0203000Y0156500
X0199900
Y0157500
X0191800Y0156500
Y0158700
X0188100Y0157100
Y0159100
X0188500Y0161200
X0187500Y0161200
X0186900Y0160400
X0190200Y0159900
X0190500Y0161500
Y0162500
X0193000
Y0163500
X0194800Y0163700
X0194805Y0165300
X0194800Y0166500
Y0167500
Y0168500
X0193400Y0166400
X0192600
X0190700Y0166300
X0191325Y0165225
Y0164425
X0191300Y0167900
X0188800Y0168000
Y0168800
X0189800Y0169300
X0191100Y0171300
X0192000
X0192900
X0197000Y0170900
Y0170100
X0197300Y0173700
X0190800
X0186500Y0172400
X0186600Y0169600
X0187700Y0167100
X0187800Y0164300
X0186000
X0182800Y0163700
X0181400Y0160200
X0181500Y0169800
X0193000Y0161500
X0195500Y0160900
X0196500
X0200200Y0161800
X0199600Y0162600
Y0163750
Y0166250
X0199700Y0167400
X0200300Y0168100
X0201900Y0167100
X0203300
X0204700
X0206100
X0206100Y0165700
X0204700
X0203300
X0201900
X0201900Y0164300
X0203300
X0204700
X0206100
Y0162900
X0204700
X0203300
X0201900
X0202750Y0160600
X0203750
X0208400Y0162750
X0208300Y0163900
X0208400Y0164750
Y0166250
X0207500Y0166800
Y0165500
X0211500Y0164800
X0212500Y0164900
X0213300Y0166200
X0214900
X0215800Y0166100
X0217800Y0165300
X0218900
X0219000Y0168700
X0219500Y0170700
X0218800Y0172900
X0221500Y0172800
X0225900Y0172200
X0227000
X0227700Y0172900
X0228700
X0230000
X0230200Y0169300
X0230000Y0166200
X0228800
X0228800Y0165000
X0230000
X0231200
X0231200Y0163800
X0230000
X0228800
X0229100Y0161400
X0228100Y0160700
X0230200Y0160700
X0227300Y0162100
X0226300
X0225200
X0226100Y0164000
X0225700Y0165100
X0224700
X0223600Y0165100
X0224000Y0166100
X0225500
X0226500
X0227500Y0168600
X0224200Y0169300
X0225100Y0170200
X0222400Y0164000
X0222200Y0162100
X0221000Y0161400
X0219400Y0161700
Y0160700
X0218600
X0218400Y0161700
X0217800Y0162900
X0216800Y0160900
X0215700Y0160900
X0216100Y0159000
X0212000Y0159500
Y0160300
X0213500Y0162000
X0212000Y0167300
Y0168300
X0211100Y0168700
X0209900Y0169400
X0208800Y0171800
Y0173000
X0207400Y0172500
Y0173500
X0205700Y0172500
X0204500
X0204700Y0173700
X0202750Y0172160
X0200800Y0172500
Y0173500
X0211400Y0173700
X0212500Y0173600
X0215400Y0171300
X0216535Y0169165
X0214000Y0169300
X0213000Y0168700
X0231200Y0166200
X0233200Y0162300
X0237600Y0168700
X0225200Y0159000
X0238700Y0161100
Y0163800
X0238175Y0165250
X0238900Y0166000
X0238175Y0166750
X0238900Y0167500
X0240000Y0170000
X0241900Y0170900
X0238800Y0171800
X0244400Y0173100
X0245800Y0170500
X0243700Y0162500
X0251600Y0160700
T03
X0240800Y0163000
Y0165000
Y0167000
T04
X0249800Y0161800
X0253200
X0253400Y0168900
X0249900Y0168400
X0243900Y0167900
M30
