%FSAX43Y43*%
%MOMM*%
G71*
G01*
G75*
G04 Layer_Color=8388736*
%ADD10R,0.590X0.600*%
%ADD11R,0.630X0.610*%
%ADD12R,0.600X0.590*%
%ADD13R,0.610X0.630*%
%ADD14R,0.590X1.910*%
%ADD15R,0.550X0.300*%
%ADD16R,1.210X0.590*%
%ADD17R,1.280X0.590*%
%ADD18R,1.090X0.400*%
%ADD19R,0.400X1.090*%
%ADD20R,1.520X0.330*%
%ADD21R,0.930X0.790*%
%ADD22R,1.600X0.280*%
%ADD23C,0.750*%
%ADD24R,5.500X5.500*%
%ADD25R,0.280X1.600*%
%ADD26R,3.700X3.700*%
%ADD27O,0.800X0.220*%
%ADD28O,0.220X0.800*%
%ADD29R,1.270X1.020*%
%ADD30R,0.910X0.930*%
%ADD31R,1.140X1.470*%
%ADD32R,1.000X0.970*%
%ADD33C,1.000*%
%ADD34R,0.400X0.350*%
%ADD35R,1.350X0.400*%
%ADD36R,1.600X1.900*%
%ADD37R,1.400X1.600*%
%ADD38R,1.800X1.230*%
%ADD39R,1.160X1.470*%
%ADD40R,0.930X0.920*%
%ADD41R,0.920X0.930*%
%ADD42R,1.470X1.160*%
%ADD43R,0.350X0.400*%
%ADD44C,0.250*%
%ADD45C,0.150*%
%ADD46C,0.300*%
%ADD47C,0.500*%
%ADD48C,0.280*%
%ADD49C,0.400*%
%ADD50C,0.220*%
%ADD51C,0.160*%
%ADD52C,0.200*%
%ADD53C,0.600*%
%ADD54C,0.800*%
%ADD55C,0.590*%
%ADD56C,0.260*%
%ADD57R,1.200X1.600*%
%ADD58R,1.600X1.100*%
%ADD59R,1.200X1.600*%
%ADD60R,1.100X1.600*%
%ADD61C,1.400*%
%ADD62C,2.200*%
G04:AMPARAMS|DCode=63|XSize=0.9mm|YSize=1.6mm|CornerRadius=0.45mm|HoleSize=0mm|Usage=FLASHONLY|Rotation=270.000|XOffset=0mm|YOffset=0mm|HoleType=Round|Shape=RoundedRectangle|*
%AMROUNDEDRECTD63*
21,1,0.900,0.700,0,0,270.0*
21,1,0.000,1.600,0,0,270.0*
1,1,0.900,-0.350,0.000*
1,1,0.900,-0.350,0.000*
1,1,0.900,0.350,0.000*
1,1,0.900,0.350,0.000*
%
%ADD63ROUNDEDRECTD63*%
%ADD64C,0.600*%
%ADD65C,1.000*%
%ADD66C,1.800*%
G04:AMPARAMS|DCode=67|XSize=1.8mm|YSize=1.8mm|CornerRadius=0mm|HoleSize=0mm|Usage=FLASHONLY|Rotation=0.000|XOffset=0mm|YOffset=0mm|HoleType=Round|Shape=Relief|Width=0.2mm|Gap=0.25mm|Entries=4|*
%AMTHD67*
7,0,0,1.800,1.300,0.200,45*
%
%ADD67THD67*%
%ADD68C,1.900*%
G04:AMPARAMS|DCode=69|XSize=2.3mm|YSize=2.3mm|CornerRadius=0mm|HoleSize=0mm|Usage=FLASHONLY|Rotation=0.000|XOffset=0mm|YOffset=0mm|HoleType=Round|Shape=Relief|Width=0.2mm|Gap=0.25mm|Entries=4|*
%AMTHD69*
7,0,0,2.300,1.800,0.200,45*
%
%ADD69THD69*%
%ADD70O,1.800X1.100*%
%ADD71C,3.650*%
%ADD72C,0.850*%
%ADD73C,1.200*%
%ADD74C,0.120*%
%ADD75C,1.500*%
%ADD76C,2.000*%
%ADD77C,1.350*%
%ADD78C,3.200*%
D10*
X0211545Y0169500D02*
D03*
X0212455D02*
D03*
X0191345Y0162500D02*
D03*
X0192255D02*
D03*
Y0163500D02*
D03*
X0191345D02*
D03*
X0191955Y0168900D02*
D03*
X0191045D02*
D03*
X0193855D02*
D03*
X0192945D02*
D03*
X0196455Y0160000D02*
D03*
X0195545D02*
D03*
X0196455Y0157500D02*
D03*
X0195545D02*
D03*
X0214745Y0161700D02*
D03*
X0215655D02*
D03*
X0196455Y0165300D02*
D03*
X0195545D02*
D03*
X0196455Y0168500D02*
D03*
X0195545D02*
D03*
X0192255Y0161500D02*
D03*
X0191345D02*
D03*
X0226055Y0167800D02*
D03*
X0225145D02*
D03*
X0226055Y0166900D02*
D03*
X0225145D02*
D03*
D11*
X0205700Y0157460D02*
D03*
Y0156540D02*
D03*
X0186000Y0160540D02*
D03*
Y0161460D02*
D03*
X0227000Y0170240D02*
D03*
Y0171160D02*
D03*
X0225200Y0162840D02*
D03*
Y0163760D02*
D03*
X0217800Y0163640D02*
D03*
Y0164560D02*
D03*
X0201600Y0172540D02*
D03*
Y0173460D02*
D03*
X0200700Y0156540D02*
D03*
Y0157460D02*
D03*
X0206600Y0173460D02*
D03*
Y0172540D02*
D03*
X0203800Y0157460D02*
D03*
Y0156540D02*
D03*
X0211500Y0163960D02*
D03*
Y0163040D02*
D03*
X0203700Y0172540D02*
D03*
Y0173460D02*
D03*
X0246400Y0158540D02*
D03*
Y0159460D02*
D03*
X0189800Y0167040D02*
D03*
Y0167960D02*
D03*
X0186000Y0162540D02*
D03*
Y0163460D02*
D03*
X0225900Y0170240D02*
D03*
Y0171160D02*
D03*
D12*
X0208000Y0156545D02*
D03*
Y0157455D02*
D03*
X0209700D02*
D03*
Y0156545D02*
D03*
X0202100Y0157455D02*
D03*
Y0156545D02*
D03*
X0212600Y0163955D02*
D03*
Y0163045D02*
D03*
D13*
X0211540Y0172800D02*
D03*
X0212460D02*
D03*
X0195540Y0163700D02*
D03*
X0196460D02*
D03*
X0219740Y0172800D02*
D03*
X0220660D02*
D03*
X0192940Y0167900D02*
D03*
X0193860D02*
D03*
X0217660Y0161700D02*
D03*
X0216740D02*
D03*
X0196460D02*
D03*
X0195540D02*
D03*
Y0167500D02*
D03*
X0196460D02*
D03*
X0212460Y0166200D02*
D03*
X0211540D02*
D03*
X0211640Y0162000D02*
D03*
X0212560D02*
D03*
X0185540Y0159500D02*
D03*
X0186460D02*
D03*
X0186860Y0167100D02*
D03*
X0185940D02*
D03*
X0195540Y0166500D02*
D03*
X0196460D02*
D03*
X0244860Y0171600D02*
D03*
X0243940D02*
D03*
X0235640Y0168700D02*
D03*
X0236560D02*
D03*
X0240940Y0170000D02*
D03*
X0241860D02*
D03*
X0226060Y0168800D02*
D03*
X0225140D02*
D03*
D14*
X0213995Y0167695D02*
D03*
X0215265D02*
D03*
X0216535D02*
D03*
X0217805D02*
D03*
Y0172705D02*
D03*
X0216535D02*
D03*
X0215265D02*
D03*
X0213995D02*
D03*
D15*
X0187490Y0166075D02*
D03*
Y0165075D02*
D03*
X0185910D02*
D03*
Y0165575D02*
D03*
Y0166075D02*
D03*
D16*
X0223945Y0159950D02*
D03*
Y0159000D02*
D03*
Y0158050D02*
D03*
X0226455D02*
D03*
Y0159950D02*
D03*
X0189745Y0172250D02*
D03*
Y0171300D02*
D03*
Y0170350D02*
D03*
X0192255Y0172250D02*
D03*
Y0170350D02*
D03*
X0214745Y0158050D02*
D03*
X0217255D02*
D03*
Y0159950D02*
D03*
X0214745Y0159000D02*
D03*
Y0159950D02*
D03*
D17*
X0188185Y0160050D02*
D03*
Y0158150D02*
D03*
X0190215Y0159100D02*
D03*
D18*
X0189465Y0161850D02*
D03*
Y0162500D02*
D03*
Y0163150D02*
D03*
X0187535D02*
D03*
Y0162500D02*
D03*
Y0161850D02*
D03*
D19*
X0216450Y0165065D02*
D03*
X0215800D02*
D03*
X0215150D02*
D03*
X0216450Y0163135D02*
D03*
X0215150D02*
D03*
D20*
X0223605Y0164500D02*
D03*
Y0164000D02*
D03*
Y0163500D02*
D03*
Y0163000D02*
D03*
Y0162500D02*
D03*
X0219395D02*
D03*
Y0163000D02*
D03*
Y0163500D02*
D03*
Y0164000D02*
D03*
Y0164500D02*
D03*
D21*
X0220800Y0158180D02*
D03*
Y0159820D02*
D03*
X0237500Y0171820D02*
D03*
Y0170180D02*
D03*
X0233000Y0171820D02*
D03*
Y0170180D02*
D03*
X0234500D02*
D03*
Y0171820D02*
D03*
X0234500Y0159820D02*
D03*
Y0158180D02*
D03*
X0237500D02*
D03*
Y0159820D02*
D03*
X0233000Y0158180D02*
D03*
Y0159820D02*
D03*
D22*
X0198320Y0164250D02*
D03*
Y0164750D02*
D03*
X0209680Y0168750D02*
D03*
Y0168250D02*
D03*
Y0167750D02*
D03*
Y0167250D02*
D03*
Y0166750D02*
D03*
Y0166250D02*
D03*
Y0165750D02*
D03*
Y0165250D02*
D03*
Y0164750D02*
D03*
Y0164250D02*
D03*
Y0163750D02*
D03*
Y0163250D02*
D03*
Y0162750D02*
D03*
Y0162250D02*
D03*
Y0161750D02*
D03*
Y0161250D02*
D03*
X0198320D02*
D03*
Y0161750D02*
D03*
Y0162250D02*
D03*
Y0162750D02*
D03*
Y0163250D02*
D03*
Y0163750D02*
D03*
Y0165250D02*
D03*
Y0165750D02*
D03*
Y0166250D02*
D03*
Y0166750D02*
D03*
Y0167250D02*
D03*
Y0167750D02*
D03*
Y0168250D02*
D03*
Y0168750D02*
D03*
D24*
X0204000Y0165000D02*
D03*
D25*
X0207750Y0159320D02*
D03*
X0207250D02*
D03*
X0206750D02*
D03*
X0206250D02*
D03*
X0205750D02*
D03*
X0205250D02*
D03*
X0204750D02*
D03*
X0204250D02*
D03*
X0203750D02*
D03*
X0203250D02*
D03*
X0202750D02*
D03*
X0202250D02*
D03*
X0201750D02*
D03*
X0201250D02*
D03*
X0200750D02*
D03*
X0200250D02*
D03*
Y0170680D02*
D03*
X0200750D02*
D03*
X0201250D02*
D03*
X0201750D02*
D03*
X0202250D02*
D03*
X0202750D02*
D03*
X0203250D02*
D03*
X0203750D02*
D03*
X0204250D02*
D03*
X0204750D02*
D03*
X0205250D02*
D03*
X0205750D02*
D03*
X0206250D02*
D03*
X0206750D02*
D03*
X0207250D02*
D03*
X0207750D02*
D03*
D26*
X0230000Y0165000D02*
D03*
D27*
X0227550Y0163200D02*
D03*
Y0163600D02*
D03*
Y0164000D02*
D03*
Y0164400D02*
D03*
Y0164800D02*
D03*
Y0165200D02*
D03*
Y0165600D02*
D03*
Y0166000D02*
D03*
Y0166400D02*
D03*
Y0166800D02*
D03*
X0232450D02*
D03*
Y0166400D02*
D03*
Y0166000D02*
D03*
Y0165600D02*
D03*
Y0165200D02*
D03*
Y0164800D02*
D03*
Y0164400D02*
D03*
Y0164000D02*
D03*
Y0163600D02*
D03*
Y0163200D02*
D03*
D28*
X0228200Y0167450D02*
D03*
X0228600D02*
D03*
X0229000D02*
D03*
X0229400D02*
D03*
X0229800D02*
D03*
X0230200D02*
D03*
X0230600D02*
D03*
X0231000D02*
D03*
X0231400D02*
D03*
X0231800D02*
D03*
Y0162550D02*
D03*
X0231400D02*
D03*
X0231000D02*
D03*
X0230600D02*
D03*
X0230200D02*
D03*
X0229800D02*
D03*
X0229400D02*
D03*
X0229000D02*
D03*
X0228600D02*
D03*
X0228200D02*
D03*
D29*
X0220330Y0166155D02*
D03*
X0222670D02*
D03*
Y0168045D02*
D03*
X0220330D02*
D03*
D30*
X0194260Y0157500D02*
D03*
X0192740D02*
D03*
X0194260Y0160000D02*
D03*
X0192740D02*
D03*
D31*
X0194110Y0172500D02*
D03*
X0195890D02*
D03*
D32*
X0222565Y0172800D02*
D03*
X0224035D02*
D03*
X0186265Y0168500D02*
D03*
X0187735D02*
D03*
D34*
X0247500Y0158525D02*
D03*
Y0159475D02*
D03*
D35*
X0184100Y0165000D02*
D03*
Y0165650D02*
D03*
Y0163700D02*
D03*
Y0164350D02*
D03*
Y0166300D02*
D03*
D36*
X0181425Y0163800D02*
D03*
Y0166200D02*
D03*
D37*
X0183875Y0161800D02*
D03*
X0183875Y0168200D02*
D03*
D38*
X0223710Y0170700D02*
D03*
X0221090D02*
D03*
D39*
X0194125Y0170500D02*
D03*
X0195875D02*
D03*
D40*
X0213000Y0158245D02*
D03*
Y0159755D02*
D03*
X0230000D02*
D03*
Y0158245D02*
D03*
X0236000Y0170245D02*
D03*
Y0171755D02*
D03*
X0231500Y0170245D02*
D03*
Y0171755D02*
D03*
X0231500Y0159755D02*
D03*
Y0158245D02*
D03*
X0236000Y0159755D02*
D03*
Y0158245D02*
D03*
X0228100D02*
D03*
Y0159755D02*
D03*
X0219000Y0158245D02*
D03*
Y0159755D02*
D03*
X0228500Y0170245D02*
D03*
Y0171755D02*
D03*
X0230000Y0170245D02*
D03*
Y0171755D02*
D03*
X0222300Y0159755D02*
D03*
Y0158245D02*
D03*
D41*
X0235745Y0167500D02*
D03*
X0237255D02*
D03*
Y0166000D02*
D03*
X0235745D02*
D03*
Y0164000D02*
D03*
X0237255D02*
D03*
X0237255Y0162400D02*
D03*
X0235745D02*
D03*
D42*
X0187700Y0172475D02*
D03*
Y0170725D02*
D03*
D43*
X0244875Y0170500D02*
D03*
X0243925D02*
D03*
D45*
X0180500Y0145500D02*
Y0144000D01*
X0180000Y0145500D02*
X0181000D01*
X0181607D02*
X0181464Y0145428D01*
X0181321Y0145285D01*
X0181250Y0145143D01*
X0181178Y0144928D01*
Y0144571D01*
X0181250Y0144357D01*
X0181321Y0144214D01*
X0181464Y0144071D01*
X0181607Y0144000D01*
X0181892D01*
X0182035Y0144071D01*
X0182178Y0144214D01*
X0182250Y0144357D01*
X0182321Y0144571D01*
Y0144928D01*
X0182250Y0145143D01*
X0182178Y0145285D01*
X0182035Y0145428D01*
X0181892Y0145500D01*
X0181607D01*
X0182671Y0144714D02*
X0183314D01*
X0183528Y0144786D01*
X0183599Y0144857D01*
X0183671Y0145000D01*
Y0145214D01*
X0183599Y0145357D01*
X0183528Y0145428D01*
X0183314Y0145500D01*
X0182671D01*
Y0144000D01*
X0186184Y0145285D02*
X0186042Y0145428D01*
X0185827Y0145500D01*
X0185542D01*
X0185327Y0145428D01*
X0185185Y0145285D01*
Y0145143D01*
X0185256Y0145000D01*
X0185327Y0144928D01*
X0185470Y0144857D01*
X0185899Y0144714D01*
X0186042Y0144643D01*
X0186113Y0144571D01*
X0186184Y0144428D01*
Y0144214D01*
X0186042Y0144071D01*
X0185827Y0144000D01*
X0185542D01*
X0185327Y0144071D01*
X0185185Y0144214D01*
X0186949Y0145500D02*
X0186806Y0145428D01*
X0186663Y0145285D01*
X0186591Y0145143D01*
X0186520Y0144928D01*
Y0144571D01*
X0186591Y0144357D01*
X0186663Y0144214D01*
X0186806Y0144071D01*
X0186949Y0144000D01*
X0187234D01*
X0187377Y0144071D01*
X0187520Y0144214D01*
X0187591Y0144357D01*
X0187663Y0144571D01*
Y0144928D01*
X0187591Y0145143D01*
X0187520Y0145285D01*
X0187377Y0145428D01*
X0187234Y0145500D01*
X0186949D01*
X0188013D02*
Y0144000D01*
X0188870D01*
X0189034Y0145500D02*
Y0144000D01*
Y0145500D02*
X0189534D01*
X0189748Y0145428D01*
X0189891Y0145285D01*
X0189962Y0145143D01*
X0190034Y0144928D01*
Y0144571D01*
X0189962Y0144357D01*
X0189891Y0144214D01*
X0189748Y0144071D01*
X0189534Y0144000D01*
X0189034D01*
X0191298Y0145500D02*
X0190369D01*
Y0144000D01*
X0191298D01*
X0190369Y0144786D02*
X0190941D01*
X0191548Y0145500D02*
Y0144000D01*
Y0145500D02*
X0192190D01*
X0192404Y0145428D01*
X0192476Y0145357D01*
X0192547Y0145214D01*
Y0145071D01*
X0192476Y0144928D01*
X0192404Y0144857D01*
X0192190Y0144786D01*
X0191548D01*
X0192047D02*
X0192547Y0144000D01*
X0194061Y0145500D02*
Y0144000D01*
Y0145500D02*
X0194633Y0144000D01*
X0195204Y0145500D02*
X0194633Y0144000D01*
X0195204Y0145500D02*
Y0144000D01*
X0196775D02*
X0196204Y0145500D01*
X0195632Y0144000D01*
X0195847Y0144500D02*
X0196561D01*
X0198125Y0145285D02*
X0197982Y0145428D01*
X0197768Y0145500D01*
X0197482D01*
X0197268Y0145428D01*
X0197125Y0145285D01*
Y0145143D01*
X0197196Y0145000D01*
X0197268Y0144928D01*
X0197411Y0144857D01*
X0197839Y0144714D01*
X0197982Y0144643D01*
X0198053Y0144571D01*
X0198125Y0144428D01*
Y0144214D01*
X0197982Y0144071D01*
X0197768Y0144000D01*
X0197482D01*
X0197268Y0144071D01*
X0197125Y0144214D01*
X0198460Y0145500D02*
Y0144000D01*
X0199460Y0145500D02*
X0198460Y0144500D01*
X0198817Y0144857D02*
X0199460Y0144000D01*
X0180714Y0147500D02*
Y0146357D01*
X0180643Y0146143D01*
X0180571Y0146071D01*
X0180428Y0146000D01*
X0180286D01*
X0180143Y0146071D01*
X0180071Y0146143D01*
X0180000Y0146357D01*
Y0146500D01*
X0182171Y0147143D02*
X0182100Y0147285D01*
X0181957Y0147428D01*
X0181814Y0147500D01*
X0181528D01*
X0181385Y0147428D01*
X0181243Y0147285D01*
X0181171Y0147143D01*
X0181100Y0146928D01*
Y0146571D01*
X0181171Y0146357D01*
X0181243Y0146214D01*
X0181385Y0146071D01*
X0181528Y0146000D01*
X0181814D01*
X0181957Y0146071D01*
X0182100Y0146214D01*
X0182171Y0146357D01*
Y0146571D01*
X0181814D02*
X0182171D01*
X0182514Y0147500D02*
Y0146000D01*
Y0147500D02*
X0183156D01*
X0183371Y0147428D01*
X0183442Y0147357D01*
X0183514Y0147214D01*
Y0147071D01*
X0183442Y0146928D01*
X0183371Y0146857D01*
X0183156Y0146786D01*
X0182514D02*
X0183156D01*
X0183371Y0146714D01*
X0183442Y0146643D01*
X0183514Y0146500D01*
Y0146286D01*
X0183442Y0146143D01*
X0183371Y0146071D01*
X0183156Y0146000D01*
X0182514D01*
X0184278Y0147500D02*
X0184063Y0147428D01*
X0183921Y0147214D01*
X0183849Y0146857D01*
Y0146643D01*
X0183921Y0146286D01*
X0184063Y0146071D01*
X0184278Y0146000D01*
X0184420D01*
X0184635Y0146071D01*
X0184778Y0146286D01*
X0184849Y0146643D01*
Y0146857D01*
X0184778Y0147214D01*
X0184635Y0147428D01*
X0184420Y0147500D01*
X0184278D01*
X0185613D02*
X0185399Y0147428D01*
X0185256Y0147214D01*
X0185185Y0146857D01*
Y0146643D01*
X0185256Y0146286D01*
X0185399Y0146071D01*
X0185613Y0146000D01*
X0185756D01*
X0185970Y0146071D01*
X0186113Y0146286D01*
X0186184Y0146643D01*
Y0146857D01*
X0186113Y0147214D01*
X0185970Y0147428D01*
X0185756Y0147500D01*
X0185613D01*
X0186949D02*
X0186734Y0147428D01*
X0186591Y0147214D01*
X0186520Y0146857D01*
Y0146643D01*
X0186591Y0146286D01*
X0186734Y0146071D01*
X0186949Y0146000D01*
X0187091D01*
X0187306Y0146071D01*
X0187448Y0146286D01*
X0187520Y0146643D01*
Y0146857D01*
X0187448Y0147214D01*
X0187306Y0147428D01*
X0187091Y0147500D01*
X0186949D01*
X0187855Y0147214D02*
X0187998Y0147285D01*
X0188213Y0147500D01*
Y0146000D01*
X0190134Y0146857D02*
X0191419D01*
X0190134Y0146428D02*
X0191419D01*
X0193111Y0147143D02*
Y0147214D01*
X0193183Y0147357D01*
X0193254Y0147428D01*
X0193397Y0147500D01*
X0193683D01*
X0193826Y0147428D01*
X0193897Y0147357D01*
X0193968Y0147214D01*
Y0147071D01*
X0193897Y0146928D01*
X0193754Y0146714D01*
X0193040Y0146000D01*
X0194040D01*
X0194375Y0147500D02*
X0194947Y0146000D01*
X0195518Y0147500D02*
X0194947Y0146000D01*
X0195711Y0147214D02*
X0195854Y0147285D01*
X0196068Y0147500D01*
Y0146000D01*
X0197989Y0146857D02*
X0199274D01*
X0197989Y0146428D02*
X0199274D01*
X0200967Y0147143D02*
Y0147214D01*
X0201038Y0147357D01*
X0201110Y0147428D01*
X0201253Y0147500D01*
X0201538D01*
X0201681Y0147428D01*
X0201752Y0147357D01*
X0201824Y0147214D01*
Y0147071D01*
X0201752Y0146928D01*
X0201610Y0146714D01*
X0200896Y0146000D01*
X0201895D01*
X0203231Y0147500D02*
X0202517Y0146000D01*
X0202231Y0147500D02*
X0203231D01*
X0204745D02*
Y0146000D01*
Y0147500D02*
X0205316Y0146000D01*
X0205887Y0147500D02*
X0205316Y0146000D01*
X0205887Y0147500D02*
Y0146000D01*
X0207458D02*
X0206887Y0147500D01*
X0206316Y0146000D01*
X0206530Y0146500D02*
X0207244D01*
X0207808Y0147500D02*
X0208380Y0146786D01*
Y0146000D01*
X0208951Y0147500D02*
X0208380Y0146786D01*
X0210393Y0147143D02*
Y0147214D01*
X0210465Y0147357D01*
X0210536Y0147428D01*
X0210679Y0147500D01*
X0210965D01*
X0211108Y0147428D01*
X0211179Y0147357D01*
X0211250Y0147214D01*
Y0147071D01*
X0211179Y0146928D01*
X0211036Y0146714D01*
X0210322Y0146000D01*
X0211322D01*
X0212086Y0147500D02*
X0211872Y0147428D01*
X0211729Y0147214D01*
X0211658Y0146857D01*
Y0146643D01*
X0211729Y0146286D01*
X0211872Y0146071D01*
X0212086Y0146000D01*
X0212229D01*
X0212443Y0146071D01*
X0212586Y0146286D01*
X0212657Y0146643D01*
Y0146857D01*
X0212586Y0147214D01*
X0212443Y0147428D01*
X0212229Y0147500D01*
X0212086D01*
X0212993Y0147214D02*
X0213136Y0147285D01*
X0213350Y0147500D01*
Y0146000D01*
X0214950Y0147500D02*
X0214236D01*
X0214164Y0146857D01*
X0214236Y0146928D01*
X0214450Y0147000D01*
X0214664D01*
X0214878Y0146928D01*
X0215021Y0146786D01*
X0215092Y0146571D01*
Y0146428D01*
X0215021Y0146214D01*
X0214878Y0146071D01*
X0214664Y0146000D01*
X0214450D01*
X0214236Y0146071D01*
X0214164Y0146143D01*
X0214093Y0146286D01*
D61*
X0240800Y0165000D02*
D03*
Y0167000D02*
D03*
Y0163000D02*
D03*
D62*
X0243900Y0167900D02*
D03*
X0249900Y0168400D02*
D03*
X0253400Y0168900D02*
D03*
X0249800Y0161800D02*
D03*
X0253200D02*
D03*
D63*
X0181425Y0161700D02*
D03*
Y0168300D02*
D03*
D75*
X0209680Y0159320D02*
D03*
X0198320Y0170680D02*
D03*
D76*
X0186000Y0157000D02*
D03*
X0249000D02*
D03*
Y0173000D02*
D03*
D77*
X0253200Y0165000D02*
D03*
X0248700D02*
D03*
D78*
X0183000Y0158000D02*
D03*
Y0172000D02*
D03*
X0252000D02*
D03*
Y0158000D02*
D03*
M02*
