%FSAX43Y43*%
%MOMM*%
G71*
G01*
G75*
G04 Layer_Physical_Order=2*
G04 Layer_Color=32768*
%ADD10R,0.590X0.600*%
%ADD11R,0.630X0.610*%
%ADD12R,0.600X0.590*%
%ADD13R,0.610X0.630*%
%ADD14R,0.590X1.910*%
%ADD15R,0.550X0.300*%
%ADD16R,1.210X0.590*%
%ADD17R,1.280X0.590*%
%ADD18R,1.090X0.400*%
%ADD19R,0.400X1.090*%
%ADD20R,1.520X0.330*%
%ADD21R,0.930X0.790*%
%ADD22R,1.600X0.280*%
%ADD23C,0.750*%
%ADD24R,5.500X5.500*%
%ADD25R,0.280X1.600*%
%ADD26R,3.700X3.700*%
%ADD27O,0.800X0.220*%
%ADD28O,0.220X0.800*%
%ADD29R,1.270X1.020*%
%ADD30R,0.910X0.930*%
%ADD31R,1.140X1.470*%
%ADD32R,1.000X0.970*%
%ADD33C,1.000*%
%ADD34R,0.400X0.350*%
%ADD35R,1.350X0.400*%
%ADD36R,1.600X1.900*%
%ADD37R,1.400X1.600*%
%ADD38R,1.800X1.230*%
%ADD39R,1.160X1.470*%
%ADD40R,0.930X0.920*%
%ADD41R,0.920X0.930*%
%ADD42R,1.470X1.160*%
%ADD43R,0.350X0.400*%
%ADD44C,0.250*%
%ADD45C,0.150*%
%ADD46C,0.300*%
%ADD47C,0.500*%
%ADD48C,0.280*%
%ADD49C,0.400*%
%ADD50C,0.220*%
%ADD51C,0.160*%
%ADD52C,0.200*%
%ADD53C,0.600*%
%ADD54C,0.800*%
%ADD55C,0.590*%
%ADD56C,0.260*%
%ADD57R,1.200X1.600*%
%ADD58R,1.600X1.100*%
%ADD59R,1.200X1.600*%
%ADD60R,1.100X1.600*%
%ADD61C,1.400*%
%ADD62C,2.200*%
G04:AMPARAMS|DCode=63|XSize=0.9mm|YSize=1.6mm|CornerRadius=0.45mm|HoleSize=0mm|Usage=FLASHONLY|Rotation=270.000|XOffset=0mm|YOffset=0mm|HoleType=Round|Shape=RoundedRectangle|*
%AMROUNDEDRECTD63*
21,1,0.900,0.700,0,0,270.0*
21,1,0.000,1.600,0,0,270.0*
1,1,0.900,-0.350,0.000*
1,1,0.900,-0.350,0.000*
1,1,0.900,0.350,0.000*
1,1,0.900,0.350,0.000*
%
%ADD63ROUNDEDRECTD63*%
%ADD64C,0.600*%
%ADD65C,1.000*%
%ADD66C,1.800*%
G04:AMPARAMS|DCode=67|XSize=1.8mm|YSize=1.8mm|CornerRadius=0mm|HoleSize=0mm|Usage=FLASHONLY|Rotation=0.000|XOffset=0mm|YOffset=0mm|HoleType=Round|Shape=Relief|Width=0.2mm|Gap=0.25mm|Entries=4|*
%AMTHD67*
7,0,0,1.800,1.300,0.200,45*
%
%ADD67THD67*%
%ADD68C,1.900*%
G04:AMPARAMS|DCode=69|XSize=2.3mm|YSize=2.3mm|CornerRadius=0mm|HoleSize=0mm|Usage=FLASHONLY|Rotation=0.000|XOffset=0mm|YOffset=0mm|HoleType=Round|Shape=Relief|Width=0.2mm|Gap=0.25mm|Entries=4|*
%AMTHD69*
7,0,0,2.300,1.800,0.200,45*
%
%ADD69THD69*%
%ADD70O,1.800X1.100*%
%ADD71C,3.650*%
%ADD72C,0.850*%
D45*
X0119000Y0073000D02*
Y0071500D01*
X0119857D01*
X0121164D02*
X0120593Y0073000D01*
X0120021Y0071500D01*
X0120235Y0072000D02*
X0120950D01*
X0121514Y0073000D02*
X0122085Y0072286D01*
Y0071500D01*
X0122656Y0073000D02*
X0122085Y0072286D01*
X0123778Y0073000D02*
X0122849D01*
Y0071500D01*
X0123778D01*
X0122849Y0072286D02*
X0123420D01*
X0124027Y0073000D02*
Y0071500D01*
Y0073000D02*
X0124670D01*
X0124884Y0072928D01*
X0124956Y0072857D01*
X0125027Y0072714D01*
Y0072571D01*
X0124956Y0072428D01*
X0124884Y0072357D01*
X0124670Y0072286D01*
X0124027D01*
X0124527D02*
X0125027Y0071500D01*
X0126613Y0072643D02*
Y0072714D01*
X0126684Y0072857D01*
X0126755Y0072928D01*
X0126898Y0073000D01*
X0127184D01*
X0127327Y0072928D01*
X0127398Y0072857D01*
X0127470Y0072714D01*
Y0072571D01*
X0127398Y0072428D01*
X0127255Y0072214D01*
X0126541Y0071500D01*
X0127541D01*
X0180000Y0145500D02*
Y0144000D01*
X0180857D01*
X0182164D02*
X0181593Y0145500D01*
X0181021Y0144000D01*
X0181235Y0144500D02*
X0181950D01*
X0182514Y0145500D02*
X0183085Y0144786D01*
Y0144000D01*
X0183656Y0145500D02*
X0183085Y0144786D01*
X0184778Y0145500D02*
X0183849D01*
Y0144000D01*
X0184778D01*
X0183849Y0144786D02*
X0184420D01*
X0185027Y0145500D02*
Y0144000D01*
Y0145500D02*
X0185670D01*
X0185884Y0145428D01*
X0185956Y0145357D01*
X0186027Y0145214D01*
Y0145071D01*
X0185956Y0144928D01*
X0185884Y0144857D01*
X0185670Y0144786D01*
X0185027D01*
X0185527D02*
X0186027Y0144000D01*
X0187613Y0145143D02*
Y0145214D01*
X0187684Y0145357D01*
X0187755Y0145428D01*
X0187898Y0145500D01*
X0188184D01*
X0188327Y0145428D01*
X0188398Y0145357D01*
X0188470Y0145214D01*
Y0145071D01*
X0188398Y0144928D01*
X0188255Y0144714D01*
X0187541Y0144000D01*
X0188541D01*
X0180714Y0147500D02*
Y0146357D01*
X0180643Y0146143D01*
X0180571Y0146071D01*
X0180428Y0146000D01*
X0180286D01*
X0180143Y0146071D01*
X0180071Y0146143D01*
X0180000Y0146357D01*
Y0146500D01*
X0182171Y0147143D02*
X0182100Y0147285D01*
X0181957Y0147428D01*
X0181814Y0147500D01*
X0181528D01*
X0181385Y0147428D01*
X0181243Y0147285D01*
X0181171Y0147143D01*
X0181100Y0146928D01*
Y0146571D01*
X0181171Y0146357D01*
X0181243Y0146214D01*
X0181385Y0146071D01*
X0181528Y0146000D01*
X0181814D01*
X0181957Y0146071D01*
X0182100Y0146214D01*
X0182171Y0146357D01*
Y0146571D01*
X0181814D02*
X0182171D01*
X0182514Y0147500D02*
Y0146000D01*
Y0147500D02*
X0183156D01*
X0183371Y0147428D01*
X0183442Y0147357D01*
X0183514Y0147214D01*
Y0147071D01*
X0183442Y0146928D01*
X0183371Y0146857D01*
X0183156Y0146786D01*
X0182514D02*
X0183156D01*
X0183371Y0146714D01*
X0183442Y0146643D01*
X0183514Y0146500D01*
Y0146286D01*
X0183442Y0146143D01*
X0183371Y0146071D01*
X0183156Y0146000D01*
X0182514D01*
X0184278Y0147500D02*
X0184063Y0147428D01*
X0183921Y0147214D01*
X0183849Y0146857D01*
Y0146643D01*
X0183921Y0146286D01*
X0184063Y0146071D01*
X0184278Y0146000D01*
X0184420D01*
X0184635Y0146071D01*
X0184778Y0146286D01*
X0184849Y0146643D01*
Y0146857D01*
X0184778Y0147214D01*
X0184635Y0147428D01*
X0184420Y0147500D01*
X0184278D01*
X0185613D02*
X0185399Y0147428D01*
X0185256Y0147214D01*
X0185185Y0146857D01*
Y0146643D01*
X0185256Y0146286D01*
X0185399Y0146071D01*
X0185613Y0146000D01*
X0185756D01*
X0185970Y0146071D01*
X0186113Y0146286D01*
X0186184Y0146643D01*
Y0146857D01*
X0186113Y0147214D01*
X0185970Y0147428D01*
X0185756Y0147500D01*
X0185613D01*
X0186949D02*
X0186734Y0147428D01*
X0186591Y0147214D01*
X0186520Y0146857D01*
Y0146643D01*
X0186591Y0146286D01*
X0186734Y0146071D01*
X0186949Y0146000D01*
X0187091D01*
X0187306Y0146071D01*
X0187448Y0146286D01*
X0187520Y0146643D01*
Y0146857D01*
X0187448Y0147214D01*
X0187306Y0147428D01*
X0187091Y0147500D01*
X0186949D01*
X0187855Y0147214D02*
X0187998Y0147285D01*
X0188213Y0147500D01*
Y0146000D01*
X0190134Y0146857D02*
X0191419D01*
X0190134Y0146428D02*
X0191419D01*
X0193111Y0147143D02*
Y0147214D01*
X0193183Y0147357D01*
X0193254Y0147428D01*
X0193397Y0147500D01*
X0193683D01*
X0193826Y0147428D01*
X0193897Y0147357D01*
X0193968Y0147214D01*
Y0147071D01*
X0193897Y0146928D01*
X0193754Y0146714D01*
X0193040Y0146000D01*
X0194040D01*
X0194375Y0147500D02*
X0194947Y0146000D01*
X0195518Y0147500D02*
X0194947Y0146000D01*
X0195711Y0147214D02*
X0195854Y0147285D01*
X0196068Y0147500D01*
Y0146000D01*
X0197989Y0146857D02*
X0199274D01*
X0197989Y0146428D02*
X0199274D01*
X0200967Y0147143D02*
Y0147214D01*
X0201038Y0147357D01*
X0201110Y0147428D01*
X0201253Y0147500D01*
X0201538D01*
X0201681Y0147428D01*
X0201752Y0147357D01*
X0201824Y0147214D01*
Y0147071D01*
X0201752Y0146928D01*
X0201610Y0146714D01*
X0200896Y0146000D01*
X0201895D01*
X0203231Y0147500D02*
X0202517Y0146000D01*
X0202231Y0147500D02*
X0203231D01*
X0204745D02*
Y0146000D01*
Y0147500D02*
X0205316Y0146000D01*
X0205887Y0147500D02*
X0205316Y0146000D01*
X0205887Y0147500D02*
Y0146000D01*
X0207458D02*
X0206887Y0147500D01*
X0206316Y0146000D01*
X0206530Y0146500D02*
X0207244D01*
X0207808Y0147500D02*
X0208380Y0146786D01*
Y0146000D01*
X0208951Y0147500D02*
X0208380Y0146786D01*
X0210393Y0147143D02*
Y0147214D01*
X0210465Y0147357D01*
X0210536Y0147428D01*
X0210679Y0147500D01*
X0210965D01*
X0211108Y0147428D01*
X0211179Y0147357D01*
X0211250Y0147214D01*
Y0147071D01*
X0211179Y0146928D01*
X0211036Y0146714D01*
X0210322Y0146000D01*
X0211322D01*
X0212086Y0147500D02*
X0211872Y0147428D01*
X0211729Y0147214D01*
X0211658Y0146857D01*
Y0146643D01*
X0211729Y0146286D01*
X0211872Y0146071D01*
X0212086Y0146000D01*
X0212229D01*
X0212443Y0146071D01*
X0212586Y0146286D01*
X0212657Y0146643D01*
Y0146857D01*
X0212586Y0147214D01*
X0212443Y0147428D01*
X0212229Y0147500D01*
X0212086D01*
X0212993Y0147214D02*
X0213136Y0147285D01*
X0213350Y0147500D01*
Y0146000D01*
X0214950Y0147500D02*
X0214236D01*
X0214164Y0146857D01*
X0214236Y0146928D01*
X0214450Y0147000D01*
X0214664D01*
X0214878Y0146928D01*
X0215021Y0146786D01*
X0215092Y0146571D01*
Y0146428D01*
X0215021Y0146214D01*
X0214878Y0146071D01*
X0214664Y0146000D01*
X0214450D01*
X0214236Y0146071D01*
X0214164Y0146143D01*
X0214093Y0146286D01*
D61*
X0240800Y0165000D02*
D03*
Y0163000D02*
D03*
D65*
X0183000Y0175000D02*
G03*
X0180000Y0172000I0000000J-0003000D01*
G01*
X0255000D02*
G03*
X0252000Y0175000I-0003000J0000000D01*
G01*
X0252000Y0155000D02*
G03*
X0255000Y0158000I0000000J0003000D01*
G01*
X0180000D02*
G03*
X0183000Y0155000I0003000J0000000D01*
G01*
X0180000Y0158000D02*
Y0172000D01*
X0183000Y0175000D02*
X0252000D01*
X0255000Y0158000D02*
Y0172000D01*
X0183000Y0155000D02*
X0252000D01*
D66*
X0253200Y0165000D02*
D03*
X0248700D02*
D03*
D67*
X0240800Y0167000D02*
D03*
D68*
X0243900Y0167900D02*
D03*
X0253400Y0168900D02*
D03*
X0249800Y0161800D02*
D03*
X0253200D02*
D03*
D69*
X0249900Y0168400D02*
D03*
D70*
X0181425Y0161700D02*
D03*
Y0168300D02*
D03*
D71*
X0183000Y0158000D02*
D03*
Y0172000D02*
D03*
X0252000D02*
D03*
Y0158000D02*
D03*
D72*
X0212500Y0164900D02*
D03*
X0241900Y0170900D02*
D03*
X0226500Y0166100D02*
D03*
X0212500Y0173600D02*
D03*
X0208800Y0173000D02*
D03*
X0212000Y0167300D02*
D03*
Y0168300D02*
D03*
X0200300Y0168100D02*
D03*
X0199700Y0167400D02*
D03*
X0215400Y0171300D02*
D03*
X0209900Y0169400D02*
D03*
X0216535Y0169165D02*
D03*
X0205700Y0172500D02*
D03*
X0202750Y0172160D02*
D03*
X0214000Y0169300D02*
D03*
X0213000Y0168700D02*
D03*
X0207400Y0172500D02*
D03*
X0210500Y0157500D02*
D03*
X0208800D02*
D03*
X0212000Y0160300D02*
D03*
Y0159500D02*
D03*
X0208400Y0164750D02*
D03*
X0208300Y0163900D02*
D03*
X0190200Y0159900D02*
D03*
X0223900Y0157200D02*
D03*
X0211100Y0168700D02*
D03*
X0203750Y0160600D02*
D03*
X0200800Y0172500D02*
D03*
X0204500D02*
D03*
X0199600Y0162600D02*
D03*
X0200200Y0161800D02*
D03*
X0202750Y0160600D02*
D03*
X0206500Y0157500D02*
D03*
X0199900Y0157500D02*
D03*
X0221500Y0172800D02*
D03*
X0188500Y0161200D02*
D03*
X0214700Y0157200D02*
D03*
X0221000Y0161400D02*
D03*
X0189800Y0169300D02*
D03*
X0199600Y0163750D02*
D03*
X0196500Y0160900D02*
D03*
X0219400Y0160700D02*
D03*
X0218600D02*
D03*
X0220800Y0157300D02*
D03*
X0199600Y0166250D02*
D03*
X0197000Y0170100D02*
D03*
Y0170900D02*
D03*
X0188800Y0168000D02*
D03*
Y0168800D02*
D03*
X0187500Y0161200D02*
D03*
X0193000Y0163500D02*
D03*
Y0161500D02*
D03*
X0186500Y0172400D02*
D03*
X0191325Y0164425D02*
D03*
Y0165225D02*
D03*
X0192600Y0166400D02*
D03*
X0193400D02*
D03*
X0225200Y0162100D02*
D03*
X0226300D02*
D03*
X0227300D02*
D03*
X0222400Y0164000D02*
D03*
X0223600Y0165100D02*
D03*
X0215700Y0160900D02*
D03*
X0216800Y0160900D02*
D03*
X0217800Y0165300D02*
D03*
X0219400Y0161700D02*
D03*
X0238175Y0166750D02*
D03*
Y0165250D02*
D03*
X0228100Y0160700D02*
D03*
X0230200Y0169300D02*
D03*
Y0160700D02*
D03*
X0190500Y0161500D02*
D03*
X0215800Y0166100D02*
D03*
X0208400Y0166250D02*
D03*
Y0162750D02*
D03*
X0207500Y0165500D02*
D03*
Y0166800D02*
D03*
X0208800Y0171800D02*
D03*
X0225500Y0166100D02*
D03*
X0225100Y0170200D02*
D03*
X0227700Y0172900D02*
D03*
X0225700Y0165100D02*
D03*
X0224700D02*
D03*
M02*
