%FSAX43Y43*%
%MOMM*%
G71*
G01*
G75*
G04 Layer_Color=2752767*
%ADD10R,0.590X0.600*%
%ADD11R,0.630X0.610*%
%ADD12R,0.600X0.590*%
%ADD13R,0.610X0.630*%
%ADD14R,0.590X1.910*%
%ADD15R,0.550X0.300*%
%ADD16R,1.210X0.590*%
%ADD17R,1.280X0.590*%
%ADD18R,1.090X0.400*%
%ADD19R,0.400X1.090*%
%ADD20R,1.520X0.330*%
%ADD21R,0.930X0.790*%
%ADD22R,1.600X0.280*%
%ADD23C,0.750*%
%ADD24R,5.500X5.500*%
%ADD25R,0.280X1.600*%
%ADD26R,3.700X3.700*%
%ADD27O,0.800X0.220*%
%ADD28O,0.220X0.800*%
%ADD29R,1.270X1.020*%
%ADD30R,0.910X0.930*%
%ADD31R,1.140X1.470*%
%ADD32R,1.000X0.970*%
%ADD33C,1.000*%
%ADD34R,0.400X0.350*%
%ADD35R,1.350X0.400*%
%ADD36R,1.600X1.900*%
%ADD37R,1.400X1.600*%
%ADD38R,1.800X1.230*%
%ADD39R,1.160X1.470*%
%ADD40R,0.930X0.920*%
%ADD41R,0.920X0.930*%
%ADD42R,1.470X1.160*%
%ADD43R,0.350X0.400*%
%ADD44C,0.250*%
%ADD45C,0.150*%
%ADD46C,0.300*%
%ADD47C,0.500*%
%ADD48C,0.280*%
%ADD49C,0.400*%
%ADD50C,0.220*%
%ADD51C,0.160*%
%ADD52C,0.200*%
%ADD53C,0.600*%
%ADD54C,0.800*%
%ADD55C,0.590*%
%ADD56C,0.260*%
%ADD57R,1.200X1.600*%
%ADD58R,1.600X1.100*%
%ADD59R,1.200X1.600*%
%ADD60R,1.100X1.600*%
%ADD61C,1.400*%
%ADD62C,2.200*%
G04:AMPARAMS|DCode=63|XSize=0.9mm|YSize=1.6mm|CornerRadius=0.45mm|HoleSize=0mm|Usage=FLASHONLY|Rotation=270.000|XOffset=0mm|YOffset=0mm|HoleType=Round|Shape=RoundedRectangle|*
%AMROUNDEDRECTD63*
21,1,0.900,0.700,0,0,270.0*
21,1,0.000,1.600,0,0,270.0*
1,1,0.900,-0.350,0.000*
1,1,0.900,-0.350,0.000*
1,1,0.900,0.350,0.000*
1,1,0.900,0.350,0.000*
%
%ADD63ROUNDEDRECTD63*%
%ADD64C,0.600*%
%ADD65C,1.000*%
%ADD66C,1.800*%
G04:AMPARAMS|DCode=67|XSize=1.8mm|YSize=1.8mm|CornerRadius=0mm|HoleSize=0mm|Usage=FLASHONLY|Rotation=0.000|XOffset=0mm|YOffset=0mm|HoleType=Round|Shape=Relief|Width=0.2mm|Gap=0.25mm|Entries=4|*
%AMTHD67*
7,0,0,1.800,1.300,0.200,45*
%
%ADD67THD67*%
%ADD68C,1.900*%
G04:AMPARAMS|DCode=69|XSize=2.3mm|YSize=2.3mm|CornerRadius=0mm|HoleSize=0mm|Usage=FLASHONLY|Rotation=0.000|XOffset=0mm|YOffset=0mm|HoleType=Round|Shape=Relief|Width=0.2mm|Gap=0.25mm|Entries=4|*
%AMTHD69*
7,0,0,2.300,1.800,0.200,45*
%
%ADD69THD69*%
%ADD70O,1.800X1.100*%
%ADD71C,3.650*%
%ADD72C,0.850*%
%ADD73C,1.200*%
%ADD74C,0.120*%
%ADD75C,1.500*%
%ADD76C,2.000*%
%ADD77C,1.350*%
%ADD78C,3.200*%
%ADD79C,0.001*%
%ADD80C,0.050*%
%ADD81C,0.080*%
%ADD82C,0.100*%
%ADD83C,0.067*%
%ADD84C,0.240*%
D45*
X0180714Y0147500D02*
Y0146357D01*
X0180643Y0146143D01*
X0180571Y0146071D01*
X0180428Y0146000D01*
X0180286D01*
X0180143Y0146071D01*
X0180071Y0146143D01*
X0180000Y0146357D01*
Y0146500D01*
X0182171Y0147143D02*
X0182100Y0147285D01*
X0181957Y0147428D01*
X0181814Y0147500D01*
X0181528D01*
X0181385Y0147428D01*
X0181243Y0147285D01*
X0181171Y0147143D01*
X0181100Y0146928D01*
Y0146571D01*
X0181171Y0146357D01*
X0181243Y0146214D01*
X0181385Y0146071D01*
X0181528Y0146000D01*
X0181814D01*
X0181957Y0146071D01*
X0182100Y0146214D01*
X0182171Y0146357D01*
Y0146571D01*
X0181814D02*
X0182171D01*
X0182514Y0147500D02*
Y0146000D01*
Y0147500D02*
X0183156D01*
X0183371Y0147428D01*
X0183442Y0147357D01*
X0183514Y0147214D01*
Y0147071D01*
X0183442Y0146928D01*
X0183371Y0146857D01*
X0183156Y0146786D01*
X0182514D02*
X0183156D01*
X0183371Y0146714D01*
X0183442Y0146643D01*
X0183514Y0146500D01*
Y0146286D01*
X0183442Y0146143D01*
X0183371Y0146071D01*
X0183156Y0146000D01*
X0182514D01*
X0184278Y0147500D02*
X0184063Y0147428D01*
X0183921Y0147214D01*
X0183849Y0146857D01*
Y0146643D01*
X0183921Y0146286D01*
X0184063Y0146071D01*
X0184278Y0146000D01*
X0184420D01*
X0184635Y0146071D01*
X0184778Y0146286D01*
X0184849Y0146643D01*
Y0146857D01*
X0184778Y0147214D01*
X0184635Y0147428D01*
X0184420Y0147500D01*
X0184278D01*
X0185613D02*
X0185399Y0147428D01*
X0185256Y0147214D01*
X0185185Y0146857D01*
Y0146643D01*
X0185256Y0146286D01*
X0185399Y0146071D01*
X0185613Y0146000D01*
X0185756D01*
X0185970Y0146071D01*
X0186113Y0146286D01*
X0186184Y0146643D01*
Y0146857D01*
X0186113Y0147214D01*
X0185970Y0147428D01*
X0185756Y0147500D01*
X0185613D01*
X0186949D02*
X0186734Y0147428D01*
X0186591Y0147214D01*
X0186520Y0146857D01*
Y0146643D01*
X0186591Y0146286D01*
X0186734Y0146071D01*
X0186949Y0146000D01*
X0187091D01*
X0187306Y0146071D01*
X0187448Y0146286D01*
X0187520Y0146643D01*
Y0146857D01*
X0187448Y0147214D01*
X0187306Y0147428D01*
X0187091Y0147500D01*
X0186949D01*
X0187855Y0147214D02*
X0187998Y0147285D01*
X0188213Y0147500D01*
Y0146000D01*
X0190134Y0146857D02*
X0191419D01*
X0190134Y0146428D02*
X0191419D01*
X0193111Y0147143D02*
Y0147214D01*
X0193183Y0147357D01*
X0193254Y0147428D01*
X0193397Y0147500D01*
X0193683D01*
X0193826Y0147428D01*
X0193897Y0147357D01*
X0193968Y0147214D01*
Y0147071D01*
X0193897Y0146928D01*
X0193754Y0146714D01*
X0193040Y0146000D01*
X0194040D01*
X0194375Y0147500D02*
X0194947Y0146000D01*
X0195518Y0147500D02*
X0194947Y0146000D01*
X0195711Y0147214D02*
X0195854Y0147285D01*
X0196068Y0147500D01*
Y0146000D01*
X0197989Y0146857D02*
X0199274D01*
X0197989Y0146428D02*
X0199274D01*
X0200967Y0147143D02*
Y0147214D01*
X0201038Y0147357D01*
X0201110Y0147428D01*
X0201253Y0147500D01*
X0201538D01*
X0201681Y0147428D01*
X0201752Y0147357D01*
X0201824Y0147214D01*
Y0147071D01*
X0201752Y0146928D01*
X0201610Y0146714D01*
X0200896Y0146000D01*
X0201895D01*
X0203231Y0147500D02*
X0202517Y0146000D01*
X0202231Y0147500D02*
X0203231D01*
X0204745D02*
Y0146000D01*
Y0147500D02*
X0205316Y0146000D01*
X0205887Y0147500D02*
X0205316Y0146000D01*
X0205887Y0147500D02*
Y0146000D01*
X0207458D02*
X0206887Y0147500D01*
X0206316Y0146000D01*
X0206530Y0146500D02*
X0207244D01*
X0207808Y0147500D02*
X0208380Y0146786D01*
Y0146000D01*
X0208951Y0147500D02*
X0208380Y0146786D01*
X0210393Y0147143D02*
Y0147214D01*
X0210465Y0147357D01*
X0210536Y0147428D01*
X0210679Y0147500D01*
X0210965D01*
X0211108Y0147428D01*
X0211179Y0147357D01*
X0211250Y0147214D01*
Y0147071D01*
X0211179Y0146928D01*
X0211036Y0146714D01*
X0210322Y0146000D01*
X0211322D01*
X0212086Y0147500D02*
X0211872Y0147428D01*
X0211729Y0147214D01*
X0211658Y0146857D01*
Y0146643D01*
X0211729Y0146286D01*
X0211872Y0146071D01*
X0212086Y0146000D01*
X0212229D01*
X0212443Y0146071D01*
X0212586Y0146286D01*
X0212657Y0146643D01*
Y0146857D01*
X0212586Y0147214D01*
X0212443Y0147428D01*
X0212229Y0147500D01*
X0212086D01*
X0212993Y0147214D02*
X0213136Y0147285D01*
X0213350Y0147500D01*
Y0146000D01*
X0214950Y0147500D02*
X0214236D01*
X0214164Y0146857D01*
X0214236Y0146928D01*
X0214450Y0147000D01*
X0214664D01*
X0214878Y0146928D01*
X0215021Y0146786D01*
X0215092Y0146571D01*
Y0146428D01*
X0215021Y0146214D01*
X0214878Y0146071D01*
X0214664Y0146000D01*
X0214450D01*
X0214236Y0146071D01*
X0214164Y0146143D01*
X0214093Y0146286D01*
X0181000Y0126250D02*
X0265148D01*
X0181000Y0103750D02*
X0265148D01*
X0181000Y0100000D02*
X0265148D01*
Y0130000D01*
X0181000D02*
X0265148D01*
X0181000Y0100000D02*
Y0130000D01*
X0248019Y0100000D02*
Y0130000D01*
X0236642Y0100000D02*
Y0130000D01*
X0210174Y0100000D02*
Y0130000D01*
X0194367Y0100000D02*
Y0130000D01*
X0252968Y0125125D02*
Y0123625D01*
Y0125125D02*
X0253611D01*
X0253825Y0125053D01*
X0253896Y0124982D01*
X0253968Y0124839D01*
Y0124696D01*
X0253896Y0124553D01*
X0253825Y0124482D01*
X0253611Y0124411D01*
X0252968D01*
X0253468D02*
X0253968Y0123625D01*
X0254661Y0124625D02*
X0254518Y0124553D01*
X0254375Y0124411D01*
X0254304Y0124196D01*
Y0124053D01*
X0254375Y0123839D01*
X0254518Y0123696D01*
X0254661Y0123625D01*
X0254875D01*
X0255018Y0123696D01*
X0255160Y0123839D01*
X0255232Y0124053D01*
Y0124196D01*
X0255160Y0124411D01*
X0255018Y0124553D01*
X0254875Y0124625D01*
X0254661D01*
X0255560D02*
Y0123911D01*
X0255632Y0123696D01*
X0255775Y0123625D01*
X0255989D01*
X0256132Y0123696D01*
X0256346Y0123911D01*
Y0124625D02*
Y0123625D01*
X0256739Y0124625D02*
Y0123625D01*
Y0124339D02*
X0256953Y0124553D01*
X0257096Y0124625D01*
X0257310D01*
X0257453Y0124553D01*
X0257524Y0124339D01*
Y0123625D01*
X0258774Y0125125D02*
Y0123625D01*
Y0124411D02*
X0258631Y0124553D01*
X0258488Y0124625D01*
X0258274D01*
X0258131Y0124553D01*
X0257988Y0124411D01*
X0257917Y0124196D01*
Y0124053D01*
X0257988Y0123839D01*
X0258131Y0123696D01*
X0258274Y0123625D01*
X0258488D01*
X0258631Y0123696D01*
X0258774Y0123839D01*
X0255132Y0121160D02*
X0254989Y0121303D01*
X0254775Y0121375D01*
X0254489D01*
X0254275Y0121303D01*
X0254132Y0121160D01*
Y0121018D01*
X0254204Y0120875D01*
X0254275Y0120803D01*
X0254418Y0120732D01*
X0254846Y0120589D01*
X0254989Y0120518D01*
X0255061Y0120446D01*
X0255132Y0120303D01*
Y0120089D01*
X0254989Y0119946D01*
X0254775Y0119875D01*
X0254489D01*
X0254275Y0119946D01*
X0254132Y0120089D01*
X0255468Y0121375D02*
Y0119875D01*
X0256139Y0120875D02*
X0255996Y0120803D01*
X0255853Y0120661D01*
X0255782Y0120446D01*
Y0120303D01*
X0255853Y0120089D01*
X0255996Y0119946D01*
X0256139Y0119875D01*
X0256353D01*
X0256496Y0119946D01*
X0256639Y0120089D01*
X0256710Y0120303D01*
Y0120446D01*
X0256639Y0120661D01*
X0256496Y0120803D01*
X0256353Y0120875D01*
X0256139D01*
X0257253Y0121375D02*
Y0120161D01*
X0257324Y0119946D01*
X0257467Y0119875D01*
X0257610D01*
X0257039Y0120875D02*
X0257539D01*
X0252968Y0117625D02*
Y0116125D01*
Y0117625D02*
X0253611D01*
X0253825Y0117553D01*
X0253896Y0117482D01*
X0253968Y0117339D01*
Y0117196D01*
X0253896Y0117053D01*
X0253825Y0116982D01*
X0253611Y0116911D01*
X0252968D01*
X0253468D02*
X0253968Y0116125D01*
X0254661Y0117125D02*
X0254518Y0117053D01*
X0254375Y0116911D01*
X0254304Y0116696D01*
Y0116553D01*
X0254375Y0116339D01*
X0254518Y0116196D01*
X0254661Y0116125D01*
X0254875D01*
X0255018Y0116196D01*
X0255160Y0116339D01*
X0255232Y0116553D01*
Y0116696D01*
X0255160Y0116911D01*
X0255018Y0117053D01*
X0254875Y0117125D01*
X0254661D01*
X0255560D02*
Y0116411D01*
X0255632Y0116196D01*
X0255775Y0116125D01*
X0255989D01*
X0256132Y0116196D01*
X0256346Y0116411D01*
Y0117125D02*
Y0116125D01*
X0256739Y0117125D02*
Y0116125D01*
Y0116839D02*
X0256953Y0117053D01*
X0257096Y0117125D01*
X0257310D01*
X0257453Y0117053D01*
X0257524Y0116839D01*
Y0116125D01*
X0258774Y0117625D02*
Y0116125D01*
Y0116911D02*
X0258631Y0117053D01*
X0258488Y0117125D01*
X0258274D01*
X0258131Y0117053D01*
X0257988Y0116911D01*
X0257917Y0116696D01*
Y0116553D01*
X0257988Y0116339D01*
X0258131Y0116196D01*
X0258274Y0116125D01*
X0258488D01*
X0258631Y0116196D01*
X0258774Y0116339D01*
X0252968Y0113875D02*
Y0112375D01*
Y0113875D02*
X0253611D01*
X0253825Y0113803D01*
X0253896Y0113732D01*
X0253968Y0113589D01*
Y0113446D01*
X0253896Y0113303D01*
X0253825Y0113232D01*
X0253611Y0113161D01*
X0252968D01*
X0253468D02*
X0253968Y0112375D01*
X0254661Y0113375D02*
X0254518Y0113303D01*
X0254375Y0113161D01*
X0254304Y0112946D01*
Y0112803D01*
X0254375Y0112589D01*
X0254518Y0112446D01*
X0254661Y0112375D01*
X0254875D01*
X0255018Y0112446D01*
X0255160Y0112589D01*
X0255232Y0112803D01*
Y0112946D01*
X0255160Y0113161D01*
X0255018Y0113303D01*
X0254875Y0113375D01*
X0254661D01*
X0255560D02*
Y0112661D01*
X0255632Y0112446D01*
X0255775Y0112375D01*
X0255989D01*
X0256132Y0112446D01*
X0256346Y0112661D01*
Y0113375D02*
Y0112375D01*
X0256739Y0113375D02*
Y0112375D01*
Y0113089D02*
X0256953Y0113303D01*
X0257096Y0113375D01*
X0257310D01*
X0257453Y0113303D01*
X0257524Y0113089D01*
Y0112375D01*
X0258774Y0113875D02*
Y0112375D01*
Y0113161D02*
X0258631Y0113303D01*
X0258488Y0113375D01*
X0258274D01*
X0258131Y0113303D01*
X0257988Y0113161D01*
X0257917Y0112946D01*
Y0112803D01*
X0257988Y0112589D01*
X0258131Y0112446D01*
X0258274Y0112375D01*
X0258488D01*
X0258631Y0112446D01*
X0258774Y0112589D01*
X0252968Y0110125D02*
Y0108625D01*
Y0110125D02*
X0253611D01*
X0253825Y0110053D01*
X0253896Y0109982D01*
X0253968Y0109839D01*
Y0109696D01*
X0253896Y0109553D01*
X0253825Y0109482D01*
X0253611Y0109411D01*
X0252968D01*
X0253468D02*
X0253968Y0108625D01*
X0254661Y0109625D02*
X0254518Y0109553D01*
X0254375Y0109411D01*
X0254304Y0109196D01*
Y0109053D01*
X0254375Y0108839D01*
X0254518Y0108696D01*
X0254661Y0108625D01*
X0254875D01*
X0255018Y0108696D01*
X0255160Y0108839D01*
X0255232Y0109053D01*
Y0109196D01*
X0255160Y0109411D01*
X0255018Y0109553D01*
X0254875Y0109625D01*
X0254661D01*
X0255560D02*
Y0108911D01*
X0255632Y0108696D01*
X0255775Y0108625D01*
X0255989D01*
X0256132Y0108696D01*
X0256346Y0108911D01*
Y0109625D02*
Y0108625D01*
X0256739Y0109625D02*
Y0108625D01*
Y0109339D02*
X0256953Y0109553D01*
X0257096Y0109625D01*
X0257310D01*
X0257453Y0109553D01*
X0257524Y0109339D01*
Y0108625D01*
X0258774Y0110125D02*
Y0108625D01*
Y0109411D02*
X0258631Y0109553D01*
X0258488Y0109625D01*
X0258274D01*
X0258131Y0109553D01*
X0257988Y0109411D01*
X0257917Y0109196D01*
Y0109053D01*
X0257988Y0108839D01*
X0258131Y0108696D01*
X0258274Y0108625D01*
X0258488D01*
X0258631Y0108696D01*
X0258774Y0108839D01*
X0252968Y0106375D02*
Y0104875D01*
Y0106375D02*
X0253611D01*
X0253825Y0106303D01*
X0253896Y0106232D01*
X0253968Y0106089D01*
Y0105946D01*
X0253896Y0105803D01*
X0253825Y0105732D01*
X0253611Y0105661D01*
X0252968D01*
X0253468D02*
X0253968Y0104875D01*
X0254661Y0105875D02*
X0254518Y0105803D01*
X0254375Y0105661D01*
X0254304Y0105446D01*
Y0105303D01*
X0254375Y0105089D01*
X0254518Y0104946D01*
X0254661Y0104875D01*
X0254875D01*
X0255018Y0104946D01*
X0255160Y0105089D01*
X0255232Y0105303D01*
Y0105446D01*
X0255160Y0105661D01*
X0255018Y0105803D01*
X0254875Y0105875D01*
X0254661D01*
X0255560D02*
Y0105161D01*
X0255632Y0104946D01*
X0255775Y0104875D01*
X0255989D01*
X0256132Y0104946D01*
X0256346Y0105161D01*
Y0105875D02*
Y0104875D01*
X0256739Y0105875D02*
Y0104875D01*
Y0105589D02*
X0256953Y0105803D01*
X0257096Y0105875D01*
X0257310D01*
X0257453Y0105803D01*
X0257524Y0105589D01*
Y0104875D01*
X0258774Y0106375D02*
Y0104875D01*
Y0105661D02*
X0258631Y0105803D01*
X0258488Y0105875D01*
X0258274D01*
X0258131Y0105803D01*
X0257988Y0105661D01*
X0257917Y0105446D01*
Y0105303D01*
X0257988Y0105089D01*
X0258131Y0104946D01*
X0258274Y0104875D01*
X0258488D01*
X0258631Y0104946D01*
X0258774Y0105089D01*
X0240424Y0124339D02*
X0241066D01*
X0241281Y0124411D01*
X0241352Y0124482D01*
X0241424Y0124625D01*
Y0124839D01*
X0241352Y0124982D01*
X0241281Y0125053D01*
X0241066Y0125125D01*
X0240424D01*
Y0123625D01*
X0242259Y0125125D02*
Y0123625D01*
X0241759Y0125125D02*
X0242759D01*
X0242938D02*
Y0123625D01*
X0243937Y0125125D02*
Y0123625D01*
X0242938Y0124411D02*
X0243937D01*
X0240424Y0120589D02*
X0241066D01*
X0241281Y0120661D01*
X0241352Y0120732D01*
X0241424Y0120875D01*
Y0121089D01*
X0241352Y0121232D01*
X0241281Y0121303D01*
X0241066Y0121375D01*
X0240424D01*
Y0119875D01*
X0242259Y0121375D02*
Y0119875D01*
X0241759Y0121375D02*
X0242759D01*
X0242938D02*
Y0119875D01*
X0243937Y0121375D02*
Y0119875D01*
X0242938Y0120661D02*
X0243937D01*
X0240424Y0116839D02*
X0241066D01*
X0241281Y0116911D01*
X0241352Y0116982D01*
X0241424Y0117125D01*
Y0117339D01*
X0241352Y0117482D01*
X0241281Y0117553D01*
X0241066Y0117625D01*
X0240424D01*
Y0116125D01*
X0242259Y0117625D02*
Y0116125D01*
X0241759Y0117625D02*
X0242759D01*
X0242938D02*
Y0116125D01*
X0243937Y0117625D02*
Y0116125D01*
X0242938Y0116911D02*
X0243937D01*
X0239717Y0113875D02*
Y0112375D01*
Y0113875D02*
X0240717Y0112375D01*
Y0113875D02*
Y0112375D01*
X0241131Y0113089D02*
X0241773D01*
X0241988Y0113161D01*
X0242059Y0113232D01*
X0242131Y0113375D01*
Y0113589D01*
X0242059Y0113732D01*
X0241988Y0113803D01*
X0241773Y0113875D01*
X0241131D01*
Y0112375D01*
X0242966Y0113875D02*
Y0112375D01*
X0242466Y0113875D02*
X0243466D01*
X0243645D02*
Y0112375D01*
X0244644Y0113875D02*
Y0112375D01*
X0243645Y0113161D02*
X0244644D01*
X0240424Y0109339D02*
X0241066D01*
X0241281Y0109411D01*
X0241352Y0109482D01*
X0241424Y0109625D01*
Y0109839D01*
X0241352Y0109982D01*
X0241281Y0110053D01*
X0241066Y0110125D01*
X0240424D01*
Y0108625D01*
X0242259Y0110125D02*
Y0108625D01*
X0241759Y0110125D02*
X0242759D01*
X0242938D02*
Y0108625D01*
X0243937Y0110125D02*
Y0108625D01*
X0242938Y0109411D02*
X0243937D01*
X0239717Y0106375D02*
Y0104875D01*
Y0106375D02*
X0240717Y0104875D01*
Y0106375D02*
Y0104875D01*
X0241131Y0105589D02*
X0241773D01*
X0241988Y0105661D01*
X0242059Y0105732D01*
X0242131Y0105875D01*
Y0106089D01*
X0242059Y0106232D01*
X0241988Y0106303D01*
X0241773Y0106375D01*
X0241131D01*
Y0104875D01*
X0242966Y0106375D02*
Y0104875D01*
X0242466Y0106375D02*
X0243466D01*
X0243645D02*
Y0104875D01*
X0244644Y0106375D02*
Y0104875D01*
X0243645Y0105661D02*
X0244644D01*
X0219641Y0125125D02*
X0219427Y0125053D01*
X0219284Y0124839D01*
X0219213Y0124482D01*
Y0124268D01*
X0219284Y0123911D01*
X0219427Y0123696D01*
X0219641Y0123625D01*
X0219784D01*
X0219998Y0123696D01*
X0220141Y0123911D01*
X0220213Y0124268D01*
Y0124482D01*
X0220141Y0124839D01*
X0219998Y0125053D01*
X0219784Y0125125D01*
X0219641D01*
X0220620Y0123768D02*
X0220548Y0123696D01*
X0220620Y0123625D01*
X0220691Y0123696D01*
X0220620Y0123768D01*
X0221091Y0124768D02*
Y0124839D01*
X0221162Y0124982D01*
X0221234Y0125053D01*
X0221377Y0125125D01*
X0221662D01*
X0221805Y0125053D01*
X0221876Y0124982D01*
X0221948Y0124839D01*
Y0124696D01*
X0221876Y0124553D01*
X0221734Y0124339D01*
X0221020Y0123625D01*
X0222019D01*
X0223212Y0125125D02*
X0222498D01*
X0222426Y0124482D01*
X0222498Y0124553D01*
X0222712Y0124625D01*
X0222926D01*
X0223140Y0124553D01*
X0223283Y0124411D01*
X0223355Y0124196D01*
Y0124053D01*
X0223283Y0123839D01*
X0223140Y0123696D01*
X0222926Y0123625D01*
X0222712D01*
X0222498Y0123696D01*
X0222426Y0123768D01*
X0222355Y0123911D01*
X0223690Y0124625D02*
Y0123625D01*
Y0124339D02*
X0223905Y0124553D01*
X0224047Y0124625D01*
X0224262D01*
X0224404Y0124553D01*
X0224476Y0124339D01*
Y0123625D01*
Y0124339D02*
X0224690Y0124553D01*
X0224833Y0124625D01*
X0225047D01*
X0225190Y0124553D01*
X0225261Y0124339D01*
Y0123625D01*
X0225733Y0124625D02*
Y0123625D01*
Y0124339D02*
X0225947Y0124553D01*
X0226090Y0124625D01*
X0226304D01*
X0226447Y0124553D01*
X0226518Y0124339D01*
Y0123625D01*
Y0124339D02*
X0226733Y0124553D01*
X0226875Y0124625D01*
X0227090D01*
X0227232Y0124553D01*
X0227304Y0124339D01*
Y0123625D01*
X0219641Y0121375D02*
X0219427Y0121303D01*
X0219284Y0121089D01*
X0219213Y0120732D01*
Y0120518D01*
X0219284Y0120161D01*
X0219427Y0119946D01*
X0219641Y0119875D01*
X0219784D01*
X0219998Y0119946D01*
X0220141Y0120161D01*
X0220213Y0120518D01*
Y0120732D01*
X0220141Y0121089D01*
X0219998Y0121303D01*
X0219784Y0121375D01*
X0219641D01*
X0220620Y0120018D02*
X0220548Y0119946D01*
X0220620Y0119875D01*
X0220691Y0119946D01*
X0220620Y0120018D01*
X0221876Y0121375D02*
X0221162D01*
X0221091Y0120732D01*
X0221162Y0120803D01*
X0221377Y0120875D01*
X0221591D01*
X0221805Y0120803D01*
X0221948Y0120661D01*
X0222019Y0120446D01*
Y0120303D01*
X0221948Y0120089D01*
X0221805Y0119946D01*
X0221591Y0119875D01*
X0221377D01*
X0221162Y0119946D01*
X0221091Y0120018D01*
X0221020Y0120161D01*
X0222783Y0121375D02*
X0222569Y0121303D01*
X0222426Y0121089D01*
X0222355Y0120732D01*
Y0120518D01*
X0222426Y0120161D01*
X0222569Y0119946D01*
X0222783Y0119875D01*
X0222926D01*
X0223140Y0119946D01*
X0223283Y0120161D01*
X0223355Y0120518D01*
Y0120732D01*
X0223283Y0121089D01*
X0223140Y0121303D01*
X0222926Y0121375D01*
X0222783D01*
X0223690Y0120875D02*
Y0119875D01*
Y0120589D02*
X0223905Y0120803D01*
X0224047Y0120875D01*
X0224262D01*
X0224404Y0120803D01*
X0224476Y0120589D01*
Y0119875D01*
Y0120589D02*
X0224690Y0120803D01*
X0224833Y0120875D01*
X0225047D01*
X0225190Y0120803D01*
X0225261Y0120589D01*
Y0119875D01*
X0225733Y0120875D02*
Y0119875D01*
Y0120589D02*
X0225947Y0120803D01*
X0226090Y0120875D01*
X0226304D01*
X0226447Y0120803D01*
X0226518Y0120589D01*
Y0119875D01*
Y0120589D02*
X0226733Y0120803D01*
X0226875Y0120875D01*
X0227090D01*
X0227232Y0120803D01*
X0227304Y0120589D01*
Y0119875D01*
X0219641Y0117625D02*
X0219427Y0117553D01*
X0219284Y0117339D01*
X0219213Y0116982D01*
Y0116768D01*
X0219284Y0116411D01*
X0219427Y0116196D01*
X0219641Y0116125D01*
X0219784D01*
X0219998Y0116196D01*
X0220141Y0116411D01*
X0220213Y0116768D01*
Y0116982D01*
X0220141Y0117339D01*
X0219998Y0117553D01*
X0219784Y0117625D01*
X0219641D01*
X0220620Y0116268D02*
X0220548Y0116196D01*
X0220620Y0116125D01*
X0220691Y0116196D01*
X0220620Y0116268D01*
X0221377Y0117625D02*
X0221162Y0117553D01*
X0221091Y0117410D01*
Y0117268D01*
X0221162Y0117125D01*
X0221305Y0117053D01*
X0221591Y0116982D01*
X0221805Y0116911D01*
X0221948Y0116768D01*
X0222019Y0116625D01*
Y0116411D01*
X0221948Y0116268D01*
X0221876Y0116196D01*
X0221662Y0116125D01*
X0221377D01*
X0221162Y0116196D01*
X0221091Y0116268D01*
X0221020Y0116411D01*
Y0116625D01*
X0221091Y0116768D01*
X0221234Y0116911D01*
X0221448Y0116982D01*
X0221734Y0117053D01*
X0221876Y0117125D01*
X0221948Y0117268D01*
Y0117410D01*
X0221876Y0117553D01*
X0221662Y0117625D01*
X0221377D01*
X0222783D02*
X0222569Y0117553D01*
X0222426Y0117339D01*
X0222355Y0116982D01*
Y0116768D01*
X0222426Y0116411D01*
X0222569Y0116196D01*
X0222783Y0116125D01*
X0222926D01*
X0223140Y0116196D01*
X0223283Y0116411D01*
X0223355Y0116768D01*
Y0116982D01*
X0223283Y0117339D01*
X0223140Y0117553D01*
X0222926Y0117625D01*
X0222783D01*
X0223690Y0117125D02*
Y0116125D01*
Y0116839D02*
X0223905Y0117053D01*
X0224047Y0117125D01*
X0224262D01*
X0224404Y0117053D01*
X0224476Y0116839D01*
Y0116125D01*
Y0116839D02*
X0224690Y0117053D01*
X0224833Y0117125D01*
X0225047D01*
X0225190Y0117053D01*
X0225261Y0116839D01*
Y0116125D01*
X0225733Y0117125D02*
Y0116125D01*
Y0116839D02*
X0225947Y0117053D01*
X0226090Y0117125D01*
X0226304D01*
X0226447Y0117053D01*
X0226518Y0116839D01*
Y0116125D01*
Y0116839D02*
X0226733Y0117053D01*
X0226875Y0117125D01*
X0227090D01*
X0227232Y0117053D01*
X0227304Y0116839D01*
Y0116125D01*
X0219331Y0113589D02*
X0219473Y0113660D01*
X0219688Y0113875D01*
Y0112375D01*
X0220502Y0112518D02*
X0220430Y0112446D01*
X0220502Y0112375D01*
X0220573Y0112446D01*
X0220502Y0112518D01*
X0220973Y0113518D02*
Y0113589D01*
X0221044Y0113732D01*
X0221116Y0113803D01*
X0221259Y0113875D01*
X0221544D01*
X0221687Y0113803D01*
X0221759Y0113732D01*
X0221830Y0113589D01*
Y0113446D01*
X0221759Y0113303D01*
X0221616Y0113089D01*
X0220902Y0112375D01*
X0221901D01*
X0222666Y0113875D02*
X0222451Y0113803D01*
X0222309Y0113589D01*
X0222237Y0113232D01*
Y0113018D01*
X0222309Y0112661D01*
X0222451Y0112446D01*
X0222666Y0112375D01*
X0222808D01*
X0223023Y0112446D01*
X0223165Y0112661D01*
X0223237Y0113018D01*
Y0113232D01*
X0223165Y0113589D01*
X0223023Y0113803D01*
X0222808Y0113875D01*
X0222666D01*
X0223573Y0113375D02*
Y0112375D01*
Y0113089D02*
X0223787Y0113303D01*
X0223930Y0113375D01*
X0224144D01*
X0224287Y0113303D01*
X0224358Y0113089D01*
Y0112375D01*
Y0113089D02*
X0224572Y0113303D01*
X0224715Y0113375D01*
X0224929D01*
X0225072Y0113303D01*
X0225144Y0113089D01*
Y0112375D01*
X0225615Y0113375D02*
Y0112375D01*
Y0113089D02*
X0225829Y0113303D01*
X0225972Y0113375D01*
X0226186D01*
X0226329Y0113303D01*
X0226400Y0113089D01*
Y0112375D01*
Y0113089D02*
X0226615Y0113303D01*
X0226758Y0113375D01*
X0226972D01*
X0227115Y0113303D01*
X0227186Y0113089D01*
Y0112375D01*
X0219331Y0109839D02*
X0219473Y0109910D01*
X0219688Y0110125D01*
Y0108625D01*
X0220502Y0108768D02*
X0220430Y0108696D01*
X0220502Y0108625D01*
X0220573Y0108696D01*
X0220502Y0108768D01*
X0221044Y0110125D02*
X0221830D01*
X0221402Y0109553D01*
X0221616D01*
X0221759Y0109482D01*
X0221830Y0109411D01*
X0221901Y0109196D01*
Y0109053D01*
X0221830Y0108839D01*
X0221687Y0108696D01*
X0221473Y0108625D01*
X0221259D01*
X0221044Y0108696D01*
X0220973Y0108768D01*
X0220902Y0108911D01*
X0222666Y0110125D02*
X0222451Y0110053D01*
X0222309Y0109839D01*
X0222237Y0109482D01*
Y0109268D01*
X0222309Y0108911D01*
X0222451Y0108696D01*
X0222666Y0108625D01*
X0222808D01*
X0223023Y0108696D01*
X0223165Y0108911D01*
X0223237Y0109268D01*
Y0109482D01*
X0223165Y0109839D01*
X0223023Y0110053D01*
X0222808Y0110125D01*
X0222666D01*
X0223573Y0109625D02*
Y0108625D01*
Y0109339D02*
X0223787Y0109553D01*
X0223930Y0109625D01*
X0224144D01*
X0224287Y0109553D01*
X0224358Y0109339D01*
Y0108625D01*
Y0109339D02*
X0224572Y0109553D01*
X0224715Y0109625D01*
X0224929D01*
X0225072Y0109553D01*
X0225144Y0109339D01*
Y0108625D01*
X0225615Y0109625D02*
Y0108625D01*
Y0109339D02*
X0225829Y0109553D01*
X0225972Y0109625D01*
X0226186D01*
X0226329Y0109553D01*
X0226400Y0109339D01*
Y0108625D01*
Y0109339D02*
X0226615Y0109553D01*
X0226758Y0109625D01*
X0226972D01*
X0227115Y0109553D01*
X0227186Y0109339D01*
Y0108625D01*
X0219356Y0106375D02*
X0220141D01*
X0219713Y0105803D01*
X0219927D01*
X0220070Y0105732D01*
X0220141Y0105661D01*
X0220213Y0105446D01*
Y0105303D01*
X0220141Y0105089D01*
X0219998Y0104946D01*
X0219784Y0104875D01*
X0219570D01*
X0219356Y0104946D01*
X0219284Y0105018D01*
X0219213Y0105161D01*
X0220620Y0105018D02*
X0220548Y0104946D01*
X0220620Y0104875D01*
X0220691Y0104946D01*
X0220620Y0105018D01*
X0221448Y0106375D02*
X0221234Y0106303D01*
X0221091Y0106089D01*
X0221020Y0105732D01*
Y0105518D01*
X0221091Y0105161D01*
X0221234Y0104946D01*
X0221448Y0104875D01*
X0221591D01*
X0221805Y0104946D01*
X0221948Y0105161D01*
X0222019Y0105518D01*
Y0105732D01*
X0221948Y0106089D01*
X0221805Y0106303D01*
X0221591Y0106375D01*
X0221448D01*
X0223212D02*
X0222498D01*
X0222426Y0105732D01*
X0222498Y0105803D01*
X0222712Y0105875D01*
X0222926D01*
X0223140Y0105803D01*
X0223283Y0105661D01*
X0223355Y0105446D01*
Y0105303D01*
X0223283Y0105089D01*
X0223140Y0104946D01*
X0222926Y0104875D01*
X0222712D01*
X0222498Y0104946D01*
X0222426Y0105018D01*
X0222355Y0105161D01*
X0223690Y0105875D02*
Y0104875D01*
Y0105589D02*
X0223905Y0105803D01*
X0224047Y0105875D01*
X0224262D01*
X0224404Y0105803D01*
X0224476Y0105589D01*
Y0104875D01*
Y0105589D02*
X0224690Y0105803D01*
X0224833Y0105875D01*
X0225047D01*
X0225190Y0105803D01*
X0225261Y0105589D01*
Y0104875D01*
X0225733Y0105875D02*
Y0104875D01*
Y0105589D02*
X0225947Y0105803D01*
X0226090Y0105875D01*
X0226304D01*
X0226447Y0105803D01*
X0226518Y0105589D01*
Y0104875D01*
Y0105589D02*
X0226733Y0105803D01*
X0226875Y0105875D01*
X0227090D01*
X0227232Y0105803D01*
X0227304Y0105589D01*
Y0104875D01*
X0197408Y0102339D02*
X0197550Y0102410D01*
X0197765Y0102625D01*
Y0101125D01*
X0199436Y0102125D02*
X0199364Y0101911D01*
X0199221Y0101768D01*
X0199007Y0101696D01*
X0198936D01*
X0198722Y0101768D01*
X0198579Y0101911D01*
X0198507Y0102125D01*
Y0102196D01*
X0198579Y0102410D01*
X0198722Y0102553D01*
X0198936Y0102625D01*
X0199007D01*
X0199221Y0102553D01*
X0199364Y0102410D01*
X0199436Y0102125D01*
Y0101768D01*
X0199364Y0101411D01*
X0199221Y0101196D01*
X0199007Y0101125D01*
X0198864D01*
X0198650Y0101196D01*
X0198579Y0101339D01*
X0200771Y0102125D02*
X0200700Y0101911D01*
X0200557Y0101768D01*
X0200343Y0101696D01*
X0200271D01*
X0200057Y0101768D01*
X0199914Y0101911D01*
X0199843Y0102125D01*
Y0102196D01*
X0199914Y0102410D01*
X0200057Y0102553D01*
X0200271Y0102625D01*
X0200343D01*
X0200557Y0102553D01*
X0200700Y0102410D01*
X0200771Y0102125D01*
Y0101768D01*
X0200700Y0101411D01*
X0200557Y0101196D01*
X0200343Y0101125D01*
X0200200D01*
X0199986Y0101196D01*
X0199914Y0101339D01*
X0202856Y0102625D02*
Y0101125D01*
X0202357Y0102625D02*
X0203356D01*
X0203892Y0102125D02*
X0203749Y0102053D01*
X0203606Y0101911D01*
X0203535Y0101696D01*
Y0101553D01*
X0203606Y0101339D01*
X0203749Y0101196D01*
X0203892Y0101125D01*
X0204106D01*
X0204249Y0101196D01*
X0204392Y0101339D01*
X0204463Y0101553D01*
Y0101696D01*
X0204392Y0101911D01*
X0204249Y0102053D01*
X0204106Y0102125D01*
X0203892D01*
X0205006Y0102625D02*
Y0101411D01*
X0205077Y0101196D01*
X0205220Y0101125D01*
X0205363D01*
X0204792Y0102125D02*
X0205292D01*
X0206434D02*
Y0101125D01*
Y0101911D02*
X0206291Y0102053D01*
X0206149Y0102125D01*
X0205934D01*
X0205791Y0102053D01*
X0205649Y0101911D01*
X0205577Y0101696D01*
Y0101553D01*
X0205649Y0101339D01*
X0205791Y0101196D01*
X0205934Y0101125D01*
X0206149D01*
X0206291Y0101196D01*
X0206434Y0101339D01*
X0206834Y0102625D02*
Y0101125D01*
X0200403Y0124839D02*
X0200546Y0124910D01*
X0200760Y0125125D01*
Y0123625D01*
X0201860Y0125125D02*
X0201646Y0125053D01*
X0201575Y0124910D01*
Y0124768D01*
X0201646Y0124625D01*
X0201789Y0124553D01*
X0202074Y0124482D01*
X0202289Y0124411D01*
X0202431Y0124268D01*
X0202503Y0124125D01*
Y0123911D01*
X0202431Y0123768D01*
X0202360Y0123696D01*
X0202146Y0123625D01*
X0201860D01*
X0201646Y0123696D01*
X0201575Y0123768D01*
X0201503Y0123911D01*
Y0124125D01*
X0201575Y0124268D01*
X0201717Y0124411D01*
X0201932Y0124482D01*
X0202217Y0124553D01*
X0202360Y0124625D01*
X0202431Y0124768D01*
Y0124910D01*
X0202360Y0125053D01*
X0202146Y0125125D01*
X0201860D01*
X0202981D02*
X0203767D01*
X0203338Y0124553D01*
X0203553D01*
X0203695Y0124482D01*
X0203767Y0124411D01*
X0203838Y0124196D01*
Y0124053D01*
X0203767Y0123839D01*
X0203624Y0123696D01*
X0203410Y0123625D01*
X0203196D01*
X0202981Y0123696D01*
X0202910Y0123768D01*
X0202839Y0123911D01*
X0201692Y0121018D02*
Y0121089D01*
X0201764Y0121232D01*
X0201835Y0121303D01*
X0201978Y0121375D01*
X0202264D01*
X0202406Y0121303D01*
X0202478Y0121232D01*
X0202549Y0121089D01*
Y0120946D01*
X0202478Y0120803D01*
X0202335Y0120589D01*
X0201621Y0119875D01*
X0202621D01*
X0201764Y0117625D02*
X0202549D01*
X0202121Y0117053D01*
X0202335D01*
X0202478Y0116982D01*
X0202549Y0116911D01*
X0202621Y0116696D01*
Y0116553D01*
X0202549Y0116339D01*
X0202406Y0116196D01*
X0202192Y0116125D01*
X0201978D01*
X0201764Y0116196D01*
X0201692Y0116268D01*
X0201621Y0116411D01*
X0201692Y0113518D02*
Y0113589D01*
X0201764Y0113732D01*
X0201835Y0113803D01*
X0201978Y0113875D01*
X0202264D01*
X0202406Y0113803D01*
X0202478Y0113732D01*
X0202549Y0113589D01*
Y0113446D01*
X0202478Y0113303D01*
X0202335Y0113089D01*
X0201621Y0112375D01*
X0202621D01*
X0202478Y0110125D02*
X0201764D01*
X0201692Y0109482D01*
X0201764Y0109553D01*
X0201978Y0109625D01*
X0202192D01*
X0202406Y0109553D01*
X0202549Y0109411D01*
X0202621Y0109196D01*
Y0109053D01*
X0202549Y0108839D01*
X0202406Y0108696D01*
X0202192Y0108625D01*
X0201978D01*
X0201764Y0108696D01*
X0201692Y0108768D01*
X0201621Y0108911D01*
X0202299Y0106375D02*
X0201585Y0105375D01*
X0202656D01*
X0202299Y0106375D02*
Y0104875D01*
X0180000Y0145500D02*
Y0144000D01*
Y0145500D02*
X0180500D01*
X0180714Y0145428D01*
X0180857Y0145285D01*
X0180928Y0145143D01*
X0181000Y0144928D01*
Y0144571D01*
X0180928Y0144357D01*
X0180857Y0144214D01*
X0180714Y0144071D01*
X0180500Y0144000D01*
X0180000D01*
X0181335Y0145500D02*
Y0144000D01*
Y0145500D02*
X0181978D01*
X0182192Y0145428D01*
X0182264Y0145357D01*
X0182335Y0145214D01*
Y0145071D01*
X0182264Y0144928D01*
X0182192Y0144857D01*
X0181978Y0144786D01*
X0181335D01*
X0181835D02*
X0182335Y0144000D01*
X0182671Y0145500D02*
Y0144000D01*
X0182985Y0145500D02*
Y0144000D01*
X0183842D01*
X0184006Y0145500D02*
Y0144000D01*
X0184863D01*
X0186206Y0145500D02*
Y0144000D01*
Y0145500D02*
X0186706D01*
X0186920Y0145428D01*
X0187063Y0145285D01*
X0187134Y0145143D01*
X0187206Y0144928D01*
Y0144571D01*
X0187134Y0144357D01*
X0187063Y0144214D01*
X0186920Y0144071D01*
X0186706Y0144000D01*
X0186206D01*
X0187541Y0145500D02*
Y0144000D01*
Y0145500D02*
X0188184D01*
X0188398Y0145428D01*
X0188470Y0145357D01*
X0188541Y0145214D01*
Y0145071D01*
X0188470Y0144928D01*
X0188398Y0144857D01*
X0188184Y0144786D01*
X0187541D01*
X0188041D02*
X0188541Y0144000D01*
X0190019D02*
X0189448Y0145500D01*
X0188877Y0144000D01*
X0189091Y0144500D02*
X0189805D01*
X0190369Y0145500D02*
X0190726Y0144000D01*
X0191083Y0145500D02*
X0190726Y0144000D01*
X0191083Y0145500D02*
X0191440Y0144000D01*
X0191797Y0145500D02*
X0191440Y0144000D01*
X0192097Y0145500D02*
Y0144000D01*
X0192412Y0145500D02*
Y0144000D01*
Y0145500D02*
X0193411Y0144000D01*
Y0145500D02*
Y0144000D01*
X0194897Y0145143D02*
X0194825Y0145285D01*
X0194683Y0145428D01*
X0194540Y0145500D01*
X0194254D01*
X0194111Y0145428D01*
X0193968Y0145285D01*
X0193897Y0145143D01*
X0193826Y0144928D01*
Y0144571D01*
X0193897Y0144357D01*
X0193968Y0144214D01*
X0194111Y0144071D01*
X0194254Y0144000D01*
X0194540D01*
X0194683Y0144071D01*
X0194825Y0144214D01*
X0194897Y0144357D01*
Y0144571D01*
X0194540D02*
X0194897D01*
D83*
X0188605Y0116750D02*
G03*
X0188605Y0116750I-0000625J0000000D01*
G01*
X0241133Y0163000D02*
G03*
X0241133Y0163000I-0000333J0000000D01*
G01*
Y0167000D02*
G03*
X0241133Y0167000I-0000333J0000000D01*
G01*
Y0165000D02*
G03*
X0241133Y0165000I-0000333J0000000D01*
G01*
X0187355Y0124250D02*
X0187980Y0123625D01*
X0188605Y0124250D01*
X0187980Y0124875D02*
X0188605Y0124250D01*
X0187355D02*
X0187980Y0124875D01*
X0187355Y0119875D02*
X0188605D01*
Y0121125D01*
X0187355D02*
X0188605D01*
X0187355Y0119875D02*
Y0121125D01*
Y0112375D02*
X0187980Y0112687D01*
X0188605Y0112375D01*
X0188293Y0113000D02*
X0188605Y0112375D01*
X0188293Y0113000D02*
X0188605Y0113625D01*
X0187980Y0113312D02*
X0188605Y0113625D01*
X0187355D02*
X0187980Y0113312D01*
X0187355Y0113625D02*
X0187668Y0113000D01*
X0187355Y0112375D02*
X0187668Y0113000D01*
X0187355Y0108938D02*
X0187668D01*
X0187355D02*
Y0109562D01*
X0187668D01*
Y0109875D01*
X0188293D01*
Y0109562D02*
Y0109875D01*
Y0109562D02*
X0188605D01*
Y0108938D02*
Y0109562D01*
X0188293Y0108938D02*
X0188605D01*
X0188293Y0108625D02*
Y0108938D01*
X0187668Y0108625D02*
X0188293D01*
X0187668D02*
Y0108938D01*
X0187980Y0104875D02*
X0188605Y0106125D01*
X0187355D02*
X0188605D01*
X0187355D02*
X0187980Y0104875D01*
X0187467Y0164300D02*
X0187800Y0163967D01*
X0188133Y0164300D01*
X0187800Y0164633D02*
X0188133Y0164300D01*
X0187467D02*
X0187800Y0164633D01*
X0224367Y0165100D02*
X0224700Y0164767D01*
X0225033Y0165100D01*
X0224700Y0165433D02*
X0225033Y0165100D01*
X0224367D02*
X0224700Y0165433D01*
X0225367Y0165100D02*
X0225700Y0164767D01*
X0226033Y0165100D01*
X0225700Y0165433D02*
X0226033Y0165100D01*
X0225367D02*
X0225700Y0165433D01*
X0223867Y0169300D02*
X0224200Y0168967D01*
X0224533Y0169300D01*
X0224200Y0169633D02*
X0224533Y0169300D01*
X0223867D02*
X0224200Y0169633D01*
X0227367Y0172900D02*
X0227700Y0172567D01*
X0228033Y0172900D01*
X0227700Y0173233D02*
X0228033Y0172900D01*
X0227367D02*
X0227700Y0173233D01*
X0224767Y0170200D02*
X0225100Y0169867D01*
X0225433Y0170200D01*
X0225100Y0170533D02*
X0225433Y0170200D01*
X0224767D02*
X0225100Y0170533D01*
X0225167Y0166100D02*
X0225500Y0165767D01*
X0225833Y0166100D01*
X0225500Y0166433D02*
X0225833Y0166100D01*
X0225167D02*
X0225500Y0166433D01*
X0223667Y0166100D02*
X0224000Y0165767D01*
X0224333Y0166100D01*
X0224000Y0166433D02*
X0224333Y0166100D01*
X0223667D02*
X0224000Y0166433D01*
X0208467Y0171800D02*
X0208800Y0171467D01*
X0209133Y0171800D01*
X0208800Y0172133D02*
X0209133Y0171800D01*
X0208467D02*
X0208800Y0172133D01*
X0207167Y0166800D02*
X0207500Y0166467D01*
X0207833Y0166800D01*
X0207500Y0167133D02*
X0207833Y0166800D01*
X0207167D02*
X0207500Y0167133D01*
X0182467Y0163700D02*
X0182800Y0163367D01*
X0183133Y0163700D01*
X0182800Y0164033D02*
X0183133Y0163700D01*
X0182467D02*
X0182800Y0164033D01*
X0186267Y0169600D02*
X0186600Y0169267D01*
X0186933Y0169600D01*
X0186600Y0169933D02*
X0186933Y0169600D01*
X0186267D02*
X0186600Y0169933D01*
X0207167Y0165500D02*
X0207500Y0165167D01*
X0207833Y0165500D01*
X0207500Y0165833D02*
X0207833Y0165500D01*
X0207167D02*
X0207500Y0165833D01*
X0208067Y0162750D02*
X0208400Y0162417D01*
X0208733Y0162750D01*
X0208400Y0163083D02*
X0208733Y0162750D01*
X0208067D02*
X0208400Y0163083D01*
X0208067Y0166250D02*
X0208400Y0165917D01*
X0208733Y0166250D01*
X0208400Y0166583D02*
X0208733Y0166250D01*
X0208067D02*
X0208400Y0166583D01*
X0214567Y0166200D02*
X0214900Y0165867D01*
X0215233Y0166200D01*
X0214900Y0166533D02*
X0215233Y0166200D01*
X0214567D02*
X0214900Y0166533D01*
X0215467Y0166100D02*
X0215800Y0165767D01*
X0216133Y0166100D01*
X0215800Y0166433D02*
X0216133Y0166100D01*
X0215467D02*
X0215800Y0166433D01*
X0190167Y0161500D02*
X0190500Y0161167D01*
X0190833Y0161500D01*
X0190500Y0161833D02*
X0190833Y0161500D01*
X0190167D02*
X0190500Y0161833D01*
X0227167Y0168600D02*
X0227500Y0168267D01*
X0227833Y0168600D01*
X0227500Y0168933D02*
X0227833Y0168600D01*
X0227167D02*
X0227500Y0168933D01*
X0229667Y0166200D02*
X0230000Y0165867D01*
X0230333Y0166200D01*
X0230000Y0166533D02*
X0230333Y0166200D01*
X0229667D02*
X0230000Y0166533D01*
X0229667Y0165000D02*
X0230000Y0164667D01*
X0230333Y0165000D01*
X0230000Y0165333D02*
X0230333Y0165000D01*
X0229667D02*
X0230000Y0165333D01*
X0229667Y0163800D02*
X0230000Y0163467D01*
X0230333Y0163800D01*
X0230000Y0164133D02*
X0230333Y0163800D01*
X0229667D02*
X0230000Y0164133D01*
X0230867Y0166200D02*
X0231200Y0165867D01*
X0231533Y0166200D01*
X0231200Y0166533D02*
X0231533Y0166200D01*
X0230867D02*
X0231200Y0166533D01*
X0230867Y0165000D02*
X0231200Y0164667D01*
X0231533Y0165000D01*
X0231200Y0165333D02*
X0231533Y0165000D01*
X0230867D02*
X0231200Y0165333D01*
X0228467Y0166200D02*
X0228800Y0165867D01*
X0229133Y0166200D01*
X0228800Y0166533D02*
X0229133Y0166200D01*
X0228467D02*
X0228800Y0166533D01*
X0228467Y0165000D02*
X0228800Y0164667D01*
X0229133Y0165000D01*
X0228800Y0165333D02*
X0229133Y0165000D01*
X0228467D02*
X0228800Y0165333D01*
X0230867Y0163800D02*
X0231200Y0163467D01*
X0231533Y0163800D01*
X0231200Y0164133D02*
X0231533Y0163800D01*
X0230867D02*
X0231200Y0164133D01*
X0229867Y0160700D02*
X0230200Y0160367D01*
X0230533Y0160700D01*
X0230200Y0161033D02*
X0230533Y0160700D01*
X0229867D02*
X0230200Y0161033D01*
X0229867Y0169300D02*
X0230200Y0168967D01*
X0230533Y0169300D01*
X0230200Y0169633D02*
X0230533Y0169300D01*
X0229867D02*
X0230200Y0169633D01*
X0227766Y0160700D02*
X0228100Y0160366D01*
X0228433Y0160700D01*
X0228100Y0161033D02*
X0228433Y0160700D01*
X0227766D02*
X0228100Y0161033D01*
X0238567Y0166000D02*
X0238900Y0165667D01*
X0239233Y0166000D01*
X0238900Y0166333D02*
X0239233Y0166000D01*
X0238567D02*
X0238900Y0166333D01*
X0238567Y0167500D02*
X0238900Y0167167D01*
X0239233Y0167500D01*
X0238900Y0167833D02*
X0239233Y0167500D01*
X0238567D02*
X0238900Y0167833D01*
X0237267Y0168700D02*
X0237600Y0168367D01*
X0237933Y0168700D01*
X0237600Y0169033D02*
X0237933Y0168700D01*
X0237267D02*
X0237600Y0169033D01*
X0237842Y0165250D02*
X0238175Y0164917D01*
X0238508Y0165250D01*
X0238175Y0165583D02*
X0238508Y0165250D01*
X0237842D02*
X0238175Y0165583D01*
X0237842Y0166750D02*
X0238175Y0166417D01*
X0238508Y0166750D01*
X0238175Y0167083D02*
X0238508Y0166750D01*
X0237842D02*
X0238175Y0167083D01*
X0219067Y0161700D02*
X0219400Y0161367D01*
X0219733Y0161700D01*
X0219400Y0162033D02*
X0219733Y0161700D01*
X0219067D02*
X0219400Y0162033D01*
X0217467Y0162900D02*
X0217800Y0162567D01*
X0218133Y0162900D01*
X0217800Y0163233D02*
X0218133Y0162900D01*
X0217467D02*
X0217800Y0163233D01*
X0217467Y0165300D02*
X0217800Y0164967D01*
X0218133Y0165300D01*
X0217800Y0165633D02*
X0218133Y0165300D01*
X0217467D02*
X0217800Y0165633D01*
X0216466Y0160900D02*
X0216800Y0160566D01*
X0217133Y0160900D01*
X0216800Y0161233D02*
X0217133Y0160900D01*
X0216466D02*
X0216800Y0161233D01*
X0218067Y0161700D02*
X0218400Y0161367D01*
X0218733Y0161700D01*
X0218400Y0162033D02*
X0218733Y0161700D01*
X0218067D02*
X0218400Y0162033D01*
X0215367Y0160900D02*
X0215700Y0160567D01*
X0216033Y0160900D01*
X0215700Y0161233D02*
X0216033Y0160900D01*
X0215367D02*
X0215700Y0161233D01*
X0223266Y0165100D02*
X0223600Y0164766D01*
X0223933Y0165100D01*
X0223600Y0165433D02*
X0223933Y0165100D01*
X0223266D02*
X0223600Y0165433D01*
X0222067Y0164000D02*
X0222400Y0163667D01*
X0222733Y0164000D01*
X0222400Y0164333D02*
X0222733Y0164000D01*
X0222067D02*
X0222400Y0164333D01*
X0226967Y0162100D02*
X0227300Y0161767D01*
X0227633Y0162100D01*
X0227300Y0162433D02*
X0227633Y0162100D01*
X0226967D02*
X0227300Y0162433D01*
X0225967Y0162100D02*
X0226300Y0161767D01*
X0226633Y0162100D01*
X0226300Y0162433D02*
X0226633Y0162100D01*
X0225967D02*
X0226300Y0162433D01*
X0224867Y0162100D02*
X0225200Y0161767D01*
X0225533Y0162100D01*
X0225200Y0162433D02*
X0225533Y0162100D01*
X0224867D02*
X0225200Y0162433D01*
X0225567Y0172200D02*
X0225900Y0171867D01*
X0226233Y0172200D01*
X0225900Y0172533D02*
X0226233Y0172200D01*
X0225567D02*
X0225900Y0172533D01*
X0226667Y0172200D02*
X0227000Y0171867D01*
X0227333Y0172200D01*
X0227000Y0172533D02*
X0227333Y0172200D01*
X0226667D02*
X0227000Y0172533D01*
X0228367Y0172900D02*
X0228700Y0172567D01*
X0229033Y0172900D01*
X0228700Y0173233D02*
X0229033Y0172900D01*
X0228367D02*
X0228700Y0173233D01*
X0238467Y0171800D02*
X0238800Y0171467D01*
X0239133Y0171800D01*
X0238800Y0172133D02*
X0239133Y0171800D01*
X0238467D02*
X0238800Y0172133D01*
X0187367Y0167100D02*
X0187700Y0166767D01*
X0188033Y0167100D01*
X0187700Y0167433D02*
X0188033Y0167100D01*
X0187367D02*
X0187700Y0167433D01*
X0193067Y0166400D02*
X0193400Y0166067D01*
X0193733Y0166400D01*
X0193400Y0166733D02*
X0193733Y0166400D01*
X0193067D02*
X0193400Y0166733D01*
X0192267Y0166400D02*
X0192600Y0166067D01*
X0192933Y0166400D01*
X0192600Y0166733D02*
X0192933Y0166400D01*
X0192267D02*
X0192600Y0166733D01*
X0190992Y0165225D02*
X0191325Y0164892D01*
X0191658Y0165225D01*
X0191325Y0165558D02*
X0191658Y0165225D01*
X0190992D02*
X0191325Y0165558D01*
X0190992Y0164425D02*
X0191325Y0164092D01*
X0191658Y0164425D01*
X0191325Y0164758D02*
X0191658Y0164425D01*
X0190992D02*
X0191325Y0164758D01*
X0228467Y0163800D02*
X0228800Y0163467D01*
X0229133Y0163800D01*
X0228800Y0164133D02*
X0229133Y0163800D01*
X0228467D02*
X0228800Y0164133D01*
X0204367Y0162900D02*
X0204700Y0162567D01*
X0205033Y0162900D01*
X0204700Y0163233D02*
X0205033Y0162900D01*
X0204367D02*
X0204700Y0163233D01*
X0202967Y0162900D02*
X0203300Y0162567D01*
X0203633Y0162900D01*
X0203300Y0163233D02*
X0203633Y0162900D01*
X0202967D02*
X0203300Y0163233D01*
X0205767Y0162900D02*
X0206100Y0162567D01*
X0206433Y0162900D01*
X0206100Y0163233D02*
X0206433Y0162900D01*
X0205767D02*
X0206100Y0163233D01*
X0201567Y0162900D02*
X0201900Y0162567D01*
X0202233Y0162900D01*
X0201900Y0163233D02*
X0202233Y0162900D01*
X0201567D02*
X0201900Y0163233D01*
X0204367Y0164300D02*
X0204700Y0163967D01*
X0205033Y0164300D01*
X0204700Y0164633D02*
X0205033Y0164300D01*
X0204367D02*
X0204700Y0164633D01*
X0202967Y0164300D02*
X0203300Y0163967D01*
X0203633Y0164300D01*
X0203300Y0164633D02*
X0203633Y0164300D01*
X0202967D02*
X0203300Y0164633D01*
X0205767Y0164300D02*
X0206100Y0163967D01*
X0206433Y0164300D01*
X0206100Y0164633D02*
X0206433Y0164300D01*
X0205767D02*
X0206100Y0164633D01*
X0201567Y0164300D02*
X0201900Y0163967D01*
X0202233Y0164300D01*
X0201900Y0164633D02*
X0202233Y0164300D01*
X0201567D02*
X0201900Y0164633D01*
X0204367Y0167100D02*
X0204700Y0166767D01*
X0205033Y0167100D01*
X0204700Y0167433D02*
X0205033Y0167100D01*
X0204367D02*
X0204700Y0167433D01*
X0202967Y0167100D02*
X0203300Y0166767D01*
X0203633Y0167100D01*
X0203300Y0167433D02*
X0203633Y0167100D01*
X0202967D02*
X0203300Y0167433D01*
X0205767Y0167100D02*
X0206100Y0166767D01*
X0206433Y0167100D01*
X0206100Y0167433D02*
X0206433Y0167100D01*
X0205767D02*
X0206100Y0167433D01*
X0201567Y0167100D02*
X0201900Y0166767D01*
X0202233Y0167100D01*
X0201900Y0167433D02*
X0202233Y0167100D01*
X0201567D02*
X0201900Y0167433D01*
X0201567Y0165700D02*
X0201900Y0165367D01*
X0202233Y0165700D01*
X0201900Y0166033D02*
X0202233Y0165700D01*
X0201567D02*
X0201900Y0166033D01*
X0205767Y0165700D02*
X0206100Y0165367D01*
X0206433Y0165700D01*
X0206100Y0166033D02*
X0206433Y0165700D01*
X0205767D02*
X0206100Y0166033D01*
X0202967Y0165700D02*
X0203300Y0165367D01*
X0203633Y0165700D01*
X0203300Y0166033D02*
X0203633Y0165700D01*
X0202967D02*
X0203300Y0166033D01*
X0204367Y0165700D02*
X0204700Y0165367D01*
X0205033Y0165700D01*
X0204700Y0166033D02*
X0205033Y0165700D01*
X0204367D02*
X0204700Y0166033D01*
X0186167Y0172400D02*
X0186500Y0172067D01*
X0186833Y0172400D01*
X0186500Y0172733D02*
X0186833Y0172400D01*
X0186167D02*
X0186500Y0172733D01*
X0190167Y0162500D02*
X0190500Y0162167D01*
X0190833Y0162500D01*
X0190500Y0162833D02*
X0190833Y0162500D01*
X0190167D02*
X0190500Y0162833D01*
X0192667Y0161500D02*
X0193000Y0161167D01*
X0193333Y0161500D01*
X0193000Y0161833D02*
X0193333Y0161500D01*
X0192667D02*
X0193000Y0161833D01*
X0192667Y0162500D02*
X0193000Y0162167D01*
X0193333Y0162500D01*
X0193000Y0162833D02*
X0193333Y0162500D01*
X0192667D02*
X0193000Y0162833D01*
X0192667Y0163500D02*
X0193000Y0163167D01*
X0193333Y0163500D01*
X0193000Y0163833D02*
X0193333Y0163500D01*
X0192667D02*
X0193000Y0163833D01*
X0187166Y0161200D02*
X0187500Y0160866D01*
X0187833Y0161200D01*
X0187500Y0161533D02*
X0187833Y0161200D01*
X0187166D02*
X0187500Y0161533D01*
X0186567Y0160400D02*
X0186900Y0160067D01*
X0187233Y0160400D01*
X0186900Y0160733D02*
X0187233Y0160400D01*
X0186567D02*
X0186900Y0160733D01*
X0188467Y0168800D02*
X0188800Y0168467D01*
X0189133Y0168800D01*
X0188800Y0169133D02*
X0189133Y0168800D01*
X0188467D02*
X0188800Y0169133D01*
X0188467Y0168000D02*
X0188800Y0167667D01*
X0189133Y0168000D01*
X0188800Y0168333D02*
X0189133Y0168000D01*
X0188467D02*
X0188800Y0168333D01*
X0190367Y0166300D02*
X0190700Y0165967D01*
X0191033Y0166300D01*
X0190700Y0166633D02*
X0191033Y0166300D01*
X0190367D02*
X0190700Y0166633D01*
X0196667Y0170900D02*
X0197000Y0170567D01*
X0197333Y0170900D01*
X0197000Y0171233D02*
X0197333Y0170900D01*
X0196667D02*
X0197000Y0171233D01*
X0196667Y0170100D02*
X0197000Y0169767D01*
X0197333Y0170100D01*
X0197000Y0170433D02*
X0197333Y0170100D01*
X0196667D02*
X0197000Y0170433D01*
X0199267Y0166250D02*
X0199600Y0165917D01*
X0199933Y0166250D01*
X0199600Y0166583D02*
X0199933Y0166250D01*
X0199267D02*
X0199600Y0166583D01*
X0194467Y0166500D02*
X0194800Y0166167D01*
X0195133Y0166500D01*
X0194800Y0166833D02*
X0195133Y0166500D01*
X0194467D02*
X0194800Y0166833D01*
X0194467Y0167500D02*
X0194800Y0167167D01*
X0195133Y0167500D01*
X0194800Y0167833D02*
X0195133Y0167500D01*
X0194467D02*
X0194800Y0167833D01*
X0194467Y0168500D02*
X0194800Y0168167D01*
X0195133Y0168500D01*
X0194800Y0168833D02*
X0195133Y0168500D01*
X0194467D02*
X0194800Y0168833D01*
X0194472Y0165300D02*
X0194805Y0164967D01*
X0195138Y0165300D01*
X0194805Y0165633D02*
X0195138Y0165300D01*
X0194472D02*
X0194805Y0165633D01*
X0220467Y0157300D02*
X0220800Y0156967D01*
X0221133Y0157300D01*
X0220800Y0157633D02*
X0221133Y0157300D01*
X0220467D02*
X0220800Y0157633D01*
X0218267Y0160700D02*
X0218600Y0160367D01*
X0218933Y0160700D01*
X0218600Y0161033D02*
X0218933Y0160700D01*
X0218267D02*
X0218600Y0161033D01*
X0219067Y0160700D02*
X0219400Y0160367D01*
X0219733Y0160700D01*
X0219400Y0161033D02*
X0219733Y0160700D01*
X0219067D02*
X0219400Y0161033D01*
X0195167Y0160900D02*
X0195500Y0160567D01*
X0195833Y0160900D01*
X0195500Y0161233D02*
X0195833Y0160900D01*
X0195167D02*
X0195500Y0161233D01*
X0196167Y0160900D02*
X0196500Y0160567D01*
X0196833Y0160900D01*
X0196500Y0161233D02*
X0196833Y0160900D01*
X0196167D02*
X0196500Y0161233D01*
X0199267Y0163750D02*
X0199600Y0163417D01*
X0199933Y0163750D01*
X0199600Y0164083D02*
X0199933Y0163750D01*
X0199267D02*
X0199600Y0164083D01*
X0194467Y0163700D02*
X0194800Y0163367D01*
X0195133Y0163700D01*
X0194800Y0164033D02*
X0195133Y0163700D01*
X0194467D02*
X0194800Y0164033D01*
X0189467Y0169300D02*
X0189800Y0168967D01*
X0190133Y0169300D01*
X0189800Y0169633D02*
X0190133Y0169300D01*
X0189467D02*
X0189800Y0169633D01*
X0220667Y0161400D02*
X0221000Y0161067D01*
X0221333Y0161400D01*
X0221000Y0161733D02*
X0221333Y0161400D01*
X0220667D02*
X0221000Y0161733D01*
X0221967Y0157100D02*
X0222300Y0156767D01*
X0222633Y0157100D01*
X0222300Y0157433D02*
X0222633Y0157100D01*
X0221967D02*
X0222300Y0157433D01*
X0227767Y0157100D02*
X0228100Y0156767D01*
X0228433Y0157100D01*
X0228100Y0157433D02*
X0228433Y0157100D01*
X0227767D02*
X0228100Y0157433D01*
X0229667Y0157100D02*
X0230000Y0156767D01*
X0230333Y0157100D01*
X0230000Y0157433D02*
X0230333Y0157100D01*
X0229667D02*
X0230000Y0157433D01*
X0214367Y0157200D02*
X0214700Y0156867D01*
X0215033Y0157200D01*
X0214700Y0157533D02*
X0215033Y0157200D01*
X0214367D02*
X0214700Y0157533D01*
X0188167Y0161200D02*
X0188500Y0160867D01*
X0188833Y0161200D01*
X0188500Y0161533D02*
X0188833Y0161200D01*
X0188167D02*
X0188500Y0161533D01*
X0185667Y0164300D02*
X0186000Y0163967D01*
X0186333Y0164300D01*
X0186000Y0164633D02*
X0186333Y0164300D01*
X0185667D02*
X0186000Y0164633D01*
X0221167Y0172800D02*
X0221500Y0172467D01*
X0221833Y0172800D01*
X0221500Y0173133D02*
X0221833Y0172800D01*
X0221167D02*
X0221500Y0173133D01*
X0199567Y0156500D02*
X0199900Y0156167D01*
X0200233Y0156500D01*
X0199900Y0156833D02*
X0200233Y0156500D01*
X0199567D02*
X0199900Y0156833D01*
X0199567Y0157500D02*
X0199900Y0157167D01*
X0200233Y0157500D01*
X0199900Y0157833D02*
X0200233Y0157500D01*
X0199567D02*
X0199900Y0157833D01*
X0202667Y0156500D02*
X0203000Y0156167D01*
X0203333Y0156500D01*
X0203000Y0156833D02*
X0203333Y0156500D01*
X0202667D02*
X0203000Y0156833D01*
X0206167Y0157500D02*
X0206500Y0157167D01*
X0206833Y0157500D01*
X0206500Y0157833D02*
X0206833Y0157500D01*
X0206167D02*
X0206500Y0157833D01*
X0206167Y0156500D02*
X0206500Y0156167D01*
X0206833Y0156500D01*
X0206500Y0156833D02*
X0206833Y0156500D01*
X0206167D02*
X0206500Y0156833D01*
X0202417Y0160600D02*
X0202750Y0160267D01*
X0203083Y0160600D01*
X0202750Y0160933D02*
X0203083Y0160600D01*
X0202417D02*
X0202750Y0160933D01*
X0199867Y0161800D02*
X0200200Y0161467D01*
X0200533Y0161800D01*
X0200200Y0162133D02*
X0200533Y0161800D01*
X0199867D02*
X0200200Y0162133D01*
X0199267Y0162600D02*
X0199600Y0162267D01*
X0199933Y0162600D01*
X0199600Y0162933D02*
X0199933Y0162600D01*
X0199267D02*
X0199600Y0162933D01*
X0204167Y0172500D02*
X0204500Y0172167D01*
X0204833Y0172500D01*
X0204500Y0172833D02*
X0204833Y0172500D01*
X0204167D02*
X0204500Y0172833D01*
X0200467Y0173500D02*
X0200800Y0173167D01*
X0201133Y0173500D01*
X0200800Y0173833D02*
X0201133Y0173500D01*
X0200467D02*
X0200800Y0173833D01*
X0200467Y0172500D02*
X0200800Y0172167D01*
X0201133Y0172500D01*
X0200800Y0172833D02*
X0201133Y0172500D01*
X0200467D02*
X0200800Y0172833D01*
X0203417Y0160600D02*
X0203750Y0160267D01*
X0204083Y0160600D01*
X0203750Y0160933D02*
X0204083Y0160600D01*
X0203417D02*
X0203750Y0160933D01*
X0212967Y0166200D02*
X0213300Y0165867D01*
X0213633Y0166200D01*
X0213300Y0166533D02*
X0213633Y0166200D01*
X0212967D02*
X0213300Y0166533D01*
X0211167Y0164800D02*
X0211500Y0164467D01*
X0211833Y0164800D01*
X0211500Y0165133D02*
X0211833Y0164800D01*
X0211167D02*
X0211500Y0165133D01*
X0213167Y0162000D02*
X0213500Y0161667D01*
X0213833Y0162000D01*
X0213500Y0162333D02*
X0213833Y0162000D01*
X0213167D02*
X0213500Y0162333D01*
X0210767Y0168700D02*
X0211100Y0168367D01*
X0211433Y0168700D01*
X0211100Y0169033D02*
X0211433Y0168700D01*
X0210767D02*
X0211100Y0169033D01*
X0219167Y0170700D02*
X0219500Y0170367D01*
X0219833Y0170700D01*
X0219500Y0171033D02*
X0219833Y0170700D01*
X0219167D02*
X0219500Y0171033D01*
X0218467Y0172900D02*
X0218800Y0172567D01*
X0219133Y0172900D01*
X0218800Y0173233D02*
X0219133Y0172900D01*
X0218467D02*
X0218800Y0173233D01*
X0225767Y0164000D02*
X0226100Y0163667D01*
X0226433Y0164000D01*
X0226100Y0164333D02*
X0226433Y0164000D01*
X0225767D02*
X0226100Y0164333D01*
X0223567Y0157200D02*
X0223900Y0156867D01*
X0224233Y0157200D01*
X0223900Y0157533D02*
X0224233Y0157200D01*
X0223567D02*
X0223900Y0157533D01*
X0239667Y0170000D02*
X0240000Y0169667D01*
X0240333Y0170000D01*
X0240000Y0170333D02*
X0240333Y0170000D01*
X0239667D02*
X0240000Y0170333D01*
X0232867Y0162300D02*
X0233200Y0161967D01*
X0233533Y0162300D01*
X0233200Y0162633D02*
X0233533Y0162300D01*
X0232867D02*
X0233200Y0162633D01*
X0238567Y0158200D02*
X0238900Y0157867D01*
X0239233Y0158200D01*
X0238900Y0158533D02*
X0239233Y0158200D01*
X0238567D02*
X0238900Y0158533D01*
X0229667Y0172900D02*
X0230000Y0172567D01*
X0230333Y0172900D01*
X0230000Y0173233D02*
X0230333Y0172900D01*
X0229667D02*
X0230000Y0173233D01*
X0228767Y0161400D02*
X0229100Y0161067D01*
X0229433Y0161400D01*
X0229100Y0161733D02*
X0229433Y0161400D01*
X0228767D02*
X0229100Y0161733D01*
X0238367Y0163800D02*
X0238700Y0163467D01*
X0239033Y0163800D01*
X0238700Y0164133D02*
X0239033Y0163800D01*
X0238367D02*
X0238700Y0164133D01*
X0238367Y0161100D02*
X0238700Y0160767D01*
X0239033Y0161100D01*
X0238700Y0161433D02*
X0239033Y0161100D01*
X0238367D02*
X0238700Y0161433D01*
X0244867Y0158500D02*
X0245200Y0158167D01*
X0245533Y0158500D01*
X0245200Y0158833D02*
X0245533Y0158500D01*
X0244867D02*
X0245200Y0158833D01*
X0245467Y0170500D02*
X0245800Y0170167D01*
X0246133Y0170500D01*
X0245800Y0170833D02*
X0246133Y0170500D01*
X0245467D02*
X0245800Y0170833D01*
X0244067Y0173100D02*
X0244400Y0172767D01*
X0244733Y0173100D01*
X0244400Y0173433D02*
X0244733Y0173100D01*
X0244067D02*
X0244400Y0173433D01*
X0243367Y0162500D02*
X0243700Y0162167D01*
X0244033Y0162500D01*
X0243700Y0162833D02*
X0244033Y0162500D01*
X0243367D02*
X0243700Y0162833D01*
X0251267Y0160700D02*
X0251600Y0160367D01*
X0251933Y0160700D01*
X0251600Y0161033D02*
X0251933Y0160700D01*
X0251267D02*
X0251600Y0161033D01*
X0217867Y0157100D02*
X0218200Y0156767D01*
X0218533Y0157100D01*
X0218200Y0157433D02*
X0218533Y0157100D01*
X0217867D02*
X0218200Y0157433D01*
X0212667Y0157100D02*
X0213000Y0156767D01*
X0213333Y0157100D01*
X0213000Y0157433D02*
X0213333Y0157100D01*
X0212667D02*
X0213000Y0157433D01*
X0215767Y0159000D02*
X0216100Y0158667D01*
X0216433Y0159000D01*
X0216100Y0159333D02*
X0216433Y0159000D01*
X0215767D02*
X0216100Y0159333D01*
X0191467Y0158700D02*
X0191800Y0158367D01*
X0192133Y0158700D01*
X0191800Y0159033D02*
X0192133Y0158700D01*
X0191467D02*
X0191800Y0159033D01*
X0189867Y0159900D02*
X0190200Y0159567D01*
X0190533Y0159900D01*
X0190200Y0160233D02*
X0190533Y0159900D01*
X0189867D02*
X0190200Y0160233D01*
X0187767Y0157100D02*
X0188100Y0156767D01*
X0188433Y0157100D01*
X0188100Y0157433D02*
X0188433Y0157100D01*
X0187767D02*
X0188100Y0157433D01*
X0181067Y0160200D02*
X0181400Y0159867D01*
X0181733Y0160200D01*
X0181400Y0160533D02*
X0181733Y0160200D01*
X0181067D02*
X0181400Y0160533D01*
X0190767Y0171300D02*
X0191100Y0170967D01*
X0191433Y0171300D01*
X0191100Y0171633D02*
X0191433Y0171300D01*
X0190767D02*
X0191100Y0171633D01*
X0181167Y0169800D02*
X0181500Y0169467D01*
X0181833Y0169800D01*
X0181500Y0170133D02*
X0181833Y0169800D01*
X0181167D02*
X0181500Y0170133D01*
X0190467Y0173700D02*
X0190800Y0173367D01*
X0191133Y0173700D01*
X0190800Y0174033D02*
X0191133Y0173700D01*
X0190467D02*
X0190800Y0174033D01*
X0196967Y0173700D02*
X0197300Y0173367D01*
X0197633Y0173700D01*
X0197300Y0174033D02*
X0197633Y0173700D01*
X0196967D02*
X0197300Y0174033D01*
X0190967Y0167900D02*
X0191300Y0167567D01*
X0191633Y0167900D01*
X0191300Y0168233D02*
X0191633Y0167900D01*
X0190967D02*
X0191300Y0168233D01*
X0187767Y0159100D02*
X0188100Y0158767D01*
X0188433Y0159100D01*
X0188100Y0159433D02*
X0188433Y0159100D01*
X0187767D02*
X0188100Y0159433D01*
X0191467Y0156500D02*
X0191800Y0156167D01*
X0192133Y0156500D01*
X0191800Y0156833D02*
X0192133Y0156500D01*
X0191467D02*
X0191800Y0156833D01*
X0192567Y0171300D02*
X0192900Y0170967D01*
X0193233Y0171300D01*
X0192900Y0171633D02*
X0193233Y0171300D01*
X0192567D02*
X0192900Y0171633D01*
X0191667Y0171300D02*
X0192000Y0170967D01*
X0192333Y0171300D01*
X0192000Y0171633D02*
X0192333Y0171300D01*
X0191667D02*
X0192000Y0171633D01*
X0224867Y0159000D02*
X0225200Y0158667D01*
X0225533Y0159000D01*
X0225200Y0159333D02*
X0225533Y0159000D01*
X0224867D02*
X0225200Y0159333D01*
X0221867Y0162100D02*
X0222200Y0161767D01*
X0222533Y0162100D01*
X0222200Y0162433D02*
X0222533Y0162100D01*
X0221867D02*
X0222200Y0162433D01*
X0207967Y0163900D02*
X0208300Y0163567D01*
X0208633Y0163900D01*
X0208300Y0164233D02*
X0208633Y0163900D01*
X0207967D02*
X0208300Y0164233D01*
X0208067Y0164750D02*
X0208400Y0164417D01*
X0208733Y0164750D01*
X0208400Y0165083D02*
X0208733Y0164750D01*
X0208067D02*
X0208400Y0165083D01*
X0211667Y0159500D02*
X0212000Y0159167D01*
X0212333Y0159500D01*
X0212000Y0159833D02*
X0212333Y0159500D01*
X0211667D02*
X0212000Y0159833D01*
X0211667Y0160300D02*
X0212000Y0159967D01*
X0212333Y0160300D01*
X0212000Y0160633D02*
X0212333Y0160300D01*
X0211667D02*
X0212000Y0160633D01*
X0208467Y0157500D02*
X0208800Y0157167D01*
X0209133Y0157500D01*
X0208800Y0157833D02*
X0209133Y0157500D01*
X0208467D02*
X0208800Y0157833D01*
X0210167Y0157500D02*
X0210500Y0157167D01*
X0210833Y0157500D01*
X0210500Y0157833D02*
X0210833Y0157500D01*
X0210167D02*
X0210500Y0157833D01*
X0211067Y0173700D02*
X0211400Y0173367D01*
X0211733Y0173700D01*
X0211400Y0174033D02*
X0211733Y0173700D01*
X0211067D02*
X0211400Y0174033D01*
X0207067Y0172500D02*
X0207400Y0172167D01*
X0207733Y0172500D01*
X0207400Y0172833D02*
X0207733Y0172500D01*
X0207067D02*
X0207400Y0172833D01*
X0207067Y0173500D02*
X0207400Y0173167D01*
X0207733Y0173500D01*
X0207400Y0173833D02*
X0207733Y0173500D01*
X0207067D02*
X0207400Y0173833D01*
X0212667Y0168700D02*
X0213000Y0168367D01*
X0213333Y0168700D01*
X0213000Y0169033D02*
X0213333Y0168700D01*
X0212667D02*
X0213000Y0169033D01*
X0213667Y0169300D02*
X0214000Y0168967D01*
X0214333Y0169300D01*
X0214000Y0169633D02*
X0214333Y0169300D01*
X0213667D02*
X0214000Y0169633D01*
X0202417Y0172160D02*
X0202750Y0171827D01*
X0203083Y0172160D01*
X0202750Y0172493D02*
X0203083Y0172160D01*
X0202417D02*
X0202750Y0172493D01*
X0205367Y0172500D02*
X0205700Y0172167D01*
X0206033Y0172500D01*
X0205700Y0172833D02*
X0206033Y0172500D01*
X0205367D02*
X0205700Y0172833D01*
X0204367Y0173700D02*
X0204700Y0173367D01*
X0205033Y0173700D01*
X0204700Y0174033D02*
X0205033Y0173700D01*
X0204367D02*
X0204700Y0174033D01*
X0216202Y0169165D02*
X0216535Y0168832D01*
X0216868Y0169165D01*
X0216535Y0169498D02*
X0216868Y0169165D01*
X0216202D02*
X0216535Y0169498D01*
X0209567Y0169400D02*
X0209900Y0169067D01*
X0210233Y0169400D01*
X0209900Y0169733D02*
X0210233Y0169400D01*
X0209567D02*
X0209900Y0169733D01*
X0215067Y0171300D02*
X0215400Y0170967D01*
X0215733Y0171300D01*
X0215400Y0171633D02*
X0215733Y0171300D01*
X0215067D02*
X0215400Y0171633D01*
X0199367Y0167400D02*
X0199700Y0167067D01*
X0200033Y0167400D01*
X0199700Y0167733D02*
X0200033Y0167400D01*
X0199367D02*
X0199700Y0167733D01*
X0199967Y0168100D02*
X0200300Y0167767D01*
X0200633Y0168100D01*
X0200300Y0168433D02*
X0200633Y0168100D01*
X0199967D02*
X0200300Y0168433D01*
X0211667Y0168300D02*
X0212000Y0167967D01*
X0212333Y0168300D01*
X0212000Y0168633D02*
X0212333Y0168300D01*
X0211667D02*
X0212000Y0168633D01*
X0211667Y0167300D02*
X0212000Y0166967D01*
X0212333Y0167300D01*
X0212000Y0167633D02*
X0212333Y0167300D01*
X0211667D02*
X0212000Y0167633D01*
X0208467Y0173000D02*
X0208800Y0172667D01*
X0209133Y0173000D01*
X0208800Y0173333D02*
X0209133Y0173000D01*
X0208467D02*
X0208800Y0173333D01*
X0218667Y0168700D02*
X0219000Y0168367D01*
X0219333Y0168700D01*
X0219000Y0169033D02*
X0219333Y0168700D01*
X0218667D02*
X0219000Y0169033D01*
X0212167Y0173600D02*
X0212500Y0173267D01*
X0212833Y0173600D01*
X0212500Y0173933D02*
X0212833Y0173600D01*
X0212167D02*
X0212500Y0173933D01*
X0226167Y0166100D02*
X0226500Y0165767D01*
X0226833Y0166100D01*
X0226500Y0166433D02*
X0226833Y0166100D01*
X0226167D02*
X0226500Y0166433D01*
X0241567Y0170900D02*
X0241900Y0170567D01*
X0242233Y0170900D01*
X0241900Y0171233D02*
X0242233Y0170900D01*
X0241567D02*
X0241900Y0171233D01*
X0218567Y0165300D02*
X0218900Y0164967D01*
X0219233Y0165300D01*
X0218900Y0165633D02*
X0219233Y0165300D01*
X0218567D02*
X0218900Y0165633D01*
X0212167Y0164900D02*
X0212500Y0164567D01*
X0212833Y0164900D01*
X0212500Y0165233D02*
X0212833Y0164900D01*
X0212167D02*
X0212500Y0165233D01*
X0252000Y0157667D02*
X0252333Y0158333D01*
X0251667D02*
X0252333D01*
X0251667D02*
X0252000Y0157667D01*
Y0171667D02*
X0252333Y0172333D01*
X0251667D02*
X0252333D01*
X0251667D02*
X0252000Y0171667D01*
X0183000D02*
X0183333Y0172333D01*
X0182667D02*
X0183333D01*
X0182667D02*
X0183000Y0171667D01*
Y0157667D02*
X0183333Y0158333D01*
X0182667D02*
X0183333D01*
X0182667D02*
X0183000Y0157667D01*
X0181092Y0167967D02*
X0181758D01*
Y0168633D01*
X0181092D02*
X0181758D01*
X0181092Y0167967D02*
Y0168633D01*
Y0161367D02*
X0181758D01*
Y0162033D01*
X0181092D02*
X0181758D01*
X0181092Y0161367D02*
Y0162033D01*
X0252867Y0161633D02*
X0253033D01*
X0252867D02*
Y0161967D01*
X0253033D01*
Y0162133D01*
X0253367D01*
Y0161967D02*
Y0162133D01*
Y0161967D02*
X0253533D01*
Y0161633D02*
Y0161967D01*
X0253367Y0161633D02*
X0253533D01*
X0253367Y0161467D02*
Y0161633D01*
X0253033Y0161467D02*
X0253367D01*
X0253033D02*
Y0161633D01*
X0249467D02*
X0249633D01*
X0249467D02*
Y0161967D01*
X0249633D01*
Y0162133D01*
X0249967D01*
Y0161967D02*
Y0162133D01*
Y0161967D02*
X0250133D01*
Y0161633D02*
Y0161967D01*
X0249967Y0161633D02*
X0250133D01*
X0249967Y0161467D02*
Y0161633D01*
X0249633Y0161467D02*
X0249967D01*
X0249633D02*
Y0161633D01*
X0253067Y0168733D02*
X0253233D01*
X0253067D02*
Y0169067D01*
X0253233D01*
Y0169233D01*
X0253567D01*
Y0169067D02*
Y0169233D01*
Y0169067D02*
X0253733D01*
Y0168733D02*
Y0169067D01*
X0253567Y0168733D02*
X0253733D01*
X0253567Y0168567D02*
Y0168733D01*
X0253233Y0168567D02*
X0253567D01*
X0253233D02*
Y0168733D01*
X0249567Y0168233D02*
X0249733D01*
X0249567D02*
Y0168567D01*
X0249733D01*
Y0168733D01*
X0250067D01*
Y0168567D02*
Y0168733D01*
Y0168567D02*
X0250233D01*
Y0168233D02*
Y0168567D01*
X0250067Y0168233D02*
X0250233D01*
X0250067Y0168067D02*
Y0168233D01*
X0249733Y0168067D02*
X0250067D01*
X0249733D02*
Y0168233D01*
X0243567Y0167733D02*
X0243733D01*
X0243567D02*
Y0168067D01*
X0243733D01*
Y0168233D01*
X0244067D01*
Y0168067D02*
Y0168233D01*
Y0168067D02*
X0244233D01*
Y0167733D02*
Y0168067D01*
X0244067Y0167733D02*
X0244233D01*
X0244067Y0167567D02*
Y0167733D01*
X0243733Y0167567D02*
X0244067D01*
X0243733D02*
Y0167733D01*
X0248367Y0164667D02*
X0248700Y0164833D01*
X0249033Y0164667D01*
X0248867Y0165000D02*
X0249033Y0164667D01*
X0248867Y0165000D02*
X0249033Y0165333D01*
X0248700Y0165167D02*
X0249033Y0165333D01*
X0248367D02*
X0248700Y0165167D01*
X0248367Y0165333D02*
X0248533Y0165000D01*
X0248367Y0164667D02*
X0248533Y0165000D01*
X0252867Y0164667D02*
X0253200Y0164833D01*
X0253533Y0164667D01*
X0253367Y0165000D02*
X0253533Y0164667D01*
X0253367Y0165000D02*
X0253533Y0165333D01*
X0253200Y0165167D02*
X0253533Y0165333D01*
X0252867D02*
X0253200Y0165167D01*
X0252867Y0165333D02*
X0253033Y0165000D01*
X0252867Y0164667D02*
X0253033Y0165000D01*
D84*
X0249144Y0129175D02*
Y0127375D01*
X0250344Y0129175D02*
Y0127375D01*
X0249144Y0128318D02*
X0250344D01*
X0251355Y0129175D02*
X0251183Y0129089D01*
X0251012Y0128918D01*
X0250926Y0128746D01*
X0250841Y0128489D01*
Y0128061D01*
X0250926Y0127803D01*
X0251012Y0127632D01*
X0251183Y0127461D01*
X0251355Y0127375D01*
X0251698D01*
X0251869Y0127461D01*
X0252040Y0127632D01*
X0252126Y0127803D01*
X0252212Y0128061D01*
Y0128489D01*
X0252126Y0128746D01*
X0252040Y0128918D01*
X0251869Y0129089D01*
X0251698Y0129175D01*
X0251355D01*
X0252632D02*
Y0127375D01*
X0253660D01*
X0254971Y0129175D02*
X0253857D01*
Y0127375D01*
X0254971D01*
X0253857Y0128318D02*
X0254543D01*
X0257285Y0129175D02*
Y0127375D01*
X0256685Y0129175D02*
X0257885D01*
X0258099D02*
X0258785Y0128318D01*
Y0127375D01*
X0259470Y0129175D02*
X0258785Y0128318D01*
X0259702Y0128232D02*
X0260473D01*
X0260730Y0128318D01*
X0260816Y0128403D01*
X0260901Y0128575D01*
Y0128832D01*
X0260816Y0129003D01*
X0260730Y0129089D01*
X0260473Y0129175D01*
X0259702D01*
Y0127375D01*
X0262418Y0129175D02*
X0261304D01*
Y0127375D01*
X0262418D01*
X0261304Y0128318D02*
X0261990D01*
X0237767Y0128232D02*
X0238538D01*
X0238796Y0128318D01*
X0238881Y0128403D01*
X0238967Y0128575D01*
Y0128832D01*
X0238881Y0129003D01*
X0238796Y0129089D01*
X0238538Y0129175D01*
X0237767D01*
Y0127375D01*
X0239370Y0129175D02*
Y0127375D01*
X0240398D01*
X0241966D02*
X0241281Y0129175D01*
X0240595Y0127375D01*
X0240852Y0127975D02*
X0241709D01*
X0242986Y0129175D02*
Y0127375D01*
X0242386Y0129175D02*
X0243586D01*
X0244914D02*
X0243800D01*
Y0127375D01*
X0244914D01*
X0243800Y0128318D02*
X0244486D01*
X0245214Y0129175D02*
Y0127375D01*
Y0129175D02*
X0245814D01*
X0246071Y0129089D01*
X0246243Y0128918D01*
X0246328Y0128746D01*
X0246414Y0128489D01*
Y0128061D01*
X0246328Y0127803D01*
X0246243Y0127632D01*
X0246071Y0127461D01*
X0245814Y0127375D01*
X0245214D01*
X0211299Y0129175D02*
Y0127375D01*
Y0129175D02*
X0212413D01*
X0211299Y0128318D02*
X0211985D01*
X0212619Y0129175D02*
Y0127375D01*
X0212996Y0129175D02*
Y0127375D01*
Y0129175D02*
X0214196Y0127375D01*
Y0129175D02*
Y0127375D01*
X0214693Y0129175D02*
Y0127375D01*
X0216270Y0128918D02*
X0216098Y0129089D01*
X0215841Y0129175D01*
X0215499D01*
X0215241Y0129089D01*
X0215070Y0128918D01*
Y0128746D01*
X0215156Y0128575D01*
X0215241Y0128489D01*
X0215413Y0128403D01*
X0215927Y0128232D01*
X0216098Y0128146D01*
X0216184Y0128061D01*
X0216270Y0127889D01*
Y0127632D01*
X0216098Y0127461D01*
X0215841Y0127375D01*
X0215499D01*
X0215241Y0127461D01*
X0215070Y0127632D01*
X0216673Y0129175D02*
Y0127375D01*
X0217872Y0129175D02*
Y0127375D01*
X0216673Y0128318D02*
X0217872D01*
X0219483Y0129175D02*
X0218369D01*
Y0127375D01*
X0219483D01*
X0218369Y0128318D02*
X0219055D01*
X0219783Y0129175D02*
Y0127375D01*
Y0129175D02*
X0220383D01*
X0220640Y0129089D01*
X0220812Y0128918D01*
X0220897Y0128746D01*
X0220983Y0128489D01*
Y0128061D01*
X0220897Y0127803D01*
X0220812Y0127632D01*
X0220640Y0127461D01*
X0220383Y0127375D01*
X0219783D01*
X0222800Y0129175D02*
Y0127375D01*
X0224000Y0129175D02*
Y0127375D01*
X0222800Y0128318D02*
X0224000D01*
X0225011Y0129175D02*
X0224839Y0129089D01*
X0224668Y0128918D01*
X0224582Y0128746D01*
X0224497Y0128489D01*
Y0128061D01*
X0224582Y0127803D01*
X0224668Y0127632D01*
X0224839Y0127461D01*
X0225011Y0127375D01*
X0225354D01*
X0225525Y0127461D01*
X0225696Y0127632D01*
X0225782Y0127803D01*
X0225868Y0128061D01*
Y0128489D01*
X0225782Y0128746D01*
X0225696Y0128918D01*
X0225525Y0129089D01*
X0225354Y0129175D01*
X0225011D01*
X0226288D02*
Y0127375D01*
X0227316D01*
X0228627Y0129175D02*
X0227513D01*
Y0127375D01*
X0228627D01*
X0227513Y0128318D02*
X0228199D01*
X0231541Y0128918D02*
X0231369Y0129089D01*
X0231112Y0129175D01*
X0230770D01*
X0230512Y0129089D01*
X0230341Y0128918D01*
Y0128746D01*
X0230427Y0128575D01*
X0230512Y0128489D01*
X0230684Y0128403D01*
X0231198Y0128232D01*
X0231369Y0128146D01*
X0231455Y0128061D01*
X0231541Y0127889D01*
Y0127632D01*
X0231369Y0127461D01*
X0231112Y0127375D01*
X0230770D01*
X0230512Y0127461D01*
X0230341Y0127632D01*
X0231944Y0129175D02*
Y0127375D01*
X0233520Y0129175D02*
X0232321Y0127375D01*
Y0129175D02*
X0233520D01*
X0232321Y0127375D02*
X0233520D01*
X0235037Y0129175D02*
X0233923D01*
Y0127375D01*
X0235037D01*
X0233923Y0128318D02*
X0234609D01*
X0195492Y0129175D02*
Y0127375D01*
X0196692Y0129175D02*
Y0127375D01*
X0195492Y0128318D02*
X0196692D01*
X0197189Y0129175D02*
Y0127375D01*
X0198166Y0129175D02*
Y0127375D01*
X0197566Y0129175D02*
X0198766D01*
X0201679Y0128746D02*
X0201594Y0128918D01*
X0201422Y0129089D01*
X0201251Y0129175D01*
X0200908D01*
X0200737Y0129089D01*
X0200565Y0128918D01*
X0200480Y0128746D01*
X0200394Y0128489D01*
Y0128061D01*
X0200480Y0127803D01*
X0200565Y0127632D01*
X0200737Y0127461D01*
X0200908Y0127375D01*
X0201251D01*
X0201422Y0127461D01*
X0201594Y0127632D01*
X0201679Y0127803D01*
X0202699Y0129175D02*
X0202528Y0129089D01*
X0202356Y0128918D01*
X0202271Y0128746D01*
X0202185Y0128489D01*
Y0128061D01*
X0202271Y0127803D01*
X0202356Y0127632D01*
X0202528Y0127461D01*
X0202699Y0127375D01*
X0203042D01*
X0203213Y0127461D01*
X0203385Y0127632D01*
X0203471Y0127803D01*
X0203556Y0128061D01*
Y0128489D01*
X0203471Y0128746D01*
X0203385Y0128918D01*
X0203213Y0129089D01*
X0203042Y0129175D01*
X0202699D01*
X0203976D02*
Y0127889D01*
X0204062Y0127632D01*
X0204233Y0127461D01*
X0204490Y0127375D01*
X0204662D01*
X0204919Y0127461D01*
X0205090Y0127632D01*
X0205176Y0127889D01*
Y0129175D01*
X0205673D02*
Y0127375D01*
Y0129175D02*
X0206873Y0127375D01*
Y0129175D02*
Y0127375D01*
X0207970Y0129175D02*
Y0127375D01*
X0207370Y0129175D02*
X0208569D01*
X0184450Y0128918D02*
X0184278Y0129089D01*
X0184021Y0129175D01*
X0183678D01*
X0183421Y0129089D01*
X0183250Y0128918D01*
Y0128746D01*
X0183336Y0128575D01*
X0183421Y0128489D01*
X0183593Y0128403D01*
X0184107Y0128232D01*
X0184278Y0128146D01*
X0184364Y0128061D01*
X0184450Y0127889D01*
Y0127632D01*
X0184278Y0127461D01*
X0184021Y0127375D01*
X0183678D01*
X0183421Y0127461D01*
X0183250Y0127632D01*
X0184853Y0129175D02*
X0185538Y0128318D01*
Y0127375D01*
X0186224Y0129175D02*
X0185538Y0128318D01*
X0186455Y0129175D02*
Y0127375D01*
Y0129175D02*
X0187141Y0127375D01*
X0187826Y0129175D02*
X0187141Y0127375D01*
X0187826Y0129175D02*
Y0127375D01*
X0188340Y0129175D02*
Y0127375D01*
Y0129175D02*
X0189112D01*
X0189369Y0129089D01*
X0189454Y0129003D01*
X0189540Y0128832D01*
Y0128660D01*
X0189454Y0128489D01*
X0189369Y0128403D01*
X0189112Y0128318D01*
X0188340D02*
X0189112D01*
X0189369Y0128232D01*
X0189454Y0128146D01*
X0189540Y0127975D01*
Y0127718D01*
X0189454Y0127546D01*
X0189369Y0127461D01*
X0189112Y0127375D01*
X0188340D01*
X0190457Y0129175D02*
X0190286Y0129089D01*
X0190114Y0128918D01*
X0190029Y0128746D01*
X0189943Y0128489D01*
Y0128061D01*
X0190029Y0127803D01*
X0190114Y0127632D01*
X0190286Y0127461D01*
X0190457Y0127375D01*
X0190800D01*
X0190971Y0127461D01*
X0191143Y0127632D01*
X0191228Y0127803D01*
X0191314Y0128061D01*
Y0128489D01*
X0191228Y0128746D01*
X0191143Y0128918D01*
X0190971Y0129089D01*
X0190800Y0129175D01*
X0190457D01*
X0191734D02*
Y0127375D01*
X0192762D01*
M02*
