%FSAX43Y43*%
%MOMM*%
G71*
G01*
G75*
G04 Layer_Physical_Order=4*
G04 Layer_Color=16711680*
%ADD10R,0.590X0.600*%
%ADD11R,0.630X0.610*%
%ADD12R,0.600X0.590*%
%ADD13R,0.610X0.630*%
%ADD14R,0.590X1.910*%
%ADD15R,0.550X0.300*%
%ADD16R,1.210X0.590*%
%ADD17R,1.280X0.590*%
%ADD18R,1.090X0.400*%
%ADD19R,0.400X1.090*%
%ADD20R,1.520X0.330*%
%ADD21R,0.930X0.790*%
%ADD22R,1.600X0.280*%
%ADD23C,0.750*%
%ADD24R,5.500X5.500*%
%ADD25R,0.280X1.600*%
%ADD26R,3.700X3.700*%
%ADD27O,0.800X0.220*%
%ADD28O,0.220X0.800*%
%ADD29R,1.270X1.020*%
%ADD30R,0.910X0.930*%
%ADD31R,1.140X1.470*%
%ADD32R,1.000X0.970*%
%ADD33C,1.000*%
%ADD34R,0.400X0.350*%
%ADD35R,1.350X0.400*%
%ADD36R,1.600X1.900*%
%ADD37R,1.400X1.600*%
%ADD38R,1.800X1.230*%
%ADD39R,1.160X1.470*%
%ADD40R,0.930X0.920*%
%ADD41R,0.920X0.930*%
%ADD42R,1.470X1.160*%
%ADD43R,0.350X0.400*%
%ADD44C,0.250*%
%ADD45C,0.150*%
%ADD46C,0.300*%
%ADD47C,0.500*%
%ADD48C,0.280*%
%ADD49C,0.400*%
%ADD50C,0.220*%
%ADD51C,0.160*%
%ADD52C,0.200*%
%ADD53C,0.600*%
%ADD54C,0.800*%
%ADD55C,0.590*%
%ADD56C,0.260*%
%ADD57R,1.200X1.600*%
%ADD58R,1.600X1.100*%
%ADD59R,1.200X1.600*%
%ADD60R,1.100X1.600*%
%ADD61C,1.400*%
%ADD62C,2.200*%
G04:AMPARAMS|DCode=63|XSize=0.9mm|YSize=1.6mm|CornerRadius=0.45mm|HoleSize=0mm|Usage=FLASHONLY|Rotation=270.000|XOffset=0mm|YOffset=0mm|HoleType=Round|Shape=RoundedRectangle|*
%AMROUNDEDRECTD63*
21,1,0.900,0.700,0,0,270.0*
21,1,0.000,1.600,0,0,270.0*
1,1,0.900,-0.350,0.000*
1,1,0.900,-0.350,0.000*
1,1,0.900,0.350,0.000*
1,1,0.900,0.350,0.000*
%
%ADD63ROUNDEDRECTD63*%
%ADD64C,0.600*%
%ADD65C,1.000*%
%ADD66C,1.800*%
G04:AMPARAMS|DCode=67|XSize=1.8mm|YSize=1.8mm|CornerRadius=0mm|HoleSize=0mm|Usage=FLASHONLY|Rotation=0.000|XOffset=0mm|YOffset=0mm|HoleType=Round|Shape=Relief|Width=0.2mm|Gap=0.25mm|Entries=4|*
%AMTHD67*
7,0,0,1.800,1.300,0.200,45*
%
%ADD67THD67*%
%ADD68C,1.900*%
G04:AMPARAMS|DCode=69|XSize=2.3mm|YSize=2.3mm|CornerRadius=0mm|HoleSize=0mm|Usage=FLASHONLY|Rotation=0.000|XOffset=0mm|YOffset=0mm|HoleType=Round|Shape=Relief|Width=0.2mm|Gap=0.25mm|Entries=4|*
%AMTHD69*
7,0,0,2.300,1.800,0.200,45*
%
%ADD69THD69*%
%ADD70O,1.800X1.100*%
%ADD71C,3.650*%
%ADD72C,0.850*%
%ADD73C,1.200*%
G36*
X0252383Y0174417D02*
X0252756Y0174328D01*
X0253111Y0174181D01*
X0253439Y0173980D01*
X0253731Y0173731D01*
X0253980Y0173439D01*
X0254181Y0173111D01*
X0254328Y0172756D01*
X0254417Y0172383D01*
X0254447Y0172011D01*
X0254445Y0172000D01*
Y0169890D01*
X0254295Y0169847D01*
X0254126Y0169986D01*
X0253900Y0170107D01*
X0253655Y0170181D01*
X0253400Y0170206D01*
X0253145Y0170181D01*
X0252900Y0170107D01*
X0252674Y0169986D01*
X0252476Y0169824D01*
X0252314Y0169626D01*
X0252193Y0169400D01*
X0252119Y0169155D01*
X0252094Y0168900D01*
X0252119Y0168645D01*
X0252193Y0168400D01*
X0252314Y0168174D01*
X0252476Y0167976D01*
X0252674Y0167814D01*
X0252900Y0167693D01*
X0253145Y0167619D01*
X0253400Y0167594D01*
X0253655Y0167619D01*
X0253900Y0167693D01*
X0254126Y0167814D01*
X0254295Y0167953D01*
X0254445Y0167910D01*
Y0162546D01*
X0254295Y0162509D01*
X0254286Y0162526D01*
X0254124Y0162724D01*
X0253926Y0162886D01*
X0253700Y0163007D01*
X0253455Y0163081D01*
X0253200Y0163106D01*
X0252945Y0163081D01*
X0252700Y0163007D01*
X0252474Y0162886D01*
X0252276Y0162724D01*
X0252114Y0162526D01*
X0251993Y0162300D01*
X0251919Y0162055D01*
X0251894Y0161800D01*
X0251919Y0161545D01*
X0251993Y0161300D01*
X0252114Y0161074D01*
X0252276Y0160876D01*
X0252474Y0160714D01*
X0252700Y0160593D01*
X0252945Y0160519D01*
X0253200Y0160494D01*
X0253455Y0160519D01*
X0253700Y0160593D01*
X0253926Y0160714D01*
X0254124Y0160876D01*
X0254286Y0161074D01*
X0254295Y0161091D01*
X0254445Y0161054D01*
Y0158000D01*
X0254447Y0157989D01*
X0254417Y0157617D01*
X0254328Y0157244D01*
X0254181Y0156889D01*
X0253980Y0156561D01*
X0253731Y0156269D01*
X0253439Y0156020D01*
X0253111Y0155819D01*
X0252756Y0155672D01*
X0252383Y0155583D01*
X0252011Y0155553D01*
X0252000Y0155555D01*
X0183000D01*
X0182989Y0155553D01*
X0182617Y0155583D01*
X0182244Y0155672D01*
X0181889Y0155819D01*
X0181561Y0156020D01*
X0181269Y0156269D01*
X0181020Y0156561D01*
X0180819Y0156889D01*
X0180672Y0157244D01*
X0180583Y0157617D01*
X0180553Y0157989D01*
X0180555Y0158000D01*
Y0161091D01*
X0180705Y0161165D01*
X0180747Y0161132D01*
X0180905Y0161067D01*
X0181075Y0161044D01*
X0181775D01*
X0181945Y0161067D01*
X0182103Y0161132D01*
X0182239Y0161236D01*
X0182343Y0161372D01*
X0182408Y0161530D01*
X0182431Y0161700D01*
X0182408Y0161870D01*
X0182343Y0162028D01*
X0182239Y0162164D01*
X0182103Y0162268D01*
X0181945Y0162333D01*
X0181775Y0162356D01*
X0181075D01*
X0180905Y0162333D01*
X0180747Y0162268D01*
X0180705Y0162235D01*
X0180555Y0162309D01*
Y0167691D01*
X0180705Y0167765D01*
X0180747Y0167732D01*
X0180905Y0167667D01*
X0181075Y0167644D01*
X0181775D01*
X0181945Y0167667D01*
X0182103Y0167732D01*
X0182239Y0167836D01*
X0182343Y0167972D01*
X0182408Y0168130D01*
X0182431Y0168300D01*
X0182408Y0168470D01*
X0182343Y0168628D01*
X0182239Y0168764D01*
X0182103Y0168868D01*
X0181945Y0168933D01*
X0181775Y0168956D01*
X0181075D01*
X0180905Y0168933D01*
X0180747Y0168868D01*
X0180705Y0168835D01*
X0180555Y0168909D01*
Y0172000D01*
X0180553Y0172011D01*
X0180583Y0172383D01*
X0180672Y0172756D01*
X0180819Y0173111D01*
X0181020Y0173439D01*
X0181269Y0173731D01*
X0181561Y0173980D01*
X0181889Y0174181D01*
X0182244Y0174328D01*
X0182617Y0174417D01*
X0182989Y0174447D01*
X0183000Y0174445D01*
X0252000D01*
X0252011Y0174447D01*
X0252383Y0174417D01*
D02*
G37*
%LPC*%
G36*
X0248700Y0165908D02*
X0248465Y0165877D01*
X0248246Y0165786D01*
X0248058Y0165642D01*
X0247914Y0165454D01*
X0247823Y0165235D01*
X0247792Y0165000D01*
X0247823Y0164765D01*
X0247914Y0164546D01*
X0248058Y0164358D01*
X0248246Y0164214D01*
X0248465Y0164123D01*
X0248700Y0164092D01*
X0248935Y0164123D01*
X0249154Y0164214D01*
X0249342Y0164358D01*
X0249486Y0164546D01*
X0249577Y0164765D01*
X0249608Y0165000D01*
X0249577Y0165235D01*
X0249486Y0165454D01*
X0249342Y0165642D01*
X0249154Y0165786D01*
X0248935Y0165877D01*
X0248700Y0165908D01*
D02*
G37*
G36*
X0253200D02*
X0252965Y0165877D01*
X0252746Y0165786D01*
X0252558Y0165642D01*
X0252414Y0165454D01*
X0252323Y0165235D01*
X0252292Y0165000D01*
X0252323Y0164765D01*
X0252414Y0164546D01*
X0252558Y0164358D01*
X0252746Y0164214D01*
X0252965Y0164123D01*
X0253200Y0164092D01*
X0253435Y0164123D01*
X0253654Y0164214D01*
X0253842Y0164358D01*
X0253986Y0164546D01*
X0254077Y0164765D01*
X0254108Y0165000D01*
X0254077Y0165235D01*
X0253986Y0165454D01*
X0253842Y0165642D01*
X0253654Y0165786D01*
X0253435Y0165877D01*
X0253200Y0165908D01*
D02*
G37*
G36*
X0193000Y0163959D02*
X0192824Y0163924D01*
X0192676Y0163824D01*
X0192576Y0163676D01*
X0192541Y0163500D01*
X0192576Y0163324D01*
X0192676Y0163176D01*
X0192824Y0163076D01*
X0193000Y0163041D01*
X0193176Y0163076D01*
X0193324Y0163176D01*
X0193424Y0163324D01*
X0193459Y0163500D01*
X0193424Y0163676D01*
X0193324Y0163824D01*
X0193176Y0163924D01*
X0193000Y0163959D01*
D02*
G37*
G36*
X0240800Y0165908D02*
X0240565Y0165877D01*
X0240346Y0165786D01*
X0240158Y0165642D01*
X0240014Y0165454D01*
X0239923Y0165235D01*
X0239892Y0165000D01*
X0239923Y0164765D01*
X0240014Y0164546D01*
X0240158Y0164358D01*
X0240346Y0164214D01*
X0240565Y0164123D01*
X0240800Y0164092D01*
X0241035Y0164123D01*
X0241254Y0164214D01*
X0241442Y0164358D01*
X0241586Y0164546D01*
X0241677Y0164765D01*
X0241708Y0165000D01*
X0241677Y0165235D01*
X0241586Y0165454D01*
X0241442Y0165642D01*
X0241254Y0165786D01*
X0241035Y0165877D01*
X0240800Y0165908D01*
D02*
G37*
G36*
X0225600Y0170704D02*
X0224600D01*
X0224522Y0170688D01*
X0224456Y0170644D01*
X0224412Y0170578D01*
X0224396Y0170500D01*
Y0170100D01*
Y0169511D01*
X0224400Y0169492D01*
Y0169472D01*
X0224408Y0169453D01*
X0224412Y0169433D01*
X0224423Y0169417D01*
X0224430Y0169398D01*
X0224432Y0169396D01*
X0224451Y0169300D01*
X0224432Y0169204D01*
X0224430Y0169202D01*
X0224423Y0169183D01*
X0224412Y0169167D01*
X0224408Y0169147D01*
X0224400Y0169128D01*
Y0169108D01*
X0224396Y0169089D01*
Y0169000D01*
X0224412Y0168922D01*
X0224456Y0168856D01*
X0224456Y0168856D01*
X0224856Y0168456D01*
X0226156Y0167156D01*
X0226222Y0167112D01*
X0226300Y0167096D01*
X0227116D01*
X0227456Y0166756D01*
X0227522Y0166712D01*
X0227600Y0166696D01*
X0231416D01*
X0232456Y0165656D01*
X0232456Y0165656D01*
X0233456Y0164656D01*
X0233522Y0164612D01*
X0233600Y0164596D01*
X0238600D01*
X0238678Y0164612D01*
X0238744Y0164656D01*
X0238788Y0164722D01*
X0238804Y0164800D01*
Y0165659D01*
X0238800Y0165679D01*
Y0165699D01*
X0238792Y0165718D01*
X0238788Y0165737D01*
X0238777Y0165754D01*
X0238770Y0165773D01*
X0238755Y0165787D01*
X0238744Y0165803D01*
X0238728Y0165814D01*
X0238668Y0165904D01*
X0238649Y0166000D01*
X0238668Y0166096D01*
X0238728Y0166186D01*
X0238744Y0166197D01*
X0238755Y0166213D01*
X0238770Y0166227D01*
X0238777Y0166246D01*
X0238788Y0166263D01*
X0238792Y0166282D01*
X0238800Y0166301D01*
Y0166321D01*
X0238804Y0166341D01*
Y0167159D01*
X0238800Y0167179D01*
Y0167199D01*
X0238792Y0167218D01*
X0238788Y0167237D01*
X0238777Y0167254D01*
X0238770Y0167273D01*
X0238755Y0167287D01*
X0238744Y0167303D01*
X0238727Y0167315D01*
X0238715Y0167327D01*
X0238703Y0167344D01*
X0238687Y0167355D01*
X0238673Y0167370D01*
X0238654Y0167377D01*
X0238637Y0167388D01*
X0238618Y0167392D01*
X0238599Y0167400D01*
X0238579D01*
X0238559Y0167404D01*
X0235084Y0167404D01*
X0233644Y0168844D01*
X0233644Y0168844D01*
X0233578Y0168888D01*
X0233500Y0168904D01*
X0230657Y0168904D01*
X0230577Y0169054D01*
X0230624Y0169124D01*
X0230659Y0169300D01*
X0230624Y0169476D01*
X0230524Y0169624D01*
X0230376Y0169724D01*
X0230200Y0169759D01*
X0230024Y0169724D01*
X0229876Y0169624D01*
X0229776Y0169476D01*
X0229741Y0169300D01*
X0229776Y0169124D01*
X0229823Y0169054D01*
X0229743Y0168904D01*
X0229184D01*
X0227844Y0170244D01*
X0227778Y0170288D01*
X0227700Y0170304D01*
X0226084Y0170304D01*
X0225744Y0170644D01*
X0225744Y0170644D01*
X0225678Y0170688D01*
X0225600Y0170704D01*
D02*
G37*
G36*
X0208280Y0168447D02*
X0208071Y0168419D01*
X0207877Y0168339D01*
X0207709Y0168211D01*
X0207581Y0168043D01*
X0207501Y0167849D01*
X0207473Y0167640D01*
X0207501Y0167431D01*
X0207515Y0167397D01*
X0207417Y0167242D01*
X0207324Y0167224D01*
X0207176Y0167124D01*
X0207076Y0166976D01*
X0207041Y0166800D01*
X0207076Y0166624D01*
X0207176Y0166476D01*
X0207324Y0166376D01*
X0207500Y0166341D01*
X0207676Y0166376D01*
X0207824Y0166476D01*
X0207924Y0166624D01*
X0207949Y0166749D01*
X0208041Y0166833D01*
X0208100Y0166857D01*
X0208174Y0166847D01*
X0208286Y0166753D01*
Y0166753D01*
X0208287Y0166731D01*
X0208287Y0166730D01*
X0208287Y0166730D01*
X0208290Y0166692D01*
Y0166692D01*
X0208262Y0166684D01*
X0208224Y0166674D01*
X0208164Y0166633D01*
X0208076Y0166574D01*
X0207976Y0166426D01*
X0207941Y0166250D01*
X0207976Y0166074D01*
X0208076Y0165926D01*
X0208224Y0165826D01*
X0208400Y0165791D01*
X0208576Y0165826D01*
X0208724Y0165926D01*
X0208824Y0166074D01*
X0208859Y0166250D01*
X0208824Y0166426D01*
X0208724Y0166574D01*
X0208576Y0166674D01*
X0208439Y0166701D01*
X0208434Y0166702D01*
X0208435Y0166735D01*
X0208435Y0166736D01*
X0208435Y0166745D01*
X0208436Y0166756D01*
X0208517Y0166872D01*
X0208683Y0166941D01*
X0208851Y0167069D01*
X0208979Y0167237D01*
X0209059Y0167431D01*
X0209087Y0167640D01*
X0209059Y0167849D01*
X0208979Y0168043D01*
X0208851Y0168211D01*
X0208683Y0168339D01*
X0208489Y0168419D01*
X0208280Y0168447D01*
D02*
G37*
G36*
X0240700Y0166900D02*
X0239905D01*
X0239923Y0166765D01*
X0240014Y0166546D01*
X0240158Y0166358D01*
X0240346Y0166214D01*
X0240565Y0166123D01*
X0240700Y0166105D01*
Y0166900D01*
D02*
G37*
G36*
X0217800Y0165759D02*
X0217624Y0165724D01*
X0217476Y0165624D01*
X0217376Y0165476D01*
X0217341Y0165300D01*
X0217376Y0165124D01*
X0217406Y0165079D01*
X0217326Y0164929D01*
X0212953D01*
X0212924Y0165076D01*
X0212824Y0165224D01*
X0212676Y0165324D01*
X0212500Y0165359D01*
X0212324Y0165324D01*
X0212176Y0165224D01*
X0212076Y0165076D01*
X0212041Y0164900D01*
X0212076Y0164724D01*
X0212176Y0164576D01*
X0212324Y0164476D01*
X0212500Y0164441D01*
X0212674Y0164476D01*
X0212700Y0164471D01*
X0221605D01*
X0221963Y0164112D01*
X0221941Y0164000D01*
X0221976Y0163824D01*
X0222076Y0163676D01*
X0222224Y0163576D01*
X0222400Y0163541D01*
X0222576Y0163576D01*
X0222724Y0163676D01*
X0222824Y0163824D01*
X0222859Y0164000D01*
X0222824Y0164176D01*
X0222724Y0164324D01*
X0222576Y0164424D01*
X0222400Y0164459D01*
X0222288Y0164437D01*
X0221862Y0164862D01*
X0221788Y0164912D01*
X0221700Y0164929D01*
X0218274D01*
X0218194Y0165079D01*
X0218224Y0165124D01*
X0218259Y0165300D01*
X0218224Y0165476D01*
X0218124Y0165624D01*
X0217976Y0165724D01*
X0217800Y0165759D01*
D02*
G37*
G36*
X0199600Y0166709D02*
X0199424Y0166674D01*
X0199276Y0166574D01*
X0199176Y0166426D01*
X0199141Y0166250D01*
X0199148Y0166216D01*
X0198641Y0165709D01*
X0198523Y0165799D01*
X0198329Y0165879D01*
X0198120Y0165907D01*
X0197911Y0165879D01*
X0197717Y0165799D01*
X0197549Y0165671D01*
X0197421Y0165503D01*
X0197341Y0165309D01*
X0197313Y0165100D01*
X0197341Y0164891D01*
X0197421Y0164697D01*
X0197549Y0164529D01*
X0197717Y0164401D01*
X0197911Y0164321D01*
X0198120Y0164293D01*
X0198329Y0164321D01*
X0198523Y0164401D01*
X0198691Y0164529D01*
X0198819Y0164697D01*
X0198899Y0164891D01*
X0198927Y0165100D01*
X0198920Y0165152D01*
X0199566Y0165798D01*
X0199600Y0165791D01*
X0199776Y0165826D01*
X0199924Y0165926D01*
X0200024Y0166074D01*
X0200059Y0166250D01*
X0200024Y0166426D01*
X0199924Y0166574D01*
X0199776Y0166674D01*
X0199600Y0166709D01*
D02*
G37*
G36*
X0214700Y0157659D02*
X0214524Y0157624D01*
X0214376Y0157524D01*
X0214276Y0157376D01*
X0214241Y0157200D01*
X0214276Y0157024D01*
X0214376Y0156876D01*
X0214524Y0156776D01*
X0214700Y0156741D01*
X0214876Y0156776D01*
X0215024Y0156876D01*
X0215124Y0157024D01*
X0215159Y0157200D01*
X0215124Y0157376D01*
X0215024Y0157524D01*
X0214876Y0157624D01*
X0214700Y0157659D01*
D02*
G37*
G36*
X0199900Y0157959D02*
X0199724Y0157924D01*
X0199576Y0157824D01*
X0199476Y0157676D01*
X0199441Y0157500D01*
X0199476Y0157324D01*
X0199576Y0157176D01*
X0199724Y0157076D01*
X0199900Y0157041D01*
X0200076Y0157076D01*
X0200224Y0157176D01*
X0200324Y0157324D01*
X0200359Y0157500D01*
X0200324Y0157676D01*
X0200224Y0157824D01*
X0200076Y0157924D01*
X0199900Y0157959D01*
D02*
G37*
G36*
X0183000Y0159834D02*
X0182642Y0159799D01*
X0182298Y0159694D01*
X0181981Y0159525D01*
X0181703Y0159297D01*
X0181475Y0159019D01*
X0181306Y0158702D01*
X0181201Y0158358D01*
X0181166Y0158000D01*
X0181201Y0157642D01*
X0181306Y0157298D01*
X0181475Y0156981D01*
X0181703Y0156703D01*
X0181981Y0156475D01*
X0182298Y0156306D01*
X0182642Y0156201D01*
X0183000Y0156166D01*
X0183358Y0156201D01*
X0183702Y0156306D01*
X0184019Y0156475D01*
X0184297Y0156703D01*
X0184525Y0156981D01*
X0184694Y0157298D01*
X0184799Y0157642D01*
X0184834Y0158000D01*
X0184799Y0158358D01*
X0184694Y0158702D01*
X0184525Y0159019D01*
X0184297Y0159297D01*
X0184019Y0159525D01*
X0183702Y0159694D01*
X0183358Y0159799D01*
X0183000Y0159834D01*
D02*
G37*
G36*
X0252000D02*
X0251642Y0159799D01*
X0251298Y0159694D01*
X0250981Y0159525D01*
X0250703Y0159297D01*
X0250475Y0159019D01*
X0250306Y0158702D01*
X0250201Y0158358D01*
X0250166Y0158000D01*
X0250201Y0157642D01*
X0250306Y0157298D01*
X0250475Y0156981D01*
X0250703Y0156703D01*
X0250981Y0156475D01*
X0251298Y0156306D01*
X0251642Y0156201D01*
X0252000Y0156166D01*
X0252358Y0156201D01*
X0252702Y0156306D01*
X0253019Y0156475D01*
X0253297Y0156703D01*
X0253525Y0156981D01*
X0253694Y0157298D01*
X0253799Y0157642D01*
X0253834Y0158000D01*
X0253799Y0158358D01*
X0253694Y0158702D01*
X0253525Y0159019D01*
X0253297Y0159297D01*
X0253019Y0159525D01*
X0252702Y0159694D01*
X0252358Y0159799D01*
X0252000Y0159834D01*
D02*
G37*
G36*
X0206500Y0157959D02*
X0206324Y0157924D01*
X0206176Y0157824D01*
X0206076Y0157676D01*
X0206041Y0157500D01*
X0206076Y0157324D01*
X0206176Y0157176D01*
X0206324Y0157076D01*
X0206500Y0157041D01*
X0206676Y0157076D01*
X0206824Y0157176D01*
X0206924Y0157324D01*
X0206959Y0157500D01*
X0206924Y0157676D01*
X0206824Y0157824D01*
X0206676Y0157924D01*
X0206500Y0157959D01*
D02*
G37*
G36*
X0196500Y0161359D02*
X0196324Y0161324D01*
X0196176Y0161224D01*
X0196076Y0161076D01*
X0196041Y0160900D01*
X0196076Y0160724D01*
X0196176Y0160576D01*
X0196324Y0160476D01*
X0196500Y0160441D01*
X0196676Y0160476D01*
X0196824Y0160576D01*
X0196924Y0160724D01*
X0196959Y0160900D01*
X0196924Y0161076D01*
X0196824Y0161224D01*
X0196676Y0161324D01*
X0196500Y0161359D01*
D02*
G37*
G36*
X0246380Y0163367D02*
X0246171Y0163339D01*
X0245977Y0163259D01*
X0245809Y0163131D01*
X0245681Y0162963D01*
X0245601Y0162769D01*
X0245573Y0162560D01*
X0245601Y0162351D01*
X0245681Y0162157D01*
X0245809Y0161989D01*
X0245977Y0161861D01*
X0246171Y0161781D01*
X0246380Y0161753D01*
X0246589Y0161781D01*
X0246686Y0161821D01*
X0246924Y0161584D01*
X0247023Y0161517D01*
X0247140Y0161494D01*
X0248534D01*
X0248593Y0161300D01*
X0248714Y0161074D01*
X0248876Y0160876D01*
X0249074Y0160714D01*
X0249300Y0160593D01*
X0249545Y0160519D01*
X0249800Y0160494D01*
X0250055Y0160519D01*
X0250300Y0160593D01*
X0250526Y0160714D01*
X0250724Y0160876D01*
X0250886Y0161074D01*
X0251007Y0161300D01*
X0251081Y0161545D01*
X0251106Y0161800D01*
X0251081Y0162055D01*
X0251007Y0162300D01*
X0250886Y0162526D01*
X0250724Y0162724D01*
X0250526Y0162886D01*
X0250300Y0163007D01*
X0250055Y0163081D01*
X0249800Y0163106D01*
X0249545Y0163081D01*
X0249300Y0163007D01*
X0249074Y0162886D01*
X0248876Y0162724D01*
X0248714Y0162526D01*
X0248593Y0162300D01*
X0248534Y0162106D01*
X0247267D01*
X0247119Y0162254D01*
X0247159Y0162351D01*
X0247187Y0162560D01*
X0247159Y0162769D01*
X0247079Y0162963D01*
X0246951Y0163131D01*
X0246783Y0163259D01*
X0246589Y0163339D01*
X0246380Y0163367D01*
D02*
G37*
G36*
X0190200Y0160359D02*
X0190024Y0160324D01*
X0189876Y0160224D01*
X0189776Y0160076D01*
X0189741Y0159900D01*
X0189776Y0159724D01*
X0189876Y0159576D01*
X0190024Y0159476D01*
X0190200Y0159441D01*
X0190376Y0159476D01*
X0190524Y0159576D01*
X0190624Y0159724D01*
X0190659Y0159900D01*
X0190624Y0160076D01*
X0190524Y0160224D01*
X0190376Y0160324D01*
X0190200Y0160359D01*
D02*
G37*
G36*
X0230200Y0161159D02*
X0230024Y0161124D01*
X0229876Y0161024D01*
X0229776Y0160876D01*
X0229741Y0160700D01*
X0229776Y0160524D01*
X0229876Y0160376D01*
X0230024Y0160276D01*
X0230200Y0160241D01*
X0230376Y0160276D01*
X0230524Y0160376D01*
X0230624Y0160524D01*
X0230659Y0160700D01*
X0230624Y0160876D01*
X0230524Y0161024D01*
X0230376Y0161124D01*
X0230200Y0161159D01*
D02*
G37*
G36*
X0221500Y0173259D02*
X0221324Y0173224D01*
X0221176Y0173124D01*
X0221076Y0172976D01*
X0221041Y0172800D01*
X0221076Y0172624D01*
X0221176Y0172476D01*
X0221324Y0172376D01*
X0221500Y0172341D01*
X0221676Y0172376D01*
X0221824Y0172476D01*
X0221837Y0172494D01*
X0223473D01*
X0224684Y0171284D01*
X0224783Y0171217D01*
X0224900Y0171194D01*
X0233273D01*
X0233784Y0170684D01*
X0233784Y0170684D01*
X0233883Y0170617D01*
X0234000Y0170594D01*
X0234000Y0170594D01*
X0241563D01*
X0241576Y0170576D01*
X0241724Y0170476D01*
X0241900Y0170441D01*
X0242076Y0170476D01*
X0242224Y0170576D01*
X0242324Y0170724D01*
X0242359Y0170900D01*
X0242324Y0171076D01*
X0242224Y0171224D01*
X0242076Y0171324D01*
X0241900Y0171359D01*
X0241724Y0171324D01*
X0241576Y0171224D01*
X0241563Y0171206D01*
X0234127D01*
X0233616Y0171716D01*
X0233517Y0171783D01*
X0233400Y0171806D01*
X0233400Y0171806D01*
X0225027D01*
X0223816Y0173016D01*
X0223717Y0173083D01*
X0223600Y0173106D01*
X0223600Y0173106D01*
X0221837D01*
X0221824Y0173124D01*
X0221676Y0173224D01*
X0221500Y0173259D01*
D02*
G37*
G36*
X0197000Y0171359D02*
X0196824Y0171324D01*
X0196676Y0171224D01*
X0196576Y0171076D01*
X0196541Y0170900D01*
X0196576Y0170724D01*
X0196662Y0170596D01*
X0196675Y0170538D01*
X0196672Y0170525D01*
X0196557Y0170396D01*
X0196357D01*
X0196279Y0170583D01*
X0196151Y0170751D01*
X0195983Y0170879D01*
X0195789Y0170959D01*
X0195580Y0170987D01*
X0195371Y0170959D01*
X0195177Y0170879D01*
X0195009Y0170751D01*
X0194881Y0170583D01*
X0194801Y0170389D01*
X0194773Y0170180D01*
X0194801Y0169971D01*
X0194881Y0169777D01*
X0195009Y0169609D01*
X0195177Y0169481D01*
X0195371Y0169401D01*
X0195580Y0169373D01*
X0195789Y0169401D01*
X0195983Y0169481D01*
X0196151Y0169609D01*
X0196279Y0169777D01*
X0196290Y0169804D01*
X0196656D01*
X0196676Y0169776D01*
X0196824Y0169676D01*
X0197000Y0169641D01*
X0197176Y0169676D01*
X0197324Y0169776D01*
X0197424Y0169924D01*
X0197459Y0170100D01*
X0197424Y0170276D01*
X0197338Y0170404D01*
X0197324Y0170470D01*
Y0170530D01*
X0197338Y0170596D01*
X0197424Y0170724D01*
X0197459Y0170900D01*
X0197424Y0171076D01*
X0197324Y0171224D01*
X0197176Y0171324D01*
X0197000Y0171359D01*
D02*
G37*
G36*
X0188800Y0169259D02*
X0188624Y0169224D01*
X0188476Y0169124D01*
X0188376Y0168976D01*
X0188341Y0168800D01*
X0188376Y0168624D01*
X0188462Y0168496D01*
X0188476Y0168430D01*
Y0168370D01*
X0188462Y0168304D01*
X0188376Y0168176D01*
X0188341Y0168000D01*
X0188376Y0167824D01*
X0188476Y0167676D01*
X0188624Y0167576D01*
X0188800Y0167541D01*
X0188976Y0167576D01*
X0189124Y0167676D01*
X0189224Y0167824D01*
X0189259Y0168000D01*
X0189224Y0168176D01*
X0189138Y0168304D01*
X0189124Y0168370D01*
Y0168430D01*
X0189138Y0168496D01*
X0189224Y0168624D01*
X0189259Y0168800D01*
X0189224Y0168976D01*
X0189124Y0169124D01*
X0188976Y0169224D01*
X0188800Y0169259D01*
D02*
G37*
G36*
X0227700Y0173359D02*
X0227524Y0173324D01*
X0227376Y0173224D01*
X0227276Y0173076D01*
X0227241Y0172900D01*
X0227276Y0172724D01*
X0227376Y0172576D01*
X0227524Y0172476D01*
X0227700Y0172441D01*
X0227876Y0172476D01*
X0228024Y0172576D01*
X0228124Y0172724D01*
X0228159Y0172900D01*
X0228124Y0173076D01*
X0228024Y0173224D01*
X0227876Y0173324D01*
X0227700Y0173359D01*
D02*
G37*
G36*
X0250000Y0169696D02*
Y0168500D01*
X0251196D01*
X0251181Y0168655D01*
X0251107Y0168900D01*
X0250986Y0169126D01*
X0250824Y0169324D01*
X0250626Y0169486D01*
X0250400Y0169607D01*
X0250155Y0169681D01*
X0250000Y0169696D01*
D02*
G37*
G36*
X0183000Y0173834D02*
X0182642Y0173799D01*
X0182298Y0173694D01*
X0181981Y0173525D01*
X0181703Y0173297D01*
X0181475Y0173019D01*
X0181306Y0172702D01*
X0181201Y0172358D01*
X0181166Y0172000D01*
X0181201Y0171642D01*
X0181306Y0171298D01*
X0181475Y0170981D01*
X0181703Y0170703D01*
X0181981Y0170475D01*
X0182298Y0170306D01*
X0182642Y0170201D01*
X0183000Y0170166D01*
X0183358Y0170201D01*
X0183702Y0170306D01*
X0184019Y0170475D01*
X0184297Y0170703D01*
X0184525Y0170981D01*
X0184694Y0171298D01*
X0184799Y0171642D01*
X0184834Y0172000D01*
X0184799Y0172358D01*
X0184694Y0172702D01*
X0184525Y0173019D01*
X0184297Y0173297D01*
X0184019Y0173525D01*
X0183702Y0173694D01*
X0183358Y0173799D01*
X0183000Y0173834D01*
D02*
G37*
G36*
X0252000D02*
X0251642Y0173799D01*
X0251298Y0173694D01*
X0250981Y0173525D01*
X0250703Y0173297D01*
X0250475Y0173019D01*
X0250306Y0172702D01*
X0250201Y0172358D01*
X0250166Y0172000D01*
X0250201Y0171642D01*
X0250306Y0171298D01*
X0250475Y0170981D01*
X0250703Y0170703D01*
X0250981Y0170475D01*
X0251298Y0170306D01*
X0251642Y0170201D01*
X0252000Y0170166D01*
X0252358Y0170201D01*
X0252702Y0170306D01*
X0253019Y0170475D01*
X0253297Y0170703D01*
X0253525Y0170981D01*
X0253694Y0171298D01*
X0253799Y0171642D01*
X0253834Y0172000D01*
X0253799Y0172358D01*
X0253694Y0172702D01*
X0253525Y0173019D01*
X0253297Y0173297D01*
X0253019Y0173525D01*
X0252702Y0173694D01*
X0252358Y0173799D01*
X0252000Y0173834D01*
D02*
G37*
G36*
X0249800Y0169696D02*
X0249645Y0169681D01*
X0249400Y0169607D01*
X0249174Y0169486D01*
X0248976Y0169324D01*
X0248814Y0169126D01*
X0248693Y0168900D01*
X0248619Y0168655D01*
X0248604Y0168500D01*
X0249800D01*
Y0169696D01*
D02*
G37*
G36*
X0193400Y0167005D02*
X0193243Y0166985D01*
X0193097Y0166924D01*
X0193000Y0166849D01*
X0192903Y0166924D01*
X0192757Y0166985D01*
X0192600Y0167005D01*
X0192443Y0166985D01*
X0192297Y0166924D01*
X0192172Y0166828D01*
X0192076Y0166703D01*
X0192015Y0166557D01*
X0191995Y0166400D01*
X0192015Y0166243D01*
X0192076Y0166097D01*
X0192172Y0165972D01*
X0192221Y0165935D01*
X0192245Y0165747D01*
X0192016Y0165517D01*
X0191892Y0165525D01*
X0191834Y0165548D01*
X0191753Y0165653D01*
X0191628Y0165749D01*
X0191482Y0165810D01*
X0191325Y0165830D01*
X0191168Y0165810D01*
X0191022Y0165749D01*
X0190897Y0165653D01*
X0190801Y0165528D01*
X0190740Y0165382D01*
X0190720Y0165225D01*
X0190740Y0165068D01*
X0190801Y0164922D01*
X0190876Y0164825D01*
X0190801Y0164728D01*
X0190740Y0164582D01*
X0190720Y0164425D01*
X0190740Y0164268D01*
X0190801Y0164122D01*
X0190897Y0163997D01*
X0191022Y0163901D01*
X0191168Y0163840D01*
X0191325Y0163820D01*
X0191482Y0163840D01*
X0191628Y0163901D01*
X0191753Y0163997D01*
X0191849Y0164122D01*
X0191899Y0164242D01*
X0192220D01*
X0192220Y0164242D01*
X0192350Y0164268D01*
X0192376Y0164273D01*
X0192508Y0164362D01*
X0193463Y0165317D01*
X0193552Y0165449D01*
X0193557Y0165475D01*
X0193583Y0165605D01*
X0193583Y0165605D01*
Y0165826D01*
X0193703Y0165876D01*
X0193828Y0165972D01*
X0193924Y0166097D01*
X0193985Y0166243D01*
X0194005Y0166400D01*
X0193985Y0166557D01*
X0193924Y0166703D01*
X0193828Y0166828D01*
X0193703Y0166924D01*
X0193557Y0166985D01*
X0193400Y0167005D01*
D02*
G37*
G36*
X0240700Y0167895D02*
X0240565Y0167877D01*
X0240346Y0167786D01*
X0240158Y0167642D01*
X0240014Y0167454D01*
X0239923Y0167235D01*
X0239905Y0167100D01*
X0240700D01*
Y0167895D01*
D02*
G37*
G36*
X0241695Y0166900D02*
X0240900D01*
Y0166105D01*
X0241035Y0166123D01*
X0241254Y0166214D01*
X0241442Y0166358D01*
X0241586Y0166546D01*
X0241677Y0166765D01*
X0241695Y0166900D01*
D02*
G37*
G36*
X0243900Y0169206D02*
X0243645Y0169181D01*
X0243400Y0169107D01*
X0243174Y0168986D01*
X0242976Y0168824D01*
X0242814Y0168626D01*
X0242693Y0168400D01*
X0242619Y0168155D01*
X0242594Y0167900D01*
X0242619Y0167645D01*
X0242693Y0167400D01*
X0242814Y0167174D01*
X0242976Y0166976D01*
X0243174Y0166814D01*
X0243400Y0166693D01*
X0243645Y0166619D01*
X0243900Y0166594D01*
X0244155Y0166619D01*
X0244400Y0166693D01*
X0244626Y0166814D01*
X0244824Y0166976D01*
X0244986Y0167174D01*
X0245072Y0167334D01*
X0245641D01*
X0245681Y0167237D01*
X0245809Y0167069D01*
X0245977Y0166941D01*
X0246171Y0166861D01*
X0246380Y0166833D01*
X0246589Y0166861D01*
X0246783Y0166941D01*
X0246951Y0167069D01*
X0247079Y0167237D01*
X0247159Y0167431D01*
X0247187Y0167640D01*
X0247159Y0167849D01*
X0247079Y0168043D01*
X0246951Y0168211D01*
X0246783Y0168339D01*
X0246589Y0168419D01*
X0246380Y0168447D01*
X0246171Y0168419D01*
X0245977Y0168339D01*
X0245809Y0168211D01*
X0245681Y0168043D01*
X0245641Y0167946D01*
X0245202D01*
X0245181Y0168155D01*
X0245107Y0168400D01*
X0244986Y0168626D01*
X0244824Y0168824D01*
X0244626Y0168986D01*
X0244400Y0169107D01*
X0244155Y0169181D01*
X0243900Y0169206D01*
D02*
G37*
G36*
X0249800Y0168300D02*
X0248604D01*
X0248619Y0168145D01*
X0248693Y0167900D01*
X0248814Y0167674D01*
X0248976Y0167476D01*
X0249174Y0167314D01*
X0249400Y0167193D01*
X0249645Y0167119D01*
X0249800Y0167104D01*
Y0168300D01*
D02*
G37*
G36*
X0251196D02*
X0250000D01*
Y0167104D01*
X0250155Y0167119D01*
X0250400Y0167193D01*
X0250626Y0167314D01*
X0250824Y0167476D01*
X0250986Y0167674D01*
X0251107Y0167900D01*
X0251181Y0168145D01*
X0251196Y0168300D01*
D02*
G37*
G36*
X0212500Y0174059D02*
X0212324Y0174024D01*
X0212176Y0173924D01*
X0212076Y0173776D01*
X0212041Y0173600D01*
X0212076Y0173424D01*
X0212106Y0173379D01*
X0212026Y0173229D01*
X0209188D01*
X0209124Y0173324D01*
X0208976Y0173424D01*
X0208800Y0173459D01*
X0208624Y0173424D01*
X0208476Y0173324D01*
X0208376Y0173176D01*
X0208341Y0173000D01*
X0208376Y0172824D01*
X0208406Y0172779D01*
X0208326Y0172629D01*
X0208300D01*
X0208212Y0172612D01*
X0208138Y0172562D01*
X0207996Y0172420D01*
X0207858Y0172494D01*
X0207859Y0172500D01*
X0207824Y0172676D01*
X0207724Y0172824D01*
X0207576Y0172924D01*
X0207400Y0172959D01*
X0207224Y0172924D01*
X0207076Y0172824D01*
X0206976Y0172676D01*
X0206974Y0172663D01*
X0206811Y0172614D01*
X0206162Y0173262D01*
X0206088Y0173312D01*
X0206000Y0173329D01*
X0202300D01*
X0202212Y0173312D01*
X0202138Y0173262D01*
X0201406Y0172530D01*
X0201243Y0172580D01*
X0201224Y0172676D01*
X0201124Y0172824D01*
X0200976Y0172924D01*
X0200800Y0172959D01*
X0200624Y0172924D01*
X0200476Y0172824D01*
X0200376Y0172676D01*
X0200341Y0172500D01*
X0200376Y0172324D01*
X0200476Y0172176D01*
X0200624Y0172076D01*
X0200720Y0172057D01*
X0200770Y0171894D01*
X0199538Y0170662D01*
X0199488Y0170588D01*
X0199471Y0170500D01*
Y0167788D01*
X0199376Y0167724D01*
X0199276Y0167576D01*
X0199241Y0167400D01*
X0199276Y0167224D01*
X0199376Y0167076D01*
X0199524Y0166976D01*
X0199700Y0166941D01*
X0199876Y0166976D01*
X0200024Y0167076D01*
X0200124Y0167224D01*
X0200159Y0167400D01*
X0200135Y0167521D01*
X0200225Y0167636D01*
X0200250Y0167651D01*
X0200300Y0167641D01*
X0200476Y0167676D01*
X0200624Y0167776D01*
X0200724Y0167924D01*
X0200759Y0168100D01*
X0200724Y0168276D01*
X0200624Y0168424D01*
X0200529Y0168488D01*
Y0170405D01*
X0202163Y0172038D01*
X0202325Y0171989D01*
X0202326Y0171984D01*
X0202426Y0171836D01*
X0202574Y0171736D01*
X0202750Y0171701D01*
X0202862Y0171723D01*
X0204548Y0170038D01*
X0204622Y0169988D01*
X0204710Y0169971D01*
X0209695D01*
X0209722Y0169834D01*
X0209719Y0169821D01*
X0209576Y0169724D01*
X0209476Y0169576D01*
X0209441Y0169400D01*
X0209476Y0169224D01*
X0209576Y0169076D01*
X0209671Y0169012D01*
Y0168700D01*
Y0168695D01*
X0209538Y0168562D01*
X0209488Y0168488D01*
X0209471Y0168400D01*
Y0167300D01*
X0209488Y0167212D01*
X0209538Y0167138D01*
X0210638Y0166038D01*
X0210712Y0165988D01*
X0210800Y0165971D01*
X0212405D01*
X0213038Y0165338D01*
X0213038Y0165338D01*
X0213112Y0165288D01*
X0213127Y0165285D01*
X0213200Y0165271D01*
X0213200Y0165271D01*
X0215200D01*
X0215288Y0165288D01*
X0215362Y0165338D01*
X0215688Y0165663D01*
X0215800Y0165641D01*
X0215976Y0165676D01*
X0216124Y0165776D01*
X0216188Y0165871D01*
X0216700D01*
X0216788Y0165888D01*
X0216862Y0165938D01*
X0217095Y0166171D01*
X0218605D01*
X0218838Y0165938D01*
X0218912Y0165888D01*
X0219000Y0165871D01*
X0219000Y0165871D01*
X0220237D01*
X0220289Y0165747D01*
X0220401Y0165601D01*
X0220547Y0165489D01*
X0220717Y0165418D01*
X0220900Y0165394D01*
X0221083Y0165418D01*
X0221253Y0165489D01*
X0221399Y0165601D01*
X0221511Y0165747D01*
X0221563Y0165871D01*
X0222504D01*
X0223163Y0165212D01*
X0223141Y0165100D01*
X0223176Y0164924D01*
X0223275Y0164775D01*
X0223424Y0164676D01*
X0223600Y0164641D01*
X0223775Y0164676D01*
X0223924Y0164775D01*
X0224023Y0164924D01*
X0224058Y0165100D01*
X0224023Y0165275D01*
X0223924Y0165424D01*
X0223775Y0165524D01*
X0223600Y0165558D01*
X0223487Y0165536D01*
X0222761Y0166262D01*
X0222687Y0166312D01*
X0222599Y0166329D01*
X0221563D01*
X0221511Y0166453D01*
X0221399Y0166599D01*
X0221253Y0166711D01*
X0221083Y0166782D01*
X0220900Y0166806D01*
X0220717Y0166782D01*
X0220547Y0166711D01*
X0220401Y0166599D01*
X0220289Y0166453D01*
X0220237Y0166329D01*
X0219095D01*
X0218862Y0166562D01*
X0218788Y0166612D01*
X0218700Y0166629D01*
X0217000D01*
X0217000Y0166629D01*
X0216912Y0166612D01*
X0216838Y0166562D01*
X0216605Y0166329D01*
X0216188D01*
X0216124Y0166424D01*
X0215976Y0166524D01*
X0215800Y0166559D01*
X0215624Y0166524D01*
X0215476Y0166424D01*
X0215376Y0166276D01*
X0215341Y0166100D01*
X0215363Y0165988D01*
X0215105Y0165729D01*
X0213295D01*
X0212662Y0166362D01*
X0212588Y0166412D01*
X0212500Y0166429D01*
X0210895D01*
X0210616Y0166709D01*
X0210686Y0166851D01*
X0210820Y0166833D01*
X0211029Y0166861D01*
X0211223Y0166941D01*
X0211391Y0167069D01*
X0211425Y0167115D01*
X0211476Y0167118D01*
X0211597Y0167093D01*
X0211676Y0166976D01*
X0211824Y0166876D01*
X0212000Y0166841D01*
X0212176Y0166876D01*
X0212324Y0166976D01*
X0212424Y0167124D01*
X0212459Y0167300D01*
X0212468Y0167311D01*
X0212641Y0167285D01*
X0212661Y0167237D01*
X0212789Y0167069D01*
X0212957Y0166941D01*
X0213151Y0166861D01*
X0213360Y0166833D01*
X0213569Y0166861D01*
X0213763Y0166941D01*
X0213931Y0167069D01*
X0214059Y0167237D01*
X0214139Y0167431D01*
X0214167Y0167640D01*
X0214139Y0167849D01*
X0214059Y0168043D01*
X0213931Y0168211D01*
X0213787Y0168321D01*
X0213799Y0168412D01*
X0213828Y0168471D01*
X0214745D01*
X0215193Y0168023D01*
X0215121Y0167849D01*
X0215093Y0167640D01*
X0215121Y0167431D01*
X0215201Y0167237D01*
X0215329Y0167069D01*
X0215497Y0166941D01*
X0215691Y0166861D01*
X0215900Y0166833D01*
X0216109Y0166861D01*
X0216303Y0166941D01*
X0216471Y0167069D01*
X0216599Y0167237D01*
X0216679Y0167431D01*
X0216707Y0167640D01*
X0216679Y0167849D01*
X0216599Y0168043D01*
X0216471Y0168211D01*
X0216303Y0168339D01*
X0216109Y0168419D01*
X0215900Y0168447D01*
X0215691Y0168419D01*
X0215517Y0168347D01*
X0215069Y0168796D01*
X0215129Y0168922D01*
X0215141Y0168936D01*
X0216147D01*
X0216211Y0168841D01*
X0216359Y0168741D01*
X0216535Y0168706D01*
X0216711Y0168741D01*
X0216859Y0168841D01*
X0216959Y0168989D01*
X0216994Y0169165D01*
X0216959Y0169341D01*
X0216859Y0169489D01*
X0216711Y0169589D01*
X0216686Y0169594D01*
X0216650Y0169663D01*
X0216639Y0169756D01*
X0216655Y0169771D01*
X0219705D01*
X0219869Y0169606D01*
X0219818Y0169483D01*
X0219794Y0169300D01*
X0219818Y0169117D01*
X0219889Y0168947D01*
X0220001Y0168801D01*
X0220147Y0168689D01*
X0220317Y0168618D01*
X0220500Y0168594D01*
X0220683Y0168618D01*
X0220806Y0168669D01*
X0221538Y0167938D01*
X0221538Y0167938D01*
X0221612Y0167888D01*
X0221700Y0167871D01*
X0222847D01*
X0224471Y0166247D01*
Y0166000D01*
X0224488Y0165912D01*
X0224538Y0165838D01*
X0224670Y0165706D01*
X0224620Y0165543D01*
X0224524Y0165524D01*
X0224376Y0165424D01*
X0224276Y0165276D01*
X0224241Y0165100D01*
X0224276Y0164924D01*
X0224376Y0164776D01*
X0224440Y0164732D01*
X0224450Y0164575D01*
X0223205Y0163329D01*
X0221895D01*
X0221162Y0164062D01*
X0221088Y0164112D01*
X0221000Y0164129D01*
X0210500D01*
X0210500Y0164129D01*
X0210427Y0164115D01*
X0210412Y0164112D01*
X0210338Y0164062D01*
X0210338Y0164062D01*
X0209805Y0163529D01*
X0208774D01*
X0208694Y0163679D01*
X0208724Y0163724D01*
X0208759Y0163900D01*
X0208724Y0164076D01*
X0208639Y0164202D01*
X0208625Y0164229D01*
X0208659Y0164382D01*
X0208724Y0164426D01*
X0208824Y0164574D01*
X0208859Y0164750D01*
X0208824Y0164926D01*
X0208724Y0165074D01*
X0208576Y0165174D01*
X0208400Y0165209D01*
X0208224Y0165174D01*
X0208076Y0165074D01*
X0207976Y0164926D01*
X0207941Y0164750D01*
X0207976Y0164574D01*
X0208061Y0164448D01*
X0208075Y0164421D01*
X0208041Y0164268D01*
X0207976Y0164224D01*
X0207876Y0164076D01*
X0207841Y0163900D01*
X0207876Y0163724D01*
X0207906Y0163679D01*
X0207826Y0163529D01*
X0207595D01*
X0207362Y0163762D01*
X0207288Y0163812D01*
X0207200Y0163829D01*
X0200800D01*
X0200712Y0163812D01*
X0200638Y0163762D01*
X0200638Y0163762D01*
X0200280Y0163404D01*
X0200091D01*
X0200011Y0163554D01*
X0200024Y0163574D01*
X0200059Y0163750D01*
X0200025Y0163921D01*
X0200021Y0163947D01*
X0200103Y0164071D01*
X0200400D01*
X0200488Y0164088D01*
X0200562Y0164138D01*
X0201195Y0164771D01*
X0207000D01*
X0207088Y0164788D01*
X0207162Y0164838D01*
X0207388Y0165063D01*
X0207500Y0165041D01*
X0207676Y0165076D01*
X0207824Y0165176D01*
X0207924Y0165324D01*
X0207959Y0165500D01*
X0207924Y0165676D01*
X0207824Y0165824D01*
X0207676Y0165924D01*
X0207500Y0165959D01*
X0207324Y0165924D01*
X0207176Y0165824D01*
X0207076Y0165676D01*
X0207041Y0165500D01*
X0207063Y0165388D01*
X0206905Y0165229D01*
X0201100D01*
X0201100Y0165229D01*
X0201027Y0165215D01*
X0201012Y0165212D01*
X0200938Y0165162D01*
X0200938Y0165162D01*
X0200305Y0164529D01*
X0199100D01*
X0199012Y0164512D01*
X0198938Y0164462D01*
X0198938Y0164462D01*
X0197265Y0162789D01*
X0196351D01*
X0196279Y0162963D01*
X0196151Y0163131D01*
X0195983Y0163259D01*
X0195789Y0163339D01*
X0195580Y0163367D01*
X0195371Y0163339D01*
X0195177Y0163259D01*
X0195009Y0163131D01*
X0194881Y0162963D01*
X0194801Y0162769D01*
X0194773Y0162560D01*
X0194801Y0162351D01*
X0194873Y0162177D01*
X0193725Y0161029D01*
X0193376D01*
X0193331Y0161155D01*
X0193327Y0161179D01*
X0193424Y0161324D01*
X0193459Y0161500D01*
X0193424Y0161676D01*
X0193324Y0161824D01*
X0193176Y0161924D01*
X0193000Y0161959D01*
X0192824Y0161924D01*
X0192676Y0161824D01*
X0192576Y0161676D01*
X0192541Y0161500D01*
X0192576Y0161324D01*
X0192673Y0161179D01*
X0192669Y0161155D01*
X0192624Y0161029D01*
X0190876D01*
X0190831Y0161155D01*
X0190827Y0161179D01*
X0190924Y0161324D01*
X0190959Y0161500D01*
X0190924Y0161676D01*
X0190824Y0161824D01*
X0190676Y0161924D01*
X0190500Y0161959D01*
X0190388Y0161937D01*
X0190029Y0162295D01*
Y0168912D01*
X0190124Y0168976D01*
X0190224Y0169124D01*
X0190251Y0169262D01*
X0190263Y0169303D01*
X0190394Y0169387D01*
X0190500Y0169373D01*
X0190709Y0169401D01*
X0190903Y0169481D01*
X0191071Y0169609D01*
X0191199Y0169777D01*
X0191279Y0169971D01*
X0191307Y0170180D01*
X0191279Y0170389D01*
X0191199Y0170583D01*
X0191071Y0170751D01*
X0190903Y0170879D01*
X0190709Y0170959D01*
X0190500Y0170987D01*
X0190291Y0170959D01*
X0190245Y0170940D01*
X0188532Y0172652D01*
X0188417Y0172730D01*
X0188280Y0172757D01*
X0186776D01*
X0186676Y0172824D01*
X0186500Y0172859D01*
X0186324Y0172824D01*
X0186176Y0172724D01*
X0186076Y0172576D01*
X0186041Y0172400D01*
X0186076Y0172224D01*
X0186176Y0172076D01*
X0186324Y0171976D01*
X0186500Y0171941D01*
X0186676Y0171976D01*
X0186776Y0172043D01*
X0188132D01*
X0189740Y0170435D01*
X0189721Y0170389D01*
X0189693Y0170180D01*
X0189721Y0169971D01*
X0189749Y0169902D01*
X0189658Y0169731D01*
X0189624Y0169724D01*
X0189476Y0169624D01*
X0189376Y0169476D01*
X0189341Y0169300D01*
X0189376Y0169124D01*
X0189476Y0168976D01*
X0189571Y0168912D01*
Y0162200D01*
X0189588Y0162112D01*
X0189638Y0162038D01*
X0190063Y0161612D01*
X0190041Y0161500D01*
X0190076Y0161324D01*
X0190173Y0161179D01*
X0190169Y0161155D01*
X0190124Y0161029D01*
X0189064D01*
X0188951Y0161161D01*
X0188959Y0161200D01*
X0188924Y0161376D01*
X0188824Y0161524D01*
X0188676Y0161624D01*
X0188500Y0161659D01*
X0188324Y0161624D01*
X0188176Y0161524D01*
X0188076Y0161376D01*
X0188075Y0161376D01*
X0187926Y0161375D01*
X0187923Y0161376D01*
X0187824Y0161524D01*
X0187675Y0161624D01*
X0187500Y0161658D01*
X0187324Y0161624D01*
X0187175Y0161524D01*
X0187076Y0161375D01*
X0187041Y0161200D01*
X0187076Y0161024D01*
X0187175Y0160875D01*
X0187324Y0160776D01*
X0187500Y0160741D01*
X0187675Y0160776D01*
X0187824Y0160875D01*
X0187923Y0161024D01*
X0187925Y0161024D01*
X0188074Y0161024D01*
X0188076Y0161024D01*
X0188176Y0160876D01*
X0188324Y0160776D01*
X0188500Y0160741D01*
X0188612Y0160763D01*
X0188738Y0160638D01*
X0188812Y0160588D01*
X0188900Y0160571D01*
X0193820D01*
X0193908Y0160588D01*
X0193982Y0160638D01*
X0195197Y0161853D01*
X0195371Y0161781D01*
X0195580Y0161753D01*
X0195789Y0161781D01*
X0195983Y0161861D01*
X0196151Y0161989D01*
X0196279Y0162157D01*
X0196351Y0162331D01*
X0197360D01*
X0197448Y0162348D01*
X0197522Y0162398D01*
X0199017Y0163892D01*
X0199155Y0163818D01*
X0199141Y0163750D01*
X0199176Y0163574D01*
X0199198Y0163542D01*
X0199195Y0163506D01*
X0199141Y0163356D01*
X0199113Y0163337D01*
X0198838Y0163062D01*
X0198788Y0162988D01*
X0198771Y0162900D01*
Y0162000D01*
X0198788Y0161912D01*
X0198838Y0161838D01*
X0200238Y0160438D01*
X0200312Y0160388D01*
X0200327Y0160385D01*
X0200400Y0160371D01*
X0200400Y0160371D01*
X0202362D01*
X0202426Y0160276D01*
X0202574Y0160176D01*
X0202750Y0160141D01*
X0202926Y0160176D01*
X0203074Y0160276D01*
X0203173Y0160424D01*
X0203178Y0160424D01*
X0203322D01*
X0203327Y0160424D01*
X0203426Y0160276D01*
X0203574Y0160176D01*
X0203750Y0160141D01*
X0203926Y0160176D01*
X0204074Y0160276D01*
X0204174Y0160424D01*
X0204209Y0160600D01*
X0204174Y0160776D01*
X0204074Y0160924D01*
X0203926Y0161024D01*
X0203750Y0161059D01*
X0203574Y0161024D01*
X0203426Y0160924D01*
X0203327Y0160776D01*
X0203322Y0160776D01*
X0203178D01*
X0203173Y0160776D01*
X0203074Y0160924D01*
X0202926Y0161024D01*
X0202750Y0161059D01*
X0202574Y0161024D01*
X0202426Y0160924D01*
X0202362Y0160829D01*
X0200495D01*
X0200120Y0161204D01*
X0200194Y0161342D01*
X0200200Y0161341D01*
X0200376Y0161376D01*
X0200524Y0161476D01*
X0200588Y0161571D01*
X0204405D01*
X0208363Y0157612D01*
X0208341Y0157500D01*
X0208376Y0157324D01*
X0208476Y0157176D01*
X0208624Y0157076D01*
X0208800Y0157041D01*
X0208912Y0157063D01*
X0209238Y0156738D01*
X0209238Y0156738D01*
X0209312Y0156688D01*
X0209327Y0156685D01*
X0209400Y0156671D01*
X0209400Y0156671D01*
X0211400D01*
X0211488Y0156688D01*
X0211562Y0156738D01*
X0214862Y0160038D01*
X0214912Y0160112D01*
X0214929Y0160200D01*
Y0160805D01*
X0215104Y0160980D01*
X0215242Y0160906D01*
X0215241Y0160900D01*
X0215276Y0160724D01*
X0215376Y0160576D01*
X0215524Y0160476D01*
X0215700Y0160441D01*
X0215812Y0160463D01*
X0219913Y0156363D01*
X0219913Y0156363D01*
X0219987Y0156313D01*
X0220075Y0156296D01*
X0232725D01*
X0232813Y0156313D01*
X0232887Y0156363D01*
X0238377Y0161853D01*
X0238551Y0161781D01*
X0238760Y0161753D01*
X0238969Y0161781D01*
X0239163Y0161861D01*
X0239331Y0161989D01*
X0239459Y0162157D01*
X0239539Y0162351D01*
X0239559Y0162498D01*
X0239995Y0162592D01*
X0240014Y0162546D01*
X0240158Y0162358D01*
X0240346Y0162214D01*
X0240565Y0162123D01*
X0240800Y0162092D01*
X0241035Y0162123D01*
X0241254Y0162214D01*
X0241442Y0162358D01*
X0241586Y0162546D01*
X0241677Y0162765D01*
X0241708Y0163000D01*
X0241677Y0163235D01*
X0241586Y0163454D01*
X0241442Y0163642D01*
X0241254Y0163786D01*
X0241035Y0163877D01*
X0240800Y0163908D01*
X0240565Y0163877D01*
X0240346Y0163786D01*
X0240158Y0163642D01*
X0240014Y0163454D01*
X0239923Y0163235D01*
X0239898Y0163040D01*
X0239466Y0162947D01*
X0239459Y0162963D01*
X0239331Y0163131D01*
X0239163Y0163259D01*
X0238969Y0163339D01*
X0238760Y0163367D01*
X0238551Y0163339D01*
X0238357Y0163259D01*
X0238189Y0163131D01*
X0238061Y0162963D01*
X0237981Y0162769D01*
X0237953Y0162560D01*
X0237981Y0162351D01*
X0238053Y0162177D01*
X0232630Y0156754D01*
X0224310D01*
X0224278Y0156801D01*
X0224244Y0156904D01*
X0224324Y0157024D01*
X0224359Y0157200D01*
X0224324Y0157376D01*
X0224224Y0157524D01*
X0224076Y0157624D01*
X0223900Y0157659D01*
X0223724Y0157624D01*
X0223576Y0157524D01*
X0223476Y0157376D01*
X0223441Y0157200D01*
X0223476Y0157024D01*
X0223556Y0156904D01*
X0223522Y0156801D01*
X0223490Y0156754D01*
X0221063D01*
X0221018Y0156904D01*
X0221124Y0156976D01*
X0221224Y0157124D01*
X0221259Y0157300D01*
X0221224Y0157476D01*
X0221124Y0157624D01*
X0220976Y0157724D01*
X0220800Y0157759D01*
X0220624Y0157724D01*
X0220476Y0157624D01*
X0220376Y0157476D01*
X0220341Y0157300D01*
X0220376Y0157124D01*
X0220476Y0156976D01*
X0220582Y0156904D01*
X0220537Y0156754D01*
X0220170D01*
X0216596Y0160328D01*
X0216670Y0160467D01*
X0216800Y0160441D01*
X0216975Y0160476D01*
X0217124Y0160575D01*
X0217223Y0160724D01*
X0217258Y0160900D01*
X0217223Y0161075D01*
X0217124Y0161224D01*
X0216975Y0161324D01*
X0216800Y0161358D01*
X0216624Y0161324D01*
X0216475Y0161224D01*
X0216376Y0161075D01*
X0216341Y0160900D01*
X0216362Y0160795D01*
X0216229Y0160726D01*
X0216140Y0160807D01*
X0216159Y0160900D01*
X0216124Y0161076D01*
X0216024Y0161224D01*
X0215876Y0161324D01*
X0215700Y0161359D01*
X0215694Y0161358D01*
X0215620Y0161496D01*
X0216195Y0162071D01*
X0218705D01*
X0218963Y0161812D01*
X0218941Y0161700D01*
X0218976Y0161524D01*
X0219076Y0161376D01*
X0219224Y0161277D01*
X0219224Y0161272D01*
Y0161128D01*
X0219224Y0161123D01*
X0219076Y0161024D01*
X0219075Y0161024D01*
X0218925D01*
X0218924Y0161024D01*
X0218776Y0161124D01*
X0218600Y0161159D01*
X0218424Y0161124D01*
X0218276Y0161024D01*
X0218176Y0160876D01*
X0218141Y0160700D01*
X0218176Y0160524D01*
X0218276Y0160376D01*
X0218424Y0160276D01*
X0218600Y0160241D01*
X0218776Y0160276D01*
X0218904Y0160362D01*
X0218970Y0160376D01*
X0219030D01*
X0219096Y0160362D01*
X0219224Y0160276D01*
X0219400Y0160241D01*
X0219576Y0160276D01*
X0219724Y0160376D01*
X0219824Y0160524D01*
X0219859Y0160700D01*
X0219858Y0160706D01*
X0219996Y0160780D01*
X0220312Y0160464D01*
X0220281Y0160423D01*
X0220201Y0160229D01*
X0220173Y0160020D01*
X0220201Y0159811D01*
X0220281Y0159617D01*
X0220409Y0159449D01*
X0220577Y0159321D01*
X0220771Y0159241D01*
X0220980Y0159213D01*
X0221189Y0159241D01*
X0221383Y0159321D01*
X0221551Y0159449D01*
X0221679Y0159617D01*
X0221759Y0159811D01*
X0221787Y0160020D01*
X0221759Y0160229D01*
X0221687Y0160403D01*
X0222055Y0160771D01*
X0225478D01*
X0225529Y0160621D01*
X0225489Y0160591D01*
X0225361Y0160423D01*
X0225281Y0160229D01*
X0225253Y0160020D01*
X0225281Y0159811D01*
X0225361Y0159617D01*
X0225489Y0159449D01*
X0225657Y0159321D01*
X0225851Y0159241D01*
X0226060Y0159213D01*
X0226269Y0159241D01*
X0226463Y0159321D01*
X0226631Y0159449D01*
X0226759Y0159617D01*
X0226799Y0159714D01*
X0227420D01*
X0227420Y0159714D01*
X0227537Y0159737D01*
X0227636Y0159804D01*
X0228078Y0160245D01*
X0228100Y0160241D01*
X0228275Y0160276D01*
X0228424Y0160375D01*
X0228523Y0160524D01*
X0228558Y0160700D01*
X0228523Y0160875D01*
X0228424Y0161024D01*
X0228275Y0161124D01*
X0228100Y0161158D01*
X0227924Y0161124D01*
X0227775Y0161024D01*
X0227676Y0160875D01*
X0227641Y0160700D01*
X0227645Y0160678D01*
X0227293Y0160326D01*
X0226799D01*
X0226759Y0160423D01*
X0226631Y0160591D01*
X0226463Y0160719D01*
X0226450Y0160724D01*
X0226423Y0160898D01*
X0227188Y0161663D01*
X0227300Y0161641D01*
X0227476Y0161676D01*
X0227624Y0161776D01*
X0227724Y0161924D01*
X0227759Y0162100D01*
X0227724Y0162276D01*
X0227624Y0162424D01*
X0227476Y0162524D01*
X0227300Y0162559D01*
X0227124Y0162524D01*
X0226976Y0162424D01*
X0226877Y0162276D01*
X0226872Y0162276D01*
X0226728D01*
X0226723Y0162276D01*
X0226624Y0162424D01*
X0226476Y0162524D01*
X0226300Y0162559D01*
X0226124Y0162524D01*
X0225976Y0162424D01*
X0225876Y0162276D01*
X0225841Y0162100D01*
X0225860Y0162006D01*
X0225766Y0161919D01*
X0225636Y0161987D01*
X0225659Y0162100D01*
X0225624Y0162276D01*
X0225524Y0162424D01*
X0225376Y0162524D01*
X0225200Y0162559D01*
X0225024Y0162524D01*
X0224876Y0162424D01*
X0224776Y0162276D01*
X0224741Y0162100D01*
X0224776Y0161924D01*
X0224873Y0161779D01*
X0224869Y0161755D01*
X0224824Y0161629D01*
X0221479D01*
X0221401Y0161722D01*
X0221424Y0161893D01*
X0221551Y0161989D01*
X0221679Y0162157D01*
X0221759Y0162351D01*
X0221787Y0162560D01*
X0221765Y0162725D01*
X0221770Y0162744D01*
X0221831Y0162830D01*
X0221880Y0162871D01*
X0223300D01*
X0223388Y0162888D01*
X0223462Y0162938D01*
X0224862Y0164338D01*
X0224912Y0164412D01*
X0224915Y0164427D01*
X0224929Y0164500D01*
X0224929Y0164500D01*
Y0164712D01*
X0225024Y0164776D01*
X0225123Y0164924D01*
X0225128Y0164924D01*
X0225272D01*
X0225277Y0164924D01*
X0225376Y0164776D01*
X0225524Y0164676D01*
X0225700Y0164641D01*
X0225876Y0164676D01*
X0226024Y0164776D01*
X0226124Y0164924D01*
X0226159Y0165100D01*
X0226124Y0165276D01*
X0226024Y0165424D01*
X0225876Y0165524D01*
X0225748Y0165549D01*
X0225716Y0165703D01*
X0225824Y0165776D01*
X0225923Y0165924D01*
X0225928Y0165924D01*
X0226072D01*
X0226077Y0165924D01*
X0226176Y0165776D01*
X0226324Y0165676D01*
X0226500Y0165641D01*
X0226676Y0165676D01*
X0226824Y0165776D01*
X0226924Y0165924D01*
X0226959Y0166100D01*
X0226924Y0166276D01*
X0226824Y0166424D01*
X0226676Y0166524D01*
X0226500Y0166559D01*
X0226388Y0166537D01*
X0223629Y0169295D01*
Y0170400D01*
X0223629Y0170400D01*
X0223615Y0170473D01*
X0223612Y0170488D01*
X0223562Y0170562D01*
X0223131Y0170994D01*
X0223182Y0171117D01*
X0223206Y0171300D01*
X0223182Y0171483D01*
X0223111Y0171653D01*
X0222999Y0171799D01*
X0222853Y0171911D01*
X0222683Y0171982D01*
X0222500Y0172006D01*
X0222317Y0171982D01*
X0222147Y0171911D01*
X0222001Y0171799D01*
X0221889Y0171653D01*
X0221837Y0171529D01*
X0221595D01*
X0220862Y0172262D01*
X0220788Y0172312D01*
X0220700Y0172329D01*
X0215595D01*
X0214762Y0173162D01*
X0214688Y0173212D01*
X0214600Y0173229D01*
X0212974D01*
X0212894Y0173379D01*
X0212924Y0173424D01*
X0212959Y0173600D01*
X0212924Y0173776D01*
X0212824Y0173924D01*
X0212676Y0174024D01*
X0212500Y0174059D01*
D02*
G37*
G36*
X0240900Y0167895D02*
Y0167100D01*
X0241695D01*
X0241677Y0167235D01*
X0241586Y0167454D01*
X0241442Y0167642D01*
X0241254Y0167786D01*
X0241035Y0167877D01*
X0240900Y0167895D01*
D02*
G37*
%LPD*%
G36*
X0216196Y0163521D02*
X0213938Y0161262D01*
X0213888Y0161188D01*
X0213871Y0161100D01*
Y0160495D01*
X0211105Y0157729D01*
X0210888D01*
X0210824Y0157824D01*
X0210676Y0157924D01*
X0210500Y0157959D01*
X0210388Y0157937D01*
X0205937Y0162387D01*
X0205863Y0162437D01*
X0205775Y0162454D01*
X0201070D01*
X0200762Y0162762D01*
X0200688Y0162812D01*
X0200600Y0162829D01*
X0200512D01*
X0200498Y0162869D01*
X0200487Y0162979D01*
X0200537Y0163013D01*
X0200895Y0163371D01*
X0207105D01*
X0207338Y0163138D01*
X0207412Y0163088D01*
X0207500Y0163071D01*
X0207500Y0163071D01*
X0207897D01*
X0207979Y0162947D01*
X0207975Y0162921D01*
X0207941Y0162750D01*
X0207976Y0162574D01*
X0208076Y0162426D01*
X0208224Y0162326D01*
X0208400Y0162291D01*
X0208576Y0162326D01*
X0208724Y0162426D01*
X0208824Y0162574D01*
X0208859Y0162750D01*
X0208825Y0162921D01*
X0208821Y0162947D01*
X0208903Y0163071D01*
X0209900D01*
X0209988Y0163088D01*
X0210062Y0163138D01*
X0210595Y0163671D01*
X0216134D01*
X0216196Y0163521D01*
D02*
G37*
G36*
X0226000Y0170100D02*
X0227700Y0170100D01*
X0229100Y0168700D01*
X0233500Y0168700D01*
X0235000Y0167200D01*
X0238559Y0167200D01*
X0238576Y0167176D01*
X0238600Y0167159D01*
Y0166341D01*
X0238576Y0166324D01*
X0238476Y0166176D01*
X0238441Y0166000D01*
X0238476Y0165824D01*
X0238576Y0165676D01*
X0238600Y0165659D01*
Y0164800D01*
X0233600D01*
X0232600Y0165800D01*
X0231500Y0166900D01*
X0227600D01*
X0227200Y0167300D01*
X0226300D01*
X0225000Y0168600D01*
X0224600Y0169000D01*
Y0169089D01*
X0224624Y0169124D01*
X0224659Y0169300D01*
X0224624Y0169476D01*
X0224600Y0169511D01*
Y0170100D01*
Y0170500D01*
X0225600D01*
X0226000Y0170100D01*
D02*
G37*
G36*
X0220273Y0162943D02*
X0220201Y0162769D01*
X0220173Y0162560D01*
X0220201Y0162351D01*
X0220281Y0162157D01*
X0220409Y0161989D01*
X0220577Y0161861D01*
X0220610Y0161847D01*
X0220641Y0161672D01*
X0220576Y0161576D01*
X0220541Y0161400D01*
X0220576Y0161224D01*
X0220676Y0161076D01*
X0220824Y0160976D01*
X0220880Y0160965D01*
X0220875Y0160813D01*
X0220771Y0160799D01*
X0220668Y0160757D01*
X0219837Y0161588D01*
X0219859Y0161700D01*
X0219824Y0161876D01*
X0219724Y0162024D01*
X0219576Y0162124D01*
X0219400Y0162159D01*
X0219288Y0162137D01*
X0218962Y0162462D01*
X0218888Y0162512D01*
X0218800Y0162529D01*
X0216100D01*
X0216100Y0162529D01*
X0216058Y0162521D01*
X0216005Y0162587D01*
X0215984Y0162659D01*
X0216595Y0163271D01*
X0219945D01*
X0220273Y0162943D01*
D02*
G37*
G36*
X0221869Y0169606D02*
X0221818Y0169483D01*
X0221794Y0169300D01*
X0221818Y0169117D01*
X0221889Y0168947D01*
X0222001Y0168801D01*
X0222147Y0168689D01*
X0222317Y0168618D01*
X0222500Y0168594D01*
X0222683Y0168618D01*
X0222806Y0168669D01*
X0223006Y0168470D01*
X0222951Y0168348D01*
X0222934Y0168329D01*
X0221795D01*
X0221131Y0168994D01*
X0221182Y0169117D01*
X0221206Y0169300D01*
X0221182Y0169483D01*
X0221111Y0169653D01*
X0220999Y0169799D01*
X0220853Y0169911D01*
X0220683Y0169982D01*
X0220500Y0170006D01*
X0220317Y0169982D01*
X0220194Y0169931D01*
X0219962Y0170162D01*
X0219888Y0170212D01*
X0219800Y0170229D01*
X0215109D01*
X0215019Y0170340D01*
X0215075Y0170471D01*
X0215900D01*
X0215988Y0170488D01*
X0216062Y0170538D01*
X0216795Y0171271D01*
X0220205D01*
X0221869Y0169606D01*
D02*
G37*
%LPC*%
G36*
X0212000Y0160759D02*
X0211824Y0160724D01*
X0211676Y0160624D01*
X0211576Y0160476D01*
X0211541Y0160300D01*
X0211576Y0160124D01*
X0211662Y0159996D01*
X0211676Y0159930D01*
Y0159870D01*
X0211662Y0159804D01*
X0211576Y0159676D01*
X0211541Y0159500D01*
X0211576Y0159324D01*
X0211676Y0159176D01*
X0211824Y0159076D01*
X0212000Y0159041D01*
X0212176Y0159076D01*
X0212324Y0159176D01*
X0212424Y0159324D01*
X0212459Y0159500D01*
X0212424Y0159676D01*
X0212338Y0159804D01*
X0212324Y0159870D01*
Y0159930D01*
X0212338Y0159996D01*
X0212424Y0160124D01*
X0212459Y0160300D01*
X0212424Y0160476D01*
X0212324Y0160624D01*
X0212176Y0160724D01*
X0212000Y0160759D01*
D02*
G37*
G36*
X0227500Y0169059D02*
X0227324Y0169024D01*
X0227176Y0168924D01*
X0227076Y0168776D01*
X0227041Y0168600D01*
X0227076Y0168424D01*
X0227176Y0168276D01*
X0227324Y0168176D01*
X0227500Y0168141D01*
X0227676Y0168176D01*
X0227824Y0168276D01*
X0227924Y0168424D01*
X0227959Y0168600D01*
X0227924Y0168776D01*
X0227824Y0168924D01*
X0227676Y0169024D01*
X0227500Y0169059D01*
D02*
G37*
%LPD*%
D33*
X0220500Y0169300D02*
D03*
X0222500Y0171300D02*
D03*
X0220900Y0166100D02*
D03*
X0222500Y0169300D02*
D03*
D45*
X0212700Y0164700D02*
X0221700D01*
X0212500Y0164900D02*
X0212700Y0164700D01*
X0213200Y0165500D02*
X0215200D01*
X0212500Y0166200D02*
X0213200Y0165500D01*
X0210800Y0166200D02*
X0212500D01*
X0218700Y0166400D02*
X0219000Y0166100D01*
X0217000Y0166400D02*
X0218700D01*
X0216700Y0166100D02*
X0217000Y0166400D01*
X0219000Y0166100D02*
X0220900D01*
X0215800D02*
X0216700D01*
X0220900D02*
X0222599D01*
X0221000Y0163900D02*
X0221800Y0163100D01*
X0210500Y0163900D02*
X0221000D01*
X0209900Y0163300D02*
X0210500Y0163900D01*
X0221500Y0171300D02*
X0222500D01*
X0220700Y0172100D02*
X0221500Y0171300D01*
X0221700Y0164700D02*
X0222400Y0164000D01*
X0215200Y0165500D02*
X0215800Y0166100D01*
X0207800Y0171900D02*
X0208300Y0172400D01*
X0214300D01*
X0215400Y0171300D01*
X0207200Y0171900D02*
X0207800D01*
X0206000Y0173100D02*
X0207200Y0171900D01*
X0202300Y0173100D02*
X0206000D01*
X0213100Y0170200D02*
X0214000Y0169300D01*
X0204710Y0170200D02*
X0213100D01*
X0202750Y0172160D02*
X0204710Y0170200D01*
X0213600Y0170700D02*
X0215135Y0169165D01*
X0205200Y0170700D02*
X0213600D01*
X0203200Y0172700D02*
X0205200Y0170700D01*
X0215135Y0169165D02*
X0216535D01*
X0213000Y0168700D02*
X0214840D01*
X0212340Y0167640D02*
X0213360D01*
X0212000Y0167300D02*
X0212340Y0167640D01*
X0200300Y0170500D02*
X0202500Y0172700D01*
X0200300Y0168100D02*
Y0170500D01*
X0199700Y0170500D02*
X0202300Y0173100D01*
X0199700Y0167400D02*
Y0170500D01*
X0209900Y0168600D02*
Y0169400D01*
X0209700Y0167300D02*
Y0168400D01*
X0209900Y0168600D01*
Y0168700D01*
X0209700Y0167300D02*
X0210800Y0166200D01*
X0202500Y0172700D02*
X0203200D01*
X0210820Y0167640D02*
X0211100Y0167920D01*
Y0168700D01*
X0214840D02*
X0215900Y0167640D01*
X0208280Y0167580D02*
Y0167640D01*
X0207500Y0166800D02*
X0208280Y0167580D01*
X0199100Y0164300D02*
X0200400D01*
X0197360Y0162560D02*
X0199100Y0164300D01*
X0195580Y0162560D02*
X0197360D01*
X0214100Y0161100D02*
X0216500Y0163500D01*
X0214100Y0160400D02*
Y0161100D01*
X0211200Y0157500D02*
X0214100Y0160400D01*
X0216500Y0163500D02*
X0220040D01*
X0216100Y0162300D02*
X0218800D01*
X0214700Y0160900D02*
X0216100Y0162300D01*
X0214700Y0160200D02*
Y0160900D01*
X0211400Y0156900D02*
X0214700Y0160200D01*
X0209400Y0156900D02*
X0211400D01*
X0210500Y0157500D02*
X0211200D01*
X0205775Y0162225D02*
X0210500Y0157500D01*
X0200975Y0162225D02*
X0205775D01*
X0208800Y0157500D02*
X0209400Y0156900D01*
X0204500Y0161800D02*
Y0161800D01*
Y0161800D02*
X0208800Y0157500D01*
X0200200Y0161800D02*
X0204500D01*
X0207500Y0163300D02*
X0209900D01*
X0207200Y0163600D02*
X0207500Y0163300D01*
X0200800Y0163600D02*
X0207200D01*
X0220040Y0163500D02*
X0220980Y0162560D01*
X0220075Y0156525D02*
X0232725D01*
X0215700Y0160900D02*
X0220075Y0156525D01*
X0199600Y0162600D02*
X0200600D01*
X0200975Y0162225D01*
X0200400Y0160600D02*
X0202750D01*
X0199000Y0162000D02*
X0200400Y0160600D01*
X0199000Y0162000D02*
Y0162900D01*
X0199275Y0163175D01*
X0200375D01*
X0200800Y0163600D01*
X0232725Y0156525D02*
X0238760Y0162560D01*
X0220980D02*
X0221000Y0162540D01*
Y0161400D02*
Y0162540D01*
Y0161400D02*
X0225600D01*
X0220980Y0160020D02*
Y0160120D01*
Y0160020D02*
X0221960Y0161000D01*
X0226200D01*
X0225600Y0161400D02*
X0226300Y0162100D01*
X0226200Y0161000D02*
X0227300Y0162100D01*
X0219400Y0161700D02*
X0220980Y0160120D01*
X0189800Y0162200D02*
Y0169300D01*
X0218800Y0162300D02*
X0219400Y0161700D01*
X0222599Y0166100D02*
X0223600Y0165100D01*
X0200400Y0164300D02*
X0201100Y0165000D01*
X0207000D01*
X0207500Y0165500D01*
X0238760Y0162560D02*
X0240800Y0163000D01*
X0219800Y0170000D02*
X0220500Y0169300D01*
X0215000Y0170000D02*
X0219800D01*
X0208800Y0171800D02*
X0213900D01*
X0205700Y0172500D02*
X0207000Y0171200D01*
X0213800D01*
X0215000Y0170000D01*
X0216700Y0171500D02*
X0220300D01*
X0222500Y0169300D01*
X0213900Y0171800D02*
X0215000Y0170700D01*
X0215900D01*
X0216700Y0171500D01*
X0222500Y0171300D02*
X0223400Y0170400D01*
X0220500Y0169300D02*
X0221700Y0168100D01*
X0224700Y0166000D02*
Y0166342D01*
X0222942Y0168100D02*
X0224700Y0166342D01*
X0221700Y0168100D02*
X0222942D01*
X0225500Y0166100D02*
Y0166300D01*
X0222500Y0169300D02*
X0225500Y0166300D01*
X0223400Y0169200D02*
Y0170400D01*
Y0169200D02*
X0226500Y0166100D01*
X0224700Y0166000D02*
X0225600Y0165100D01*
X0225700D01*
X0221800Y0163100D02*
X0223300D01*
X0224700Y0164500D01*
Y0165100D01*
X0208800Y0173000D02*
X0214600D01*
X0215500Y0172100D01*
X0220700D01*
X0188500Y0161200D02*
X0188900Y0160800D01*
X0193820D01*
X0195580Y0162560D01*
X0189800Y0162200D02*
X0190500Y0161500D01*
X0119000Y0061000D02*
Y0059500D01*
X0119857D01*
X0121164D02*
X0120593Y0061000D01*
X0120021Y0059500D01*
X0120235Y0060000D02*
X0120950D01*
X0121514Y0061000D02*
X0122085Y0060286D01*
Y0059500D01*
X0122656Y0061000D02*
X0122085Y0060286D01*
X0123778Y0061000D02*
X0122849D01*
Y0059500D01*
X0123778D01*
X0122849Y0060286D02*
X0123420D01*
X0124027Y0061000D02*
Y0059500D01*
Y0061000D02*
X0124670D01*
X0124884Y0060928D01*
X0124956Y0060857D01*
X0125027Y0060714D01*
Y0060571D01*
X0124956Y0060428D01*
X0124884Y0060357D01*
X0124670Y0060286D01*
X0124027D01*
X0124527D02*
X0125027Y0059500D01*
X0127255Y0061000D02*
X0126541Y0060000D01*
X0127612D01*
X0127255Y0061000D02*
Y0059500D01*
X0129555Y0061285D02*
X0129412Y0061143D01*
X0129269Y0060928D01*
X0129126Y0060643D01*
X0129055Y0060286D01*
Y0060000D01*
X0129126Y0059643D01*
X0129269Y0059357D01*
X0129412Y0059143D01*
X0129555Y0059000D01*
X0129412Y0061143D02*
X0129269Y0060857D01*
X0129198Y0060643D01*
X0129126Y0060286D01*
Y0060000D01*
X0129198Y0059643D01*
X0129269Y0059429D01*
X0129412Y0059143D01*
X0129841Y0061000D02*
Y0059500D01*
Y0061000D02*
X0130483D01*
X0130697Y0060928D01*
X0130769Y0060857D01*
X0130840Y0060714D01*
Y0060571D01*
X0130769Y0060428D01*
X0130697Y0060357D01*
X0130483Y0060286D01*
X0129841D02*
X0130483D01*
X0130697Y0060214D01*
X0130769Y0060143D01*
X0130840Y0060000D01*
Y0059786D01*
X0130769Y0059643D01*
X0130697Y0059571D01*
X0130483Y0059500D01*
X0129841D01*
X0131604Y0061000D02*
X0131462Y0060928D01*
X0131319Y0060785D01*
X0131247Y0060643D01*
X0131176Y0060428D01*
Y0060071D01*
X0131247Y0059857D01*
X0131319Y0059714D01*
X0131462Y0059571D01*
X0131604Y0059500D01*
X0131890D01*
X0132033Y0059571D01*
X0132176Y0059714D01*
X0132247Y0059857D01*
X0132319Y0060071D01*
Y0060428D01*
X0132247Y0060643D01*
X0132176Y0060785D01*
X0132033Y0060928D01*
X0131890Y0061000D01*
X0131604D01*
X0133168D02*
Y0059500D01*
X0132669Y0061000D02*
X0133668D01*
X0134347D02*
Y0059500D01*
X0133847Y0061000D02*
X0134847D01*
X0135454D02*
X0135311Y0060928D01*
X0135168Y0060785D01*
X0135097Y0060643D01*
X0135025Y0060428D01*
Y0060071D01*
X0135097Y0059857D01*
X0135168Y0059714D01*
X0135311Y0059571D01*
X0135454Y0059500D01*
X0135739D01*
X0135882Y0059571D01*
X0136025Y0059714D01*
X0136096Y0059857D01*
X0136168Y0060071D01*
Y0060428D01*
X0136096Y0060643D01*
X0136025Y0060785D01*
X0135882Y0060928D01*
X0135739Y0061000D01*
X0135454D01*
X0136518D02*
Y0059500D01*
Y0061000D02*
X0137089Y0059500D01*
X0137660Y0061000D02*
X0137089Y0059500D01*
X0137660Y0061000D02*
Y0059500D01*
X0138089Y0061285D02*
X0138232Y0061143D01*
X0138374Y0060928D01*
X0138517Y0060643D01*
X0138589Y0060286D01*
Y0060000D01*
X0138517Y0059643D01*
X0138374Y0059357D01*
X0138232Y0059143D01*
X0138089Y0059000D01*
X0138232Y0061143D02*
X0138374Y0060857D01*
X0138446Y0060643D01*
X0138517Y0060286D01*
Y0060000D01*
X0138446Y0059643D01*
X0138374Y0059429D01*
X0138232Y0059143D01*
X0180000Y0145500D02*
Y0144000D01*
X0180857D01*
X0182164D02*
X0181593Y0145500D01*
X0181021Y0144000D01*
X0181235Y0144500D02*
X0181950D01*
X0182514Y0145500D02*
X0183085Y0144786D01*
Y0144000D01*
X0183656Y0145500D02*
X0183085Y0144786D01*
X0184778Y0145500D02*
X0183849D01*
Y0144000D01*
X0184778D01*
X0183849Y0144786D02*
X0184420D01*
X0185027Y0145500D02*
Y0144000D01*
Y0145500D02*
X0185670D01*
X0185884Y0145428D01*
X0185956Y0145357D01*
X0186027Y0145214D01*
Y0145071D01*
X0185956Y0144928D01*
X0185884Y0144857D01*
X0185670Y0144786D01*
X0185027D01*
X0185527D02*
X0186027Y0144000D01*
X0188255Y0145500D02*
X0187541Y0144500D01*
X0188612D01*
X0188255Y0145500D02*
Y0144000D01*
X0190555Y0145785D02*
X0190412Y0145643D01*
X0190269Y0145428D01*
X0190126Y0145143D01*
X0190055Y0144786D01*
Y0144500D01*
X0190126Y0144143D01*
X0190269Y0143857D01*
X0190412Y0143643D01*
X0190555Y0143500D01*
X0190412Y0145643D02*
X0190269Y0145357D01*
X0190198Y0145143D01*
X0190126Y0144786D01*
Y0144500D01*
X0190198Y0144143D01*
X0190269Y0143929D01*
X0190412Y0143643D01*
X0190841Y0145500D02*
Y0144000D01*
Y0145500D02*
X0191483D01*
X0191697Y0145428D01*
X0191769Y0145357D01*
X0191840Y0145214D01*
Y0145071D01*
X0191769Y0144928D01*
X0191697Y0144857D01*
X0191483Y0144786D01*
X0190841D02*
X0191483D01*
X0191697Y0144714D01*
X0191769Y0144643D01*
X0191840Y0144500D01*
Y0144286D01*
X0191769Y0144143D01*
X0191697Y0144071D01*
X0191483Y0144000D01*
X0190841D01*
X0192604Y0145500D02*
X0192462Y0145428D01*
X0192319Y0145285D01*
X0192247Y0145143D01*
X0192176Y0144928D01*
Y0144571D01*
X0192247Y0144357D01*
X0192319Y0144214D01*
X0192462Y0144071D01*
X0192604Y0144000D01*
X0192890D01*
X0193033Y0144071D01*
X0193176Y0144214D01*
X0193247Y0144357D01*
X0193319Y0144571D01*
Y0144928D01*
X0193247Y0145143D01*
X0193176Y0145285D01*
X0193033Y0145428D01*
X0192890Y0145500D01*
X0192604D01*
X0194168D02*
Y0144000D01*
X0193669Y0145500D02*
X0194668D01*
X0195347D02*
Y0144000D01*
X0194847Y0145500D02*
X0195847D01*
X0196454D02*
X0196311Y0145428D01*
X0196168Y0145285D01*
X0196097Y0145143D01*
X0196025Y0144928D01*
Y0144571D01*
X0196097Y0144357D01*
X0196168Y0144214D01*
X0196311Y0144071D01*
X0196454Y0144000D01*
X0196739D01*
X0196882Y0144071D01*
X0197025Y0144214D01*
X0197096Y0144357D01*
X0197168Y0144571D01*
Y0144928D01*
X0197096Y0145143D01*
X0197025Y0145285D01*
X0196882Y0145428D01*
X0196739Y0145500D01*
X0196454D01*
X0197518D02*
Y0144000D01*
Y0145500D02*
X0198089Y0144000D01*
X0198660Y0145500D02*
X0198089Y0144000D01*
X0198660Y0145500D02*
Y0144000D01*
X0199089Y0145785D02*
X0199232Y0145643D01*
X0199374Y0145428D01*
X0199517Y0145143D01*
X0199589Y0144786D01*
Y0144500D01*
X0199517Y0144143D01*
X0199374Y0143857D01*
X0199232Y0143643D01*
X0199089Y0143500D01*
X0199232Y0145643D02*
X0199374Y0145357D01*
X0199446Y0145143D01*
X0199517Y0144786D01*
Y0144500D01*
X0199446Y0144143D01*
X0199374Y0143929D01*
X0199232Y0143643D01*
X0180714Y0147500D02*
Y0146357D01*
X0180643Y0146143D01*
X0180571Y0146071D01*
X0180428Y0146000D01*
X0180286D01*
X0180143Y0146071D01*
X0180071Y0146143D01*
X0180000Y0146357D01*
Y0146500D01*
X0182171Y0147143D02*
X0182100Y0147285D01*
X0181957Y0147428D01*
X0181814Y0147500D01*
X0181528D01*
X0181385Y0147428D01*
X0181243Y0147285D01*
X0181171Y0147143D01*
X0181100Y0146928D01*
Y0146571D01*
X0181171Y0146357D01*
X0181243Y0146214D01*
X0181385Y0146071D01*
X0181528Y0146000D01*
X0181814D01*
X0181957Y0146071D01*
X0182100Y0146214D01*
X0182171Y0146357D01*
Y0146571D01*
X0181814D02*
X0182171D01*
X0182514Y0147500D02*
Y0146000D01*
Y0147500D02*
X0183156D01*
X0183371Y0147428D01*
X0183442Y0147357D01*
X0183514Y0147214D01*
Y0147071D01*
X0183442Y0146928D01*
X0183371Y0146857D01*
X0183156Y0146786D01*
X0182514D02*
X0183156D01*
X0183371Y0146714D01*
X0183442Y0146643D01*
X0183514Y0146500D01*
Y0146286D01*
X0183442Y0146143D01*
X0183371Y0146071D01*
X0183156Y0146000D01*
X0182514D01*
X0184278Y0147500D02*
X0184063Y0147428D01*
X0183921Y0147214D01*
X0183849Y0146857D01*
Y0146643D01*
X0183921Y0146286D01*
X0184063Y0146071D01*
X0184278Y0146000D01*
X0184420D01*
X0184635Y0146071D01*
X0184778Y0146286D01*
X0184849Y0146643D01*
Y0146857D01*
X0184778Y0147214D01*
X0184635Y0147428D01*
X0184420Y0147500D01*
X0184278D01*
X0185613D02*
X0185399Y0147428D01*
X0185256Y0147214D01*
X0185185Y0146857D01*
Y0146643D01*
X0185256Y0146286D01*
X0185399Y0146071D01*
X0185613Y0146000D01*
X0185756D01*
X0185970Y0146071D01*
X0186113Y0146286D01*
X0186184Y0146643D01*
Y0146857D01*
X0186113Y0147214D01*
X0185970Y0147428D01*
X0185756Y0147500D01*
X0185613D01*
X0186949D02*
X0186734Y0147428D01*
X0186591Y0147214D01*
X0186520Y0146857D01*
Y0146643D01*
X0186591Y0146286D01*
X0186734Y0146071D01*
X0186949Y0146000D01*
X0187091D01*
X0187306Y0146071D01*
X0187448Y0146286D01*
X0187520Y0146643D01*
Y0146857D01*
X0187448Y0147214D01*
X0187306Y0147428D01*
X0187091Y0147500D01*
X0186949D01*
X0187855Y0147214D02*
X0187998Y0147285D01*
X0188213Y0147500D01*
Y0146000D01*
X0190134Y0146857D02*
X0191419D01*
X0190134Y0146428D02*
X0191419D01*
X0193111Y0147143D02*
Y0147214D01*
X0193183Y0147357D01*
X0193254Y0147428D01*
X0193397Y0147500D01*
X0193683D01*
X0193826Y0147428D01*
X0193897Y0147357D01*
X0193968Y0147214D01*
Y0147071D01*
X0193897Y0146928D01*
X0193754Y0146714D01*
X0193040Y0146000D01*
X0194040D01*
X0194375Y0147500D02*
X0194947Y0146000D01*
X0195518Y0147500D02*
X0194947Y0146000D01*
X0195711Y0147214D02*
X0195854Y0147285D01*
X0196068Y0147500D01*
Y0146000D01*
X0197989Y0146857D02*
X0199274D01*
X0197989Y0146428D02*
X0199274D01*
X0200967Y0147143D02*
Y0147214D01*
X0201038Y0147357D01*
X0201110Y0147428D01*
X0201253Y0147500D01*
X0201538D01*
X0201681Y0147428D01*
X0201752Y0147357D01*
X0201824Y0147214D01*
Y0147071D01*
X0201752Y0146928D01*
X0201610Y0146714D01*
X0200896Y0146000D01*
X0201895D01*
X0203231Y0147500D02*
X0202517Y0146000D01*
X0202231Y0147500D02*
X0203231D01*
X0204745D02*
Y0146000D01*
Y0147500D02*
X0205316Y0146000D01*
X0205887Y0147500D02*
X0205316Y0146000D01*
X0205887Y0147500D02*
Y0146000D01*
X0207458D02*
X0206887Y0147500D01*
X0206316Y0146000D01*
X0206530Y0146500D02*
X0207244D01*
X0207808Y0147500D02*
X0208380Y0146786D01*
Y0146000D01*
X0208951Y0147500D02*
X0208380Y0146786D01*
X0210393Y0147143D02*
Y0147214D01*
X0210465Y0147357D01*
X0210536Y0147428D01*
X0210679Y0147500D01*
X0210965D01*
X0211108Y0147428D01*
X0211179Y0147357D01*
X0211250Y0147214D01*
Y0147071D01*
X0211179Y0146928D01*
X0211036Y0146714D01*
X0210322Y0146000D01*
X0211322D01*
X0212086Y0147500D02*
X0211872Y0147428D01*
X0211729Y0147214D01*
X0211658Y0146857D01*
Y0146643D01*
X0211729Y0146286D01*
X0211872Y0146071D01*
X0212086Y0146000D01*
X0212229D01*
X0212443Y0146071D01*
X0212586Y0146286D01*
X0212657Y0146643D01*
Y0146857D01*
X0212586Y0147214D01*
X0212443Y0147428D01*
X0212229Y0147500D01*
X0212086D01*
X0212993Y0147214D02*
X0213136Y0147285D01*
X0213350Y0147500D01*
Y0146000D01*
X0214950Y0147500D02*
X0214236D01*
X0214164Y0146857D01*
X0214236Y0146928D01*
X0214450Y0147000D01*
X0214664D01*
X0214878Y0146928D01*
X0215021Y0146786D01*
X0215092Y0146571D01*
Y0146428D01*
X0215021Y0146214D01*
X0214878Y0146071D01*
X0214664Y0146000D01*
X0214450D01*
X0214236Y0146071D01*
X0214164Y0146143D01*
X0214093Y0146286D01*
D46*
X0221500Y0172800D02*
X0223600D01*
X0227420Y0160020D02*
X0228100Y0160700D01*
X0226060Y0160020D02*
X0227420D01*
X0230200Y0160700D02*
X0230200Y0160700D01*
X0244160Y0167640D02*
X0246380D01*
X0243900Y0167900D02*
X0244160Y0167640D01*
X0246380Y0162560D02*
X0247140Y0161800D01*
X0249800D01*
X0234000Y0170900D02*
X0241900D01*
X0223600Y0172800D02*
X0224900Y0171500D01*
X0233400D01*
X0234000Y0170900D01*
D48*
X0198120Y0165100D02*
X0198450D01*
X0199600Y0166250D01*
X0195580Y0170180D02*
X0195660Y0170100D01*
X0197000D01*
D49*
X0188280Y0172400D02*
X0190500Y0170180D01*
X0186500Y0172400D02*
X0188280D01*
D52*
X0191325Y0164425D02*
X0191550Y0164650D01*
X0191325Y0165225D02*
X0191550Y0165000D01*
X0191550Y0164650D02*
X0192220D01*
X0193175Y0165605D01*
X0191550Y0165000D02*
X0192075D01*
X0192825Y0165750D01*
X0192600Y0166400D02*
X0192825Y0166175D01*
Y0165750D02*
Y0166175D01*
X0193175Y0165605D02*
Y0166175D01*
X0193400Y0166400D01*
D61*
X0240800Y0165000D02*
D03*
Y0167000D02*
D03*
Y0163000D02*
D03*
D62*
X0243900Y0167900D02*
D03*
X0249900Y0168400D02*
D03*
X0253400Y0168900D02*
D03*
X0249800Y0161800D02*
D03*
X0253200D02*
D03*
D63*
X0181425Y0161700D02*
D03*
Y0168300D02*
D03*
D64*
X0212500Y0164900D02*
D03*
X0218900Y0165300D02*
D03*
X0241900Y0170900D02*
D03*
X0226500Y0166100D02*
D03*
X0212500Y0173600D02*
D03*
X0219000Y0168700D02*
D03*
X0208800Y0173000D02*
D03*
X0212000Y0167300D02*
D03*
Y0168300D02*
D03*
X0200300Y0168100D02*
D03*
X0199700Y0167400D02*
D03*
X0215400Y0171300D02*
D03*
X0209900Y0169400D02*
D03*
X0216535Y0169165D02*
D03*
X0204700Y0173700D02*
D03*
X0205700Y0172500D02*
D03*
X0202750Y0172160D02*
D03*
X0214000Y0169300D02*
D03*
X0213000Y0168700D02*
D03*
X0207400Y0173500D02*
D03*
Y0172500D02*
D03*
X0211400Y0173700D02*
D03*
X0210500Y0157500D02*
D03*
X0208800D02*
D03*
X0212000Y0160300D02*
D03*
Y0159500D02*
D03*
X0208400Y0164750D02*
D03*
X0208300Y0163900D02*
D03*
X0222200Y0162100D02*
D03*
X0225200Y0159000D02*
D03*
X0192000Y0171300D02*
D03*
X0192900D02*
D03*
X0191800Y0156500D02*
D03*
X0188100Y0159100D02*
D03*
X0191300Y0167900D02*
D03*
X0197300Y0173700D02*
D03*
X0190800D02*
D03*
X0181500Y0169800D02*
D03*
X0191100Y0171300D02*
D03*
X0181400Y0160200D02*
D03*
X0188100Y0157100D02*
D03*
X0190200Y0159900D02*
D03*
X0191800Y0158700D02*
D03*
X0216100Y0159000D02*
D03*
X0213000Y0157100D02*
D03*
X0218200D02*
D03*
X0251600Y0160700D02*
D03*
X0243700Y0162500D02*
D03*
X0244400Y0173100D02*
D03*
X0245800Y0170500D02*
D03*
X0245200Y0158500D02*
D03*
X0238700Y0161100D02*
D03*
Y0163800D02*
D03*
X0229100Y0161400D02*
D03*
X0230000Y0172900D02*
D03*
X0238900Y0158200D02*
D03*
X0233200Y0162300D02*
D03*
X0240000Y0170000D02*
D03*
X0223900Y0157200D02*
D03*
X0226100Y0164000D02*
D03*
X0218800Y0172900D02*
D03*
X0219500Y0170700D02*
D03*
X0211100Y0168700D02*
D03*
X0213500Y0162000D02*
D03*
X0211500Y0164800D02*
D03*
X0213300Y0166200D02*
D03*
X0203750Y0160600D02*
D03*
X0200800Y0172500D02*
D03*
Y0173500D02*
D03*
X0204500Y0172500D02*
D03*
X0199600Y0162600D02*
D03*
X0200200Y0161800D02*
D03*
X0202750Y0160600D02*
D03*
X0206500Y0156500D02*
D03*
Y0157500D02*
D03*
X0203000Y0156500D02*
D03*
X0199900Y0157500D02*
D03*
Y0156500D02*
D03*
X0221500Y0172800D02*
D03*
X0186000Y0164300D02*
D03*
X0188500Y0161200D02*
D03*
X0214700Y0157200D02*
D03*
X0230000Y0157100D02*
D03*
X0228100D02*
D03*
X0222300D02*
D03*
X0221000Y0161400D02*
D03*
X0189800Y0169300D02*
D03*
X0194800Y0163700D02*
D03*
X0199600Y0163750D02*
D03*
X0196500Y0160900D02*
D03*
X0195500D02*
D03*
X0219400Y0160700D02*
D03*
X0218600D02*
D03*
X0220800Y0157300D02*
D03*
X0194805Y0165300D02*
D03*
X0194800Y0168500D02*
D03*
Y0167500D02*
D03*
Y0166500D02*
D03*
X0199600Y0166250D02*
D03*
X0197000Y0170100D02*
D03*
Y0170900D02*
D03*
X0190700Y0166300D02*
D03*
X0188800Y0168000D02*
D03*
Y0168800D02*
D03*
X0186900Y0160400D02*
D03*
X0187500Y0161200D02*
D03*
X0193000Y0163500D02*
D03*
Y0162500D02*
D03*
Y0161500D02*
D03*
X0190500Y0162500D02*
D03*
X0186500Y0172400D02*
D03*
X0204700Y0165700D02*
D03*
X0203300D02*
D03*
X0206100D02*
D03*
X0201900D02*
D03*
X0201900Y0167100D02*
D03*
X0206100D02*
D03*
X0203300D02*
D03*
X0204700D02*
D03*
X0201900Y0164300D02*
D03*
X0206100D02*
D03*
X0203300D02*
D03*
X0204700D02*
D03*
X0201900Y0162900D02*
D03*
X0206100D02*
D03*
X0203300D02*
D03*
X0204700D02*
D03*
X0228800Y0163800D02*
D03*
X0191325Y0164425D02*
D03*
Y0165225D02*
D03*
X0192600Y0166400D02*
D03*
X0193400D02*
D03*
X0187700Y0167100D02*
D03*
X0238800Y0171800D02*
D03*
X0228700Y0172900D02*
D03*
X0227000Y0172200D02*
D03*
X0225900D02*
D03*
X0225200Y0162100D02*
D03*
X0226300D02*
D03*
X0227300D02*
D03*
X0222400Y0164000D02*
D03*
X0223600Y0165100D02*
D03*
X0215700Y0160900D02*
D03*
X0218400Y0161700D02*
D03*
X0216800Y0160900D02*
D03*
X0217800Y0165300D02*
D03*
Y0162900D02*
D03*
X0219400Y0161700D02*
D03*
X0238175Y0166750D02*
D03*
Y0165250D02*
D03*
X0237600Y0168700D02*
D03*
X0238900Y0167500D02*
D03*
Y0166000D02*
D03*
X0228100Y0160700D02*
D03*
X0230200Y0169300D02*
D03*
Y0160700D02*
D03*
X0231200Y0163800D02*
D03*
X0228800Y0165000D02*
D03*
X0228800Y0166200D02*
D03*
X0231200Y0165000D02*
D03*
X0231200Y0166200D02*
D03*
X0230000Y0163800D02*
D03*
X0230000Y0165000D02*
D03*
X0230000Y0166200D02*
D03*
X0227500Y0168600D02*
D03*
X0190500Y0161500D02*
D03*
X0215800Y0166100D02*
D03*
X0214900Y0166200D02*
D03*
X0208400Y0166250D02*
D03*
Y0162750D02*
D03*
X0207500Y0165500D02*
D03*
X0186600Y0169600D02*
D03*
X0182800Y0163700D02*
D03*
X0207500Y0166800D02*
D03*
X0208800Y0171800D02*
D03*
X0224000Y0166100D02*
D03*
X0225500D02*
D03*
X0225100Y0170200D02*
D03*
X0227700Y0172900D02*
D03*
X0224200Y0169300D02*
D03*
X0225700Y0165100D02*
D03*
X0224700D02*
D03*
X0187800Y0164300D02*
D03*
D73*
X0193040Y0170180D02*
D03*
X0195580Y0162560D02*
D03*
X0226060Y0160020D02*
D03*
X0198120Y0165100D02*
D03*
X0195580Y0170180D02*
D03*
X0246380Y0162560D02*
D03*
Y0167640D02*
D03*
X0238760Y0162560D02*
D03*
X0220980Y0160020D02*
D03*
Y0162560D02*
D03*
X0246380Y0157480D02*
D03*
X0187960Y0170180D02*
D03*
X0190500D02*
D03*
X0218440Y0167640D02*
D03*
X0208280D02*
D03*
X0210820D02*
D03*
X0215900D02*
D03*
X0213360D02*
D03*
M02*
