%FSAX43Y43*%
%MOMM*%
G71*
G01*
G75*
G04 Layer_Physical_Order=1*
G04 Layer_Color=255*
%ADD10R,0.590X0.600*%
%ADD11R,0.630X0.610*%
%ADD12R,0.600X0.590*%
%ADD13R,0.610X0.630*%
%ADD14R,0.590X1.910*%
%ADD15R,0.550X0.300*%
%ADD16R,1.210X0.590*%
%ADD17R,1.280X0.590*%
%ADD18R,1.090X0.400*%
%ADD19R,0.400X1.090*%
%ADD20R,1.520X0.330*%
%ADD21R,0.930X0.790*%
%ADD22R,1.600X0.280*%
%ADD23C,0.750*%
%ADD24R,5.500X5.500*%
%ADD25R,0.280X1.600*%
%ADD26R,3.700X3.700*%
%ADD27O,0.800X0.220*%
%ADD28O,0.220X0.800*%
%ADD29R,1.270X1.020*%
%ADD30R,0.910X0.930*%
%ADD31R,1.140X1.470*%
%ADD32R,1.000X0.970*%
%ADD33C,1.000*%
%ADD34R,0.400X0.350*%
%ADD35R,1.350X0.400*%
%ADD36R,1.600X1.900*%
%ADD37R,1.400X1.600*%
%ADD38R,1.800X1.230*%
%ADD39R,1.160X1.470*%
%ADD40R,0.930X0.920*%
%ADD41R,0.920X0.930*%
%ADD42R,1.470X1.160*%
%ADD43R,0.350X0.400*%
%ADD44C,0.250*%
%ADD45C,0.150*%
%ADD46C,0.300*%
%ADD47C,0.500*%
%ADD48C,0.280*%
%ADD49C,0.400*%
%ADD50C,0.220*%
%ADD51C,0.160*%
%ADD52C,0.200*%
%ADD53C,0.600*%
%ADD54C,0.800*%
%ADD55C,0.590*%
%ADD56C,0.260*%
%ADD57R,1.200X1.600*%
%ADD58R,1.600X1.100*%
%ADD59R,1.200X1.600*%
%ADD60R,1.100X1.600*%
%ADD61C,1.400*%
%ADD62C,2.200*%
G04:AMPARAMS|DCode=63|XSize=0.9mm|YSize=1.6mm|CornerRadius=0.45mm|HoleSize=0mm|Usage=FLASHONLY|Rotation=270.000|XOffset=0mm|YOffset=0mm|HoleType=Round|Shape=RoundedRectangle|*
%AMROUNDEDRECTD63*
21,1,0.900,0.700,0,0,270.0*
21,1,0.000,1.600,0,0,270.0*
1,1,0.900,-0.350,0.000*
1,1,0.900,-0.350,0.000*
1,1,0.900,0.350,0.000*
1,1,0.900,0.350,0.000*
%
%ADD63ROUNDEDRECTD63*%
%ADD64C,0.600*%
G36*
X0252383Y0174417D02*
X0252756Y0174328D01*
X0253111Y0174181D01*
X0253439Y0173980D01*
X0253731Y0173731D01*
X0253980Y0173439D01*
X0254181Y0173111D01*
X0254328Y0172756D01*
X0254417Y0172383D01*
X0254447Y0172011D01*
X0254445Y0172000D01*
Y0169890D01*
X0254295Y0169847D01*
X0254126Y0169986D01*
X0253900Y0170107D01*
X0253655Y0170181D01*
X0253400Y0170206D01*
X0253145Y0170181D01*
X0252900Y0170107D01*
X0252674Y0169986D01*
X0252476Y0169824D01*
X0252314Y0169626D01*
X0252193Y0169400D01*
X0252119Y0169155D01*
X0252094Y0168900D01*
X0252119Y0168645D01*
X0252193Y0168400D01*
X0252314Y0168174D01*
X0252476Y0167976D01*
X0252674Y0167814D01*
X0252900Y0167693D01*
X0253145Y0167619D01*
X0253400Y0167594D01*
X0253655Y0167619D01*
X0253900Y0167693D01*
X0254126Y0167814D01*
X0254295Y0167953D01*
X0254445Y0167910D01*
Y0162546D01*
X0254295Y0162509D01*
X0254286Y0162526D01*
X0254124Y0162724D01*
X0253926Y0162886D01*
X0253700Y0163007D01*
X0253455Y0163081D01*
X0253200Y0163106D01*
X0252945Y0163081D01*
X0252700Y0163007D01*
X0252474Y0162886D01*
X0252276Y0162724D01*
X0252114Y0162526D01*
X0251993Y0162300D01*
X0251919Y0162055D01*
X0251894Y0161800D01*
X0251919Y0161545D01*
X0251993Y0161300D01*
X0252114Y0161074D01*
X0252276Y0160876D01*
X0252474Y0160714D01*
X0252700Y0160593D01*
X0252945Y0160519D01*
X0253200Y0160494D01*
X0253455Y0160519D01*
X0253700Y0160593D01*
X0253926Y0160714D01*
X0254124Y0160876D01*
X0254286Y0161074D01*
X0254295Y0161091D01*
X0254445Y0161054D01*
Y0158000D01*
X0254447Y0157989D01*
X0254417Y0157617D01*
X0254328Y0157244D01*
X0254181Y0156889D01*
X0253980Y0156561D01*
X0253731Y0156269D01*
X0253439Y0156020D01*
X0253111Y0155819D01*
X0252756Y0155672D01*
X0252383Y0155583D01*
X0252011Y0155553D01*
X0252000Y0155555D01*
X0183000D01*
X0182989Y0155553D01*
X0182617Y0155583D01*
X0182244Y0155672D01*
X0181889Y0155819D01*
X0181561Y0156020D01*
X0181269Y0156269D01*
X0181020Y0156561D01*
X0180819Y0156889D01*
X0180672Y0157244D01*
X0180583Y0157617D01*
X0180553Y0157989D01*
X0180555Y0158000D01*
Y0161091D01*
X0180705Y0161165D01*
X0180747Y0161132D01*
X0180905Y0161067D01*
X0181075Y0161044D01*
X0181775D01*
X0181945Y0161067D01*
X0182103Y0161132D01*
X0182239Y0161236D01*
X0182343Y0161372D01*
X0182408Y0161530D01*
X0182431Y0161700D01*
X0182408Y0161870D01*
X0182343Y0162028D01*
X0182239Y0162164D01*
X0182103Y0162268D01*
X0181945Y0162333D01*
X0181775Y0162356D01*
X0181075D01*
X0180905Y0162333D01*
X0180747Y0162268D01*
X0180705Y0162235D01*
X0180555Y0162309D01*
Y0162650D01*
X0182425D01*
Y0164950D01*
X0182425D01*
Y0165050D01*
X0182425D01*
Y0167350D01*
X0180555D01*
Y0167691D01*
X0180705Y0167765D01*
X0180747Y0167732D01*
X0180905Y0167667D01*
X0181075Y0167644D01*
X0181775D01*
X0181945Y0167667D01*
X0182103Y0167732D01*
X0182239Y0167836D01*
X0182343Y0167972D01*
X0182408Y0168130D01*
X0182431Y0168300D01*
X0182408Y0168470D01*
X0182343Y0168628D01*
X0182239Y0168764D01*
X0182103Y0168868D01*
X0181945Y0168933D01*
X0181775Y0168956D01*
X0181075D01*
X0180905Y0168933D01*
X0180747Y0168868D01*
X0180705Y0168835D01*
X0180555Y0168909D01*
Y0172000D01*
X0180553Y0172011D01*
X0180583Y0172383D01*
X0180672Y0172756D01*
X0180819Y0173111D01*
X0181020Y0173439D01*
X0181269Y0173731D01*
X0181561Y0173980D01*
X0181889Y0174181D01*
X0182244Y0174328D01*
X0182617Y0174417D01*
X0182989Y0174447D01*
X0183000Y0174445D01*
X0252000D01*
X0252011Y0174447D01*
X0252383Y0174417D01*
D02*
G37*
%LPC*%
G36*
X0219665Y0158905D02*
X0219100D01*
Y0158345D01*
X0219665D01*
Y0158905D01*
D02*
G37*
G36*
X0222200D02*
X0221635D01*
Y0158345D01*
X0222200D01*
Y0158905D01*
D02*
G37*
G36*
X0238165Y0158775D02*
X0237600D01*
Y0158280D01*
X0238165D01*
Y0158775D01*
D02*
G37*
G36*
X0218900Y0158905D02*
X0218335D01*
Y0158345D01*
X0218900D01*
Y0158905D01*
D02*
G37*
G36*
X0236665D02*
X0236100D01*
Y0158345D01*
X0236665D01*
Y0158905D01*
D02*
G37*
G36*
X0190200Y0160359D02*
X0190024Y0160324D01*
X0189876Y0160224D01*
X0189776Y0160076D01*
X0189741Y0159900D01*
X0189772Y0159745D01*
X0189738Y0159653D01*
X0189707Y0159595D01*
X0189375D01*
Y0158605D01*
X0191055D01*
Y0159595D01*
X0190693D01*
X0190662Y0159653D01*
X0190628Y0159745D01*
X0190659Y0159900D01*
X0190624Y0160076D01*
X0190524Y0160224D01*
X0190376Y0160324D01*
X0190200Y0160359D01*
D02*
G37*
G36*
X0222965Y0158905D02*
X0222400D01*
Y0158345D01*
X0222965D01*
Y0158905D01*
D02*
G37*
G36*
X0228000D02*
X0227435D01*
Y0158345D01*
X0228000D01*
Y0158905D01*
D02*
G37*
G36*
X0237400Y0158775D02*
X0236835D01*
Y0158280D01*
X0237400D01*
Y0158775D01*
D02*
G37*
G36*
X0226355Y0158545D02*
X0225650D01*
Y0158150D01*
X0226355D01*
Y0158545D01*
D02*
G37*
G36*
X0227260D02*
X0226555D01*
Y0158150D01*
X0227260D01*
Y0158545D01*
D02*
G37*
G36*
X0217155D02*
X0216450D01*
Y0158150D01*
X0217155D01*
Y0158545D01*
D02*
G37*
G36*
X0218060D02*
X0217355D01*
Y0158150D01*
X0218060D01*
Y0158545D01*
D02*
G37*
G36*
X0188085Y0158645D02*
X0187345D01*
Y0158250D01*
X0188085D01*
Y0158645D01*
D02*
G37*
G36*
X0189025D02*
X0188285D01*
Y0158250D01*
X0189025D01*
Y0158645D01*
D02*
G37*
G36*
X0247400Y0158425D02*
X0247100D01*
Y0158150D01*
X0247400D01*
Y0158425D01*
D02*
G37*
G36*
X0247900D02*
X0247600D01*
Y0158150D01*
X0247900D01*
Y0158425D01*
D02*
G37*
G36*
X0195440Y0162215D02*
X0195035D01*
Y0161800D01*
X0195440D01*
Y0162215D01*
D02*
G37*
G36*
X0218165D02*
X0217760D01*
Y0161800D01*
X0218165D01*
Y0162215D01*
D02*
G37*
G36*
X0237155Y0162300D02*
X0236595D01*
Y0161735D01*
X0237155D01*
Y0162300D01*
D02*
G37*
G36*
X0237915D02*
X0237355D01*
Y0161735D01*
X0237915D01*
Y0162300D01*
D02*
G37*
G36*
Y0163065D02*
X0237355D01*
Y0162500D01*
X0237915D01*
Y0163065D01*
D02*
G37*
G36*
X0217700Y0163540D02*
X0217285D01*
Y0163135D01*
X0217700D01*
Y0163540D01*
D02*
G37*
G36*
X0240800Y0163908D02*
X0240565Y0163877D01*
X0240346Y0163786D01*
X0240158Y0163642D01*
X0240014Y0163454D01*
X0239923Y0163235D01*
X0239892Y0163000D01*
X0239923Y0162765D01*
X0240014Y0162546D01*
X0240158Y0162358D01*
X0240346Y0162214D01*
X0240565Y0162123D01*
X0240800Y0162092D01*
X0241035Y0162123D01*
X0241254Y0162214D01*
X0241442Y0162358D01*
X0241586Y0162546D01*
X0241677Y0162765D01*
X0241708Y0163000D01*
X0241677Y0163235D01*
X0241586Y0163454D01*
X0241442Y0163642D01*
X0241254Y0163786D01*
X0241035Y0163877D01*
X0240800Y0163908D01*
D02*
G37*
G36*
X0237155Y0163065D02*
X0236595D01*
Y0162500D01*
X0237155D01*
Y0163065D01*
D02*
G37*
G36*
X0195440Y0161600D02*
X0195035D01*
Y0161185D01*
X0195440D01*
Y0161600D01*
D02*
G37*
G36*
X0184775Y0162800D02*
X0182975D01*
Y0160800D01*
X0184195D01*
X0184243Y0160752D01*
Y0160440D01*
X0184270Y0160303D01*
X0184348Y0160188D01*
X0185035Y0159500D01*
Y0158985D01*
X0186360D01*
Y0159500D01*
X0186460D01*
Y0159600D01*
X0186965D01*
Y0160015D01*
X0186657D01*
X0186515Y0160035D01*
Y0160440D01*
X0185485D01*
Y0160256D01*
X0185346Y0160198D01*
X0184957Y0160588D01*
Y0160900D01*
X0184930Y0161037D01*
X0184852Y0161152D01*
X0184775Y0161230D01*
Y0162800D01*
D02*
G37*
G36*
X0186965Y0159400D02*
X0186560D01*
Y0158985D01*
X0186965D01*
Y0159400D01*
D02*
G37*
G36*
X0247400Y0158900D02*
X0247100D01*
Y0158625D01*
X0247400D01*
Y0158900D01*
D02*
G37*
G36*
X0247900D02*
X0247600D01*
Y0158625D01*
X0247900D01*
Y0158900D01*
D02*
G37*
G36*
X0192640Y0160665D02*
X0192085D01*
Y0160100D01*
X0192640D01*
Y0160665D01*
D02*
G37*
G36*
X0193395D02*
X0192840D01*
Y0160100D01*
X0193395D01*
Y0160665D01*
D02*
G37*
G36*
X0192640Y0159900D02*
X0192085D01*
Y0159335D01*
X0192640D01*
Y0159900D01*
D02*
G37*
G36*
X0193395D02*
X0192840D01*
Y0159335D01*
X0193395D01*
Y0159900D01*
D02*
G37*
G36*
X0246915Y0158440D02*
X0246500D01*
Y0158035D01*
X0246915D01*
Y0158440D01*
D02*
G37*
G36*
X0192640Y0157400D02*
X0192085D01*
Y0156835D01*
X0192640D01*
Y0157400D01*
D02*
G37*
G36*
X0193395D02*
X0192840D01*
Y0156835D01*
X0193395D01*
Y0157400D01*
D02*
G37*
G36*
X0215550Y0158545D02*
X0213940D01*
Y0157555D01*
X0214216D01*
X0214296Y0157405D01*
X0214276Y0157376D01*
X0214241Y0157200D01*
X0214276Y0157024D01*
X0214376Y0156876D01*
X0214524Y0156776D01*
X0214700Y0156741D01*
X0214876Y0156776D01*
X0215024Y0156876D01*
X0215124Y0157024D01*
X0215159Y0157200D01*
X0215124Y0157376D01*
X0215104Y0157405D01*
X0215184Y0157555D01*
X0215550D01*
Y0158545D01*
D02*
G37*
G36*
X0224750D02*
X0223140D01*
Y0157555D01*
X0223416D01*
X0223496Y0157405D01*
X0223476Y0157376D01*
X0223441Y0157200D01*
X0223476Y0157024D01*
X0223576Y0156876D01*
X0223724Y0156776D01*
X0223900Y0156741D01*
X0224076Y0156776D01*
X0224224Y0156876D01*
X0224324Y0157024D01*
X0224359Y0157200D01*
X0224324Y0157376D01*
X0224304Y0157405D01*
X0224384Y0157555D01*
X0224750D01*
Y0158545D01*
D02*
G37*
G36*
X0218060Y0157950D02*
X0217355D01*
Y0157555D01*
X0218060D01*
Y0157950D01*
D02*
G37*
G36*
X0226355D02*
X0225650D01*
Y0157555D01*
X0226355D01*
Y0157950D01*
D02*
G37*
G36*
X0221465Y0158775D02*
X0220135D01*
Y0157585D01*
X0220283D01*
X0220368Y0157435D01*
X0220341Y0157300D01*
X0220376Y0157124D01*
X0220476Y0156976D01*
X0220624Y0156876D01*
X0220800Y0156841D01*
X0220976Y0156876D01*
X0221124Y0156976D01*
X0221224Y0157124D01*
X0221259Y0157300D01*
X0221232Y0157435D01*
X0221317Y0157585D01*
X0221465D01*
Y0158775D01*
D02*
G37*
G36*
X0217155Y0157950D02*
X0216450D01*
Y0157555D01*
X0217155D01*
Y0157950D01*
D02*
G37*
G36*
X0202600Y0156445D02*
X0202200D01*
Y0156050D01*
X0202600D01*
Y0156445D01*
D02*
G37*
G36*
X0201215Y0156440D02*
X0200800D01*
Y0156035D01*
X0201215D01*
Y0156440D01*
D02*
G37*
G36*
X0203700D02*
X0203285D01*
Y0156035D01*
X0203700D01*
Y0156440D01*
D02*
G37*
G36*
X0183000Y0159834D02*
X0182642Y0159799D01*
X0182298Y0159694D01*
X0181981Y0159525D01*
X0181703Y0159297D01*
X0181475Y0159019D01*
X0181306Y0158702D01*
X0181201Y0158358D01*
X0181166Y0158000D01*
X0181201Y0157642D01*
X0181306Y0157298D01*
X0181475Y0156981D01*
X0181703Y0156703D01*
X0181981Y0156475D01*
X0182298Y0156306D01*
X0182642Y0156201D01*
X0183000Y0156166D01*
X0183358Y0156201D01*
X0183702Y0156306D01*
X0184019Y0156475D01*
X0184297Y0156703D01*
X0184525Y0156981D01*
X0184667Y0157247D01*
X0184812Y0157201D01*
X0184789Y0157027D01*
X0184791Y0157000D01*
X0184789Y0156973D01*
X0184824Y0156712D01*
X0184832Y0156687D01*
X0184837Y0156661D01*
X0184938Y0156418D01*
X0184953Y0156395D01*
X0184965Y0156372D01*
X0185125Y0156163D01*
X0185145Y0156145D01*
X0185163Y0156125D01*
X0185372Y0155965D01*
X0185395Y0155953D01*
X0185418Y0155938D01*
X0185661Y0155837D01*
X0185687Y0155832D01*
X0185712Y0155824D01*
X0185973Y0155789D01*
X0186000Y0155791D01*
X0186027Y0155789D01*
X0186288Y0155824D01*
X0186313Y0155832D01*
X0186339Y0155837D01*
X0186582Y0155938D01*
X0186605Y0155953D01*
X0186628Y0155965D01*
X0186837Y0156125D01*
X0186855Y0156145D01*
X0186875Y0156163D01*
X0187035Y0156372D01*
X0187047Y0156395D01*
X0187062Y0156418D01*
X0187163Y0156661D01*
X0187168Y0156687D01*
X0187176Y0156712D01*
X0187211Y0156973D01*
X0187209Y0157000D01*
X0187211Y0157027D01*
X0187176Y0157288D01*
X0187168Y0157313D01*
X0187163Y0157339D01*
X0187062Y0157582D01*
X0187047Y0157605D01*
X0187035Y0157628D01*
X0186875Y0157837D01*
X0186855Y0157855D01*
X0186837Y0157875D01*
X0186628Y0158035D01*
X0186605Y0158047D01*
X0186582Y0158062D01*
X0186339Y0158163D01*
X0186313Y0158168D01*
X0186288Y0158176D01*
X0186027Y0158211D01*
X0186000Y0158209D01*
X0185973Y0158211D01*
X0185712Y0158176D01*
X0185687Y0158168D01*
X0185661Y0158163D01*
X0185418Y0158062D01*
X0185395Y0158047D01*
X0185372Y0158035D01*
X0185163Y0157875D01*
X0185145Y0157855D01*
X0185125Y0157837D01*
X0184965Y0157628D01*
X0184953Y0157605D01*
X0184938Y0157582D01*
X0184935Y0157574D01*
X0184793Y0157625D01*
X0184799Y0157642D01*
X0184834Y0158000D01*
X0184799Y0158358D01*
X0184694Y0158702D01*
X0184525Y0159019D01*
X0184297Y0159297D01*
X0184019Y0159525D01*
X0183702Y0159694D01*
X0183358Y0159799D01*
X0183000Y0159834D01*
D02*
G37*
G36*
X0200600Y0156440D02*
X0200185D01*
Y0156035D01*
X0200600D01*
Y0156440D01*
D02*
G37*
G36*
X0206215D02*
X0205800D01*
Y0156035D01*
X0206215D01*
Y0156440D01*
D02*
G37*
G36*
X0202000Y0156445D02*
X0201600D01*
Y0156050D01*
X0202000D01*
Y0156445D01*
D02*
G37*
G36*
X0204315Y0156440D02*
X0203900D01*
Y0156035D01*
X0204315D01*
Y0156440D01*
D02*
G37*
G36*
X0205600D02*
X0205185D01*
Y0156035D01*
X0205600D01*
Y0156440D01*
D02*
G37*
G36*
X0236665Y0158145D02*
X0236100D01*
Y0157585D01*
X0236665D01*
Y0158145D01*
D02*
G37*
G36*
X0192640Y0158165D02*
X0192085D01*
Y0157600D01*
X0192640D01*
Y0158165D01*
D02*
G37*
G36*
X0222965Y0158145D02*
X0222400D01*
Y0157585D01*
X0222965D01*
Y0158145D01*
D02*
G37*
G36*
X0228000D02*
X0227435D01*
Y0157585D01*
X0228000D01*
Y0158145D01*
D02*
G37*
G36*
X0189025Y0158050D02*
X0188285D01*
Y0157655D01*
X0189025D01*
Y0158050D01*
D02*
G37*
G36*
X0246300Y0158440D02*
X0245885D01*
Y0158035D01*
X0246300D01*
Y0158440D01*
D02*
G37*
G36*
X0193395Y0158165D02*
X0192840D01*
Y0157600D01*
X0193395D01*
Y0158165D01*
D02*
G37*
G36*
X0188085Y0158050D02*
X0187345D01*
Y0157655D01*
X0188085D01*
Y0158050D01*
D02*
G37*
G36*
X0222200Y0158145D02*
X0221635D01*
Y0157585D01*
X0222200D01*
Y0158145D01*
D02*
G37*
G36*
X0237400Y0158080D02*
X0236835D01*
Y0157585D01*
X0237400D01*
Y0158080D01*
D02*
G37*
G36*
X0238165D02*
X0237600D01*
Y0157585D01*
X0238165D01*
Y0158080D01*
D02*
G37*
G36*
X0227260Y0157950D02*
X0226555D01*
Y0157555D01*
X0227260D01*
Y0157950D01*
D02*
G37*
G36*
X0252000Y0159834D02*
X0251642Y0159799D01*
X0251298Y0159694D01*
X0250981Y0159525D01*
X0250703Y0159297D01*
X0250475Y0159019D01*
X0250306Y0158702D01*
X0250201Y0158358D01*
X0250166Y0158000D01*
X0250201Y0157642D01*
X0250207Y0157625D01*
X0250065Y0157574D01*
X0250062Y0157582D01*
X0250047Y0157605D01*
X0250035Y0157628D01*
X0249875Y0157837D01*
X0249855Y0157855D01*
X0249837Y0157875D01*
X0249628Y0158035D01*
X0249605Y0158047D01*
X0249582Y0158062D01*
X0249339Y0158163D01*
X0249313Y0158168D01*
X0249288Y0158176D01*
X0249027Y0158211D01*
X0249000Y0158209D01*
X0248973Y0158211D01*
X0248712Y0158176D01*
X0248687Y0158168D01*
X0248661Y0158163D01*
X0248418Y0158062D01*
X0248395Y0158047D01*
X0248372Y0158035D01*
X0248163Y0157875D01*
X0248145Y0157855D01*
X0248125Y0157837D01*
X0247965Y0157628D01*
X0247953Y0157605D01*
X0247938Y0157582D01*
X0247837Y0157339D01*
X0247832Y0157313D01*
X0247824Y0157288D01*
X0247789Y0157027D01*
X0247791Y0157000D01*
X0247789Y0156973D01*
X0247824Y0156712D01*
X0247832Y0156687D01*
X0247837Y0156661D01*
X0247938Y0156418D01*
X0247953Y0156395D01*
X0247965Y0156372D01*
X0248125Y0156163D01*
X0248145Y0156145D01*
X0248163Y0156125D01*
X0248372Y0155965D01*
X0248395Y0155953D01*
X0248418Y0155938D01*
X0248661Y0155837D01*
X0248687Y0155832D01*
X0248712Y0155824D01*
X0248973Y0155789D01*
X0249000Y0155791D01*
X0249027Y0155789D01*
X0249288Y0155824D01*
X0249313Y0155832D01*
X0249339Y0155837D01*
X0249582Y0155938D01*
X0249605Y0155953D01*
X0249628Y0155965D01*
X0249837Y0156125D01*
X0249855Y0156145D01*
X0249875Y0156163D01*
X0250035Y0156372D01*
X0250047Y0156395D01*
X0250062Y0156418D01*
X0250163Y0156661D01*
X0250168Y0156687D01*
X0250176Y0156712D01*
X0250211Y0156973D01*
X0250209Y0157000D01*
X0250211Y0157027D01*
X0250188Y0157201D01*
X0250333Y0157247D01*
X0250475Y0156981D01*
X0250703Y0156703D01*
X0250981Y0156475D01*
X0251298Y0156306D01*
X0251642Y0156201D01*
X0252000Y0156166D01*
X0252358Y0156201D01*
X0252702Y0156306D01*
X0253019Y0156475D01*
X0253297Y0156703D01*
X0253525Y0156981D01*
X0253694Y0157298D01*
X0253799Y0157642D01*
X0253834Y0158000D01*
X0253799Y0158358D01*
X0253694Y0158702D01*
X0253525Y0159019D01*
X0253297Y0159297D01*
X0253019Y0159525D01*
X0252702Y0159694D01*
X0252358Y0159799D01*
X0252000Y0159834D01*
D02*
G37*
G36*
X0218900Y0158145D02*
X0218335D01*
Y0157585D01*
X0218900D01*
Y0158145D01*
D02*
G37*
G36*
X0219665D02*
X0219100D01*
Y0157585D01*
X0219665D01*
Y0158145D01*
D02*
G37*
G36*
X0212900D02*
X0212335D01*
Y0157585D01*
X0212900D01*
Y0158145D01*
D02*
G37*
G36*
X0213665D02*
X0213100D01*
Y0157585D01*
X0213665D01*
Y0158145D01*
D02*
G37*
G36*
X0220990Y0171515D02*
X0219990D01*
Y0170800D01*
X0220990D01*
Y0171515D01*
D02*
G37*
G36*
X0222190D02*
X0221190D01*
Y0170800D01*
X0222190D01*
Y0171515D01*
D02*
G37*
G36*
X0244775Y0170900D02*
X0244500D01*
Y0170600D01*
X0244775D01*
Y0170900D01*
D02*
G37*
G36*
X0245250D02*
X0244975D01*
Y0170600D01*
X0245250D01*
Y0170900D01*
D02*
G37*
G36*
X0245365Y0171500D02*
X0244960D01*
Y0171085D01*
X0245365D01*
Y0171500D01*
D02*
G37*
G36*
X0238165Y0171720D02*
X0237600D01*
Y0171225D01*
X0238165D01*
Y0171720D01*
D02*
G37*
G36*
X0225800Y0171665D02*
X0225385D01*
Y0171260D01*
X0225800D01*
Y0171665D01*
D02*
G37*
G36*
X0236665Y0171655D02*
X0236100D01*
Y0171095D01*
X0236665D01*
Y0171655D01*
D02*
G37*
G36*
X0237400Y0171720D02*
X0236835D01*
Y0171225D01*
X0237400D01*
Y0171720D01*
D02*
G37*
G36*
X0240840Y0169900D02*
X0240435D01*
Y0169485D01*
X0240840D01*
Y0169900D01*
D02*
G37*
G36*
X0220990Y0170600D02*
X0219990D01*
Y0169885D01*
X0220990D01*
Y0170600D01*
D02*
G37*
G36*
X0225040Y0169315D02*
X0224635D01*
Y0168900D01*
X0225040D01*
Y0169315D01*
D02*
G37*
G36*
X0190945Y0169400D02*
X0190550D01*
Y0169000D01*
X0190945D01*
Y0169400D01*
D02*
G37*
G36*
X0222190Y0170600D02*
X0221190D01*
Y0169885D01*
X0222190D01*
Y0170600D01*
D02*
G37*
G36*
X0245250Y0170400D02*
X0244975D01*
Y0170100D01*
X0245250D01*
Y0170400D01*
D02*
G37*
G36*
X0183000Y0173834D02*
X0182642Y0173799D01*
X0182298Y0173694D01*
X0181981Y0173525D01*
X0181703Y0173297D01*
X0181475Y0173019D01*
X0181306Y0172702D01*
X0181201Y0172358D01*
X0181166Y0172000D01*
X0181201Y0171642D01*
X0181306Y0171298D01*
X0181475Y0170981D01*
X0181703Y0170703D01*
X0181981Y0170475D01*
X0182298Y0170306D01*
X0182642Y0170201D01*
X0183000Y0170166D01*
X0183358Y0170201D01*
X0183702Y0170306D01*
X0184019Y0170475D01*
X0184297Y0170703D01*
X0184525Y0170981D01*
X0184694Y0171298D01*
X0184799Y0171642D01*
X0184834Y0172000D01*
X0184799Y0172358D01*
X0184694Y0172702D01*
X0184525Y0173019D01*
X0184297Y0173297D01*
X0184019Y0173525D01*
X0183702Y0173694D01*
X0183358Y0173799D01*
X0183000Y0173834D01*
D02*
G37*
G36*
X0240840Y0170515D02*
X0240435D01*
Y0170100D01*
X0240840D01*
Y0170515D01*
D02*
G37*
G36*
X0244775Y0170400D02*
X0244500D01*
Y0170100D01*
X0244775D01*
Y0170400D01*
D02*
G37*
G36*
X0201500Y0173965D02*
X0201085D01*
Y0173560D01*
X0201500D01*
Y0173965D01*
D02*
G37*
G36*
X0202115D02*
X0201700D01*
Y0173560D01*
X0202115D01*
Y0173965D01*
D02*
G37*
G36*
X0211440Y0173315D02*
X0211035D01*
Y0172900D01*
X0211440D01*
Y0173315D01*
D02*
G37*
G36*
X0219640D02*
X0219235D01*
Y0172900D01*
X0219640D01*
Y0173315D01*
D02*
G37*
G36*
X0203600Y0173965D02*
X0203185D01*
Y0173560D01*
X0203600D01*
Y0173965D01*
D02*
G37*
G36*
X0207115D02*
X0206700D01*
Y0173560D01*
X0207115D01*
Y0173965D01*
D02*
G37*
G36*
X0249027Y0174211D02*
X0249000Y0174209D01*
X0248973Y0174211D01*
X0248712Y0174176D01*
X0248687Y0174168D01*
X0248661Y0174163D01*
X0248418Y0174062D01*
X0248395Y0174047D01*
X0248372Y0174035D01*
X0248163Y0173875D01*
X0248145Y0173855D01*
X0248125Y0173837D01*
X0247965Y0173628D01*
X0247953Y0173605D01*
X0247938Y0173582D01*
X0247837Y0173339D01*
X0247832Y0173313D01*
X0247824Y0173288D01*
X0247789Y0173027D01*
X0247791Y0173000D01*
X0247789Y0172973D01*
X0247824Y0172712D01*
X0247832Y0172687D01*
X0247837Y0172661D01*
X0247938Y0172418D01*
X0247953Y0172395D01*
X0247965Y0172372D01*
X0248125Y0172163D01*
X0248145Y0172145D01*
X0248163Y0172125D01*
X0248372Y0171965D01*
X0248395Y0171953D01*
X0248418Y0171938D01*
X0248661Y0171837D01*
X0248687Y0171832D01*
X0248712Y0171824D01*
X0248973Y0171789D01*
X0249000Y0171791D01*
X0249027Y0171789D01*
X0249288Y0171824D01*
X0249313Y0171832D01*
X0249339Y0171837D01*
X0249582Y0171938D01*
X0249605Y0171953D01*
X0249628Y0171965D01*
X0249837Y0172125D01*
X0249855Y0172145D01*
X0249875Y0172163D01*
X0250035Y0172372D01*
X0250047Y0172395D01*
X0250062Y0172418D01*
X0250065Y0172426D01*
X0250207Y0172375D01*
X0250201Y0172358D01*
X0250166Y0172000D01*
X0250201Y0171642D01*
X0250306Y0171298D01*
X0250475Y0170981D01*
X0250703Y0170703D01*
X0250981Y0170475D01*
X0251298Y0170306D01*
X0251642Y0170201D01*
X0252000Y0170166D01*
X0252358Y0170201D01*
X0252702Y0170306D01*
X0253019Y0170475D01*
X0253297Y0170703D01*
X0253525Y0170981D01*
X0253694Y0171298D01*
X0253799Y0171642D01*
X0253834Y0172000D01*
X0253799Y0172358D01*
X0253694Y0172702D01*
X0253525Y0173019D01*
X0253297Y0173297D01*
X0253019Y0173525D01*
X0252702Y0173694D01*
X0252358Y0173799D01*
X0252000Y0173834D01*
X0251642Y0173799D01*
X0251298Y0173694D01*
X0250981Y0173525D01*
X0250703Y0173297D01*
X0250475Y0173019D01*
X0250333Y0172753D01*
X0250188Y0172799D01*
X0250211Y0172973D01*
X0250209Y0173000D01*
X0250211Y0173027D01*
X0250176Y0173288D01*
X0250168Y0173313D01*
X0250163Y0173339D01*
X0250062Y0173582D01*
X0250047Y0173605D01*
X0250035Y0173628D01*
X0249875Y0173837D01*
X0249855Y0173855D01*
X0249837Y0173875D01*
X0249628Y0174035D01*
X0249605Y0174047D01*
X0249582Y0174062D01*
X0249339Y0174163D01*
X0249313Y0174168D01*
X0249288Y0174176D01*
X0249027Y0174211D01*
D02*
G37*
G36*
X0204215Y0173965D02*
X0203800D01*
Y0173560D01*
X0204215D01*
Y0173965D01*
D02*
G37*
G36*
X0206500D02*
X0206085D01*
Y0173560D01*
X0206500D01*
Y0173965D01*
D02*
G37*
G36*
X0237400Y0172415D02*
X0236835D01*
Y0171920D01*
X0237400D01*
Y0172415D01*
D02*
G37*
G36*
X0238165D02*
X0237600D01*
Y0171920D01*
X0238165D01*
Y0172415D01*
D02*
G37*
G36*
X0245365Y0172115D02*
X0244960D01*
Y0171700D01*
X0245365D01*
Y0172115D01*
D02*
G37*
G36*
X0236665Y0172415D02*
X0236100D01*
Y0171855D01*
X0236665D01*
Y0172415D01*
D02*
G37*
G36*
X0211440Y0172700D02*
X0211035D01*
Y0172285D01*
X0211440D01*
Y0172700D01*
D02*
G37*
G36*
X0194880Y0173435D02*
X0193340D01*
Y0172704D01*
X0193060D01*
Y0172745D01*
X0191450D01*
Y0171755D01*
X0193060D01*
Y0171796D01*
X0193340D01*
Y0171565D01*
X0194880D01*
Y0173435D01*
D02*
G37*
G36*
X0188635Y0173255D02*
X0186765D01*
Y0172945D01*
X0186746Y0172919D01*
X0186615Y0172836D01*
X0186500Y0172859D01*
X0186324Y0172824D01*
X0186176Y0172724D01*
X0186076Y0172576D01*
X0186041Y0172400D01*
X0186076Y0172224D01*
X0186176Y0172076D01*
X0186324Y0171976D01*
X0186500Y0171941D01*
X0186615Y0171964D01*
X0186746Y0171881D01*
X0186765Y0171855D01*
Y0171695D01*
X0188635D01*
Y0171842D01*
X0188940D01*
Y0171755D01*
X0190550D01*
Y0172745D01*
X0188940D01*
Y0172658D01*
X0188635D01*
Y0173255D01*
D02*
G37*
G36*
X0219640Y0172700D02*
X0219235D01*
Y0172285D01*
X0219640D01*
Y0172700D01*
D02*
G37*
G36*
X0212500Y0174059D02*
X0212324Y0174024D01*
X0212176Y0173924D01*
X0212076Y0173776D01*
X0212041Y0173600D01*
X0212068Y0173465D01*
X0211983Y0173315D01*
X0211640D01*
Y0172800D01*
Y0172285D01*
X0212965D01*
Y0172443D01*
X0213394D01*
X0213500Y0172337D01*
Y0171579D01*
X0213500Y0171550D01*
X0213429Y0171429D01*
X0209600D01*
X0209512Y0171412D01*
X0209438Y0171362D01*
X0209438Y0171362D01*
X0209076Y0171000D01*
X0208090D01*
Y0171366D01*
X0208275Y0171550D01*
X0208432Y0171540D01*
X0208476Y0171476D01*
X0208624Y0171376D01*
X0208800Y0171341D01*
X0208976Y0171376D01*
X0209124Y0171476D01*
X0209224Y0171624D01*
X0209259Y0171800D01*
X0209224Y0171976D01*
X0209124Y0172124D01*
X0208976Y0172224D01*
X0208800Y0172259D01*
X0208624Y0172224D01*
X0208492Y0172135D01*
X0208478Y0172134D01*
X0208436Y0172195D01*
X0208422Y0172290D01*
X0208694Y0172562D01*
X0208800Y0172541D01*
X0208976Y0172576D01*
X0209124Y0172676D01*
X0209224Y0172824D01*
X0209259Y0173000D01*
X0209224Y0173176D01*
X0209124Y0173324D01*
X0208976Y0173424D01*
X0208800Y0173459D01*
X0208624Y0173424D01*
X0208476Y0173324D01*
X0208376Y0173176D01*
X0208341Y0173000D01*
X0208362Y0172894D01*
X0208005Y0172536D01*
X0207842Y0172586D01*
X0207824Y0172676D01*
X0207724Y0172824D01*
X0207576Y0172924D01*
X0207400Y0172959D01*
X0207265Y0172932D01*
X0207247Y0172935D01*
X0207154Y0172993D01*
X0207115Y0173031D01*
Y0173360D01*
X0206085D01*
Y0172964D01*
X0206067Y0172946D01*
X0205935Y0172884D01*
X0205876Y0172924D01*
X0205700Y0172959D01*
X0205524Y0172924D01*
X0205376Y0172824D01*
X0205276Y0172676D01*
X0205241Y0172500D01*
X0205276Y0172324D01*
X0205376Y0172176D01*
X0205524Y0172076D01*
X0205700Y0172041D01*
X0205812Y0172063D01*
X0206021Y0171855D01*
Y0171680D01*
X0204046D01*
Y0172035D01*
X0204215D01*
X0204215Y0172035D01*
X0204365Y0172068D01*
X0204500Y0172041D01*
X0204676Y0172076D01*
X0204824Y0172176D01*
X0204924Y0172324D01*
X0204959Y0172500D01*
X0204924Y0172676D01*
X0204824Y0172824D01*
X0204676Y0172924D01*
X0204500Y0172959D01*
X0204365Y0172932D01*
X0204347Y0172935D01*
X0204254Y0172993D01*
X0204215Y0173031D01*
Y0173360D01*
X0203185D01*
Y0172955D01*
Y0172577D01*
X0203166Y0172561D01*
X0203035Y0172511D01*
X0202926Y0172584D01*
X0202750Y0172619D01*
X0202574Y0172584D01*
X0202426Y0172484D01*
X0202326Y0172336D01*
X0202291Y0172160D01*
X0202326Y0171984D01*
X0202426Y0171836D01*
X0202434Y0171830D01*
X0202388Y0171680D01*
X0202046D01*
Y0172035D01*
X0202115D01*
Y0172955D01*
Y0173360D01*
X0201085D01*
Y0173031D01*
X0201046Y0172993D01*
X0200953Y0172935D01*
X0200935Y0172932D01*
X0200800Y0172959D01*
X0200624Y0172924D01*
X0200476Y0172824D01*
X0200376Y0172676D01*
X0200341Y0172500D01*
X0200376Y0172324D01*
X0200476Y0172176D01*
X0200624Y0172076D01*
X0200800Y0172041D01*
X0200935Y0172068D01*
X0201085Y0172035D01*
Y0172035D01*
X0201085Y0172035D01*
X0201454D01*
Y0171680D01*
X0199910D01*
Y0171000D01*
X0199220D01*
X0199164Y0171136D01*
X0199149Y0171158D01*
X0199137Y0171182D01*
X0199017Y0171339D01*
X0198997Y0171357D01*
X0198979Y0171377D01*
X0198822Y0171497D01*
X0198798Y0171509D01*
X0198776Y0171524D01*
X0198594Y0171599D01*
X0198568Y0171604D01*
X0198542Y0171613D01*
X0198347Y0171639D01*
X0198320Y0171637D01*
X0198293Y0171639D01*
X0198098Y0171613D01*
X0198072Y0171604D01*
X0198046Y0171599D01*
X0197864Y0171524D01*
X0197842Y0171509D01*
X0197818Y0171497D01*
X0197724Y0171425D01*
X0197718Y0171423D01*
X0197544Y0171444D01*
X0197478Y0171488D01*
X0197400Y0171504D01*
X0196785D01*
X0196660Y0171565D01*
Y0173435D01*
X0195120D01*
Y0171565D01*
X0195120Y0171565D01*
X0195120D01*
X0195120Y0171565D01*
X0195120Y0171565D01*
X0195095Y0171435D01*
X0195095D01*
X0195095Y0171435D01*
X0195095D01*
X0195095Y0171425D01*
Y0169928D01*
X0194773Y0169606D01*
X0194255D01*
X0194138Y0169583D01*
X0194098Y0169556D01*
X0194039Y0169516D01*
X0194039Y0169516D01*
X0193922Y0169400D01*
X0192561D01*
Y0169855D01*
X0193060D01*
Y0170845D01*
X0191450D01*
Y0169855D01*
X0191949D01*
Y0169400D01*
X0191145D01*
Y0168900D01*
Y0168400D01*
X0192329D01*
X0192435Y0168294D01*
Y0167385D01*
X0192308Y0167329D01*
X0191295D01*
X0190502Y0168122D01*
X0190428Y0168172D01*
X0190340Y0168189D01*
X0190315D01*
Y0168465D01*
X0189404D01*
Y0168843D01*
X0189554Y0168923D01*
X0189624Y0168876D01*
X0189800Y0168841D01*
X0189976Y0168876D01*
X0190124Y0168976D01*
X0190224Y0169124D01*
X0190259Y0169300D01*
X0190224Y0169476D01*
X0190124Y0169624D01*
X0190029Y0169688D01*
Y0169855D01*
X0190550D01*
Y0170845D01*
X0188940D01*
Y0169855D01*
X0189571D01*
Y0169688D01*
X0189476Y0169624D01*
X0189383Y0169485D01*
X0189376Y0169476D01*
Y0169476D01*
X0189278Y0169388D01*
X0189200Y0169404D01*
X0188100D01*
X0188022Y0169388D01*
X0187956Y0169344D01*
X0187912Y0169278D01*
X0187896Y0169200D01*
Y0169185D01*
X0187035D01*
Y0169185D01*
X0186965D01*
Y0169185D01*
X0185565D01*
Y0167815D01*
X0185583D01*
Y0167615D01*
X0185435D01*
Y0166657D01*
X0184975D01*
Y0166700D01*
X0183225D01*
Y0166150D01*
X0183125D01*
Y0165150D01*
Y0164500D01*
X0183225D01*
Y0163950D01*
Y0163800D01*
X0184975D01*
Y0163950D01*
Y0164500D01*
X0185075D01*
Y0164742D01*
X0185335D01*
Y0164625D01*
X0186485D01*
X0186485Y0164625D01*
Y0164625D01*
D01*
X0186485Y0164625D01*
X0186485Y0164625D01*
X0186485Y0164625D01*
X0186564Y0164746D01*
X0186675Y0164768D01*
X0186701Y0164773D01*
X0186833Y0164862D01*
X0186876Y0164905D01*
X0187015Y0164847D01*
Y0164725D01*
X0187390D01*
Y0165075D01*
X0187490D01*
Y0165175D01*
X0187965D01*
Y0165242D01*
X0188131D01*
X0189012Y0164362D01*
X0189012Y0164362D01*
X0189144Y0164273D01*
X0189170Y0164268D01*
X0189300Y0164242D01*
X0189300Y0164242D01*
X0190751D01*
X0190797Y0164133D01*
X0190850Y0164000D01*
Y0164000D01*
X0190850Y0164000D01*
X0190850Y0164000D01*
Y0163405D01*
X0190210D01*
Y0163550D01*
X0188720D01*
Y0163217D01*
X0188570Y0163154D01*
X0188412Y0163312D01*
X0188338Y0163362D01*
X0188280Y0163373D01*
Y0163550D01*
X0186790D01*
Y0162806D01*
X0186515D01*
Y0162955D01*
Y0163360D01*
X0185485D01*
Y0162955D01*
Y0162035D01*
X0185485Y0162035D01*
Y0162035D01*
Y0161973D01*
X0185485Y0161965D01*
X0185485Y0161933D01*
X0185485Y0161885D01*
D01*
Y0161885D01*
X0185485D01*
Y0160955D01*
Y0160640D01*
X0186515D01*
Y0160955D01*
Y0161542D01*
X0186517Y0161544D01*
X0186790D01*
Y0161450D01*
X0186959D01*
X0187061Y0161300D01*
X0187041Y0161200D01*
X0187076Y0161024D01*
X0187175Y0160875D01*
X0187324Y0160776D01*
X0187500Y0160741D01*
X0187675Y0160776D01*
X0187824Y0160875D01*
X0187923Y0161024D01*
X0187925Y0161024D01*
X0188074Y0161024D01*
X0188076Y0161024D01*
X0188176Y0160876D01*
X0188324Y0160776D01*
X0188500Y0160741D01*
X0188676Y0160776D01*
X0188718Y0160804D01*
X0188813Y0160688D01*
X0188671Y0160545D01*
X0187345D01*
Y0159555D01*
X0189025D01*
Y0160251D01*
X0189627Y0160853D01*
X0189677Y0160927D01*
X0189694Y0161015D01*
Y0161450D01*
X0190051D01*
X0190076Y0161324D01*
X0190176Y0161176D01*
X0190324Y0161076D01*
X0190500Y0161041D01*
X0190676Y0161076D01*
X0190700Y0161092D01*
X0190850Y0161012D01*
Y0161000D01*
X0192750D01*
X0192750Y0161000D01*
Y0161000D01*
X0192900Y0161061D01*
X0193000Y0161041D01*
X0193176Y0161076D01*
X0193324Y0161176D01*
X0193424Y0161324D01*
X0193459Y0161500D01*
X0193424Y0161676D01*
X0193324Y0161824D01*
X0193176Y0161924D01*
X0193000Y0161959D01*
X0192900Y0161939D01*
X0192837Y0161965D01*
X0192762Y0162031D01*
X0192750Y0162050D01*
Y0162400D01*
X0192255D01*
Y0162600D01*
X0192750D01*
Y0162950D01*
X0192762Y0162969D01*
X0192837Y0163035D01*
X0192900Y0163061D01*
X0193000Y0163041D01*
X0193082Y0163057D01*
X0193620Y0162520D01*
X0193702Y0162465D01*
X0193800Y0162445D01*
X0195959D01*
X0196026Y0162359D01*
X0195961Y0162215D01*
X0195640D01*
Y0161700D01*
Y0161185D01*
X0195983D01*
X0196068Y0161035D01*
X0196041Y0160900D01*
X0196076Y0160724D01*
X0196126Y0160650D01*
X0196046Y0160500D01*
X0195050D01*
X0195050Y0160500D01*
Y0160500D01*
X0195050Y0160500D01*
X0194915Y0160536D01*
Y0160665D01*
X0193605D01*
Y0159335D01*
X0194915D01*
Y0159464D01*
X0195050Y0159500D01*
X0195050Y0159500D01*
Y0159500D01*
X0195050Y0159500D01*
X0196950D01*
Y0159771D01*
X0198000D01*
Y0159000D01*
X0198000Y0159000D01*
X0198000D01*
X0198043Y0158868D01*
X0197089Y0157913D01*
X0196950Y0157970D01*
Y0158000D01*
X0195050D01*
X0195050Y0158000D01*
Y0158000D01*
X0195050Y0158000D01*
X0194915Y0158036D01*
Y0158165D01*
X0193605D01*
Y0156835D01*
X0194915D01*
Y0156964D01*
X0195050Y0157000D01*
X0195050Y0157000D01*
Y0157000D01*
X0195050Y0157000D01*
X0196950D01*
Y0157271D01*
X0197000D01*
X0197088Y0157288D01*
X0197162Y0157338D01*
X0198824Y0159000D01*
X0199910D01*
Y0158320D01*
X0200454D01*
Y0157965D01*
X0200185D01*
X0200185Y0157965D01*
X0200035Y0157932D01*
X0199900Y0157959D01*
X0199724Y0157924D01*
X0199576Y0157824D01*
X0199476Y0157676D01*
X0199441Y0157500D01*
X0199476Y0157324D01*
X0199576Y0157176D01*
X0199724Y0157076D01*
X0199900Y0157041D01*
X0200035Y0157068D01*
X0200185Y0156983D01*
Y0156955D01*
Y0156640D01*
X0201215D01*
Y0156955D01*
Y0157965D01*
X0201046D01*
Y0158320D01*
X0202448D01*
X0202491Y0158170D01*
X0202271Y0157950D01*
X0201600D01*
Y0156960D01*
Y0156645D01*
X0202600D01*
Y0156960D01*
Y0157631D01*
X0202912Y0157943D01*
X0202920Y0157955D01*
X0202929Y0157961D01*
X0203086Y0157983D01*
X0203103Y0157979D01*
X0203191Y0157891D01*
X0203285Y0157828D01*
Y0156955D01*
Y0156640D01*
X0204315D01*
Y0156955D01*
Y0157897D01*
X0204459Y0158041D01*
X0204523Y0158137D01*
X0204546Y0158250D01*
Y0158320D01*
X0205454D01*
Y0157965D01*
X0205185D01*
Y0156955D01*
Y0156640D01*
X0206215D01*
Y0156955D01*
Y0156983D01*
X0206365Y0157068D01*
X0206500Y0157041D01*
X0206522Y0157046D01*
X0207239Y0156329D01*
X0207338Y0156262D01*
X0207455Y0156239D01*
X0207500D01*
Y0156050D01*
X0208500D01*
Y0156239D01*
X0209200D01*
Y0156050D01*
X0210200D01*
Y0156960D01*
Y0156993D01*
X0210350Y0157071D01*
X0210500Y0157041D01*
X0210676Y0157076D01*
X0210824Y0157176D01*
X0210924Y0157324D01*
X0210959Y0157500D01*
X0210924Y0157676D01*
X0210824Y0157824D01*
X0210676Y0157924D01*
X0210500Y0157959D01*
X0210350Y0157929D01*
X0210200Y0157950D01*
Y0157950D01*
X0210200Y0157950D01*
X0209200D01*
X0209200Y0157950D01*
Y0157950D01*
X0209050Y0157874D01*
X0208976Y0157924D01*
X0208800Y0157959D01*
X0208650Y0157929D01*
X0208500Y0157950D01*
Y0157950D01*
X0208500Y0157950D01*
X0207500D01*
Y0157145D01*
X0207350Y0157083D01*
X0206954Y0157478D01*
X0206959Y0157500D01*
X0206924Y0157676D01*
X0206824Y0157824D01*
X0206676Y0157924D01*
X0206500Y0157959D01*
X0206365Y0157932D01*
X0206215Y0157965D01*
Y0157965D01*
X0206215Y0157965D01*
X0206046D01*
Y0158320D01*
X0208090D01*
Y0159000D01*
X0208780D01*
X0208836Y0158864D01*
X0208851Y0158842D01*
X0208863Y0158818D01*
X0208983Y0158661D01*
X0209003Y0158643D01*
X0209021Y0158623D01*
X0209178Y0158503D01*
X0209202Y0158491D01*
X0209224Y0158476D01*
X0209406Y0158401D01*
X0209432Y0158396D01*
X0209458Y0158387D01*
X0209653Y0158361D01*
X0209680Y0158363D01*
X0209707Y0158361D01*
X0209902Y0158387D01*
X0209928Y0158396D01*
X0209954Y0158401D01*
X0210136Y0158476D01*
X0210158Y0158491D01*
X0210182Y0158503D01*
X0210339Y0158623D01*
X0210357Y0158643D01*
X0210377Y0158661D01*
X0210497Y0158818D01*
X0210509Y0158842D01*
X0210524Y0158864D01*
X0210599Y0159046D01*
X0210604Y0159072D01*
X0210613Y0159098D01*
X0210639Y0159293D01*
X0210637Y0159320D01*
X0210639Y0159347D01*
X0210613Y0159542D01*
X0210604Y0159568D01*
X0210599Y0159594D01*
X0210524Y0159776D01*
X0210509Y0159798D01*
X0210497Y0159822D01*
X0210377Y0159979D01*
X0210357Y0159997D01*
X0210339Y0160017D01*
X0210182Y0160137D01*
X0210158Y0160149D01*
X0210136Y0160164D01*
X0210000Y0160220D01*
Y0160471D01*
X0210900D01*
X0210988Y0160488D01*
X0211062Y0160538D01*
X0211250Y0160725D01*
X0211295Y0160717D01*
X0211396Y0160660D01*
Y0159100D01*
X0211412Y0159022D01*
X0211456Y0158956D01*
X0211522Y0158912D01*
X0211600Y0158896D01*
X0212335D01*
Y0158345D01*
X0213665D01*
Y0158905D01*
X0213204D01*
X0213120Y0159055D01*
X0213144Y0159095D01*
X0213665D01*
Y0159593D01*
X0213940D01*
Y0159455D01*
X0215550D01*
Y0160318D01*
X0215700Y0160441D01*
X0215876Y0160476D01*
X0216024Y0160576D01*
X0216124Y0160724D01*
X0216159Y0160900D01*
X0216130Y0161046D01*
X0216183Y0161115D01*
X0216272Y0161148D01*
X0216342Y0161081D01*
X0216368Y0161035D01*
X0216341Y0160900D01*
X0216376Y0160724D01*
X0216462Y0160595D01*
X0216450Y0160445D01*
X0216450Y0160445D01*
X0216450Y0160445D01*
Y0159455D01*
X0218060D01*
Y0159593D01*
X0218335D01*
Y0159095D01*
X0219665D01*
Y0159796D01*
X0219800D01*
X0219878Y0159812D01*
X0219944Y0159856D01*
X0219985Y0159917D01*
X0219999Y0159920D01*
X0220135Y0159892D01*
Y0159225D01*
X0221465D01*
Y0159463D01*
X0221635D01*
Y0159095D01*
X0222965D01*
Y0159593D01*
X0223140D01*
Y0159455D01*
X0224750D01*
Y0160445D01*
X0223140D01*
Y0160307D01*
X0222965D01*
Y0160415D01*
X0221635D01*
Y0160177D01*
X0221465D01*
Y0160415D01*
X0220154D01*
X0220135Y0160415D01*
X0220004Y0160461D01*
Y0161100D01*
X0219988Y0161178D01*
X0219944Y0161244D01*
X0219878Y0161288D01*
X0219850Y0161294D01*
X0219784Y0161409D01*
X0219777Y0161454D01*
X0219824Y0161524D01*
X0219859Y0161700D01*
X0219824Y0161876D01*
X0219751Y0161985D01*
X0219801Y0162116D01*
X0219817Y0162135D01*
X0220355D01*
Y0162508D01*
X0220505Y0162571D01*
X0220771Y0162305D01*
Y0161788D01*
X0220676Y0161724D01*
X0220576Y0161576D01*
X0220541Y0161400D01*
X0220576Y0161224D01*
X0220676Y0161076D01*
X0220824Y0160976D01*
X0221000Y0160941D01*
X0221176Y0160976D01*
X0221324Y0161076D01*
X0221424Y0161224D01*
X0221459Y0161400D01*
X0221424Y0161576D01*
X0221324Y0161724D01*
X0221229Y0161788D01*
Y0162400D01*
X0221212Y0162488D01*
X0221162Y0162562D01*
X0220763Y0162961D01*
X0220820Y0163100D01*
X0221200D01*
X0221850Y0163750D01*
X0222040Y0163728D01*
X0222076Y0163676D01*
X0222224Y0163576D01*
X0222400Y0163541D01*
X0222495Y0163560D01*
X0222645Y0163456D01*
Y0163135D01*
Y0162635D01*
Y0162135D01*
X0223376D01*
Y0162095D01*
X0223393Y0162007D01*
X0223443Y0161933D01*
X0224138Y0161238D01*
X0224212Y0161188D01*
X0224300Y0161171D01*
X0227724D01*
X0227769Y0161043D01*
X0227773Y0161021D01*
X0227676Y0160875D01*
X0227641Y0160700D01*
X0227668Y0160565D01*
X0227600Y0160447D01*
X0227569Y0160415D01*
X0227435D01*
Y0160307D01*
X0227260D01*
Y0160445D01*
X0225650D01*
Y0159455D01*
X0227260D01*
Y0159593D01*
X0227435D01*
Y0159095D01*
X0228600D01*
Y0158905D01*
X0228200D01*
Y0158245D01*
Y0157585D01*
X0228765D01*
Y0157600D01*
X0229335D01*
Y0157585D01*
X0230665D01*
Y0157600D01*
X0230835D01*
Y0157585D01*
X0232165D01*
Y0157600D01*
X0232335D01*
Y0157585D01*
X0233665D01*
Y0157600D01*
X0233835D01*
Y0157585D01*
X0234084D01*
X0234194Y0157500D01*
X0234217Y0157383D01*
X0234284Y0157284D01*
X0234884Y0156684D01*
X0234884Y0156684D01*
X0234943Y0156644D01*
X0234983Y0156617D01*
X0235100Y0156594D01*
X0241000D01*
X0241000Y0156594D01*
X0241117Y0156617D01*
X0241216Y0156684D01*
X0243687Y0159154D01*
X0245885D01*
Y0158955D01*
Y0158640D01*
X0246915D01*
Y0158955D01*
Y0159052D01*
X0247460D01*
X0247460Y0159052D01*
X0247590Y0159078D01*
X0247616Y0159083D01*
X0247641Y0159100D01*
X0247900D01*
Y0159323D01*
X0249215Y0160639D01*
X0249300Y0160593D01*
X0249545Y0160519D01*
X0249800Y0160494D01*
X0250055Y0160519D01*
X0250300Y0160593D01*
X0250526Y0160714D01*
X0250724Y0160876D01*
X0250886Y0161074D01*
X0251007Y0161300D01*
X0251081Y0161545D01*
X0251106Y0161800D01*
X0251081Y0162055D01*
X0251007Y0162300D01*
X0250886Y0162526D01*
X0250724Y0162724D01*
X0250526Y0162886D01*
X0250300Y0163007D01*
X0250055Y0163081D01*
X0249800Y0163106D01*
X0249545Y0163081D01*
X0249300Y0163007D01*
X0249074Y0162886D01*
X0248876Y0162724D01*
X0248714Y0162526D01*
X0248593Y0162300D01*
X0248519Y0162055D01*
X0248494Y0161800D01*
X0248519Y0161545D01*
X0248593Y0161300D01*
X0248639Y0161215D01*
X0247291Y0159868D01*
X0246915D01*
Y0159965D01*
X0245885D01*
Y0159766D01*
X0243560D01*
X0243560Y0159766D01*
X0243443Y0159743D01*
X0243344Y0159676D01*
X0243344Y0159676D01*
X0240873Y0157206D01*
X0235227D01*
X0234986Y0157446D01*
X0235044Y0157585D01*
X0235165D01*
Y0157600D01*
X0235335D01*
Y0157585D01*
X0235900D01*
Y0158245D01*
Y0158905D01*
X0235365D01*
Y0159095D01*
X0236665D01*
Y0159514D01*
X0236835D01*
Y0159225D01*
X0238165D01*
Y0160415D01*
X0236835D01*
Y0160126D01*
X0236665D01*
Y0160415D01*
X0235715D01*
X0234442Y0161687D01*
X0234356Y0161745D01*
X0234255Y0161765D01*
X0234255Y0161765D01*
X0232610D01*
X0232116Y0162259D01*
X0232116Y0162260D01*
Y0162500D01*
X0232500D01*
Y0162884D01*
X0232740D01*
X0232861Y0162908D01*
X0232963Y0162977D01*
X0233032Y0163079D01*
X0233047Y0163153D01*
X0233176Y0163210D01*
X0233200Y0163212D01*
X0234556Y0161856D01*
X0234556Y0161856D01*
X0234600Y0161826D01*
X0234622Y0161812D01*
X0234700Y0161796D01*
X0234700D01*
X0235024Y0161796D01*
X0235085Y0161735D01*
Y0161735D01*
X0236405D01*
Y0163065D01*
X0235085D01*
Y0163065D01*
X0234935Y0163053D01*
X0233744Y0164244D01*
X0233744Y0164244D01*
X0233678Y0164288D01*
X0233600Y0164304D01*
X0233190Y0164304D01*
X0233148Y0164334D01*
X0233142Y0164402D01*
X0233263Y0164535D01*
X0234835D01*
X0235085Y0164285D01*
Y0163335D01*
X0236405D01*
Y0164146D01*
X0236555Y0164224D01*
X0236595Y0164195D01*
Y0163335D01*
X0237915D01*
Y0164665D01*
X0236965D01*
X0236784Y0164846D01*
X0236841Y0164985D01*
X0237811D01*
X0237851Y0164926D01*
X0237999Y0164826D01*
X0238175Y0164791D01*
X0238351Y0164826D01*
X0238499Y0164926D01*
X0238599Y0165074D01*
X0238634Y0165250D01*
X0238599Y0165426D01*
X0238499Y0165574D01*
X0238351Y0165674D01*
X0238175Y0165709D01*
X0238065Y0165687D01*
X0237915Y0165784D01*
Y0165900D01*
X0237255D01*
Y0166100D01*
X0237915D01*
Y0166216D01*
X0238065Y0166313D01*
X0238175Y0166291D01*
X0238351Y0166326D01*
X0238499Y0166426D01*
X0238599Y0166574D01*
X0238634Y0166750D01*
X0238599Y0166926D01*
X0238499Y0167074D01*
X0238351Y0167174D01*
X0238175Y0167209D01*
X0238065Y0167187D01*
X0237915Y0167284D01*
Y0167400D01*
X0237255D01*
Y0167500D01*
X0237155D01*
Y0168172D01*
X0237065Y0168185D01*
Y0168600D01*
X0236560D01*
Y0168700D01*
X0236460D01*
Y0169215D01*
X0235541D01*
X0235483Y0169354D01*
X0235715Y0169585D01*
X0236665D01*
Y0169874D01*
X0236835D01*
Y0169585D01*
X0238165D01*
Y0170775D01*
X0236835D01*
Y0170486D01*
X0236665D01*
Y0170905D01*
X0235335D01*
Y0171095D01*
X0235900D01*
Y0171755D01*
Y0172415D01*
X0235335D01*
Y0172400D01*
X0235165D01*
Y0172415D01*
X0234960D01*
X0234898Y0172565D01*
X0235227Y0172894D01*
X0242213D01*
X0243435Y0171672D01*
Y0171085D01*
X0243492D01*
Y0169135D01*
X0243400Y0169107D01*
X0243174Y0168986D01*
X0242976Y0168824D01*
X0242814Y0168626D01*
X0242693Y0168400D01*
X0242619Y0168155D01*
X0242594Y0167900D01*
X0242619Y0167645D01*
X0242693Y0167400D01*
X0242814Y0167174D01*
X0242976Y0166976D01*
X0243174Y0166814D01*
X0243400Y0166693D01*
X0243645Y0166619D01*
X0243900Y0166594D01*
X0244155Y0166619D01*
X0244400Y0166693D01*
X0244626Y0166814D01*
X0244824Y0166976D01*
X0244986Y0167174D01*
X0245107Y0167400D01*
X0245181Y0167645D01*
X0245206Y0167900D01*
X0245181Y0168155D01*
X0245107Y0168400D01*
X0244986Y0168626D01*
X0244824Y0168824D01*
X0244626Y0168986D01*
X0244400Y0169107D01*
X0244308Y0169135D01*
Y0171085D01*
X0244760D01*
Y0171600D01*
Y0172115D01*
X0243858D01*
X0242556Y0173416D01*
X0242457Y0173483D01*
X0242340Y0173506D01*
X0242340Y0173506D01*
X0235100D01*
X0235100Y0173506D01*
X0234983Y0173483D01*
X0234884Y0173416D01*
X0234884Y0173416D01*
X0234284Y0172816D01*
X0234217Y0172717D01*
X0234194Y0172600D01*
X0234194Y0172600D01*
Y0172415D01*
X0233835D01*
Y0172400D01*
X0233665D01*
Y0172415D01*
X0232335D01*
Y0172400D01*
X0232165D01*
Y0172415D01*
X0230835D01*
Y0172400D01*
X0230665D01*
Y0172415D01*
X0229335D01*
Y0172400D01*
X0229165D01*
Y0172415D01*
X0228054D01*
X0228009Y0172565D01*
X0228024Y0172576D01*
X0228124Y0172724D01*
X0228159Y0172900D01*
X0228124Y0173076D01*
X0228024Y0173224D01*
X0227876Y0173324D01*
X0227700Y0173359D01*
X0227524Y0173324D01*
X0227376Y0173224D01*
X0227276Y0173076D01*
X0227241Y0172900D01*
X0227276Y0172724D01*
X0227376Y0172576D01*
X0227435Y0172536D01*
Y0171665D01*
X0227100D01*
Y0171160D01*
X0226900D01*
Y0171665D01*
X0226485D01*
Y0171665D01*
X0226415D01*
Y0171665D01*
X0226000D01*
Y0171160D01*
X0225900D01*
Y0171060D01*
X0225385D01*
Y0170731D01*
X0225346Y0170693D01*
X0225253Y0170635D01*
X0225235Y0170632D01*
X0225100Y0170659D01*
X0224960Y0170631D01*
X0224836Y0170700D01*
X0224810Y0170722D01*
Y0171515D01*
X0224443D01*
Y0172115D01*
X0224735D01*
Y0173485D01*
X0223415D01*
X0223335Y0173485D01*
X0223300D01*
X0223265D01*
X0223185Y0173485D01*
X0221865D01*
Y0173273D01*
X0221715Y0173198D01*
X0221676Y0173224D01*
X0221500Y0173259D01*
X0221324Y0173224D01*
X0221315Y0173218D01*
X0221165Y0173298D01*
Y0173315D01*
X0219840D01*
Y0172800D01*
Y0172285D01*
X0221165D01*
Y0172302D01*
X0221315Y0172382D01*
X0221324Y0172376D01*
X0221500Y0172341D01*
X0221676Y0172376D01*
X0221715Y0172402D01*
X0221865Y0172327D01*
Y0172115D01*
X0223185D01*
X0223265Y0172115D01*
X0223300D01*
X0223335D01*
X0223415Y0172115D01*
X0223627D01*
Y0171515D01*
X0222610D01*
Y0169885D01*
X0224351D01*
X0224444Y0169823D01*
X0224600Y0169792D01*
X0224900D01*
X0224924Y0169776D01*
X0225100Y0169741D01*
X0225235Y0169768D01*
X0225385Y0169735D01*
Y0169735D01*
X0225385Y0169735D01*
X0226415D01*
Y0169735D01*
X0226485D01*
Y0169735D01*
X0227030D01*
X0228563Y0168202D01*
X0228518Y0168052D01*
X0228379Y0167993D01*
X0228321Y0168032D01*
X0228281Y0168040D01*
X0228217Y0168083D01*
X0228100Y0168106D01*
X0227327D01*
X0226565Y0168868D01*
Y0169315D01*
X0225240D01*
Y0168800D01*
X0225140D01*
Y0168700D01*
X0224635D01*
Y0168285D01*
X0224650D01*
Y0167900D01*
X0225145D01*
Y0167700D01*
X0224650D01*
Y0167300D01*
Y0167000D01*
X0225145D01*
Y0166800D01*
X0224650D01*
Y0166400D01*
X0224993D01*
X0225071Y0166250D01*
X0225041Y0166100D01*
X0225076Y0165924D01*
X0225176Y0165776D01*
X0225324Y0165676D01*
X0225452Y0165651D01*
X0225484Y0165497D01*
X0225376Y0165424D01*
X0225277Y0165276D01*
X0225272Y0165276D01*
X0225128D01*
X0225123Y0165276D01*
X0225024Y0165424D01*
X0224876Y0165524D01*
X0224700Y0165559D01*
X0224524Y0165524D01*
X0224376Y0165424D01*
X0224276Y0165276D01*
X0224241Y0165100D01*
X0224150Y0165000D01*
X0224058Y0165100D01*
X0224023Y0165275D01*
X0223924Y0165424D01*
X0223809Y0165501D01*
X0223700Y0165600D01*
X0223700Y0168900D01*
X0219300D01*
Y0164971D01*
X0219194Y0164865D01*
X0218435D01*
X0218337Y0164924D01*
X0218315Y0165065D01*
X0218315D01*
D01*
X0218242Y0165215D01*
X0218259Y0165300D01*
X0218224Y0165476D01*
X0218124Y0165624D01*
X0217976Y0165724D01*
X0217800Y0165759D01*
X0217624Y0165724D01*
X0217476Y0165624D01*
X0217376Y0165476D01*
X0217341Y0165300D01*
X0217358Y0165215D01*
X0217285Y0165065D01*
X0217285D01*
X0217285Y0165065D01*
Y0164055D01*
Y0163740D01*
X0217800D01*
Y0163640D01*
X0217900D01*
Y0163135D01*
X0218315D01*
Y0163135D01*
X0218435Y0163063D01*
Y0162635D01*
Y0162135D01*
X0218983D01*
X0218999Y0162116D01*
X0219049Y0161985D01*
X0218976Y0161876D01*
X0218941Y0161700D01*
X0218976Y0161524D01*
X0219023Y0161454D01*
X0218943Y0161304D01*
X0218200D01*
X0218165Y0161333D01*
Y0161600D01*
X0217660D01*
Y0161700D01*
X0217560D01*
Y0162215D01*
X0217046D01*
Y0162460D01*
X0217046Y0162460D01*
X0217023Y0162577D01*
X0216956Y0162676D01*
X0216850Y0162783D01*
Y0163880D01*
X0216617D01*
X0216554Y0164030D01*
X0216612Y0164088D01*
X0216662Y0164162D01*
X0216679Y0164250D01*
Y0164320D01*
X0216850D01*
Y0165810D01*
X0216314D01*
X0216231Y0165960D01*
X0216259Y0166100D01*
X0216224Y0166276D01*
X0216147Y0166390D01*
X0216190Y0166509D01*
X0216214Y0166540D01*
X0217030D01*
Y0168850D01*
X0217025D01*
X0216963Y0168966D01*
X0216961Y0169000D01*
X0216994Y0169165D01*
X0216959Y0169341D01*
X0216859Y0169489D01*
X0216711Y0169589D01*
X0216535Y0169624D01*
X0216359Y0169589D01*
X0216211Y0169489D01*
X0216111Y0169341D01*
X0216076Y0169165D01*
X0216109Y0169000D01*
X0216107Y0168966D01*
X0216045Y0168850D01*
X0216040D01*
Y0166652D01*
X0216036Y0166645D01*
X0215890Y0166541D01*
X0215800Y0166559D01*
X0215760Y0166592D01*
Y0168850D01*
X0215494D01*
Y0168935D01*
X0215477Y0169023D01*
X0215427Y0169097D01*
X0214684Y0169841D01*
X0214758Y0169979D01*
X0214800Y0169971D01*
X0216500D01*
X0216588Y0169988D01*
X0216662Y0170038D01*
X0217967Y0171343D01*
X0218017Y0171417D01*
X0218020Y0171432D01*
X0218034Y0171505D01*
X0218171Y0171550D01*
X0218300D01*
Y0173860D01*
X0217310D01*
Y0171550D01*
X0217330D01*
X0217387Y0171411D01*
X0216405Y0170429D01*
X0216263D01*
X0216204Y0170579D01*
X0216697Y0171073D01*
X0216747Y0171147D01*
X0216764Y0171235D01*
Y0171550D01*
X0217030D01*
Y0173860D01*
X0216040D01*
Y0171550D01*
X0216306D01*
Y0171330D01*
X0215996Y0171020D01*
X0215940Y0171028D01*
X0215919Y0171046D01*
X0215838Y0171195D01*
X0215859Y0171300D01*
X0215824Y0171476D01*
X0215760Y0171571D01*
Y0173860D01*
X0214770D01*
Y0171550D01*
X0214770D01*
X0214820Y0171447D01*
X0214688Y0171412D01*
X0214688Y0171412D01*
X0214600Y0171429D01*
X0214561D01*
X0214490Y0171550D01*
X0214490Y0171579D01*
Y0173860D01*
X0213500D01*
Y0173157D01*
X0212965D01*
Y0173315D01*
X0212965Y0173315D01*
X0212932Y0173465D01*
X0212959Y0173600D01*
X0212924Y0173776D01*
X0212824Y0173924D01*
X0212676Y0174024D01*
X0212500Y0174059D01*
D02*
G37*
G36*
X0237065Y0169215D02*
X0236660D01*
Y0168800D01*
X0237065D01*
Y0169215D01*
D02*
G37*
G36*
X0217705Y0167595D02*
X0217310D01*
Y0166540D01*
X0217705D01*
Y0167595D01*
D02*
G37*
G36*
X0184000Y0163600D02*
X0183225D01*
Y0163300D01*
X0184000D01*
Y0163600D01*
D02*
G37*
G36*
X0184975D02*
X0184200D01*
Y0163300D01*
X0184975D01*
Y0163600D01*
D02*
G37*
G36*
X0249800Y0168300D02*
X0248604D01*
X0248619Y0168145D01*
X0248693Y0167900D01*
X0248814Y0167674D01*
X0248976Y0167476D01*
X0249174Y0167314D01*
X0249400Y0167193D01*
X0249645Y0167119D01*
X0249800Y0167104D01*
Y0168300D01*
D02*
G37*
G36*
X0240700Y0167895D02*
X0240565Y0167877D01*
X0240346Y0167786D01*
X0240158Y0167642D01*
X0240014Y0167454D01*
X0239923Y0167235D01*
X0239905Y0167100D01*
X0240700D01*
Y0167895D01*
D02*
G37*
G36*
X0218300Y0167595D02*
X0217905D01*
Y0166540D01*
X0218300D01*
Y0167595D01*
D02*
G37*
G36*
X0253200Y0165908D02*
X0252965Y0165877D01*
X0252746Y0165786D01*
X0252558Y0165642D01*
X0252414Y0165454D01*
X0252323Y0165235D01*
X0252292Y0165000D01*
X0252323Y0164765D01*
X0252414Y0164546D01*
X0252558Y0164358D01*
X0252746Y0164214D01*
X0252965Y0164123D01*
X0253200Y0164092D01*
X0253435Y0164123D01*
X0253654Y0164214D01*
X0253842Y0164358D01*
X0253986Y0164546D01*
X0254077Y0164765D01*
X0254108Y0165000D01*
X0254077Y0165235D01*
X0253986Y0165454D01*
X0253842Y0165642D01*
X0253654Y0165786D01*
X0253435Y0165877D01*
X0253200Y0165908D01*
D02*
G37*
G36*
X0248700D02*
X0248465Y0165877D01*
X0248246Y0165786D01*
X0248058Y0165642D01*
X0247914Y0165454D01*
X0247823Y0165235D01*
X0247792Y0165000D01*
X0247823Y0164765D01*
X0247914Y0164546D01*
X0248058Y0164358D01*
X0248246Y0164214D01*
X0248465Y0164123D01*
X0248700Y0164092D01*
X0248935Y0164123D01*
X0249154Y0164214D01*
X0249342Y0164358D01*
X0249486Y0164546D01*
X0249577Y0164765D01*
X0249608Y0165000D01*
X0249577Y0165235D01*
X0249486Y0165454D01*
X0249342Y0165642D01*
X0249154Y0165786D01*
X0248935Y0165877D01*
X0248700Y0165908D01*
D02*
G37*
G36*
X0186515Y0163965D02*
X0186100D01*
Y0163560D01*
X0186515D01*
Y0163965D01*
D02*
G37*
G36*
X0240700Y0166900D02*
X0239905D01*
X0239923Y0166765D01*
X0240014Y0166546D01*
X0240158Y0166358D01*
X0240346Y0166214D01*
X0240565Y0166123D01*
X0240700Y0166105D01*
Y0166900D01*
D02*
G37*
G36*
X0185900Y0163965D02*
X0185485D01*
Y0163560D01*
X0185900D01*
Y0163965D01*
D02*
G37*
G36*
X0187965Y0164975D02*
X0187590D01*
Y0164725D01*
X0187965D01*
Y0164975D01*
D02*
G37*
G36*
X0217705Y0168850D02*
X0217310D01*
Y0167795D01*
X0217705D01*
Y0168850D01*
D02*
G37*
G36*
X0241900Y0171359D02*
X0241724Y0171324D01*
X0241576Y0171224D01*
X0241476Y0171076D01*
X0241441Y0170900D01*
X0241476Y0170724D01*
X0241516Y0170665D01*
X0241436Y0170515D01*
X0241040D01*
Y0170000D01*
Y0169485D01*
X0241554D01*
Y0167725D01*
X0241404Y0167671D01*
X0241254Y0167786D01*
X0241035Y0167877D01*
X0240900Y0167895D01*
Y0167000D01*
Y0166105D01*
X0241035Y0166123D01*
X0241254Y0166214D01*
X0241328Y0166271D01*
X0241490Y0166206D01*
X0241502Y0166135D01*
X0241183Y0165816D01*
X0241035Y0165877D01*
X0240800Y0165908D01*
X0240565Y0165877D01*
X0240346Y0165786D01*
X0240158Y0165642D01*
X0240014Y0165454D01*
X0239923Y0165235D01*
X0239892Y0165000D01*
X0239923Y0164765D01*
X0240014Y0164546D01*
X0240158Y0164358D01*
X0240346Y0164214D01*
X0240565Y0164123D01*
X0240800Y0164092D01*
X0241035Y0164123D01*
X0241254Y0164214D01*
X0241442Y0164358D01*
X0241586Y0164546D01*
X0241677Y0164765D01*
X0241708Y0165000D01*
X0241677Y0165235D01*
X0241616Y0165383D01*
X0242076Y0165844D01*
X0242076Y0165844D01*
X0242116Y0165903D01*
X0242143Y0165943D01*
X0242166Y0166060D01*
Y0169485D01*
X0242365D01*
Y0170515D01*
X0242364D01*
X0242284Y0170665D01*
X0242324Y0170724D01*
X0242359Y0170900D01*
X0242324Y0171076D01*
X0242224Y0171224D01*
X0242076Y0171324D01*
X0241900Y0171359D01*
D02*
G37*
G36*
X0190945Y0168800D02*
X0190550D01*
Y0168400D01*
X0190945D01*
Y0168800D01*
D02*
G37*
G36*
X0218300Y0168850D02*
X0217905D01*
Y0167795D01*
X0218300D01*
Y0168850D01*
D02*
G37*
G36*
X0249800Y0169696D02*
X0249645Y0169681D01*
X0249400Y0169607D01*
X0249174Y0169486D01*
X0248976Y0169324D01*
X0248814Y0169126D01*
X0248693Y0168900D01*
X0248619Y0168655D01*
X0248604Y0168500D01*
X0249800D01*
Y0169696D01*
D02*
G37*
G36*
X0250000D02*
Y0168500D01*
X0251196D01*
X0251181Y0168655D01*
X0251107Y0168900D01*
X0250986Y0169126D01*
X0250824Y0169324D01*
X0250626Y0169486D01*
X0250400Y0169607D01*
X0250155Y0169681D01*
X0250000Y0169696D01*
D02*
G37*
G36*
X0251196Y0168300D02*
X0250000D01*
Y0167104D01*
X0250155Y0167119D01*
X0250400Y0167193D01*
X0250626Y0167314D01*
X0250824Y0167476D01*
X0250986Y0167674D01*
X0251107Y0167900D01*
X0251181Y0168145D01*
X0251196Y0168300D01*
D02*
G37*
G36*
X0237915Y0168165D02*
X0237355D01*
Y0167600D01*
X0237915D01*
Y0168165D01*
D02*
G37*
G36*
X0184775Y0169200D02*
X0182975D01*
Y0167200D01*
X0184775D01*
Y0169200D01*
D02*
G37*
%LPD*%
G36*
X0233600Y0164100D02*
X0234900Y0162800D01*
X0235400Y0162800D01*
Y0162000D01*
X0234700Y0162000D01*
X0233100Y0163600D01*
X0233100Y0164100D01*
X0233600Y0164100D01*
D02*
G37*
G36*
X0226948Y0164421D02*
X0226944Y0164400D01*
X0226952Y0164360D01*
X0226968Y0164279D01*
X0226857Y0164175D01*
X0226838Y0164162D01*
X0226138Y0163462D01*
X0226088Y0163388D01*
X0226071Y0163300D01*
Y0162488D01*
X0225976Y0162424D01*
X0225876Y0162276D01*
X0225841Y0162100D01*
X0225876Y0161924D01*
X0225973Y0161779D01*
X0225969Y0161755D01*
X0225924Y0161629D01*
X0225576D01*
X0225531Y0161755D01*
X0225527Y0161779D01*
X0225624Y0161924D01*
X0225659Y0162100D01*
X0225642Y0162185D01*
X0225715Y0162335D01*
X0225715D01*
X0225715Y0162335D01*
Y0163255D01*
Y0163660D01*
X0225200D01*
Y0163860D01*
X0225715D01*
Y0164265D01*
X0225832Y0164346D01*
X0226175D01*
X0226263Y0164363D01*
X0226337Y0164413D01*
X0226495Y0164571D01*
X0226834D01*
X0226948Y0164421D01*
D02*
G37*
G36*
X0229335Y0169585D02*
X0229669D01*
X0229702Y0169552D01*
X0229768Y0169435D01*
X0229741Y0169300D01*
X0229776Y0169124D01*
X0229876Y0168976D01*
X0229935Y0168936D01*
Y0168182D01*
X0229800Y0168056D01*
X0229665Y0168182D01*
Y0168400D01*
X0229645Y0168501D01*
X0229587Y0168587D01*
X0229587Y0168587D01*
X0228765Y0169410D01*
Y0169585D01*
X0229165D01*
Y0170800D01*
X0229335D01*
Y0169585D01*
D02*
G37*
G36*
X0194900Y0168994D02*
X0195050Y0168873D01*
Y0168600D01*
X0195545D01*
Y0168400D01*
X0195050D01*
Y0168015D01*
X0195035D01*
Y0167600D01*
X0195540D01*
Y0167400D01*
X0195035D01*
Y0166985D01*
Y0166600D01*
X0195540D01*
Y0166400D01*
X0195035D01*
Y0166054D01*
X0194570D01*
X0194429Y0166195D01*
Y0166700D01*
X0194412Y0166788D01*
X0194362Y0166862D01*
X0193989Y0167235D01*
X0194017Y0167341D01*
X0194047Y0167385D01*
X0194365D01*
Y0168415D01*
X0194350D01*
Y0168962D01*
X0194382Y0168994D01*
X0194900D01*
X0194900Y0168994D01*
D02*
G37*
G36*
X0214887Y0168989D02*
X0214830Y0168850D01*
X0214770D01*
Y0166540D01*
X0215386D01*
X0215410Y0166509D01*
X0215453Y0166390D01*
X0215376Y0166276D01*
X0215341Y0166100D01*
X0215369Y0165960D01*
X0215286Y0165810D01*
X0215250D01*
Y0165065D01*
X0215150D01*
Y0164965D01*
X0214750D01*
Y0164329D01*
X0214600D01*
X0214512Y0164312D01*
X0214438Y0164262D01*
X0213963Y0163787D01*
X0213913Y0163713D01*
X0213896Y0163625D01*
Y0161720D01*
X0213505Y0161329D01*
X0211300D01*
X0211212Y0161312D01*
X0211138Y0161262D01*
X0210830Y0160954D01*
X0210680Y0160990D01*
Y0161410D01*
Y0161910D01*
Y0162106D01*
X0210819Y0162163D01*
X0211091Y0161891D01*
X0211135Y0161861D01*
Y0161485D01*
X0212460D01*
Y0162000D01*
X0212560D01*
Y0162100D01*
X0213065D01*
Y0162515D01*
X0213100Y0162550D01*
X0213100D01*
Y0163460D01*
Y0164450D01*
X0212906D01*
X0212868Y0164508D01*
X0212841Y0164600D01*
X0212924Y0164724D01*
X0212959Y0164900D01*
X0212924Y0165076D01*
X0212824Y0165224D01*
X0212676Y0165324D01*
X0212500Y0165359D01*
X0212388Y0165337D01*
X0212189Y0165535D01*
X0212217Y0165641D01*
X0212247Y0165685D01*
X0212360D01*
Y0166200D01*
X0212460D01*
Y0166300D01*
X0212965D01*
Y0166715D01*
X0212935D01*
X0212878Y0166854D01*
X0213162Y0167138D01*
X0213212Y0167212D01*
X0213229Y0167300D01*
Y0168312D01*
X0213324Y0168376D01*
X0213350Y0168414D01*
X0213500Y0168368D01*
Y0166540D01*
X0214490D01*
Y0168850D01*
X0214406D01*
X0214368Y0168908D01*
X0214341Y0169000D01*
X0214424Y0169124D01*
X0214443Y0169220D01*
X0214606Y0169270D01*
X0214887Y0168989D01*
D02*
G37*
G36*
X0187896Y0167600D02*
X0187912Y0167522D01*
X0187956Y0167456D01*
X0188022Y0167412D01*
X0188100Y0167396D01*
X0189200D01*
X0189285Y0167260D01*
Y0167140D01*
X0190315D01*
Y0167448D01*
X0190347Y0167478D01*
X0190454Y0167522D01*
X0191038Y0166938D01*
X0191112Y0166888D01*
X0191200Y0166871D01*
X0192016D01*
X0192090Y0166721D01*
X0192076Y0166703D01*
X0192015Y0166557D01*
X0191995Y0166400D01*
X0192015Y0166243D01*
X0192076Y0166097D01*
X0192172Y0165972D01*
X0192297Y0165876D01*
X0192417Y0165826D01*
Y0165180D01*
X0192417Y0165180D01*
X0192443Y0165050D01*
X0192448Y0165024D01*
X0192537Y0164892D01*
X0193392Y0164037D01*
X0193392Y0164037D01*
X0193524Y0163948D01*
X0193576Y0163938D01*
X0193680Y0163917D01*
X0193680Y0163917D01*
X0195035D01*
Y0163800D01*
X0195540D01*
Y0163700D01*
X0195640D01*
Y0163185D01*
X0196965D01*
Y0163454D01*
X0197320D01*
Y0163410D01*
Y0162910D01*
Y0162410D01*
Y0162046D01*
X0196965D01*
Y0162215D01*
X0196715D01*
Y0162340D01*
X0196695Y0162438D01*
X0196640Y0162520D01*
X0196280Y0162880D01*
X0196198Y0162935D01*
X0196100Y0162955D01*
X0193906D01*
X0193443Y0163418D01*
X0193459Y0163500D01*
X0193424Y0163676D01*
X0193324Y0163824D01*
X0193176Y0163924D01*
X0193000Y0163959D01*
X0192900Y0163939D01*
X0192750Y0164000D01*
Y0164000D01*
X0192750Y0164000D01*
X0191923D01*
X0191861Y0164150D01*
X0191910Y0164268D01*
X0191930Y0164425D01*
X0191910Y0164582D01*
X0191849Y0164728D01*
X0191774Y0164825D01*
X0191849Y0164922D01*
X0191910Y0165068D01*
X0191930Y0165225D01*
X0191910Y0165382D01*
X0191849Y0165528D01*
X0191753Y0165653D01*
X0191628Y0165749D01*
X0191482Y0165810D01*
X0191325Y0165830D01*
X0191168Y0165810D01*
X0191022Y0165749D01*
X0190897Y0165653D01*
X0190801Y0165528D01*
X0190751Y0165408D01*
X0189614D01*
X0188733Y0166288D01*
X0188601Y0166377D01*
X0188575Y0166382D01*
X0188445Y0166408D01*
X0188445Y0166408D01*
X0188065D01*
Y0166525D01*
X0187490D01*
X0187365Y0166585D01*
Y0167000D01*
X0186860D01*
Y0167100D01*
X0186760D01*
Y0167615D01*
X0186297D01*
Y0167815D01*
X0186965D01*
Y0167815D01*
X0187035D01*
Y0167815D01*
X0187896D01*
Y0167600D01*
D02*
G37*
G36*
X0211038Y0165238D02*
X0211112Y0165188D01*
X0211200Y0165171D01*
X0211905D01*
X0212063Y0165012D01*
X0212041Y0164900D01*
X0212076Y0164724D01*
X0212159Y0164600D01*
X0212138Y0164530D01*
X0212015Y0164465D01*
Y0164465D01*
X0212015Y0164465D01*
X0211600D01*
Y0163960D01*
X0211500D01*
Y0163860D01*
X0210985D01*
Y0163535D01*
X0210680D01*
Y0163910D01*
Y0164410D01*
Y0164910D01*
Y0165383D01*
X0210737Y0165424D01*
X0210830Y0165446D01*
X0211038Y0165238D01*
D02*
G37*
%LPC*%
G36*
X0195440Y0163600D02*
X0195035D01*
Y0163185D01*
X0195440D01*
Y0163600D01*
D02*
G37*
G36*
X0189700Y0166940D02*
X0189285D01*
Y0166535D01*
X0189700D01*
Y0166940D01*
D02*
G37*
G36*
X0190315D02*
X0189900D01*
Y0166535D01*
X0190315D01*
Y0166940D01*
D02*
G37*
G36*
X0187365Y0167615D02*
X0186960D01*
Y0167200D01*
X0187365D01*
Y0167615D01*
D02*
G37*
G36*
X0212965Y0166100D02*
X0212560D01*
Y0165685D01*
X0212965D01*
Y0166100D01*
D02*
G37*
G36*
X0211400Y0164465D02*
X0210985D01*
Y0164060D01*
X0211400D01*
Y0164465D01*
D02*
G37*
G36*
X0213065Y0161900D02*
X0212660D01*
Y0161485D01*
X0213065D01*
Y0161900D01*
D02*
G37*
G36*
X0215050Y0165810D02*
X0214750D01*
Y0165165D01*
X0215050D01*
Y0165810D01*
D02*
G37*
%LPD*%
D10*
X0211545Y0169500D02*
D03*
X0212455D02*
D03*
X0191345Y0162500D02*
D03*
X0192255D02*
D03*
Y0163500D02*
D03*
X0191345D02*
D03*
X0191955Y0168900D02*
D03*
X0191045D02*
D03*
X0193855D02*
D03*
X0192945D02*
D03*
X0196455Y0160000D02*
D03*
X0195545D02*
D03*
X0196455Y0157500D02*
D03*
X0195545D02*
D03*
X0214745Y0161700D02*
D03*
X0215655D02*
D03*
X0196455Y0165300D02*
D03*
X0195545D02*
D03*
X0196455Y0168500D02*
D03*
X0195545D02*
D03*
X0192255Y0161500D02*
D03*
X0191345D02*
D03*
X0226055Y0167800D02*
D03*
X0225145D02*
D03*
X0226055Y0166900D02*
D03*
X0225145D02*
D03*
D11*
X0205700Y0157460D02*
D03*
Y0156540D02*
D03*
X0186000Y0160540D02*
D03*
Y0161460D02*
D03*
X0227000Y0170240D02*
D03*
Y0171160D02*
D03*
X0225200Y0162840D02*
D03*
Y0163760D02*
D03*
X0217800Y0163640D02*
D03*
Y0164560D02*
D03*
X0201600Y0172540D02*
D03*
Y0173460D02*
D03*
X0200700Y0156540D02*
D03*
Y0157460D02*
D03*
X0206600Y0173460D02*
D03*
Y0172540D02*
D03*
X0203800Y0157460D02*
D03*
Y0156540D02*
D03*
X0211500Y0163960D02*
D03*
Y0163040D02*
D03*
X0203700Y0172540D02*
D03*
Y0173460D02*
D03*
X0246400Y0158540D02*
D03*
Y0159460D02*
D03*
X0189800Y0167040D02*
D03*
Y0167960D02*
D03*
X0186000Y0162540D02*
D03*
Y0163460D02*
D03*
X0225900Y0170240D02*
D03*
Y0171160D02*
D03*
D12*
X0208000Y0156545D02*
D03*
Y0157455D02*
D03*
X0209700D02*
D03*
Y0156545D02*
D03*
X0202100Y0157455D02*
D03*
Y0156545D02*
D03*
X0212600Y0163955D02*
D03*
Y0163045D02*
D03*
D13*
X0211540Y0172800D02*
D03*
X0212460D02*
D03*
X0195540Y0163700D02*
D03*
X0196460D02*
D03*
X0219740Y0172800D02*
D03*
X0220660D02*
D03*
X0192940Y0167900D02*
D03*
X0193860D02*
D03*
X0217660Y0161700D02*
D03*
X0216740D02*
D03*
X0196460D02*
D03*
X0195540D02*
D03*
Y0167500D02*
D03*
X0196460D02*
D03*
X0212460Y0166200D02*
D03*
X0211540D02*
D03*
X0211640Y0162000D02*
D03*
X0212560D02*
D03*
X0185540Y0159500D02*
D03*
X0186460D02*
D03*
X0186860Y0167100D02*
D03*
X0185940D02*
D03*
X0195540Y0166500D02*
D03*
X0196460D02*
D03*
X0244860Y0171600D02*
D03*
X0243940D02*
D03*
X0235640Y0168700D02*
D03*
X0236560D02*
D03*
X0240940Y0170000D02*
D03*
X0241860D02*
D03*
X0226060Y0168800D02*
D03*
X0225140D02*
D03*
D14*
X0213995Y0167695D02*
D03*
X0215265D02*
D03*
X0216535D02*
D03*
X0217805D02*
D03*
Y0172705D02*
D03*
X0216535D02*
D03*
X0215265D02*
D03*
X0213995D02*
D03*
D15*
X0187490Y0166075D02*
D03*
Y0165075D02*
D03*
X0185910D02*
D03*
Y0165575D02*
D03*
Y0166075D02*
D03*
D16*
X0223945Y0159950D02*
D03*
Y0159000D02*
D03*
Y0158050D02*
D03*
X0226455D02*
D03*
Y0159950D02*
D03*
X0189745Y0172250D02*
D03*
Y0171300D02*
D03*
Y0170350D02*
D03*
X0192255Y0172250D02*
D03*
Y0170350D02*
D03*
X0214745Y0158050D02*
D03*
X0217255D02*
D03*
Y0159950D02*
D03*
X0214745Y0159000D02*
D03*
Y0159950D02*
D03*
D17*
X0188185Y0160050D02*
D03*
Y0158150D02*
D03*
X0190215Y0159100D02*
D03*
D18*
X0189465Y0161850D02*
D03*
Y0162500D02*
D03*
Y0163150D02*
D03*
X0187535D02*
D03*
Y0162500D02*
D03*
Y0161850D02*
D03*
D19*
X0216450Y0165065D02*
D03*
X0215800D02*
D03*
X0215150D02*
D03*
X0216450Y0163135D02*
D03*
X0215150D02*
D03*
D20*
X0223605Y0164500D02*
D03*
Y0164000D02*
D03*
Y0163500D02*
D03*
Y0163000D02*
D03*
Y0162500D02*
D03*
X0219395D02*
D03*
Y0163000D02*
D03*
Y0163500D02*
D03*
Y0164000D02*
D03*
Y0164500D02*
D03*
D21*
X0220800Y0158180D02*
D03*
Y0159820D02*
D03*
X0237500Y0171820D02*
D03*
Y0170180D02*
D03*
X0233000Y0171820D02*
D03*
Y0170180D02*
D03*
X0234500D02*
D03*
Y0171820D02*
D03*
X0234500Y0159820D02*
D03*
Y0158180D02*
D03*
X0237500D02*
D03*
Y0159820D02*
D03*
X0233000Y0158180D02*
D03*
Y0159820D02*
D03*
D22*
X0198320Y0164250D02*
D03*
Y0164750D02*
D03*
X0209680Y0168750D02*
D03*
Y0168250D02*
D03*
Y0167750D02*
D03*
Y0167250D02*
D03*
Y0166750D02*
D03*
Y0166250D02*
D03*
Y0165750D02*
D03*
Y0165250D02*
D03*
Y0164750D02*
D03*
Y0164250D02*
D03*
Y0163750D02*
D03*
Y0163250D02*
D03*
Y0162750D02*
D03*
Y0162250D02*
D03*
Y0161750D02*
D03*
Y0161250D02*
D03*
X0198320D02*
D03*
Y0161750D02*
D03*
Y0162250D02*
D03*
Y0162750D02*
D03*
Y0163250D02*
D03*
Y0163750D02*
D03*
Y0165250D02*
D03*
Y0165750D02*
D03*
Y0166250D02*
D03*
Y0166750D02*
D03*
Y0167250D02*
D03*
Y0167750D02*
D03*
Y0168250D02*
D03*
Y0168750D02*
D03*
D23*
X0209680Y0159320D02*
D03*
X0198320Y0170680D02*
D03*
D24*
X0204000Y0165000D02*
D03*
D25*
X0207750Y0159320D02*
D03*
X0207250D02*
D03*
X0206750D02*
D03*
X0206250D02*
D03*
X0205750D02*
D03*
X0205250D02*
D03*
X0204750D02*
D03*
X0204250D02*
D03*
X0203750D02*
D03*
X0203250D02*
D03*
X0202750D02*
D03*
X0202250D02*
D03*
X0201750D02*
D03*
X0201250D02*
D03*
X0200750D02*
D03*
X0200250D02*
D03*
Y0170680D02*
D03*
X0200750D02*
D03*
X0201250D02*
D03*
X0201750D02*
D03*
X0202250D02*
D03*
X0202750D02*
D03*
X0203250D02*
D03*
X0203750D02*
D03*
X0204250D02*
D03*
X0204750D02*
D03*
X0205250D02*
D03*
X0205750D02*
D03*
X0206250D02*
D03*
X0206750D02*
D03*
X0207250D02*
D03*
X0207750D02*
D03*
D26*
X0230000Y0165000D02*
D03*
D27*
X0227550Y0163200D02*
D03*
Y0163600D02*
D03*
Y0164000D02*
D03*
Y0164400D02*
D03*
Y0164800D02*
D03*
Y0165200D02*
D03*
Y0165600D02*
D03*
Y0166000D02*
D03*
Y0166400D02*
D03*
Y0166800D02*
D03*
X0232450D02*
D03*
Y0166400D02*
D03*
Y0166000D02*
D03*
Y0165600D02*
D03*
Y0165200D02*
D03*
Y0164800D02*
D03*
Y0164400D02*
D03*
Y0164000D02*
D03*
Y0163600D02*
D03*
Y0163200D02*
D03*
D28*
X0228200Y0167450D02*
D03*
X0228600D02*
D03*
X0229000D02*
D03*
X0229400D02*
D03*
X0229800D02*
D03*
X0230200D02*
D03*
X0230600D02*
D03*
X0231000D02*
D03*
X0231400D02*
D03*
X0231800D02*
D03*
Y0162550D02*
D03*
X0231400D02*
D03*
X0231000D02*
D03*
X0230600D02*
D03*
X0230200D02*
D03*
X0229800D02*
D03*
X0229400D02*
D03*
X0229000D02*
D03*
X0228600D02*
D03*
X0228200D02*
D03*
D29*
X0220330Y0166155D02*
D03*
X0222670D02*
D03*
Y0168045D02*
D03*
X0220330D02*
D03*
D30*
X0194260Y0157500D02*
D03*
X0192740D02*
D03*
X0194260Y0160000D02*
D03*
X0192740D02*
D03*
D31*
X0194110Y0172500D02*
D03*
X0195890D02*
D03*
D32*
X0222565Y0172800D02*
D03*
X0224035D02*
D03*
X0186265Y0168500D02*
D03*
X0187735D02*
D03*
D33*
X0186000Y0157000D02*
D03*
X0249000D02*
D03*
Y0173000D02*
D03*
D34*
X0247500Y0158525D02*
D03*
Y0159475D02*
D03*
D35*
X0184100Y0165000D02*
D03*
Y0165650D02*
D03*
Y0163700D02*
D03*
Y0164350D02*
D03*
Y0166300D02*
D03*
D36*
X0181425Y0163800D02*
D03*
Y0166200D02*
D03*
D37*
X0183875Y0161800D02*
D03*
X0183875Y0168200D02*
D03*
D38*
X0223710Y0170700D02*
D03*
X0221090D02*
D03*
D39*
X0194125Y0170500D02*
D03*
X0195875D02*
D03*
D40*
X0213000Y0158245D02*
D03*
Y0159755D02*
D03*
X0230000D02*
D03*
Y0158245D02*
D03*
X0236000Y0170245D02*
D03*
Y0171755D02*
D03*
X0231500Y0170245D02*
D03*
Y0171755D02*
D03*
X0231500Y0159755D02*
D03*
Y0158245D02*
D03*
X0236000Y0159755D02*
D03*
Y0158245D02*
D03*
X0228100D02*
D03*
Y0159755D02*
D03*
X0219000Y0158245D02*
D03*
Y0159755D02*
D03*
X0228500Y0170245D02*
D03*
Y0171755D02*
D03*
X0230000Y0170245D02*
D03*
Y0171755D02*
D03*
X0222300Y0159755D02*
D03*
Y0158245D02*
D03*
D41*
X0235745Y0167500D02*
D03*
X0237255D02*
D03*
Y0166000D02*
D03*
X0235745D02*
D03*
Y0164000D02*
D03*
X0237255D02*
D03*
X0237255Y0162400D02*
D03*
X0235745D02*
D03*
D42*
X0187700Y0172475D02*
D03*
Y0170725D02*
D03*
D43*
X0244875Y0170500D02*
D03*
X0243925D02*
D03*
D44*
X0219000Y0168100D02*
X0219055Y0168045D01*
X0220330D01*
X0222400Y0163200D02*
X0222491D01*
X0222791Y0163500D01*
X0223605D01*
X0222670Y0166155D02*
X0224055D01*
X0224000Y0166100D02*
X0224055Y0166155D01*
D45*
X0212000Y0165400D02*
X0212500Y0164900D01*
X0211200Y0165400D02*
X0212000D01*
X0210850Y0165750D02*
X0211200Y0165400D01*
X0226600Y0166000D02*
X0227550D01*
X0215265Y0172705D02*
X0215400Y0172570D01*
Y0171300D02*
Y0172570D01*
X0216500Y0170200D02*
X0217805Y0171505D01*
X0214800Y0170200D02*
X0216500D01*
X0214300Y0170700D02*
X0214800Y0170200D01*
X0209700Y0170700D02*
X0214300D01*
X0215265Y0167695D02*
Y0168935D01*
X0214000Y0170200D02*
X0215265Y0168935D01*
X0209738Y0170200D02*
X0214000D01*
X0214600Y0171200D02*
X0215100Y0170700D01*
X0209600Y0171200D02*
X0214600D01*
X0207800Y0169400D02*
X0209600Y0171200D01*
X0208000Y0169000D02*
X0209700Y0170700D01*
X0208138Y0168600D02*
X0209738Y0170200D01*
X0212455Y0169500D02*
X0212655Y0169300D01*
X0214000D01*
X0213000Y0167300D02*
Y0168700D01*
X0212450Y0166750D02*
X0213000Y0167300D01*
X0209680Y0167250D02*
X0211950D01*
X0212000Y0167300D01*
X0209680Y0166750D02*
X0212450D01*
X0200300Y0168100D02*
Y0168200D01*
X0200250Y0168250D02*
X0200300Y0168200D01*
X0198320Y0168250D02*
X0200250D01*
X0199350Y0167750D02*
X0199700Y0167400D01*
X0198320Y0167750D02*
X0199350D01*
X0216535Y0171235D02*
Y0172705D01*
X0216000Y0170700D02*
X0216535Y0171235D01*
X0215100Y0170700D02*
X0216000D01*
X0209900Y0168750D02*
Y0169400D01*
X0209680Y0168750D02*
X0209900D01*
X0202500Y0169400D02*
X0207800D01*
X0202250Y0169650D02*
X0202500Y0169400D01*
X0201300Y0169000D02*
X0208000D01*
X0200750Y0169550D02*
X0201300Y0169000D01*
X0200900Y0168600D02*
X0208138D01*
X0200750Y0168750D02*
X0200900Y0168600D01*
X0198320Y0168750D02*
X0200750D01*
X0217805Y0171505D02*
Y0172705D01*
X0206250Y0170680D02*
Y0171950D01*
X0205700Y0172500D02*
X0206250Y0171950D01*
X0200750Y0169550D02*
Y0170680D01*
X0202250Y0169650D02*
Y0170680D01*
X0202750D02*
Y0171960D01*
X0213995Y0169295D02*
X0214000Y0169300D01*
X0213995Y0167695D02*
Y0169295D01*
X0211100Y0168100D02*
Y0168700D01*
X0210750Y0167750D02*
X0211100Y0168100D01*
X0207500Y0166800D02*
Y0167300D01*
X0208450Y0168250D01*
X0209680D01*
X0214125Y0161625D02*
Y0163625D01*
X0214600Y0164100D01*
X0216300D01*
X0209745Y0157500D02*
X0210500D01*
X0208045D02*
X0208800D01*
X0208000Y0157455D02*
X0208045Y0157500D01*
X0211300Y0161100D02*
X0213600D01*
X0210900Y0160700D02*
X0211300Y0161100D01*
X0191200Y0167100D02*
X0193800D01*
X0190340Y0167960D02*
X0191200Y0167100D01*
X0189800Y0167960D02*
X0190340D01*
X0229000Y0162100D02*
Y0162550D01*
X0228300Y0161400D02*
X0229000Y0162100D01*
X0224300Y0161400D02*
X0228300D01*
X0223900Y0158005D02*
X0223945Y0158050D01*
X0223900Y0157200D02*
Y0158005D01*
X0209680Y0167750D02*
X0210750D01*
X0205000Y0160700D02*
X0210900D01*
X0213600Y0161100D02*
X0214125Y0161625D01*
X0199600Y0162600D02*
Y0162700D01*
X0199550Y0162750D02*
X0199600Y0162700D01*
X0200200Y0161800D02*
Y0162900D01*
X0199875Y0163225D02*
X0200200Y0162900D01*
X0204750Y0160450D02*
X0205000Y0160700D01*
X0201300Y0160900D02*
X0201750Y0160450D01*
X0199900Y0160900D02*
X0201300D01*
X0201100Y0160500D02*
X0201250Y0160350D01*
X0200000Y0160500D02*
X0201100D01*
X0202750Y0159320D02*
Y0160600D01*
X0202100Y0157455D02*
X0202750Y0158105D01*
Y0159320D01*
X0216300Y0164100D02*
X0216450Y0164250D01*
Y0165065D01*
X0204750Y0159320D02*
Y0160450D01*
X0194260Y0157500D02*
X0195545D01*
X0194260Y0160000D02*
X0195545D01*
X0196455D02*
X0199000D01*
X0199900Y0160900D01*
X0201750Y0159320D02*
Y0160450D01*
X0196455Y0157500D02*
X0197000D01*
X0200000Y0160500D01*
X0201250Y0159320D02*
Y0160350D01*
X0187535Y0163150D02*
X0187600Y0163215D01*
X0214700Y0157200D02*
Y0158005D01*
X0220400Y0163000D02*
X0221000Y0162400D01*
Y0161400D02*
Y0162400D01*
X0189800Y0169300D02*
Y0170295D01*
X0193800Y0167100D02*
X0194200Y0166700D01*
Y0166100D02*
Y0166700D01*
Y0166100D02*
X0194475Y0165825D01*
X0196975D01*
X0197050Y0165750D01*
X0198320D01*
X0223605Y0162095D02*
Y0162500D01*
X0227100Y0163600D02*
X0227550D01*
X0223605Y0162095D02*
X0224300Y0161400D01*
X0226800Y0162600D02*
X0227300Y0162100D01*
X0226800Y0162600D02*
Y0163300D01*
X0227100Y0163600D01*
X0226300Y0162100D02*
Y0163300D01*
X0227000Y0164000D01*
X0227550D01*
X0222400D02*
X0223605D01*
Y0164500D02*
Y0165094D01*
X0223600Y0165100D02*
X0223605Y0165094D01*
X0215700Y0160900D02*
Y0161655D01*
X0215655Y0161700D02*
X0215700Y0161655D01*
X0215135Y0163120D02*
X0215150Y0163135D01*
X0217660Y0161700D02*
X0218400D01*
X0216740D02*
X0216800Y0161640D01*
X0216450Y0162750D02*
Y0163135D01*
X0214745Y0161700D02*
Y0162345D01*
X0215135Y0162735D01*
Y0163120D01*
X0217800Y0164560D02*
X0217860Y0164500D01*
X0217800Y0162900D02*
Y0163640D01*
X0219395Y0161705D02*
Y0162500D01*
Y0161705D02*
X0219400Y0161700D01*
X0219395Y0163000D02*
X0220400D01*
X0188500Y0160050D02*
X0189465Y0161015D01*
Y0161850D01*
X0188185Y0160050D02*
X0188500D01*
X0188550D01*
X0215800Y0165065D02*
Y0166100D01*
X0209680Y0165750D02*
X0210850D01*
X0208750Y0165250D02*
X0209680D01*
X0208500Y0165500D02*
X0208750Y0165250D01*
X0207500Y0165500D02*
X0208500D01*
X0198320Y0163225D02*
Y0163250D01*
Y0162750D02*
X0199550D01*
X0198320Y0163225D02*
X0199875D01*
X0216535Y0167695D02*
Y0169165D01*
X0207750Y0170680D02*
Y0171350D01*
X0208200Y0171800D01*
X0208800D01*
X0225700Y0165200D02*
X0227550D01*
Y0165575D02*
Y0165600D01*
X0226500Y0166100D02*
X0226600Y0166000D01*
X0227100Y0166400D02*
X0227550D01*
X0226600Y0166900D02*
X0227100Y0166400D01*
X0226055Y0166900D02*
X0226600D01*
X0227300Y0166800D02*
X0227550D01*
X0225500Y0166100D02*
X0226025Y0165575D01*
X0227550D01*
X0226055Y0167800D02*
X0226255Y0167600D01*
X0226500D01*
X0227300Y0166800D01*
X0226175Y0164575D02*
X0226400Y0164800D01*
X0227550D01*
X0225700Y0165100D02*
Y0165200D01*
X0224700Y0165100D02*
X0225225Y0164575D01*
X0226175D01*
X0207250Y0170680D02*
Y0171450D01*
X0187535Y0163150D02*
X0188250D01*
X0188500Y0162900D01*
Y0161200D02*
Y0162900D01*
X0190500Y0161500D02*
X0191345D01*
X0190150Y0161850D02*
X0190500Y0161500D01*
X0189465Y0161850D02*
X0190150D01*
X0119000Y0079000D02*
Y0077500D01*
X0119857D01*
X0121164D02*
X0120593Y0079000D01*
X0120021Y0077500D01*
X0120235Y0078000D02*
X0120950D01*
X0121514Y0079000D02*
X0122085Y0078286D01*
Y0077500D01*
X0122656Y0079000D02*
X0122085Y0078286D01*
X0123778Y0079000D02*
X0122849D01*
Y0077500D01*
X0123778D01*
X0122849Y0078286D02*
X0123420D01*
X0124027Y0079000D02*
Y0077500D01*
Y0079000D02*
X0124670D01*
X0124884Y0078928D01*
X0124956Y0078857D01*
X0125027Y0078714D01*
Y0078571D01*
X0124956Y0078428D01*
X0124884Y0078357D01*
X0124670Y0078286D01*
X0124027D01*
X0124527D02*
X0125027Y0077500D01*
X0126541Y0078714D02*
X0126684Y0078785D01*
X0126898Y0079000D01*
Y0077500D01*
X0129319Y0079285D02*
X0129176Y0079143D01*
X0129034Y0078928D01*
X0128891Y0078643D01*
X0128819Y0078286D01*
Y0078000D01*
X0128891Y0077643D01*
X0129034Y0077357D01*
X0129176Y0077143D01*
X0129319Y0077000D01*
X0129176Y0079143D02*
X0129034Y0078857D01*
X0128962Y0078643D01*
X0128891Y0078286D01*
Y0078000D01*
X0128962Y0077643D01*
X0129034Y0077429D01*
X0129176Y0077143D01*
X0130105Y0079000D02*
Y0077500D01*
X0129605Y0079000D02*
X0130605D01*
X0131212D02*
X0131069Y0078928D01*
X0130926Y0078785D01*
X0130855Y0078643D01*
X0130783Y0078428D01*
Y0078071D01*
X0130855Y0077857D01*
X0130926Y0077714D01*
X0131069Y0077571D01*
X0131212Y0077500D01*
X0131497D01*
X0131640Y0077571D01*
X0131783Y0077714D01*
X0131854Y0077857D01*
X0131926Y0078071D01*
Y0078428D01*
X0131854Y0078643D01*
X0131783Y0078785D01*
X0131640Y0078928D01*
X0131497Y0079000D01*
X0131212D01*
X0132276Y0078214D02*
X0132918D01*
X0133133Y0078286D01*
X0133204Y0078357D01*
X0133276Y0078500D01*
Y0078714D01*
X0133204Y0078857D01*
X0133133Y0078928D01*
X0132918Y0079000D01*
X0132276D01*
Y0077500D01*
X0133611Y0079285D02*
X0133754Y0079143D01*
X0133897Y0078928D01*
X0134040Y0078643D01*
X0134111Y0078286D01*
Y0078000D01*
X0134040Y0077643D01*
X0133897Y0077357D01*
X0133754Y0077143D01*
X0133611Y0077000D01*
X0133754Y0079143D02*
X0133897Y0078857D01*
X0133968Y0078643D01*
X0134040Y0078286D01*
Y0078000D01*
X0133968Y0077643D01*
X0133897Y0077429D01*
X0133754Y0077143D01*
X0180000Y0145500D02*
Y0144000D01*
X0180857D01*
X0182164D02*
X0181593Y0145500D01*
X0181021Y0144000D01*
X0181235Y0144500D02*
X0181950D01*
X0182514Y0145500D02*
X0183085Y0144786D01*
Y0144000D01*
X0183656Y0145500D02*
X0183085Y0144786D01*
X0184778Y0145500D02*
X0183849D01*
Y0144000D01*
X0184778D01*
X0183849Y0144786D02*
X0184420D01*
X0185027Y0145500D02*
Y0144000D01*
Y0145500D02*
X0185670D01*
X0185884Y0145428D01*
X0185956Y0145357D01*
X0186027Y0145214D01*
Y0145071D01*
X0185956Y0144928D01*
X0185884Y0144857D01*
X0185670Y0144786D01*
X0185027D01*
X0185527D02*
X0186027Y0144000D01*
X0187541Y0145214D02*
X0187684Y0145285D01*
X0187898Y0145500D01*
Y0144000D01*
X0190319Y0145785D02*
X0190176Y0145643D01*
X0190034Y0145428D01*
X0189891Y0145143D01*
X0189819Y0144786D01*
Y0144500D01*
X0189891Y0144143D01*
X0190034Y0143857D01*
X0190176Y0143643D01*
X0190319Y0143500D01*
X0190176Y0145643D02*
X0190034Y0145357D01*
X0189962Y0145143D01*
X0189891Y0144786D01*
Y0144500D01*
X0189962Y0144143D01*
X0190034Y0143929D01*
X0190176Y0143643D01*
X0191105Y0145500D02*
Y0144000D01*
X0190605Y0145500D02*
X0191605D01*
X0192212D02*
X0192069Y0145428D01*
X0191926Y0145285D01*
X0191855Y0145143D01*
X0191783Y0144928D01*
Y0144571D01*
X0191855Y0144357D01*
X0191926Y0144214D01*
X0192069Y0144071D01*
X0192212Y0144000D01*
X0192497D01*
X0192640Y0144071D01*
X0192783Y0144214D01*
X0192854Y0144357D01*
X0192926Y0144571D01*
Y0144928D01*
X0192854Y0145143D01*
X0192783Y0145285D01*
X0192640Y0145428D01*
X0192497Y0145500D01*
X0192212D01*
X0193276Y0144714D02*
X0193918D01*
X0194133Y0144786D01*
X0194204Y0144857D01*
X0194276Y0145000D01*
Y0145214D01*
X0194204Y0145357D01*
X0194133Y0145428D01*
X0193918Y0145500D01*
X0193276D01*
Y0144000D01*
X0194611Y0145785D02*
X0194754Y0145643D01*
X0194897Y0145428D01*
X0195040Y0145143D01*
X0195111Y0144786D01*
Y0144500D01*
X0195040Y0144143D01*
X0194897Y0143857D01*
X0194754Y0143643D01*
X0194611Y0143500D01*
X0194754Y0145643D02*
X0194897Y0145357D01*
X0194968Y0145143D01*
X0195040Y0144786D01*
Y0144500D01*
X0194968Y0144143D01*
X0194897Y0143929D01*
X0194754Y0143643D01*
X0180714Y0147500D02*
Y0146357D01*
X0180643Y0146143D01*
X0180571Y0146071D01*
X0180428Y0146000D01*
X0180286D01*
X0180143Y0146071D01*
X0180071Y0146143D01*
X0180000Y0146357D01*
Y0146500D01*
X0182171Y0147143D02*
X0182100Y0147285D01*
X0181957Y0147428D01*
X0181814Y0147500D01*
X0181528D01*
X0181385Y0147428D01*
X0181243Y0147285D01*
X0181171Y0147143D01*
X0181100Y0146928D01*
Y0146571D01*
X0181171Y0146357D01*
X0181243Y0146214D01*
X0181385Y0146071D01*
X0181528Y0146000D01*
X0181814D01*
X0181957Y0146071D01*
X0182100Y0146214D01*
X0182171Y0146357D01*
Y0146571D01*
X0181814D02*
X0182171D01*
X0182514Y0147500D02*
Y0146000D01*
Y0147500D02*
X0183156D01*
X0183371Y0147428D01*
X0183442Y0147357D01*
X0183514Y0147214D01*
Y0147071D01*
X0183442Y0146928D01*
X0183371Y0146857D01*
X0183156Y0146786D01*
X0182514D02*
X0183156D01*
X0183371Y0146714D01*
X0183442Y0146643D01*
X0183514Y0146500D01*
Y0146286D01*
X0183442Y0146143D01*
X0183371Y0146071D01*
X0183156Y0146000D01*
X0182514D01*
X0184278Y0147500D02*
X0184063Y0147428D01*
X0183921Y0147214D01*
X0183849Y0146857D01*
Y0146643D01*
X0183921Y0146286D01*
X0184063Y0146071D01*
X0184278Y0146000D01*
X0184420D01*
X0184635Y0146071D01*
X0184778Y0146286D01*
X0184849Y0146643D01*
Y0146857D01*
X0184778Y0147214D01*
X0184635Y0147428D01*
X0184420Y0147500D01*
X0184278D01*
X0185613D02*
X0185399Y0147428D01*
X0185256Y0147214D01*
X0185185Y0146857D01*
Y0146643D01*
X0185256Y0146286D01*
X0185399Y0146071D01*
X0185613Y0146000D01*
X0185756D01*
X0185970Y0146071D01*
X0186113Y0146286D01*
X0186184Y0146643D01*
Y0146857D01*
X0186113Y0147214D01*
X0185970Y0147428D01*
X0185756Y0147500D01*
X0185613D01*
X0186949D02*
X0186734Y0147428D01*
X0186591Y0147214D01*
X0186520Y0146857D01*
Y0146643D01*
X0186591Y0146286D01*
X0186734Y0146071D01*
X0186949Y0146000D01*
X0187091D01*
X0187306Y0146071D01*
X0187448Y0146286D01*
X0187520Y0146643D01*
Y0146857D01*
X0187448Y0147214D01*
X0187306Y0147428D01*
X0187091Y0147500D01*
X0186949D01*
X0187855Y0147214D02*
X0187998Y0147285D01*
X0188213Y0147500D01*
Y0146000D01*
X0190134Y0146857D02*
X0191419D01*
X0190134Y0146428D02*
X0191419D01*
X0193111Y0147143D02*
Y0147214D01*
X0193183Y0147357D01*
X0193254Y0147428D01*
X0193397Y0147500D01*
X0193683D01*
X0193826Y0147428D01*
X0193897Y0147357D01*
X0193968Y0147214D01*
Y0147071D01*
X0193897Y0146928D01*
X0193754Y0146714D01*
X0193040Y0146000D01*
X0194040D01*
X0194375Y0147500D02*
X0194947Y0146000D01*
X0195518Y0147500D02*
X0194947Y0146000D01*
X0195711Y0147214D02*
X0195854Y0147285D01*
X0196068Y0147500D01*
Y0146000D01*
X0197989Y0146857D02*
X0199274D01*
X0197989Y0146428D02*
X0199274D01*
X0200967Y0147143D02*
Y0147214D01*
X0201038Y0147357D01*
X0201110Y0147428D01*
X0201253Y0147500D01*
X0201538D01*
X0201681Y0147428D01*
X0201752Y0147357D01*
X0201824Y0147214D01*
Y0147071D01*
X0201752Y0146928D01*
X0201610Y0146714D01*
X0200896Y0146000D01*
X0201895D01*
X0203231Y0147500D02*
X0202517Y0146000D01*
X0202231Y0147500D02*
X0203231D01*
X0204745D02*
Y0146000D01*
Y0147500D02*
X0205316Y0146000D01*
X0205887Y0147500D02*
X0205316Y0146000D01*
X0205887Y0147500D02*
Y0146000D01*
X0207458D02*
X0206887Y0147500D01*
X0206316Y0146000D01*
X0206530Y0146500D02*
X0207244D01*
X0207808Y0147500D02*
X0208380Y0146786D01*
Y0146000D01*
X0208951Y0147500D02*
X0208380Y0146786D01*
X0210393Y0147143D02*
Y0147214D01*
X0210465Y0147357D01*
X0210536Y0147428D01*
X0210679Y0147500D01*
X0210965D01*
X0211108Y0147428D01*
X0211179Y0147357D01*
X0211250Y0147214D01*
Y0147071D01*
X0211179Y0146928D01*
X0211036Y0146714D01*
X0210322Y0146000D01*
X0211322D01*
X0212086Y0147500D02*
X0211872Y0147428D01*
X0211729Y0147214D01*
X0211658Y0146857D01*
Y0146643D01*
X0211729Y0146286D01*
X0211872Y0146071D01*
X0212086Y0146000D01*
X0212229D01*
X0212443Y0146071D01*
X0212586Y0146286D01*
X0212657Y0146643D01*
Y0146857D01*
X0212586Y0147214D01*
X0212443Y0147428D01*
X0212229Y0147500D01*
X0212086D01*
X0212993Y0147214D02*
X0213136Y0147285D01*
X0213350Y0147500D01*
Y0146000D01*
X0214950Y0147500D02*
X0214236D01*
X0214164Y0146857D01*
X0214236Y0146928D01*
X0214450Y0147000D01*
X0214664D01*
X0214878Y0146928D01*
X0215021Y0146786D01*
X0215092Y0146571D01*
Y0146428D01*
X0215021Y0146214D01*
X0214878Y0146071D01*
X0214664Y0146000D01*
X0214450D01*
X0214236Y0146071D01*
X0214164Y0146143D01*
X0214093Y0146286D01*
D46*
X0241900Y0170040D02*
Y0170900D01*
X0212500Y0172840D02*
Y0173600D01*
X0206500Y0157500D02*
X0207455Y0156545D01*
X0208000D01*
X0209700D01*
X0190200Y0159900D02*
X0190215Y0159885D01*
Y0159100D02*
Y0159885D01*
X0228500Y0171755D02*
Y0172700D01*
X0230000Y0171755D02*
Y0172900D01*
Y0157100D02*
Y0158245D01*
X0220800Y0157300D02*
Y0158180D01*
X0240800Y0165000D02*
X0241860Y0166060D01*
Y0170000D01*
X0200800Y0172500D02*
X0201560D01*
X0203740D02*
X0204500D01*
X0199900Y0157500D02*
X0200660D01*
X0220660Y0172800D02*
X0221500D01*
X0214700Y0158005D02*
X0214745Y0158050D01*
X0212955Y0159800D02*
X0213000Y0159755D01*
X0193855Y0168900D02*
X0194255Y0169300D01*
X0194900D01*
X0195875Y0170275D01*
Y0170500D01*
X0195890Y0170515D01*
X0192255Y0161355D02*
Y0161500D01*
X0188800Y0168000D02*
X0188840Y0167960D01*
X0189800D01*
X0186000Y0161460D02*
X0186390Y0161850D01*
X0187535D01*
X0187500Y0161200D02*
Y0161815D01*
X0187535Y0161850D01*
X0192255Y0163500D02*
X0193000D01*
X0192255Y0161500D02*
X0193000D01*
X0186000Y0162540D02*
X0186040Y0162500D01*
X0187535D01*
X0189745Y0170350D02*
X0189800Y0170295D01*
X0193855Y0168900D02*
X0193860Y0168895D01*
Y0167900D02*
Y0168895D01*
X0192940Y0167900D02*
X0192945Y0167905D01*
Y0168900D01*
X0192300D02*
X0192945D01*
X0191955D02*
X0192300D01*
X0192255Y0168945D02*
X0192300Y0168900D01*
X0192255Y0168945D02*
Y0170350D01*
X0213000Y0159755D02*
X0213195Y0159950D01*
X0243560Y0159460D02*
X0246400D01*
X0241000Y0156900D02*
X0243560Y0159460D01*
X0233000Y0158180D02*
X0234500D01*
X0231565D02*
X0233000D01*
X0231500Y0158245D02*
X0231565Y0158180D01*
Y0159820D02*
X0233000D01*
X0231500Y0159755D02*
X0231565Y0159820D01*
X0236065D02*
X0237500D01*
X0242340Y0173200D02*
X0243940Y0171600D01*
X0233000Y0171820D02*
X0234500D01*
X0231565D02*
X0233000D01*
X0231500Y0171755D02*
X0231565Y0171820D01*
X0236065Y0170180D02*
X0237500D01*
X0236000Y0170245D02*
X0236065Y0170180D01*
X0231565D02*
X0233000D01*
X0231500Y0170245D02*
X0231565Y0170180D01*
X0234500Y0171820D02*
Y0172600D01*
X0235100Y0173200D01*
X0242340D01*
X0234500Y0157500D02*
Y0158180D01*
Y0157500D02*
X0235100Y0156900D01*
X0241000D01*
X0225200Y0162100D02*
Y0162840D01*
X0223605Y0163000D02*
X0225160D01*
X0223605Y0163500D02*
X0224940D01*
X0225200Y0163760D01*
X0216800Y0160900D02*
Y0161640D01*
X0216450Y0162750D02*
X0216740Y0162460D01*
Y0161700D02*
Y0162460D01*
X0217800Y0164560D02*
Y0165300D01*
X0217860Y0164500D02*
X0219395D01*
X0226060Y0168800D02*
X0226200D01*
X0227200Y0167800D01*
X0228100D01*
X0224400Y0168800D02*
X0225140D01*
D47*
X0224200Y0170700D02*
X0224300D01*
X0224110D02*
X0224200D01*
X0224125Y0170775D02*
X0224200Y0170700D01*
X0224035Y0170775D02*
X0224125D01*
X0187700Y0172475D02*
X0187925Y0172250D01*
X0189745D01*
X0187625Y0172400D02*
X0187700Y0172475D01*
X0186500Y0172400D02*
X0187625D01*
X0187735Y0168500D02*
Y0168665D01*
X0186860Y0167100D02*
X0187700D01*
X0246400Y0159460D02*
X0247460D01*
X0243900Y0171560D02*
X0243940Y0171600D01*
X0224035Y0170775D02*
Y0172800D01*
Y0170775D02*
X0224110Y0170700D01*
X0228100Y0159755D02*
Y0160699D01*
X0243900Y0167900D02*
Y0171560D01*
X0247460Y0159460D02*
X0249800Y0161800D01*
X0224600Y0170200D02*
X0225100D01*
X0224400Y0170400D02*
X0224600Y0170200D01*
D48*
X0212600Y0172800D02*
Y0172840D01*
X0212460Y0172800D02*
X0212500Y0172840D01*
X0213900Y0172800D02*
X0213995Y0172705D01*
X0212000Y0168300D02*
Y0168800D01*
X0211700Y0169100D02*
X0212000Y0168800D01*
X0211700Y0169100D02*
Y0169345D01*
X0211545Y0169500D02*
X0211700Y0169345D01*
X0203250Y0171750D02*
X0203400Y0171900D01*
X0203250Y0170680D02*
Y0171750D01*
X0206660Y0172500D02*
X0207400D01*
X0206700Y0172540D02*
X0206750Y0172490D01*
X0206660Y0172500D02*
X0206700Y0172540D01*
X0208400Y0164750D02*
X0209680D01*
X0202100Y0156545D02*
X0202145Y0156500D01*
X0203750Y0159320D02*
Y0160600D01*
X0200800Y0173500D02*
X0201560D01*
X0201600Y0172540D02*
X0201750Y0172390D01*
Y0170680D02*
Y0172390D01*
X0203400Y0171900D02*
X0203750D01*
X0203740Y0172500D02*
X0203750Y0172490D01*
Y0170680D02*
Y0172490D01*
X0205740Y0157500D02*
X0205750Y0157510D01*
X0205700Y0157460D02*
X0205740Y0157500D01*
X0205750Y0157510D02*
Y0159320D01*
X0205740Y0157500D02*
X0206500D01*
X0204250Y0158250D02*
Y0159320D01*
X0204100Y0158100D02*
X0204250Y0158250D01*
X0203400Y0158100D02*
X0204100D01*
X0203750Y0157510D02*
Y0159320D01*
X0203250Y0158250D02*
X0203400Y0158100D01*
X0203250Y0158250D02*
Y0159320D01*
X0203750Y0157510D02*
X0203800Y0157460D01*
X0200700D02*
X0200750Y0157510D01*
Y0159320D01*
X0199900Y0156500D02*
X0200660D01*
X0206750Y0170680D02*
Y0172490D01*
X0196460Y0163700D02*
X0196510Y0163750D01*
X0198320D01*
X0199600D01*
X0196460Y0161700D02*
X0196500Y0161660D01*
Y0160900D02*
Y0161660D01*
X0196510Y0161650D01*
Y0161750D02*
X0198320D01*
X0196455Y0170055D02*
X0196500Y0170100D01*
X0196455Y0168500D02*
Y0170055D01*
Y0168500D02*
X0196460Y0168495D01*
Y0167500D02*
Y0168495D01*
Y0167500D02*
X0196710Y0167250D01*
X0198320D01*
X0196460Y0166500D02*
X0196710Y0166250D01*
X0198320D01*
X0199600D01*
X0196505Y0165250D02*
X0198320D01*
X0209680Y0166250D02*
X0211490D01*
X0211540Y0166200D01*
X0208400Y0166250D02*
X0209680D01*
X0208400Y0162750D02*
X0209680D01*
X0210650D01*
X0211300Y0162100D01*
X0211540D01*
D49*
X0212600Y0172800D02*
X0213900D01*
X0212560Y0162000D02*
X0213500D01*
X0221500Y0172800D02*
X0222565D01*
X0183875Y0161625D02*
Y0161800D01*
Y0161625D02*
X0184600Y0160900D01*
Y0160440D02*
Y0160900D01*
Y0160440D02*
X0185540Y0159500D01*
X0185940Y0168175D02*
X0186265Y0168500D01*
X0185940Y0167100D02*
Y0168175D01*
X0213195Y0159950D02*
X0214745D01*
X0218805D02*
X0219000Y0159755D01*
X0217255Y0159950D02*
X0218805D01*
X0222235Y0159820D02*
X0222300Y0159755D01*
X0220800Y0159820D02*
X0222235D01*
X0222300Y0159755D02*
X0222495Y0159950D01*
X0223945D01*
X0185910Y0166300D02*
Y0167070D01*
Y0166125D02*
Y0166300D01*
X0184100D02*
X0185910D01*
Y0167070D02*
X0185940Y0167100D01*
X0226455Y0159950D02*
X0227905D01*
X0228100Y0159755D01*
X0230200Y0159955D02*
Y0160700D01*
Y0169300D02*
Y0170045D01*
X0225900Y0170240D02*
X0227000D01*
X0225100Y0170200D02*
X0225900D01*
D50*
X0212460Y0166200D02*
X0213300D01*
X0206660Y0173500D02*
X0207400D01*
X0206660D02*
X0206700Y0173460D01*
X0229100Y0161400D02*
X0229400Y0161700D01*
X0228500Y0172700D02*
X0228700Y0172900D01*
X0229200Y0160600D02*
X0229800Y0161200D01*
X0229200Y0159045D02*
Y0160600D01*
Y0159045D02*
X0230000Y0158245D01*
X0229400Y0161700D02*
Y0162550D01*
X0229800Y0161200D02*
Y0162550D01*
X0229250Y0171005D02*
X0230000Y0171755D01*
X0229250Y0169350D02*
Y0171005D01*
X0233200Y0162300D02*
Y0162911D01*
X0232911Y0163200D02*
X0233200Y0162911D01*
X0232450Y0163200D02*
X0232911D01*
X0205740Y0156500D02*
X0206500D01*
X0229400Y0167700D02*
Y0168400D01*
Y0167450D02*
Y0167700D01*
X0229400Y0167700D01*
X0194800Y0163700D02*
X0195540D01*
X0195500Y0161660D02*
X0195540Y0161700D01*
X0195500Y0160900D02*
Y0161660D01*
X0194805Y0165300D02*
X0195545D01*
X0194800Y0168500D02*
X0195545D01*
X0194800Y0167500D02*
X0195540D01*
X0194800Y0166500D02*
X0195540D01*
X0192255Y0162500D02*
X0193000D01*
X0189465D02*
X0190500D01*
X0231500Y0159755D02*
X0231500Y0159755D01*
X0236000Y0159755D02*
X0236065Y0159820D01*
X0231000Y0161400D02*
Y0162550D01*
Y0161400D02*
X0231500Y0160900D01*
Y0159755D02*
Y0160900D01*
X0231400Y0161800D02*
Y0162550D01*
X0231800Y0162200D02*
Y0162550D01*
X0231400Y0161800D02*
X0232300Y0160900D01*
X0233420D01*
X0234500Y0159820D01*
X0231800Y0162200D02*
X0232500Y0161500D01*
X0234255D01*
X0236000Y0159755D01*
X0230600Y0162550D02*
Y0164400D01*
X0230000Y0165000D02*
X0230600Y0164400D01*
X0234255Y0168500D02*
X0236000Y0170245D01*
X0232500Y0168500D02*
X0234255D01*
X0231800Y0167800D02*
X0232500Y0168500D01*
X0233420Y0169100D02*
X0234500Y0170180D01*
X0232300Y0169100D02*
X0233420D01*
X0231400Y0168200D02*
X0232300Y0169100D01*
X0231800Y0167450D02*
Y0167800D01*
X0231400Y0167450D02*
Y0168200D01*
X0231500Y0169100D02*
Y0170245D01*
X0231000Y0168600D02*
X0231500Y0169100D01*
X0231000Y0167450D02*
Y0168600D01*
X0234945Y0164800D02*
X0235745Y0164000D01*
X0232450D02*
X0233300D01*
X0233500Y0163800D01*
X0232450Y0163600D02*
X0233400D01*
X0230600Y0165600D02*
Y0167450D01*
X0235745Y0166000D02*
X0235778D01*
X0232450D02*
X0234245D01*
X0235745Y0167500D01*
X0234600Y0165600D02*
X0235000Y0166000D01*
X0235745D01*
X0232450Y0166400D02*
X0233200D01*
X0235500Y0168700D01*
X0235640D01*
X0228600Y0166400D02*
Y0167450D01*
X0227550Y0163200D02*
X0228200D01*
Y0162550D02*
Y0163200D01*
X0230000Y0165000D01*
X0228600Y0166400D02*
X0230000Y0165000D01*
X0220285Y0168000D02*
X0220330Y0168045D01*
X0236495Y0166750D02*
X0238150D01*
X0235745Y0167500D02*
X0236495Y0166750D01*
Y0165250D02*
X0238150D01*
X0235745Y0166000D02*
X0236495Y0165250D01*
X0235325Y0165200D02*
X0235725Y0164800D01*
X0236455D01*
X0237255Y0164000D01*
X0228100Y0160700D02*
X0228100Y0160699D01*
X0230200Y0160700D02*
Y0162550D01*
Y0160700D02*
X0230200Y0160700D01*
X0230000Y0159755D02*
X0230200Y0159955D01*
X0228500Y0169300D02*
Y0170245D01*
X0229250Y0169350D02*
X0229800Y0168800D01*
Y0167450D02*
Y0168800D01*
X0230200Y0169300D02*
X0230200Y0169300D01*
X0230000Y0170245D02*
X0230200Y0170045D01*
X0232450Y0165600D02*
X0234600D01*
X0232450Y0165200D02*
X0235325D01*
X0232450Y0164400D02*
X0233800D01*
X0232450Y0164800D02*
X0234945D01*
X0230000Y0165000D02*
X0230600Y0165600D01*
X0228600Y0167450D02*
Y0167900D01*
X0228200Y0168300D02*
X0228600Y0167900D01*
X0229000Y0167450D02*
Y0168140D01*
X0228500Y0169300D02*
X0229400Y0168400D01*
X0230200Y0167450D02*
Y0169300D01*
X0209680Y0163750D02*
X0211290D01*
X0211500Y0163960D01*
X0228200Y0167450D02*
Y0167700D01*
X0228200Y0167700D01*
X0228100Y0167800D02*
X0228200Y0167700D01*
X0227000Y0170140D02*
X0229000Y0168140D01*
X0227000Y0170140D02*
Y0170240D01*
X0227700Y0171045D02*
X0228500Y0170245D01*
X0227700Y0171045D02*
Y0172900D01*
X0226100Y0164000D02*
X0226400D01*
X0226800Y0164400D01*
X0227550D01*
D51*
X0207250Y0171450D02*
X0208800Y0173000D01*
D52*
X0208300Y0163900D02*
X0208650Y0164250D01*
X0209680D01*
X0241860Y0170000D02*
X0241900Y0170040D01*
X0196460Y0161700D02*
Y0162340D01*
X0196100Y0162700D02*
X0196460Y0162340D01*
X0193800Y0162700D02*
X0196100D01*
X0193000Y0163500D02*
X0193800Y0162700D01*
X0191345Y0162500D02*
Y0163500D01*
X0196455Y0165300D02*
X0196505Y0165250D01*
X0184800Y0165150D02*
X0186545D01*
X0184800Y0165500D02*
X0186400D01*
X0188300Y0165650D02*
X0189300Y0164650D01*
X0188445Y0166000D02*
X0189445Y0165000D01*
X0186900Y0166000D02*
X0188445D01*
X0189300Y0164650D02*
X0191100D01*
X0191325Y0164425D01*
X0189445Y0165000D02*
X0191100D01*
X0191325Y0165225D01*
X0192600Y0166400D02*
X0192825Y0166175D01*
X0193175Y0166175D02*
X0193400Y0166400D01*
X0192825Y0165180D02*
Y0166175D01*
X0193175Y0165325D02*
Y0166175D01*
X0192825Y0165180D02*
X0193680Y0164325D01*
X0197500D01*
X0193175Y0165325D02*
X0193825Y0164675D01*
X0193680Y0164325D02*
X0193680D01*
X0197575Y0164250D02*
X0198320D01*
X0197500Y0164325D02*
X0197575Y0164250D01*
X0197575Y0164750D02*
X0198320D01*
X0197500Y0164675D02*
X0197575Y0164750D01*
X0193825Y0164675D02*
X0197500D01*
X0184650Y0165000D02*
X0184800Y0165150D01*
X0184100Y0165000D02*
X0184650D01*
Y0165650D02*
X0184800Y0165500D01*
X0184100Y0165650D02*
X0184650D01*
X0187045Y0165650D02*
X0188300D01*
X0186545Y0165150D02*
X0187045Y0165650D01*
X0186400Y0165500D02*
X0186900Y0166000D01*
X0221500Y0166875D02*
X0222670Y0168045D01*
X0219395Y0164000D02*
X0220400D01*
X0220800Y0164400D01*
Y0165685D01*
X0220330Y0166155D02*
X0220800Y0165685D01*
X0219395Y0163500D02*
X0220600D01*
X0221500Y0164400D01*
Y0166875D01*
X0211640Y0163040D02*
X0212555Y0163955D01*
X0212600D01*
X0211500Y0163040D02*
X0211640D01*
Y0162000D02*
Y0162054D01*
X0212600Y0163014D01*
Y0163045D01*
X0189465Y0163150D02*
X0191345D01*
Y0163500D01*
D53*
X0187700Y0170725D02*
X0188100D01*
X0193860Y0172250D02*
X0194110Y0172500D01*
D54*
X0195890Y0170515D02*
Y0172500D01*
D55*
X0192255Y0172250D02*
X0193860D01*
D56*
X0209680Y0163250D02*
X0211290D01*
X0211500Y0163040D01*
D57*
X0212200Y0159900D02*
D03*
D58*
X0219000Y0160550D02*
D03*
D59*
X0196800Y0170500D02*
D03*
D60*
X0188650Y0168400D02*
D03*
D61*
X0240800Y0165000D02*
D03*
Y0167000D02*
D03*
Y0163000D02*
D03*
D62*
X0243900Y0167900D02*
D03*
X0249900Y0168400D02*
D03*
X0253400Y0168900D02*
D03*
X0249800Y0161800D02*
D03*
X0253200D02*
D03*
D63*
X0181425Y0161700D02*
D03*
Y0168300D02*
D03*
D64*
X0212500Y0164900D02*
D03*
X0218900Y0165300D02*
D03*
X0241900Y0170900D02*
D03*
X0226500Y0166100D02*
D03*
X0212500Y0173600D02*
D03*
X0219000Y0168700D02*
D03*
X0208800Y0173000D02*
D03*
X0212000Y0167300D02*
D03*
Y0168300D02*
D03*
X0200300Y0168100D02*
D03*
X0199700Y0167400D02*
D03*
X0215400Y0171300D02*
D03*
X0209900Y0169400D02*
D03*
X0216535Y0169165D02*
D03*
X0204700Y0173700D02*
D03*
X0205700Y0172500D02*
D03*
X0202750Y0172160D02*
D03*
X0214000Y0169300D02*
D03*
X0213000Y0168700D02*
D03*
X0207400Y0173500D02*
D03*
Y0172500D02*
D03*
X0211400Y0173700D02*
D03*
X0210500Y0157500D02*
D03*
X0208800D02*
D03*
X0212000Y0160300D02*
D03*
Y0159500D02*
D03*
X0208400Y0164750D02*
D03*
X0208300Y0163900D02*
D03*
X0222200Y0162100D02*
D03*
X0225200Y0159000D02*
D03*
X0192000Y0171300D02*
D03*
X0192900D02*
D03*
X0191800Y0156500D02*
D03*
X0188100Y0159100D02*
D03*
X0191300Y0167900D02*
D03*
X0197300Y0173700D02*
D03*
X0190800D02*
D03*
X0181500Y0169800D02*
D03*
X0191100Y0171300D02*
D03*
X0181400Y0160200D02*
D03*
X0188100Y0157100D02*
D03*
X0190200Y0159900D02*
D03*
X0191800Y0158700D02*
D03*
X0216100Y0159000D02*
D03*
X0213000Y0157100D02*
D03*
X0218200D02*
D03*
X0251600Y0160700D02*
D03*
X0243700Y0162500D02*
D03*
X0244400Y0173100D02*
D03*
X0245800Y0170500D02*
D03*
X0245200Y0158500D02*
D03*
X0238700Y0161100D02*
D03*
Y0163800D02*
D03*
X0229100Y0161400D02*
D03*
X0230000Y0172900D02*
D03*
X0238900Y0158200D02*
D03*
X0233200Y0162300D02*
D03*
X0240000Y0170000D02*
D03*
X0223900Y0157200D02*
D03*
X0226100Y0164000D02*
D03*
X0218800Y0172900D02*
D03*
X0219500Y0170700D02*
D03*
X0211100Y0168700D02*
D03*
X0213500Y0162000D02*
D03*
X0211500Y0164800D02*
D03*
X0213300Y0166200D02*
D03*
X0203750Y0160600D02*
D03*
X0200800Y0172500D02*
D03*
Y0173500D02*
D03*
X0204500Y0172500D02*
D03*
X0199600Y0162600D02*
D03*
X0200200Y0161800D02*
D03*
X0202750Y0160600D02*
D03*
X0206500Y0156500D02*
D03*
Y0157500D02*
D03*
X0203000Y0156500D02*
D03*
X0199900Y0157500D02*
D03*
Y0156500D02*
D03*
X0221500Y0172800D02*
D03*
X0186000Y0164300D02*
D03*
X0188500Y0161200D02*
D03*
X0214700Y0157200D02*
D03*
X0230000Y0157100D02*
D03*
X0228100D02*
D03*
X0222300D02*
D03*
X0221000Y0161400D02*
D03*
X0189800Y0169300D02*
D03*
X0194800Y0163700D02*
D03*
X0199600Y0163750D02*
D03*
X0196500Y0160900D02*
D03*
X0195500D02*
D03*
X0219400Y0160700D02*
D03*
X0218600D02*
D03*
X0220800Y0157300D02*
D03*
X0194805Y0165300D02*
D03*
X0194800Y0168500D02*
D03*
Y0167500D02*
D03*
Y0166500D02*
D03*
X0199600Y0166250D02*
D03*
X0197000Y0170100D02*
D03*
Y0170900D02*
D03*
X0190700Y0166300D02*
D03*
X0188800Y0168000D02*
D03*
Y0168800D02*
D03*
X0186900Y0160400D02*
D03*
X0187500Y0161200D02*
D03*
X0193000Y0163500D02*
D03*
Y0162500D02*
D03*
Y0161500D02*
D03*
X0190500Y0162500D02*
D03*
X0186500Y0172400D02*
D03*
X0204700Y0165700D02*
D03*
X0203300D02*
D03*
X0206100D02*
D03*
X0201900D02*
D03*
X0201900Y0167100D02*
D03*
X0206100D02*
D03*
X0203300D02*
D03*
X0204700D02*
D03*
X0201900Y0164300D02*
D03*
X0206100D02*
D03*
X0203300D02*
D03*
X0204700D02*
D03*
X0201900Y0162900D02*
D03*
X0206100D02*
D03*
X0203300D02*
D03*
X0204700D02*
D03*
X0228800Y0163800D02*
D03*
X0191325Y0164425D02*
D03*
Y0165225D02*
D03*
X0192600Y0166400D02*
D03*
X0193400D02*
D03*
X0187700Y0167100D02*
D03*
X0238800Y0171800D02*
D03*
X0228700Y0172900D02*
D03*
X0227000Y0172200D02*
D03*
X0225900D02*
D03*
X0225200Y0162100D02*
D03*
X0226300D02*
D03*
X0227300D02*
D03*
X0222400Y0164000D02*
D03*
X0223600Y0165100D02*
D03*
X0215700Y0160900D02*
D03*
X0218400Y0161700D02*
D03*
X0216800Y0160900D02*
D03*
X0217800Y0165300D02*
D03*
Y0162900D02*
D03*
X0219400Y0161700D02*
D03*
X0238175Y0166750D02*
D03*
Y0165250D02*
D03*
X0237600Y0168700D02*
D03*
X0238900Y0167500D02*
D03*
Y0166000D02*
D03*
X0228100Y0160700D02*
D03*
X0230200Y0169300D02*
D03*
Y0160700D02*
D03*
X0231200Y0163800D02*
D03*
X0228800Y0165000D02*
D03*
X0228800Y0166200D02*
D03*
X0231200Y0165000D02*
D03*
X0231200Y0166200D02*
D03*
X0230000Y0163800D02*
D03*
X0230000Y0165000D02*
D03*
X0230000Y0166200D02*
D03*
X0227500Y0168600D02*
D03*
X0190500Y0161500D02*
D03*
X0215800Y0166100D02*
D03*
X0214900Y0166200D02*
D03*
X0208400Y0166250D02*
D03*
Y0162750D02*
D03*
X0207500Y0165500D02*
D03*
X0186600Y0169600D02*
D03*
X0182800Y0163700D02*
D03*
X0207500Y0166800D02*
D03*
X0208800Y0171800D02*
D03*
X0224000Y0166100D02*
D03*
X0225500D02*
D03*
X0225100Y0170200D02*
D03*
X0227700Y0172900D02*
D03*
X0224200Y0169300D02*
D03*
X0225700Y0165100D02*
D03*
X0224700D02*
D03*
X0187800Y0164300D02*
D03*
M02*
