%FSAX43Y43*%
%MOMM*%
G71*
G01*
G75*
G04 Layer_Color=16711935*
%ADD10R,0.590X0.600*%
%ADD11R,0.630X0.610*%
%ADD12R,0.600X0.590*%
%ADD13R,0.610X0.630*%
%ADD14R,0.590X1.910*%
%ADD15R,0.550X0.300*%
%ADD16R,1.210X0.590*%
%ADD17R,1.280X0.590*%
%ADD18R,1.090X0.400*%
%ADD19R,0.400X1.090*%
%ADD20R,1.520X0.330*%
%ADD21R,0.930X0.790*%
%ADD22R,1.600X0.280*%
%ADD23C,0.750*%
%ADD24R,5.500X5.500*%
%ADD25R,0.280X1.600*%
%ADD26R,3.700X3.700*%
%ADD27O,0.800X0.220*%
%ADD28O,0.220X0.800*%
%ADD29R,1.270X1.020*%
%ADD30R,0.910X0.930*%
%ADD31R,1.140X1.470*%
%ADD32R,1.000X0.970*%
%ADD33C,1.000*%
%ADD34R,0.400X0.350*%
%ADD35R,1.350X0.400*%
%ADD36R,1.600X1.900*%
%ADD37R,1.400X1.600*%
%ADD38R,1.800X1.230*%
%ADD39R,1.160X1.470*%
%ADD40R,0.930X0.920*%
%ADD41R,0.920X0.930*%
%ADD42R,1.470X1.160*%
%ADD43R,0.350X0.400*%
%ADD44C,0.250*%
%ADD45C,0.150*%
%ADD46C,0.300*%
%ADD47C,0.500*%
%ADD48C,0.280*%
%ADD49C,0.400*%
%ADD50C,0.220*%
%ADD51C,0.160*%
%ADD52C,0.200*%
%ADD53C,0.600*%
%ADD54C,0.800*%
%ADD55C,0.590*%
%ADD56C,0.260*%
%ADD57R,1.200X1.600*%
%ADD58R,1.600X1.100*%
%ADD59R,1.200X1.600*%
%ADD60R,1.100X1.600*%
%ADD61C,1.400*%
%ADD62C,2.200*%
G04:AMPARAMS|DCode=63|XSize=0.9mm|YSize=1.6mm|CornerRadius=0.45mm|HoleSize=0mm|Usage=FLASHONLY|Rotation=270.000|XOffset=0mm|YOffset=0mm|HoleType=Round|Shape=RoundedRectangle|*
%AMROUNDEDRECTD63*
21,1,0.900,0.700,0,0,270.0*
21,1,0.000,1.600,0,0,270.0*
1,1,0.900,-0.350,0.000*
1,1,0.900,-0.350,0.000*
1,1,0.900,0.350,0.000*
1,1,0.900,0.350,0.000*
%
%ADD63ROUNDEDRECTD63*%
%ADD64C,0.600*%
%ADD65C,1.000*%
%ADD66C,1.800*%
G04:AMPARAMS|DCode=67|XSize=1.8mm|YSize=1.8mm|CornerRadius=0mm|HoleSize=0mm|Usage=FLASHONLY|Rotation=0.000|XOffset=0mm|YOffset=0mm|HoleType=Round|Shape=Relief|Width=0.2mm|Gap=0.25mm|Entries=4|*
%AMTHD67*
7,0,0,1.800,1.300,0.200,45*
%
%ADD67THD67*%
%ADD68C,1.900*%
G04:AMPARAMS|DCode=69|XSize=2.3mm|YSize=2.3mm|CornerRadius=0mm|HoleSize=0mm|Usage=FLASHONLY|Rotation=0.000|XOffset=0mm|YOffset=0mm|HoleType=Round|Shape=Relief|Width=0.2mm|Gap=0.25mm|Entries=4|*
%AMTHD69*
7,0,0,2.300,1.800,0.200,45*
%
%ADD69THD69*%
%ADD70O,1.800X1.100*%
%ADD71C,3.650*%
%ADD72C,0.850*%
%ADD73C,1.200*%
%ADD74C,0.120*%
%ADD75C,1.500*%
%ADD76C,2.000*%
%ADD77C,1.350*%
%ADD78C,3.200*%
%ADD79C,0.001*%
%ADD80C,0.050*%
%ADD81C,0.080*%
D45*
X0180500Y0145500D02*
Y0144000D01*
X0180000Y0145500D02*
X0181000D01*
X0181607D02*
X0181464Y0145428D01*
X0181321Y0145285D01*
X0181250Y0145143D01*
X0181178Y0144928D01*
Y0144571D01*
X0181250Y0144357D01*
X0181321Y0144214D01*
X0181464Y0144071D01*
X0181607Y0144000D01*
X0181892D01*
X0182035Y0144071D01*
X0182178Y0144214D01*
X0182250Y0144357D01*
X0182321Y0144571D01*
Y0144928D01*
X0182250Y0145143D01*
X0182178Y0145285D01*
X0182035Y0145428D01*
X0181892Y0145500D01*
X0181607D01*
X0182671Y0144714D02*
X0183314D01*
X0183528Y0144786D01*
X0183599Y0144857D01*
X0183671Y0145000D01*
Y0145214D01*
X0183599Y0145357D01*
X0183528Y0145428D01*
X0183314Y0145500D01*
X0182671D01*
Y0144000D01*
X0186327D02*
X0185756Y0145500D01*
X0185185Y0144000D01*
X0185399Y0144500D02*
X0186113D01*
X0187677Y0145285D02*
X0187534Y0145428D01*
X0187320Y0145500D01*
X0187034D01*
X0186820Y0145428D01*
X0186677Y0145285D01*
Y0145143D01*
X0186749Y0145000D01*
X0186820Y0144928D01*
X0186963Y0144857D01*
X0187391Y0144714D01*
X0187534Y0144643D01*
X0187606Y0144571D01*
X0187677Y0144428D01*
Y0144214D01*
X0187534Y0144071D01*
X0187320Y0144000D01*
X0187034D01*
X0186820Y0144071D01*
X0186677Y0144214D01*
X0189012Y0145285D02*
X0188870Y0145428D01*
X0188655Y0145500D01*
X0188370D01*
X0188155Y0145428D01*
X0188013Y0145285D01*
Y0145143D01*
X0188084Y0145000D01*
X0188155Y0144928D01*
X0188298Y0144857D01*
X0188727Y0144714D01*
X0188870Y0144643D01*
X0188941Y0144571D01*
X0189012Y0144428D01*
Y0144214D01*
X0188870Y0144071D01*
X0188655Y0144000D01*
X0188370D01*
X0188155Y0144071D01*
X0188013Y0144214D01*
X0190276Y0145500D02*
X0189348D01*
Y0144000D01*
X0190276D01*
X0189348Y0144786D02*
X0189919D01*
X0190526Y0145500D02*
Y0144000D01*
Y0145500D02*
X0191098Y0144000D01*
X0191669Y0145500D02*
X0191098Y0144000D01*
X0191669Y0145500D02*
Y0144000D01*
X0192097Y0145500D02*
Y0144000D01*
Y0145500D02*
X0192740D01*
X0192954Y0145428D01*
X0193026Y0145357D01*
X0193097Y0145214D01*
Y0145071D01*
X0193026Y0144928D01*
X0192954Y0144857D01*
X0192740Y0144786D01*
X0192097D02*
X0192740D01*
X0192954Y0144714D01*
X0193026Y0144643D01*
X0193097Y0144500D01*
Y0144286D01*
X0193026Y0144143D01*
X0192954Y0144071D01*
X0192740Y0144000D01*
X0192097D01*
X0193433Y0145500D02*
Y0144000D01*
X0194290D01*
X0194454Y0145500D02*
X0195025Y0144786D01*
Y0144000D01*
X0195597Y0145500D02*
X0195025Y0144786D01*
X0180714Y0147500D02*
Y0146357D01*
X0180643Y0146143D01*
X0180571Y0146071D01*
X0180428Y0146000D01*
X0180286D01*
X0180143Y0146071D01*
X0180071Y0146143D01*
X0180000Y0146357D01*
Y0146500D01*
X0182171Y0147143D02*
X0182100Y0147285D01*
X0181957Y0147428D01*
X0181814Y0147500D01*
X0181528D01*
X0181385Y0147428D01*
X0181243Y0147285D01*
X0181171Y0147143D01*
X0181100Y0146928D01*
Y0146571D01*
X0181171Y0146357D01*
X0181243Y0146214D01*
X0181385Y0146071D01*
X0181528Y0146000D01*
X0181814D01*
X0181957Y0146071D01*
X0182100Y0146214D01*
X0182171Y0146357D01*
Y0146571D01*
X0181814D02*
X0182171D01*
X0182514Y0147500D02*
Y0146000D01*
Y0147500D02*
X0183156D01*
X0183371Y0147428D01*
X0183442Y0147357D01*
X0183514Y0147214D01*
Y0147071D01*
X0183442Y0146928D01*
X0183371Y0146857D01*
X0183156Y0146786D01*
X0182514D02*
X0183156D01*
X0183371Y0146714D01*
X0183442Y0146643D01*
X0183514Y0146500D01*
Y0146286D01*
X0183442Y0146143D01*
X0183371Y0146071D01*
X0183156Y0146000D01*
X0182514D01*
X0184278Y0147500D02*
X0184063Y0147428D01*
X0183921Y0147214D01*
X0183849Y0146857D01*
Y0146643D01*
X0183921Y0146286D01*
X0184063Y0146071D01*
X0184278Y0146000D01*
X0184420D01*
X0184635Y0146071D01*
X0184778Y0146286D01*
X0184849Y0146643D01*
Y0146857D01*
X0184778Y0147214D01*
X0184635Y0147428D01*
X0184420Y0147500D01*
X0184278D01*
X0185613D02*
X0185399Y0147428D01*
X0185256Y0147214D01*
X0185185Y0146857D01*
Y0146643D01*
X0185256Y0146286D01*
X0185399Y0146071D01*
X0185613Y0146000D01*
X0185756D01*
X0185970Y0146071D01*
X0186113Y0146286D01*
X0186184Y0146643D01*
Y0146857D01*
X0186113Y0147214D01*
X0185970Y0147428D01*
X0185756Y0147500D01*
X0185613D01*
X0186949D02*
X0186734Y0147428D01*
X0186591Y0147214D01*
X0186520Y0146857D01*
Y0146643D01*
X0186591Y0146286D01*
X0186734Y0146071D01*
X0186949Y0146000D01*
X0187091D01*
X0187306Y0146071D01*
X0187448Y0146286D01*
X0187520Y0146643D01*
Y0146857D01*
X0187448Y0147214D01*
X0187306Y0147428D01*
X0187091Y0147500D01*
X0186949D01*
X0187855Y0147214D02*
X0187998Y0147285D01*
X0188213Y0147500D01*
Y0146000D01*
X0190134Y0146857D02*
X0191419D01*
X0190134Y0146428D02*
X0191419D01*
X0193111Y0147143D02*
Y0147214D01*
X0193183Y0147357D01*
X0193254Y0147428D01*
X0193397Y0147500D01*
X0193683D01*
X0193826Y0147428D01*
X0193897Y0147357D01*
X0193968Y0147214D01*
Y0147071D01*
X0193897Y0146928D01*
X0193754Y0146714D01*
X0193040Y0146000D01*
X0194040D01*
X0194375Y0147500D02*
X0194947Y0146000D01*
X0195518Y0147500D02*
X0194947Y0146000D01*
X0195711Y0147214D02*
X0195854Y0147285D01*
X0196068Y0147500D01*
Y0146000D01*
X0197989Y0146857D02*
X0199274D01*
X0197989Y0146428D02*
X0199274D01*
X0200967Y0147143D02*
Y0147214D01*
X0201038Y0147357D01*
X0201110Y0147428D01*
X0201253Y0147500D01*
X0201538D01*
X0201681Y0147428D01*
X0201752Y0147357D01*
X0201824Y0147214D01*
Y0147071D01*
X0201752Y0146928D01*
X0201610Y0146714D01*
X0200896Y0146000D01*
X0201895D01*
X0203231Y0147500D02*
X0202517Y0146000D01*
X0202231Y0147500D02*
X0203231D01*
X0204745D02*
Y0146000D01*
Y0147500D02*
X0205316Y0146000D01*
X0205887Y0147500D02*
X0205316Y0146000D01*
X0205887Y0147500D02*
Y0146000D01*
X0207458D02*
X0206887Y0147500D01*
X0206316Y0146000D01*
X0206530Y0146500D02*
X0207244D01*
X0207808Y0147500D02*
X0208380Y0146786D01*
Y0146000D01*
X0208951Y0147500D02*
X0208380Y0146786D01*
X0210393Y0147143D02*
Y0147214D01*
X0210465Y0147357D01*
X0210536Y0147428D01*
X0210679Y0147500D01*
X0210965D01*
X0211108Y0147428D01*
X0211179Y0147357D01*
X0211250Y0147214D01*
Y0147071D01*
X0211179Y0146928D01*
X0211036Y0146714D01*
X0210322Y0146000D01*
X0211322D01*
X0212086Y0147500D02*
X0211872Y0147428D01*
X0211729Y0147214D01*
X0211658Y0146857D01*
Y0146643D01*
X0211729Y0146286D01*
X0211872Y0146071D01*
X0212086Y0146000D01*
X0212229D01*
X0212443Y0146071D01*
X0212586Y0146286D01*
X0212657Y0146643D01*
Y0146857D01*
X0212586Y0147214D01*
X0212443Y0147428D01*
X0212229Y0147500D01*
X0212086D01*
X0212993Y0147214D02*
X0213136Y0147285D01*
X0213350Y0147500D01*
Y0146000D01*
X0214950Y0147500D02*
X0214236D01*
X0214164Y0146857D01*
X0214236Y0146928D01*
X0214450Y0147000D01*
X0214664D01*
X0214878Y0146928D01*
X0215021Y0146786D01*
X0215092Y0146571D01*
Y0146428D01*
X0215021Y0146214D01*
X0214878Y0146071D01*
X0214664Y0146000D01*
X0214450D01*
X0214236Y0146071D01*
X0214164Y0146143D01*
X0214093Y0146286D01*
D74*
X0187000Y0157000D02*
G03*
X0187000Y0157000I-0001000J0000000D01*
G01*
X0250000D02*
G03*
X0250000Y0157000I-0001000J0000000D01*
G01*
Y0173000D02*
G03*
X0250000Y0173000I-0001000J0000000D01*
G01*
X0211470Y0169780D02*
X0212530D01*
X0211470Y0169220D02*
Y0169780D01*
Y0169220D02*
X0212530D01*
Y0169780D01*
X0206000Y0156450D02*
Y0157550D01*
X0205400D02*
X0206000D01*
X0205400Y0156450D02*
X0206000D01*
X0205400D02*
Y0157550D01*
X0207720Y0156470D02*
Y0157530D01*
Y0156470D02*
X0208280D01*
Y0157530D01*
X0207720D02*
X0208280D01*
X0209420D02*
X0209980D01*
Y0156470D02*
Y0157530D01*
X0209420Y0156470D02*
X0209980D01*
X0209420D02*
Y0157530D01*
X0211450Y0173100D02*
X0212550D01*
X0211450Y0172500D02*
Y0173100D01*
Y0172500D02*
X0212550D01*
Y0173100D01*
X0214670Y0168200D02*
X0218400D01*
X0213400Y0169470D02*
X0214670Y0168200D01*
X0213400Y0169470D02*
Y0172200D01*
X0218400D01*
Y0168200D02*
Y0172200D01*
X0186050Y0164725D02*
X0187350D01*
Y0166425D01*
X0186483D02*
X0187350D01*
X0186050Y0165992D02*
X0186483Y0166425D01*
X0186050Y0164725D02*
Y0165992D01*
X0224320Y0157450D02*
Y0159963D01*
X0224907Y0160550D01*
X0226080D01*
Y0157450D02*
Y0160550D01*
X0224320Y0157450D02*
X0226080D01*
X0188500Y0157600D02*
Y0160133D01*
X0188967Y0160600D01*
X0189900D01*
Y0157600D02*
Y0160600D01*
X0188500Y0157600D02*
X0189900D01*
X0189180Y0161853D02*
Y0163600D01*
X0188727Y0161400D02*
X0189180Y0161853D01*
X0187820Y0161400D02*
X0188727D01*
X0187820D02*
Y0163600D01*
X0189180D01*
X0216447Y0164780D02*
X0216900Y0164327D01*
Y0163420D02*
Y0164327D01*
X0214700Y0163420D02*
X0216900D01*
X0214700Y0164780D02*
X0216447D01*
X0214700Y0163420D02*
Y0164780D01*
X0219950Y0161950D02*
X0223050D01*
Y0165050D01*
X0220983D02*
X0223050D01*
X0219950Y0164017D02*
X0220983Y0165050D01*
X0219950Y0161950D02*
Y0164017D01*
X0220350Y0158150D02*
X0221250D01*
X0220350D02*
Y0159850D01*
X0221250D01*
Y0158150D02*
Y0159850D01*
X0198950Y0159950D02*
Y0170050D01*
Y0159950D02*
X0209050D01*
Y0168780D01*
X0207780Y0170050D02*
X0209050Y0168780D01*
X0198950Y0170050D02*
X0207780D01*
X0232530Y0162470D02*
Y0167530D01*
X0227470D02*
X0232530D01*
X0227470Y0163740D02*
Y0167530D01*
Y0163740D02*
X0228740Y0162470D01*
X0232530D01*
X0220700Y0165750D02*
X0223200D01*
X0219800Y0166650D02*
X0220700Y0165750D01*
X0219800Y0166650D02*
Y0168450D01*
X0223200D01*
Y0165750D02*
Y0168450D01*
X0192650Y0157050D02*
X0194350D01*
Y0157950D01*
X0192950D02*
X0194350D01*
X0192650Y0157650D02*
X0192950Y0157950D01*
X0192650Y0157050D02*
Y0157650D01*
X0193900Y0173230D02*
X0196100D01*
X0193900Y0171770D02*
Y0173230D01*
X0196100Y0171770D02*
Y0173230D01*
X0193900Y0171770D02*
X0196100D01*
X0222420Y0172320D02*
Y0173280D01*
Y0172320D02*
X0224180D01*
X0222420Y0173280D02*
X0224180D01*
Y0172320D02*
Y0173280D01*
X0247170Y0158570D02*
X0247830D01*
X0247170D02*
Y0159430D01*
X0247830D01*
Y0158570D02*
Y0159430D01*
X0257300Y0162400D02*
Y0167600D01*
X0255300D02*
X0257300D01*
X0255300D02*
Y0169400D01*
X0251500D02*
X0255300D01*
X0251500Y0169100D02*
Y0169400D01*
X0248300Y0169100D02*
X0251500D01*
X0248300Y0168500D02*
Y0169100D01*
X0239300Y0168500D02*
X0248300D01*
X0239300Y0161500D02*
Y0168500D01*
Y0161500D02*
X0246300D01*
Y0161200D02*
Y0161500D01*
Y0161200D02*
X0255300D01*
Y0162400D01*
X0257300D01*
X0178600Y0161000D02*
Y0169000D01*
X0184400D01*
Y0161000D02*
Y0169000D01*
X0178600Y0161000D02*
X0184400D01*
X0224100Y0170400D02*
Y0171600D01*
X0223500Y0169800D02*
X0224100Y0170400D01*
X0220700Y0169800D02*
X0223500D01*
X0220700D02*
Y0171600D01*
X0224100D01*
X0193900Y0171230D02*
X0196100D01*
X0193900Y0169770D02*
Y0171230D01*
X0196100Y0169770D02*
Y0171230D01*
X0193900Y0169770D02*
X0196100D01*
X0212550Y0158150D02*
Y0159850D01*
Y0158150D02*
X0213450D01*
X0212550Y0159850D02*
X0213450D01*
Y0158150D02*
Y0159850D01*
X0195450Y0164000D02*
X0196550D01*
X0195450Y0163400D02*
Y0164000D01*
Y0163400D02*
X0196550D01*
Y0164000D01*
X0229550Y0159850D02*
X0230450D01*
Y0158150D02*
Y0159850D01*
X0229550Y0158150D02*
X0230450D01*
X0229550D02*
Y0159850D01*
X0219650Y0173100D02*
X0220750D01*
X0219650Y0172500D02*
Y0173100D01*
Y0172500D02*
X0220750D01*
Y0173100D01*
X0185700Y0160450D02*
Y0161550D01*
Y0160450D02*
X0186300D01*
Y0161550D01*
X0185700D02*
X0186300D01*
X0191270Y0162780D02*
X0192330D01*
X0191270Y0162220D02*
Y0162780D01*
Y0162220D02*
X0192330D01*
Y0162780D01*
X0191270Y0163220D02*
X0192330D01*
Y0163780D01*
X0191270D02*
X0192330D01*
X0191270Y0163220D02*
Y0163780D01*
X0190970Y0168620D02*
X0192030D01*
Y0169180D01*
X0190970D02*
X0192030D01*
X0190970Y0168620D02*
Y0169180D01*
X0192870Y0168620D02*
X0193930D01*
Y0169180D01*
X0192870D02*
X0193930D01*
X0192870Y0168620D02*
Y0169180D01*
X0192850Y0168200D02*
X0193950D01*
X0192850Y0167600D02*
Y0168200D01*
Y0167600D02*
X0193950D01*
Y0168200D01*
X0235650Y0167050D02*
Y0167950D01*
X0237350D01*
Y0167050D02*
Y0167950D01*
X0235650Y0167050D02*
X0237350D01*
X0226700Y0170150D02*
X0227300D01*
X0226700D02*
Y0171250D01*
X0227300D01*
Y0170150D02*
Y0171250D01*
X0224900Y0162750D02*
X0225500D01*
X0224900D02*
Y0163850D01*
X0225500D01*
Y0162750D02*
Y0163850D01*
X0237050Y0171850D02*
X0237950D01*
Y0170150D02*
Y0171850D01*
X0237050Y0170150D02*
X0237950D01*
X0237050D02*
Y0171850D01*
X0196530Y0159720D02*
Y0160280D01*
X0195470Y0159720D02*
X0196530D01*
X0195470D02*
Y0160280D01*
X0196530D01*
Y0157220D02*
Y0157780D01*
X0195470Y0157220D02*
X0196530D01*
X0195470D02*
Y0157780D01*
X0196530D01*
X0217750Y0161400D02*
Y0162000D01*
X0216650D02*
X0217750D01*
X0216650Y0161400D02*
X0217750D01*
X0216650D02*
Y0162000D01*
X0235550Y0170150D02*
X0236450D01*
X0235550D02*
Y0171850D01*
X0236450D01*
Y0170150D02*
Y0171850D01*
X0231050Y0170150D02*
X0231950D01*
X0231050D02*
Y0171850D01*
X0231950D01*
Y0170150D02*
Y0171850D01*
X0231050Y0159850D02*
X0231950D01*
Y0158150D02*
Y0159850D01*
X0231050Y0158150D02*
X0231950D01*
X0231050D02*
Y0159850D01*
X0217500Y0163550D02*
X0218100D01*
Y0164650D01*
X0217500Y0163550D02*
Y0164650D01*
X0218100D01*
X0196550Y0161400D02*
Y0162000D01*
X0195450D02*
X0196550D01*
X0195450Y0161400D02*
X0196550D01*
X0195450D02*
Y0162000D01*
X0201300Y0172450D02*
X0201900D01*
Y0173550D01*
X0201300Y0172450D02*
Y0173550D01*
X0201900D01*
X0200400Y0156450D02*
X0201000D01*
Y0157550D01*
X0200400Y0156450D02*
Y0157550D01*
X0201000D01*
X0206900Y0172450D02*
Y0173550D01*
X0206300D02*
X0206900D01*
X0206300Y0172450D02*
X0206900D01*
X0206300D02*
Y0173550D01*
X0195450Y0167800D02*
X0196550D01*
X0195450Y0167200D02*
Y0167800D01*
X0196550Y0167200D02*
Y0167800D01*
X0195450Y0167200D02*
X0196550D01*
X0203500Y0157550D02*
X0204100D01*
X0203500Y0156450D02*
Y0157550D01*
X0204100Y0156450D02*
Y0157550D01*
X0203500Y0156450D02*
X0204100D01*
X0212550Y0165900D02*
Y0166500D01*
X0211450D02*
X0212550D01*
X0211450Y0165900D02*
X0212550D01*
X0211450D02*
Y0166500D01*
X0211550Y0162300D02*
X0212650D01*
X0211550Y0161700D02*
Y0162300D01*
X0212650Y0161700D02*
Y0162300D01*
X0211550Y0161700D02*
X0212650D01*
X0185450Y0159800D02*
X0186550D01*
X0185450Y0159200D02*
Y0159800D01*
X0186550Y0159200D02*
Y0159800D01*
X0185450Y0159200D02*
X0186550D01*
X0211200Y0164050D02*
X0211800D01*
X0211200Y0162950D02*
Y0164050D01*
X0211800Y0162950D02*
Y0164050D01*
X0211200Y0162950D02*
X0211800D01*
X0185850Y0166800D02*
X0186950D01*
Y0167400D01*
X0185850Y0166800D02*
Y0167400D01*
X0186950D01*
X0195450Y0166200D02*
Y0166800D01*
Y0166200D02*
X0196550D01*
X0195450Y0166800D02*
X0196550D01*
Y0166200D02*
Y0166800D01*
X0203400Y0172450D02*
X0204000D01*
Y0173550D01*
X0203400Y0172450D02*
Y0173550D01*
X0204000D01*
X0237350Y0165550D02*
Y0166450D01*
X0235650D02*
X0237350D01*
X0235650Y0165550D02*
X0237350D01*
X0235650D02*
Y0166450D01*
Y0164450D02*
X0237350D01*
X0235650Y0163550D02*
Y0164450D01*
X0237350Y0163550D02*
Y0164450D01*
X0235650Y0163550D02*
X0237350D01*
X0235550Y0159850D02*
X0236450D01*
Y0158150D02*
Y0159850D01*
X0235550Y0158150D02*
X0236450D01*
X0235550D02*
Y0159850D01*
X0235650Y0161950D02*
X0237350D01*
Y0162850D01*
X0235650D02*
X0237350D01*
X0235650Y0161950D02*
Y0162850D01*
X0227650Y0158150D02*
Y0159850D01*
Y0158150D02*
X0228550D01*
Y0159850D01*
X0227650D02*
X0228550D01*
X0243850Y0171300D02*
X0244950D01*
Y0171900D01*
X0243850Y0171300D02*
Y0171900D01*
X0244950D01*
X0246100Y0158450D02*
Y0159550D01*
Y0158450D02*
X0246700D01*
Y0159550D01*
X0246100D02*
X0246700D01*
X0218550Y0158150D02*
Y0159850D01*
Y0158150D02*
X0219450D01*
X0218550Y0159850D02*
X0219450D01*
Y0158150D02*
Y0159850D01*
X0228050Y0170150D02*
X0228950D01*
X0228050D02*
Y0171850D01*
X0228950D01*
Y0170150D02*
Y0171850D01*
X0229550Y0170150D02*
X0230450D01*
X0229550D02*
Y0171850D01*
X0230450D01*
Y0170150D02*
Y0171850D01*
X0235550Y0168400D02*
Y0169000D01*
X0236650D01*
Y0168400D02*
Y0169000D01*
X0235550Y0168400D02*
X0236650D01*
X0221850Y0159850D02*
X0222750D01*
X0221850Y0158150D02*
Y0159850D01*
X0222750Y0158150D02*
Y0159850D01*
X0221850Y0158150D02*
X0222750D01*
X0189500Y0166950D02*
X0190100D01*
Y0168050D01*
X0189500Y0166950D02*
Y0168050D01*
X0190100D01*
X0186970Y0172700D02*
X0188430D01*
X0186970Y0170500D02*
Y0172700D01*
X0188430Y0170500D02*
Y0172700D01*
X0186970Y0170500D02*
X0188430D01*
X0185700Y0162450D02*
X0186300D01*
Y0163550D01*
X0185700Y0162450D02*
Y0163550D01*
X0186300D01*
X0186120Y0168980D02*
X0187880D01*
X0186120Y0168020D02*
Y0168980D01*
X0187880Y0168020D02*
Y0168980D01*
X0186120Y0168020D02*
X0187880D01*
X0232550Y0171850D02*
X0233450D01*
Y0170150D02*
Y0171850D01*
X0232550Y0170150D02*
X0233450D01*
X0232550D02*
Y0171850D01*
X0214670Y0161420D02*
Y0161980D01*
X0215730D01*
Y0161420D02*
Y0161980D01*
X0214670Y0161420D02*
X0215730D01*
X0195470Y0165020D02*
X0196530D01*
Y0165580D01*
X0195470D02*
X0196530D01*
X0195470Y0165020D02*
Y0165580D01*
X0234050Y0170150D02*
X0234950D01*
X0234050D02*
Y0171850D01*
X0234950D01*
Y0170150D02*
Y0171850D01*
X0234050Y0159850D02*
X0234950D01*
Y0158150D02*
Y0159850D01*
X0234050Y0158150D02*
X0234950D01*
X0234050D02*
Y0159850D01*
X0237050Y0158150D02*
X0237950D01*
X0237050D02*
Y0159850D01*
X0237950D01*
Y0158150D02*
Y0159850D01*
X0202380Y0156470D02*
Y0157530D01*
X0201820D02*
X0202380D01*
X0201820Y0156470D02*
Y0157530D01*
Y0156470D02*
X0202380D01*
X0212320Y0164030D02*
X0212880D01*
Y0162970D02*
Y0164030D01*
X0212320Y0162970D02*
X0212880D01*
X0212320D02*
Y0164030D01*
X0232550Y0158150D02*
X0233450D01*
Y0159850D01*
X0232550Y0158150D02*
Y0159850D01*
X0233450D01*
X0195470Y0168220D02*
X0196530D01*
Y0168780D01*
X0195470D02*
X0196530D01*
X0195470Y0168220D02*
Y0168780D01*
X0191270Y0161220D02*
X0192330D01*
Y0161780D01*
X0191270D02*
X0192330D01*
X0191270Y0161220D02*
Y0161780D01*
X0190120Y0172263D02*
X0190707Y0172850D01*
X0191880D01*
Y0169750D02*
Y0172850D01*
X0190120Y0169750D02*
Y0172263D01*
Y0169750D02*
X0191880D01*
X0215120Y0157450D02*
X0216880D01*
Y0160550D01*
X0215120Y0157450D02*
Y0159963D01*
X0215707Y0160550D02*
X0216880D01*
X0215120Y0159963D02*
X0215707Y0160550D01*
X0240850Y0170300D02*
X0241950D01*
X0240850Y0169700D02*
Y0170300D01*
Y0169700D02*
X0241950D01*
Y0170300D01*
X0192650Y0159550D02*
X0194350D01*
Y0160450D01*
X0192950D02*
X0194350D01*
X0192650Y0160150D02*
X0192950Y0160450D01*
X0192650Y0159550D02*
Y0160150D01*
X0225600Y0170150D02*
X0226200D01*
X0225600D02*
Y0171250D01*
X0226200D01*
Y0170150D02*
Y0171250D01*
X0244830Y0170170D02*
Y0170830D01*
X0243970Y0170170D02*
X0244830D01*
X0243970D02*
Y0170830D01*
X0244830D01*
X0226150Y0168500D02*
Y0169100D01*
X0225050Y0168500D02*
X0226150D01*
X0225050D02*
Y0169100D01*
X0226150D01*
X0225070Y0167520D02*
X0226130D01*
Y0168080D01*
X0225070D02*
X0226130D01*
X0225070Y0167520D02*
Y0168080D01*
Y0166620D02*
X0226130D01*
Y0167180D01*
X0225070D02*
X0226130D01*
X0225070Y0166620D02*
Y0167180D01*
X0221961Y0170916D02*
X0221923Y0170993D01*
X0221847Y0171069D01*
X0221770Y0171107D01*
X0221618D01*
X0221542Y0171069D01*
X0221466Y0170993D01*
X0221428Y0170916D01*
X0221390Y0170802D01*
Y0170612D01*
X0221428Y0170497D01*
X0221466Y0170421D01*
X0221542Y0170345D01*
X0221618Y0170307D01*
X0221770D01*
X0221847Y0170345D01*
X0221923Y0170421D01*
X0221961Y0170497D01*
X0222224Y0170916D02*
Y0170954D01*
X0222262Y0171031D01*
X0222300Y0171069D01*
X0222376Y0171107D01*
X0222528D01*
X0222605Y0171069D01*
X0222643Y0171031D01*
X0222681Y0170954D01*
Y0170878D01*
X0222643Y0170802D01*
X0222566Y0170688D01*
X0222186Y0170307D01*
X0222719D01*
X0223088Y0171107D02*
X0222974Y0171069D01*
X0222936Y0170993D01*
Y0170916D01*
X0222974Y0170840D01*
X0223050Y0170802D01*
X0223203Y0170764D01*
X0223317Y0170726D01*
X0223393Y0170650D01*
X0223431Y0170574D01*
Y0170459D01*
X0223393Y0170383D01*
X0223355Y0170345D01*
X0223241Y0170307D01*
X0223088D01*
X0222974Y0170345D01*
X0222936Y0170383D01*
X0222898Y0170459D01*
Y0170574D01*
X0222936Y0170650D01*
X0223012Y0170726D01*
X0223126Y0170764D01*
X0223279Y0170802D01*
X0223355Y0170840D01*
X0223393Y0170916D01*
Y0170993D01*
X0223355Y0171069D01*
X0223241Y0171107D01*
X0223088D01*
X0181686Y0165392D02*
Y0164782D01*
X0181648Y0164668D01*
X0181610Y0164630D01*
X0181534Y0164592D01*
X0181458D01*
X0181381Y0164630D01*
X0181343Y0164668D01*
X0181305Y0164782D01*
Y0164859D01*
X0181892Y0165239D02*
X0181968Y0165278D01*
X0182082Y0165392D01*
Y0164592D01*
X0224803Y0158064D02*
X0225374D01*
X0225489Y0158102D01*
X0225565Y0158178D01*
X0225603Y0158293D01*
Y0158369D01*
X0225565Y0158483D01*
X0225489Y0158559D01*
X0225374Y0158597D01*
X0224803D01*
X0224955Y0158818D02*
X0224917Y0158895D01*
X0224803Y0159009D01*
X0225603D01*
X0224803Y0159633D02*
X0224841Y0159519D01*
X0224955Y0159443D01*
X0225146Y0159405D01*
X0225260D01*
X0225450Y0159443D01*
X0225565Y0159519D01*
X0225603Y0159633D01*
Y0159710D01*
X0225565Y0159824D01*
X0225450Y0159900D01*
X0225260Y0159938D01*
X0225146D01*
X0224955Y0159900D01*
X0224841Y0159824D01*
X0224803Y0159710D01*
Y0159633D01*
X0221056Y0167500D02*
X0221589Y0166700D01*
Y0167500D02*
X0221056Y0166700D01*
X0221768Y0167348D02*
X0221845Y0167386D01*
X0221959Y0167500D01*
Y0166700D01*
X0188811Y0158445D02*
X0189382D01*
X0189497Y0158483D01*
X0189573Y0158559D01*
X0189611Y0158674D01*
Y0158750D01*
X0189573Y0158864D01*
X0189497Y0158940D01*
X0189382Y0158978D01*
X0188811D01*
Y0159733D02*
X0189611Y0159352D01*
X0188811Y0159199D02*
Y0159733D01*
X0215608Y0158369D02*
X0216179D01*
X0216294Y0158407D01*
X0216370Y0158483D01*
X0216408Y0158598D01*
Y0158674D01*
X0216370Y0158788D01*
X0216294Y0158864D01*
X0216179Y0158902D01*
X0215608D01*
X0215722Y0159580D02*
X0215646Y0159542D01*
X0215608Y0159428D01*
Y0159352D01*
X0215646Y0159237D01*
X0215761Y0159161D01*
X0215951Y0159123D01*
X0216141D01*
X0216294Y0159161D01*
X0216370Y0159237D01*
X0216408Y0159352D01*
Y0159390D01*
X0216370Y0159504D01*
X0216294Y0159580D01*
X0216179Y0159618D01*
X0216141D01*
X0216027Y0159580D01*
X0215951Y0159504D01*
X0215913Y0159390D01*
Y0159352D01*
X0215951Y0159237D01*
X0216027Y0159161D01*
X0216141Y0159123D01*
X0190589Y0170663D02*
X0191160D01*
X0191275Y0170701D01*
X0191351Y0170777D01*
X0191389Y0170891D01*
Y0170967D01*
X0191351Y0171082D01*
X0191275Y0171158D01*
X0191160Y0171196D01*
X0190589D01*
Y0171607D02*
X0190627Y0171493D01*
X0190703Y0171455D01*
X0190780D01*
X0190856Y0171493D01*
X0190894Y0171569D01*
X0190932Y0171721D01*
X0190970Y0171836D01*
X0191046Y0171912D01*
X0191122Y0171950D01*
X0191237D01*
X0191313Y0171912D01*
X0191351Y0171874D01*
X0191389Y0171760D01*
Y0171607D01*
X0191351Y0171493D01*
X0191313Y0171455D01*
X0191237Y0171417D01*
X0191122D01*
X0191046Y0171455D01*
X0190970Y0171531D01*
X0190932Y0171645D01*
X0190894Y0171798D01*
X0190856Y0171874D01*
X0190780Y0171912D01*
X0190703D01*
X0190627Y0171874D01*
X0190589Y0171760D01*
Y0171607D01*
X0220853Y0163893D02*
Y0163322D01*
X0220891Y0163208D01*
X0220967Y0163131D01*
X0221082Y0163093D01*
X0221158D01*
X0221272Y0163131D01*
X0221348Y0163208D01*
X0221386Y0163322D01*
Y0163893D01*
X0221683D02*
X0222102D01*
X0221874Y0163589D01*
X0221988D01*
X0222064Y0163550D01*
X0222102Y0163512D01*
X0222140Y0163398D01*
Y0163322D01*
X0222102Y0163208D01*
X0222026Y0163131D01*
X0221912Y0163093D01*
X0221798D01*
X0221683Y0163131D01*
X0221645Y0163170D01*
X0221607Y0163246D01*
X0215507Y0169545D02*
X0216078D01*
X0216192Y0169583D01*
X0216268Y0169659D01*
X0216306Y0169774D01*
Y0169850D01*
X0216268Y0169964D01*
X0216192Y0170040D01*
X0216078Y0170078D01*
X0215507D01*
X0215697Y0170337D02*
X0215659D01*
X0215583Y0170375D01*
X0215545Y0170413D01*
X0215507Y0170490D01*
Y0170642D01*
X0215545Y0170718D01*
X0215583Y0170756D01*
X0215659Y0170794D01*
X0215735D01*
X0215811Y0170756D01*
X0215926Y0170680D01*
X0216306Y0170299D01*
Y0170832D01*
X0203530Y0165468D02*
Y0164897D01*
X0203568Y0164782D01*
X0203644Y0164706D01*
X0203759Y0164668D01*
X0203835D01*
X0203949Y0164706D01*
X0204025Y0164782D01*
X0204063Y0164897D01*
Y0165468D01*
X0204284Y0165316D02*
X0204361Y0165354D01*
X0204475Y0165468D01*
Y0164668D01*
X0229362Y0165316D02*
Y0164744D01*
X0229400Y0164630D01*
X0229476Y0164554D01*
X0229591Y0164516D01*
X0229667D01*
X0229781Y0164554D01*
X0229857Y0164630D01*
X0229895Y0164744D01*
Y0165316D01*
X0230573D02*
X0230192D01*
X0230154Y0164973D01*
X0230192Y0165011D01*
X0230307Y0165049D01*
X0230421D01*
X0230535Y0165011D01*
X0230611Y0164935D01*
X0230649Y0164820D01*
Y0164744D01*
X0230611Y0164630D01*
X0230535Y0164554D01*
X0230421Y0164516D01*
X0230307D01*
X0230192Y0164554D01*
X0230154Y0164592D01*
X0230116Y0164668D01*
X0215138Y0164503D02*
Y0163932D01*
X0215176Y0163817D01*
X0215252Y0163741D01*
X0215367Y0163703D01*
X0215443D01*
X0215557Y0163741D01*
X0215633Y0163817D01*
X0215671Y0163932D01*
Y0164503D01*
X0216273D02*
X0215892Y0163970D01*
X0216463D01*
X0216273Y0164503D02*
Y0163703D01*
X0246781Y0165600D02*
Y0164990D01*
X0246743Y0164876D01*
X0246705Y0164838D01*
X0246629Y0164800D01*
X0246552D01*
X0246476Y0164838D01*
X0246438Y0164876D01*
X0246400Y0164990D01*
Y0165067D01*
X0247025Y0165409D02*
Y0165447D01*
X0247063Y0165524D01*
X0247101Y0165562D01*
X0247177Y0165600D01*
X0247329D01*
X0247406Y0165562D01*
X0247444Y0165524D01*
X0247482Y0165447D01*
Y0165371D01*
X0247444Y0165295D01*
X0247367Y0165181D01*
X0246987Y0164800D01*
X0247520D01*
X0188100Y0161874D02*
X0188671D01*
X0188786Y0161912D01*
X0188862Y0161988D01*
X0188900Y0162103D01*
Y0162179D01*
X0188862Y0162293D01*
X0188786Y0162369D01*
X0188671Y0162407D01*
X0188100D01*
X0188367Y0163123D02*
X0188481Y0163085D01*
X0188557Y0163009D01*
X0188595Y0162895D01*
Y0162857D01*
X0188557Y0162743D01*
X0188481Y0162666D01*
X0188367Y0162628D01*
X0188328D01*
X0188214Y0162666D01*
X0188138Y0162743D01*
X0188100Y0162857D01*
Y0162895D01*
X0188138Y0163009D01*
X0188214Y0163085D01*
X0188367Y0163123D01*
X0188557D01*
X0188747Y0163085D01*
X0188862Y0163009D01*
X0188900Y0162895D01*
Y0162819D01*
X0188862Y0162704D01*
X0188786Y0162666D01*
D79*
X0211475Y0169775D02*
X0212525D01*
X0211475Y0169225D02*
Y0169775D01*
Y0169225D02*
X0212525D01*
Y0169775D01*
X0205400Y0156450D02*
Y0157550D01*
X0206000Y0156450D02*
Y0157550D01*
X0205400D02*
X0206000D01*
X0205400Y0156450D02*
X0206000D01*
X0207725Y0156475D02*
Y0157525D01*
Y0156475D02*
X0208275D01*
Y0157525D01*
X0207725D02*
X0208275D01*
X0209425D02*
X0209975D01*
Y0156475D02*
Y0157525D01*
X0209425Y0156475D02*
X0209975D01*
X0209425D02*
Y0157525D01*
X0211450Y0173100D02*
X0212550D01*
X0211450Y0172500D02*
Y0173100D01*
Y0172500D02*
X0212550D01*
Y0173100D01*
X0213400Y0168200D02*
Y0172200D01*
X0218400D01*
Y0168200D02*
Y0172200D01*
X0213400Y0168200D02*
X0218400D01*
X0186050Y0164725D02*
Y0166425D01*
Y0164725D02*
X0187350D01*
Y0166425D01*
X0186050D02*
X0187350D01*
X0224325Y0160550D02*
X0226075D01*
Y0157450D02*
Y0160550D01*
X0224325Y0157450D02*
X0226075D01*
X0224325D02*
Y0160550D01*
X0188500Y0160600D02*
X0189900D01*
Y0157600D02*
Y0160600D01*
X0188500Y0157600D02*
X0189900D01*
X0188500D02*
Y0160600D01*
X0187825Y0161400D02*
X0189175D01*
X0187825D02*
Y0163600D01*
X0189175D01*
Y0161400D02*
Y0163600D01*
X0214700Y0164775D02*
X0216900D01*
Y0163425D02*
Y0164775D01*
X0214700Y0163425D02*
X0216900D01*
X0214700D02*
Y0164775D01*
X0219950Y0161950D02*
Y0165050D01*
Y0161950D02*
X0223050D01*
Y0165050D01*
X0219950D02*
X0223050D01*
X0220350Y0158150D02*
X0221250D01*
X0220350D02*
Y0159850D01*
X0221250D01*
Y0158150D02*
Y0159850D01*
X0198950Y0170050D02*
X0209050D01*
X0198950Y0159950D02*
Y0170050D01*
Y0159950D02*
X0209050D01*
Y0170050D01*
X0227475Y0162475D02*
X0232525D01*
Y0167525D01*
X0227475D02*
X0232525D01*
X0227475Y0162475D02*
Y0167525D01*
X0219800Y0165750D02*
Y0168450D01*
X0223200D01*
Y0165750D02*
Y0168450D01*
X0219800Y0165750D02*
X0223200D01*
X0192650Y0157050D02*
X0194350D01*
Y0157950D01*
X0192650D02*
X0194350D01*
X0192650Y0157050D02*
Y0157950D01*
X0193900Y0171775D02*
Y0173225D01*
X0196100D01*
X0193900Y0171775D02*
X0196100D01*
Y0173225D01*
X0222425Y0172325D02*
X0224175D01*
X0222425D02*
Y0173275D01*
X0224175D01*
Y0172325D02*
Y0173275D01*
X0247175Y0158575D02*
X0247825D01*
X0247175D02*
Y0159425D01*
X0247825D01*
Y0158575D02*
Y0159425D01*
X0224100Y0169800D02*
Y0171600D01*
X0220700Y0169800D02*
X0224100D01*
X0220700D02*
Y0171600D01*
X0224100D01*
X0196100Y0169775D02*
Y0171225D01*
X0193900Y0169775D02*
Y0171225D01*
X0196100D01*
X0193900Y0169775D02*
X0196100D01*
X0212550Y0159850D02*
X0213450D01*
X0212550Y0158150D02*
X0213450D01*
X0212550D02*
Y0159850D01*
X0213450Y0158150D02*
Y0159850D01*
X0195450Y0164000D02*
X0196550D01*
X0195450Y0163400D02*
Y0164000D01*
Y0163400D02*
X0196550D01*
Y0164000D01*
X0229550Y0159850D02*
X0230450D01*
Y0158150D02*
Y0159850D01*
X0229550Y0158150D02*
X0230450D01*
X0229550D02*
Y0159850D01*
X0219650Y0173100D02*
X0220750D01*
X0219650Y0172500D02*
Y0173100D01*
Y0172500D02*
X0220750D01*
Y0173100D01*
X0185700Y0160450D02*
Y0161550D01*
Y0160450D02*
X0186300D01*
Y0161550D01*
X0185700D02*
X0186300D01*
X0191275Y0162775D02*
X0192325D01*
X0191275Y0162225D02*
Y0162775D01*
Y0162225D02*
X0192325D01*
Y0162775D01*
X0191275Y0163225D02*
X0192325D01*
Y0163775D01*
X0191275D02*
X0192325D01*
X0191275Y0163225D02*
Y0163775D01*
X0190975Y0168625D02*
X0192025D01*
Y0169175D01*
X0190975D02*
X0192025D01*
X0190975Y0168625D02*
Y0169175D01*
X0192875Y0168625D02*
X0193925D01*
Y0169175D01*
X0192875D02*
X0193925D01*
X0192875Y0168625D02*
Y0169175D01*
X0192850Y0168200D02*
X0193950D01*
X0192850Y0167600D02*
Y0168200D01*
Y0167600D02*
X0193950D01*
Y0168200D01*
X0235650Y0167050D02*
Y0167950D01*
X0237350D01*
Y0167050D02*
Y0167950D01*
X0235650Y0167050D02*
X0237350D01*
X0226700Y0170150D02*
X0227300D01*
X0226700D02*
Y0171250D01*
X0227300D01*
Y0170150D02*
Y0171250D01*
X0224900Y0162750D02*
X0225500D01*
X0224900D02*
Y0163850D01*
X0225500D01*
Y0162750D02*
Y0163850D01*
X0237050Y0171850D02*
X0237950D01*
Y0170150D02*
Y0171850D01*
X0237050Y0170150D02*
X0237950D01*
X0237050D02*
Y0171850D01*
X0196525Y0159725D02*
Y0160275D01*
X0195475Y0159725D02*
X0196525D01*
X0195475D02*
Y0160275D01*
X0196525D01*
Y0157225D02*
Y0157775D01*
X0195475Y0157225D02*
X0196525D01*
X0195475D02*
Y0157775D01*
X0196525D01*
X0216650Y0161400D02*
X0217750D01*
Y0162000D01*
X0216650D02*
X0217750D01*
X0216650Y0161400D02*
Y0162000D01*
X0235550Y0170150D02*
X0236450D01*
X0235550D02*
Y0171850D01*
X0236450D01*
Y0170150D02*
Y0171850D01*
X0231050Y0170150D02*
X0231950D01*
X0231050D02*
Y0171850D01*
X0231950D01*
Y0170150D02*
Y0171850D01*
X0231050Y0159850D02*
X0231950D01*
Y0158150D02*
Y0159850D01*
X0231050Y0158150D02*
X0231950D01*
X0231050D02*
Y0159850D01*
X0217500Y0163550D02*
Y0164650D01*
Y0163550D02*
X0218100D01*
Y0164650D01*
X0217500D02*
X0218100D01*
X0195450Y0161400D02*
X0196550D01*
Y0162000D01*
X0195450D02*
X0196550D01*
X0195450Y0161400D02*
Y0162000D01*
X0201300Y0172450D02*
Y0173550D01*
Y0172450D02*
X0201900D01*
Y0173550D01*
X0201300D02*
X0201900D01*
X0200400Y0156450D02*
Y0157550D01*
Y0156450D02*
X0201000D01*
Y0157550D01*
X0200400D02*
X0201000D01*
X0206300Y0172450D02*
Y0173550D01*
X0206900Y0172450D02*
Y0173550D01*
X0206300D02*
X0206900D01*
X0206300Y0172450D02*
X0206900D01*
X0195450Y0167200D02*
X0196550D01*
X0195450Y0167800D02*
X0196550D01*
X0195450Y0167200D02*
Y0167800D01*
X0196550Y0167200D02*
Y0167800D01*
X0204100Y0156450D02*
Y0157550D01*
X0203500D02*
X0204100D01*
X0203500Y0156450D02*
Y0157550D01*
Y0156450D02*
X0204100D01*
X0211450Y0165900D02*
X0212550D01*
Y0166500D01*
X0211450D02*
X0212550D01*
X0211450Y0165900D02*
Y0166500D01*
X0211550Y0161700D02*
X0212650D01*
X0211550Y0162300D02*
X0212650D01*
X0211550Y0161700D02*
Y0162300D01*
X0212650Y0161700D02*
Y0162300D01*
X0185450Y0159200D02*
X0186550D01*
X0185450Y0159800D02*
X0186550D01*
X0185450Y0159200D02*
Y0159800D01*
X0186550Y0159200D02*
Y0159800D01*
X0211800Y0162950D02*
Y0164050D01*
X0211200D02*
X0211800D01*
X0211200Y0162950D02*
Y0164050D01*
Y0162950D02*
X0211800D01*
X0185850Y0167400D02*
X0186950D01*
X0185850Y0166800D02*
X0186950D01*
Y0167400D01*
X0185850Y0166800D02*
Y0167400D01*
X0195450Y0166800D02*
X0196550D01*
X0195450Y0166200D02*
Y0166800D01*
Y0166200D02*
X0196550D01*
Y0166800D01*
X0203400Y0172450D02*
Y0173550D01*
Y0172450D02*
X0204000D01*
Y0173550D01*
X0203400D02*
X0204000D01*
X0235650Y0165550D02*
X0237350D01*
Y0166450D01*
X0235650D02*
X0237350D01*
X0235650Y0165550D02*
Y0166450D01*
X0237350Y0163550D02*
Y0164450D01*
X0235650Y0163550D02*
Y0164450D01*
X0237350D01*
X0235650Y0163550D02*
X0237350D01*
X0235550Y0159850D02*
X0236450D01*
Y0158150D02*
Y0159850D01*
X0235550Y0158150D02*
X0236450D01*
X0235550D02*
Y0159850D01*
X0235650Y0161950D02*
X0237350D01*
Y0162850D01*
X0235650D02*
X0237350D01*
X0235650Y0161950D02*
Y0162850D01*
X0227650Y0158150D02*
Y0159850D01*
Y0158150D02*
X0228550D01*
Y0159850D01*
X0227650D02*
X0228550D01*
X0243850Y0171900D02*
X0244950D01*
X0243850Y0171300D02*
X0244950D01*
Y0171900D01*
X0243850Y0171300D02*
Y0171900D01*
X0246100Y0158450D02*
Y0159550D01*
Y0158450D02*
X0246700D01*
Y0159550D01*
X0246100D02*
X0246700D01*
X0218550Y0159850D02*
X0219450D01*
X0218550Y0158150D02*
X0219450D01*
X0218550D02*
Y0159850D01*
X0219450Y0158150D02*
Y0159850D01*
X0228050Y0170150D02*
X0228950D01*
X0228050D02*
Y0171850D01*
X0228950D01*
Y0170150D02*
Y0171850D01*
X0229550Y0170150D02*
X0230450D01*
X0229550D02*
Y0171850D01*
X0230450D01*
Y0170150D02*
Y0171850D01*
X0235550Y0168400D02*
Y0169000D01*
X0236650D01*
Y0168400D02*
Y0169000D01*
X0235550Y0168400D02*
X0236650D01*
X0222750Y0158150D02*
Y0159850D01*
X0221850D02*
X0222750D01*
X0221850Y0158150D02*
Y0159850D01*
Y0158150D02*
X0222750D01*
X0189500Y0166950D02*
Y0168050D01*
Y0166950D02*
X0190100D01*
Y0168050D01*
X0189500D02*
X0190100D01*
X0188425Y0170500D02*
Y0172700D01*
X0186975D02*
X0188425D01*
X0186975Y0170500D02*
Y0172700D01*
Y0170500D02*
X0188425D01*
X0185700Y0162450D02*
Y0163550D01*
Y0162450D02*
X0186300D01*
Y0163550D01*
X0185700D02*
X0186300D01*
X0186125Y0168025D02*
Y0168975D01*
X0187875D01*
X0186125Y0168025D02*
X0187875D01*
Y0168975D01*
X0232550Y0171850D02*
X0233450D01*
Y0170150D02*
Y0171850D01*
X0232550Y0170150D02*
X0233450D01*
X0232550D02*
Y0171850D01*
X0214675Y0161425D02*
Y0161975D01*
X0215725D01*
Y0161425D02*
Y0161975D01*
X0214675Y0161425D02*
X0215725D01*
X0195475Y0165025D02*
X0196525D01*
Y0165575D01*
X0195475D02*
X0196525D01*
X0195475Y0165025D02*
Y0165575D01*
X0234050Y0170150D02*
X0234950D01*
X0234050D02*
Y0171850D01*
X0234950D01*
Y0170150D02*
Y0171850D01*
X0234050Y0159850D02*
X0234950D01*
Y0158150D02*
Y0159850D01*
X0234050Y0158150D02*
X0234950D01*
X0234050D02*
Y0159850D01*
X0237050Y0158150D02*
X0237950D01*
X0237050D02*
Y0159850D01*
X0237950D01*
Y0158150D02*
Y0159850D01*
X0202375Y0156475D02*
Y0157525D01*
X0201825D02*
X0202375D01*
X0201825Y0156475D02*
Y0157525D01*
Y0156475D02*
X0202375D01*
X0212325Y0164025D02*
X0212875D01*
Y0162975D02*
Y0164025D01*
X0212325Y0162975D02*
X0212875D01*
X0212325D02*
Y0164025D01*
X0232550Y0158150D02*
Y0159850D01*
Y0158150D02*
X0233450D01*
Y0159850D01*
X0232550D02*
X0233450D01*
X0195475Y0168225D02*
X0196525D01*
Y0168775D01*
X0195475D02*
X0196525D01*
X0195475Y0168225D02*
Y0168775D01*
X0191275Y0161225D02*
X0192325D01*
Y0161775D01*
X0191275D02*
X0192325D01*
X0191275Y0161225D02*
Y0161775D01*
X0190125Y0169750D02*
Y0172850D01*
X0191875D01*
Y0169750D02*
Y0172850D01*
X0190125Y0169750D02*
X0191875D01*
X0215125Y0157450D02*
X0216875D01*
Y0160550D01*
X0215125Y0157450D02*
Y0160550D01*
X0216875D01*
X0240850Y0170300D02*
X0241950D01*
X0240850Y0169700D02*
Y0170300D01*
Y0169700D02*
X0241950D01*
Y0170300D01*
X0192650Y0159550D02*
X0194350D01*
Y0160450D01*
X0192650D02*
X0194350D01*
X0192650Y0159550D02*
Y0160450D01*
X0225600Y0170150D02*
X0226200D01*
X0225600D02*
Y0171250D01*
X0226200D01*
Y0170150D02*
Y0171250D01*
X0244825Y0170175D02*
Y0170825D01*
X0243975Y0170175D02*
X0244825D01*
X0243975D02*
Y0170825D01*
X0244825D01*
X0226150Y0168500D02*
Y0169100D01*
X0225050Y0168500D02*
X0226150D01*
X0225050D02*
Y0169100D01*
X0226150D01*
X0225075Y0167525D02*
X0226125D01*
Y0168075D01*
X0225075D02*
X0226125D01*
X0225075Y0167525D02*
Y0168075D01*
Y0166625D02*
X0226125D01*
Y0167175D01*
X0225075D02*
X0226125D01*
X0225075Y0166625D02*
Y0167175D01*
D80*
X0225222Y0167960D02*
Y0167660D01*
Y0167960D02*
X0225350D01*
X0225393Y0167946D01*
X0225407Y0167931D01*
X0225422Y0167903D01*
Y0167874D01*
X0225407Y0167846D01*
X0225393Y0167831D01*
X0225350Y0167817D01*
X0225222D01*
X0225322D02*
X0225422Y0167660D01*
X0225503Y0167889D02*
Y0167903D01*
X0225517Y0167931D01*
X0225532Y0167946D01*
X0225560Y0167960D01*
X0225617D01*
X0225646Y0167946D01*
X0225660Y0167931D01*
X0225675Y0167903D01*
Y0167874D01*
X0225660Y0167846D01*
X0225632Y0167803D01*
X0225489Y0167660D01*
X0225689D01*
X0225899Y0167960D02*
X0225756Y0167760D01*
X0225970D01*
X0225899Y0167960D02*
Y0167660D01*
X0225222Y0167050D02*
Y0166750D01*
Y0167050D02*
X0225350D01*
X0225393Y0167036D01*
X0225407Y0167021D01*
X0225422Y0166993D01*
Y0166964D01*
X0225407Y0166936D01*
X0225393Y0166921D01*
X0225350Y0166907D01*
X0225222D01*
X0225322D02*
X0225422Y0166750D01*
X0225503Y0166979D02*
Y0166993D01*
X0225517Y0167021D01*
X0225532Y0167036D01*
X0225560Y0167050D01*
X0225617D01*
X0225646Y0167036D01*
X0225660Y0167021D01*
X0225675Y0166993D01*
Y0166964D01*
X0225660Y0166936D01*
X0225632Y0166893D01*
X0225489Y0166750D01*
X0225689D01*
X0225785Y0167050D02*
X0225942D01*
X0225856Y0166936D01*
X0225899D01*
X0225927Y0166921D01*
X0225942Y0166907D01*
X0225956Y0166864D01*
Y0166836D01*
X0225942Y0166793D01*
X0225913Y0166764D01*
X0225870Y0166750D01*
X0225827D01*
X0225785Y0166764D01*
X0225770Y0166779D01*
X0225756Y0166807D01*
X0211847Y0172872D02*
X0211833Y0172901D01*
X0211804Y0172929D01*
X0211776Y0172944D01*
X0211718D01*
X0211690Y0172929D01*
X0211661Y0172901D01*
X0211647Y0172872D01*
X0211633Y0172829D01*
Y0172758D01*
X0211647Y0172715D01*
X0211661Y0172687D01*
X0211690Y0172658D01*
X0211718Y0172644D01*
X0211776D01*
X0211804Y0172658D01*
X0211833Y0172687D01*
X0211847Y0172715D01*
X0212074Y0172944D02*
X0211931Y0172744D01*
X0212146D01*
X0212074Y0172944D02*
Y0172644D01*
X0212384Y0172844D02*
X0212370Y0172801D01*
X0212341Y0172772D01*
X0212298Y0172758D01*
X0212284D01*
X0212241Y0172772D01*
X0212213Y0172801D01*
X0212198Y0172844D01*
Y0172858D01*
X0212213Y0172901D01*
X0212241Y0172929D01*
X0212284Y0172944D01*
X0212298D01*
X0212341Y0172929D01*
X0212370Y0172901D01*
X0212384Y0172844D01*
Y0172772D01*
X0212370Y0172701D01*
X0212341Y0172658D01*
X0212298Y0172644D01*
X0212270D01*
X0212227Y0172658D01*
X0212213Y0172687D01*
X0195870Y0163779D02*
X0195856Y0163808D01*
X0195828Y0163836D01*
X0195799Y0163851D01*
X0195742D01*
X0195713Y0163836D01*
X0195685Y0163808D01*
X0195670Y0163779D01*
X0195656Y0163736D01*
Y0163665D01*
X0195670Y0163622D01*
X0195685Y0163593D01*
X0195713Y0163565D01*
X0195742Y0163551D01*
X0195799D01*
X0195828Y0163565D01*
X0195856Y0163593D01*
X0195870Y0163622D01*
X0195955Y0163793D02*
X0195983Y0163808D01*
X0196026Y0163851D01*
Y0163551D01*
X0196346Y0163808D02*
X0196332Y0163836D01*
X0196289Y0163851D01*
X0196260D01*
X0196217Y0163836D01*
X0196189Y0163793D01*
X0196175Y0163722D01*
Y0163651D01*
X0196189Y0163593D01*
X0196217Y0163565D01*
X0196260Y0163551D01*
X0196275D01*
X0196317Y0163565D01*
X0196346Y0163593D01*
X0196360Y0163636D01*
Y0163651D01*
X0196346Y0163693D01*
X0196317Y0163722D01*
X0196275Y0163736D01*
X0196260D01*
X0196217Y0163722D01*
X0196189Y0163693D01*
X0196175Y0163651D01*
X0247350Y0158775D02*
X0247650D01*
X0247350D02*
Y0158875D01*
X0247364Y0158918D01*
X0247393Y0158947D01*
X0247421Y0158961D01*
X0247464Y0158975D01*
X0247536D01*
X0247579Y0158961D01*
X0247607Y0158947D01*
X0247636Y0158918D01*
X0247650Y0158875D01*
Y0158775D01*
X0247350Y0159214D02*
Y0159071D01*
X0247479Y0159057D01*
X0247464Y0159071D01*
X0247450Y0159114D01*
Y0159157D01*
X0247464Y0159200D01*
X0247493Y0159228D01*
X0247536Y0159242D01*
X0247564D01*
X0247607Y0159228D01*
X0247636Y0159200D01*
X0247650Y0159157D01*
Y0159114D01*
X0247636Y0159071D01*
X0247621Y0159057D01*
X0247593Y0159042D01*
X0244170Y0170658D02*
Y0170358D01*
Y0170658D02*
X0244270D01*
X0244313Y0170643D01*
X0244342Y0170615D01*
X0244356Y0170586D01*
X0244370Y0170543D01*
Y0170472D01*
X0244356Y0170429D01*
X0244342Y0170401D01*
X0244313Y0170372D01*
X0244270Y0170358D01*
X0244170D01*
X0244580Y0170658D02*
X0244437Y0170458D01*
X0244652D01*
X0244580Y0170658D02*
Y0170358D01*
X0225831Y0170547D02*
X0225803Y0170532D01*
X0225774Y0170504D01*
X0225760Y0170475D01*
Y0170418D01*
X0225774Y0170390D01*
X0225803Y0170361D01*
X0225831Y0170347D01*
X0225874Y0170332D01*
X0225946D01*
X0225989Y0170347D01*
X0226017Y0170361D01*
X0226046Y0170390D01*
X0226060Y0170418D01*
Y0170475D01*
X0226046Y0170504D01*
X0226017Y0170532D01*
X0225989Y0170547D01*
X0225831Y0170645D02*
X0225817D01*
X0225789Y0170659D01*
X0225774Y0170674D01*
X0225760Y0170702D01*
Y0170759D01*
X0225774Y0170788D01*
X0225789Y0170802D01*
X0225817Y0170817D01*
X0225846D01*
X0225874Y0170802D01*
X0225917Y0170774D01*
X0226060Y0170631D01*
Y0170831D01*
X0225860Y0171084D02*
X0225903Y0171069D01*
X0225931Y0171041D01*
X0225946Y0170998D01*
Y0170984D01*
X0225931Y0170941D01*
X0225903Y0170912D01*
X0225860Y0170898D01*
X0225846D01*
X0225803Y0170912D01*
X0225774Y0170941D01*
X0225760Y0170984D01*
Y0170998D01*
X0225774Y0171041D01*
X0225803Y0171069D01*
X0225860Y0171084D01*
X0225931D01*
X0226003Y0171069D01*
X0226046Y0171041D01*
X0226060Y0170998D01*
Y0170969D01*
X0226046Y0170927D01*
X0226017Y0170912D01*
X0225436Y0168885D02*
X0225422Y0168913D01*
X0225393Y0168942D01*
X0225365Y0168956D01*
X0225307D01*
X0225279Y0168942D01*
X0225250Y0168913D01*
X0225236Y0168885D01*
X0225222Y0168842D01*
Y0168770D01*
X0225236Y0168727D01*
X0225250Y0168699D01*
X0225279Y0168670D01*
X0225307Y0168656D01*
X0225365D01*
X0225393Y0168670D01*
X0225422Y0168699D01*
X0225436Y0168727D01*
X0225549Y0168956D02*
X0225706D01*
X0225620Y0168842D01*
X0225663D01*
X0225692Y0168827D01*
X0225706Y0168813D01*
X0225720Y0168770D01*
Y0168742D01*
X0225706Y0168699D01*
X0225677Y0168670D01*
X0225635Y0168656D01*
X0225592D01*
X0225549Y0168670D01*
X0225535Y0168685D01*
X0225520Y0168713D01*
X0225873Y0168956D02*
X0225830Y0168942D01*
X0225802Y0168899D01*
X0225787Y0168827D01*
Y0168785D01*
X0225802Y0168713D01*
X0225830Y0168670D01*
X0225873Y0168656D01*
X0225902D01*
X0225945Y0168670D01*
X0225973Y0168713D01*
X0225987Y0168785D01*
Y0168827D01*
X0225973Y0168899D01*
X0225945Y0168942D01*
X0225902Y0168956D01*
X0225873D01*
X0209474Y0157145D02*
Y0156845D01*
Y0157145D02*
X0209602D01*
X0209645Y0157131D01*
X0209659Y0157116D01*
X0209674Y0157088D01*
Y0157059D01*
X0209659Y0157031D01*
X0209645Y0157016D01*
X0209602Y0157002D01*
X0209474D01*
X0209574D02*
X0209674Y0156845D01*
X0209755Y0157074D02*
Y0157088D01*
X0209769Y0157116D01*
X0209784Y0157131D01*
X0209812Y0157145D01*
X0209869D01*
X0209898Y0157131D01*
X0209912Y0157116D01*
X0209927Y0157088D01*
Y0157059D01*
X0209912Y0157031D01*
X0209884Y0156988D01*
X0209741Y0156845D01*
X0209941D01*
X0241235Y0170078D02*
X0241221Y0170107D01*
X0241192Y0170135D01*
X0241163Y0170150D01*
X0241106D01*
X0241078Y0170135D01*
X0241049Y0170107D01*
X0241035Y0170078D01*
X0241021Y0170035D01*
Y0169964D01*
X0241035Y0169921D01*
X0241049Y0169893D01*
X0241078Y0169864D01*
X0241106Y0169850D01*
X0241163D01*
X0241192Y0169864D01*
X0241221Y0169893D01*
X0241235Y0169921D01*
X0241333Y0170078D02*
Y0170093D01*
X0241348Y0170121D01*
X0241362Y0170135D01*
X0241391Y0170150D01*
X0241448D01*
X0241476Y0170135D01*
X0241490Y0170121D01*
X0241505Y0170093D01*
Y0170064D01*
X0241490Y0170035D01*
X0241462Y0169993D01*
X0241319Y0169850D01*
X0241519D01*
X0241758Y0170150D02*
X0241615D01*
X0241600Y0170021D01*
X0241615Y0170035D01*
X0241658Y0170050D01*
X0241700D01*
X0241743Y0170035D01*
X0241772Y0170007D01*
X0241786Y0169964D01*
Y0169935D01*
X0241772Y0169893D01*
X0241743Y0169864D01*
X0241700Y0169850D01*
X0241658D01*
X0241615Y0169864D01*
X0241600Y0169878D01*
X0241586Y0169907D01*
X0191465Y0161641D02*
Y0161341D01*
Y0161641D02*
X0191594D01*
X0191637Y0161626D01*
X0191651Y0161612D01*
X0191665Y0161584D01*
Y0161555D01*
X0191651Y0161526D01*
X0191637Y0161512D01*
X0191594Y0161498D01*
X0191465D01*
X0191565D02*
X0191665Y0161341D01*
X0191732Y0161584D02*
X0191761Y0161598D01*
X0191804Y0161641D01*
Y0161341D01*
X0192124Y0161598D02*
X0192109Y0161626D01*
X0192066Y0161641D01*
X0192038D01*
X0191995Y0161626D01*
X0191967Y0161584D01*
X0191952Y0161512D01*
Y0161441D01*
X0191967Y0161384D01*
X0191995Y0161355D01*
X0192038Y0161341D01*
X0192052D01*
X0192095Y0161355D01*
X0192124Y0161384D01*
X0192138Y0161426D01*
Y0161441D01*
X0192124Y0161484D01*
X0192095Y0161512D01*
X0192052Y0161526D01*
X0192038D01*
X0191995Y0161512D01*
X0191967Y0161484D01*
X0191952Y0161441D01*
X0195656Y0168651D02*
Y0168351D01*
Y0168651D02*
X0195785D01*
X0195828Y0168637D01*
X0195842Y0168623D01*
X0195856Y0168594D01*
Y0168565D01*
X0195842Y0168537D01*
X0195828Y0168523D01*
X0195785Y0168508D01*
X0195656D01*
X0195756D02*
X0195856Y0168351D01*
X0195923Y0168594D02*
X0195952Y0168608D01*
X0195995Y0168651D01*
Y0168351D01*
X0196329Y0168551D02*
X0196315Y0168508D01*
X0196286Y0168480D01*
X0196243Y0168465D01*
X0196229D01*
X0196186Y0168480D01*
X0196158Y0168508D01*
X0196143Y0168551D01*
Y0168565D01*
X0196158Y0168608D01*
X0196186Y0168637D01*
X0196229Y0168651D01*
X0196243D01*
X0196286Y0168637D01*
X0196315Y0168608D01*
X0196329Y0168551D01*
Y0168480D01*
X0196315Y0168408D01*
X0196286Y0168365D01*
X0196243Y0168351D01*
X0196215D01*
X0196172Y0168365D01*
X0196158Y0168394D01*
X0212450Y0163271D02*
X0212750D01*
X0212450D02*
Y0163400D01*
X0212465Y0163443D01*
X0212479Y0163457D01*
X0212508Y0163471D01*
X0212536D01*
X0212565Y0163457D01*
X0212579Y0163443D01*
X0212593Y0163400D01*
Y0163271D01*
Y0163371D02*
X0212750Y0163471D01*
X0212450Y0163567D02*
Y0163724D01*
X0212565Y0163638D01*
Y0163681D01*
X0212579Y0163710D01*
X0212593Y0163724D01*
X0212636Y0163738D01*
X0212665D01*
X0212708Y0163724D01*
X0212736Y0163695D01*
X0212750Y0163653D01*
Y0163610D01*
X0212736Y0163567D01*
X0212722Y0163553D01*
X0212693Y0163538D01*
X0211760Y0169642D02*
Y0169342D01*
Y0169642D02*
X0211888D01*
X0211931Y0169627D01*
X0211945Y0169613D01*
X0211960Y0169585D01*
Y0169556D01*
X0211945Y0169527D01*
X0211931Y0169513D01*
X0211888Y0169499D01*
X0211760D01*
X0211860D02*
X0211960Y0169342D01*
X0212170Y0169642D02*
X0212027Y0169442D01*
X0212241D01*
X0212170Y0169642D02*
Y0169342D01*
X0201960Y0156667D02*
X0202260D01*
X0201960D02*
Y0156796D01*
X0201975Y0156839D01*
X0201989Y0156853D01*
X0202017Y0156867D01*
X0202046D01*
X0202075Y0156853D01*
X0202089Y0156839D01*
X0202103Y0156796D01*
Y0156667D01*
Y0156767D02*
X0202260Y0156867D01*
X0202017Y0156934D02*
X0202003Y0156963D01*
X0201960Y0157006D01*
X0202260D01*
X0201960Y0157326D02*
Y0157183D01*
X0202089Y0157169D01*
X0202075Y0157183D01*
X0202060Y0157226D01*
Y0157268D01*
X0202075Y0157311D01*
X0202103Y0157340D01*
X0202146Y0157354D01*
X0202175D01*
X0202217Y0157340D01*
X0202246Y0157311D01*
X0202260Y0157268D01*
Y0157226D01*
X0202246Y0157183D01*
X0202232Y0157169D01*
X0202203Y0157154D01*
X0207823Y0157145D02*
Y0156845D01*
Y0157145D02*
X0207951D01*
X0207994Y0157131D01*
X0208008Y0157116D01*
X0208023Y0157088D01*
Y0157059D01*
X0208008Y0157031D01*
X0207994Y0157016D01*
X0207951Y0157002D01*
X0207823D01*
X0207923D02*
X0208023Y0156845D01*
X0208090Y0157088D02*
X0208118Y0157102D01*
X0208161Y0157145D01*
Y0156845D01*
X0195758Y0165451D02*
Y0165151D01*
Y0165451D02*
X0195886D01*
X0195929Y0165436D01*
X0195943Y0165422D01*
X0195958Y0165394D01*
Y0165365D01*
X0195943Y0165336D01*
X0195929Y0165322D01*
X0195886Y0165308D01*
X0195758D01*
X0195858D02*
X0195958Y0165151D01*
X0196196Y0165451D02*
X0196053D01*
X0196039Y0165322D01*
X0196053Y0165336D01*
X0196096Y0165351D01*
X0196139D01*
X0196182Y0165336D01*
X0196211Y0165308D01*
X0196225Y0165265D01*
Y0165236D01*
X0196211Y0165194D01*
X0196182Y0165165D01*
X0196139Y0165151D01*
X0196096D01*
X0196053Y0165165D01*
X0196039Y0165179D01*
X0196025Y0165208D01*
X0214960Y0161844D02*
Y0161544D01*
Y0161844D02*
X0215089D01*
X0215132Y0161830D01*
X0215146Y0161815D01*
X0215160Y0161787D01*
Y0161758D01*
X0215146Y0161730D01*
X0215132Y0161715D01*
X0215089Y0161701D01*
X0214960D01*
X0215060D02*
X0215160Y0161544D01*
X0215299Y0161844D02*
X0215256Y0161830D01*
X0215242Y0161801D01*
Y0161773D01*
X0215256Y0161744D01*
X0215284Y0161730D01*
X0215342Y0161715D01*
X0215384Y0161701D01*
X0215413Y0161673D01*
X0215427Y0161644D01*
Y0161601D01*
X0215413Y0161573D01*
X0215399Y0161558D01*
X0215356Y0161544D01*
X0215299D01*
X0215256Y0161558D01*
X0215242Y0161573D01*
X0215227Y0161601D01*
Y0161644D01*
X0215242Y0161673D01*
X0215270Y0161701D01*
X0215313Y0161715D01*
X0215370Y0161730D01*
X0215399Y0161744D01*
X0215413Y0161773D01*
Y0161801D01*
X0215399Y0161830D01*
X0215356Y0161844D01*
X0215299D01*
X0185928Y0162850D02*
X0185900Y0162836D01*
X0185871Y0162808D01*
X0185857Y0162779D01*
Y0162722D01*
X0185871Y0162693D01*
X0185900Y0162665D01*
X0185928Y0162650D01*
X0185971Y0162636D01*
X0186042D01*
X0186085Y0162650D01*
X0186114Y0162665D01*
X0186142Y0162693D01*
X0186157Y0162722D01*
Y0162779D01*
X0186142Y0162808D01*
X0186114Y0162836D01*
X0186085Y0162850D01*
X0185857Y0163078D02*
X0186057Y0162935D01*
Y0163149D01*
X0185857Y0163078D02*
X0186157D01*
X0185900Y0163373D02*
X0185871Y0163359D01*
X0185857Y0163316D01*
Y0163287D01*
X0185871Y0163245D01*
X0185914Y0163216D01*
X0185985Y0163202D01*
X0186057D01*
X0186114Y0163216D01*
X0186142Y0163245D01*
X0186157Y0163287D01*
Y0163302D01*
X0186142Y0163345D01*
X0186114Y0163373D01*
X0186071Y0163387D01*
X0186057D01*
X0186014Y0163373D01*
X0185985Y0163345D01*
X0185971Y0163302D01*
Y0163287D01*
X0185985Y0163245D01*
X0186014Y0163216D01*
X0186057Y0163202D01*
X0189713Y0167473D02*
X0189684Y0167459D01*
X0189656Y0167430D01*
X0189641Y0167402D01*
Y0167345D01*
X0189656Y0167316D01*
X0189684Y0167288D01*
X0189713Y0167273D01*
X0189756Y0167259D01*
X0189827D01*
X0189870Y0167273D01*
X0189898Y0167288D01*
X0189927Y0167316D01*
X0189941Y0167345D01*
Y0167402D01*
X0189927Y0167430D01*
X0189898Y0167459D01*
X0189870Y0167473D01*
X0189641Y0167586D02*
Y0167743D01*
X0189756Y0167657D01*
Y0167700D01*
X0189770Y0167729D01*
X0189784Y0167743D01*
X0189827Y0167757D01*
X0189856D01*
X0189898Y0167743D01*
X0189927Y0167715D01*
X0189941Y0167672D01*
Y0167629D01*
X0189927Y0167586D01*
X0189913Y0167572D01*
X0189884Y0167558D01*
X0235926Y0168783D02*
X0235912Y0168811D01*
X0235883Y0168840D01*
X0235855Y0168854D01*
X0235798D01*
X0235769Y0168840D01*
X0235741Y0168811D01*
X0235726Y0168783D01*
X0235712Y0168740D01*
Y0168669D01*
X0235726Y0168626D01*
X0235741Y0168597D01*
X0235769Y0168569D01*
X0235798Y0168554D01*
X0235855D01*
X0235883Y0168569D01*
X0235912Y0168597D01*
X0235926Y0168626D01*
X0236039Y0168854D02*
X0236196D01*
X0236110Y0168740D01*
X0236153D01*
X0236182Y0168726D01*
X0236196Y0168712D01*
X0236210Y0168669D01*
Y0168640D01*
X0236196Y0168597D01*
X0236168Y0168569D01*
X0236125Y0168554D01*
X0236082D01*
X0236039Y0168569D01*
X0236025Y0168583D01*
X0236011Y0168612D01*
X0236463Y0168754D02*
X0236449Y0168712D01*
X0236420Y0168683D01*
X0236378Y0168669D01*
X0236363D01*
X0236320Y0168683D01*
X0236292Y0168712D01*
X0236278Y0168754D01*
Y0168769D01*
X0236292Y0168811D01*
X0236320Y0168840D01*
X0236363Y0168854D01*
X0236378D01*
X0236420Y0168840D01*
X0236449Y0168811D01*
X0236463Y0168754D01*
Y0168683D01*
X0236449Y0168612D01*
X0236420Y0168569D01*
X0236378Y0168554D01*
X0236349D01*
X0236306Y0168569D01*
X0236292Y0168597D01*
X0246329Y0158837D02*
X0246301Y0158823D01*
X0246272Y0158794D01*
X0246258Y0158766D01*
Y0158709D01*
X0246272Y0158680D01*
X0246301Y0158652D01*
X0246329Y0158637D01*
X0246372Y0158623D01*
X0246444D01*
X0246486Y0158637D01*
X0246515Y0158652D01*
X0246544Y0158680D01*
X0246558Y0158709D01*
Y0158766D01*
X0246544Y0158794D01*
X0246515Y0158823D01*
X0246486Y0158837D01*
X0246329Y0158936D02*
X0246315D01*
X0246286Y0158950D01*
X0246272Y0158964D01*
X0246258Y0158993D01*
Y0159050D01*
X0246272Y0159079D01*
X0246286Y0159093D01*
X0246315Y0159107D01*
X0246344D01*
X0246372Y0159093D01*
X0246415Y0159064D01*
X0246558Y0158922D01*
Y0159121D01*
X0246258Y0159217D02*
Y0159374D01*
X0246372Y0159289D01*
Y0159331D01*
X0246386Y0159360D01*
X0246401Y0159374D01*
X0246444Y0159389D01*
X0246472D01*
X0246515Y0159374D01*
X0246544Y0159346D01*
X0246558Y0159303D01*
Y0159260D01*
X0246544Y0159217D01*
X0246529Y0159203D01*
X0246501Y0159189D01*
X0244232Y0171679D02*
X0244218Y0171707D01*
X0244189Y0171736D01*
X0244161Y0171750D01*
X0244103D01*
X0244075Y0171736D01*
X0244046Y0171707D01*
X0244032Y0171679D01*
X0244018Y0171636D01*
Y0171564D01*
X0244032Y0171521D01*
X0244046Y0171493D01*
X0244075Y0171464D01*
X0244103Y0171450D01*
X0244161D01*
X0244189Y0171464D01*
X0244218Y0171493D01*
X0244232Y0171521D01*
X0244331Y0171679D02*
Y0171693D01*
X0244345Y0171721D01*
X0244359Y0171736D01*
X0244388Y0171750D01*
X0244445D01*
X0244473Y0171736D01*
X0244488Y0171721D01*
X0244502Y0171693D01*
Y0171664D01*
X0244488Y0171636D01*
X0244459Y0171593D01*
X0244316Y0171450D01*
X0244516D01*
X0244598Y0171679D02*
Y0171693D01*
X0244612Y0171721D01*
X0244626Y0171736D01*
X0244655Y0171750D01*
X0244712D01*
X0244740Y0171736D01*
X0244755Y0171721D01*
X0244769Y0171693D01*
Y0171664D01*
X0244755Y0171636D01*
X0244726Y0171593D01*
X0244583Y0171450D01*
X0244783D01*
X0203632Y0172858D02*
X0203603Y0172844D01*
X0203575Y0172815D01*
X0203560Y0172787D01*
Y0172729D01*
X0203575Y0172701D01*
X0203603Y0172672D01*
X0203632Y0172658D01*
X0203675Y0172644D01*
X0203746D01*
X0203789Y0172658D01*
X0203818Y0172672D01*
X0203846Y0172701D01*
X0203860Y0172729D01*
Y0172787D01*
X0203846Y0172815D01*
X0203818Y0172844D01*
X0203789Y0172858D01*
X0203618Y0172942D02*
X0203603Y0172971D01*
X0203560Y0173014D01*
X0203860D01*
X0203560Y0173334D02*
Y0173191D01*
X0203689Y0173177D01*
X0203675Y0173191D01*
X0203660Y0173234D01*
Y0173277D01*
X0203675Y0173319D01*
X0203703Y0173348D01*
X0203746Y0173362D01*
X0203775D01*
X0203818Y0173348D01*
X0203846Y0173319D01*
X0203860Y0173277D01*
Y0173234D01*
X0203846Y0173191D01*
X0203832Y0173177D01*
X0203803Y0173162D01*
X0195972Y0166548D02*
X0195958Y0166576D01*
X0195929Y0166605D01*
X0195901Y0166619D01*
X0195843D01*
X0195815Y0166605D01*
X0195786Y0166576D01*
X0195772Y0166548D01*
X0195758Y0166505D01*
Y0166433D01*
X0195772Y0166391D01*
X0195786Y0166362D01*
X0195815Y0166333D01*
X0195843Y0166319D01*
X0195901D01*
X0195929Y0166333D01*
X0195958Y0166362D01*
X0195972Y0166391D01*
X0196242Y0166519D02*
X0196228Y0166476D01*
X0196199Y0166448D01*
X0196156Y0166433D01*
X0196142D01*
X0196099Y0166448D01*
X0196071Y0166476D01*
X0196056Y0166519D01*
Y0166533D01*
X0196071Y0166576D01*
X0196099Y0166605D01*
X0196142Y0166619D01*
X0196156D01*
X0196199Y0166605D01*
X0196228Y0166576D01*
X0196242Y0166519D01*
Y0166448D01*
X0196228Y0166376D01*
X0196199Y0166333D01*
X0196156Y0166319D01*
X0196128D01*
X0196085Y0166333D01*
X0196071Y0166362D01*
X0186371Y0167183D02*
X0186357Y0167211D01*
X0186328Y0167240D01*
X0186299Y0167254D01*
X0186242D01*
X0186214Y0167240D01*
X0186185Y0167211D01*
X0186171Y0167183D01*
X0186157Y0167140D01*
Y0167068D01*
X0186171Y0167026D01*
X0186185Y0166997D01*
X0186214Y0166968D01*
X0186242Y0166954D01*
X0186299D01*
X0186328Y0166968D01*
X0186357Y0166997D01*
X0186371Y0167026D01*
X0186469Y0167183D02*
Y0167197D01*
X0186484Y0167226D01*
X0186498Y0167240D01*
X0186527Y0167254D01*
X0186584D01*
X0186612Y0167240D01*
X0186626Y0167226D01*
X0186641Y0167197D01*
Y0167168D01*
X0186626Y0167140D01*
X0186598Y0167097D01*
X0186455Y0166954D01*
X0186655D01*
X0211455Y0163536D02*
X0211427Y0163522D01*
X0211398Y0163493D01*
X0211384Y0163465D01*
Y0163408D01*
X0211398Y0163379D01*
X0211427Y0163351D01*
X0211455Y0163336D01*
X0211498Y0163322D01*
X0211569D01*
X0211612Y0163336D01*
X0211641Y0163351D01*
X0211669Y0163379D01*
X0211684Y0163408D01*
Y0163465D01*
X0211669Y0163493D01*
X0211641Y0163522D01*
X0211612Y0163536D01*
X0211441Y0163621D02*
X0211427Y0163649D01*
X0211384Y0163692D01*
X0211684D01*
X0185964Y0159588D02*
X0185950Y0159617D01*
X0185922Y0159645D01*
X0185893Y0159660D01*
X0185836D01*
X0185807Y0159645D01*
X0185779Y0159617D01*
X0185764Y0159588D01*
X0185750Y0159545D01*
Y0159474D01*
X0185764Y0159431D01*
X0185779Y0159402D01*
X0185807Y0159374D01*
X0185836Y0159360D01*
X0185893D01*
X0185922Y0159374D01*
X0185950Y0159402D01*
X0185964Y0159431D01*
X0186192Y0159660D02*
X0186049Y0159460D01*
X0186263D01*
X0186192Y0159660D02*
Y0159360D01*
X0211949Y0162077D02*
X0211934Y0162106D01*
X0211906Y0162134D01*
X0211877Y0162149D01*
X0211820D01*
X0211792Y0162134D01*
X0211763Y0162106D01*
X0211749Y0162077D01*
X0211734Y0162034D01*
Y0161963D01*
X0211749Y0161920D01*
X0211763Y0161892D01*
X0211792Y0161863D01*
X0211820Y0161849D01*
X0211877D01*
X0211906Y0161863D01*
X0211934Y0161892D01*
X0211949Y0161920D01*
X0212033Y0162092D02*
X0212061Y0162106D01*
X0212104Y0162149D01*
Y0161849D01*
X0212281Y0162149D02*
X0212439D01*
X0212353Y0162034D01*
X0212396D01*
X0212424Y0162020D01*
X0212439Y0162006D01*
X0212453Y0161963D01*
Y0161934D01*
X0212439Y0161892D01*
X0212410Y0161863D01*
X0212367Y0161849D01*
X0212324D01*
X0212281Y0161863D01*
X0212267Y0161877D01*
X0212253Y0161906D01*
X0211847Y0166268D02*
X0211833Y0166297D01*
X0211804Y0166325D01*
X0211776Y0166340D01*
X0211718D01*
X0211690Y0166325D01*
X0211661Y0166297D01*
X0211647Y0166268D01*
X0211633Y0166225D01*
Y0166154D01*
X0211647Y0166111D01*
X0211661Y0166083D01*
X0211690Y0166054D01*
X0211718Y0166040D01*
X0211776D01*
X0211804Y0166054D01*
X0211833Y0166083D01*
X0211847Y0166111D01*
X0211931Y0166283D02*
X0211960Y0166297D01*
X0212003Y0166340D01*
Y0166040D01*
X0212166Y0166268D02*
Y0166283D01*
X0212180Y0166311D01*
X0212194Y0166325D01*
X0212223Y0166340D01*
X0212280D01*
X0212308Y0166325D01*
X0212323Y0166311D01*
X0212337Y0166283D01*
Y0166254D01*
X0212323Y0166225D01*
X0212294Y0166183D01*
X0212151Y0166040D01*
X0212351D01*
X0203733Y0156907D02*
X0203705Y0156893D01*
X0203676Y0156864D01*
X0203662Y0156835D01*
Y0156778D01*
X0203676Y0156750D01*
X0203705Y0156721D01*
X0203733Y0156707D01*
X0203776Y0156693D01*
X0203848D01*
X0203891Y0156707D01*
X0203919Y0156721D01*
X0203948Y0156750D01*
X0203962Y0156778D01*
Y0156835D01*
X0203948Y0156864D01*
X0203919Y0156893D01*
X0203891Y0156907D01*
X0203719Y0156991D02*
X0203705Y0157020D01*
X0203662Y0157063D01*
X0203962D01*
X0203719Y0157211D02*
X0203705Y0157240D01*
X0203662Y0157282D01*
X0203962D01*
X0195845Y0167589D02*
X0195831Y0167618D01*
X0195802Y0167646D01*
X0195774Y0167661D01*
X0195716D01*
X0195688Y0167646D01*
X0195659Y0167618D01*
X0195645Y0167589D01*
X0195631Y0167546D01*
Y0167475D01*
X0195645Y0167432D01*
X0195659Y0167403D01*
X0195688Y0167375D01*
X0195716Y0167361D01*
X0195774D01*
X0195802Y0167375D01*
X0195831Y0167403D01*
X0195845Y0167432D01*
X0195929Y0167603D02*
X0195958Y0167618D01*
X0196001Y0167661D01*
Y0167361D01*
X0196235Y0167661D02*
X0196192Y0167646D01*
X0196164Y0167603D01*
X0196149Y0167532D01*
Y0167489D01*
X0196164Y0167418D01*
X0196192Y0167375D01*
X0196235Y0167361D01*
X0196264D01*
X0196306Y0167375D01*
X0196335Y0167418D01*
X0196349Y0167489D01*
Y0167532D01*
X0196335Y0167603D01*
X0196306Y0167646D01*
X0196264Y0167661D01*
X0196235D01*
X0206529Y0172960D02*
X0206501Y0172945D01*
X0206472Y0172917D01*
X0206458Y0172888D01*
Y0172831D01*
X0206472Y0172803D01*
X0206501Y0172774D01*
X0206529Y0172760D01*
X0206572Y0172745D01*
X0206643D01*
X0206686Y0172760D01*
X0206715Y0172774D01*
X0206743Y0172803D01*
X0206758Y0172831D01*
Y0172888D01*
X0206743Y0172917D01*
X0206715Y0172945D01*
X0206686Y0172960D01*
X0206458Y0173115D02*
X0206472Y0173072D01*
X0206501Y0173058D01*
X0206529D01*
X0206558Y0173072D01*
X0206572Y0173101D01*
X0206586Y0173158D01*
X0206600Y0173201D01*
X0206629Y0173230D01*
X0206658Y0173244D01*
X0206700D01*
X0206729Y0173230D01*
X0206743Y0173215D01*
X0206758Y0173172D01*
Y0173115D01*
X0206743Y0173072D01*
X0206729Y0173058D01*
X0206700Y0173044D01*
X0206658D01*
X0206629Y0173058D01*
X0206600Y0173087D01*
X0206586Y0173130D01*
X0206572Y0173187D01*
X0206558Y0173215D01*
X0206529Y0173230D01*
X0206501D01*
X0206472Y0173215D01*
X0206458Y0173172D01*
Y0173115D01*
X0205613Y0156958D02*
X0205585Y0156943D01*
X0205556Y0156915D01*
X0205542Y0156886D01*
Y0156829D01*
X0205556Y0156801D01*
X0205585Y0156772D01*
X0205613Y0156758D01*
X0205656Y0156743D01*
X0205727D01*
X0205770Y0156758D01*
X0205799Y0156772D01*
X0205827Y0156801D01*
X0205842Y0156829D01*
Y0156886D01*
X0205827Y0156915D01*
X0205799Y0156943D01*
X0205770Y0156958D01*
X0205542Y0157242D02*
X0205842Y0157099D01*
X0205542Y0157042D02*
Y0157242D01*
X0200609Y0156983D02*
X0200581Y0156969D01*
X0200552Y0156940D01*
X0200538Y0156912D01*
Y0156854D01*
X0200552Y0156826D01*
X0200581Y0156797D01*
X0200609Y0156783D01*
X0200652Y0156769D01*
X0200724D01*
X0200766Y0156783D01*
X0200795Y0156797D01*
X0200824Y0156826D01*
X0200838Y0156854D01*
Y0156912D01*
X0200824Y0156940D01*
X0200795Y0156969D01*
X0200766Y0156983D01*
X0200581Y0157239D02*
X0200552Y0157224D01*
X0200538Y0157182D01*
Y0157153D01*
X0200552Y0157110D01*
X0200595Y0157082D01*
X0200666Y0157067D01*
X0200738D01*
X0200795Y0157082D01*
X0200824Y0157110D01*
X0200838Y0157153D01*
Y0157167D01*
X0200824Y0157210D01*
X0200795Y0157239D01*
X0200752Y0157253D01*
X0200738D01*
X0200695Y0157239D01*
X0200666Y0157210D01*
X0200652Y0157167D01*
Y0157153D01*
X0200666Y0157110D01*
X0200695Y0157082D01*
X0200738Y0157067D01*
X0201524Y0172960D02*
X0201495Y0172945D01*
X0201467Y0172917D01*
X0201452Y0172888D01*
Y0172831D01*
X0201467Y0172803D01*
X0201495Y0172774D01*
X0201524Y0172760D01*
X0201567Y0172745D01*
X0201638D01*
X0201681Y0172760D01*
X0201709Y0172774D01*
X0201738Y0172803D01*
X0201752Y0172831D01*
Y0172888D01*
X0201738Y0172917D01*
X0201709Y0172945D01*
X0201681Y0172960D01*
X0201452Y0173215D02*
Y0173072D01*
X0201581Y0173058D01*
X0201567Y0173072D01*
X0201552Y0173115D01*
Y0173158D01*
X0201567Y0173201D01*
X0201595Y0173230D01*
X0201638Y0173244D01*
X0201667D01*
X0201709Y0173230D01*
X0201738Y0173201D01*
X0201752Y0173158D01*
Y0173115D01*
X0201738Y0173072D01*
X0201724Y0173058D01*
X0201695Y0173044D01*
X0195845Y0161773D02*
X0195831Y0161801D01*
X0195802Y0161830D01*
X0195774Y0161844D01*
X0195716D01*
X0195688Y0161830D01*
X0195659Y0161801D01*
X0195645Y0161773D01*
X0195631Y0161730D01*
Y0161658D01*
X0195645Y0161615D01*
X0195659Y0161587D01*
X0195688Y0161558D01*
X0195716Y0161544D01*
X0195774D01*
X0195802Y0161558D01*
X0195831Y0161587D01*
X0195845Y0161615D01*
X0195929Y0161787D02*
X0195958Y0161801D01*
X0196001Y0161844D01*
Y0161544D01*
X0196292Y0161844D02*
X0196149Y0161644D01*
X0196363D01*
X0196292Y0161844D02*
Y0161544D01*
X0217729Y0163943D02*
X0217700Y0163928D01*
X0217672Y0163900D01*
X0217657Y0163871D01*
Y0163814D01*
X0217672Y0163786D01*
X0217700Y0163757D01*
X0217729Y0163743D01*
X0217772Y0163728D01*
X0217843D01*
X0217886Y0163743D01*
X0217915Y0163757D01*
X0217943Y0163786D01*
X0217957Y0163814D01*
Y0163871D01*
X0217943Y0163900D01*
X0217915Y0163928D01*
X0217886Y0163943D01*
X0217715Y0164027D02*
X0217700Y0164055D01*
X0217657Y0164098D01*
X0217957D01*
X0217657Y0164447D02*
X0217957Y0164304D01*
X0217657Y0164247D02*
Y0164447D01*
X0217054Y0161773D02*
X0217040Y0161801D01*
X0217011Y0161830D01*
X0216983Y0161844D01*
X0216925D01*
X0216897Y0161830D01*
X0216868Y0161801D01*
X0216854Y0161773D01*
X0216840Y0161730D01*
Y0161658D01*
X0216854Y0161615D01*
X0216868Y0161587D01*
X0216897Y0161558D01*
X0216925Y0161544D01*
X0216983D01*
X0217011Y0161558D01*
X0217040Y0161587D01*
X0217054Y0161615D01*
X0217138Y0161787D02*
X0217167Y0161801D01*
X0217210Y0161844D01*
Y0161544D01*
X0217544Y0161744D02*
X0217530Y0161701D01*
X0217501Y0161673D01*
X0217458Y0161658D01*
X0217444D01*
X0217401Y0161673D01*
X0217373Y0161701D01*
X0217358Y0161744D01*
Y0161758D01*
X0217373Y0161801D01*
X0217401Y0161830D01*
X0217444Y0161844D01*
X0217458D01*
X0217501Y0161830D01*
X0217530Y0161801D01*
X0217544Y0161744D01*
Y0161673D01*
X0217530Y0161601D01*
X0217501Y0161558D01*
X0217458Y0161544D01*
X0217430D01*
X0217387Y0161558D01*
X0217373Y0161587D01*
X0195783Y0157653D02*
Y0157353D01*
Y0157653D02*
X0195912D01*
X0195955Y0157639D01*
X0195969Y0157624D01*
X0195983Y0157596D01*
Y0157567D01*
X0195969Y0157539D01*
X0195955Y0157524D01*
X0195912Y0157510D01*
X0195783D01*
X0195883D02*
X0195983Y0157353D01*
X0196222Y0157610D02*
X0196207Y0157639D01*
X0196165Y0157653D01*
X0196136D01*
X0196093Y0157639D01*
X0196065Y0157596D01*
X0196050Y0157524D01*
Y0157453D01*
X0196065Y0157396D01*
X0196093Y0157367D01*
X0196136Y0157353D01*
X0196150D01*
X0196193Y0157367D01*
X0196222Y0157396D01*
X0196236Y0157439D01*
Y0157453D01*
X0196222Y0157496D01*
X0196193Y0157524D01*
X0196150Y0157539D01*
X0196136D01*
X0196093Y0157524D01*
X0196065Y0157496D01*
X0196050Y0157453D01*
X0195758Y0160142D02*
Y0159842D01*
Y0160142D02*
X0195886D01*
X0195929Y0160128D01*
X0195943Y0160114D01*
X0195958Y0160085D01*
Y0160056D01*
X0195943Y0160028D01*
X0195929Y0160014D01*
X0195886Y0159999D01*
X0195758D01*
X0195858D02*
X0195958Y0159842D01*
X0196225Y0160142D02*
X0196082Y0159842D01*
X0196025Y0160142D02*
X0196225D01*
X0225120Y0163155D02*
X0225092Y0163141D01*
X0225063Y0163112D01*
X0225049Y0163084D01*
Y0163027D01*
X0225063Y0162998D01*
X0225092Y0162970D01*
X0225120Y0162955D01*
X0225163Y0162941D01*
X0225235D01*
X0225277Y0162955D01*
X0225306Y0162970D01*
X0225335Y0162998D01*
X0225349Y0163027D01*
Y0163084D01*
X0225335Y0163112D01*
X0225306Y0163141D01*
X0225277Y0163155D01*
X0225106Y0163240D02*
X0225092Y0163268D01*
X0225049Y0163311D01*
X0225349D01*
X0225049Y0163531D02*
X0225063Y0163488D01*
X0225092Y0163474D01*
X0225120D01*
X0225149Y0163488D01*
X0225163Y0163517D01*
X0225177Y0163574D01*
X0225192Y0163617D01*
X0225220Y0163645D01*
X0225249Y0163659D01*
X0225292D01*
X0225320Y0163645D01*
X0225335Y0163631D01*
X0225349Y0163588D01*
Y0163531D01*
X0225335Y0163488D01*
X0225320Y0163474D01*
X0225292Y0163459D01*
X0225249D01*
X0225220Y0163474D01*
X0225192Y0163502D01*
X0225177Y0163545D01*
X0225163Y0163602D01*
X0225149Y0163631D01*
X0225120Y0163645D01*
X0225092D01*
X0225063Y0163631D01*
X0225049Y0163588D01*
Y0163531D01*
X0226924Y0170597D02*
X0226895Y0170583D01*
X0226867Y0170555D01*
X0226852Y0170526D01*
Y0170469D01*
X0226867Y0170440D01*
X0226895Y0170412D01*
X0226924Y0170397D01*
X0226967Y0170383D01*
X0227038D01*
X0227081Y0170397D01*
X0227109Y0170412D01*
X0227138Y0170440D01*
X0227152Y0170469D01*
Y0170526D01*
X0227138Y0170555D01*
X0227109Y0170583D01*
X0227081Y0170597D01*
X0226852Y0170710D02*
Y0170867D01*
X0226967Y0170782D01*
Y0170825D01*
X0226981Y0170853D01*
X0226995Y0170867D01*
X0227038Y0170882D01*
X0227067D01*
X0227109Y0170867D01*
X0227138Y0170839D01*
X0227152Y0170796D01*
Y0170753D01*
X0227138Y0170710D01*
X0227124Y0170696D01*
X0227095Y0170682D01*
X0226909Y0170949D02*
X0226895Y0170977D01*
X0226852Y0171020D01*
X0227152D01*
X0193229Y0167970D02*
X0193215Y0167999D01*
X0193186Y0168027D01*
X0193157Y0168042D01*
X0193100D01*
X0193072Y0168027D01*
X0193043Y0167999D01*
X0193029Y0167970D01*
X0193015Y0167927D01*
Y0167856D01*
X0193029Y0167813D01*
X0193043Y0167784D01*
X0193072Y0167756D01*
X0193100Y0167742D01*
X0193157D01*
X0193186Y0167756D01*
X0193215Y0167784D01*
X0193229Y0167813D01*
X0193456Y0168042D02*
X0193313Y0167842D01*
X0193527D01*
X0193456Y0168042D02*
Y0167742D01*
X0193723Y0168042D02*
X0193580Y0167842D01*
X0193794D01*
X0193723Y0168042D02*
Y0167742D01*
X0193065Y0169058D02*
Y0168758D01*
Y0169058D02*
X0193194D01*
X0193237Y0169043D01*
X0193251Y0169029D01*
X0193265Y0169000D01*
Y0168972D01*
X0193251Y0168943D01*
X0193237Y0168929D01*
X0193194Y0168915D01*
X0193065D01*
X0193165D02*
X0193265Y0168758D01*
X0193332Y0169000D02*
X0193361Y0169015D01*
X0193404Y0169058D01*
Y0168758D01*
X0193624Y0169058D02*
X0193581Y0169043D01*
X0193567Y0169015D01*
Y0168986D01*
X0193581Y0168958D01*
X0193610Y0168943D01*
X0193667Y0168929D01*
X0193710Y0168915D01*
X0193738Y0168886D01*
X0193752Y0168858D01*
Y0168815D01*
X0193738Y0168786D01*
X0193724Y0168772D01*
X0193681Y0168758D01*
X0193624D01*
X0193581Y0168772D01*
X0193567Y0168786D01*
X0193552Y0168815D01*
Y0168858D01*
X0193567Y0168886D01*
X0193595Y0168915D01*
X0193638Y0168929D01*
X0193695Y0168943D01*
X0193724Y0168958D01*
X0193738Y0168986D01*
Y0169015D01*
X0193724Y0169043D01*
X0193681Y0169058D01*
X0193624D01*
X0191186D02*
Y0168758D01*
Y0169058D02*
X0191314D01*
X0191357Y0169043D01*
X0191371Y0169029D01*
X0191386Y0169000D01*
Y0168972D01*
X0191371Y0168943D01*
X0191357Y0168929D01*
X0191314Y0168915D01*
X0191186D01*
X0191286D02*
X0191386Y0168758D01*
X0191467Y0168986D02*
Y0169000D01*
X0191481Y0169029D01*
X0191496Y0169043D01*
X0191524Y0169058D01*
X0191581D01*
X0191610Y0169043D01*
X0191624Y0169029D01*
X0191639Y0169000D01*
Y0168972D01*
X0191624Y0168943D01*
X0191596Y0168900D01*
X0191453Y0168758D01*
X0191653D01*
X0191720Y0169000D02*
X0191749Y0169015D01*
X0191791Y0169058D01*
Y0168758D01*
X0191465Y0163647D02*
Y0163347D01*
Y0163647D02*
X0191594D01*
X0191637Y0163633D01*
X0191651Y0163619D01*
X0191665Y0163590D01*
Y0163562D01*
X0191651Y0163533D01*
X0191637Y0163519D01*
X0191594Y0163505D01*
X0191465D01*
X0191565D02*
X0191665Y0163347D01*
X0191732Y0163590D02*
X0191761Y0163604D01*
X0191804Y0163647D01*
Y0163347D01*
X0192152Y0163647D02*
X0192009Y0163347D01*
X0191952Y0163647D02*
X0192152D01*
X0191440Y0162657D02*
Y0162357D01*
Y0162657D02*
X0191568D01*
X0191611Y0162642D01*
X0191625Y0162628D01*
X0191640Y0162600D01*
Y0162571D01*
X0191625Y0162542D01*
X0191611Y0162528D01*
X0191568Y0162514D01*
X0191440D01*
X0191540D02*
X0191640Y0162357D01*
X0191721Y0162585D02*
Y0162600D01*
X0191735Y0162628D01*
X0191750Y0162642D01*
X0191778Y0162657D01*
X0191835D01*
X0191864Y0162642D01*
X0191878Y0162628D01*
X0191893Y0162600D01*
Y0162571D01*
X0191878Y0162542D01*
X0191850Y0162500D01*
X0191707Y0162357D01*
X0191907D01*
X0192060Y0162657D02*
X0192017Y0162642D01*
X0191988Y0162600D01*
X0191974Y0162528D01*
Y0162485D01*
X0191988Y0162414D01*
X0192017Y0162371D01*
X0192060Y0162357D01*
X0192088D01*
X0192131Y0162371D01*
X0192160Y0162414D01*
X0192174Y0162485D01*
Y0162528D01*
X0192160Y0162600D01*
X0192131Y0162642D01*
X0192088Y0162657D01*
X0192060D01*
X0185928Y0160844D02*
X0185900Y0160830D01*
X0185871Y0160801D01*
X0185857Y0160772D01*
Y0160715D01*
X0185871Y0160687D01*
X0185900Y0160658D01*
X0185928Y0160644D01*
X0185971Y0160630D01*
X0186042D01*
X0186085Y0160644D01*
X0186114Y0160658D01*
X0186142Y0160687D01*
X0186157Y0160715D01*
Y0160772D01*
X0186142Y0160801D01*
X0186114Y0160830D01*
X0186085Y0160844D01*
X0185857Y0161071D02*
X0186057Y0160928D01*
Y0161142D01*
X0185857Y0161071D02*
X0186157D01*
X0185928Y0161209D02*
X0185914D01*
X0185885Y0161224D01*
X0185871Y0161238D01*
X0185857Y0161267D01*
Y0161324D01*
X0185871Y0161352D01*
X0185885Y0161367D01*
X0185914Y0161381D01*
X0185942D01*
X0185971Y0161367D01*
X0186014Y0161338D01*
X0186157Y0161195D01*
Y0161395D01*
X0220026Y0172872D02*
X0220012Y0172901D01*
X0219983Y0172929D01*
X0219954Y0172944D01*
X0219897D01*
X0219869Y0172929D01*
X0219840Y0172901D01*
X0219826Y0172872D01*
X0219812Y0172829D01*
Y0172758D01*
X0219826Y0172715D01*
X0219840Y0172687D01*
X0219869Y0172658D01*
X0219897Y0172644D01*
X0219954D01*
X0219983Y0172658D01*
X0220012Y0172687D01*
X0220026Y0172715D01*
X0220124Y0172872D02*
Y0172887D01*
X0220139Y0172915D01*
X0220153Y0172929D01*
X0220182Y0172944D01*
X0220239D01*
X0220267Y0172929D01*
X0220281Y0172915D01*
X0220296Y0172887D01*
Y0172858D01*
X0220281Y0172829D01*
X0220253Y0172787D01*
X0220110Y0172644D01*
X0220310D01*
X0220577Y0172944D02*
X0220434Y0172644D01*
X0220377Y0172944D02*
X0220577D01*
D81*
X0220556Y0158394D02*
X0221056D01*
X0220556D02*
Y0158609D01*
X0220580Y0158680D01*
X0220604Y0158704D01*
X0220652Y0158728D01*
X0220699D01*
X0220747Y0158704D01*
X0220771Y0158680D01*
X0220794Y0158609D01*
Y0158394D01*
Y0158561D02*
X0221056Y0158728D01*
X0220675Y0158863D02*
X0220652D01*
X0220604Y0158887D01*
X0220580Y0158911D01*
X0220556Y0158959D01*
Y0159054D01*
X0220580Y0159101D01*
X0220604Y0159125D01*
X0220652Y0159149D01*
X0220699D01*
X0220747Y0159125D01*
X0220818Y0159078D01*
X0221056Y0158840D01*
Y0159173D01*
X0220675Y0159308D02*
X0220652D01*
X0220604Y0159332D01*
X0220580Y0159356D01*
X0220556Y0159404D01*
Y0159499D01*
X0220580Y0159547D01*
X0220604Y0159570D01*
X0220652Y0159594D01*
X0220699D01*
X0220747Y0159570D01*
X0220818Y0159523D01*
X0221056Y0159285D01*
Y0159618D01*
X0193116Y0157751D02*
Y0157251D01*
Y0157751D02*
X0193283D01*
X0193354Y0157727D01*
X0193402Y0157680D01*
X0193426Y0157632D01*
X0193449Y0157561D01*
Y0157442D01*
X0193426Y0157370D01*
X0193402Y0157323D01*
X0193354Y0157275D01*
X0193283Y0157251D01*
X0193116D01*
X0193609Y0157751D02*
X0193871D01*
X0193728Y0157561D01*
X0193799D01*
X0193847Y0157537D01*
X0193871Y0157513D01*
X0193895Y0157442D01*
Y0157394D01*
X0193871Y0157323D01*
X0193823Y0157275D01*
X0193752Y0157251D01*
X0193680D01*
X0193609Y0157275D01*
X0193585Y0157299D01*
X0193561Y0157347D01*
X0193116Y0160240D02*
Y0159741D01*
Y0160240D02*
X0193283D01*
X0193354Y0160217D01*
X0193402Y0160169D01*
X0193426Y0160121D01*
X0193449Y0160050D01*
Y0159931D01*
X0193426Y0159860D01*
X0193402Y0159812D01*
X0193354Y0159764D01*
X0193283Y0159741D01*
X0193116D01*
X0193585Y0160121D02*
Y0160145D01*
X0193609Y0160193D01*
X0193633Y0160217D01*
X0193680Y0160240D01*
X0193776D01*
X0193823Y0160217D01*
X0193847Y0160193D01*
X0193871Y0160145D01*
Y0160098D01*
X0193847Y0160050D01*
X0193799Y0159979D01*
X0193561Y0159741D01*
X0193895D01*
X0232748Y0158420D02*
X0233248D01*
X0232748D02*
Y0158634D01*
X0232772Y0158705D01*
X0232796Y0158729D01*
X0232844Y0158753D01*
X0232891D01*
X0232939Y0158729D01*
X0232963Y0158705D01*
X0232986Y0158634D01*
Y0158420D01*
Y0158586D02*
X0233248Y0158753D01*
X0232844Y0158865D02*
X0232820Y0158913D01*
X0232748Y0158984D01*
X0233248D01*
X0232748Y0159279D02*
Y0159541D01*
X0232939Y0159398D01*
Y0159470D01*
X0232963Y0159517D01*
X0232986Y0159541D01*
X0233058Y0159565D01*
X0233105D01*
X0233177Y0159541D01*
X0233224Y0159493D01*
X0233248Y0159422D01*
Y0159351D01*
X0233224Y0159279D01*
X0233201Y0159255D01*
X0233153Y0159232D01*
X0237244Y0158420D02*
X0237744D01*
X0237244D02*
Y0158634D01*
X0237268Y0158705D01*
X0237292Y0158729D01*
X0237339Y0158753D01*
X0237387D01*
X0237435Y0158729D01*
X0237458Y0158705D01*
X0237482Y0158634D01*
Y0158420D01*
Y0158586D02*
X0237744Y0158753D01*
X0237339Y0158865D02*
X0237316Y0158913D01*
X0237244Y0158984D01*
X0237744D01*
X0237244Y0159470D02*
X0237577Y0159232D01*
Y0159589D01*
X0237244Y0159470D02*
X0237744D01*
X0234247Y0158420D02*
X0234747D01*
X0234247D02*
Y0158634D01*
X0234271Y0158705D01*
X0234295Y0158729D01*
X0234342Y0158753D01*
X0234390D01*
X0234437Y0158729D01*
X0234461Y0158705D01*
X0234485Y0158634D01*
Y0158420D01*
Y0158586D02*
X0234747Y0158753D01*
X0234342Y0158865D02*
X0234318Y0158913D01*
X0234247Y0158984D01*
X0234747D01*
X0234366Y0159255D02*
X0234342D01*
X0234295Y0159279D01*
X0234271Y0159303D01*
X0234247Y0159351D01*
Y0159446D01*
X0234271Y0159493D01*
X0234295Y0159517D01*
X0234342Y0159541D01*
X0234390D01*
X0234437Y0159517D01*
X0234509Y0159470D01*
X0234747Y0159232D01*
Y0159565D01*
X0234247Y0170612D02*
X0234747D01*
X0234247D02*
Y0170826D01*
X0234271Y0170897D01*
X0234295Y0170921D01*
X0234342Y0170945D01*
X0234390D01*
X0234437Y0170921D01*
X0234461Y0170897D01*
X0234485Y0170826D01*
Y0170612D01*
Y0170778D02*
X0234747Y0170945D01*
X0234414Y0171366D02*
X0234485Y0171343D01*
X0234533Y0171295D01*
X0234556Y0171224D01*
Y0171200D01*
X0234533Y0171128D01*
X0234485Y0171081D01*
X0234414Y0171057D01*
X0234390D01*
X0234318Y0171081D01*
X0234271Y0171128D01*
X0234247Y0171200D01*
Y0171224D01*
X0234271Y0171295D01*
X0234318Y0171343D01*
X0234414Y0171366D01*
X0234533D01*
X0234652Y0171343D01*
X0234723Y0171295D01*
X0234747Y0171224D01*
Y0171176D01*
X0234723Y0171105D01*
X0234675Y0171081D01*
X0232748Y0170434D02*
X0233248D01*
X0232748D02*
Y0170648D01*
X0232772Y0170720D01*
X0232796Y0170743D01*
X0232844Y0170767D01*
X0232891D01*
X0232939Y0170743D01*
X0232963Y0170720D01*
X0232986Y0170648D01*
Y0170434D01*
Y0170601D02*
X0233248Y0170767D01*
X0232844Y0170879D02*
X0232820Y0170927D01*
X0232748Y0170998D01*
X0233248D01*
X0232748Y0171389D02*
X0232772Y0171317D01*
X0232844Y0171270D01*
X0232963Y0171246D01*
X0233034D01*
X0233153Y0171270D01*
X0233224Y0171317D01*
X0233248Y0171389D01*
Y0171436D01*
X0233224Y0171508D01*
X0233153Y0171555D01*
X0233034Y0171579D01*
X0232963D01*
X0232844Y0171555D01*
X0232772Y0171508D01*
X0232748Y0171436D01*
Y0171389D01*
X0194767Y0172737D02*
Y0172237D01*
X0195053D01*
X0195108Y0172642D02*
X0195155Y0172666D01*
X0195227Y0172737D01*
Y0172237D01*
X0222733Y0173042D02*
Y0172542D01*
Y0173042D02*
X0223042D01*
X0222733Y0172804D02*
X0222923D01*
X0223099Y0173042D02*
Y0172542D01*
Y0173042D02*
X0223313D01*
X0223385Y0173018D01*
X0223409Y0172994D01*
X0223432Y0172947D01*
Y0172899D01*
X0223409Y0172852D01*
X0223385Y0172828D01*
X0223313Y0172804D01*
X0223099D02*
X0223313D01*
X0223385Y0172780D01*
X0223409Y0172756D01*
X0223432Y0172709D01*
Y0172637D01*
X0223409Y0172590D01*
X0223385Y0172566D01*
X0223313Y0172542D01*
X0223099D01*
X0223568Y0172923D02*
Y0172947D01*
X0223592Y0172994D01*
X0223616Y0173018D01*
X0223663Y0173042D01*
X0223759D01*
X0223806Y0173018D01*
X0223830Y0172994D01*
X0223854Y0172947D01*
Y0172899D01*
X0223830Y0172852D01*
X0223782Y0172780D01*
X0223544Y0172542D01*
X0223878D01*
X0186538Y0168749D02*
Y0168250D01*
Y0168749D02*
X0186847D01*
X0186538Y0168511D02*
X0186728D01*
X0186904Y0168749D02*
Y0168250D01*
Y0168749D02*
X0187118D01*
X0187190Y0168726D01*
X0187214Y0168702D01*
X0187237Y0168654D01*
Y0168607D01*
X0187214Y0168559D01*
X0187190Y0168535D01*
X0187118Y0168511D01*
X0186904D02*
X0187118D01*
X0187190Y0168488D01*
X0187214Y0168464D01*
X0187237Y0168416D01*
Y0168345D01*
X0187214Y0168297D01*
X0187190Y0168273D01*
X0187118Y0168250D01*
X0186904D01*
X0187349Y0168654D02*
X0187397Y0168678D01*
X0187468Y0168749D01*
Y0168250D01*
X0212878Y0158726D02*
X0212830Y0158702D01*
X0212782Y0158655D01*
X0212759Y0158607D01*
Y0158512D01*
X0212782Y0158464D01*
X0212830Y0158417D01*
X0212878Y0158393D01*
X0212949Y0158369D01*
X0213068D01*
X0213139Y0158393D01*
X0213187Y0158417D01*
X0213235Y0158464D01*
X0213258Y0158512D01*
Y0158607D01*
X0213235Y0158655D01*
X0213187Y0158702D01*
X0213139Y0158726D01*
X0212759Y0159105D02*
X0213092Y0158867D01*
Y0159224D01*
X0212759Y0159105D02*
X0213258D01*
X0212759Y0159454D02*
X0212782Y0159383D01*
X0212854Y0159335D01*
X0212973Y0159312D01*
X0213044D01*
X0213163Y0159335D01*
X0213235Y0159383D01*
X0213258Y0159454D01*
Y0159502D01*
X0213235Y0159574D01*
X0213163Y0159621D01*
X0213044Y0159645D01*
X0212973D01*
X0212854Y0159621D01*
X0212782Y0159574D01*
X0212759Y0159502D01*
Y0159454D01*
X0194718Y0170637D02*
X0194694Y0170685D01*
X0194646Y0170732D01*
X0194599Y0170756D01*
X0194504D01*
X0194456Y0170732D01*
X0194408Y0170685D01*
X0194385Y0170637D01*
X0194361Y0170566D01*
Y0170447D01*
X0194385Y0170375D01*
X0194408Y0170328D01*
X0194456Y0170280D01*
X0194504Y0170256D01*
X0194599D01*
X0194646Y0170280D01*
X0194694Y0170328D01*
X0194718Y0170375D01*
X0195096Y0170756D02*
X0194858Y0170423D01*
X0195215D01*
X0195096Y0170756D02*
Y0170256D01*
X0195589Y0170756D02*
X0195351D01*
X0195327Y0170542D01*
X0195351Y0170566D01*
X0195422Y0170589D01*
X0195494D01*
X0195565Y0170566D01*
X0195613Y0170518D01*
X0195637Y0170447D01*
Y0170399D01*
X0195613Y0170328D01*
X0195565Y0170280D01*
X0195494Y0170256D01*
X0195422D01*
X0195351Y0170280D01*
X0195327Y0170304D01*
X0195303Y0170351D01*
X0187579Y0171324D02*
X0187532Y0171301D01*
X0187484Y0171253D01*
X0187460Y0171205D01*
Y0171110D01*
X0187484Y0171063D01*
X0187532Y0171015D01*
X0187579Y0170991D01*
X0187651Y0170967D01*
X0187770D01*
X0187841Y0170991D01*
X0187889Y0171015D01*
X0187936Y0171063D01*
X0187960Y0171110D01*
Y0171205D01*
X0187936Y0171253D01*
X0187889Y0171301D01*
X0187841Y0171324D01*
X0187460Y0171703D02*
X0187793Y0171465D01*
Y0171822D01*
X0187460Y0171703D02*
X0187960D01*
X0187460Y0171958D02*
Y0172220D01*
X0187651Y0172077D01*
Y0172148D01*
X0187674Y0172196D01*
X0187698Y0172220D01*
X0187770Y0172243D01*
X0187817D01*
X0187889Y0172220D01*
X0187936Y0172172D01*
X0187960Y0172100D01*
Y0172029D01*
X0187936Y0171958D01*
X0187912Y0171934D01*
X0187865Y0171910D01*
X0222174Y0158726D02*
X0222126Y0158702D01*
X0222079Y0158655D01*
X0222055Y0158607D01*
Y0158512D01*
X0222079Y0158464D01*
X0222126Y0158417D01*
X0222174Y0158393D01*
X0222245Y0158369D01*
X0222364D01*
X0222436Y0158393D01*
X0222483Y0158417D01*
X0222531Y0158464D01*
X0222555Y0158512D01*
Y0158607D01*
X0222531Y0158655D01*
X0222483Y0158702D01*
X0222436Y0158726D01*
X0222055Y0159105D02*
X0222388Y0158867D01*
Y0159224D01*
X0222055Y0159105D02*
X0222555D01*
X0222055Y0159645D02*
X0222555Y0159407D01*
X0222055Y0159312D02*
Y0159645D01*
X0229870Y0170715D02*
X0229823Y0170691D01*
X0229775Y0170643D01*
X0229751Y0170596D01*
Y0170501D01*
X0229775Y0170453D01*
X0229823Y0170405D01*
X0229870Y0170382D01*
X0229942Y0170358D01*
X0230061D01*
X0230132Y0170382D01*
X0230180Y0170405D01*
X0230227Y0170453D01*
X0230251Y0170501D01*
Y0170596D01*
X0230227Y0170643D01*
X0230180Y0170691D01*
X0230132Y0170715D01*
X0229751Y0170903D02*
Y0171165D01*
X0229942Y0171022D01*
Y0171093D01*
X0229965Y0171141D01*
X0229989Y0171165D01*
X0230061Y0171189D01*
X0230108D01*
X0230180Y0171165D01*
X0230227Y0171117D01*
X0230251Y0171046D01*
Y0170974D01*
X0230227Y0170903D01*
X0230203Y0170879D01*
X0230156Y0170855D01*
X0229751Y0171348D02*
Y0171610D01*
X0229942Y0171467D01*
Y0171538D01*
X0229965Y0171586D01*
X0229989Y0171610D01*
X0230061Y0171634D01*
X0230108D01*
X0230180Y0171610D01*
X0230227Y0171562D01*
X0230251Y0171491D01*
Y0171419D01*
X0230227Y0171348D01*
X0230203Y0171324D01*
X0230156Y0171300D01*
X0228372Y0170715D02*
X0228324Y0170691D01*
X0228276Y0170643D01*
X0228253Y0170596D01*
Y0170501D01*
X0228276Y0170453D01*
X0228324Y0170405D01*
X0228372Y0170382D01*
X0228443Y0170358D01*
X0228562D01*
X0228633Y0170382D01*
X0228681Y0170405D01*
X0228729Y0170453D01*
X0228752Y0170501D01*
Y0170596D01*
X0228729Y0170643D01*
X0228681Y0170691D01*
X0228633Y0170715D01*
X0228253Y0170903D02*
Y0171165D01*
X0228443Y0171022D01*
Y0171093D01*
X0228467Y0171141D01*
X0228491Y0171165D01*
X0228562Y0171189D01*
X0228610D01*
X0228681Y0171165D01*
X0228729Y0171117D01*
X0228752Y0171046D01*
Y0170974D01*
X0228729Y0170903D01*
X0228705Y0170879D01*
X0228657Y0170855D01*
X0228372Y0171324D02*
X0228348D01*
X0228300Y0171348D01*
X0228276Y0171372D01*
X0228253Y0171419D01*
Y0171515D01*
X0228276Y0171562D01*
X0228300Y0171586D01*
X0228348Y0171610D01*
X0228395D01*
X0228443Y0171586D01*
X0228514Y0171538D01*
X0228752Y0171300D01*
Y0171634D01*
X0218872Y0158828D02*
X0218824Y0158804D01*
X0218777Y0158756D01*
X0218753Y0158709D01*
Y0158613D01*
X0218777Y0158566D01*
X0218824Y0158518D01*
X0218872Y0158494D01*
X0218943Y0158471D01*
X0219062D01*
X0219134Y0158494D01*
X0219181Y0158518D01*
X0219229Y0158566D01*
X0219253Y0158613D01*
Y0158709D01*
X0219229Y0158756D01*
X0219181Y0158804D01*
X0219134Y0158828D01*
X0218753Y0159206D02*
X0219086Y0158968D01*
Y0159325D01*
X0218753Y0159206D02*
X0219253D01*
X0218848Y0159413D02*
X0218824Y0159461D01*
X0218753Y0159532D01*
X0219253D01*
X0227965Y0158726D02*
X0227918Y0158702D01*
X0227870Y0158655D01*
X0227846Y0158607D01*
Y0158512D01*
X0227870Y0158464D01*
X0227918Y0158417D01*
X0227965Y0158393D01*
X0228037Y0158369D01*
X0228156D01*
X0228227Y0158393D01*
X0228275Y0158417D01*
X0228322Y0158464D01*
X0228346Y0158512D01*
Y0158607D01*
X0228322Y0158655D01*
X0228275Y0158702D01*
X0228227Y0158726D01*
X0227846Y0159105D02*
X0228179Y0158867D01*
Y0159224D01*
X0227846Y0159105D02*
X0228346D01*
X0227846Y0159431D02*
X0227870Y0159359D01*
X0227918Y0159335D01*
X0227965D01*
X0228013Y0159359D01*
X0228037Y0159407D01*
X0228060Y0159502D01*
X0228084Y0159574D01*
X0228132Y0159621D01*
X0228179Y0159645D01*
X0228251D01*
X0228298Y0159621D01*
X0228322Y0159597D01*
X0228346Y0159526D01*
Y0159431D01*
X0228322Y0159359D01*
X0228298Y0159335D01*
X0228251Y0159312D01*
X0228179D01*
X0228132Y0159335D01*
X0228084Y0159383D01*
X0228060Y0159454D01*
X0228037Y0159550D01*
X0228013Y0159597D01*
X0227965Y0159621D01*
X0227918D01*
X0227870Y0159597D01*
X0227846Y0159526D01*
Y0159431D01*
X0236221Y0162534D02*
X0236198Y0162582D01*
X0236150Y0162630D01*
X0236102Y0162653D01*
X0236007D01*
X0235960Y0162630D01*
X0235912Y0162582D01*
X0235888Y0162534D01*
X0235864Y0162463D01*
Y0162344D01*
X0235888Y0162273D01*
X0235912Y0162225D01*
X0235960Y0162177D01*
X0236007Y0162154D01*
X0236102D01*
X0236150Y0162177D01*
X0236198Y0162225D01*
X0236221Y0162273D01*
X0236410Y0162653D02*
X0236671D01*
X0236529Y0162463D01*
X0236600D01*
X0236648Y0162439D01*
X0236671Y0162415D01*
X0236695Y0162344D01*
Y0162296D01*
X0236671Y0162225D01*
X0236624Y0162177D01*
X0236552Y0162154D01*
X0236481D01*
X0236410Y0162177D01*
X0236386Y0162201D01*
X0236362Y0162249D01*
X0236926Y0162653D02*
X0236855Y0162630D01*
X0236831Y0162582D01*
Y0162534D01*
X0236855Y0162487D01*
X0236902Y0162463D01*
X0236997Y0162439D01*
X0237069Y0162415D01*
X0237117Y0162368D01*
X0237140Y0162320D01*
Y0162249D01*
X0237117Y0162201D01*
X0237093Y0162177D01*
X0237021Y0162154D01*
X0236926D01*
X0236855Y0162177D01*
X0236831Y0162201D01*
X0236807Y0162249D01*
Y0162320D01*
X0236831Y0162368D01*
X0236878Y0162415D01*
X0236950Y0162439D01*
X0237045Y0162463D01*
X0237093Y0162487D01*
X0237117Y0162534D01*
Y0162582D01*
X0237093Y0162630D01*
X0237021Y0162653D01*
X0236926D01*
X0235865Y0158726D02*
X0235817Y0158702D01*
X0235769Y0158655D01*
X0235746Y0158607D01*
Y0158512D01*
X0235769Y0158464D01*
X0235817Y0158417D01*
X0235865Y0158393D01*
X0235936Y0158369D01*
X0236055D01*
X0236126Y0158393D01*
X0236174Y0158417D01*
X0236222Y0158464D01*
X0236245Y0158512D01*
Y0158607D01*
X0236222Y0158655D01*
X0236174Y0158702D01*
X0236126Y0158726D01*
X0235865Y0158890D02*
X0235841D01*
X0235793Y0158914D01*
X0235769Y0158938D01*
X0235746Y0158986D01*
Y0159081D01*
X0235769Y0159128D01*
X0235793Y0159152D01*
X0235841Y0159176D01*
X0235888D01*
X0235936Y0159152D01*
X0236007Y0159105D01*
X0236245Y0158867D01*
Y0159200D01*
X0235817Y0159597D02*
X0235769Y0159574D01*
X0235746Y0159502D01*
Y0159454D01*
X0235769Y0159383D01*
X0235841Y0159335D01*
X0235960Y0159312D01*
X0236079D01*
X0236174Y0159335D01*
X0236222Y0159383D01*
X0236245Y0159454D01*
Y0159478D01*
X0236222Y0159550D01*
X0236174Y0159597D01*
X0236103Y0159621D01*
X0236079D01*
X0236007Y0159597D01*
X0235960Y0159550D01*
X0235936Y0159478D01*
Y0159454D01*
X0235960Y0159383D01*
X0236007Y0159335D01*
X0236079Y0159312D01*
X0236221Y0164135D02*
X0236198Y0164182D01*
X0236150Y0164230D01*
X0236102Y0164254D01*
X0236007D01*
X0235960Y0164230D01*
X0235912Y0164182D01*
X0235888Y0164135D01*
X0235864Y0164063D01*
Y0163944D01*
X0235888Y0163873D01*
X0235912Y0163825D01*
X0235960Y0163778D01*
X0236007Y0163754D01*
X0236102D01*
X0236150Y0163778D01*
X0236198Y0163825D01*
X0236221Y0163873D01*
X0236410Y0164254D02*
X0236671D01*
X0236529Y0164063D01*
X0236600D01*
X0236648Y0164039D01*
X0236671Y0164016D01*
X0236695Y0163944D01*
Y0163897D01*
X0236671Y0163825D01*
X0236624Y0163778D01*
X0236552Y0163754D01*
X0236481D01*
X0236410Y0163778D01*
X0236386Y0163801D01*
X0236362Y0163849D01*
X0237140Y0164254D02*
X0236902Y0163754D01*
X0236807Y0164254D02*
X0237140D01*
X0236221Y0166141D02*
X0236198Y0166189D01*
X0236150Y0166236D01*
X0236102Y0166260D01*
X0236007D01*
X0235960Y0166236D01*
X0235912Y0166189D01*
X0235888Y0166141D01*
X0235864Y0166070D01*
Y0165951D01*
X0235888Y0165879D01*
X0235912Y0165832D01*
X0235960Y0165784D01*
X0236007Y0165760D01*
X0236102D01*
X0236150Y0165784D01*
X0236198Y0165832D01*
X0236221Y0165879D01*
X0236410Y0166260D02*
X0236671D01*
X0236529Y0166070D01*
X0236600D01*
X0236648Y0166046D01*
X0236671Y0166022D01*
X0236695Y0165951D01*
Y0165903D01*
X0236671Y0165832D01*
X0236624Y0165784D01*
X0236552Y0165760D01*
X0236481D01*
X0236410Y0165784D01*
X0236386Y0165808D01*
X0236362Y0165856D01*
X0237093Y0166189D02*
X0237069Y0166236D01*
X0236997Y0166260D01*
X0236950D01*
X0236878Y0166236D01*
X0236831Y0166165D01*
X0236807Y0166046D01*
Y0165927D01*
X0236831Y0165832D01*
X0236878Y0165784D01*
X0236950Y0165760D01*
X0236974D01*
X0237045Y0165784D01*
X0237093Y0165832D01*
X0237117Y0165903D01*
Y0165927D01*
X0237093Y0165998D01*
X0237045Y0166046D01*
X0236974Y0166070D01*
X0236950D01*
X0236878Y0166046D01*
X0236831Y0165998D01*
X0236807Y0165927D01*
X0231369Y0158701D02*
X0231321Y0158677D01*
X0231274Y0158629D01*
X0231250Y0158582D01*
Y0158486D01*
X0231274Y0158439D01*
X0231321Y0158391D01*
X0231369Y0158367D01*
X0231440Y0158344D01*
X0231559D01*
X0231631Y0158367D01*
X0231678Y0158391D01*
X0231726Y0158439D01*
X0231750Y0158486D01*
Y0158582D01*
X0231726Y0158629D01*
X0231678Y0158677D01*
X0231631Y0158701D01*
X0231369Y0158865D02*
X0231345D01*
X0231297Y0158889D01*
X0231274Y0158913D01*
X0231250Y0158960D01*
Y0159055D01*
X0231274Y0159103D01*
X0231297Y0159127D01*
X0231345Y0159151D01*
X0231393D01*
X0231440Y0159127D01*
X0231512Y0159079D01*
X0231750Y0158841D01*
Y0159174D01*
X0231250Y0159524D02*
X0231583Y0159286D01*
Y0159643D01*
X0231250Y0159524D02*
X0231750D01*
X0231369Y0170715D02*
X0231321Y0170691D01*
X0231274Y0170643D01*
X0231250Y0170596D01*
Y0170501D01*
X0231274Y0170453D01*
X0231321Y0170405D01*
X0231369Y0170382D01*
X0231440Y0170358D01*
X0231559D01*
X0231631Y0170382D01*
X0231678Y0170405D01*
X0231726Y0170453D01*
X0231750Y0170501D01*
Y0170596D01*
X0231726Y0170643D01*
X0231678Y0170691D01*
X0231631Y0170715D01*
X0231369Y0170879D02*
X0231345D01*
X0231297Y0170903D01*
X0231274Y0170927D01*
X0231250Y0170974D01*
Y0171070D01*
X0231274Y0171117D01*
X0231297Y0171141D01*
X0231345Y0171165D01*
X0231393D01*
X0231440Y0171141D01*
X0231512Y0171093D01*
X0231750Y0170855D01*
Y0171189D01*
X0231250Y0171443D02*
X0231274Y0171372D01*
X0231345Y0171324D01*
X0231464Y0171300D01*
X0231535D01*
X0231654Y0171324D01*
X0231726Y0171372D01*
X0231750Y0171443D01*
Y0171491D01*
X0231726Y0171562D01*
X0231654Y0171610D01*
X0231535Y0171634D01*
X0231464D01*
X0231345Y0171610D01*
X0231274Y0171562D01*
X0231250Y0171491D01*
Y0171443D01*
X0235865Y0170816D02*
X0235817Y0170793D01*
X0235769Y0170745D01*
X0235746Y0170697D01*
Y0170602D01*
X0235769Y0170555D01*
X0235817Y0170507D01*
X0235865Y0170483D01*
X0235936Y0170459D01*
X0236055D01*
X0236126Y0170483D01*
X0236174Y0170507D01*
X0236222Y0170555D01*
X0236245Y0170602D01*
Y0170697D01*
X0236222Y0170745D01*
X0236174Y0170793D01*
X0236126Y0170816D01*
X0235865Y0170981D02*
X0235841D01*
X0235793Y0171005D01*
X0235769Y0171028D01*
X0235746Y0171076D01*
Y0171171D01*
X0235769Y0171219D01*
X0235793Y0171243D01*
X0235841Y0171266D01*
X0235888D01*
X0235936Y0171243D01*
X0236007Y0171195D01*
X0236245Y0170957D01*
Y0171290D01*
X0235841Y0171402D02*
X0235817Y0171450D01*
X0235746Y0171521D01*
X0236245D01*
X0186444Y0165303D02*
X0186944D01*
X0186444D02*
Y0165470D01*
X0186468Y0165541D01*
X0186516Y0165589D01*
X0186563Y0165613D01*
X0186635Y0165636D01*
X0186754D01*
X0186825Y0165613D01*
X0186873Y0165589D01*
X0186920Y0165541D01*
X0186944Y0165470D01*
Y0165303D01*
X0186539Y0165748D02*
X0186516Y0165796D01*
X0186444Y0165867D01*
X0186944D01*
X0237244Y0170536D02*
X0237744D01*
X0237244D02*
Y0170750D01*
X0237268Y0170821D01*
X0237292Y0170845D01*
X0237339Y0170869D01*
X0237387D01*
X0237435Y0170845D01*
X0237458Y0170821D01*
X0237482Y0170750D01*
Y0170536D01*
Y0170702D02*
X0237744Y0170869D01*
X0237339Y0170981D02*
X0237316Y0171028D01*
X0237244Y0171100D01*
X0237744D01*
X0237339Y0171347D02*
X0237316Y0171395D01*
X0237244Y0171466D01*
X0237744D01*
X0236221Y0167640D02*
X0236198Y0167687D01*
X0236150Y0167735D01*
X0236102Y0167759D01*
X0236007D01*
X0235960Y0167735D01*
X0235912Y0167687D01*
X0235888Y0167640D01*
X0235864Y0167568D01*
Y0167449D01*
X0235888Y0167378D01*
X0235912Y0167330D01*
X0235960Y0167283D01*
X0236007Y0167259D01*
X0236102D01*
X0236150Y0167283D01*
X0236198Y0167330D01*
X0236221Y0167378D01*
X0236410Y0167759D02*
X0236671D01*
X0236529Y0167568D01*
X0236600D01*
X0236648Y0167545D01*
X0236671Y0167521D01*
X0236695Y0167449D01*
Y0167402D01*
X0236671Y0167330D01*
X0236624Y0167283D01*
X0236552Y0167259D01*
X0236481D01*
X0236410Y0167283D01*
X0236386Y0167307D01*
X0236362Y0167354D01*
X0237093Y0167759D02*
X0236855D01*
X0236831Y0167545D01*
X0236855Y0167568D01*
X0236926Y0167592D01*
X0236997D01*
X0237069Y0167568D01*
X0237117Y0167521D01*
X0237140Y0167449D01*
Y0167402D01*
X0237117Y0167330D01*
X0237069Y0167283D01*
X0236997Y0167259D01*
X0236926D01*
X0236855Y0167283D01*
X0236831Y0167307D01*
X0236807Y0167354D01*
X0185496Y0157243D02*
Y0156743D01*
Y0157243D02*
X0185806D01*
X0185496Y0157005D02*
X0185687D01*
X0185863Y0157243D02*
Y0156743D01*
Y0157243D02*
X0186053Y0156743D01*
X0186244Y0157243D02*
X0186053Y0156743D01*
X0186244Y0157243D02*
Y0156743D01*
X0186386Y0157148D02*
X0186434Y0157172D01*
X0186506Y0157243D01*
Y0156743D01*
X0248387Y0173245D02*
Y0172745D01*
Y0173245D02*
X0248696D01*
X0248387Y0173007D02*
X0248577D01*
X0248753Y0173245D02*
Y0172745D01*
Y0173245D02*
X0248944Y0172745D01*
X0249134Y0173245D02*
X0248944Y0172745D01*
X0249134Y0173245D02*
Y0172745D01*
X0249301Y0173126D02*
Y0173150D01*
X0249324Y0173198D01*
X0249348Y0173221D01*
X0249396Y0173245D01*
X0249491D01*
X0249539Y0173221D01*
X0249563Y0173198D01*
X0249586Y0173150D01*
Y0173102D01*
X0249563Y0173055D01*
X0249515Y0172983D01*
X0249277Y0172745D01*
X0249610D01*
X0248387Y0157243D02*
Y0156743D01*
Y0157243D02*
X0248696D01*
X0248387Y0157005D02*
X0248577D01*
X0248753Y0157243D02*
Y0156743D01*
Y0157243D02*
X0248944Y0156743D01*
X0249134Y0157243D02*
X0248944Y0156743D01*
X0249134Y0157243D02*
Y0156743D01*
X0249324Y0157243D02*
X0249586D01*
X0249444Y0157053D01*
X0249515D01*
X0249563Y0157029D01*
X0249586Y0157005D01*
X0249610Y0156934D01*
Y0156886D01*
X0249586Y0156815D01*
X0249539Y0156767D01*
X0249467Y0156743D01*
X0249396D01*
X0249324Y0156767D01*
X0249301Y0156791D01*
X0249277Y0156839D01*
X0229870Y0158701D02*
X0229823Y0158677D01*
X0229775Y0158629D01*
X0229751Y0158582D01*
Y0158486D01*
X0229775Y0158439D01*
X0229823Y0158391D01*
X0229870Y0158367D01*
X0229942Y0158344D01*
X0230061D01*
X0230132Y0158367D01*
X0230180Y0158391D01*
X0230227Y0158439D01*
X0230251Y0158486D01*
Y0158582D01*
X0230227Y0158629D01*
X0230180Y0158677D01*
X0230132Y0158701D01*
X0229751Y0158889D02*
Y0159151D01*
X0229942Y0159008D01*
Y0159079D01*
X0229965Y0159127D01*
X0229989Y0159151D01*
X0230061Y0159174D01*
X0230108D01*
X0230180Y0159151D01*
X0230227Y0159103D01*
X0230251Y0159032D01*
Y0158960D01*
X0230227Y0158889D01*
X0230203Y0158865D01*
X0230156Y0158841D01*
X0229751Y0159524D02*
X0230084Y0159286D01*
Y0159643D01*
X0229751Y0159524D02*
X0230251D01*
M02*
