%FSAX43Y43*%
%MOMM*%
G71*
G01*
G75*
G04 Layer_Color=16711935*
%ADD10R,0.590X0.600*%
%ADD11R,0.630X0.610*%
%ADD12R,0.600X0.590*%
%ADD13R,0.610X0.630*%
%ADD14R,0.590X1.910*%
%ADD15R,0.550X0.300*%
%ADD16R,1.210X0.590*%
%ADD17R,1.280X0.590*%
%ADD18R,1.090X0.400*%
%ADD19R,0.400X1.090*%
%ADD20R,1.520X0.330*%
%ADD21R,0.930X0.790*%
%ADD22R,1.600X0.280*%
%ADD23C,0.750*%
%ADD24R,5.500X5.500*%
%ADD25R,0.280X1.600*%
%ADD26R,3.700X3.700*%
%ADD27O,0.800X0.220*%
%ADD28O,0.220X0.800*%
%ADD29R,1.270X1.020*%
%ADD30R,0.910X0.930*%
%ADD31R,1.140X1.470*%
%ADD32R,1.000X0.970*%
%ADD33C,1.000*%
%ADD34R,0.400X0.350*%
%ADD35R,1.350X0.400*%
%ADD36R,1.600X1.900*%
%ADD37R,1.400X1.600*%
%ADD38R,1.800X1.230*%
%ADD39R,1.160X1.470*%
%ADD40R,0.930X0.920*%
%ADD41R,0.920X0.930*%
%ADD42R,1.470X1.160*%
%ADD43R,0.350X0.400*%
%ADD44C,0.250*%
%ADD45C,0.150*%
%ADD46C,0.300*%
%ADD47C,0.500*%
%ADD48C,0.280*%
%ADD49C,0.400*%
%ADD50C,0.220*%
%ADD51C,0.160*%
%ADD52C,0.200*%
%ADD53C,0.600*%
%ADD54C,0.800*%
%ADD55C,0.590*%
%ADD56C,0.260*%
%ADD57R,1.200X1.600*%
%ADD58R,1.600X1.100*%
%ADD59R,1.200X1.600*%
%ADD60R,1.100X1.600*%
%ADD61C,1.400*%
%ADD62C,2.200*%
G04:AMPARAMS|DCode=63|XSize=0.9mm|YSize=1.6mm|CornerRadius=0.45mm|HoleSize=0mm|Usage=FLASHONLY|Rotation=270.000|XOffset=0mm|YOffset=0mm|HoleType=Round|Shape=RoundedRectangle|*
%AMROUNDEDRECTD63*
21,1,0.900,0.700,0,0,270.0*
21,1,0.000,1.600,0,0,270.0*
1,1,0.900,-0.350,0.000*
1,1,0.900,-0.350,0.000*
1,1,0.900,0.350,0.000*
1,1,0.900,0.350,0.000*
%
%ADD63ROUNDEDRECTD63*%
%ADD64C,0.600*%
%ADD65C,1.000*%
%ADD66C,1.800*%
G04:AMPARAMS|DCode=67|XSize=1.8mm|YSize=1.8mm|CornerRadius=0mm|HoleSize=0mm|Usage=FLASHONLY|Rotation=0.000|XOffset=0mm|YOffset=0mm|HoleType=Round|Shape=Relief|Width=0.2mm|Gap=0.25mm|Entries=4|*
%AMTHD67*
7,0,0,1.800,1.300,0.200,45*
%
%ADD67THD67*%
%ADD68C,1.900*%
G04:AMPARAMS|DCode=69|XSize=2.3mm|YSize=2.3mm|CornerRadius=0mm|HoleSize=0mm|Usage=FLASHONLY|Rotation=0.000|XOffset=0mm|YOffset=0mm|HoleType=Round|Shape=Relief|Width=0.2mm|Gap=0.25mm|Entries=4|*
%AMTHD69*
7,0,0,2.300,1.800,0.200,45*
%
%ADD69THD69*%
%ADD70O,1.800X1.100*%
%ADD71C,3.650*%
%ADD72C,0.850*%
%ADD73C,1.200*%
%ADD74C,0.120*%
%ADD75C,1.500*%
%ADD76C,2.000*%
%ADD77C,1.350*%
%ADD78C,3.200*%
%ADD79C,0.001*%
%ADD80C,0.050*%
%ADD81C,0.080*%
%ADD82C,0.100*%
D44*
X0083166Y0088642D02*
X0082928Y0088880D01*
X0082571Y0088999D01*
X0082095D01*
X0081738Y0088880D01*
X0081500Y0088642D01*
Y0088404D01*
X0081619Y0088166D01*
X0081738Y0088047D01*
X0081976Y0087928D01*
X0082690Y0087690D01*
X0082928Y0087571D01*
X0083047Y0087452D01*
X0083166Y0087214D01*
Y0086857D01*
X0082928Y0086619D01*
X0082571Y0086500D01*
X0082095D01*
X0081738Y0086619D01*
X0081500Y0086857D01*
X0084559Y0088999D02*
Y0086500D01*
X0083726Y0088999D02*
X0085392D01*
X0087594Y0086500D02*
X0086642Y0088999D01*
X0085690Y0086500D01*
X0086047Y0087333D02*
X0087237D01*
X0089962Y0088404D02*
X0089843Y0088642D01*
X0089605Y0088880D01*
X0089367Y0088999D01*
X0088891D01*
X0088653Y0088880D01*
X0088415Y0088642D01*
X0088296Y0088404D01*
X0088177Y0088047D01*
Y0087452D01*
X0088296Y0087095D01*
X0088415Y0086857D01*
X0088653Y0086619D01*
X0088891Y0086500D01*
X0089367D01*
X0089605Y0086619D01*
X0089843Y0086857D01*
X0089962Y0087095D01*
X0090665Y0088999D02*
Y0086500D01*
X0092331Y0088999D02*
X0090665Y0087333D01*
X0091260Y0087928D02*
X0092331Y0086500D01*
X0092890Y0088999D02*
Y0087214D01*
X0093009Y0086857D01*
X0093247Y0086619D01*
X0093605Y0086500D01*
X0093843D01*
X0094200Y0086619D01*
X0094438Y0086857D01*
X0094557Y0087214D01*
Y0088999D01*
X0095247Y0087690D02*
X0096318D01*
X0096675Y0087809D01*
X0096794Y0087928D01*
X0096913Y0088166D01*
Y0088523D01*
X0096794Y0088761D01*
X0096675Y0088880D01*
X0096318Y0088999D01*
X0095247D01*
Y0086500D01*
X0099437Y0088999D02*
Y0086500D01*
Y0088999D02*
X0100270D01*
X0100627Y0088880D01*
X0100865Y0088642D01*
X0100984Y0088404D01*
X0101103Y0088047D01*
Y0087452D01*
X0100984Y0087095D01*
X0100865Y0086857D01*
X0100627Y0086619D01*
X0100270Y0086500D01*
X0099437D01*
X0103210Y0088999D02*
X0101662D01*
Y0086500D01*
X0103210D01*
X0101662Y0087809D02*
X0102615D01*
X0104459Y0088999D02*
Y0086500D01*
X0103626Y0088999D02*
X0105293D01*
X0107494Y0086500D02*
X0106542Y0088999D01*
X0105590Y0086500D01*
X0105947Y0087333D02*
X0107137D01*
X0108078Y0088999D02*
Y0086500D01*
X0108601Y0088999D02*
Y0086500D01*
X0110030D01*
D45*
X0030000Y0220000D02*
X0307000D01*
Y0030000D02*
Y0220000D01*
X0030000Y0030000D02*
X0307000D01*
X0030000D02*
Y0220000D01*
X0033000Y0033000D02*
Y0217000D01*
Y0033000D02*
X0304000D01*
Y0217000D01*
X0033000D02*
X0304000D01*
X0291500Y0040000D02*
Y0046500D01*
X0254000Y0040000D02*
Y0046500D01*
X0245000Y0040000D02*
X0304000D01*
X0245000Y0046500D02*
X0304000D01*
X0245000Y0054000D02*
X0304000D01*
X0245000Y0033000D02*
Y0054000D01*
X0080500Y0077000D02*
Y0079500D01*
X0116500D01*
Y0077000D02*
Y0079500D01*
X0080500Y0077000D02*
X0116500D01*
X0080500Y0071000D02*
X0116500D01*
Y0073500D01*
X0080500D02*
X0116500D01*
X0080500Y0071000D02*
Y0073500D01*
Y0065000D02*
Y0067500D01*
X0116500D01*
Y0065000D02*
Y0067500D01*
X0080500Y0065000D02*
X0116500D01*
X0080500Y0059000D02*
Y0061500D01*
X0116500D01*
Y0059000D02*
Y0061500D01*
X0080500Y0059000D02*
X0116500D01*
X0053000Y0078500D02*
X0074000D01*
Y0070000D02*
Y0078500D01*
X0053000Y0070000D02*
X0074000D01*
X0053000D02*
Y0078500D01*
Y0066500D02*
Y0070000D01*
Y0066500D02*
X0074000D01*
Y0070000D01*
Y0063000D02*
Y0066500D01*
X0053000Y0063000D02*
X0074000D01*
X0053000D02*
Y0066500D01*
X0074000Y0059500D02*
Y0063000D01*
X0053000Y0059500D02*
X0074000D01*
X0053000D02*
Y0063000D01*
X0061000Y0059500D02*
Y0070000D01*
X0050000Y0056500D02*
X0143500D01*
Y0081500D01*
Y0091000D01*
X0050000D02*
X0143500D01*
X0050000Y0056500D02*
Y0091000D01*
Y0082000D02*
X0143500D01*
X0050000Y0050000D02*
Y0056500D01*
Y0050000D02*
X0143500D01*
Y0056500D01*
X0180000Y0145500D02*
Y0144000D01*
Y0145500D02*
X0180928D01*
X0180000Y0144786D02*
X0180571D01*
X0182242Y0144000D02*
X0181671Y0145500D01*
X0181100Y0144000D01*
X0181314Y0144500D02*
X0182028D01*
X0182592Y0145500D02*
Y0144000D01*
Y0145500D02*
X0183235D01*
X0183449Y0145428D01*
X0183521Y0145357D01*
X0183592Y0145214D01*
Y0145071D01*
X0183521Y0144928D01*
X0183449Y0144857D01*
X0183235Y0144786D01*
X0182592D02*
X0183235D01*
X0183449Y0144714D01*
X0183521Y0144643D01*
X0183592Y0144500D01*
Y0144286D01*
X0183521Y0144143D01*
X0183449Y0144071D01*
X0183235Y0144000D01*
X0182592D01*
X0183928Y0145500D02*
Y0144000D01*
Y0145500D02*
X0184570D01*
X0184785Y0145428D01*
X0184856Y0145357D01*
X0184928Y0145214D01*
Y0145071D01*
X0184856Y0144928D01*
X0184785Y0144857D01*
X0184570Y0144786D01*
X0183928D01*
X0184428D02*
X0184928Y0144000D01*
X0185263Y0145500D02*
Y0144000D01*
X0186649Y0145143D02*
X0186577Y0145285D01*
X0186434Y0145428D01*
X0186292Y0145500D01*
X0186006D01*
X0185863Y0145428D01*
X0185720Y0145285D01*
X0185649Y0145143D01*
X0185577Y0144928D01*
Y0144571D01*
X0185649Y0144357D01*
X0185720Y0144214D01*
X0185863Y0144071D01*
X0186006Y0144000D01*
X0186292D01*
X0186434Y0144071D01*
X0186577Y0144214D01*
X0186649Y0144357D01*
X0188213Y0144000D02*
X0187641Y0145500D01*
X0187070Y0144000D01*
X0187284Y0144500D02*
X0187998D01*
X0189062Y0145500D02*
Y0144000D01*
X0188562Y0145500D02*
X0189562D01*
X0189741D02*
Y0144000D01*
X0190483Y0145500D02*
X0190341Y0145428D01*
X0190198Y0145285D01*
X0190126Y0145143D01*
X0190055Y0144928D01*
Y0144571D01*
X0190126Y0144357D01*
X0190198Y0144214D01*
X0190341Y0144071D01*
X0190483Y0144000D01*
X0190769D01*
X0190912Y0144071D01*
X0191055Y0144214D01*
X0191126Y0144357D01*
X0191198Y0144571D01*
Y0144928D01*
X0191126Y0145143D01*
X0191055Y0145285D01*
X0190912Y0145428D01*
X0190769Y0145500D01*
X0190483D01*
X0191548D02*
Y0144000D01*
Y0145500D02*
X0192547Y0144000D01*
Y0145500D02*
Y0144000D01*
X0194140Y0145500D02*
Y0144000D01*
X0194454Y0145500D02*
Y0144000D01*
Y0145500D02*
X0195454Y0144000D01*
Y0145500D02*
Y0144000D01*
X0196868Y0145285D02*
X0196725Y0145428D01*
X0196511Y0145500D01*
X0196225D01*
X0196011Y0145428D01*
X0195868Y0145285D01*
Y0145143D01*
X0195939Y0145000D01*
X0196011Y0144928D01*
X0196154Y0144857D01*
X0196582Y0144714D01*
X0196725Y0144643D01*
X0196796Y0144571D01*
X0196868Y0144428D01*
Y0144214D01*
X0196725Y0144071D01*
X0196511Y0144000D01*
X0196225D01*
X0196011Y0144071D01*
X0195868Y0144214D01*
X0197703Y0145500D02*
Y0144000D01*
X0197203Y0145500D02*
X0198203D01*
X0198382D02*
Y0144000D01*
Y0145500D02*
X0199024D01*
X0199239Y0145428D01*
X0199310Y0145357D01*
X0199382Y0145214D01*
Y0145071D01*
X0199310Y0144928D01*
X0199239Y0144857D01*
X0199024Y0144786D01*
X0198382D01*
X0198882D02*
X0199382Y0144000D01*
X0199717Y0145500D02*
Y0144428D01*
X0199789Y0144214D01*
X0199931Y0144071D01*
X0200146Y0144000D01*
X0200289D01*
X0200503Y0144071D01*
X0200646Y0144214D01*
X0200717Y0144428D01*
Y0145500D01*
X0202202Y0145143D02*
X0202131Y0145285D01*
X0201988Y0145428D01*
X0201845Y0145500D01*
X0201560D01*
X0201417Y0145428D01*
X0201274Y0145285D01*
X0201203Y0145143D01*
X0201131Y0144928D01*
Y0144571D01*
X0201203Y0144357D01*
X0201274Y0144214D01*
X0201417Y0144071D01*
X0201560Y0144000D01*
X0201845D01*
X0201988Y0144071D01*
X0202131Y0144214D01*
X0202202Y0144357D01*
X0203124Y0145500D02*
Y0144000D01*
X0202624Y0145500D02*
X0203624D01*
X0203802D02*
Y0144000D01*
X0204545Y0145500D02*
X0204402Y0145428D01*
X0204259Y0145285D01*
X0204188Y0145143D01*
X0204116Y0144928D01*
Y0144571D01*
X0204188Y0144357D01*
X0204259Y0144214D01*
X0204402Y0144071D01*
X0204545Y0144000D01*
X0204830D01*
X0204973Y0144071D01*
X0205116Y0144214D01*
X0205187Y0144357D01*
X0205259Y0144571D01*
Y0144928D01*
X0205187Y0145143D01*
X0205116Y0145285D01*
X0204973Y0145428D01*
X0204830Y0145500D01*
X0204545D01*
X0205609D02*
Y0144000D01*
Y0145500D02*
X0206609Y0144000D01*
Y0145500D02*
Y0144000D01*
X0208023Y0145285D02*
X0207880Y0145428D01*
X0207665Y0145500D01*
X0207380D01*
X0207166Y0145428D01*
X0207023Y0145285D01*
Y0145143D01*
X0207094Y0145000D01*
X0207166Y0144928D01*
X0207308Y0144857D01*
X0207737Y0144714D01*
X0207880Y0144643D01*
X0207951Y0144571D01*
X0208023Y0144428D01*
Y0144214D01*
X0207880Y0144071D01*
X0207665Y0144000D01*
X0207380D01*
X0207166Y0144071D01*
X0207023Y0144214D01*
X0060500Y0054000D02*
Y0052500D01*
X0061357D01*
X0062664D02*
X0062093Y0054000D01*
X0061521Y0052500D01*
X0061735Y0053000D02*
X0062450D01*
X0063014Y0054000D02*
Y0052500D01*
Y0054000D02*
X0063585Y0052500D01*
X0064156Y0054000D02*
X0063585Y0052500D01*
X0064156Y0054000D02*
Y0052500D01*
X0064585Y0054000D02*
Y0052500D01*
X0064899Y0054000D02*
Y0052500D01*
Y0054000D02*
X0065899Y0052500D01*
Y0054000D02*
Y0052500D01*
X0067456D02*
X0066884Y0054000D01*
X0066313Y0052500D01*
X0066527Y0053000D02*
X0067241D01*
X0068305Y0054000D02*
Y0052500D01*
X0067806Y0054000D02*
X0068805D01*
X0069912D02*
X0068984D01*
Y0052500D01*
X0069912D01*
X0068984Y0053286D02*
X0069555D01*
X0071341Y0054000D02*
Y0052500D01*
Y0054000D02*
X0071912Y0052500D01*
X0072483Y0054000D02*
X0071912Y0052500D01*
X0072483Y0054000D02*
Y0052500D01*
X0074054D02*
X0073483Y0054000D01*
X0072912Y0052500D01*
X0073126Y0053000D02*
X0073840D01*
X0074904Y0054000D02*
Y0052500D01*
X0074404Y0054000D02*
X0075404D01*
X0076511D02*
X0075582D01*
Y0052500D01*
X0076511D01*
X0075582Y0053286D02*
X0076154D01*
X0076761Y0054000D02*
Y0052500D01*
Y0054000D02*
X0077404D01*
X0077618Y0053928D01*
X0077689Y0053857D01*
X0077761Y0053714D01*
Y0053571D01*
X0077689Y0053428D01*
X0077618Y0053357D01*
X0077404Y0053286D01*
X0076761D01*
X0077261D02*
X0077761Y0052500D01*
X0078096Y0054000D02*
Y0052500D01*
X0079553D02*
X0078982Y0054000D01*
X0078410Y0052500D01*
X0078625Y0053000D02*
X0079339D01*
X0079903Y0054000D02*
Y0052500D01*
X0080760D01*
X0082103Y0053143D02*
X0083388D01*
X0085009Y0054000D02*
Y0052500D01*
Y0054000D02*
X0085937D01*
X0085009Y0053286D02*
X0085580D01*
X0086109Y0054000D02*
Y0052500D01*
Y0054000D02*
X0086752D01*
X0086966Y0053928D01*
X0087037Y0053857D01*
X0087109Y0053714D01*
Y0053571D01*
X0087037Y0053428D01*
X0086966Y0053357D01*
X0086752Y0053286D01*
X0086109D01*
X0086609D02*
X0087109Y0052500D01*
X0088158Y0054000D02*
X0087444Y0053000D01*
X0088515D01*
X0088158Y0054000D02*
Y0052500D01*
X0090458Y0054285D02*
X0090315Y0054143D01*
X0090172Y0053928D01*
X0090029Y0053643D01*
X0089958Y0053286D01*
Y0053000D01*
X0090029Y0052643D01*
X0090172Y0052357D01*
X0090315Y0052143D01*
X0090458Y0052000D01*
X0090315Y0054143D02*
X0090172Y0053857D01*
X0090101Y0053643D01*
X0090029Y0053286D01*
Y0053000D01*
X0090101Y0052643D01*
X0090172Y0052429D01*
X0090315Y0052143D01*
X0090744Y0054000D02*
Y0052500D01*
Y0054000D02*
X0091386D01*
X0091600Y0053928D01*
X0091672Y0053857D01*
X0091743Y0053714D01*
Y0053571D01*
X0091672Y0053428D01*
X0091600Y0053357D01*
X0091386Y0053286D01*
X0090744D01*
X0091243D02*
X0091743Y0052500D01*
X0092507Y0054000D02*
X0092365Y0053928D01*
X0092222Y0053785D01*
X0092150Y0053643D01*
X0092079Y0053428D01*
Y0053071D01*
X0092150Y0052857D01*
X0092222Y0052714D01*
X0092365Y0052571D01*
X0092507Y0052500D01*
X0092793D01*
X0092936Y0052571D01*
X0093079Y0052714D01*
X0093150Y0052857D01*
X0093222Y0053071D01*
Y0053428D01*
X0093150Y0053643D01*
X0093079Y0053785D01*
X0092936Y0053928D01*
X0092793Y0054000D01*
X0092507D01*
X0093571D02*
Y0052500D01*
X0094571Y0054000D02*
Y0052500D01*
X0093571Y0053286D02*
X0094571D01*
X0095985Y0053785D02*
X0095842Y0053928D01*
X0095628Y0054000D01*
X0095343D01*
X0095128Y0053928D01*
X0094985Y0053785D01*
Y0053643D01*
X0095057Y0053500D01*
X0095128Y0053428D01*
X0095271Y0053357D01*
X0095700Y0053214D01*
X0095842Y0053143D01*
X0095914Y0053071D01*
X0095985Y0052928D01*
Y0052714D01*
X0095842Y0052571D01*
X0095628Y0052500D01*
X0095343D01*
X0095128Y0052571D01*
X0094985Y0052714D01*
X0096464Y0052571D02*
X0096392Y0052500D01*
X0096321Y0052571D01*
X0096392Y0052643D01*
X0096464Y0052571D01*
Y0052429D01*
X0096392Y0052286D01*
X0096321Y0052214D01*
X0097971Y0054000D02*
Y0052500D01*
X0098827D01*
X0099920Y0054000D02*
X0098992D01*
Y0052500D01*
X0099920D01*
X0098992Y0053286D02*
X0099563D01*
X0101313Y0052500D02*
X0100741Y0054000D01*
X0100170Y0052500D01*
X0100384Y0053000D02*
X0101098D01*
X0101663Y0054000D02*
Y0052500D01*
Y0054000D02*
X0102162D01*
X0102377Y0053928D01*
X0102520Y0053785D01*
X0102591Y0053643D01*
X0102662Y0053428D01*
Y0053071D01*
X0102591Y0052857D01*
X0102520Y0052714D01*
X0102377Y0052571D01*
X0102162Y0052500D01*
X0101663D01*
X0104176Y0054000D02*
Y0052500D01*
Y0054000D02*
X0105105D01*
X0104176Y0053286D02*
X0104748D01*
X0105276Y0054000D02*
Y0052500D01*
Y0054000D02*
X0105919D01*
X0106133Y0053928D01*
X0106204Y0053857D01*
X0106276Y0053714D01*
Y0053571D01*
X0106204Y0053428D01*
X0106133Y0053357D01*
X0105919Y0053286D01*
X0105276D01*
X0105776D02*
X0106276Y0052500D01*
X0107540Y0054000D02*
X0106612D01*
Y0052500D01*
X0107540D01*
X0106612Y0053286D02*
X0107183D01*
X0108718Y0054000D02*
X0107790D01*
Y0052500D01*
X0108718D01*
X0107790Y0053286D02*
X0108361D01*
X0110146Y0053214D02*
X0110789D01*
X0111003Y0053286D01*
X0111075Y0053357D01*
X0111146Y0053500D01*
Y0053714D01*
X0111075Y0053857D01*
X0111003Y0053928D01*
X0110789Y0054000D01*
X0110146D01*
Y0052500D01*
X0111482Y0054000D02*
Y0052500D01*
Y0054000D02*
X0112125D01*
X0112339Y0053928D01*
X0112410Y0053857D01*
X0112482Y0053714D01*
Y0053571D01*
X0112410Y0053428D01*
X0112339Y0053357D01*
X0112125Y0053286D01*
X0111482D01*
X0111982D02*
X0112482Y0052500D01*
X0113246Y0054000D02*
X0113103Y0053928D01*
X0112960Y0053785D01*
X0112889Y0053643D01*
X0112817Y0053428D01*
Y0053071D01*
X0112889Y0052857D01*
X0112960Y0052714D01*
X0113103Y0052571D01*
X0113246Y0052500D01*
X0113531D01*
X0113674Y0052571D01*
X0113817Y0052714D01*
X0113889Y0052857D01*
X0113960Y0053071D01*
Y0053428D01*
X0113889Y0053643D01*
X0113817Y0053785D01*
X0113674Y0053928D01*
X0113531Y0054000D01*
X0113246D01*
X0115381Y0053643D02*
X0115310Y0053785D01*
X0115167Y0053928D01*
X0115024Y0054000D01*
X0114738D01*
X0114596Y0053928D01*
X0114453Y0053785D01*
X0114381Y0053643D01*
X0114310Y0053428D01*
Y0053071D01*
X0114381Y0052857D01*
X0114453Y0052714D01*
X0114596Y0052571D01*
X0114738Y0052500D01*
X0115024D01*
X0115167Y0052571D01*
X0115310Y0052714D01*
X0115381Y0052857D01*
X0116731Y0054000D02*
X0115802D01*
Y0052500D01*
X0116731D01*
X0115802Y0053286D02*
X0116374D01*
X0117981Y0053785D02*
X0117838Y0053928D01*
X0117623Y0054000D01*
X0117338D01*
X0117124Y0053928D01*
X0116981Y0053785D01*
Y0053643D01*
X0117052Y0053500D01*
X0117124Y0053428D01*
X0117266Y0053357D01*
X0117695Y0053214D01*
X0117838Y0053143D01*
X0117909Y0053071D01*
X0117981Y0052928D01*
Y0052714D01*
X0117838Y0052571D01*
X0117623Y0052500D01*
X0117338D01*
X0117124Y0052571D01*
X0116981Y0052714D01*
X0119316Y0053785D02*
X0119173Y0053928D01*
X0118959Y0054000D01*
X0118673D01*
X0118459Y0053928D01*
X0118316Y0053785D01*
Y0053643D01*
X0118388Y0053500D01*
X0118459Y0053428D01*
X0118602Y0053357D01*
X0119030Y0053214D01*
X0119173Y0053143D01*
X0119245Y0053071D01*
X0119316Y0052928D01*
Y0052714D01*
X0119173Y0052571D01*
X0118959Y0052500D01*
X0118673D01*
X0118459Y0052571D01*
X0118316Y0052714D01*
X0121901Y0053643D02*
X0121830Y0053785D01*
X0121687Y0053928D01*
X0121544Y0054000D01*
X0121258D01*
X0121116Y0053928D01*
X0120973Y0053785D01*
X0120901Y0053643D01*
X0120830Y0053428D01*
Y0053071D01*
X0120901Y0052857D01*
X0120973Y0052714D01*
X0121116Y0052571D01*
X0121258Y0052500D01*
X0121544D01*
X0121687Y0052571D01*
X0121830Y0052714D01*
X0121901Y0052857D01*
X0122751Y0054000D02*
X0122608Y0053928D01*
X0122465Y0053785D01*
X0122394Y0053643D01*
X0122322Y0053428D01*
Y0053071D01*
X0122394Y0052857D01*
X0122465Y0052714D01*
X0122608Y0052571D01*
X0122751Y0052500D01*
X0123037D01*
X0123179Y0052571D01*
X0123322Y0052714D01*
X0123394Y0052857D01*
X0123465Y0053071D01*
Y0053428D01*
X0123394Y0053643D01*
X0123322Y0053785D01*
X0123179Y0053928D01*
X0123037Y0054000D01*
X0122751D01*
X0123815D02*
Y0052500D01*
Y0054000D02*
X0124386Y0052500D01*
X0124958Y0054000D02*
X0124386Y0052500D01*
X0124958Y0054000D02*
Y0052500D01*
X0125386Y0053214D02*
X0126029D01*
X0126243Y0053286D01*
X0126314Y0053357D01*
X0126386Y0053500D01*
Y0053714D01*
X0126314Y0053857D01*
X0126243Y0053928D01*
X0126029Y0054000D01*
X0125386D01*
Y0052500D01*
X0127864D02*
X0127293Y0054000D01*
X0126722Y0052500D01*
X0126936Y0053000D02*
X0127650D01*
X0128714Y0054000D02*
Y0052500D01*
X0128214Y0054000D02*
X0129214D01*
X0129392D02*
Y0052500D01*
X0129707Y0054000D02*
Y0052500D01*
Y0054000D02*
X0130349D01*
X0130564Y0053928D01*
X0130635Y0053857D01*
X0130706Y0053714D01*
Y0053571D01*
X0130635Y0053428D01*
X0130564Y0053357D01*
X0130349Y0053286D01*
X0129707D02*
X0130349D01*
X0130564Y0053214D01*
X0130635Y0053143D01*
X0130706Y0053000D01*
Y0052786D01*
X0130635Y0052643D01*
X0130564Y0052571D01*
X0130349Y0052500D01*
X0129707D01*
X0131042Y0054000D02*
Y0052500D01*
X0131899D01*
X0132992Y0054000D02*
X0132063D01*
Y0052500D01*
X0132992D01*
X0132063Y0053286D02*
X0132635D01*
X0133242Y0054285D02*
X0133384Y0054143D01*
X0133527Y0053928D01*
X0133670Y0053643D01*
X0133741Y0053286D01*
Y0053000D01*
X0133670Y0052643D01*
X0133527Y0052357D01*
X0133384Y0052143D01*
X0133242Y0052000D01*
X0133384Y0054143D02*
X0133527Y0053857D01*
X0133599Y0053643D01*
X0133670Y0053286D01*
Y0053000D01*
X0133599Y0052643D01*
X0133527Y0052429D01*
X0133384Y0052143D01*
X0134177Y0052643D02*
X0134106Y0052571D01*
X0134177Y0052500D01*
X0134248Y0052571D01*
X0134177Y0052643D01*
X0249071Y0035643D02*
X0249000Y0035785D01*
X0248857Y0035928D01*
X0248714Y0036000D01*
X0248428D01*
X0248286Y0035928D01*
X0248143Y0035785D01*
X0248071Y0035643D01*
X0248000Y0035428D01*
Y0035071D01*
X0248071Y0034857D01*
X0248143Y0034714D01*
X0248286Y0034571D01*
X0248428Y0034500D01*
X0248714D01*
X0248857Y0034571D01*
X0249000Y0034714D01*
X0249071Y0034857D01*
X0249921Y0036000D02*
X0249778Y0035928D01*
X0249635Y0035785D01*
X0249564Y0035643D01*
X0249493Y0035428D01*
Y0035071D01*
X0249564Y0034857D01*
X0249635Y0034714D01*
X0249778Y0034571D01*
X0249921Y0034500D01*
X0250207D01*
X0250350Y0034571D01*
X0250492Y0034714D01*
X0250564Y0034857D01*
X0250635Y0035071D01*
Y0035428D01*
X0250564Y0035643D01*
X0250492Y0035785D01*
X0250350Y0035928D01*
X0250207Y0036000D01*
X0249921D01*
X0250985D02*
Y0034500D01*
Y0036000D02*
X0251985Y0034500D01*
Y0036000D02*
Y0034500D01*
X0252399Y0036000D02*
Y0034500D01*
Y0036000D02*
X0253327D01*
X0252399Y0035286D02*
X0252970D01*
X0253499Y0036000D02*
Y0034500D01*
X0253813Y0036000D02*
Y0034500D01*
Y0036000D02*
X0254313D01*
X0254527Y0035928D01*
X0254670Y0035785D01*
X0254741Y0035643D01*
X0254813Y0035428D01*
Y0035071D01*
X0254741Y0034857D01*
X0254670Y0034714D01*
X0254527Y0034571D01*
X0254313Y0034500D01*
X0253813D01*
X0256077Y0036000D02*
X0255148D01*
Y0034500D01*
X0256077D01*
X0255148Y0035286D02*
X0255720D01*
X0256327Y0036000D02*
Y0034500D01*
Y0036000D02*
X0257327Y0034500D01*
Y0036000D02*
Y0034500D01*
X0258241Y0036000D02*
Y0034500D01*
X0257741Y0036000D02*
X0258741D01*
X0258919D02*
Y0034500D01*
X0260376D02*
X0259805Y0036000D01*
X0259233Y0034500D01*
X0259448Y0035000D02*
X0260162D01*
X0260726Y0036000D02*
Y0034500D01*
X0261583D01*
X0262925Y0036000D02*
Y0034500D01*
X0263240Y0036000D02*
Y0034500D01*
Y0036000D02*
X0264239Y0034500D01*
Y0036000D02*
Y0034500D01*
X0264654Y0036000D02*
Y0034500D01*
Y0036000D02*
X0265582D01*
X0264654Y0035286D02*
X0265225D01*
X0266182Y0036000D02*
X0266039Y0035928D01*
X0265896Y0035785D01*
X0265825Y0035643D01*
X0265753Y0035428D01*
Y0035071D01*
X0265825Y0034857D01*
X0265896Y0034714D01*
X0266039Y0034571D01*
X0266182Y0034500D01*
X0266467D01*
X0266610Y0034571D01*
X0266753Y0034714D01*
X0266825Y0034857D01*
X0266896Y0035071D01*
Y0035428D01*
X0266825Y0035643D01*
X0266753Y0035785D01*
X0266610Y0035928D01*
X0266467Y0036000D01*
X0266182D01*
X0267246D02*
Y0034500D01*
Y0036000D02*
X0267889D01*
X0268103Y0035928D01*
X0268174Y0035857D01*
X0268246Y0035714D01*
Y0035571D01*
X0268174Y0035428D01*
X0268103Y0035357D01*
X0267889Y0035286D01*
X0267246D01*
X0267746D02*
X0268246Y0034500D01*
X0268581Y0036000D02*
Y0034500D01*
Y0036000D02*
X0269153Y0034500D01*
X0269724Y0036000D02*
X0269153Y0034500D01*
X0269724Y0036000D02*
Y0034500D01*
X0271295D02*
X0270724Y0036000D01*
X0270152Y0034500D01*
X0270367Y0035000D02*
X0271081D01*
X0272145Y0036000D02*
Y0034500D01*
X0271645Y0036000D02*
X0272645D01*
X0272823D02*
Y0034500D01*
X0273566Y0036000D02*
X0273423Y0035928D01*
X0273280Y0035785D01*
X0273209Y0035643D01*
X0273137Y0035428D01*
Y0035071D01*
X0273209Y0034857D01*
X0273280Y0034714D01*
X0273423Y0034571D01*
X0273566Y0034500D01*
X0273852D01*
X0273994Y0034571D01*
X0274137Y0034714D01*
X0274209Y0034857D01*
X0274280Y0035071D01*
Y0035428D01*
X0274209Y0035643D01*
X0274137Y0035785D01*
X0273994Y0035928D01*
X0273852Y0036000D01*
X0273566D01*
X0274630D02*
Y0034500D01*
Y0036000D02*
X0275630Y0034500D01*
Y0036000D02*
Y0034500D01*
X0276115Y0034643D02*
X0276044Y0034571D01*
X0276115Y0034500D01*
X0276187Y0034571D01*
X0276115Y0034643D01*
X0278836Y0034500D02*
X0278265Y0036000D01*
X0277694Y0034500D01*
X0277908Y0035000D02*
X0278622D01*
X0279186Y0036000D02*
Y0034500D01*
X0280043D01*
X0280207Y0036000D02*
Y0034500D01*
X0281064D01*
X0282407Y0036000D02*
Y0034500D01*
Y0036000D02*
X0283050D01*
X0283264Y0035928D01*
X0283335Y0035857D01*
X0283407Y0035714D01*
Y0035571D01*
X0283335Y0035428D01*
X0283264Y0035357D01*
X0283050Y0035286D01*
X0282407D01*
X0282907D02*
X0283407Y0034500D01*
X0283742Y0036000D02*
Y0034500D01*
X0285128Y0035643D02*
X0285056Y0035785D01*
X0284914Y0035928D01*
X0284771Y0036000D01*
X0284485D01*
X0284342Y0035928D01*
X0284199Y0035785D01*
X0284128Y0035643D01*
X0284057Y0035428D01*
Y0035071D01*
X0284128Y0034857D01*
X0284199Y0034714D01*
X0284342Y0034571D01*
X0284485Y0034500D01*
X0284771D01*
X0284914Y0034571D01*
X0285056Y0034714D01*
X0285128Y0034857D01*
Y0035071D01*
X0284771D02*
X0285128D01*
X0285471Y0036000D02*
Y0034500D01*
X0286470Y0036000D02*
Y0034500D01*
X0285471Y0035286D02*
X0286470D01*
X0287384Y0036000D02*
Y0034500D01*
X0286885Y0036000D02*
X0287884D01*
X0289063Y0035785D02*
X0288920Y0035928D01*
X0288706Y0036000D01*
X0288420D01*
X0288206Y0035928D01*
X0288063Y0035785D01*
Y0035643D01*
X0288134Y0035500D01*
X0288206Y0035428D01*
X0288348Y0035357D01*
X0288777Y0035214D01*
X0288920Y0035143D01*
X0288991Y0035071D01*
X0289063Y0034928D01*
Y0034714D01*
X0288920Y0034571D01*
X0288706Y0034500D01*
X0288420D01*
X0288206Y0034571D01*
X0288063Y0034714D01*
X0290577Y0036000D02*
Y0034500D01*
Y0036000D02*
X0291219D01*
X0291434Y0035928D01*
X0291505Y0035857D01*
X0291576Y0035714D01*
Y0035571D01*
X0291505Y0035428D01*
X0291434Y0035357D01*
X0291219Y0035286D01*
X0290577D01*
X0291076D02*
X0291576Y0034500D01*
X0292840Y0036000D02*
X0291912D01*
Y0034500D01*
X0292840D01*
X0291912Y0035286D02*
X0292483D01*
X0294090Y0035785D02*
X0293947Y0035928D01*
X0293733Y0036000D01*
X0293447D01*
X0293233Y0035928D01*
X0293090Y0035785D01*
Y0035643D01*
X0293162Y0035500D01*
X0293233Y0035428D01*
X0293376Y0035357D01*
X0293804Y0035214D01*
X0293947Y0035143D01*
X0294019Y0035071D01*
X0294090Y0034928D01*
Y0034714D01*
X0293947Y0034571D01*
X0293733Y0034500D01*
X0293447D01*
X0293233Y0034571D01*
X0293090Y0034714D01*
X0295354Y0036000D02*
X0294426D01*
Y0034500D01*
X0295354D01*
X0294426Y0035286D02*
X0294997D01*
X0295604Y0036000D02*
Y0034500D01*
Y0036000D02*
X0296247D01*
X0296461Y0035928D01*
X0296532Y0035857D01*
X0296604Y0035714D01*
Y0035571D01*
X0296532Y0035428D01*
X0296461Y0035357D01*
X0296247Y0035286D01*
X0295604D01*
X0296104D02*
X0296604Y0034500D01*
X0296940Y0036000D02*
X0297511Y0034500D01*
X0298082Y0036000D02*
X0297511Y0034500D01*
X0299203Y0036000D02*
X0298275D01*
Y0034500D01*
X0299203D01*
X0298275Y0035286D02*
X0298846D01*
X0299453Y0036000D02*
Y0034500D01*
Y0036000D02*
X0299953D01*
X0300167Y0035928D01*
X0300310Y0035785D01*
X0300382Y0035643D01*
X0300453Y0035428D01*
Y0035071D01*
X0300382Y0034857D01*
X0300310Y0034714D01*
X0300167Y0034571D01*
X0299953Y0034500D01*
X0299453D01*
X0300860Y0034643D02*
X0300789Y0034571D01*
X0300860Y0034500D01*
X0300932Y0034571D01*
X0300860Y0034643D01*
X0266071Y0042143D02*
Y0042214D01*
X0266143Y0042357D01*
X0266214Y0042428D01*
X0266357Y0042500D01*
X0266643D01*
X0266786Y0042428D01*
X0266857Y0042357D01*
X0266928Y0042214D01*
Y0042071D01*
X0266857Y0041928D01*
X0266714Y0041714D01*
X0266000Y0041000D01*
X0267000D01*
X0268335Y0042500D02*
X0267621Y0041000D01*
X0267335Y0042500D02*
X0268335D01*
X0269849D02*
Y0041000D01*
Y0042500D02*
X0270420Y0041000D01*
X0270992Y0042500D02*
X0270420Y0041000D01*
X0270992Y0042500D02*
Y0041000D01*
X0272563D02*
X0271992Y0042500D01*
X0271420Y0041000D01*
X0271634Y0041500D02*
X0272349D01*
X0272913Y0042500D02*
X0273484Y0041786D01*
Y0041000D01*
X0274055Y0042500D02*
X0273484Y0041786D01*
X0275498Y0042143D02*
Y0042214D01*
X0275569Y0042357D01*
X0275641Y0042428D01*
X0275784Y0042500D01*
X0276069D01*
X0276212Y0042428D01*
X0276284Y0042357D01*
X0276355Y0042214D01*
Y0042071D01*
X0276284Y0041928D01*
X0276141Y0041714D01*
X0275427Y0041000D01*
X0276426D01*
X0277190Y0042500D02*
X0276976Y0042428D01*
X0276833Y0042214D01*
X0276762Y0041857D01*
Y0041643D01*
X0276833Y0041286D01*
X0276976Y0041071D01*
X0277190Y0041000D01*
X0277333D01*
X0277548Y0041071D01*
X0277690Y0041286D01*
X0277762Y0041643D01*
Y0041857D01*
X0277690Y0042214D01*
X0277548Y0042428D01*
X0277333Y0042500D01*
X0277190D01*
X0278097Y0042214D02*
X0278240Y0042285D01*
X0278454Y0042500D01*
Y0041000D01*
X0280054Y0042500D02*
X0279340D01*
X0279269Y0041857D01*
X0279340Y0041928D01*
X0279554Y0042000D01*
X0279768D01*
X0279983Y0041928D01*
X0280126Y0041786D01*
X0280197Y0041571D01*
Y0041428D01*
X0280126Y0041214D01*
X0279983Y0041071D01*
X0279768Y0041000D01*
X0279554D01*
X0279340Y0041071D01*
X0279269Y0041143D01*
X0279197Y0041286D01*
X0295571Y0042143D02*
Y0042214D01*
X0295643Y0042357D01*
X0295714Y0042428D01*
X0295857Y0042500D01*
X0296143D01*
X0296286Y0042428D01*
X0296357Y0042357D01*
X0296428Y0042214D01*
Y0042071D01*
X0296357Y0041928D01*
X0296214Y0041714D01*
X0295500Y0041000D01*
X0296500D01*
X0296835Y0042500D02*
X0297407Y0041000D01*
X0297978Y0042500D02*
X0297407Y0041000D01*
X0298171Y0042214D02*
X0298314Y0042285D01*
X0298528Y0042500D01*
Y0041000D01*
X0261071Y0038143D02*
X0261000Y0038285D01*
X0260857Y0038428D01*
X0260714Y0038500D01*
X0260428D01*
X0260286Y0038428D01*
X0260143Y0038285D01*
X0260071Y0038143D01*
X0260000Y0037928D01*
Y0037571D01*
X0260071Y0037357D01*
X0260143Y0037214D01*
X0260286Y0037071D01*
X0260428Y0037000D01*
X0260714D01*
X0260857Y0037071D01*
X0261000Y0037214D01*
X0261071Y0037357D01*
X0261921Y0038500D02*
X0261778Y0038428D01*
X0261635Y0038285D01*
X0261564Y0038143D01*
X0261493Y0037928D01*
Y0037571D01*
X0261564Y0037357D01*
X0261635Y0037214D01*
X0261778Y0037071D01*
X0261921Y0037000D01*
X0262207D01*
X0262349Y0037071D01*
X0262492Y0037214D01*
X0262564Y0037357D01*
X0262635Y0037571D01*
Y0037928D01*
X0262564Y0038143D01*
X0262492Y0038285D01*
X0262349Y0038428D01*
X0262207Y0038500D01*
X0261921D01*
X0262985Y0037714D02*
X0263628D01*
X0263842Y0037786D01*
X0263913Y0037857D01*
X0263985Y0038000D01*
Y0038214D01*
X0263913Y0038357D01*
X0263842Y0038428D01*
X0263628Y0038500D01*
X0262985D01*
Y0037000D01*
X0264320Y0038500D02*
X0264892Y0037786D01*
Y0037000D01*
X0265463Y0038500D02*
X0264892Y0037786D01*
X0265656Y0038500D02*
Y0037000D01*
Y0038500D02*
X0266299D01*
X0266513Y0038428D01*
X0266584Y0038357D01*
X0266656Y0038214D01*
Y0038071D01*
X0266584Y0037928D01*
X0266513Y0037857D01*
X0266299Y0037786D01*
X0265656D01*
X0266156D02*
X0266656Y0037000D01*
X0266991Y0038500D02*
Y0037000D01*
X0268377Y0038143D02*
X0268305Y0038285D01*
X0268163Y0038428D01*
X0268020Y0038500D01*
X0267734D01*
X0267591Y0038428D01*
X0267448Y0038285D01*
X0267377Y0038143D01*
X0267306Y0037928D01*
Y0037571D01*
X0267377Y0037357D01*
X0267448Y0037214D01*
X0267591Y0037071D01*
X0267734Y0037000D01*
X0268020D01*
X0268163Y0037071D01*
X0268305Y0037214D01*
X0268377Y0037357D01*
Y0037571D01*
X0268020D02*
X0268377D01*
X0268720Y0038500D02*
Y0037000D01*
X0269719Y0038500D02*
Y0037000D01*
X0268720Y0037786D02*
X0269719D01*
X0270633Y0038500D02*
Y0037000D01*
X0270134Y0038500D02*
X0271133D01*
X0272562Y0038143D02*
Y0038214D01*
X0272633Y0038357D01*
X0272704Y0038428D01*
X0272847Y0038500D01*
X0273133D01*
X0273276Y0038428D01*
X0273347Y0038357D01*
X0273419Y0038214D01*
Y0038071D01*
X0273347Y0037928D01*
X0273204Y0037714D01*
X0272490Y0037000D01*
X0273490D01*
X0274254Y0038500D02*
X0274040Y0038428D01*
X0273897Y0038214D01*
X0273826Y0037857D01*
Y0037643D01*
X0273897Y0037286D01*
X0274040Y0037071D01*
X0274254Y0037000D01*
X0274397D01*
X0274611Y0037071D01*
X0274754Y0037286D01*
X0274825Y0037643D01*
Y0037857D01*
X0274754Y0038214D01*
X0274611Y0038428D01*
X0274397Y0038500D01*
X0274254D01*
X0275161Y0038214D02*
X0275304Y0038285D01*
X0275518Y0038500D01*
Y0037000D01*
X0277118Y0038500D02*
X0276404D01*
X0276332Y0037857D01*
X0276404Y0037928D01*
X0276618Y0038000D01*
X0276832D01*
X0277046Y0037928D01*
X0277189Y0037786D01*
X0277261Y0037571D01*
Y0037428D01*
X0277189Y0037214D01*
X0277046Y0037071D01*
X0276832Y0037000D01*
X0276618D01*
X0276404Y0037071D01*
X0276332Y0037143D01*
X0276261Y0037286D01*
X0278775Y0038500D02*
X0279774Y0037000D01*
Y0038500D02*
X0278775Y0037000D01*
X0280110Y0038500D02*
Y0037000D01*
Y0038500D02*
X0280681Y0037000D01*
X0281253Y0038500D02*
X0280681Y0037000D01*
X0281253Y0038500D02*
Y0037000D01*
X0282110Y0038500D02*
X0281967Y0038428D01*
X0281824Y0038285D01*
X0281752Y0038143D01*
X0281681Y0037928D01*
Y0037571D01*
X0281752Y0037357D01*
X0281824Y0037214D01*
X0281967Y0037071D01*
X0282110Y0037000D01*
X0282395D01*
X0282538Y0037071D01*
X0282681Y0037214D01*
X0282752Y0037357D01*
X0282824Y0037571D01*
Y0037928D01*
X0282752Y0038143D01*
X0282681Y0038285D01*
X0282538Y0038428D01*
X0282395Y0038500D01*
X0282110D01*
X0284173Y0038285D02*
X0284031Y0038428D01*
X0283816Y0038500D01*
X0283531D01*
X0283316Y0038428D01*
X0283174Y0038285D01*
Y0038143D01*
X0283245Y0038000D01*
X0283316Y0037928D01*
X0283459Y0037857D01*
X0283888Y0037714D01*
X0284031Y0037643D01*
X0284102Y0037571D01*
X0284173Y0037428D01*
Y0037214D01*
X0284031Y0037071D01*
X0283816Y0037000D01*
X0283531D01*
X0283316Y0037071D01*
X0283174Y0037214D01*
X0285687Y0038500D02*
Y0037000D01*
X0286544D01*
X0287208Y0038500D02*
Y0037000D01*
X0286709Y0038500D02*
X0287708D01*
X0287887D02*
Y0037000D01*
Y0038500D02*
X0288387D01*
X0288601Y0038428D01*
X0288744Y0038285D01*
X0288815Y0038143D01*
X0288887Y0037928D01*
Y0037571D01*
X0288815Y0037357D01*
X0288744Y0037214D01*
X0288601Y0037071D01*
X0288387Y0037000D01*
X0287887D01*
X0249143Y0041000D02*
X0248571Y0042500D01*
X0248000Y0041000D01*
X0248214Y0041500D02*
X0248928D01*
X0250207Y0042500D02*
X0249493Y0041500D01*
X0250564D01*
X0250207Y0042500D02*
Y0041000D01*
X0247500Y0045285D02*
X0247357Y0045428D01*
X0247143Y0045500D01*
X0246857D01*
X0246643Y0045428D01*
X0246500Y0045285D01*
Y0045143D01*
X0246571Y0045000D01*
X0246643Y0044928D01*
X0246786Y0044857D01*
X0247214Y0044714D01*
X0247357Y0044643D01*
X0247428Y0044571D01*
X0247500Y0044428D01*
Y0044214D01*
X0247357Y0044071D01*
X0247143Y0044000D01*
X0246857D01*
X0246643Y0044071D01*
X0246500Y0044214D01*
X0247835Y0045500D02*
Y0044000D01*
X0248835Y0045500D02*
Y0044000D01*
X0247835Y0044786D02*
X0248835D01*
X0250178Y0045500D02*
X0249249D01*
Y0044000D01*
X0250178D01*
X0249249Y0044786D02*
X0249821D01*
X0251356Y0045500D02*
X0250428D01*
Y0044000D01*
X0251356D01*
X0250428Y0044786D02*
X0250999D01*
X0252106Y0045500D02*
Y0044000D01*
X0251606Y0045500D02*
X0252606D01*
X0270500D02*
Y0044000D01*
Y0045500D02*
X0271000D01*
X0271214Y0045428D01*
X0271357Y0045285D01*
X0271428Y0045143D01*
X0271500Y0044928D01*
Y0044571D01*
X0271428Y0044357D01*
X0271357Y0044214D01*
X0271214Y0044071D01*
X0271000Y0044000D01*
X0270500D01*
X0272978D02*
X0272407Y0045500D01*
X0271835Y0044000D01*
X0272050Y0044500D02*
X0272764D01*
X0273828Y0045500D02*
Y0044000D01*
X0273328Y0045500D02*
X0274328D01*
X0275435D02*
X0274506D01*
Y0044000D01*
X0275435D01*
X0274506Y0044786D02*
X0275078D01*
X0293500Y0045500D02*
Y0044000D01*
Y0045500D02*
X0294143D01*
X0294357Y0045428D01*
X0294428Y0045357D01*
X0294500Y0045214D01*
Y0045071D01*
X0294428Y0044928D01*
X0294357Y0044857D01*
X0294143Y0044786D01*
X0293500D01*
X0294000D02*
X0294500Y0044000D01*
X0295764Y0045500D02*
X0294835D01*
Y0044000D01*
X0295764D01*
X0294835Y0044786D02*
X0295407D01*
X0296014Y0045500D02*
X0296585Y0044000D01*
X0297156Y0045500D02*
X0296585Y0044000D01*
X0297349Y0045500D02*
Y0044000D01*
X0298663Y0045285D02*
X0298520Y0045428D01*
X0298306Y0045500D01*
X0298020D01*
X0297806Y0045428D01*
X0297663Y0045285D01*
Y0045143D01*
X0297735Y0045000D01*
X0297806Y0044928D01*
X0297949Y0044857D01*
X0298378Y0044714D01*
X0298520Y0044643D01*
X0298592Y0044571D01*
X0298663Y0044428D01*
Y0044214D01*
X0298520Y0044071D01*
X0298306Y0044000D01*
X0298020D01*
X0297806Y0044071D01*
X0297663Y0044214D01*
X0298999Y0045500D02*
Y0044000D01*
X0299742Y0045500D02*
X0299599Y0045428D01*
X0299456Y0045285D01*
X0299384Y0045143D01*
X0299313Y0044928D01*
Y0044571D01*
X0299384Y0044357D01*
X0299456Y0044214D01*
X0299599Y0044071D01*
X0299742Y0044000D01*
X0300027D01*
X0300170Y0044071D01*
X0300313Y0044214D01*
X0300384Y0044357D01*
X0300456Y0044571D01*
Y0044928D01*
X0300384Y0045143D01*
X0300313Y0045285D01*
X0300170Y0045428D01*
X0300027Y0045500D01*
X0299742D01*
X0300806D02*
Y0044000D01*
Y0045500D02*
X0301805Y0044000D01*
Y0045500D02*
Y0044000D01*
X0270714Y0049500D02*
Y0048357D01*
X0270643Y0048143D01*
X0270571Y0048071D01*
X0270428Y0048000D01*
X0270286D01*
X0270143Y0048071D01*
X0270071Y0048143D01*
X0270000Y0048357D01*
Y0048500D01*
X0272171Y0049143D02*
X0272100Y0049285D01*
X0271957Y0049428D01*
X0271814Y0049500D01*
X0271528D01*
X0271385Y0049428D01*
X0271243Y0049285D01*
X0271171Y0049143D01*
X0271100Y0048928D01*
Y0048571D01*
X0271171Y0048357D01*
X0271243Y0048214D01*
X0271385Y0048071D01*
X0271528Y0048000D01*
X0271814D01*
X0271957Y0048071D01*
X0272100Y0048214D01*
X0272171Y0048357D01*
Y0048571D01*
X0271814D02*
X0272171D01*
X0272514Y0049500D02*
Y0048000D01*
Y0049500D02*
X0273156D01*
X0273371Y0049428D01*
X0273442Y0049357D01*
X0273514Y0049214D01*
Y0049071D01*
X0273442Y0048928D01*
X0273371Y0048857D01*
X0273156Y0048786D01*
X0272514D02*
X0273156D01*
X0273371Y0048714D01*
X0273442Y0048643D01*
X0273514Y0048500D01*
Y0048286D01*
X0273442Y0048143D01*
X0273371Y0048071D01*
X0273156Y0048000D01*
X0272514D01*
X0274278Y0049500D02*
X0274063Y0049428D01*
X0273921Y0049214D01*
X0273849Y0048857D01*
Y0048643D01*
X0273921Y0048286D01*
X0274063Y0048071D01*
X0274278Y0048000D01*
X0274420D01*
X0274635Y0048071D01*
X0274778Y0048286D01*
X0274849Y0048643D01*
Y0048857D01*
X0274778Y0049214D01*
X0274635Y0049428D01*
X0274420Y0049500D01*
X0274278D01*
X0275613D02*
X0275399Y0049428D01*
X0275256Y0049214D01*
X0275185Y0048857D01*
Y0048643D01*
X0275256Y0048286D01*
X0275399Y0048071D01*
X0275613Y0048000D01*
X0275756D01*
X0275970Y0048071D01*
X0276113Y0048286D01*
X0276184Y0048643D01*
Y0048857D01*
X0276113Y0049214D01*
X0275970Y0049428D01*
X0275756Y0049500D01*
X0275613D01*
X0276949D02*
X0276734Y0049428D01*
X0276591Y0049214D01*
X0276520Y0048857D01*
Y0048643D01*
X0276591Y0048286D01*
X0276734Y0048071D01*
X0276949Y0048000D01*
X0277091D01*
X0277306Y0048071D01*
X0277448Y0048286D01*
X0277520Y0048643D01*
Y0048857D01*
X0277448Y0049214D01*
X0277306Y0049428D01*
X0277091Y0049500D01*
X0276949D01*
X0277855Y0049214D02*
X0277998Y0049285D01*
X0278213Y0049500D01*
Y0048000D01*
X0266500Y0051714D02*
X0267143D01*
X0267357Y0051786D01*
X0267428Y0051857D01*
X0267500Y0052000D01*
Y0052214D01*
X0267428Y0052357D01*
X0267357Y0052428D01*
X0267143Y0052500D01*
X0266500D01*
Y0051000D01*
X0267835Y0052500D02*
Y0051000D01*
Y0052500D02*
X0268478D01*
X0268692Y0052428D01*
X0268764Y0052357D01*
X0268835Y0052214D01*
Y0052071D01*
X0268764Y0051928D01*
X0268692Y0051857D01*
X0268478Y0051786D01*
X0267835D01*
X0268335D02*
X0268835Y0051000D01*
X0269599Y0052500D02*
X0269457Y0052428D01*
X0269314Y0052285D01*
X0269242Y0052143D01*
X0269171Y0051928D01*
Y0051571D01*
X0269242Y0051357D01*
X0269314Y0051214D01*
X0269457Y0051071D01*
X0269599Y0051000D01*
X0269885D01*
X0270028Y0051071D01*
X0270171Y0051214D01*
X0270242Y0051357D01*
X0270313Y0051571D01*
Y0051928D01*
X0270242Y0052143D01*
X0270171Y0052285D01*
X0270028Y0052428D01*
X0269885Y0052500D01*
X0269599D01*
X0271378D02*
Y0051357D01*
X0271306Y0051143D01*
X0271235Y0051071D01*
X0271092Y0051000D01*
X0270949D01*
X0270806Y0051071D01*
X0270735Y0051143D01*
X0270663Y0051357D01*
Y0051500D01*
X0272692Y0052500D02*
X0271763D01*
Y0051000D01*
X0272692D01*
X0271763Y0051786D02*
X0272334D01*
X0274013Y0052143D02*
X0273941Y0052285D01*
X0273798Y0052428D01*
X0273656Y0052500D01*
X0273370D01*
X0273227Y0052428D01*
X0273084Y0052285D01*
X0273013Y0052143D01*
X0272941Y0051928D01*
Y0051571D01*
X0273013Y0051357D01*
X0273084Y0051214D01*
X0273227Y0051071D01*
X0273370Y0051000D01*
X0273656D01*
X0273798Y0051071D01*
X0273941Y0051214D01*
X0274013Y0051357D01*
X0274934Y0052500D02*
Y0051000D01*
X0274434Y0052500D02*
X0275434D01*
X0276791D02*
Y0051000D01*
Y0052500D02*
X0277790Y0051000D01*
Y0052500D02*
Y0051000D01*
X0279347D02*
X0278776Y0052500D01*
X0278205Y0051000D01*
X0278419Y0051500D02*
X0279133D01*
X0279697Y0052500D02*
Y0051000D01*
Y0052500D02*
X0280268Y0051000D01*
X0280840Y0052500D02*
X0280268Y0051000D01*
X0280840Y0052500D02*
Y0051000D01*
X0282197Y0052500D02*
X0281268D01*
Y0051000D01*
X0282197D01*
X0281268Y0051786D02*
X0281840D01*
X0087214Y0085000D02*
X0086500Y0084000D01*
X0087571D01*
X0087214Y0085000D02*
Y0083500D01*
X0089014Y0085000D02*
Y0083500D01*
X0089871D01*
X0091178D02*
X0090606Y0085000D01*
X0090035Y0083500D01*
X0090249Y0084000D02*
X0090963D01*
X0091527Y0085000D02*
X0092099Y0084286D01*
Y0083500D01*
X0092670Y0085000D02*
X0092099Y0084286D01*
X0093791Y0085000D02*
X0092863D01*
Y0083500D01*
X0093791D01*
X0092863Y0084286D02*
X0093434D01*
X0094041Y0085000D02*
Y0083500D01*
Y0085000D02*
X0094684D01*
X0094898Y0084928D01*
X0094970Y0084857D01*
X0095041Y0084714D01*
Y0084571D01*
X0094970Y0084428D01*
X0094898Y0084357D01*
X0094684Y0084286D01*
X0094041D01*
X0094541D02*
X0095041Y0083500D01*
X0096555Y0085000D02*
Y0083500D01*
Y0085000D02*
X0097198D01*
X0097412Y0084928D01*
X0097483Y0084857D01*
X0097555Y0084714D01*
Y0084571D01*
X0097483Y0084428D01*
X0097412Y0084357D01*
X0097198Y0084286D01*
X0096555D02*
X0097198D01*
X0097412Y0084214D01*
X0097483Y0084143D01*
X0097555Y0084000D01*
Y0083786D01*
X0097483Y0083643D01*
X0097412Y0083571D01*
X0097198Y0083500D01*
X0096555D01*
X0098319Y0085000D02*
X0098176Y0084928D01*
X0098033Y0084785D01*
X0097962Y0084643D01*
X0097890Y0084428D01*
Y0084071D01*
X0097962Y0083857D01*
X0098033Y0083714D01*
X0098176Y0083571D01*
X0098319Y0083500D01*
X0098605D01*
X0098747Y0083571D01*
X0098890Y0083714D01*
X0098962Y0083857D01*
X0099033Y0084071D01*
Y0084428D01*
X0098962Y0084643D01*
X0098890Y0084785D01*
X0098747Y0084928D01*
X0098605Y0085000D01*
X0098319D01*
X0100526Y0083500D02*
X0099954Y0085000D01*
X0099383Y0083500D01*
X0099597Y0084000D02*
X0100311D01*
X0100875Y0085000D02*
Y0083500D01*
Y0085000D02*
X0101518D01*
X0101732Y0084928D01*
X0101804Y0084857D01*
X0101875Y0084714D01*
Y0084571D01*
X0101804Y0084428D01*
X0101732Y0084357D01*
X0101518Y0084286D01*
X0100875D01*
X0101375D02*
X0101875Y0083500D01*
X0102211Y0085000D02*
Y0083500D01*
Y0085000D02*
X0102711D01*
X0102925Y0084928D01*
X0103068Y0084785D01*
X0103139Y0084643D01*
X0103211Y0084428D01*
Y0084071D01*
X0103139Y0083857D01*
X0103068Y0083714D01*
X0102925Y0083571D01*
X0102711Y0083500D01*
X0102211D01*
X0087000Y0078714D02*
X0087143Y0078785D01*
X0087357Y0079000D01*
Y0077500D01*
X0088171Y0077643D02*
X0088100Y0077571D01*
X0088171Y0077500D01*
X0088243Y0077571D01*
X0088171Y0077643D01*
X0089000Y0079000D02*
X0088785Y0078928D01*
X0088643Y0078714D01*
X0088571Y0078357D01*
Y0078143D01*
X0088643Y0077786D01*
X0088785Y0077571D01*
X0089000Y0077500D01*
X0089142D01*
X0089357Y0077571D01*
X0089499Y0077786D01*
X0089571Y0078143D01*
Y0078357D01*
X0089499Y0078714D01*
X0089357Y0078928D01*
X0089142Y0079000D01*
X0089000D01*
X0090264Y0078500D02*
X0090121Y0078428D01*
X0089978Y0078286D01*
X0089907Y0078071D01*
Y0077928D01*
X0089978Y0077714D01*
X0090121Y0077571D01*
X0090264Y0077500D01*
X0090478D01*
X0090621Y0077571D01*
X0090763Y0077714D01*
X0090835Y0077928D01*
Y0078071D01*
X0090763Y0078286D01*
X0090621Y0078428D01*
X0090478Y0078500D01*
X0090264D01*
X0091949D02*
X0091163Y0077500D01*
Y0078500D02*
X0091949D01*
X0091163Y0077500D02*
X0091949D01*
X0093441Y0079000D02*
Y0077500D01*
Y0079000D02*
X0094370D01*
X0093441Y0078286D02*
X0094013D01*
X0094541Y0079000D02*
Y0077500D01*
X0094855Y0079000D02*
Y0077500D01*
Y0079000D02*
X0095855Y0077500D01*
Y0079000D02*
Y0077500D01*
X0096269Y0079000D02*
Y0077500D01*
X0097583Y0078785D02*
X0097441Y0078928D01*
X0097226Y0079000D01*
X0096941D01*
X0096726Y0078928D01*
X0096584Y0078785D01*
Y0078643D01*
X0096655Y0078500D01*
X0096726Y0078428D01*
X0096869Y0078357D01*
X0097298Y0078214D01*
X0097441Y0078143D01*
X0097512Y0078071D01*
X0097583Y0077928D01*
Y0077714D01*
X0097441Y0077571D01*
X0097226Y0077500D01*
X0096941D01*
X0096726Y0077571D01*
X0096584Y0077714D01*
X0097919Y0079000D02*
Y0077500D01*
X0098919Y0079000D02*
Y0077500D01*
X0097919Y0078286D02*
X0098919D01*
X0100261Y0079000D02*
X0099333D01*
Y0077500D01*
X0100261D01*
X0099333Y0078286D02*
X0099904D01*
X0100511Y0079000D02*
Y0077500D01*
Y0079000D02*
X0101011D01*
X0101226Y0078928D01*
X0101368Y0078785D01*
X0101440Y0078643D01*
X0101511Y0078428D01*
Y0078071D01*
X0101440Y0077857D01*
X0101368Y0077714D01*
X0101226Y0077571D01*
X0101011Y0077500D01*
X0100511D01*
X0103454Y0079000D02*
X0103311Y0078928D01*
X0103168Y0078785D01*
X0103097Y0078643D01*
X0103025Y0078428D01*
Y0078071D01*
X0103097Y0077857D01*
X0103168Y0077714D01*
X0103311Y0077571D01*
X0103454Y0077500D01*
X0103739D01*
X0103882Y0077571D01*
X0104025Y0077714D01*
X0104096Y0077857D01*
X0104168Y0078071D01*
Y0078428D01*
X0104096Y0078643D01*
X0104025Y0078785D01*
X0103882Y0078928D01*
X0103739Y0079000D01*
X0103454D01*
X0104518D02*
Y0077928D01*
X0104589Y0077714D01*
X0104732Y0077571D01*
X0104946Y0077500D01*
X0105089D01*
X0105303Y0077571D01*
X0105446Y0077714D01*
X0105517Y0077928D01*
Y0079000D01*
X0106432D02*
Y0077500D01*
X0105932Y0079000D02*
X0106931D01*
X0108038D02*
X0107110D01*
Y0077500D01*
X0108038D01*
X0107110Y0078286D02*
X0107681D01*
X0108288Y0079000D02*
Y0077500D01*
Y0079000D02*
X0108931D01*
X0109145Y0078928D01*
X0109217Y0078857D01*
X0109288Y0078714D01*
Y0078571D01*
X0109217Y0078428D01*
X0109145Y0078357D01*
X0108931Y0078286D01*
X0108288D01*
X0108788D02*
X0109288Y0077500D01*
X0088500Y0075214D02*
X0089143D01*
X0089357Y0075286D01*
X0089428Y0075357D01*
X0089500Y0075500D01*
Y0075714D01*
X0089428Y0075857D01*
X0089357Y0075928D01*
X0089143Y0076000D01*
X0088500D01*
Y0074500D01*
X0089835Y0076000D02*
Y0074500D01*
Y0076000D02*
X0090478D01*
X0090692Y0075928D01*
X0090764Y0075857D01*
X0090835Y0075714D01*
Y0075571D01*
X0090764Y0075428D01*
X0090692Y0075357D01*
X0090478Y0075286D01*
X0089835D01*
X0090335D02*
X0090835Y0074500D01*
X0092099Y0076000D02*
X0091171D01*
Y0074500D01*
X0092099D01*
X0091171Y0075286D02*
X0091742D01*
X0092349Y0075143D02*
X0093635D01*
X0094077Y0075214D02*
X0094720D01*
X0094934Y0075286D01*
X0095006Y0075357D01*
X0095077Y0075500D01*
Y0075714D01*
X0095006Y0075857D01*
X0094934Y0075928D01*
X0094720Y0076000D01*
X0094077D01*
Y0074500D01*
X0095413Y0076000D02*
Y0074500D01*
Y0076000D02*
X0096056D01*
X0096270Y0075928D01*
X0096341Y0075857D01*
X0096413Y0075714D01*
Y0075571D01*
X0096341Y0075428D01*
X0096270Y0075357D01*
X0096056Y0075286D01*
X0095413D01*
X0095913D02*
X0096413Y0074500D01*
X0097677Y0076000D02*
X0096748D01*
Y0074500D01*
X0097677D01*
X0096748Y0075286D02*
X0097320D01*
X0098998Y0075643D02*
X0098926Y0075785D01*
X0098784Y0075928D01*
X0098641Y0076000D01*
X0098355D01*
X0098212Y0075928D01*
X0098069Y0075785D01*
X0097998Y0075643D01*
X0097927Y0075428D01*
Y0075071D01*
X0097998Y0074857D01*
X0098069Y0074714D01*
X0098212Y0074571D01*
X0098355Y0074500D01*
X0098641D01*
X0098784Y0074571D01*
X0098926Y0074714D01*
X0098998Y0074857D01*
Y0075071D01*
X0098641D02*
X0098998D01*
X0100947Y0076000D02*
X0100733Y0075928D01*
X0100590Y0075714D01*
X0100519Y0075357D01*
Y0075143D01*
X0100590Y0074786D01*
X0100733Y0074571D01*
X0100947Y0074500D01*
X0101090D01*
X0101304Y0074571D01*
X0101447Y0074786D01*
X0101519Y0075143D01*
Y0075357D01*
X0101447Y0075714D01*
X0101304Y0075928D01*
X0101090Y0076000D01*
X0100947D01*
X0101926Y0074643D02*
X0101854Y0074571D01*
X0101926Y0074500D01*
X0101997Y0074571D01*
X0101926Y0074643D01*
X0102397Y0075643D02*
Y0075714D01*
X0102468Y0075857D01*
X0102540Y0075928D01*
X0102683Y0076000D01*
X0102968D01*
X0103111Y0075928D01*
X0103183Y0075857D01*
X0103254Y0075714D01*
Y0075571D01*
X0103183Y0075428D01*
X0103040Y0075214D01*
X0102326Y0074500D01*
X0103325D01*
X0104090Y0076000D02*
X0103875Y0075928D01*
X0103732Y0075714D01*
X0103661Y0075357D01*
Y0075143D01*
X0103732Y0074786D01*
X0103875Y0074571D01*
X0104090Y0074500D01*
X0104232D01*
X0104447Y0074571D01*
X0104589Y0074786D01*
X0104661Y0075143D01*
Y0075357D01*
X0104589Y0075714D01*
X0104447Y0075928D01*
X0104232Y0076000D01*
X0104090D01*
X0104996Y0075500D02*
Y0074500D01*
Y0075214D02*
X0105211Y0075428D01*
X0105354Y0075500D01*
X0105568D01*
X0105711Y0075428D01*
X0105782Y0075214D01*
Y0074500D01*
Y0075214D02*
X0105996Y0075428D01*
X0106139Y0075500D01*
X0106353D01*
X0106496Y0075428D01*
X0106568Y0075214D01*
Y0074500D01*
X0107039Y0075500D02*
Y0074500D01*
Y0075214D02*
X0107253Y0075428D01*
X0107396Y0075500D01*
X0107610D01*
X0107753Y0075428D01*
X0107824Y0075214D01*
Y0074500D01*
Y0075214D02*
X0108039Y0075428D01*
X0108181Y0075500D01*
X0108396D01*
X0108539Y0075428D01*
X0108610Y0075214D01*
Y0074500D01*
X0088500Y0063214D02*
X0089143D01*
X0089357Y0063286D01*
X0089428Y0063357D01*
X0089500Y0063500D01*
Y0063714D01*
X0089428Y0063857D01*
X0089357Y0063928D01*
X0089143Y0064000D01*
X0088500D01*
Y0062500D01*
X0089835Y0064000D02*
Y0062500D01*
Y0064000D02*
X0090478D01*
X0090692Y0063928D01*
X0090764Y0063857D01*
X0090835Y0063714D01*
Y0063571D01*
X0090764Y0063428D01*
X0090692Y0063357D01*
X0090478Y0063286D01*
X0089835D01*
X0090335D02*
X0090835Y0062500D01*
X0092099Y0064000D02*
X0091171D01*
Y0062500D01*
X0092099D01*
X0091171Y0063286D02*
X0091742D01*
X0092349Y0063143D02*
X0093635D01*
X0094077Y0063214D02*
X0094720D01*
X0094934Y0063286D01*
X0095006Y0063357D01*
X0095077Y0063500D01*
Y0063714D01*
X0095006Y0063857D01*
X0094934Y0063928D01*
X0094720Y0064000D01*
X0094077D01*
Y0062500D01*
X0095413Y0064000D02*
Y0062500D01*
Y0064000D02*
X0096056D01*
X0096270Y0063928D01*
X0096341Y0063857D01*
X0096413Y0063714D01*
Y0063571D01*
X0096341Y0063428D01*
X0096270Y0063357D01*
X0096056Y0063286D01*
X0095413D01*
X0095913D02*
X0096413Y0062500D01*
X0097677Y0064000D02*
X0096748D01*
Y0062500D01*
X0097677D01*
X0096748Y0063286D02*
X0097320D01*
X0098998Y0063643D02*
X0098926Y0063785D01*
X0098784Y0063928D01*
X0098641Y0064000D01*
X0098355D01*
X0098212Y0063928D01*
X0098069Y0063785D01*
X0097998Y0063643D01*
X0097927Y0063428D01*
Y0063071D01*
X0097998Y0062857D01*
X0098069Y0062714D01*
X0098212Y0062571D01*
X0098355Y0062500D01*
X0098641D01*
X0098784Y0062571D01*
X0098926Y0062714D01*
X0098998Y0062857D01*
Y0063071D01*
X0098641D02*
X0098998D01*
X0100947Y0064000D02*
X0100733Y0063928D01*
X0100590Y0063714D01*
X0100519Y0063357D01*
Y0063143D01*
X0100590Y0062786D01*
X0100733Y0062571D01*
X0100947Y0062500D01*
X0101090D01*
X0101304Y0062571D01*
X0101447Y0062786D01*
X0101519Y0063143D01*
Y0063357D01*
X0101447Y0063714D01*
X0101304Y0063928D01*
X0101090Y0064000D01*
X0100947D01*
X0101926Y0062643D02*
X0101854Y0062571D01*
X0101926Y0062500D01*
X0101997Y0062571D01*
X0101926Y0062643D01*
X0102397Y0063643D02*
Y0063714D01*
X0102468Y0063857D01*
X0102540Y0063928D01*
X0102683Y0064000D01*
X0102968D01*
X0103111Y0063928D01*
X0103183Y0063857D01*
X0103254Y0063714D01*
Y0063571D01*
X0103183Y0063428D01*
X0103040Y0063214D01*
X0102326Y0062500D01*
X0103325D01*
X0104090Y0064000D02*
X0103875Y0063928D01*
X0103732Y0063714D01*
X0103661Y0063357D01*
Y0063143D01*
X0103732Y0062786D01*
X0103875Y0062571D01*
X0104090Y0062500D01*
X0104232D01*
X0104447Y0062571D01*
X0104589Y0062786D01*
X0104661Y0063143D01*
Y0063357D01*
X0104589Y0063714D01*
X0104447Y0063928D01*
X0104232Y0064000D01*
X0104090D01*
X0104996Y0063500D02*
Y0062500D01*
Y0063214D02*
X0105211Y0063428D01*
X0105354Y0063500D01*
X0105568D01*
X0105711Y0063428D01*
X0105782Y0063214D01*
Y0062500D01*
Y0063214D02*
X0105996Y0063428D01*
X0106139Y0063500D01*
X0106353D01*
X0106496Y0063428D01*
X0106568Y0063214D01*
Y0062500D01*
X0107039Y0063500D02*
Y0062500D01*
Y0063214D02*
X0107253Y0063428D01*
X0107396Y0063500D01*
X0107610D01*
X0107753Y0063428D01*
X0107824Y0063214D01*
Y0062500D01*
Y0063214D02*
X0108039Y0063428D01*
X0108181Y0063500D01*
X0108396D01*
X0108539Y0063428D01*
X0108610Y0063214D01*
Y0062500D01*
X0092071Y0069643D02*
X0092000Y0069785D01*
X0091857Y0069928D01*
X0091714Y0070000D01*
X0091428D01*
X0091286Y0069928D01*
X0091143Y0069785D01*
X0091071Y0069643D01*
X0091000Y0069428D01*
Y0069071D01*
X0091071Y0068857D01*
X0091143Y0068714D01*
X0091286Y0068571D01*
X0091428Y0068500D01*
X0091714D01*
X0091857Y0068571D01*
X0092000Y0068714D01*
X0092071Y0068857D01*
X0092921Y0070000D02*
X0092778Y0069928D01*
X0092635Y0069785D01*
X0092564Y0069643D01*
X0092493Y0069428D01*
Y0069071D01*
X0092564Y0068857D01*
X0092635Y0068714D01*
X0092778Y0068571D01*
X0092921Y0068500D01*
X0093207D01*
X0093349Y0068571D01*
X0093492Y0068714D01*
X0093564Y0068857D01*
X0093635Y0069071D01*
Y0069428D01*
X0093564Y0069643D01*
X0093492Y0069785D01*
X0093349Y0069928D01*
X0093207Y0070000D01*
X0092921D01*
X0093985D02*
Y0068500D01*
Y0070000D02*
X0094628D01*
X0094842Y0069928D01*
X0094913Y0069857D01*
X0094985Y0069714D01*
Y0069571D01*
X0094913Y0069428D01*
X0094842Y0069357D01*
X0094628Y0069286D01*
X0093985D01*
X0094485D02*
X0094985Y0068500D01*
X0096249Y0070000D02*
X0095321D01*
Y0068500D01*
X0096249D01*
X0095321Y0069286D02*
X0095892D01*
X0097677Y0069714D02*
X0097820Y0069785D01*
X0098034Y0070000D01*
Y0068500D01*
X0098848Y0068643D02*
X0098777Y0068571D01*
X0098848Y0068500D01*
X0098920Y0068571D01*
X0098848Y0068643D01*
X0099677Y0070000D02*
X0099462Y0069928D01*
X0099320Y0069714D01*
X0099248Y0069357D01*
Y0069143D01*
X0099320Y0068786D01*
X0099462Y0068571D01*
X0099677Y0068500D01*
X0099820D01*
X0100034Y0068571D01*
X0100177Y0068786D01*
X0100248Y0069143D01*
Y0069357D01*
X0100177Y0069714D01*
X0100034Y0069928D01*
X0099820Y0070000D01*
X0099677D01*
X0101012D02*
X0100798Y0069928D01*
X0100655Y0069714D01*
X0100584Y0069357D01*
Y0069143D01*
X0100655Y0068786D01*
X0100798Y0068571D01*
X0101012Y0068500D01*
X0101155D01*
X0101369Y0068571D01*
X0101512Y0068786D01*
X0101583Y0069143D01*
Y0069357D01*
X0101512Y0069714D01*
X0101369Y0069928D01*
X0101155Y0070000D01*
X0101012D01*
X0101919Y0069500D02*
Y0068500D01*
Y0069214D02*
X0102133Y0069428D01*
X0102276Y0069500D01*
X0102490D01*
X0102633Y0069428D01*
X0102705Y0069214D01*
Y0068500D01*
Y0069214D02*
X0102919Y0069428D01*
X0103062Y0069500D01*
X0103276D01*
X0103419Y0069428D01*
X0103490Y0069214D01*
Y0068500D01*
X0103962Y0069500D02*
Y0068500D01*
Y0069214D02*
X0104176Y0069428D01*
X0104319Y0069500D01*
X0104533D01*
X0104676Y0069428D01*
X0104747Y0069214D01*
Y0068500D01*
Y0069214D02*
X0104961Y0069428D01*
X0105104Y0069500D01*
X0105318D01*
X0105461Y0069428D01*
X0105533Y0069214D01*
Y0068500D01*
X0057143Y0071000D02*
X0056571Y0072500D01*
X0056000Y0071000D01*
X0056214Y0071500D02*
X0056928D01*
X0058564Y0072143D02*
X0058492Y0072285D01*
X0058349Y0072428D01*
X0058207Y0072500D01*
X0057921D01*
X0057778Y0072428D01*
X0057635Y0072285D01*
X0057564Y0072143D01*
X0057493Y0071928D01*
Y0071571D01*
X0057564Y0071357D01*
X0057635Y0071214D01*
X0057778Y0071071D01*
X0057921Y0071000D01*
X0058207D01*
X0058349Y0071071D01*
X0058492Y0071214D01*
X0058564Y0071357D01*
X0058985Y0072500D02*
Y0071000D01*
Y0072500D02*
X0059628D01*
X0059842Y0072428D01*
X0059913Y0072357D01*
X0059985Y0072214D01*
Y0072071D01*
X0059913Y0071928D01*
X0059842Y0071857D01*
X0059628Y0071786D01*
X0058985D01*
X0059485D02*
X0059985Y0071000D01*
X0060749Y0072500D02*
X0060606Y0072428D01*
X0060463Y0072285D01*
X0060392Y0072143D01*
X0060320Y0071928D01*
Y0071571D01*
X0060392Y0071357D01*
X0060463Y0071214D01*
X0060606Y0071071D01*
X0060749Y0071000D01*
X0061035D01*
X0061177Y0071071D01*
X0061320Y0071214D01*
X0061392Y0071357D01*
X0061463Y0071571D01*
Y0071928D01*
X0061392Y0072143D01*
X0061320Y0072285D01*
X0061177Y0072428D01*
X0061035Y0072500D01*
X0060749D01*
X0062813Y0072285D02*
X0062670Y0072428D01*
X0062456Y0072500D01*
X0062170D01*
X0061956Y0072428D01*
X0061813Y0072285D01*
Y0072143D01*
X0061884Y0072000D01*
X0061956Y0071928D01*
X0062099Y0071857D01*
X0062527Y0071714D01*
X0062670Y0071643D01*
X0062741Y0071571D01*
X0062813Y0071428D01*
Y0071214D01*
X0062670Y0071071D01*
X0062456Y0071000D01*
X0062170D01*
X0061956Y0071071D01*
X0061813Y0071214D01*
X0064148Y0072285D02*
X0064005Y0072428D01*
X0063791Y0072500D01*
X0063506D01*
X0063291Y0072428D01*
X0063148Y0072285D01*
Y0072143D01*
X0063220Y0072000D01*
X0063291Y0071928D01*
X0063434Y0071857D01*
X0063863Y0071714D01*
X0064005Y0071643D01*
X0064077Y0071571D01*
X0064148Y0071428D01*
Y0071214D01*
X0064005Y0071071D01*
X0063791Y0071000D01*
X0063506D01*
X0063291Y0071071D01*
X0063148Y0071214D01*
X0065662Y0071714D02*
X0066305D01*
X0066519Y0071786D01*
X0066591Y0071857D01*
X0066662Y0072000D01*
Y0072214D01*
X0066591Y0072357D01*
X0066519Y0072428D01*
X0066305Y0072500D01*
X0065662D01*
Y0071000D01*
X0068140D02*
X0067569Y0072500D01*
X0066998Y0071000D01*
X0067212Y0071500D02*
X0067926D01*
X0068490Y0072500D02*
Y0071000D01*
Y0072500D02*
X0068990D01*
X0069204Y0072428D01*
X0069347Y0072285D01*
X0069419Y0072143D01*
X0069490Y0071928D01*
Y0071571D01*
X0069419Y0071357D01*
X0069347Y0071214D01*
X0069204Y0071071D01*
X0068990Y0071000D01*
X0068490D01*
X0070825Y0072285D02*
X0070683Y0072428D01*
X0070468Y0072500D01*
X0070183D01*
X0069968Y0072428D01*
X0069826Y0072285D01*
Y0072143D01*
X0069897Y0072000D01*
X0069968Y0071928D01*
X0070111Y0071857D01*
X0070540Y0071714D01*
X0070683Y0071643D01*
X0070754Y0071571D01*
X0070825Y0071428D01*
Y0071214D01*
X0070683Y0071071D01*
X0070468Y0071000D01*
X0070183D01*
X0069968Y0071071D01*
X0069826Y0071214D01*
X0055000Y0065500D02*
Y0064000D01*
Y0065500D02*
X0056000Y0064000D01*
Y0065500D02*
Y0064000D01*
X0056842Y0065500D02*
X0056700Y0065428D01*
X0056557Y0065285D01*
X0056485Y0065143D01*
X0056414Y0064928D01*
Y0064571D01*
X0056485Y0064357D01*
X0056557Y0064214D01*
X0056700Y0064071D01*
X0056842Y0064000D01*
X0057128D01*
X0057271Y0064071D01*
X0057414Y0064214D01*
X0057485Y0064357D01*
X0057557Y0064571D01*
Y0064928D01*
X0057485Y0065143D01*
X0057414Y0065285D01*
X0057271Y0065428D01*
X0057128Y0065500D01*
X0056842D01*
X0057907D02*
Y0064000D01*
Y0065500D02*
X0058478Y0064000D01*
X0059049Y0065500D02*
X0058478Y0064000D01*
X0059049Y0065500D02*
Y0064000D01*
X0091000Y0072714D02*
X0091143Y0072785D01*
X0091357Y0073000D01*
Y0071500D01*
X0092171Y0071643D02*
X0092100Y0071571D01*
X0092171Y0071500D01*
X0092243Y0071571D01*
X0092171Y0071643D01*
X0093000Y0073000D02*
X0092785Y0072928D01*
X0092643Y0072714D01*
X0092571Y0072357D01*
Y0072143D01*
X0092643Y0071786D01*
X0092785Y0071571D01*
X0093000Y0071500D01*
X0093142D01*
X0093357Y0071571D01*
X0093499Y0071786D01*
X0093571Y0072143D01*
Y0072357D01*
X0093499Y0072714D01*
X0093357Y0072928D01*
X0093142Y0073000D01*
X0093000D01*
X0094264Y0072500D02*
X0094121Y0072428D01*
X0093978Y0072286D01*
X0093907Y0072071D01*
Y0071928D01*
X0093978Y0071714D01*
X0094121Y0071571D01*
X0094264Y0071500D01*
X0094478D01*
X0094621Y0071571D01*
X0094763Y0071714D01*
X0094835Y0071928D01*
Y0072071D01*
X0094763Y0072286D01*
X0094621Y0072428D01*
X0094478Y0072500D01*
X0094264D01*
X0095949D02*
X0095163Y0071500D01*
Y0072500D02*
X0095949D01*
X0095163Y0071500D02*
X0095949D01*
X0098513Y0072643D02*
X0098441Y0072785D01*
X0098298Y0072928D01*
X0098156Y0073000D01*
X0097870D01*
X0097727Y0072928D01*
X0097584Y0072785D01*
X0097513Y0072643D01*
X0097441Y0072428D01*
Y0072071D01*
X0097513Y0071857D01*
X0097584Y0071714D01*
X0097727Y0071571D01*
X0097870Y0071500D01*
X0098156D01*
X0098298Y0071571D01*
X0098441Y0071714D01*
X0098513Y0071857D01*
X0099362Y0073000D02*
X0099220Y0072928D01*
X0099077Y0072785D01*
X0099005Y0072643D01*
X0098934Y0072428D01*
Y0072071D01*
X0099005Y0071857D01*
X0099077Y0071714D01*
X0099220Y0071571D01*
X0099362Y0071500D01*
X0099648D01*
X0099791Y0071571D01*
X0099934Y0071714D01*
X0100005Y0071857D01*
X0100077Y0072071D01*
Y0072428D01*
X0100005Y0072643D01*
X0099934Y0072785D01*
X0099791Y0072928D01*
X0099648Y0073000D01*
X0099362D01*
X0100427Y0072214D02*
X0101069D01*
X0101284Y0072286D01*
X0101355Y0072357D01*
X0101426Y0072500D01*
Y0072714D01*
X0101355Y0072857D01*
X0101284Y0072928D01*
X0101069Y0073000D01*
X0100427D01*
Y0071500D01*
X0101762Y0072214D02*
X0102405D01*
X0102619Y0072286D01*
X0102690Y0072357D01*
X0102762Y0072500D01*
Y0072714D01*
X0102690Y0072857D01*
X0102619Y0072928D01*
X0102405Y0073000D01*
X0101762D01*
Y0071500D01*
X0104026Y0073000D02*
X0103097D01*
Y0071500D01*
X0104026D01*
X0103097Y0072286D02*
X0103669D01*
X0104276Y0073000D02*
Y0071500D01*
Y0073000D02*
X0104918D01*
X0105133Y0072928D01*
X0105204Y0072857D01*
X0105276Y0072714D01*
Y0072571D01*
X0105204Y0072428D01*
X0105133Y0072357D01*
X0104918Y0072286D01*
X0104276D01*
X0104776D02*
X0105276Y0071500D01*
X0091000Y0066714D02*
X0091143Y0066785D01*
X0091357Y0067000D01*
Y0065500D01*
X0092171Y0065643D02*
X0092100Y0065571D01*
X0092171Y0065500D01*
X0092243Y0065571D01*
X0092171Y0065643D01*
X0093000Y0067000D02*
X0092785Y0066928D01*
X0092643Y0066714D01*
X0092571Y0066357D01*
Y0066143D01*
X0092643Y0065786D01*
X0092785Y0065571D01*
X0093000Y0065500D01*
X0093142D01*
X0093357Y0065571D01*
X0093499Y0065786D01*
X0093571Y0066143D01*
Y0066357D01*
X0093499Y0066714D01*
X0093357Y0066928D01*
X0093142Y0067000D01*
X0093000D01*
X0094264Y0066500D02*
X0094121Y0066428D01*
X0093978Y0066286D01*
X0093907Y0066071D01*
Y0065928D01*
X0093978Y0065714D01*
X0094121Y0065571D01*
X0094264Y0065500D01*
X0094478D01*
X0094621Y0065571D01*
X0094763Y0065714D01*
X0094835Y0065928D01*
Y0066071D01*
X0094763Y0066286D01*
X0094621Y0066428D01*
X0094478Y0066500D01*
X0094264D01*
X0095949D02*
X0095163Y0065500D01*
Y0066500D02*
X0095949D01*
X0095163Y0065500D02*
X0095949D01*
X0098513Y0066643D02*
X0098441Y0066785D01*
X0098298Y0066928D01*
X0098156Y0067000D01*
X0097870D01*
X0097727Y0066928D01*
X0097584Y0066785D01*
X0097513Y0066643D01*
X0097441Y0066428D01*
Y0066071D01*
X0097513Y0065857D01*
X0097584Y0065714D01*
X0097727Y0065571D01*
X0097870Y0065500D01*
X0098156D01*
X0098298Y0065571D01*
X0098441Y0065714D01*
X0098513Y0065857D01*
X0099362Y0067000D02*
X0099220Y0066928D01*
X0099077Y0066785D01*
X0099005Y0066643D01*
X0098934Y0066428D01*
Y0066071D01*
X0099005Y0065857D01*
X0099077Y0065714D01*
X0099220Y0065571D01*
X0099362Y0065500D01*
X0099648D01*
X0099791Y0065571D01*
X0099934Y0065714D01*
X0100005Y0065857D01*
X0100077Y0066071D01*
Y0066428D01*
X0100005Y0066643D01*
X0099934Y0066785D01*
X0099791Y0066928D01*
X0099648Y0067000D01*
X0099362D01*
X0100427Y0066214D02*
X0101069D01*
X0101284Y0066286D01*
X0101355Y0066357D01*
X0101426Y0066500D01*
Y0066714D01*
X0101355Y0066857D01*
X0101284Y0066928D01*
X0101069Y0067000D01*
X0100427D01*
Y0065500D01*
X0101762Y0066214D02*
X0102405D01*
X0102619Y0066286D01*
X0102690Y0066357D01*
X0102762Y0066500D01*
Y0066714D01*
X0102690Y0066857D01*
X0102619Y0066928D01*
X0102405Y0067000D01*
X0101762D01*
Y0065500D01*
X0104026Y0067000D02*
X0103097D01*
Y0065500D01*
X0104026D01*
X0103097Y0066286D02*
X0103669D01*
X0104276Y0067000D02*
Y0065500D01*
Y0067000D02*
X0104918D01*
X0105133Y0066928D01*
X0105204Y0066857D01*
X0105276Y0066714D01*
Y0066571D01*
X0105204Y0066428D01*
X0105133Y0066357D01*
X0104918Y0066286D01*
X0104276D01*
X0104776D02*
X0105276Y0065500D01*
X0087000Y0060714D02*
X0087143Y0060785D01*
X0087357Y0061000D01*
Y0059500D01*
X0088171Y0059643D02*
X0088100Y0059571D01*
X0088171Y0059500D01*
X0088243Y0059571D01*
X0088171Y0059643D01*
X0089000Y0061000D02*
X0088785Y0060928D01*
X0088643Y0060714D01*
X0088571Y0060357D01*
Y0060143D01*
X0088643Y0059786D01*
X0088785Y0059571D01*
X0089000Y0059500D01*
X0089142D01*
X0089357Y0059571D01*
X0089499Y0059786D01*
X0089571Y0060143D01*
Y0060357D01*
X0089499Y0060714D01*
X0089357Y0060928D01*
X0089142Y0061000D01*
X0089000D01*
X0090264Y0060500D02*
X0090121Y0060428D01*
X0089978Y0060286D01*
X0089907Y0060071D01*
Y0059928D01*
X0089978Y0059714D01*
X0090121Y0059571D01*
X0090264Y0059500D01*
X0090478D01*
X0090621Y0059571D01*
X0090763Y0059714D01*
X0090835Y0059928D01*
Y0060071D01*
X0090763Y0060286D01*
X0090621Y0060428D01*
X0090478Y0060500D01*
X0090264D01*
X0091949D02*
X0091163Y0059500D01*
Y0060500D02*
X0091949D01*
X0091163Y0059500D02*
X0091949D01*
X0093441Y0061000D02*
Y0059500D01*
Y0061000D02*
X0094370D01*
X0093441Y0060286D02*
X0094013D01*
X0094541Y0061000D02*
Y0059500D01*
X0094855Y0061000D02*
Y0059500D01*
Y0061000D02*
X0095855Y0059500D01*
Y0061000D02*
Y0059500D01*
X0096269Y0061000D02*
Y0059500D01*
X0097583Y0060785D02*
X0097441Y0060928D01*
X0097226Y0061000D01*
X0096941D01*
X0096726Y0060928D01*
X0096584Y0060785D01*
Y0060643D01*
X0096655Y0060500D01*
X0096726Y0060428D01*
X0096869Y0060357D01*
X0097298Y0060214D01*
X0097441Y0060143D01*
X0097512Y0060071D01*
X0097583Y0059928D01*
Y0059714D01*
X0097441Y0059571D01*
X0097226Y0059500D01*
X0096941D01*
X0096726Y0059571D01*
X0096584Y0059714D01*
X0097919Y0061000D02*
Y0059500D01*
X0098919Y0061000D02*
Y0059500D01*
X0097919Y0060286D02*
X0098919D01*
X0100261Y0061000D02*
X0099333D01*
Y0059500D01*
X0100261D01*
X0099333Y0060286D02*
X0099904D01*
X0100511Y0061000D02*
Y0059500D01*
Y0061000D02*
X0101011D01*
X0101226Y0060928D01*
X0101368Y0060785D01*
X0101440Y0060643D01*
X0101511Y0060428D01*
Y0060071D01*
X0101440Y0059857D01*
X0101368Y0059714D01*
X0101226Y0059571D01*
X0101011Y0059500D01*
X0100511D01*
X0103454Y0061000D02*
X0103311Y0060928D01*
X0103168Y0060785D01*
X0103097Y0060643D01*
X0103025Y0060428D01*
Y0060071D01*
X0103097Y0059857D01*
X0103168Y0059714D01*
X0103311Y0059571D01*
X0103454Y0059500D01*
X0103739D01*
X0103882Y0059571D01*
X0104025Y0059714D01*
X0104096Y0059857D01*
X0104168Y0060071D01*
Y0060428D01*
X0104096Y0060643D01*
X0104025Y0060785D01*
X0103882Y0060928D01*
X0103739Y0061000D01*
X0103454D01*
X0104518D02*
Y0059928D01*
X0104589Y0059714D01*
X0104732Y0059571D01*
X0104946Y0059500D01*
X0105089D01*
X0105303Y0059571D01*
X0105446Y0059714D01*
X0105517Y0059928D01*
Y0061000D01*
X0106432D02*
Y0059500D01*
X0105932Y0061000D02*
X0106931D01*
X0108038D02*
X0107110D01*
Y0059500D01*
X0108038D01*
X0107110Y0060286D02*
X0107681D01*
X0108288Y0061000D02*
Y0059500D01*
Y0061000D02*
X0108931D01*
X0109145Y0060928D01*
X0109217Y0060857D01*
X0109288Y0060714D01*
Y0060571D01*
X0109217Y0060428D01*
X0109145Y0060357D01*
X0108931Y0060286D01*
X0108288D01*
X0108788D02*
X0109288Y0059500D01*
X0054000Y0075000D02*
Y0073500D01*
Y0075000D02*
X0054643D01*
X0054857Y0074928D01*
X0054928Y0074857D01*
X0055000Y0074714D01*
Y0074571D01*
X0054928Y0074428D01*
X0054857Y0074357D01*
X0054643Y0074286D01*
X0054000D02*
X0054643D01*
X0054857Y0074214D01*
X0054928Y0074143D01*
X0055000Y0074000D01*
Y0073786D01*
X0054928Y0073643D01*
X0054857Y0073571D01*
X0054643Y0073500D01*
X0054000D01*
X0055764Y0075000D02*
X0055621Y0074928D01*
X0055478Y0074785D01*
X0055407Y0074643D01*
X0055335Y0074428D01*
Y0074071D01*
X0055407Y0073857D01*
X0055478Y0073714D01*
X0055621Y0073571D01*
X0055764Y0073500D01*
X0056050D01*
X0056192Y0073571D01*
X0056335Y0073714D01*
X0056407Y0073857D01*
X0056478Y0074071D01*
Y0074428D01*
X0056407Y0074643D01*
X0056335Y0074785D01*
X0056192Y0074928D01*
X0056050Y0075000D01*
X0055764D01*
X0057971Y0073500D02*
X0057399Y0075000D01*
X0056828Y0073500D01*
X0057042Y0074000D02*
X0057756D01*
X0058320Y0075000D02*
Y0073500D01*
Y0075000D02*
X0058963D01*
X0059177Y0074928D01*
X0059249Y0074857D01*
X0059320Y0074714D01*
Y0074571D01*
X0059249Y0074428D01*
X0059177Y0074357D01*
X0058963Y0074286D01*
X0058320D01*
X0058820D02*
X0059320Y0073500D01*
X0059656Y0075000D02*
Y0073500D01*
Y0075000D02*
X0060156D01*
X0060370Y0074928D01*
X0060513Y0074785D01*
X0060584Y0074643D01*
X0060656Y0074428D01*
Y0074071D01*
X0060584Y0073857D01*
X0060513Y0073714D01*
X0060370Y0073571D01*
X0060156Y0073500D01*
X0059656D01*
X0062670Y0075000D02*
Y0073500D01*
X0062170Y0075000D02*
X0063169D01*
X0063348D02*
Y0073500D01*
X0064348Y0075000D02*
Y0073500D01*
X0063348Y0074286D02*
X0064348D01*
X0064762Y0075000D02*
Y0073500D01*
X0066147Y0074643D02*
X0066076Y0074785D01*
X0065933Y0074928D01*
X0065790Y0075000D01*
X0065505D01*
X0065362Y0074928D01*
X0065219Y0074785D01*
X0065148Y0074643D01*
X0065076Y0074428D01*
Y0074071D01*
X0065148Y0073857D01*
X0065219Y0073714D01*
X0065362Y0073571D01*
X0065505Y0073500D01*
X0065790D01*
X0065933Y0073571D01*
X0066076Y0073714D01*
X0066147Y0073857D01*
X0066569Y0075000D02*
Y0073500D01*
X0067569Y0075000D02*
X0066569Y0074000D01*
X0066926Y0074357D02*
X0067569Y0073500D01*
X0067904Y0075000D02*
Y0073500D01*
Y0075000D02*
X0068904Y0073500D01*
Y0075000D02*
Y0073500D01*
X0070247Y0075000D02*
X0069318D01*
Y0073500D01*
X0070247D01*
X0069318Y0074286D02*
X0069889D01*
X0071496Y0074785D02*
X0071353Y0074928D01*
X0071139Y0075000D01*
X0070854D01*
X0070639Y0074928D01*
X0070496Y0074785D01*
Y0074643D01*
X0070568Y0074500D01*
X0070639Y0074428D01*
X0070782Y0074357D01*
X0071211Y0074214D01*
X0071353Y0074143D01*
X0071425Y0074071D01*
X0071496Y0073928D01*
Y0073714D01*
X0071353Y0073571D01*
X0071139Y0073500D01*
X0070854D01*
X0070639Y0073571D01*
X0070496Y0073714D01*
X0072832Y0074785D02*
X0072689Y0074928D01*
X0072475Y0075000D01*
X0072189D01*
X0071975Y0074928D01*
X0071832Y0074785D01*
Y0074643D01*
X0071903Y0074500D01*
X0071975Y0074428D01*
X0072118Y0074357D01*
X0072546Y0074214D01*
X0072689Y0074143D01*
X0072760Y0074071D01*
X0072832Y0073928D01*
Y0073714D01*
X0072689Y0073571D01*
X0072475Y0073500D01*
X0072189D01*
X0071975Y0073571D01*
X0071832Y0073714D01*
X0055000Y0062000D02*
Y0060500D01*
Y0062000D02*
X0055571Y0060500D01*
X0056143Y0062000D02*
X0055571Y0060500D01*
X0056143Y0062000D02*
Y0060500D01*
X0057714D02*
X0057142Y0062000D01*
X0056571Y0060500D01*
X0056785Y0061000D02*
X0057499D01*
X0058064Y0062000D02*
X0059063Y0060500D01*
Y0062000D02*
X0058064Y0060500D01*
X0055000Y0069000D02*
Y0067500D01*
Y0069000D02*
X0055571Y0067500D01*
X0056143Y0069000D02*
X0055571Y0067500D01*
X0056143Y0069000D02*
Y0067500D01*
X0056571Y0069000D02*
Y0067500D01*
X0056885Y0069000D02*
Y0067500D01*
Y0069000D02*
X0057885Y0067500D01*
Y0069000D02*
Y0067500D01*
X0063000Y0065214D02*
X0063143Y0065285D01*
X0063357Y0065500D01*
Y0064000D01*
X0064171Y0064143D02*
X0064100Y0064071D01*
X0064171Y0064000D01*
X0064243Y0064071D01*
X0064171Y0064143D01*
X0065428Y0065500D02*
X0064714D01*
X0064643Y0064857D01*
X0064714Y0064928D01*
X0064928Y0065000D01*
X0065142D01*
X0065357Y0064928D01*
X0065499Y0064786D01*
X0065571Y0064571D01*
Y0064428D01*
X0065499Y0064214D01*
X0065357Y0064071D01*
X0065142Y0064000D01*
X0064928D01*
X0064714Y0064071D01*
X0064643Y0064143D01*
X0064571Y0064286D01*
X0066906Y0065500D02*
X0066192Y0064000D01*
X0065907Y0065500D02*
X0066906D01*
X0067242Y0065000D02*
Y0064000D01*
Y0064714D02*
X0067456Y0064928D01*
X0067599Y0065000D01*
X0067813D01*
X0067956Y0064928D01*
X0068027Y0064714D01*
Y0064000D01*
Y0064714D02*
X0068242Y0064928D01*
X0068385Y0065000D01*
X0068599D01*
X0068742Y0064928D01*
X0068813Y0064714D01*
Y0064000D01*
X0069284Y0065000D02*
Y0064000D01*
Y0064714D02*
X0069499Y0064928D01*
X0069641Y0065000D01*
X0069856D01*
X0069998Y0064928D01*
X0070070Y0064714D01*
Y0064000D01*
Y0064714D02*
X0070284Y0064928D01*
X0070427Y0065000D01*
X0070641D01*
X0070784Y0064928D01*
X0070855Y0064714D01*
Y0064000D01*
X0063000Y0068714D02*
X0063143Y0068785D01*
X0063357Y0069000D01*
Y0067500D01*
X0064171Y0067643D02*
X0064100Y0067571D01*
X0064171Y0067500D01*
X0064243Y0067571D01*
X0064171Y0067643D01*
X0065285Y0069000D02*
X0064571Y0068000D01*
X0065642D01*
X0065285Y0069000D02*
Y0067500D01*
X0065978Y0068643D02*
Y0068714D01*
X0066049Y0068857D01*
X0066121Y0068928D01*
X0066264Y0069000D01*
X0066549D01*
X0066692Y0068928D01*
X0066763Y0068857D01*
X0066835Y0068714D01*
Y0068571D01*
X0066763Y0068428D01*
X0066621Y0068214D01*
X0065907Y0067500D01*
X0066906D01*
X0067242Y0068500D02*
Y0067500D01*
Y0068214D02*
X0067456Y0068428D01*
X0067599Y0068500D01*
X0067813D01*
X0067956Y0068428D01*
X0068027Y0068214D01*
Y0067500D01*
Y0068214D02*
X0068242Y0068428D01*
X0068385Y0068500D01*
X0068599D01*
X0068742Y0068428D01*
X0068813Y0068214D01*
Y0067500D01*
X0069284Y0068500D02*
Y0067500D01*
Y0068214D02*
X0069499Y0068428D01*
X0069641Y0068500D01*
X0069856D01*
X0069998Y0068428D01*
X0070070Y0068214D01*
Y0067500D01*
Y0068214D02*
X0070284Y0068428D01*
X0070427Y0068500D01*
X0070641D01*
X0070784Y0068428D01*
X0070855Y0068214D01*
Y0067500D01*
X0063000Y0061714D02*
X0063143Y0061785D01*
X0063357Y0062000D01*
Y0060500D01*
X0064171Y0060643D02*
X0064100Y0060571D01*
X0064171Y0060500D01*
X0064243Y0060571D01*
X0064171Y0060643D01*
X0065571Y0062000D02*
X0064857Y0060500D01*
X0064571Y0062000D02*
X0065571D01*
X0065978Y0061643D02*
Y0061714D01*
X0066049Y0061857D01*
X0066121Y0061928D01*
X0066264Y0062000D01*
X0066549D01*
X0066692Y0061928D01*
X0066763Y0061857D01*
X0066835Y0061714D01*
Y0061571D01*
X0066763Y0061428D01*
X0066621Y0061214D01*
X0065907Y0060500D01*
X0066906D01*
X0067242Y0061500D02*
Y0060500D01*
Y0061214D02*
X0067456Y0061428D01*
X0067599Y0061500D01*
X0067813D01*
X0067956Y0061428D01*
X0068027Y0061214D01*
Y0060500D01*
Y0061214D02*
X0068242Y0061428D01*
X0068385Y0061500D01*
X0068599D01*
X0068742Y0061428D01*
X0068813Y0061214D01*
Y0060500D01*
X0069284Y0061500D02*
Y0060500D01*
Y0061214D02*
X0069499Y0061428D01*
X0069641Y0061500D01*
X0069856D01*
X0069998Y0061428D01*
X0070070Y0061214D01*
Y0060500D01*
Y0061214D02*
X0070284Y0061428D01*
X0070427Y0061500D01*
X0070641D01*
X0070784Y0061428D01*
X0070855Y0061214D01*
Y0060500D01*
X0059500Y0077500D02*
Y0076000D01*
Y0077500D02*
X0060428D01*
X0059500Y0076786D02*
X0060071D01*
X0060600Y0077500D02*
Y0076000D01*
X0060914Y0077500D02*
Y0076000D01*
Y0077500D02*
X0061914Y0076000D01*
Y0077500D02*
Y0076000D01*
X0062328Y0077500D02*
Y0076000D01*
X0063642Y0077285D02*
X0063499Y0077428D01*
X0063285Y0077500D01*
X0062999D01*
X0062785Y0077428D01*
X0062642Y0077285D01*
Y0077143D01*
X0062714Y0077000D01*
X0062785Y0076928D01*
X0062928Y0076857D01*
X0063356Y0076714D01*
X0063499Y0076643D01*
X0063571Y0076571D01*
X0063642Y0076428D01*
Y0076214D01*
X0063499Y0076071D01*
X0063285Y0076000D01*
X0062999D01*
X0062785Y0076071D01*
X0062642Y0076214D01*
X0063978Y0077500D02*
Y0076000D01*
X0064977Y0077500D02*
Y0076000D01*
X0063978Y0076786D02*
X0064977D01*
X0066320Y0077500D02*
X0065392D01*
Y0076000D01*
X0066320D01*
X0065392Y0076786D02*
X0065963D01*
X0066570Y0077500D02*
Y0076000D01*
Y0077500D02*
X0067070D01*
X0067284Y0077428D01*
X0067427Y0077285D01*
X0067498Y0077143D01*
X0067570Y0076928D01*
Y0076571D01*
X0067498Y0076357D01*
X0067427Y0076214D01*
X0067284Y0076071D01*
X0067070Y0076000D01*
X0066570D01*
X0055143Y0148000D02*
X0054571Y0149500D01*
X0054000Y0148000D01*
X0054214Y0148500D02*
X0054928D01*
X0056492Y0149285D02*
X0056349Y0149428D01*
X0056135Y0149500D01*
X0055850D01*
X0055635Y0149428D01*
X0055493Y0149285D01*
Y0149143D01*
X0055564Y0149000D01*
X0055635Y0148928D01*
X0055778Y0148857D01*
X0056207Y0148714D01*
X0056349Y0148643D01*
X0056421Y0148571D01*
X0056492Y0148428D01*
Y0148214D01*
X0056349Y0148071D01*
X0056135Y0148000D01*
X0055850D01*
X0055635Y0148071D01*
X0055493Y0148214D01*
X0057828Y0149285D02*
X0057685Y0149428D01*
X0057471Y0149500D01*
X0057185D01*
X0056971Y0149428D01*
X0056828Y0149285D01*
Y0149143D01*
X0056899Y0149000D01*
X0056971Y0148928D01*
X0057114Y0148857D01*
X0057542Y0148714D01*
X0057685Y0148643D01*
X0057756Y0148571D01*
X0057828Y0148428D01*
Y0148214D01*
X0057685Y0148071D01*
X0057471Y0148000D01*
X0057185D01*
X0056971Y0148071D01*
X0056828Y0148214D01*
X0059092Y0149500D02*
X0058163D01*
Y0148000D01*
X0059092D01*
X0058163Y0148786D02*
X0058735D01*
X0059342Y0149500D02*
Y0148000D01*
Y0149500D02*
X0059913Y0148000D01*
X0060484Y0149500D02*
X0059913Y0148000D01*
X0060484Y0149500D02*
Y0148000D01*
X0060913Y0149500D02*
Y0148000D01*
Y0149500D02*
X0061556D01*
X0061770Y0149428D01*
X0061841Y0149357D01*
X0061913Y0149214D01*
Y0149071D01*
X0061841Y0148928D01*
X0061770Y0148857D01*
X0061556Y0148786D01*
X0060913D02*
X0061556D01*
X0061770Y0148714D01*
X0061841Y0148643D01*
X0061913Y0148500D01*
Y0148286D01*
X0061841Y0148143D01*
X0061770Y0148071D01*
X0061556Y0148000D01*
X0060913D01*
X0062248Y0149500D02*
Y0148000D01*
X0063105D01*
X0064198Y0149500D02*
X0063269D01*
Y0148000D01*
X0064198D01*
X0063269Y0148786D02*
X0063841D01*
X0064448Y0149500D02*
Y0148000D01*
Y0149500D02*
X0065090D01*
X0065305Y0149428D01*
X0065376Y0149357D01*
X0065448Y0149214D01*
Y0149071D01*
X0065376Y0148928D01*
X0065305Y0148857D01*
X0065090Y0148786D01*
X0064448D01*
X0064948D02*
X0065448Y0148000D01*
X0067961Y0149285D02*
X0067818Y0149428D01*
X0067604Y0149500D01*
X0067319D01*
X0067104Y0149428D01*
X0066962Y0149285D01*
Y0149143D01*
X0067033Y0149000D01*
X0067104Y0148928D01*
X0067247Y0148857D01*
X0067676Y0148714D01*
X0067818Y0148643D01*
X0067890Y0148571D01*
X0067961Y0148428D01*
Y0148214D01*
X0067818Y0148071D01*
X0067604Y0148000D01*
X0067319D01*
X0067104Y0148071D01*
X0066962Y0148214D01*
X0068297Y0149500D02*
Y0148000D01*
X0069297Y0149500D02*
Y0148000D01*
X0068297Y0148786D02*
X0069297D01*
X0070139Y0149500D02*
X0069997Y0149428D01*
X0069854Y0149285D01*
X0069782Y0149143D01*
X0069711Y0148928D01*
Y0148571D01*
X0069782Y0148357D01*
X0069854Y0148214D01*
X0069997Y0148071D01*
X0070139Y0148000D01*
X0070425D01*
X0070568Y0148071D01*
X0070711Y0148214D01*
X0070782Y0148357D01*
X0070854Y0148571D01*
Y0148928D01*
X0070782Y0149143D01*
X0070711Y0149285D01*
X0070568Y0149428D01*
X0070425Y0149500D01*
X0070139D01*
X0071203D02*
Y0148428D01*
X0071275Y0148214D01*
X0071418Y0148071D01*
X0071632Y0148000D01*
X0071775D01*
X0071989Y0148071D01*
X0072132Y0148214D01*
X0072203Y0148428D01*
Y0149500D01*
X0072617D02*
Y0148000D01*
X0073474D01*
X0073639Y0149500D02*
Y0148000D01*
Y0149500D02*
X0074139D01*
X0074353Y0149428D01*
X0074496Y0149285D01*
X0074567Y0149143D01*
X0074638Y0148928D01*
Y0148571D01*
X0074567Y0148357D01*
X0074496Y0148214D01*
X0074353Y0148071D01*
X0074139Y0148000D01*
X0073639D01*
X0076152Y0149500D02*
Y0148428D01*
X0076224Y0148214D01*
X0076367Y0148071D01*
X0076581Y0148000D01*
X0076724D01*
X0076938Y0148071D01*
X0077081Y0148214D01*
X0077152Y0148428D01*
Y0149500D01*
X0077566D02*
Y0148000D01*
Y0149500D02*
X0078566Y0148000D01*
Y0149500D02*
Y0148000D01*
X0078980Y0149500D02*
Y0148000D01*
Y0149500D02*
X0079480D01*
X0079694Y0149428D01*
X0079837Y0149285D01*
X0079909Y0149143D01*
X0079980Y0148928D01*
Y0148571D01*
X0079909Y0148357D01*
X0079837Y0148214D01*
X0079694Y0148071D01*
X0079480Y0148000D01*
X0078980D01*
X0081244Y0149500D02*
X0080316D01*
Y0148000D01*
X0081244D01*
X0080316Y0148786D02*
X0080887D01*
X0081494Y0149500D02*
Y0148000D01*
Y0149500D02*
X0082137D01*
X0082351Y0149428D01*
X0082422Y0149357D01*
X0082494Y0149214D01*
Y0149071D01*
X0082422Y0148928D01*
X0082351Y0148857D01*
X0082137Y0148786D01*
X0081494D01*
X0081994D02*
X0082494Y0148000D01*
X0083829Y0149285D02*
X0083686Y0149428D01*
X0083472Y0149500D01*
X0083187D01*
X0082972Y0149428D01*
X0082830Y0149285D01*
Y0149143D01*
X0082901Y0149000D01*
X0082972Y0148928D01*
X0083115Y0148857D01*
X0083544Y0148714D01*
X0083686Y0148643D01*
X0083758Y0148571D01*
X0083829Y0148428D01*
Y0148214D01*
X0083686Y0148071D01*
X0083472Y0148000D01*
X0083187D01*
X0082972Y0148071D01*
X0082830Y0148214D01*
X0084165Y0149500D02*
Y0148000D01*
X0085479Y0149500D02*
X0084479Y0148000D01*
Y0149500D02*
X0085479D01*
X0084479Y0148000D02*
X0085479D01*
X0086743Y0149500D02*
X0085815D01*
Y0148000D01*
X0086743D01*
X0085815Y0148786D02*
X0086386D01*
X0088171Y0148714D02*
X0088814D01*
X0089028Y0148786D01*
X0089100Y0148857D01*
X0089171Y0149000D01*
Y0149214D01*
X0089100Y0149357D01*
X0089028Y0149428D01*
X0088814Y0149500D01*
X0088171D01*
Y0148000D01*
X0090649D02*
X0090078Y0149500D01*
X0089507Y0148000D01*
X0089721Y0148500D02*
X0090435D01*
X0090999Y0149500D02*
Y0148000D01*
Y0149500D02*
X0091499D01*
X0091713Y0149428D01*
X0091856Y0149285D01*
X0091928Y0149143D01*
X0091999Y0148928D01*
Y0148571D01*
X0091928Y0148357D01*
X0091856Y0148214D01*
X0091713Y0148071D01*
X0091499Y0148000D01*
X0090999D01*
X0093334Y0149285D02*
X0093192Y0149428D01*
X0092977Y0149500D01*
X0092692D01*
X0092477Y0149428D01*
X0092335Y0149285D01*
Y0149143D01*
X0092406Y0149000D01*
X0092477Y0148928D01*
X0092620Y0148857D01*
X0093049Y0148714D01*
X0093192Y0148643D01*
X0093263Y0148571D01*
X0093334Y0148428D01*
Y0148214D01*
X0093192Y0148071D01*
X0092977Y0148000D01*
X0092692D01*
X0092477Y0148071D01*
X0092335Y0148214D01*
X0095348Y0149500D02*
Y0148000D01*
X0094848Y0149500D02*
X0095848D01*
X0096455D02*
X0096312Y0149428D01*
X0096170Y0149285D01*
X0096098Y0149143D01*
X0096027Y0148928D01*
Y0148571D01*
X0096098Y0148357D01*
X0096170Y0148214D01*
X0096312Y0148071D01*
X0096455Y0148000D01*
X0096741D01*
X0096884Y0148071D01*
X0097026Y0148214D01*
X0097098Y0148357D01*
X0097169Y0148571D01*
Y0148928D01*
X0097098Y0149143D01*
X0097026Y0149285D01*
X0096884Y0149428D01*
X0096741Y0149500D01*
X0096455D01*
X0099697Y0149285D02*
X0099555Y0149428D01*
X0099340Y0149500D01*
X0099055D01*
X0098840Y0149428D01*
X0098698Y0149285D01*
Y0149143D01*
X0098769Y0149000D01*
X0098840Y0148928D01*
X0098983Y0148857D01*
X0099412Y0148714D01*
X0099555Y0148643D01*
X0099626Y0148571D01*
X0099697Y0148428D01*
Y0148214D01*
X0099555Y0148071D01*
X0099340Y0148000D01*
X0099055D01*
X0098840Y0148071D01*
X0098698Y0148214D01*
X0100033Y0149500D02*
Y0148428D01*
X0100104Y0148214D01*
X0100247Y0148071D01*
X0100461Y0148000D01*
X0100604D01*
X0100819Y0148071D01*
X0100961Y0148214D01*
X0101033Y0148428D01*
Y0149500D01*
X0101447D02*
Y0148000D01*
X0102261Y0149500D02*
Y0148000D01*
X0101761Y0149500D02*
X0102761D01*
X0104118Y0148714D02*
X0104761D01*
X0104975Y0148786D01*
X0105046Y0148857D01*
X0105118Y0149000D01*
Y0149214D01*
X0105046Y0149357D01*
X0104975Y0149428D01*
X0104761Y0149500D01*
X0104118D01*
Y0148000D01*
X0105453Y0149500D02*
Y0148000D01*
Y0149500D02*
X0106096D01*
X0106310Y0149428D01*
X0106382Y0149357D01*
X0106453Y0149214D01*
Y0149071D01*
X0106382Y0148928D01*
X0106310Y0148857D01*
X0106096Y0148786D01*
X0105453D01*
X0105953D02*
X0106453Y0148000D01*
X0107217Y0149500D02*
X0107074Y0149428D01*
X0106932Y0149285D01*
X0106860Y0149143D01*
X0106789Y0148928D01*
Y0148571D01*
X0106860Y0148357D01*
X0106932Y0148214D01*
X0107074Y0148071D01*
X0107217Y0148000D01*
X0107503D01*
X0107646Y0148071D01*
X0107788Y0148214D01*
X0107860Y0148357D01*
X0107931Y0148571D01*
Y0148928D01*
X0107860Y0149143D01*
X0107788Y0149285D01*
X0107646Y0149428D01*
X0107503Y0149500D01*
X0107217D01*
X0109352Y0149143D02*
X0109281Y0149285D01*
X0109138Y0149428D01*
X0108995Y0149500D01*
X0108710D01*
X0108567Y0149428D01*
X0108424Y0149285D01*
X0108353Y0149143D01*
X0108281Y0148928D01*
Y0148571D01*
X0108353Y0148357D01*
X0108424Y0148214D01*
X0108567Y0148071D01*
X0108710Y0148000D01*
X0108995D01*
X0109138Y0148071D01*
X0109281Y0148214D01*
X0109352Y0148357D01*
X0110702Y0149500D02*
X0109774D01*
Y0148000D01*
X0110702D01*
X0109774Y0148786D02*
X0110345D01*
X0111952Y0149285D02*
X0111809Y0149428D01*
X0111595Y0149500D01*
X0111309D01*
X0111095Y0149428D01*
X0110952Y0149285D01*
Y0149143D01*
X0111023Y0149000D01*
X0111095Y0148928D01*
X0111238Y0148857D01*
X0111666Y0148714D01*
X0111809Y0148643D01*
X0111880Y0148571D01*
X0111952Y0148428D01*
Y0148214D01*
X0111809Y0148071D01*
X0111595Y0148000D01*
X0111309D01*
X0111095Y0148071D01*
X0110952Y0148214D01*
X0113287Y0149285D02*
X0113144Y0149428D01*
X0112930Y0149500D01*
X0112645D01*
X0112430Y0149428D01*
X0112287Y0149285D01*
Y0149143D01*
X0112359Y0149000D01*
X0112430Y0148928D01*
X0112573Y0148857D01*
X0113002Y0148714D01*
X0113144Y0148643D01*
X0113216Y0148571D01*
X0113287Y0148428D01*
Y0148214D01*
X0113144Y0148071D01*
X0112930Y0148000D01*
X0112645D01*
X0112430Y0148071D01*
X0112287Y0148214D01*
X0113694Y0148143D02*
X0113623Y0148071D01*
X0113694Y0148000D01*
X0113766Y0148071D01*
X0113694Y0148143D01*
X0054000Y0151714D02*
X0054643D01*
X0054857Y0151786D01*
X0054928Y0151857D01*
X0055000Y0152000D01*
Y0152214D01*
X0054928Y0152357D01*
X0054857Y0152428D01*
X0054643Y0152500D01*
X0054000D01*
Y0151000D01*
X0056478D02*
X0055907Y0152500D01*
X0055335Y0151000D01*
X0055550Y0151500D02*
X0056264D01*
X0056828Y0152500D02*
Y0151000D01*
Y0152500D02*
X0057328D01*
X0057542Y0152428D01*
X0057685Y0152285D01*
X0057756Y0152143D01*
X0057828Y0151928D01*
Y0151571D01*
X0057756Y0151357D01*
X0057685Y0151214D01*
X0057542Y0151071D01*
X0057328Y0151000D01*
X0056828D01*
X0059163Y0152285D02*
X0059020Y0152428D01*
X0058806Y0152500D01*
X0058520D01*
X0058306Y0152428D01*
X0058163Y0152285D01*
Y0152143D01*
X0058235Y0152000D01*
X0058306Y0151928D01*
X0058449Y0151857D01*
X0058878Y0151714D01*
X0059020Y0151643D01*
X0059092Y0151571D01*
X0059163Y0151428D01*
Y0151214D01*
X0059020Y0151071D01*
X0058806Y0151000D01*
X0058520D01*
X0058306Y0151071D01*
X0058163Y0151214D01*
X0060677Y0152500D02*
Y0151000D01*
X0061677Y0152500D02*
Y0151000D01*
X0060677Y0151786D02*
X0061677D01*
X0063234Y0151000D02*
X0062662Y0152500D01*
X0062091Y0151000D01*
X0062305Y0151500D02*
X0063019D01*
X0063584Y0152500D02*
X0064155Y0151000D01*
X0064726Y0152500D02*
X0064155Y0151000D01*
X0065847Y0152500D02*
X0064919D01*
Y0151000D01*
X0065847D01*
X0064919Y0151786D02*
X0065490D01*
X0067276Y0152500D02*
Y0151000D01*
Y0152500D02*
X0068276Y0151000D01*
Y0152500D02*
Y0151000D01*
X0069118Y0152500D02*
X0068975Y0152428D01*
X0068833Y0152285D01*
X0068761Y0152143D01*
X0068690Y0151928D01*
Y0151571D01*
X0068761Y0151357D01*
X0068833Y0151214D01*
X0068975Y0151071D01*
X0069118Y0151000D01*
X0069404D01*
X0069547Y0151071D01*
X0069689Y0151214D01*
X0069761Y0151357D01*
X0069832Y0151571D01*
Y0151928D01*
X0069761Y0152143D01*
X0069689Y0152285D01*
X0069547Y0152428D01*
X0069404Y0152500D01*
X0069118D01*
X0070682D02*
Y0151000D01*
X0070182Y0152500D02*
X0071182D01*
X0072539D02*
Y0151000D01*
Y0152500D02*
X0073182D01*
X0073396Y0152428D01*
X0073467Y0152357D01*
X0073539Y0152214D01*
Y0152071D01*
X0073467Y0151928D01*
X0073396Y0151857D01*
X0073182Y0151786D01*
X0072539D02*
X0073182D01*
X0073396Y0151714D01*
X0073467Y0151643D01*
X0073539Y0151500D01*
Y0151286D01*
X0073467Y0151143D01*
X0073396Y0151071D01*
X0073182Y0151000D01*
X0072539D01*
X0074803Y0152500D02*
X0073874D01*
Y0151000D01*
X0074803D01*
X0073874Y0151786D02*
X0074446D01*
X0075981Y0152500D02*
X0075053D01*
Y0151000D01*
X0075981D01*
X0075053Y0151786D02*
X0075624D01*
X0076231Y0152500D02*
Y0151000D01*
Y0152500D02*
X0077231Y0151000D01*
Y0152500D02*
Y0151000D01*
X0078823Y0152500D02*
Y0151428D01*
X0078895Y0151214D01*
X0079037Y0151071D01*
X0079252Y0151000D01*
X0079395D01*
X0079609Y0151071D01*
X0079752Y0151214D01*
X0079823Y0151428D01*
Y0152500D01*
X0080237D02*
Y0151000D01*
Y0152500D02*
X0081237Y0151000D01*
Y0152500D02*
Y0151000D01*
X0081651Y0152500D02*
Y0151000D01*
Y0152500D02*
X0082151D01*
X0082365Y0152428D01*
X0082508Y0152285D01*
X0082580Y0152143D01*
X0082651Y0151928D01*
Y0151571D01*
X0082580Y0151357D01*
X0082508Y0151214D01*
X0082365Y0151071D01*
X0082151Y0151000D01*
X0081651D01*
X0083915Y0152500D02*
X0082987D01*
Y0151000D01*
X0083915D01*
X0082987Y0151786D02*
X0083558D01*
X0084165Y0152500D02*
Y0151000D01*
Y0152500D02*
X0084808D01*
X0085022Y0152428D01*
X0085093Y0152357D01*
X0085165Y0152214D01*
Y0152071D01*
X0085093Y0151928D01*
X0085022Y0151857D01*
X0084808Y0151786D01*
X0084165D01*
X0084665D02*
X0085165Y0151000D01*
X0086500Y0152285D02*
X0086357Y0152428D01*
X0086143Y0152500D01*
X0085857D01*
X0085643Y0152428D01*
X0085500Y0152285D01*
Y0152143D01*
X0085572Y0152000D01*
X0085643Y0151928D01*
X0085786Y0151857D01*
X0086215Y0151714D01*
X0086357Y0151643D01*
X0086429Y0151571D01*
X0086500Y0151428D01*
Y0151214D01*
X0086357Y0151071D01*
X0086143Y0151000D01*
X0085857D01*
X0085643Y0151071D01*
X0085500Y0151214D01*
X0086836Y0152500D02*
Y0151000D01*
X0088150Y0152500D02*
X0087150Y0151000D01*
Y0152500D02*
X0088150D01*
X0087150Y0151000D02*
X0088150D01*
X0089414Y0152500D02*
X0088485D01*
Y0151000D01*
X0089414D01*
X0088485Y0151786D02*
X0089057D01*
X0089664Y0152500D02*
Y0151000D01*
Y0152500D02*
X0090164D01*
X0090378Y0152428D01*
X0090521Y0152285D01*
X0090592Y0152143D01*
X0090664Y0151928D01*
Y0151571D01*
X0090592Y0151357D01*
X0090521Y0151214D01*
X0090378Y0151071D01*
X0090164Y0151000D01*
X0089664D01*
X0091071Y0151143D02*
X0090999Y0151071D01*
X0091071Y0151000D01*
X0091142Y0151071D01*
X0091071Y0151143D01*
X0050000Y0155214D02*
X0050143Y0155285D01*
X0050357Y0155500D01*
Y0154000D01*
X0051171Y0154143D02*
X0051100Y0154071D01*
X0051171Y0154000D01*
X0051243Y0154071D01*
X0051171Y0154143D01*
X0051571Y0155785D02*
X0051714Y0155643D01*
X0051857Y0155428D01*
X0052000Y0155143D01*
X0052071Y0154786D01*
Y0154500D01*
X0052000Y0154143D01*
X0051857Y0153857D01*
X0051714Y0153643D01*
X0051571Y0153500D01*
X0051714Y0155643D02*
X0051857Y0155357D01*
X0051928Y0155143D01*
X0052000Y0154786D01*
Y0154500D01*
X0051928Y0154143D01*
X0051857Y0153929D01*
X0051714Y0153643D01*
X0054613Y0155285D02*
X0054470Y0155428D01*
X0054256Y0155500D01*
X0053971D01*
X0053756Y0155428D01*
X0053614Y0155285D01*
Y0155143D01*
X0053685Y0155000D01*
X0053756Y0154928D01*
X0053899Y0154857D01*
X0054328Y0154714D01*
X0054470Y0154643D01*
X0054542Y0154571D01*
X0054613Y0154428D01*
Y0154214D01*
X0054470Y0154071D01*
X0054256Y0154000D01*
X0053971D01*
X0053756Y0154071D01*
X0053614Y0154214D01*
X0055377Y0155500D02*
X0055235Y0155428D01*
X0055092Y0155285D01*
X0055020Y0155143D01*
X0054949Y0154928D01*
Y0154571D01*
X0055020Y0154357D01*
X0055092Y0154214D01*
X0055235Y0154071D01*
X0055377Y0154000D01*
X0055663D01*
X0055806Y0154071D01*
X0055949Y0154214D01*
X0056020Y0154357D01*
X0056092Y0154571D01*
Y0154928D01*
X0056020Y0155143D01*
X0055949Y0155285D01*
X0055806Y0155428D01*
X0055663Y0155500D01*
X0055377D01*
X0056441D02*
Y0154000D01*
X0057298D01*
X0057463Y0155500D02*
Y0154000D01*
Y0155500D02*
X0057963D01*
X0058177Y0155428D01*
X0058320Y0155285D01*
X0058391Y0155143D01*
X0058462Y0154928D01*
Y0154571D01*
X0058391Y0154357D01*
X0058320Y0154214D01*
X0058177Y0154071D01*
X0057963Y0154000D01*
X0057463D01*
X0059726Y0155500D02*
X0058798D01*
Y0154000D01*
X0059726D01*
X0058798Y0154786D02*
X0059369D01*
X0059976Y0155500D02*
Y0154000D01*
Y0155500D02*
X0060619D01*
X0060833Y0155428D01*
X0060905Y0155357D01*
X0060976Y0155214D01*
Y0155071D01*
X0060905Y0154928D01*
X0060833Y0154857D01*
X0060619Y0154786D01*
X0059976D01*
X0060476D02*
X0060976Y0154000D01*
X0061312Y0154714D02*
X0061955D01*
X0062169Y0154786D01*
X0062240Y0154857D01*
X0062312Y0155000D01*
Y0155214D01*
X0062240Y0155357D01*
X0062169Y0155428D01*
X0061955Y0155500D01*
X0061312D01*
Y0154000D01*
X0063790D02*
X0063219Y0155500D01*
X0062647Y0154000D01*
X0062862Y0154500D02*
X0063576D01*
X0065140Y0155285D02*
X0064997Y0155428D01*
X0064783Y0155500D01*
X0064497D01*
X0064283Y0155428D01*
X0064140Y0155285D01*
Y0155143D01*
X0064211Y0155000D01*
X0064283Y0154928D01*
X0064425Y0154857D01*
X0064854Y0154714D01*
X0064997Y0154643D01*
X0065068Y0154571D01*
X0065140Y0154428D01*
Y0154214D01*
X0064997Y0154071D01*
X0064783Y0154000D01*
X0064497D01*
X0064283Y0154071D01*
X0064140Y0154214D01*
X0065975Y0155500D02*
Y0154000D01*
X0065475Y0155500D02*
X0066475D01*
X0067582D02*
X0066654D01*
Y0154000D01*
X0067582D01*
X0066654Y0154786D02*
X0067225D01*
X0069010Y0154643D02*
X0070296D01*
X0071917Y0155500D02*
Y0154000D01*
Y0155500D02*
X0072559D01*
X0072774Y0155428D01*
X0072845Y0155357D01*
X0072917Y0155214D01*
Y0155071D01*
X0072845Y0154928D01*
X0072774Y0154857D01*
X0072559Y0154786D01*
X0071917D01*
X0072417D02*
X0072917Y0154000D01*
X0073681Y0155500D02*
X0073538Y0155428D01*
X0073395Y0155285D01*
X0073324Y0155143D01*
X0073252Y0154928D01*
Y0154571D01*
X0073324Y0154357D01*
X0073395Y0154214D01*
X0073538Y0154071D01*
X0073681Y0154000D01*
X0073966D01*
X0074109Y0154071D01*
X0074252Y0154214D01*
X0074323Y0154357D01*
X0074395Y0154571D01*
Y0154928D01*
X0074323Y0155143D01*
X0074252Y0155285D01*
X0074109Y0155428D01*
X0073966Y0155500D01*
X0073681D01*
X0074745D02*
Y0154000D01*
X0075744Y0155500D02*
Y0154000D01*
X0074745Y0154786D02*
X0075744D01*
X0077158Y0155285D02*
X0077016Y0155428D01*
X0076801Y0155500D01*
X0076516D01*
X0076301Y0155428D01*
X0076159Y0155285D01*
Y0155143D01*
X0076230Y0155000D01*
X0076301Y0154928D01*
X0076444Y0154857D01*
X0076873Y0154714D01*
X0077016Y0154643D01*
X0077087Y0154571D01*
X0077158Y0154428D01*
Y0154214D01*
X0077016Y0154071D01*
X0076801Y0154000D01*
X0076516D01*
X0076301Y0154071D01*
X0076159Y0154214D01*
X0077494Y0153786D02*
X0078494Y0155500D01*
X0078594D02*
Y0154000D01*
X0079451D01*
X0080543Y0155500D02*
X0079615D01*
Y0154000D01*
X0080543D01*
X0079615Y0154786D02*
X0080186D01*
X0081936Y0154000D02*
X0081365Y0155500D01*
X0080793Y0154000D01*
X0081008Y0154500D02*
X0081722D01*
X0082286Y0155500D02*
Y0154000D01*
Y0155500D02*
X0082786D01*
X0083000Y0155428D01*
X0083143Y0155285D01*
X0083214Y0155143D01*
X0083286Y0154928D01*
Y0154571D01*
X0083214Y0154357D01*
X0083143Y0154214D01*
X0083000Y0154071D01*
X0082786Y0154000D01*
X0082286D01*
X0084800Y0155500D02*
Y0154000D01*
Y0155500D02*
X0085728D01*
X0084800Y0154786D02*
X0085371D01*
X0085899Y0155500D02*
Y0154000D01*
Y0155500D02*
X0086542D01*
X0086756Y0155428D01*
X0086828Y0155357D01*
X0086899Y0155214D01*
Y0155071D01*
X0086828Y0154928D01*
X0086756Y0154857D01*
X0086542Y0154786D01*
X0085899D01*
X0086399D02*
X0086899Y0154000D01*
X0088163Y0155500D02*
X0087235D01*
Y0154000D01*
X0088163D01*
X0087235Y0154786D02*
X0087806D01*
X0089342Y0155500D02*
X0088413D01*
Y0154000D01*
X0089342D01*
X0088413Y0154786D02*
X0088984D01*
X0091770Y0155285D02*
X0091627Y0155428D01*
X0091413Y0155500D01*
X0091127D01*
X0090913Y0155428D01*
X0090770Y0155285D01*
Y0155143D01*
X0090841Y0155000D01*
X0090913Y0154928D01*
X0091055Y0154857D01*
X0091484Y0154714D01*
X0091627Y0154643D01*
X0091698Y0154571D01*
X0091770Y0154428D01*
Y0154214D01*
X0091627Y0154071D01*
X0091413Y0154000D01*
X0091127D01*
X0090913Y0154071D01*
X0090770Y0154214D01*
X0092534Y0155500D02*
X0092391Y0155428D01*
X0092248Y0155285D01*
X0092177Y0155143D01*
X0092105Y0154928D01*
Y0154571D01*
X0092177Y0154357D01*
X0092248Y0154214D01*
X0092391Y0154071D01*
X0092534Y0154000D01*
X0092819D01*
X0092962Y0154071D01*
X0093105Y0154214D01*
X0093176Y0154357D01*
X0093248Y0154571D01*
Y0154928D01*
X0093176Y0155143D01*
X0093105Y0155285D01*
X0092962Y0155428D01*
X0092819Y0155500D01*
X0092534D01*
X0093598D02*
Y0154000D01*
X0094455D01*
X0094619Y0155500D02*
Y0154000D01*
Y0155500D02*
X0095119D01*
X0095333Y0155428D01*
X0095476Y0155285D01*
X0095547Y0155143D01*
X0095619Y0154928D01*
Y0154571D01*
X0095547Y0154357D01*
X0095476Y0154214D01*
X0095333Y0154071D01*
X0095119Y0154000D01*
X0094619D01*
X0096883Y0155500D02*
X0095954D01*
Y0154000D01*
X0096883D01*
X0095954Y0154786D02*
X0096526D01*
X0097133Y0155500D02*
Y0154000D01*
Y0155500D02*
X0097775D01*
X0097990Y0155428D01*
X0098061Y0155357D01*
X0098133Y0155214D01*
Y0155071D01*
X0098061Y0154928D01*
X0097990Y0154857D01*
X0097775Y0154786D01*
X0097133D01*
X0097633D02*
X0098133Y0154000D01*
X0098468Y0154714D02*
X0099111D01*
X0099325Y0154786D01*
X0099397Y0154857D01*
X0099468Y0155000D01*
Y0155214D01*
X0099397Y0155357D01*
X0099325Y0155428D01*
X0099111Y0155500D01*
X0098468D01*
Y0154000D01*
X0100946D02*
X0100375Y0155500D01*
X0099804Y0154000D01*
X0100018Y0154500D02*
X0100732D01*
X0102296Y0155285D02*
X0102153Y0155428D01*
X0101939Y0155500D01*
X0101653D01*
X0101439Y0155428D01*
X0101296Y0155285D01*
Y0155143D01*
X0101368Y0155000D01*
X0101439Y0154928D01*
X0101582Y0154857D01*
X0102010Y0154714D01*
X0102153Y0154643D01*
X0102225Y0154571D01*
X0102296Y0154428D01*
Y0154214D01*
X0102153Y0154071D01*
X0101939Y0154000D01*
X0101653D01*
X0101439Y0154071D01*
X0101296Y0154214D01*
X0103131Y0155500D02*
Y0154000D01*
X0102632Y0155500D02*
X0103631D01*
X0104738D02*
X0103810D01*
Y0154000D01*
X0104738D01*
X0103810Y0154786D02*
X0104381D01*
X0105060Y0154143D02*
X0104988Y0154071D01*
X0105060Y0154000D01*
X0105131Y0154071D01*
X0105060Y0154143D01*
X0050000Y0158714D02*
X0050643D01*
X0050857Y0158786D01*
X0050928Y0158857D01*
X0051000Y0159000D01*
Y0159214D01*
X0050928Y0159357D01*
X0050857Y0159428D01*
X0050643Y0159500D01*
X0050000D01*
Y0158000D01*
X0052407Y0159143D02*
X0052335Y0159285D01*
X0052192Y0159428D01*
X0052050Y0159500D01*
X0051764D01*
X0051621Y0159428D01*
X0051478Y0159285D01*
X0051407Y0159143D01*
X0051335Y0158928D01*
Y0158571D01*
X0051407Y0158357D01*
X0051478Y0158214D01*
X0051621Y0158071D01*
X0051764Y0158000D01*
X0052050D01*
X0052192Y0158071D01*
X0052335Y0158214D01*
X0052407Y0158357D01*
X0052828Y0159500D02*
Y0158000D01*
Y0159500D02*
X0053471D01*
X0053685Y0159428D01*
X0053756Y0159357D01*
X0053828Y0159214D01*
Y0159071D01*
X0053756Y0158928D01*
X0053685Y0158857D01*
X0053471Y0158786D01*
X0052828D02*
X0053471D01*
X0053685Y0158714D01*
X0053756Y0158643D01*
X0053828Y0158500D01*
Y0158286D01*
X0053756Y0158143D01*
X0053685Y0158071D01*
X0053471Y0158000D01*
X0052828D01*
X0056484D02*
X0055913Y0159500D01*
X0055342Y0158000D01*
X0055556Y0158500D02*
X0056270D01*
X0057834Y0159285D02*
X0057691Y0159428D01*
X0057477Y0159500D01*
X0057191D01*
X0056977Y0159428D01*
X0056834Y0159285D01*
Y0159143D01*
X0056906Y0159000D01*
X0056977Y0158928D01*
X0057120Y0158857D01*
X0057548Y0158714D01*
X0057691Y0158643D01*
X0057763Y0158571D01*
X0057834Y0158428D01*
Y0158214D01*
X0057691Y0158071D01*
X0057477Y0158000D01*
X0057191D01*
X0056977Y0158071D01*
X0056834Y0158214D01*
X0059169Y0159285D02*
X0059027Y0159428D01*
X0058812Y0159500D01*
X0058527D01*
X0058312Y0159428D01*
X0058170Y0159285D01*
Y0159143D01*
X0058241Y0159000D01*
X0058312Y0158928D01*
X0058455Y0158857D01*
X0058884Y0158714D01*
X0059027Y0158643D01*
X0059098Y0158571D01*
X0059169Y0158428D01*
Y0158214D01*
X0059027Y0158071D01*
X0058812Y0158000D01*
X0058527D01*
X0058312Y0158071D01*
X0058170Y0158214D01*
X0060433Y0159500D02*
X0059505D01*
Y0158000D01*
X0060433D01*
X0059505Y0158786D02*
X0060076D01*
X0060683Y0159500D02*
Y0158000D01*
Y0159500D02*
X0061255Y0158000D01*
X0061826Y0159500D02*
X0061255Y0158000D01*
X0061826Y0159500D02*
Y0158000D01*
X0062255Y0159500D02*
Y0158000D01*
Y0159500D02*
X0062897D01*
X0063111Y0159428D01*
X0063183Y0159357D01*
X0063254Y0159214D01*
Y0159071D01*
X0063183Y0158928D01*
X0063111Y0158857D01*
X0062897Y0158786D01*
X0062255D02*
X0062897D01*
X0063111Y0158714D01*
X0063183Y0158643D01*
X0063254Y0158500D01*
Y0158286D01*
X0063183Y0158143D01*
X0063111Y0158071D01*
X0062897Y0158000D01*
X0062255D01*
X0063590Y0159500D02*
Y0158000D01*
X0064447D01*
X0064611Y0159500D02*
X0065182Y0158786D01*
Y0158000D01*
X0065754Y0159500D02*
X0065182Y0158786D01*
X0067125Y0159500D02*
Y0158000D01*
X0067439Y0159500D02*
Y0158000D01*
Y0159500D02*
X0068439Y0158000D01*
Y0159500D02*
Y0158000D01*
X0069853Y0159285D02*
X0069710Y0159428D01*
X0069496Y0159500D01*
X0069210D01*
X0068996Y0159428D01*
X0068853Y0159285D01*
Y0159143D01*
X0068925Y0159000D01*
X0068996Y0158928D01*
X0069139Y0158857D01*
X0069567Y0158714D01*
X0069710Y0158643D01*
X0069781Y0158571D01*
X0069853Y0158428D01*
Y0158214D01*
X0069710Y0158071D01*
X0069496Y0158000D01*
X0069210D01*
X0068996Y0158071D01*
X0068853Y0158214D01*
X0070688Y0159500D02*
Y0158000D01*
X0070189Y0159500D02*
X0071188D01*
X0071367D02*
Y0158000D01*
Y0159500D02*
X0072010D01*
X0072224Y0159428D01*
X0072295Y0159357D01*
X0072367Y0159214D01*
Y0159071D01*
X0072295Y0158928D01*
X0072224Y0158857D01*
X0072010Y0158786D01*
X0071367D01*
X0071867D02*
X0072367Y0158000D01*
X0072702Y0159500D02*
Y0158428D01*
X0072774Y0158214D01*
X0072917Y0158071D01*
X0073131Y0158000D01*
X0073274D01*
X0073488Y0158071D01*
X0073631Y0158214D01*
X0073702Y0158428D01*
Y0159500D01*
X0075187Y0159143D02*
X0075116Y0159285D01*
X0074973Y0159428D01*
X0074830Y0159500D01*
X0074545D01*
X0074402Y0159428D01*
X0074259Y0159285D01*
X0074188Y0159143D01*
X0074116Y0158928D01*
Y0158571D01*
X0074188Y0158357D01*
X0074259Y0158214D01*
X0074402Y0158071D01*
X0074545Y0158000D01*
X0074830D01*
X0074973Y0158071D01*
X0075116Y0158214D01*
X0075187Y0158357D01*
X0076109Y0159500D02*
Y0158000D01*
X0075609Y0159500D02*
X0076609D01*
X0076787D02*
Y0158000D01*
X0077530Y0159500D02*
X0077387Y0159428D01*
X0077244Y0159285D01*
X0077173Y0159143D01*
X0077101Y0158928D01*
Y0158571D01*
X0077173Y0158357D01*
X0077244Y0158214D01*
X0077387Y0158071D01*
X0077530Y0158000D01*
X0077815D01*
X0077958Y0158071D01*
X0078101Y0158214D01*
X0078173Y0158357D01*
X0078244Y0158571D01*
Y0158928D01*
X0078173Y0159143D01*
X0078101Y0159285D01*
X0077958Y0159428D01*
X0077815Y0159500D01*
X0077530D01*
X0078594D02*
Y0158000D01*
Y0159500D02*
X0079594Y0158000D01*
Y0159500D02*
Y0158000D01*
X0081008Y0159285D02*
X0080865Y0159428D01*
X0080651Y0159500D01*
X0080365D01*
X0080151Y0159428D01*
X0080008Y0159285D01*
Y0159143D01*
X0080079Y0159000D01*
X0080151Y0158928D01*
X0080294Y0158857D01*
X0080722Y0158714D01*
X0080865Y0158643D01*
X0080936Y0158571D01*
X0081008Y0158428D01*
Y0158214D01*
X0080865Y0158071D01*
X0080651Y0158000D01*
X0080365D01*
X0080151Y0158071D01*
X0080008Y0158214D01*
X0054000Y0177714D02*
X0054643D01*
X0054857Y0177786D01*
X0054928Y0177857D01*
X0055000Y0178000D01*
Y0178214D01*
X0054928Y0178357D01*
X0054857Y0178428D01*
X0054643Y0178500D01*
X0054000D01*
Y0177000D01*
X0056478D02*
X0055907Y0178500D01*
X0055335Y0177000D01*
X0055550Y0177500D02*
X0056264D01*
X0056828Y0178500D02*
Y0177000D01*
Y0178500D02*
X0057328D01*
X0057542Y0178428D01*
X0057685Y0178285D01*
X0057756Y0178143D01*
X0057828Y0177928D01*
Y0177571D01*
X0057756Y0177357D01*
X0057685Y0177214D01*
X0057542Y0177071D01*
X0057328Y0177000D01*
X0056828D01*
X0059163Y0178285D02*
X0059020Y0178428D01*
X0058806Y0178500D01*
X0058520D01*
X0058306Y0178428D01*
X0058163Y0178285D01*
Y0178143D01*
X0058235Y0178000D01*
X0058306Y0177928D01*
X0058449Y0177857D01*
X0058878Y0177714D01*
X0059020Y0177643D01*
X0059092Y0177571D01*
X0059163Y0177428D01*
Y0177214D01*
X0059020Y0177071D01*
X0058806Y0177000D01*
X0058520D01*
X0058306Y0177071D01*
X0058163Y0177214D01*
X0060677Y0178500D02*
Y0177000D01*
X0061677Y0178500D02*
Y0177000D01*
X0060677Y0177786D02*
X0061677D01*
X0063234Y0177000D02*
X0062662Y0178500D01*
X0062091Y0177000D01*
X0062305Y0177500D02*
X0063019D01*
X0063584Y0178500D02*
X0064155Y0177000D01*
X0064726Y0178500D02*
X0064155Y0177000D01*
X0065847Y0178500D02*
X0064919D01*
Y0177000D01*
X0065847D01*
X0064919Y0177786D02*
X0065490D01*
X0067276Y0178500D02*
Y0177000D01*
Y0178500D02*
X0068276Y0177000D01*
Y0178500D02*
Y0177000D01*
X0069118Y0178500D02*
X0068975Y0178428D01*
X0068833Y0178285D01*
X0068761Y0178143D01*
X0068690Y0177928D01*
Y0177571D01*
X0068761Y0177357D01*
X0068833Y0177214D01*
X0068975Y0177071D01*
X0069118Y0177000D01*
X0069404D01*
X0069547Y0177071D01*
X0069689Y0177214D01*
X0069761Y0177357D01*
X0069832Y0177571D01*
Y0177928D01*
X0069761Y0178143D01*
X0069689Y0178285D01*
X0069547Y0178428D01*
X0069404Y0178500D01*
X0069118D01*
X0070682D02*
Y0177000D01*
X0070182Y0178500D02*
X0071182D01*
X0072539D02*
Y0177000D01*
Y0178500D02*
X0073182D01*
X0073396Y0178428D01*
X0073467Y0178357D01*
X0073539Y0178214D01*
Y0178071D01*
X0073467Y0177928D01*
X0073396Y0177857D01*
X0073182Y0177786D01*
X0072539D02*
X0073182D01*
X0073396Y0177714D01*
X0073467Y0177643D01*
X0073539Y0177500D01*
Y0177286D01*
X0073467Y0177143D01*
X0073396Y0177071D01*
X0073182Y0177000D01*
X0072539D01*
X0074803Y0178500D02*
X0073874D01*
Y0177000D01*
X0074803D01*
X0073874Y0177786D02*
X0074446D01*
X0075981Y0178500D02*
X0075053D01*
Y0177000D01*
X0075981D01*
X0075053Y0177786D02*
X0075624D01*
X0076231Y0178500D02*
Y0177000D01*
Y0178500D02*
X0077231Y0177000D01*
Y0178500D02*
Y0177000D01*
X0079252Y0178500D02*
X0079109Y0178428D01*
X0078966Y0178285D01*
X0078895Y0178143D01*
X0078823Y0177928D01*
Y0177571D01*
X0078895Y0177357D01*
X0078966Y0177214D01*
X0079109Y0177071D01*
X0079252Y0177000D01*
X0079537D01*
X0079680Y0177071D01*
X0079823Y0177214D01*
X0079894Y0177357D01*
X0079966Y0177571D01*
Y0177928D01*
X0079894Y0178143D01*
X0079823Y0178285D01*
X0079680Y0178428D01*
X0079537Y0178500D01*
X0079252D01*
X0080316D02*
X0080887Y0177000D01*
X0081458Y0178500D02*
X0080887Y0177000D01*
X0082580Y0178500D02*
X0081651D01*
Y0177000D01*
X0082580D01*
X0081651Y0177786D02*
X0082223D01*
X0082830Y0178500D02*
Y0177000D01*
Y0178500D02*
X0083472D01*
X0083686Y0178428D01*
X0083758Y0178357D01*
X0083829Y0178214D01*
Y0178071D01*
X0083758Y0177928D01*
X0083686Y0177857D01*
X0083472Y0177786D01*
X0082830D01*
X0083329D02*
X0083829Y0177000D01*
X0085165Y0178285D02*
X0085022Y0178428D01*
X0084808Y0178500D01*
X0084522D01*
X0084308Y0178428D01*
X0084165Y0178285D01*
Y0178143D01*
X0084236Y0178000D01*
X0084308Y0177928D01*
X0084451Y0177857D01*
X0084879Y0177714D01*
X0085022Y0177643D01*
X0085093Y0177571D01*
X0085165Y0177428D01*
Y0177214D01*
X0085022Y0177071D01*
X0084808Y0177000D01*
X0084522D01*
X0084308Y0177071D01*
X0084165Y0177214D01*
X0085500Y0178500D02*
Y0177000D01*
X0086814Y0178500D02*
X0085815Y0177000D01*
Y0178500D02*
X0086814D01*
X0085815Y0177000D02*
X0086814D01*
X0088078Y0178500D02*
X0087150D01*
Y0177000D01*
X0088078D01*
X0087150Y0177786D02*
X0087721D01*
X0088328Y0178500D02*
Y0177000D01*
Y0178500D02*
X0088828D01*
X0089042Y0178428D01*
X0089185Y0178285D01*
X0089257Y0178143D01*
X0089328Y0177928D01*
Y0177571D01*
X0089257Y0177357D01*
X0089185Y0177214D01*
X0089042Y0177071D01*
X0088828Y0177000D01*
X0088328D01*
X0089735Y0177143D02*
X0089664Y0177071D01*
X0089735Y0177000D01*
X0089807Y0177071D01*
X0089735Y0177143D01*
X0055000Y0168285D02*
X0054857Y0168428D01*
X0054643Y0168500D01*
X0054357D01*
X0054143Y0168428D01*
X0054000Y0168285D01*
Y0168143D01*
X0054071Y0168000D01*
X0054143Y0167928D01*
X0054286Y0167857D01*
X0054714Y0167714D01*
X0054857Y0167643D01*
X0054928Y0167571D01*
X0055000Y0167428D01*
Y0167214D01*
X0054857Y0167071D01*
X0054643Y0167000D01*
X0054357D01*
X0054143Y0167071D01*
X0054000Y0167214D01*
X0055335Y0168500D02*
Y0167428D01*
X0055407Y0167214D01*
X0055550Y0167071D01*
X0055764Y0167000D01*
X0055907D01*
X0056121Y0167071D01*
X0056264Y0167214D01*
X0056335Y0167428D01*
Y0168500D01*
X0056749Y0167714D02*
X0057392D01*
X0057606Y0167786D01*
X0057678Y0167857D01*
X0057749Y0168000D01*
Y0168214D01*
X0057678Y0168357D01*
X0057606Y0168428D01*
X0057392Y0168500D01*
X0056749D01*
Y0167000D01*
X0058085Y0167714D02*
X0058728D01*
X0058942Y0167786D01*
X0059013Y0167857D01*
X0059085Y0168000D01*
Y0168214D01*
X0059013Y0168357D01*
X0058942Y0168428D01*
X0058728Y0168500D01*
X0058085D01*
Y0167000D01*
X0059420Y0168500D02*
Y0167000D01*
X0060277D01*
X0060441Y0168500D02*
Y0167000D01*
X0061684Y0168500D02*
X0060756D01*
Y0167000D01*
X0061684D01*
X0060756Y0167786D02*
X0061327D01*
X0061934Y0168500D02*
Y0167000D01*
Y0168500D02*
X0062577D01*
X0062791Y0168428D01*
X0062862Y0168357D01*
X0062934Y0168214D01*
Y0168071D01*
X0062862Y0167928D01*
X0062791Y0167857D01*
X0062577Y0167786D01*
X0061934D01*
X0062434D02*
X0062934Y0167000D01*
X0065448Y0168285D02*
X0065305Y0168428D01*
X0065090Y0168500D01*
X0064805D01*
X0064591Y0168428D01*
X0064448Y0168285D01*
Y0168143D01*
X0064519Y0168000D01*
X0064591Y0167928D01*
X0064733Y0167857D01*
X0065162Y0167714D01*
X0065305Y0167643D01*
X0065376Y0167571D01*
X0065448Y0167428D01*
Y0167214D01*
X0065305Y0167071D01*
X0065090Y0167000D01*
X0064805D01*
X0064591Y0167071D01*
X0064448Y0167214D01*
X0065783Y0168500D02*
Y0167000D01*
X0066783Y0168500D02*
Y0167000D01*
X0065783Y0167786D02*
X0066783D01*
X0067626Y0168500D02*
X0067483Y0168428D01*
X0067340Y0168285D01*
X0067269Y0168143D01*
X0067197Y0167928D01*
Y0167571D01*
X0067269Y0167357D01*
X0067340Y0167214D01*
X0067483Y0167071D01*
X0067626Y0167000D01*
X0067911D01*
X0068054Y0167071D01*
X0068197Y0167214D01*
X0068268Y0167357D01*
X0068340Y0167571D01*
Y0167928D01*
X0068268Y0168143D01*
X0068197Y0168285D01*
X0068054Y0168428D01*
X0067911Y0168500D01*
X0067626D01*
X0068690D02*
Y0167428D01*
X0068761Y0167214D01*
X0068904Y0167071D01*
X0069118Y0167000D01*
X0069261D01*
X0069475Y0167071D01*
X0069618Y0167214D01*
X0069689Y0167428D01*
Y0168500D01*
X0070104D02*
Y0167000D01*
X0070961D01*
X0071125Y0168500D02*
Y0167000D01*
Y0168500D02*
X0071625D01*
X0071839Y0168428D01*
X0071982Y0168285D01*
X0072053Y0168143D01*
X0072125Y0167928D01*
Y0167571D01*
X0072053Y0167357D01*
X0071982Y0167214D01*
X0071839Y0167071D01*
X0071625Y0167000D01*
X0071125D01*
X0073639Y0168500D02*
Y0167000D01*
Y0168500D02*
X0074281D01*
X0074496Y0168428D01*
X0074567Y0168357D01*
X0074638Y0168214D01*
Y0168071D01*
X0074567Y0167928D01*
X0074496Y0167857D01*
X0074281Y0167786D01*
X0073639D01*
X0074139D02*
X0074638Y0167000D01*
X0075902Y0168500D02*
X0074974D01*
Y0167000D01*
X0075902D01*
X0074974Y0167786D02*
X0075545D01*
X0076152Y0168500D02*
Y0167000D01*
Y0168500D02*
X0076724Y0167000D01*
X0077295Y0168500D02*
X0076724Y0167000D01*
X0077295Y0168500D02*
Y0167000D01*
X0078152Y0168500D02*
X0078009Y0168428D01*
X0077866Y0168285D01*
X0077795Y0168143D01*
X0077723Y0167928D01*
Y0167571D01*
X0077795Y0167357D01*
X0077866Y0167214D01*
X0078009Y0167071D01*
X0078152Y0167000D01*
X0078438D01*
X0078580Y0167071D01*
X0078723Y0167214D01*
X0078795Y0167357D01*
X0078866Y0167571D01*
Y0167928D01*
X0078795Y0168143D01*
X0078723Y0168285D01*
X0078580Y0168428D01*
X0078438Y0168500D01*
X0078152D01*
X0079216D02*
X0079787Y0167000D01*
X0080359Y0168500D02*
X0079787Y0167000D01*
X0081480Y0168500D02*
X0080551D01*
Y0167000D01*
X0081480D01*
X0080551Y0167786D02*
X0081123D01*
X0084051Y0167000D02*
X0083479Y0168500D01*
X0082908Y0167000D01*
X0083122Y0167500D02*
X0083836D01*
X0084401Y0168500D02*
Y0167000D01*
Y0168500D02*
X0085400Y0167000D01*
Y0168500D02*
Y0167000D01*
X0085815Y0168500D02*
X0086386Y0167786D01*
Y0167000D01*
X0086957Y0168500D02*
X0086386Y0167786D01*
X0089328Y0168285D02*
X0089185Y0168428D01*
X0088971Y0168500D01*
X0088685D01*
X0088471Y0168428D01*
X0088328Y0168285D01*
Y0168143D01*
X0088400Y0168000D01*
X0088471Y0167928D01*
X0088614Y0167857D01*
X0089042Y0167714D01*
X0089185Y0167643D01*
X0089257Y0167571D01*
X0089328Y0167428D01*
Y0167214D01*
X0089185Y0167071D01*
X0088971Y0167000D01*
X0088685D01*
X0088471Y0167071D01*
X0088328Y0167214D01*
X0089664Y0168500D02*
Y0167000D01*
X0089978Y0168500D02*
Y0167000D01*
X0090835D01*
X0090999Y0168500D02*
Y0167000D01*
X0091999Y0168500D02*
X0090999Y0167500D01*
X0091356Y0167857D02*
X0091999Y0167000D01*
X0093334Y0168285D02*
X0093192Y0168428D01*
X0092977Y0168500D01*
X0092692D01*
X0092477Y0168428D01*
X0092335Y0168285D01*
Y0168143D01*
X0092406Y0168000D01*
X0092477Y0167928D01*
X0092620Y0167857D01*
X0093049Y0167714D01*
X0093192Y0167643D01*
X0093263Y0167571D01*
X0093334Y0167428D01*
Y0167214D01*
X0093192Y0167071D01*
X0092977Y0167000D01*
X0092692D01*
X0092477Y0167071D01*
X0092335Y0167214D01*
X0094741Y0168143D02*
X0094670Y0168285D01*
X0094527Y0168428D01*
X0094384Y0168500D01*
X0094099D01*
X0093956Y0168428D01*
X0093813Y0168285D01*
X0093741Y0168143D01*
X0093670Y0167928D01*
Y0167571D01*
X0093741Y0167357D01*
X0093813Y0167214D01*
X0093956Y0167071D01*
X0094099Y0167000D01*
X0094384D01*
X0094527Y0167071D01*
X0094670Y0167214D01*
X0094741Y0167357D01*
X0095163Y0168500D02*
Y0167000D01*
Y0168500D02*
X0095805D01*
X0096020Y0168428D01*
X0096091Y0168357D01*
X0096162Y0168214D01*
Y0168071D01*
X0096091Y0167928D01*
X0096020Y0167857D01*
X0095805Y0167786D01*
X0095163D01*
X0095662D02*
X0096162Y0167000D01*
X0097426Y0168500D02*
X0096498D01*
Y0167000D01*
X0097426D01*
X0096498Y0167786D02*
X0097069D01*
X0098605Y0168500D02*
X0097676D01*
Y0167000D01*
X0098605D01*
X0097676Y0167786D02*
X0098248D01*
X0098855Y0168500D02*
Y0167000D01*
Y0168500D02*
X0099854Y0167000D01*
Y0168500D02*
Y0167000D01*
X0101447Y0168500D02*
X0101804Y0167000D01*
X0102161Y0168500D02*
X0101804Y0167000D01*
X0102161Y0168500D02*
X0102518Y0167000D01*
X0102875Y0168500D02*
X0102518Y0167000D01*
X0103175Y0168500D02*
Y0167000D01*
X0104175Y0168500D02*
Y0167000D01*
X0103175Y0167786D02*
X0104175D01*
X0104589Y0168500D02*
Y0167000D01*
X0105975Y0168143D02*
X0105903Y0168285D01*
X0105760Y0168428D01*
X0105618Y0168500D01*
X0105332D01*
X0105189Y0168428D01*
X0105046Y0168285D01*
X0104975Y0168143D01*
X0104903Y0167928D01*
Y0167571D01*
X0104975Y0167357D01*
X0105046Y0167214D01*
X0105189Y0167071D01*
X0105332Y0167000D01*
X0105618D01*
X0105760Y0167071D01*
X0105903Y0167214D01*
X0105975Y0167357D01*
X0106396Y0168500D02*
Y0167000D01*
X0107396Y0168500D02*
Y0167000D01*
X0106396Y0167786D02*
X0107396D01*
X0109417Y0168500D02*
X0109274Y0168428D01*
X0109131Y0168285D01*
X0109060Y0168143D01*
X0108988Y0167928D01*
Y0167571D01*
X0109060Y0167357D01*
X0109131Y0167214D01*
X0109274Y0167071D01*
X0109417Y0167000D01*
X0109702D01*
X0109845Y0167071D01*
X0109988Y0167214D01*
X0110059Y0167357D01*
X0110131Y0167571D01*
Y0167928D01*
X0110059Y0168143D01*
X0109988Y0168285D01*
X0109845Y0168428D01*
X0109702Y0168500D01*
X0109417D01*
X0110481D02*
X0111052Y0167000D01*
X0111623Y0168500D02*
X0111052Y0167000D01*
X0112745Y0168500D02*
X0111816D01*
Y0167000D01*
X0112745D01*
X0111816Y0167786D02*
X0112387D01*
X0112994Y0168500D02*
Y0167000D01*
Y0168500D02*
X0113637D01*
X0113851Y0168428D01*
X0113923Y0168357D01*
X0113994Y0168214D01*
Y0168071D01*
X0113923Y0167928D01*
X0113851Y0167857D01*
X0113637Y0167786D01*
X0112994D01*
X0113494D02*
X0113994Y0167000D01*
X0114330Y0168500D02*
Y0167000D01*
X0115330Y0168500D02*
Y0167000D01*
X0114330Y0167786D02*
X0115330D01*
X0116887Y0167000D02*
X0116315Y0168500D01*
X0115744Y0167000D01*
X0115958Y0167500D02*
X0116672D01*
X0117236Y0168500D02*
Y0167000D01*
Y0168500D02*
X0118236Y0167000D01*
Y0168500D02*
Y0167000D01*
X0119722Y0168143D02*
X0119650Y0168285D01*
X0119507Y0168428D01*
X0119365Y0168500D01*
X0119079D01*
X0118936Y0168428D01*
X0118793Y0168285D01*
X0118722Y0168143D01*
X0118650Y0167928D01*
Y0167571D01*
X0118722Y0167357D01*
X0118793Y0167214D01*
X0118936Y0167071D01*
X0119079Y0167000D01*
X0119365D01*
X0119507Y0167071D01*
X0119650Y0167214D01*
X0119722Y0167357D01*
Y0167571D01*
X0119365D02*
X0119722D01*
X0121064Y0168285D02*
X0120921Y0168428D01*
X0120707Y0168500D01*
X0120421D01*
X0120207Y0168428D01*
X0120064Y0168285D01*
Y0168143D01*
X0120136Y0168000D01*
X0120207Y0167928D01*
X0120350Y0167857D01*
X0120779Y0167714D01*
X0120921Y0167643D01*
X0120993Y0167571D01*
X0121064Y0167428D01*
Y0167214D01*
X0120921Y0167071D01*
X0120707Y0167000D01*
X0120421D01*
X0120207Y0167071D01*
X0120064Y0167214D01*
X0122578Y0167714D02*
X0123221D01*
X0123435Y0167786D01*
X0123507Y0167857D01*
X0123578Y0168000D01*
Y0168214D01*
X0123507Y0168357D01*
X0123435Y0168428D01*
X0123221Y0168500D01*
X0122578D01*
Y0167000D01*
X0125056D02*
X0124485Y0168500D01*
X0123914Y0167000D01*
X0124128Y0167500D02*
X0124842D01*
X0125406Y0168500D02*
Y0167000D01*
Y0168500D02*
X0125906D01*
X0126120Y0168428D01*
X0126263Y0168285D01*
X0126334Y0168143D01*
X0126406Y0167928D01*
Y0167571D01*
X0126334Y0167357D01*
X0126263Y0167214D01*
X0126120Y0167071D01*
X0125906Y0167000D01*
X0125406D01*
X0127741Y0168285D02*
X0127599Y0168428D01*
X0127384Y0168500D01*
X0127099D01*
X0126884Y0168428D01*
X0126742Y0168285D01*
Y0168143D01*
X0126813Y0168000D01*
X0126884Y0167928D01*
X0127027Y0167857D01*
X0127456Y0167714D01*
X0127599Y0167643D01*
X0127670Y0167571D01*
X0127741Y0167428D01*
Y0167214D01*
X0127599Y0167071D01*
X0127384Y0167000D01*
X0127099D01*
X0126884Y0167071D01*
X0126742Y0167214D01*
X0128148Y0167143D02*
X0128077Y0167071D01*
X0128148Y0167000D01*
X0128220Y0167071D01*
X0128148Y0167143D01*
X0050857Y0171285D02*
X0050786Y0171428D01*
X0050571Y0171500D01*
X0050428D01*
X0050214Y0171428D01*
X0050071Y0171214D01*
X0050000Y0170857D01*
Y0170500D01*
X0050071Y0170214D01*
X0050214Y0170071D01*
X0050428Y0170000D01*
X0050500D01*
X0050714Y0170071D01*
X0050857Y0170214D01*
X0050928Y0170428D01*
Y0170500D01*
X0050857Y0170714D01*
X0050714Y0170857D01*
X0050500Y0170928D01*
X0050428D01*
X0050214Y0170857D01*
X0050071Y0170714D01*
X0050000Y0170500D01*
X0051328Y0170143D02*
X0051257Y0170071D01*
X0051328Y0170000D01*
X0051400Y0170071D01*
X0051328Y0170143D01*
X0051728Y0171785D02*
X0051871Y0171643D01*
X0052014Y0171428D01*
X0052157Y0171143D01*
X0052228Y0170786D01*
Y0170500D01*
X0052157Y0170143D01*
X0052014Y0169857D01*
X0051871Y0169643D01*
X0051728Y0169500D01*
X0051871Y0171643D02*
X0052014Y0171357D01*
X0052085Y0171143D01*
X0052157Y0170786D01*
Y0170500D01*
X0052085Y0170143D01*
X0052014Y0169929D01*
X0051871Y0169643D01*
X0054770Y0171285D02*
X0054628Y0171428D01*
X0054413Y0171500D01*
X0054128D01*
X0053913Y0171428D01*
X0053771Y0171285D01*
Y0171143D01*
X0053842Y0171000D01*
X0053913Y0170928D01*
X0054056Y0170857D01*
X0054485Y0170714D01*
X0054628Y0170643D01*
X0054699Y0170571D01*
X0054770Y0170428D01*
Y0170214D01*
X0054628Y0170071D01*
X0054413Y0170000D01*
X0054128D01*
X0053913Y0170071D01*
X0053771Y0170214D01*
X0055106Y0171500D02*
Y0170000D01*
X0055420Y0171500D02*
Y0170000D01*
X0056277D01*
X0056441Y0171500D02*
Y0170000D01*
X0057441Y0171500D02*
X0056441Y0170500D01*
X0056799Y0170857D02*
X0057441Y0170000D01*
X0058777Y0171285D02*
X0058634Y0171428D01*
X0058420Y0171500D01*
X0058134D01*
X0057920Y0171428D01*
X0057777Y0171285D01*
Y0171143D01*
X0057848Y0171000D01*
X0057920Y0170928D01*
X0058063Y0170857D01*
X0058491Y0170714D01*
X0058634Y0170643D01*
X0058705Y0170571D01*
X0058777Y0170428D01*
Y0170214D01*
X0058634Y0170071D01*
X0058420Y0170000D01*
X0058134D01*
X0057920Y0170071D01*
X0057777Y0170214D01*
X0060184Y0171143D02*
X0060112Y0171285D01*
X0059969Y0171428D01*
X0059826Y0171500D01*
X0059541D01*
X0059398Y0171428D01*
X0059255Y0171285D01*
X0059184Y0171143D01*
X0059112Y0170928D01*
Y0170571D01*
X0059184Y0170357D01*
X0059255Y0170214D01*
X0059398Y0170071D01*
X0059541Y0170000D01*
X0059826D01*
X0059969Y0170071D01*
X0060112Y0170214D01*
X0060184Y0170357D01*
X0060605Y0171500D02*
Y0170000D01*
Y0171500D02*
X0061248D01*
X0061462Y0171428D01*
X0061533Y0171357D01*
X0061605Y0171214D01*
Y0171071D01*
X0061533Y0170928D01*
X0061462Y0170857D01*
X0061248Y0170786D01*
X0060605D01*
X0061105D02*
X0061605Y0170000D01*
X0062869Y0171500D02*
X0061940D01*
Y0170000D01*
X0062869D01*
X0061940Y0170786D02*
X0062512D01*
X0064047Y0171500D02*
X0063119D01*
Y0170000D01*
X0064047D01*
X0063119Y0170786D02*
X0063690D01*
X0064297Y0171500D02*
Y0170000D01*
Y0171500D02*
X0065297Y0170000D01*
Y0171500D02*
Y0170000D01*
X0066889Y0170643D02*
X0068175D01*
X0070867Y0171143D02*
X0070796Y0171285D01*
X0070653Y0171428D01*
X0070510Y0171500D01*
X0070224D01*
X0070081Y0171428D01*
X0069939Y0171285D01*
X0069867Y0171143D01*
X0069796Y0170928D01*
Y0170571D01*
X0069867Y0170357D01*
X0069939Y0170214D01*
X0070081Y0170071D01*
X0070224Y0170000D01*
X0070510D01*
X0070653Y0170071D01*
X0070796Y0170214D01*
X0070867Y0170357D01*
X0071717Y0171500D02*
X0071574Y0171428D01*
X0071431Y0171285D01*
X0071360Y0171143D01*
X0071288Y0170928D01*
Y0170571D01*
X0071360Y0170357D01*
X0071431Y0170214D01*
X0071574Y0170071D01*
X0071717Y0170000D01*
X0072002D01*
X0072145Y0170071D01*
X0072288Y0170214D01*
X0072359Y0170357D01*
X0072431Y0170571D01*
Y0170928D01*
X0072359Y0171143D01*
X0072288Y0171285D01*
X0072145Y0171428D01*
X0072002Y0171500D01*
X0071717D01*
X0072781D02*
Y0170000D01*
X0073638D01*
X0074231Y0171500D02*
X0074088Y0171428D01*
X0073945Y0171285D01*
X0073873Y0171143D01*
X0073802Y0170928D01*
Y0170571D01*
X0073873Y0170357D01*
X0073945Y0170214D01*
X0074088Y0170071D01*
X0074231Y0170000D01*
X0074516D01*
X0074659Y0170071D01*
X0074802Y0170214D01*
X0074873Y0170357D01*
X0074945Y0170571D01*
Y0170928D01*
X0074873Y0171143D01*
X0074802Y0171285D01*
X0074659Y0171428D01*
X0074516Y0171500D01*
X0074231D01*
X0075295D02*
Y0170428D01*
X0075366Y0170214D01*
X0075509Y0170071D01*
X0075723Y0170000D01*
X0075866D01*
X0076080Y0170071D01*
X0076223Y0170214D01*
X0076294Y0170428D01*
Y0171500D01*
X0076709D02*
Y0170000D01*
Y0171500D02*
X0077351D01*
X0077566Y0171428D01*
X0077637Y0171357D01*
X0077708Y0171214D01*
Y0171071D01*
X0077637Y0170928D01*
X0077566Y0170857D01*
X0077351Y0170786D01*
X0076709D01*
X0077208D02*
X0077708Y0170000D01*
X0079222Y0171500D02*
X0079579Y0170000D01*
X0079936Y0171500D02*
X0079579Y0170000D01*
X0079936Y0171500D02*
X0080294Y0170000D01*
X0080651Y0171500D02*
X0080294Y0170000D01*
X0080951Y0171500D02*
Y0170000D01*
X0081950Y0171500D02*
Y0170000D01*
X0080951Y0170786D02*
X0081950D01*
X0082364Y0171500D02*
Y0170000D01*
X0083179Y0171500D02*
Y0170000D01*
X0082679Y0171500D02*
X0083678D01*
X0084785D02*
X0083857D01*
Y0170000D01*
X0084785D01*
X0083857Y0170786D02*
X0084428D01*
X0085107Y0170143D02*
X0085035Y0170071D01*
X0085107Y0170000D01*
X0085178Y0170071D01*
X0085107Y0170143D01*
X0050857Y0181500D02*
X0050143D01*
X0050071Y0180857D01*
X0050143Y0180928D01*
X0050357Y0181000D01*
X0050571D01*
X0050786Y0180928D01*
X0050928Y0180786D01*
X0051000Y0180571D01*
Y0180428D01*
X0050928Y0180214D01*
X0050786Y0180071D01*
X0050571Y0180000D01*
X0050357D01*
X0050143Y0180071D01*
X0050071Y0180143D01*
X0050000Y0180286D01*
X0051407Y0180143D02*
X0051335Y0180071D01*
X0051407Y0180000D01*
X0051478Y0180071D01*
X0051407Y0180143D01*
X0051807Y0181785D02*
X0051950Y0181643D01*
X0052092Y0181428D01*
X0052235Y0181143D01*
X0052307Y0180786D01*
Y0180500D01*
X0052235Y0180143D01*
X0052092Y0179857D01*
X0051950Y0179643D01*
X0051807Y0179500D01*
X0051950Y0181643D02*
X0052092Y0181357D01*
X0052164Y0181143D01*
X0052235Y0180786D01*
Y0180500D01*
X0052164Y0180143D01*
X0052092Y0179929D01*
X0051950Y0179643D01*
X0054849Y0181285D02*
X0054706Y0181428D01*
X0054492Y0181500D01*
X0054206D01*
X0053992Y0181428D01*
X0053849Y0181285D01*
Y0181143D01*
X0053921Y0181000D01*
X0053992Y0180928D01*
X0054135Y0180857D01*
X0054563Y0180714D01*
X0054706Y0180643D01*
X0054778Y0180571D01*
X0054849Y0180428D01*
Y0180214D01*
X0054706Y0180071D01*
X0054492Y0180000D01*
X0054206D01*
X0053992Y0180071D01*
X0053849Y0180214D01*
X0055613Y0181500D02*
X0055470Y0181428D01*
X0055327Y0181285D01*
X0055256Y0181143D01*
X0055185Y0180928D01*
Y0180571D01*
X0055256Y0180357D01*
X0055327Y0180214D01*
X0055470Y0180071D01*
X0055613Y0180000D01*
X0055899D01*
X0056042Y0180071D01*
X0056184Y0180214D01*
X0056256Y0180357D01*
X0056327Y0180571D01*
Y0180928D01*
X0056256Y0181143D01*
X0056184Y0181285D01*
X0056042Y0181428D01*
X0055899Y0181500D01*
X0055613D01*
X0056677D02*
Y0180000D01*
X0057534D01*
X0057698Y0181500D02*
Y0180000D01*
Y0181500D02*
X0058198D01*
X0058412Y0181428D01*
X0058555Y0181285D01*
X0058627Y0181143D01*
X0058698Y0180928D01*
Y0180571D01*
X0058627Y0180357D01*
X0058555Y0180214D01*
X0058412Y0180071D01*
X0058198Y0180000D01*
X0057698D01*
X0059962Y0181500D02*
X0059034D01*
Y0180000D01*
X0059962D01*
X0059034Y0180786D02*
X0059605D01*
X0060212Y0181500D02*
Y0180000D01*
Y0181500D02*
X0060855D01*
X0061069Y0181428D01*
X0061140Y0181357D01*
X0061212Y0181214D01*
Y0181071D01*
X0061140Y0180928D01*
X0061069Y0180857D01*
X0060855Y0180786D01*
X0060212D01*
X0060712D02*
X0061212Y0180000D01*
X0061548Y0181500D02*
Y0180000D01*
Y0181500D02*
X0062119Y0180000D01*
X0062690Y0181500D02*
X0062119Y0180000D01*
X0062690Y0181500D02*
Y0180000D01*
X0064261D02*
X0063690Y0181500D01*
X0063119Y0180000D01*
X0063333Y0180500D02*
X0064047D01*
X0065611Y0181285D02*
X0065468Y0181428D01*
X0065254Y0181500D01*
X0064968D01*
X0064754Y0181428D01*
X0064611Y0181285D01*
Y0181143D01*
X0064683Y0181000D01*
X0064754Y0180928D01*
X0064897Y0180857D01*
X0065325Y0180714D01*
X0065468Y0180643D01*
X0065540Y0180571D01*
X0065611Y0180428D01*
Y0180214D01*
X0065468Y0180071D01*
X0065254Y0180000D01*
X0064968D01*
X0064754Y0180071D01*
X0064611Y0180214D01*
X0065947Y0181500D02*
Y0180000D01*
X0066946Y0181500D02*
X0065947Y0180500D01*
X0066304Y0180857D02*
X0066946Y0180000D01*
X0068460Y0180643D02*
X0069746D01*
X0071367Y0181500D02*
Y0180000D01*
X0072224D01*
X0072388Y0181500D02*
Y0180000D01*
X0073131Y0181500D02*
X0072988Y0181428D01*
X0072845Y0181285D01*
X0072774Y0181143D01*
X0072702Y0180928D01*
Y0180571D01*
X0072774Y0180357D01*
X0072845Y0180214D01*
X0072988Y0180071D01*
X0073131Y0180000D01*
X0073416D01*
X0073559Y0180071D01*
X0073702Y0180214D01*
X0073773Y0180357D01*
X0073845Y0180571D01*
Y0180928D01*
X0073773Y0181143D01*
X0073702Y0181285D01*
X0073559Y0181428D01*
X0073416Y0181500D01*
X0073131D01*
X0073345Y0180286D02*
X0073773Y0179857D01*
X0074195Y0181500D02*
Y0180428D01*
X0074266Y0180214D01*
X0074409Y0180071D01*
X0074623Y0180000D01*
X0074766D01*
X0074980Y0180071D01*
X0075123Y0180214D01*
X0075195Y0180428D01*
Y0181500D01*
X0075609D02*
Y0180000D01*
X0075923Y0181500D02*
Y0180000D01*
Y0181500D02*
X0076423D01*
X0076637Y0181428D01*
X0076780Y0181285D01*
X0076851Y0181143D01*
X0076923Y0180928D01*
Y0180571D01*
X0076851Y0180357D01*
X0076780Y0180214D01*
X0076637Y0180071D01*
X0076423Y0180000D01*
X0075923D01*
X0078437Y0180714D02*
X0079079D01*
X0079294Y0180786D01*
X0079365Y0180857D01*
X0079437Y0181000D01*
Y0181214D01*
X0079365Y0181357D01*
X0079294Y0181428D01*
X0079079Y0181500D01*
X0078437D01*
Y0180000D01*
X0079772Y0181500D02*
Y0180000D01*
X0080772Y0181500D02*
Y0180000D01*
X0079772Y0180786D02*
X0080772D01*
X0081615Y0181500D02*
X0081472Y0181428D01*
X0081329Y0181285D01*
X0081258Y0181143D01*
X0081186Y0180928D01*
Y0180571D01*
X0081258Y0180357D01*
X0081329Y0180214D01*
X0081472Y0180071D01*
X0081615Y0180000D01*
X0081900D01*
X0082043Y0180071D01*
X0082186Y0180214D01*
X0082257Y0180357D01*
X0082329Y0180571D01*
Y0180928D01*
X0082257Y0181143D01*
X0082186Y0181285D01*
X0082043Y0181428D01*
X0081900Y0181500D01*
X0081615D01*
X0083179D02*
Y0180000D01*
X0082679Y0181500D02*
X0083678D01*
X0084285D02*
X0084143Y0181428D01*
X0084000Y0181285D01*
X0083928Y0181143D01*
X0083857Y0180928D01*
Y0180571D01*
X0083928Y0180357D01*
X0084000Y0180214D01*
X0084143Y0180071D01*
X0084285Y0180000D01*
X0084571D01*
X0084714Y0180071D01*
X0084857Y0180214D01*
X0084928Y0180357D01*
X0085000Y0180571D01*
Y0180928D01*
X0084928Y0181143D01*
X0084857Y0181285D01*
X0084714Y0181428D01*
X0084571Y0181500D01*
X0084285D01*
X0086528D02*
Y0180000D01*
X0086842Y0181500D02*
Y0180000D01*
Y0181500D02*
X0087413Y0180000D01*
X0087985Y0181500D02*
X0087413Y0180000D01*
X0087985Y0181500D02*
Y0180000D01*
X0089556D02*
X0088984Y0181500D01*
X0088413Y0180000D01*
X0088627Y0180500D02*
X0089342D01*
X0090977Y0181143D02*
X0090906Y0181285D01*
X0090763Y0181428D01*
X0090620Y0181500D01*
X0090334D01*
X0090191Y0181428D01*
X0090049Y0181285D01*
X0089977Y0181143D01*
X0089906Y0180928D01*
Y0180571D01*
X0089977Y0180357D01*
X0090049Y0180214D01*
X0090191Y0180071D01*
X0090334Y0180000D01*
X0090620D01*
X0090763Y0180071D01*
X0090906Y0180214D01*
X0090977Y0180357D01*
Y0180571D01*
X0090620D02*
X0090977D01*
X0092248Y0181500D02*
X0091320D01*
Y0180000D01*
X0092248D01*
X0091320Y0180786D02*
X0091891D01*
X0093641Y0180000D02*
X0093069Y0181500D01*
X0092498Y0180000D01*
X0092712Y0180500D02*
X0093426D01*
X0093991Y0181500D02*
Y0180000D01*
Y0181500D02*
X0094633D01*
X0094848Y0181428D01*
X0094919Y0181357D01*
X0094990Y0181214D01*
Y0181071D01*
X0094919Y0180928D01*
X0094848Y0180857D01*
X0094633Y0180786D01*
X0093991D02*
X0094633D01*
X0094848Y0180714D01*
X0094919Y0180643D01*
X0094990Y0180500D01*
Y0180286D01*
X0094919Y0180143D01*
X0094848Y0180071D01*
X0094633Y0180000D01*
X0093991D01*
X0095326Y0181500D02*
Y0180000D01*
X0096183D01*
X0097276Y0181500D02*
X0096347D01*
Y0180000D01*
X0097276D01*
X0096347Y0180786D02*
X0096919D01*
X0099704Y0181285D02*
X0099561Y0181428D01*
X0099347Y0181500D01*
X0099061D01*
X0098847Y0181428D01*
X0098704Y0181285D01*
Y0181143D01*
X0098775Y0181000D01*
X0098847Y0180928D01*
X0098989Y0180857D01*
X0099418Y0180714D01*
X0099561Y0180643D01*
X0099632Y0180571D01*
X0099704Y0180428D01*
Y0180214D01*
X0099561Y0180071D01*
X0099347Y0180000D01*
X0099061D01*
X0098847Y0180071D01*
X0098704Y0180214D01*
X0100468Y0181500D02*
X0100325Y0181428D01*
X0100182Y0181285D01*
X0100111Y0181143D01*
X0100039Y0180928D01*
Y0180571D01*
X0100111Y0180357D01*
X0100182Y0180214D01*
X0100325Y0180071D01*
X0100468Y0180000D01*
X0100753D01*
X0100896Y0180071D01*
X0101039Y0180214D01*
X0101110Y0180357D01*
X0101182Y0180571D01*
Y0180928D01*
X0101110Y0181143D01*
X0101039Y0181285D01*
X0100896Y0181428D01*
X0100753Y0181500D01*
X0100468D01*
X0101532D02*
Y0180000D01*
X0102389D01*
X0102553Y0181500D02*
Y0180000D01*
Y0181500D02*
X0103053D01*
X0103267Y0181428D01*
X0103410Y0181285D01*
X0103481Y0181143D01*
X0103553Y0180928D01*
Y0180571D01*
X0103481Y0180357D01*
X0103410Y0180214D01*
X0103267Y0180071D01*
X0103053Y0180000D01*
X0102553D01*
X0104817Y0181500D02*
X0103888D01*
Y0180000D01*
X0104817D01*
X0103888Y0180786D02*
X0104460D01*
X0105067Y0181500D02*
Y0180000D01*
Y0181500D02*
X0105709D01*
X0105924Y0181428D01*
X0105995Y0181357D01*
X0106067Y0181214D01*
Y0181071D01*
X0105995Y0180928D01*
X0105924Y0180857D01*
X0105709Y0180786D01*
X0105067D01*
X0105567D02*
X0106067Y0180000D01*
X0106402Y0181500D02*
Y0180000D01*
Y0181500D02*
X0106973Y0180000D01*
X0107545Y0181500D02*
X0106973Y0180000D01*
X0107545Y0181500D02*
Y0180000D01*
X0109116D02*
X0108545Y0181500D01*
X0107973Y0180000D01*
X0108188Y0180500D02*
X0108902D01*
X0110466Y0181285D02*
X0110323Y0181428D01*
X0110109Y0181500D01*
X0109823D01*
X0109609Y0181428D01*
X0109466Y0181285D01*
Y0181143D01*
X0109537Y0181000D01*
X0109609Y0180928D01*
X0109751Y0180857D01*
X0110180Y0180714D01*
X0110323Y0180643D01*
X0110394Y0180571D01*
X0110466Y0180428D01*
Y0180214D01*
X0110323Y0180071D01*
X0110109Y0180000D01*
X0109823D01*
X0109609Y0180071D01*
X0109466Y0180214D01*
X0110801Y0181500D02*
Y0180000D01*
X0111801Y0181500D02*
X0110801Y0180500D01*
X0111158Y0180857D02*
X0111801Y0180000D01*
X0113815Y0181785D02*
X0113672Y0181643D01*
X0113529Y0181428D01*
X0113386Y0181143D01*
X0113315Y0180786D01*
Y0180500D01*
X0113386Y0180143D01*
X0113529Y0179857D01*
X0113672Y0179643D01*
X0113815Y0179500D01*
X0113672Y0181643D02*
X0113529Y0181357D01*
X0113458Y0181143D01*
X0113386Y0180786D01*
Y0180500D01*
X0113458Y0180143D01*
X0113529Y0179929D01*
X0113672Y0179643D01*
X0115172Y0181143D02*
X0115100Y0181285D01*
X0114957Y0181428D01*
X0114815Y0181500D01*
X0114529D01*
X0114386Y0181428D01*
X0114243Y0181285D01*
X0114172Y0181143D01*
X0114101Y0180928D01*
Y0180571D01*
X0114172Y0180357D01*
X0114243Y0180214D01*
X0114386Y0180071D01*
X0114529Y0180000D01*
X0114815D01*
X0114957Y0180071D01*
X0115100Y0180214D01*
X0115172Y0180357D01*
Y0180571D01*
X0114815D02*
X0115172D01*
X0115515Y0181500D02*
Y0180000D01*
Y0181500D02*
X0116157D01*
X0116371Y0181428D01*
X0116443Y0181357D01*
X0116514Y0181214D01*
Y0181071D01*
X0116443Y0180928D01*
X0116371Y0180857D01*
X0116157Y0180786D01*
X0115515D01*
X0116014D02*
X0116514Y0180000D01*
X0117778Y0181500D02*
X0116850D01*
Y0180000D01*
X0117778D01*
X0116850Y0180786D02*
X0117421D01*
X0118957Y0181500D02*
X0118028D01*
Y0180000D01*
X0118957D01*
X0118028Y0180786D02*
X0118600D01*
X0119207Y0181500D02*
Y0180000D01*
Y0181500D02*
X0120206Y0180000D01*
Y0181500D02*
Y0180000D01*
X0120621Y0181785D02*
X0120763Y0181643D01*
X0120906Y0181428D01*
X0121049Y0181143D01*
X0121120Y0180786D01*
Y0180500D01*
X0121049Y0180143D01*
X0120906Y0179857D01*
X0120763Y0179643D01*
X0120621Y0179500D01*
X0120763Y0181643D02*
X0120906Y0181357D01*
X0120978Y0181143D01*
X0121049Y0180786D01*
Y0180500D01*
X0120978Y0180143D01*
X0120906Y0179929D01*
X0120763Y0179643D01*
X0121556Y0180143D02*
X0121485Y0180071D01*
X0121556Y0180000D01*
X0121627Y0180071D01*
X0121556Y0180143D01*
X0050071Y0193143D02*
Y0193214D01*
X0050143Y0193357D01*
X0050214Y0193428D01*
X0050357Y0193500D01*
X0050643D01*
X0050786Y0193428D01*
X0050857Y0193357D01*
X0050928Y0193214D01*
Y0193071D01*
X0050857Y0192928D01*
X0050714Y0192714D01*
X0050000Y0192000D01*
X0051000D01*
X0051407Y0192143D02*
X0051335Y0192071D01*
X0051407Y0192000D01*
X0051478Y0192071D01*
X0051407Y0192143D01*
X0051807Y0193785D02*
X0051950Y0193643D01*
X0052092Y0193428D01*
X0052235Y0193143D01*
X0052307Y0192786D01*
Y0192500D01*
X0052235Y0192143D01*
X0052092Y0191857D01*
X0051950Y0191643D01*
X0051807Y0191500D01*
X0051950Y0193643D02*
X0052092Y0193357D01*
X0052164Y0193143D01*
X0052235Y0192786D01*
Y0192500D01*
X0052164Y0192143D01*
X0052092Y0191929D01*
X0051950Y0191643D01*
X0053849Y0193500D02*
Y0192000D01*
X0054163Y0193500D02*
Y0192000D01*
Y0193500D02*
X0054735Y0192000D01*
X0055306Y0193500D02*
X0054735Y0192000D01*
X0055306Y0193500D02*
Y0192000D01*
X0055734Y0192714D02*
X0056377D01*
X0056591Y0192786D01*
X0056663Y0192857D01*
X0056734Y0193000D01*
Y0193214D01*
X0056663Y0193357D01*
X0056591Y0193428D01*
X0056377Y0193500D01*
X0055734D01*
Y0192000D01*
X0057998Y0193500D02*
X0057070D01*
Y0192000D01*
X0057998D01*
X0057070Y0192786D02*
X0057641D01*
X0058248Y0193500D02*
Y0192000D01*
Y0193500D02*
X0058748D01*
X0058962Y0193428D01*
X0059105Y0193285D01*
X0059177Y0193143D01*
X0059248Y0192928D01*
Y0192571D01*
X0059177Y0192357D01*
X0059105Y0192214D01*
X0058962Y0192071D01*
X0058748Y0192000D01*
X0058248D01*
X0060726D02*
X0060155Y0193500D01*
X0059584Y0192000D01*
X0059798Y0192500D02*
X0060512D01*
X0061076Y0193500D02*
Y0192000D01*
Y0193500D02*
X0062076Y0192000D01*
Y0193500D02*
Y0192000D01*
X0063561Y0193143D02*
X0063490Y0193285D01*
X0063347Y0193428D01*
X0063204Y0193500D01*
X0062919D01*
X0062776Y0193428D01*
X0062633Y0193285D01*
X0062562Y0193143D01*
X0062490Y0192928D01*
Y0192571D01*
X0062562Y0192357D01*
X0062633Y0192214D01*
X0062776Y0192071D01*
X0062919Y0192000D01*
X0063204D01*
X0063347Y0192071D01*
X0063490Y0192214D01*
X0063561Y0192357D01*
X0064911Y0193500D02*
X0063983D01*
Y0192000D01*
X0064911D01*
X0063983Y0192786D02*
X0064554D01*
X0067411Y0193143D02*
X0067339Y0193285D01*
X0067196Y0193428D01*
X0067053Y0193500D01*
X0066768D01*
X0066625Y0193428D01*
X0066482Y0193285D01*
X0066411Y0193143D01*
X0066339Y0192928D01*
Y0192571D01*
X0066411Y0192357D01*
X0066482Y0192214D01*
X0066625Y0192071D01*
X0066768Y0192000D01*
X0067053D01*
X0067196Y0192071D01*
X0067339Y0192214D01*
X0067411Y0192357D01*
X0068260Y0193500D02*
X0068118Y0193428D01*
X0067975Y0193285D01*
X0067903Y0193143D01*
X0067832Y0192928D01*
Y0192571D01*
X0067903Y0192357D01*
X0067975Y0192214D01*
X0068118Y0192071D01*
X0068260Y0192000D01*
X0068546D01*
X0068689Y0192071D01*
X0068832Y0192214D01*
X0068903Y0192357D01*
X0068975Y0192571D01*
Y0192928D01*
X0068903Y0193143D01*
X0068832Y0193285D01*
X0068689Y0193428D01*
X0068546Y0193500D01*
X0068260D01*
X0069324D02*
Y0192000D01*
Y0193500D02*
X0070324Y0192000D01*
Y0193500D02*
Y0192000D01*
X0071238Y0193500D02*
Y0192000D01*
X0070738Y0193500D02*
X0071738D01*
X0071917D02*
Y0192000D01*
Y0193500D02*
X0072559D01*
X0072774Y0193428D01*
X0072845Y0193357D01*
X0072917Y0193214D01*
Y0193071D01*
X0072845Y0192928D01*
X0072774Y0192857D01*
X0072559Y0192786D01*
X0071917D01*
X0072417D02*
X0072917Y0192000D01*
X0073681Y0193500D02*
X0073538Y0193428D01*
X0073395Y0193285D01*
X0073324Y0193143D01*
X0073252Y0192928D01*
Y0192571D01*
X0073324Y0192357D01*
X0073395Y0192214D01*
X0073538Y0192071D01*
X0073681Y0192000D01*
X0073966D01*
X0074109Y0192071D01*
X0074252Y0192214D01*
X0074323Y0192357D01*
X0074395Y0192571D01*
Y0192928D01*
X0074323Y0193143D01*
X0074252Y0193285D01*
X0074109Y0193428D01*
X0073966Y0193500D01*
X0073681D01*
X0074745D02*
Y0192000D01*
X0075602D01*
X0076944Y0192643D02*
X0078230D01*
X0079851Y0193500D02*
Y0192000D01*
Y0193500D02*
X0080851Y0192000D01*
Y0193500D02*
Y0192000D01*
X0081693Y0193500D02*
X0081550Y0193428D01*
X0081408Y0193285D01*
X0081336Y0193143D01*
X0081265Y0192928D01*
Y0192571D01*
X0081336Y0192357D01*
X0081408Y0192214D01*
X0081550Y0192071D01*
X0081693Y0192000D01*
X0081979D01*
X0082122Y0192071D01*
X0082265Y0192214D01*
X0082336Y0192357D01*
X0082407Y0192571D01*
Y0192928D01*
X0082336Y0193143D01*
X0082265Y0193285D01*
X0082122Y0193428D01*
X0081979Y0193500D01*
X0081693D01*
X0082757D02*
Y0192000D01*
Y0193500D02*
X0083757Y0192000D01*
Y0193500D02*
Y0192000D01*
X0085100Y0193500D02*
X0084171D01*
Y0192000D01*
X0085100D01*
X0084171Y0192786D02*
X0084743D01*
X0085421Y0192143D02*
X0085350Y0192071D01*
X0085421Y0192000D01*
X0085492Y0192071D01*
X0085421Y0192143D01*
X0050000Y0197214D02*
X0050143Y0197285D01*
X0050357Y0197500D01*
Y0196000D01*
X0051171Y0196143D02*
X0051100Y0196071D01*
X0051171Y0196000D01*
X0051243Y0196071D01*
X0051171Y0196143D01*
X0051571Y0197785D02*
X0051714Y0197643D01*
X0051857Y0197428D01*
X0052000Y0197143D01*
X0052071Y0196786D01*
Y0196500D01*
X0052000Y0196143D01*
X0051857Y0195857D01*
X0051714Y0195643D01*
X0051571Y0195500D01*
X0051714Y0197643D02*
X0051857Y0197357D01*
X0051928Y0197143D01*
X0052000Y0196786D01*
Y0196500D01*
X0051928Y0196143D01*
X0051857Y0195929D01*
X0051714Y0195643D01*
X0053614Y0197500D02*
Y0196000D01*
Y0197500D02*
X0054185Y0196000D01*
X0054756Y0197500D02*
X0054185Y0196000D01*
X0054756Y0197500D02*
Y0196000D01*
X0055185Y0197500D02*
Y0196000D01*
X0055499Y0197500D02*
Y0196000D01*
Y0197500D02*
X0056499Y0196000D01*
Y0197500D02*
Y0196000D01*
X0056913Y0197500D02*
Y0196000D01*
X0057227Y0197500D02*
Y0196000D01*
Y0197500D02*
X0057798Y0196000D01*
X0058370Y0197500D02*
X0057798Y0196000D01*
X0058370Y0197500D02*
Y0196000D01*
X0058798Y0197500D02*
Y0196428D01*
X0058870Y0196214D01*
X0059012Y0196071D01*
X0059227Y0196000D01*
X0059369D01*
X0059584Y0196071D01*
X0059726Y0196214D01*
X0059798Y0196428D01*
Y0197500D01*
X0060212D02*
Y0196000D01*
Y0197500D02*
X0060783Y0196000D01*
X0061355Y0197500D02*
X0060783Y0196000D01*
X0061355Y0197500D02*
Y0196000D01*
X0062961Y0197500D02*
Y0196000D01*
Y0197500D02*
X0063461D01*
X0063676Y0197428D01*
X0063818Y0197285D01*
X0063890Y0197143D01*
X0063961Y0196928D01*
Y0196571D01*
X0063890Y0196357D01*
X0063818Y0196214D01*
X0063676Y0196071D01*
X0063461Y0196000D01*
X0062961D01*
X0065225Y0197500D02*
X0064297D01*
Y0196000D01*
X0065225D01*
X0064297Y0196786D02*
X0064868D01*
X0066475Y0197285D02*
X0066332Y0197428D01*
X0066118Y0197500D01*
X0065832D01*
X0065618Y0197428D01*
X0065475Y0197285D01*
Y0197143D01*
X0065547Y0197000D01*
X0065618Y0196928D01*
X0065761Y0196857D01*
X0066189Y0196714D01*
X0066332Y0196643D01*
X0066404Y0196571D01*
X0066475Y0196428D01*
Y0196214D01*
X0066332Y0196071D01*
X0066118Y0196000D01*
X0065832D01*
X0065618Y0196071D01*
X0065475Y0196214D01*
X0066811Y0197500D02*
Y0196000D01*
X0068196Y0197143D02*
X0068125Y0197285D01*
X0067982Y0197428D01*
X0067839Y0197500D01*
X0067553D01*
X0067411Y0197428D01*
X0067268Y0197285D01*
X0067196Y0197143D01*
X0067125Y0196928D01*
Y0196571D01*
X0067196Y0196357D01*
X0067268Y0196214D01*
X0067411Y0196071D01*
X0067553Y0196000D01*
X0067839D01*
X0067982Y0196071D01*
X0068125Y0196214D01*
X0068196Y0196357D01*
Y0196571D01*
X0067839D02*
X0068196D01*
X0068539Y0197500D02*
Y0196000D01*
Y0197500D02*
X0069539Y0196000D01*
Y0197500D02*
Y0196000D01*
X0071631Y0197500D02*
Y0196000D01*
X0071131Y0197500D02*
X0072131D01*
X0072310D02*
Y0196000D01*
Y0197500D02*
X0072952D01*
X0073166Y0197428D01*
X0073238Y0197357D01*
X0073309Y0197214D01*
Y0197071D01*
X0073238Y0196928D01*
X0073166Y0196857D01*
X0072952Y0196786D01*
X0072310D01*
X0072809D02*
X0073309Y0196000D01*
X0074788D02*
X0074216Y0197500D01*
X0073645Y0196000D01*
X0073859Y0196500D02*
X0074573D01*
X0076209Y0197143D02*
X0076137Y0197285D01*
X0075994Y0197428D01*
X0075852Y0197500D01*
X0075566D01*
X0075423Y0197428D01*
X0075280Y0197285D01*
X0075209Y0197143D01*
X0075137Y0196928D01*
Y0196571D01*
X0075209Y0196357D01*
X0075280Y0196214D01*
X0075423Y0196071D01*
X0075566Y0196000D01*
X0075852D01*
X0075994Y0196071D01*
X0076137Y0196214D01*
X0076209Y0196357D01*
X0076630Y0197500D02*
Y0196000D01*
X0077630Y0197500D02*
X0076630Y0196500D01*
X0076987Y0196857D02*
X0077630Y0196000D01*
X0080429Y0196928D02*
X0080358Y0196857D01*
X0080429Y0196786D01*
X0080501Y0196857D01*
Y0196928D01*
X0080429Y0197000D01*
X0080358D01*
X0080286Y0196928D01*
X0080215Y0196786D01*
X0080072Y0196428D01*
X0079929Y0196214D01*
X0079786Y0196071D01*
X0079644Y0196000D01*
X0079429D01*
X0079215Y0196071D01*
X0079144Y0196214D01*
Y0196428D01*
X0079215Y0196571D01*
X0079644Y0196857D01*
X0079786Y0197000D01*
X0079858Y0197143D01*
Y0197285D01*
X0079786Y0197428D01*
X0079644Y0197500D01*
X0079501Y0197428D01*
X0079429Y0197285D01*
Y0197143D01*
X0079501Y0196928D01*
X0079644Y0196714D01*
X0080001Y0196214D01*
X0080144Y0196071D01*
X0080358Y0196000D01*
X0080429D01*
X0080501Y0196071D01*
Y0196143D01*
X0079429Y0196000D02*
X0079287Y0196071D01*
X0079215Y0196214D01*
Y0196428D01*
X0079287Y0196571D01*
X0079429Y0196714D01*
Y0197143D02*
X0079501Y0197000D01*
X0080072Y0196214D01*
X0080215Y0196071D01*
X0080358Y0196000D01*
X0083121Y0197143D02*
X0083050Y0197285D01*
X0082907Y0197428D01*
X0082764Y0197500D01*
X0082479D01*
X0082336Y0197428D01*
X0082193Y0197285D01*
X0082122Y0197143D01*
X0082050Y0196928D01*
Y0196571D01*
X0082122Y0196357D01*
X0082193Y0196214D01*
X0082336Y0196071D01*
X0082479Y0196000D01*
X0082764D01*
X0082907Y0196071D01*
X0083050Y0196214D01*
X0083121Y0196357D01*
Y0196571D01*
X0082764D02*
X0083121D01*
X0084607Y0196000D02*
X0084036Y0197500D01*
X0083464Y0196000D01*
X0083678Y0196500D02*
X0084393D01*
X0084957Y0196714D02*
X0085600D01*
X0085814Y0196786D01*
X0085885Y0196857D01*
X0085957Y0197000D01*
Y0197214D01*
X0085885Y0197357D01*
X0085814Y0197428D01*
X0085600Y0197500D01*
X0084957D01*
Y0196000D01*
X0087471Y0196643D02*
X0088756D01*
X0090806Y0197500D02*
X0090591Y0197428D01*
X0090448Y0197214D01*
X0090377Y0196857D01*
Y0196643D01*
X0090448Y0196286D01*
X0090591Y0196071D01*
X0090806Y0196000D01*
X0090948D01*
X0091163Y0196071D01*
X0091305Y0196286D01*
X0091377Y0196643D01*
Y0196857D01*
X0091305Y0197214D01*
X0091163Y0197428D01*
X0090948Y0197500D01*
X0090806D01*
X0091784Y0196143D02*
X0091712Y0196071D01*
X0091784Y0196000D01*
X0091855Y0196071D01*
X0091784Y0196143D01*
X0092184Y0197214D02*
X0092327Y0197285D01*
X0092541Y0197500D01*
Y0196000D01*
X0094141Y0197500D02*
X0093426D01*
X0093355Y0196857D01*
X0093426Y0196928D01*
X0093641Y0197000D01*
X0093855D01*
X0094069Y0196928D01*
X0094212Y0196786D01*
X0094283Y0196571D01*
Y0196428D01*
X0094212Y0196214D01*
X0094069Y0196071D01*
X0093855Y0196000D01*
X0093641D01*
X0093426Y0196071D01*
X0093355Y0196143D01*
X0093284Y0196286D01*
X0094619Y0197000D02*
Y0196000D01*
Y0196714D02*
X0094833Y0196928D01*
X0094976Y0197000D01*
X0095190D01*
X0095333Y0196928D01*
X0095405Y0196714D01*
Y0196000D01*
Y0196714D02*
X0095619Y0196928D01*
X0095762Y0197000D01*
X0095976D01*
X0096119Y0196928D01*
X0096190Y0196714D01*
Y0196000D01*
X0096661Y0197000D02*
Y0196000D01*
Y0196714D02*
X0096876Y0196928D01*
X0097018Y0197000D01*
X0097233D01*
X0097376Y0196928D01*
X0097447Y0196714D01*
Y0196000D01*
Y0196714D02*
X0097661Y0196928D01*
X0097804Y0197000D01*
X0098018D01*
X0098161Y0196928D01*
X0098233Y0196714D01*
Y0196000D01*
X0098775Y0196143D02*
X0098704Y0196071D01*
X0098775Y0196000D01*
X0098847Y0196071D01*
X0098775Y0196143D01*
X0055000Y0175285D02*
X0054857Y0175428D01*
X0054643Y0175500D01*
X0054357D01*
X0054143Y0175428D01*
X0054000Y0175285D01*
Y0175143D01*
X0054071Y0175000D01*
X0054143Y0174928D01*
X0054286Y0174857D01*
X0054714Y0174714D01*
X0054857Y0174643D01*
X0054928Y0174571D01*
X0055000Y0174428D01*
Y0174214D01*
X0054857Y0174071D01*
X0054643Y0174000D01*
X0054357D01*
X0054143Y0174071D01*
X0054000Y0174214D01*
X0055335Y0175500D02*
Y0174428D01*
X0055407Y0174214D01*
X0055550Y0174071D01*
X0055764Y0174000D01*
X0055907D01*
X0056121Y0174071D01*
X0056264Y0174214D01*
X0056335Y0174428D01*
Y0175500D01*
X0056749Y0174714D02*
X0057392D01*
X0057606Y0174786D01*
X0057678Y0174857D01*
X0057749Y0175000D01*
Y0175214D01*
X0057678Y0175357D01*
X0057606Y0175428D01*
X0057392Y0175500D01*
X0056749D01*
Y0174000D01*
X0058085Y0174714D02*
X0058728D01*
X0058942Y0174786D01*
X0059013Y0174857D01*
X0059085Y0175000D01*
Y0175214D01*
X0059013Y0175357D01*
X0058942Y0175428D01*
X0058728Y0175500D01*
X0058085D01*
Y0174000D01*
X0059420Y0175500D02*
Y0174000D01*
X0060277D01*
X0060441Y0175500D02*
Y0174000D01*
X0061684Y0175500D02*
X0060756D01*
Y0174000D01*
X0061684D01*
X0060756Y0174786D02*
X0061327D01*
X0061934Y0175500D02*
Y0174000D01*
Y0175500D02*
X0062577D01*
X0062791Y0175428D01*
X0062862Y0175357D01*
X0062934Y0175214D01*
Y0175071D01*
X0062862Y0174928D01*
X0062791Y0174857D01*
X0062577Y0174786D01*
X0061934D01*
X0062434D02*
X0062934Y0174000D01*
X0065448Y0175285D02*
X0065305Y0175428D01*
X0065090Y0175500D01*
X0064805D01*
X0064591Y0175428D01*
X0064448Y0175285D01*
Y0175143D01*
X0064519Y0175000D01*
X0064591Y0174928D01*
X0064733Y0174857D01*
X0065162Y0174714D01*
X0065305Y0174643D01*
X0065376Y0174571D01*
X0065448Y0174428D01*
Y0174214D01*
X0065305Y0174071D01*
X0065090Y0174000D01*
X0064805D01*
X0064591Y0174071D01*
X0064448Y0174214D01*
X0065783Y0175500D02*
Y0174000D01*
X0066783Y0175500D02*
Y0174000D01*
X0065783Y0174786D02*
X0066783D01*
X0067626Y0175500D02*
X0067483Y0175428D01*
X0067340Y0175285D01*
X0067269Y0175143D01*
X0067197Y0174928D01*
Y0174571D01*
X0067269Y0174357D01*
X0067340Y0174214D01*
X0067483Y0174071D01*
X0067626Y0174000D01*
X0067911D01*
X0068054Y0174071D01*
X0068197Y0174214D01*
X0068268Y0174357D01*
X0068340Y0174571D01*
Y0174928D01*
X0068268Y0175143D01*
X0068197Y0175285D01*
X0068054Y0175428D01*
X0067911Y0175500D01*
X0067626D01*
X0068690D02*
Y0174428D01*
X0068761Y0174214D01*
X0068904Y0174071D01*
X0069118Y0174000D01*
X0069261D01*
X0069475Y0174071D01*
X0069618Y0174214D01*
X0069689Y0174428D01*
Y0175500D01*
X0070104D02*
Y0174000D01*
X0070961D01*
X0071125Y0175500D02*
Y0174000D01*
Y0175500D02*
X0071625D01*
X0071839Y0175428D01*
X0071982Y0175285D01*
X0072053Y0175143D01*
X0072125Y0174928D01*
Y0174571D01*
X0072053Y0174357D01*
X0071982Y0174214D01*
X0071839Y0174071D01*
X0071625Y0174000D01*
X0071125D01*
X0074067Y0175500D02*
X0073924Y0175428D01*
X0073781Y0175285D01*
X0073710Y0175143D01*
X0073639Y0174928D01*
Y0174571D01*
X0073710Y0174357D01*
X0073781Y0174214D01*
X0073924Y0174071D01*
X0074067Y0174000D01*
X0074353D01*
X0074496Y0174071D01*
X0074638Y0174214D01*
X0074710Y0174357D01*
X0074781Y0174571D01*
Y0174928D01*
X0074710Y0175143D01*
X0074638Y0175285D01*
X0074496Y0175428D01*
X0074353Y0175500D01*
X0074067D01*
X0075131D02*
X0075702Y0174000D01*
X0076274Y0175500D02*
X0075702Y0174000D01*
X0077395Y0175500D02*
X0076467D01*
Y0174000D01*
X0077395D01*
X0076467Y0174786D02*
X0077038D01*
X0077645Y0175500D02*
Y0174000D01*
Y0175500D02*
X0078288D01*
X0078502Y0175428D01*
X0078573Y0175357D01*
X0078645Y0175214D01*
Y0175071D01*
X0078573Y0174928D01*
X0078502Y0174857D01*
X0078288Y0174786D01*
X0077645D01*
X0078145D02*
X0078645Y0174000D01*
X0079980Y0175285D02*
X0079837Y0175428D01*
X0079623Y0175500D01*
X0079337D01*
X0079123Y0175428D01*
X0078980Y0175285D01*
Y0175143D01*
X0079052Y0175000D01*
X0079123Y0174928D01*
X0079266Y0174857D01*
X0079694Y0174714D01*
X0079837Y0174643D01*
X0079909Y0174571D01*
X0079980Y0174428D01*
Y0174214D01*
X0079837Y0174071D01*
X0079623Y0174000D01*
X0079337D01*
X0079123Y0174071D01*
X0078980Y0174214D01*
X0080316Y0175500D02*
Y0174000D01*
X0081630Y0175500D02*
X0080630Y0174000D01*
Y0175500D02*
X0081630D01*
X0080630Y0174000D02*
X0081630D01*
X0082894Y0175500D02*
X0081965D01*
Y0174000D01*
X0082894D01*
X0081965Y0174786D02*
X0082537D01*
X0085322Y0175285D02*
X0085179Y0175428D01*
X0084965Y0175500D01*
X0084679D01*
X0084465Y0175428D01*
X0084322Y0175285D01*
Y0175143D01*
X0084393Y0175000D01*
X0084465Y0174928D01*
X0084608Y0174857D01*
X0085036Y0174714D01*
X0085179Y0174643D01*
X0085250Y0174571D01*
X0085322Y0174428D01*
Y0174214D01*
X0085179Y0174071D01*
X0084965Y0174000D01*
X0084679D01*
X0084465Y0174071D01*
X0084322Y0174214D01*
X0086086Y0175500D02*
X0085943Y0175428D01*
X0085800Y0175285D01*
X0085729Y0175143D01*
X0085657Y0174928D01*
Y0174571D01*
X0085729Y0174357D01*
X0085800Y0174214D01*
X0085943Y0174071D01*
X0086086Y0174000D01*
X0086372D01*
X0086514Y0174071D01*
X0086657Y0174214D01*
X0086729Y0174357D01*
X0086800Y0174571D01*
Y0174928D01*
X0086729Y0175143D01*
X0086657Y0175285D01*
X0086514Y0175428D01*
X0086372Y0175500D01*
X0086086D01*
X0087150D02*
Y0174000D01*
X0088007D01*
X0088171Y0175500D02*
Y0174000D01*
Y0175500D02*
X0088671D01*
X0088885Y0175428D01*
X0089028Y0175285D01*
X0089100Y0175143D01*
X0089171Y0174928D01*
Y0174571D01*
X0089100Y0174357D01*
X0089028Y0174214D01*
X0088885Y0174071D01*
X0088671Y0174000D01*
X0088171D01*
X0090435Y0175500D02*
X0089507D01*
Y0174000D01*
X0090435D01*
X0089507Y0174786D02*
X0090078D01*
X0090685Y0175500D02*
Y0174000D01*
Y0175500D02*
X0091328D01*
X0091542Y0175428D01*
X0091613Y0175357D01*
X0091685Y0175214D01*
Y0175071D01*
X0091613Y0174928D01*
X0091542Y0174857D01*
X0091328Y0174786D01*
X0090685D01*
X0091185D02*
X0091685Y0174000D01*
X0092020Y0175500D02*
Y0174000D01*
Y0175500D02*
X0092592Y0174000D01*
X0093163Y0175500D02*
X0092592Y0174000D01*
X0093163Y0175500D02*
Y0174000D01*
X0094734D02*
X0094163Y0175500D01*
X0093592Y0174000D01*
X0093806Y0174500D02*
X0094520D01*
X0096084Y0175285D02*
X0095941Y0175428D01*
X0095727Y0175500D01*
X0095441D01*
X0095227Y0175428D01*
X0095084Y0175285D01*
Y0175143D01*
X0095155Y0175000D01*
X0095227Y0174928D01*
X0095370Y0174857D01*
X0095798Y0174714D01*
X0095941Y0174643D01*
X0096012Y0174571D01*
X0096084Y0174428D01*
Y0174214D01*
X0095941Y0174071D01*
X0095727Y0174000D01*
X0095441D01*
X0095227Y0174071D01*
X0095084Y0174214D01*
X0096419Y0175500D02*
Y0174000D01*
X0097419Y0175500D02*
X0096419Y0174500D01*
X0096777Y0174857D02*
X0097419Y0174000D01*
X0099362Y0175500D02*
X0099219Y0175428D01*
X0099076Y0175285D01*
X0099005Y0175143D01*
X0098933Y0174928D01*
Y0174571D01*
X0099005Y0174357D01*
X0099076Y0174214D01*
X0099219Y0174071D01*
X0099362Y0174000D01*
X0099647D01*
X0099790Y0174071D01*
X0099933Y0174214D01*
X0100004Y0174357D01*
X0100076Y0174571D01*
Y0174928D01*
X0100004Y0175143D01*
X0099933Y0175285D01*
X0099790Y0175428D01*
X0099647Y0175500D01*
X0099362D01*
X0100426D02*
Y0174000D01*
Y0175500D02*
X0101426Y0174000D01*
Y0175500D02*
Y0174000D01*
X0103018Y0174714D02*
X0103661D01*
X0103875Y0174786D01*
X0103946Y0174857D01*
X0104018Y0175000D01*
Y0175214D01*
X0103946Y0175357D01*
X0103875Y0175428D01*
X0103661Y0175500D01*
X0103018D01*
Y0174000D01*
X0105496D02*
X0104925Y0175500D01*
X0104353Y0174000D01*
X0104568Y0174500D02*
X0105282D01*
X0105846Y0175500D02*
Y0174000D01*
Y0175500D02*
X0106346D01*
X0106560Y0175428D01*
X0106703Y0175285D01*
X0106774Y0175143D01*
X0106846Y0174928D01*
Y0174571D01*
X0106774Y0174357D01*
X0106703Y0174214D01*
X0106560Y0174071D01*
X0106346Y0174000D01*
X0105846D01*
X0108181Y0175285D02*
X0108038Y0175428D01*
X0107824Y0175500D01*
X0107539D01*
X0107324Y0175428D01*
X0107181Y0175285D01*
Y0175143D01*
X0107253Y0175000D01*
X0107324Y0174928D01*
X0107467Y0174857D01*
X0107896Y0174714D01*
X0108038Y0174643D01*
X0108110Y0174571D01*
X0108181Y0174428D01*
Y0174214D01*
X0108038Y0174071D01*
X0107824Y0174000D01*
X0107539D01*
X0107324Y0174071D01*
X0107181Y0174214D01*
X0110195Y0175500D02*
Y0174000D01*
X0109695Y0175500D02*
X0110695D01*
X0111302D02*
X0111159Y0175428D01*
X0111016Y0175285D01*
X0110945Y0175143D01*
X0110874Y0174928D01*
Y0174571D01*
X0110945Y0174357D01*
X0111016Y0174214D01*
X0111159Y0174071D01*
X0111302Y0174000D01*
X0111588D01*
X0111730Y0174071D01*
X0111873Y0174214D01*
X0111945Y0174357D01*
X0112016Y0174571D01*
Y0174928D01*
X0111945Y0175143D01*
X0111873Y0175285D01*
X0111730Y0175428D01*
X0111588Y0175500D01*
X0111302D01*
X0114544Y0175285D02*
X0114401Y0175428D01*
X0114187Y0175500D01*
X0113901D01*
X0113687Y0175428D01*
X0113544Y0175285D01*
Y0175143D01*
X0113616Y0175000D01*
X0113687Y0174928D01*
X0113830Y0174857D01*
X0114258Y0174714D01*
X0114401Y0174643D01*
X0114473Y0174571D01*
X0114544Y0174428D01*
Y0174214D01*
X0114401Y0174071D01*
X0114187Y0174000D01*
X0113901D01*
X0113687Y0174071D01*
X0113544Y0174214D01*
X0114880Y0175500D02*
Y0174428D01*
X0114951Y0174214D01*
X0115094Y0174071D01*
X0115308Y0174000D01*
X0115451D01*
X0115665Y0174071D01*
X0115808Y0174214D01*
X0115880Y0174428D01*
Y0175500D01*
X0116294D02*
Y0174000D01*
X0117108Y0175500D02*
Y0174000D01*
X0116608Y0175500D02*
X0117608D01*
X0118965Y0174714D02*
X0119607D01*
X0119822Y0174786D01*
X0119893Y0174857D01*
X0119964Y0175000D01*
Y0175214D01*
X0119893Y0175357D01*
X0119822Y0175428D01*
X0119607Y0175500D01*
X0118965D01*
Y0174000D01*
X0120300Y0175500D02*
Y0174000D01*
Y0175500D02*
X0120943D01*
X0121157Y0175428D01*
X0121228Y0175357D01*
X0121300Y0175214D01*
Y0175071D01*
X0121228Y0174928D01*
X0121157Y0174857D01*
X0120943Y0174786D01*
X0120300D01*
X0120800D02*
X0121300Y0174000D01*
X0122064Y0175500D02*
X0121921Y0175428D01*
X0121778Y0175285D01*
X0121707Y0175143D01*
X0121635Y0174928D01*
Y0174571D01*
X0121707Y0174357D01*
X0121778Y0174214D01*
X0121921Y0174071D01*
X0122064Y0174000D01*
X0122350D01*
X0122492Y0174071D01*
X0122635Y0174214D01*
X0122707Y0174357D01*
X0122778Y0174571D01*
Y0174928D01*
X0122707Y0175143D01*
X0122635Y0175285D01*
X0122492Y0175428D01*
X0122350Y0175500D01*
X0122064D01*
X0124199Y0175143D02*
X0124128Y0175285D01*
X0123985Y0175428D01*
X0123842Y0175500D01*
X0123557D01*
X0123414Y0175428D01*
X0123271Y0175285D01*
X0123199Y0175143D01*
X0123128Y0174928D01*
Y0174571D01*
X0123199Y0174357D01*
X0123271Y0174214D01*
X0123414Y0174071D01*
X0123557Y0174000D01*
X0123842D01*
X0123985Y0174071D01*
X0124128Y0174214D01*
X0124199Y0174357D01*
X0125549Y0175500D02*
X0124621D01*
Y0174000D01*
X0125549D01*
X0124621Y0174786D02*
X0125192D01*
X0126799Y0175285D02*
X0126656Y0175428D01*
X0126442Y0175500D01*
X0126156D01*
X0125942Y0175428D01*
X0125799Y0175285D01*
Y0175143D01*
X0125870Y0175000D01*
X0125942Y0174928D01*
X0126085Y0174857D01*
X0126513Y0174714D01*
X0126656Y0174643D01*
X0126727Y0174571D01*
X0126799Y0174428D01*
Y0174214D01*
X0126656Y0174071D01*
X0126442Y0174000D01*
X0126156D01*
X0125942Y0174071D01*
X0125799Y0174214D01*
X0128134Y0175285D02*
X0127991Y0175428D01*
X0127777Y0175500D01*
X0127491D01*
X0127277Y0175428D01*
X0127134Y0175285D01*
Y0175143D01*
X0127206Y0175000D01*
X0127277Y0174928D01*
X0127420Y0174857D01*
X0127848Y0174714D01*
X0127991Y0174643D01*
X0128063Y0174571D01*
X0128134Y0174428D01*
Y0174214D01*
X0127991Y0174071D01*
X0127777Y0174000D01*
X0127491D01*
X0127277Y0174071D01*
X0127134Y0174214D01*
X0128541Y0174143D02*
X0128470Y0174071D01*
X0128541Y0174000D01*
X0128613Y0174071D01*
X0128541Y0174143D01*
X0050714Y0185500D02*
X0050000Y0184500D01*
X0051071D01*
X0050714Y0185500D02*
Y0184000D01*
X0051407Y0184143D02*
X0051335Y0184071D01*
X0051407Y0184000D01*
X0051478Y0184071D01*
X0051407Y0184143D01*
X0051807Y0185785D02*
X0051950Y0185643D01*
X0052092Y0185428D01*
X0052235Y0185143D01*
X0052307Y0184786D01*
Y0184500D01*
X0052235Y0184143D01*
X0052092Y0183857D01*
X0051950Y0183643D01*
X0051807Y0183500D01*
X0051950Y0185643D02*
X0052092Y0185357D01*
X0052164Y0185143D01*
X0052235Y0184786D01*
Y0184500D01*
X0052164Y0184143D01*
X0052092Y0183929D01*
X0051950Y0183643D01*
X0053849Y0184714D02*
X0054492D01*
X0054706Y0184786D01*
X0054778Y0184857D01*
X0054849Y0185000D01*
Y0185214D01*
X0054778Y0185357D01*
X0054706Y0185428D01*
X0054492Y0185500D01*
X0053849D01*
Y0184000D01*
X0055185Y0185500D02*
Y0184000D01*
X0056042D01*
X0057348D02*
X0056777Y0185500D01*
X0056206Y0184000D01*
X0056420Y0184500D02*
X0057134D01*
X0058198Y0185500D02*
Y0184000D01*
X0057698Y0185500D02*
X0058698D01*
X0058877D02*
Y0184000D01*
X0059191Y0185500D02*
Y0184000D01*
Y0185500D02*
X0060191Y0184000D01*
Y0185500D02*
Y0184000D01*
X0061676Y0185143D02*
X0061605Y0185285D01*
X0061462Y0185428D01*
X0061319Y0185500D01*
X0061033D01*
X0060891Y0185428D01*
X0060748Y0185285D01*
X0060676Y0185143D01*
X0060605Y0184928D01*
Y0184571D01*
X0060676Y0184357D01*
X0060748Y0184214D01*
X0060891Y0184071D01*
X0061033Y0184000D01*
X0061319D01*
X0061462Y0184071D01*
X0061605Y0184214D01*
X0061676Y0184357D01*
Y0184571D01*
X0061319D02*
X0061676D01*
X0063197Y0184643D02*
X0064483D01*
X0066104Y0185500D02*
Y0184000D01*
Y0185500D02*
X0066746D01*
X0066961Y0185428D01*
X0067032Y0185357D01*
X0067103Y0185214D01*
Y0185071D01*
X0067032Y0184928D01*
X0066961Y0184857D01*
X0066746Y0184786D01*
X0066104D02*
X0066746D01*
X0066961Y0184714D01*
X0067032Y0184643D01*
X0067103Y0184500D01*
Y0184286D01*
X0067032Y0184143D01*
X0066961Y0184071D01*
X0066746Y0184000D01*
X0066104D01*
X0067868Y0185500D02*
X0067725Y0185428D01*
X0067582Y0185285D01*
X0067511Y0185143D01*
X0067439Y0184928D01*
Y0184571D01*
X0067511Y0184357D01*
X0067582Y0184214D01*
X0067725Y0184071D01*
X0067868Y0184000D01*
X0068153D01*
X0068296Y0184071D01*
X0068439Y0184214D01*
X0068510Y0184357D01*
X0068582Y0184571D01*
Y0184928D01*
X0068510Y0185143D01*
X0068439Y0185285D01*
X0068296Y0185428D01*
X0068153Y0185500D01*
X0067868D01*
X0070074Y0184000D02*
X0069503Y0185500D01*
X0068932Y0184000D01*
X0069146Y0184500D02*
X0069860D01*
X0070424Y0185500D02*
Y0184000D01*
Y0185500D02*
X0071067D01*
X0071281Y0185428D01*
X0071353Y0185357D01*
X0071424Y0185214D01*
Y0185071D01*
X0071353Y0184928D01*
X0071281Y0184857D01*
X0071067Y0184786D01*
X0070424D01*
X0070924D02*
X0071424Y0184000D01*
X0071760Y0185500D02*
Y0184000D01*
Y0185500D02*
X0072260D01*
X0072474Y0185428D01*
X0072617Y0185285D01*
X0072688Y0185143D01*
X0072759Y0184928D01*
Y0184571D01*
X0072688Y0184357D01*
X0072617Y0184214D01*
X0072474Y0184071D01*
X0072260Y0184000D01*
X0071760D01*
X0074773Y0185500D02*
Y0184000D01*
X0074273Y0185500D02*
X0075273D01*
X0075880D02*
X0075737Y0185428D01*
X0075595Y0185285D01*
X0075523Y0185143D01*
X0075452Y0184928D01*
Y0184571D01*
X0075523Y0184357D01*
X0075595Y0184214D01*
X0075737Y0184071D01*
X0075880Y0184000D01*
X0076166D01*
X0076309Y0184071D01*
X0076451Y0184214D01*
X0076523Y0184357D01*
X0076594Y0184571D01*
Y0184928D01*
X0076523Y0185143D01*
X0076451Y0185285D01*
X0076309Y0185428D01*
X0076166Y0185500D01*
X0075880D01*
X0078123D02*
Y0184000D01*
Y0185500D02*
X0078765D01*
X0078979Y0185428D01*
X0079051Y0185357D01*
X0079122Y0185214D01*
Y0185071D01*
X0079051Y0184928D01*
X0078979Y0184857D01*
X0078765Y0184786D01*
X0078123D02*
X0078765D01*
X0078979Y0184714D01*
X0079051Y0184643D01*
X0079122Y0184500D01*
Y0184286D01*
X0079051Y0184143D01*
X0078979Y0184071D01*
X0078765Y0184000D01*
X0078123D01*
X0080386Y0185500D02*
X0079458D01*
Y0184000D01*
X0080386D01*
X0079458Y0184786D02*
X0080029D01*
X0081815Y0184714D02*
X0082457D01*
X0082672Y0184786D01*
X0082743Y0184857D01*
X0082814Y0185000D01*
Y0185214D01*
X0082743Y0185357D01*
X0082672Y0185428D01*
X0082457Y0185500D01*
X0081815D01*
Y0184000D01*
X0083150Y0185500D02*
Y0184000D01*
X0084007D01*
X0085314D02*
X0084743Y0185500D01*
X0084171Y0184000D01*
X0084385Y0184500D02*
X0085100D01*
X0086164Y0185500D02*
Y0184000D01*
X0085664Y0185500D02*
X0086664D01*
X0087770D02*
X0086842D01*
Y0184000D01*
X0087770D01*
X0086842Y0184786D02*
X0087413D01*
X0088020Y0185500D02*
Y0184000D01*
Y0185500D02*
X0088520D01*
X0088735Y0185428D01*
X0088877Y0185285D01*
X0088949Y0185143D01*
X0089020Y0184928D01*
Y0184571D01*
X0088949Y0184357D01*
X0088877Y0184214D01*
X0088735Y0184071D01*
X0088520Y0184000D01*
X0088020D01*
X0090534Y0185500D02*
X0090891Y0184000D01*
X0091248Y0185500D02*
X0090891Y0184000D01*
X0091248Y0185500D02*
X0091605Y0184000D01*
X0091962Y0185500D02*
X0091605Y0184000D01*
X0092262Y0185500D02*
Y0184000D01*
X0093076Y0185500D02*
Y0184000D01*
X0092577Y0185500D02*
X0093576D01*
X0093755D02*
Y0184000D01*
X0094755Y0185500D02*
Y0184000D01*
X0093755Y0184786D02*
X0094755D01*
X0096347Y0185500D02*
Y0184000D01*
X0096661Y0185500D02*
Y0184000D01*
Y0185500D02*
X0097233Y0184000D01*
X0097804Y0185500D02*
X0097233Y0184000D01*
X0097804Y0185500D02*
Y0184000D01*
X0098233Y0185500D02*
Y0184000D01*
Y0185500D02*
X0098804Y0184000D01*
X0099375Y0185500D02*
X0098804Y0184000D01*
X0099375Y0185500D02*
Y0184000D01*
X0100732Y0185500D02*
X0099804D01*
Y0184000D01*
X0100732D01*
X0099804Y0184786D02*
X0100375D01*
X0100982Y0185500D02*
Y0184000D01*
Y0185500D02*
X0101625D01*
X0101839Y0185428D01*
X0101910Y0185357D01*
X0101982Y0185214D01*
Y0185071D01*
X0101910Y0184928D01*
X0101839Y0184857D01*
X0101625Y0184786D01*
X0100982D01*
X0101482D02*
X0101982Y0184000D01*
X0103317Y0185285D02*
X0103174Y0185428D01*
X0102960Y0185500D01*
X0102674D01*
X0102460Y0185428D01*
X0102317Y0185285D01*
Y0185143D01*
X0102389Y0185000D01*
X0102460Y0184928D01*
X0102603Y0184857D01*
X0103031Y0184714D01*
X0103174Y0184643D01*
X0103246Y0184571D01*
X0103317Y0184428D01*
Y0184214D01*
X0103174Y0184071D01*
X0102960Y0184000D01*
X0102674D01*
X0102460Y0184071D01*
X0102317Y0184214D01*
X0103653Y0185500D02*
Y0184000D01*
X0104395Y0185500D02*
X0104253Y0185428D01*
X0104110Y0185285D01*
X0104038Y0185143D01*
X0103967Y0184928D01*
Y0184571D01*
X0104038Y0184357D01*
X0104110Y0184214D01*
X0104253Y0184071D01*
X0104395Y0184000D01*
X0104681D01*
X0104824Y0184071D01*
X0104967Y0184214D01*
X0105038Y0184357D01*
X0105110Y0184571D01*
Y0184928D01*
X0105038Y0185143D01*
X0104967Y0185285D01*
X0104824Y0185428D01*
X0104681Y0185500D01*
X0104395D01*
X0105460D02*
Y0184000D01*
Y0185500D02*
X0106459Y0184000D01*
Y0185500D02*
Y0184000D01*
X0109052Y0185285D02*
X0108909Y0185428D01*
X0108695Y0185500D01*
X0108409D01*
X0108195Y0185428D01*
X0108052Y0185285D01*
Y0185143D01*
X0108123Y0185000D01*
X0108195Y0184928D01*
X0108337Y0184857D01*
X0108766Y0184714D01*
X0108909Y0184643D01*
X0108980Y0184571D01*
X0109052Y0184428D01*
Y0184214D01*
X0108909Y0184071D01*
X0108695Y0184000D01*
X0108409D01*
X0108195Y0184071D01*
X0108052Y0184214D01*
X0109387Y0185500D02*
Y0184000D01*
X0109701Y0185500D02*
Y0184000D01*
X0110558D01*
X0110723Y0185500D02*
X0111294Y0184000D01*
X0111865Y0185500D02*
X0111294Y0184000D01*
X0112986Y0185500D02*
X0112058D01*
Y0184000D01*
X0112986D01*
X0112058Y0184786D02*
X0112629D01*
X0113236Y0185500D02*
Y0184000D01*
Y0185500D02*
X0113879D01*
X0114093Y0185428D01*
X0114165Y0185357D01*
X0114236Y0185214D01*
Y0185071D01*
X0114165Y0184928D01*
X0114093Y0184857D01*
X0113879Y0184786D01*
X0113236D01*
X0113736D02*
X0114236Y0184000D01*
X0114643Y0184143D02*
X0114572Y0184071D01*
X0114643Y0184000D01*
X0114715Y0184071D01*
X0114643Y0184143D01*
X0050143Y0189500D02*
X0050928D01*
X0050500Y0188928D01*
X0050714D01*
X0050857Y0188857D01*
X0050928Y0188786D01*
X0051000Y0188571D01*
Y0188428D01*
X0050928Y0188214D01*
X0050786Y0188071D01*
X0050571Y0188000D01*
X0050357D01*
X0050143Y0188071D01*
X0050071Y0188143D01*
X0050000Y0188286D01*
X0051407Y0188143D02*
X0051335Y0188071D01*
X0051407Y0188000D01*
X0051478Y0188071D01*
X0051407Y0188143D01*
X0051807Y0189785D02*
X0051950Y0189643D01*
X0052092Y0189428D01*
X0052235Y0189143D01*
X0052307Y0188786D01*
Y0188500D01*
X0052235Y0188143D01*
X0052092Y0187857D01*
X0051950Y0187643D01*
X0051807Y0187500D01*
X0051950Y0189643D02*
X0052092Y0189357D01*
X0052164Y0189143D01*
X0052235Y0188786D01*
Y0188500D01*
X0052164Y0188143D01*
X0052092Y0187929D01*
X0051950Y0187643D01*
X0054849Y0189285D02*
X0054706Y0189428D01*
X0054492Y0189500D01*
X0054206D01*
X0053992Y0189428D01*
X0053849Y0189285D01*
Y0189143D01*
X0053921Y0189000D01*
X0053992Y0188928D01*
X0054135Y0188857D01*
X0054563Y0188714D01*
X0054706Y0188643D01*
X0054778Y0188571D01*
X0054849Y0188428D01*
Y0188214D01*
X0054706Y0188071D01*
X0054492Y0188000D01*
X0054206D01*
X0053992Y0188071D01*
X0053849Y0188214D01*
X0055185Y0189500D02*
Y0188428D01*
X0055256Y0188214D01*
X0055399Y0188071D01*
X0055613Y0188000D01*
X0055756D01*
X0055970Y0188071D01*
X0056113Y0188214D01*
X0056184Y0188428D01*
Y0189500D01*
X0056599Y0188714D02*
X0057241D01*
X0057456Y0188786D01*
X0057527Y0188857D01*
X0057598Y0189000D01*
Y0189214D01*
X0057527Y0189357D01*
X0057456Y0189428D01*
X0057241Y0189500D01*
X0056599D01*
Y0188000D01*
X0057934Y0188714D02*
X0058577D01*
X0058791Y0188786D01*
X0058862Y0188857D01*
X0058934Y0189000D01*
Y0189214D01*
X0058862Y0189357D01*
X0058791Y0189428D01*
X0058577Y0189500D01*
X0057934D01*
Y0188000D01*
X0059269Y0189500D02*
Y0188000D01*
X0060126D01*
X0060291Y0189500D02*
Y0188000D01*
X0061533Y0189500D02*
X0060605D01*
Y0188000D01*
X0061533D01*
X0060605Y0188786D02*
X0061176D01*
X0061783Y0189500D02*
Y0188000D01*
Y0189500D02*
X0062426D01*
X0062640Y0189428D01*
X0062712Y0189357D01*
X0062783Y0189214D01*
Y0189071D01*
X0062712Y0188928D01*
X0062640Y0188857D01*
X0062426Y0188786D01*
X0061783D01*
X0062283D02*
X0062783Y0188000D01*
X0064297Y0189500D02*
Y0188000D01*
Y0189500D02*
X0064868Y0188000D01*
X0065440Y0189500D02*
X0064868Y0188000D01*
X0065440Y0189500D02*
Y0188000D01*
X0067011D02*
X0066439Y0189500D01*
X0065868Y0188000D01*
X0066082Y0188500D02*
X0066796D01*
X0067361Y0189500D02*
X0067932Y0188786D01*
Y0188000D01*
X0068503Y0189500D02*
X0067932Y0188786D01*
X0071017Y0188000D02*
X0070446Y0189500D01*
X0069874Y0188000D01*
X0070089Y0188500D02*
X0070803D01*
X0071367Y0189500D02*
Y0188000D01*
Y0189500D02*
X0071867D01*
X0072081Y0189428D01*
X0072224Y0189285D01*
X0072295Y0189143D01*
X0072367Y0188928D01*
Y0188571D01*
X0072295Y0188357D01*
X0072224Y0188214D01*
X0072081Y0188071D01*
X0071867Y0188000D01*
X0071367D01*
X0072702Y0189500D02*
Y0188000D01*
Y0189500D02*
X0073202D01*
X0073416Y0189428D01*
X0073559Y0189285D01*
X0073631Y0189143D01*
X0073702Y0188928D01*
Y0188571D01*
X0073631Y0188357D01*
X0073559Y0188214D01*
X0073416Y0188071D01*
X0073202Y0188000D01*
X0072702D01*
X0076287Y0189143D02*
X0076216Y0189285D01*
X0076073Y0189428D01*
X0075930Y0189500D01*
X0075645D01*
X0075502Y0189428D01*
X0075359Y0189285D01*
X0075287Y0189143D01*
X0075216Y0188928D01*
Y0188571D01*
X0075287Y0188357D01*
X0075359Y0188214D01*
X0075502Y0188071D01*
X0075645Y0188000D01*
X0075930D01*
X0076073Y0188071D01*
X0076216Y0188214D01*
X0076287Y0188357D01*
X0077137Y0189500D02*
X0076994Y0189428D01*
X0076851Y0189285D01*
X0076780Y0189143D01*
X0076709Y0188928D01*
Y0188571D01*
X0076780Y0188357D01*
X0076851Y0188214D01*
X0076994Y0188071D01*
X0077137Y0188000D01*
X0077423D01*
X0077566Y0188071D01*
X0077708Y0188214D01*
X0077780Y0188357D01*
X0077851Y0188571D01*
Y0188928D01*
X0077780Y0189143D01*
X0077708Y0189285D01*
X0077566Y0189428D01*
X0077423Y0189500D01*
X0077137D01*
X0078201Y0188714D02*
X0078844D01*
X0079058Y0188786D01*
X0079129Y0188857D01*
X0079201Y0189000D01*
Y0189214D01*
X0079129Y0189357D01*
X0079058Y0189428D01*
X0078844Y0189500D01*
X0078201D01*
Y0188000D01*
X0079537Y0188714D02*
X0080179D01*
X0080393Y0188786D01*
X0080465Y0188857D01*
X0080536Y0189000D01*
Y0189214D01*
X0080465Y0189357D01*
X0080393Y0189428D01*
X0080179Y0189500D01*
X0079537D01*
Y0188000D01*
X0081800Y0189500D02*
X0080872D01*
Y0188000D01*
X0081800D01*
X0080872Y0188786D02*
X0081443D01*
X0082050Y0189500D02*
Y0188000D01*
Y0189500D02*
X0082693D01*
X0082907Y0189428D01*
X0082979Y0189357D01*
X0083050Y0189214D01*
Y0189071D01*
X0082979Y0188928D01*
X0082907Y0188857D01*
X0082693Y0188786D01*
X0082050D01*
X0082550D02*
X0083050Y0188000D01*
X0085064Y0189500D02*
Y0188000D01*
X0084564Y0189500D02*
X0085564D01*
X0085742D02*
Y0188000D01*
X0086742Y0189500D02*
Y0188000D01*
X0085742Y0188786D02*
X0086742D01*
X0087156Y0189500D02*
Y0188000D01*
X0088399Y0189500D02*
X0087471D01*
Y0188000D01*
X0088399D01*
X0087471Y0188786D02*
X0088042D01*
X0088649Y0189500D02*
X0089220Y0188000D01*
X0089791Y0189500D02*
X0089220Y0188000D01*
X0089984Y0189500D02*
Y0188000D01*
X0090299Y0189500D02*
Y0188000D01*
Y0189500D02*
X0091298Y0188000D01*
Y0189500D02*
Y0188000D01*
X0092784Y0189143D02*
X0092712Y0189285D01*
X0092569Y0189428D01*
X0092427Y0189500D01*
X0092141D01*
X0091998Y0189428D01*
X0091855Y0189285D01*
X0091784Y0189143D01*
X0091712Y0188928D01*
Y0188571D01*
X0091784Y0188357D01*
X0091855Y0188214D01*
X0091998Y0188071D01*
X0092141Y0188000D01*
X0092427D01*
X0092569Y0188071D01*
X0092712Y0188214D01*
X0092784Y0188357D01*
Y0188571D01*
X0092427D02*
X0092784D01*
X0093126Y0187786D02*
X0094126Y0189500D01*
X0094226D02*
Y0188000D01*
Y0189500D02*
X0094869D01*
X0095083Y0189428D01*
X0095155Y0189357D01*
X0095226Y0189214D01*
Y0189071D01*
X0095155Y0188928D01*
X0095083Y0188857D01*
X0094869Y0188786D01*
X0094226D02*
X0094869D01*
X0095083Y0188714D01*
X0095155Y0188643D01*
X0095226Y0188500D01*
Y0188286D01*
X0095155Y0188143D01*
X0095083Y0188071D01*
X0094869Y0188000D01*
X0094226D01*
X0096704D02*
X0096133Y0189500D01*
X0095562Y0188000D01*
X0095776Y0188500D02*
X0096490D01*
X0097054Y0189500D02*
Y0188000D01*
X0097911D01*
X0099218D02*
X0098647Y0189500D01*
X0098075Y0188000D01*
X0098290Y0188500D02*
X0099004D01*
X0099568Y0189500D02*
Y0188000D01*
Y0189500D02*
X0100568Y0188000D01*
Y0189500D02*
Y0188000D01*
X0102053Y0189143D02*
X0101982Y0189285D01*
X0101839Y0189428D01*
X0101696Y0189500D01*
X0101410D01*
X0101268Y0189428D01*
X0101125Y0189285D01*
X0101053Y0189143D01*
X0100982Y0188928D01*
Y0188571D01*
X0101053Y0188357D01*
X0101125Y0188214D01*
X0101268Y0188071D01*
X0101410Y0188000D01*
X0101696D01*
X0101839Y0188071D01*
X0101982Y0188214D01*
X0102053Y0188357D01*
X0102474Y0189500D02*
Y0188000D01*
X0102789Y0189500D02*
Y0188000D01*
Y0189500D02*
X0103788Y0188000D01*
Y0189500D02*
Y0188000D01*
X0105274Y0189143D02*
X0105202Y0189285D01*
X0105060Y0189428D01*
X0104917Y0189500D01*
X0104631D01*
X0104488Y0189428D01*
X0104345Y0189285D01*
X0104274Y0189143D01*
X0104203Y0188928D01*
Y0188571D01*
X0104274Y0188357D01*
X0104345Y0188214D01*
X0104488Y0188071D01*
X0104631Y0188000D01*
X0104917D01*
X0105060Y0188071D01*
X0105202Y0188214D01*
X0105274Y0188357D01*
Y0188571D01*
X0104917D02*
X0105274D01*
X0105688Y0188143D02*
X0105617Y0188071D01*
X0105688Y0188000D01*
X0105759Y0188071D01*
X0105688Y0188143D01*
X0050000Y0200714D02*
X0050643D01*
X0050857Y0200786D01*
X0050928Y0200857D01*
X0051000Y0201000D01*
Y0201214D01*
X0050928Y0201357D01*
X0050857Y0201428D01*
X0050643Y0201500D01*
X0050000D01*
Y0200000D01*
X0052407Y0201143D02*
X0052335Y0201285D01*
X0052192Y0201428D01*
X0052050Y0201500D01*
X0051764D01*
X0051621Y0201428D01*
X0051478Y0201285D01*
X0051407Y0201143D01*
X0051335Y0200928D01*
Y0200571D01*
X0051407Y0200357D01*
X0051478Y0200214D01*
X0051621Y0200071D01*
X0051764Y0200000D01*
X0052050D01*
X0052192Y0200071D01*
X0052335Y0200214D01*
X0052407Y0200357D01*
X0052828Y0201500D02*
Y0200000D01*
Y0201500D02*
X0053471D01*
X0053685Y0201428D01*
X0053756Y0201357D01*
X0053828Y0201214D01*
Y0201071D01*
X0053756Y0200928D01*
X0053685Y0200857D01*
X0053471Y0200786D01*
X0052828D02*
X0053471D01*
X0053685Y0200714D01*
X0053756Y0200643D01*
X0053828Y0200500D01*
Y0200286D01*
X0053756Y0200143D01*
X0053685Y0200071D01*
X0053471Y0200000D01*
X0052828D01*
X0055342Y0201500D02*
Y0200000D01*
Y0201500D02*
X0056270D01*
X0055342Y0200786D02*
X0055913D01*
X0057584Y0200000D02*
X0057013Y0201500D01*
X0056441Y0200000D01*
X0056656Y0200500D02*
X0057370D01*
X0057934Y0201500D02*
Y0200000D01*
Y0201500D02*
X0058577D01*
X0058791Y0201428D01*
X0058862Y0201357D01*
X0058934Y0201214D01*
Y0201071D01*
X0058862Y0200928D01*
X0058791Y0200857D01*
X0058577Y0200786D01*
X0057934D02*
X0058577D01*
X0058791Y0200714D01*
X0058862Y0200643D01*
X0058934Y0200500D01*
Y0200286D01*
X0058862Y0200143D01*
X0058791Y0200071D01*
X0058577Y0200000D01*
X0057934D01*
X0059269Y0201500D02*
Y0200000D01*
Y0201500D02*
X0059912D01*
X0060126Y0201428D01*
X0060198Y0201357D01*
X0060269Y0201214D01*
Y0201071D01*
X0060198Y0200928D01*
X0060126Y0200857D01*
X0059912Y0200786D01*
X0059269D01*
X0059769D02*
X0060269Y0200000D01*
X0060605Y0201500D02*
Y0200000D01*
X0061990Y0201143D02*
X0061919Y0201285D01*
X0061776Y0201428D01*
X0061633Y0201500D01*
X0061348D01*
X0061205Y0201428D01*
X0061062Y0201285D01*
X0060991Y0201143D01*
X0060919Y0200928D01*
Y0200571D01*
X0060991Y0200357D01*
X0061062Y0200214D01*
X0061205Y0200071D01*
X0061348Y0200000D01*
X0061633D01*
X0061776Y0200071D01*
X0061919Y0200214D01*
X0061990Y0200357D01*
X0063554Y0200000D02*
X0062983Y0201500D01*
X0062412Y0200000D01*
X0062626Y0200500D02*
X0063340D01*
X0064404Y0201500D02*
Y0200000D01*
X0063904Y0201500D02*
X0064904D01*
X0065082D02*
Y0200000D01*
X0065825Y0201500D02*
X0065682Y0201428D01*
X0065540Y0201285D01*
X0065468Y0201143D01*
X0065397Y0200928D01*
Y0200571D01*
X0065468Y0200357D01*
X0065540Y0200214D01*
X0065682Y0200071D01*
X0065825Y0200000D01*
X0066111D01*
X0066254Y0200071D01*
X0066396Y0200214D01*
X0066468Y0200357D01*
X0066539Y0200571D01*
Y0200928D01*
X0066468Y0201143D01*
X0066396Y0201285D01*
X0066254Y0201428D01*
X0066111Y0201500D01*
X0065825D01*
X0066889D02*
Y0200000D01*
Y0201500D02*
X0067889Y0200000D01*
Y0201500D02*
Y0200000D01*
X0069482Y0201500D02*
Y0200000D01*
X0069796Y0201500D02*
Y0200000D01*
Y0201500D02*
X0070796Y0200000D01*
Y0201500D02*
Y0200000D01*
X0072210Y0201285D02*
X0072067Y0201428D01*
X0071852Y0201500D01*
X0071567D01*
X0071353Y0201428D01*
X0071210Y0201285D01*
Y0201143D01*
X0071281Y0201000D01*
X0071353Y0200928D01*
X0071495Y0200857D01*
X0071924Y0200714D01*
X0072067Y0200643D01*
X0072138Y0200571D01*
X0072210Y0200428D01*
Y0200214D01*
X0072067Y0200071D01*
X0071852Y0200000D01*
X0071567D01*
X0071353Y0200071D01*
X0071210Y0200214D01*
X0073045Y0201500D02*
Y0200000D01*
X0072545Y0201500D02*
X0073545D01*
X0073723D02*
Y0200000D01*
Y0201500D02*
X0074366D01*
X0074580Y0201428D01*
X0074652Y0201357D01*
X0074723Y0201214D01*
Y0201071D01*
X0074652Y0200928D01*
X0074580Y0200857D01*
X0074366Y0200786D01*
X0073723D01*
X0074223D02*
X0074723Y0200000D01*
X0075059Y0201500D02*
Y0200428D01*
X0075130Y0200214D01*
X0075273Y0200071D01*
X0075487Y0200000D01*
X0075630D01*
X0075844Y0200071D01*
X0075987Y0200214D01*
X0076059Y0200428D01*
Y0201500D01*
X0077544Y0201143D02*
X0077473Y0201285D01*
X0077330Y0201428D01*
X0077187Y0201500D01*
X0076901D01*
X0076759Y0201428D01*
X0076616Y0201285D01*
X0076544Y0201143D01*
X0076473Y0200928D01*
Y0200571D01*
X0076544Y0200357D01*
X0076616Y0200214D01*
X0076759Y0200071D01*
X0076901Y0200000D01*
X0077187D01*
X0077330Y0200071D01*
X0077473Y0200214D01*
X0077544Y0200357D01*
X0078465Y0201500D02*
Y0200000D01*
X0077965Y0201500D02*
X0078965D01*
X0079144D02*
Y0200000D01*
X0079886Y0201500D02*
X0079744Y0201428D01*
X0079601Y0201285D01*
X0079529Y0201143D01*
X0079458Y0200928D01*
Y0200571D01*
X0079529Y0200357D01*
X0079601Y0200214D01*
X0079744Y0200071D01*
X0079886Y0200000D01*
X0080172D01*
X0080315Y0200071D01*
X0080458Y0200214D01*
X0080529Y0200357D01*
X0080601Y0200571D01*
Y0200928D01*
X0080529Y0201143D01*
X0080458Y0201285D01*
X0080315Y0201428D01*
X0080172Y0201500D01*
X0079886D01*
X0080951D02*
Y0200000D01*
Y0201500D02*
X0081950Y0200000D01*
Y0201500D02*
Y0200000D01*
X0083364Y0201285D02*
X0083221Y0201428D01*
X0083007Y0201500D01*
X0082722D01*
X0082507Y0201428D01*
X0082364Y0201285D01*
Y0201143D01*
X0082436Y0201000D01*
X0082507Y0200928D01*
X0082650Y0200857D01*
X0083079Y0200714D01*
X0083221Y0200643D01*
X0083293Y0200571D01*
X0083364Y0200428D01*
Y0200214D01*
X0083221Y0200071D01*
X0083007Y0200000D01*
X0082722D01*
X0082507Y0200071D01*
X0082364Y0200214D01*
X0180714Y0147500D02*
Y0146357D01*
X0180643Y0146143D01*
X0180571Y0146071D01*
X0180428Y0146000D01*
X0180286D01*
X0180143Y0146071D01*
X0180071Y0146143D01*
X0180000Y0146357D01*
Y0146500D01*
X0182171Y0147143D02*
X0182100Y0147285D01*
X0181957Y0147428D01*
X0181814Y0147500D01*
X0181528D01*
X0181385Y0147428D01*
X0181243Y0147285D01*
X0181171Y0147143D01*
X0181100Y0146928D01*
Y0146571D01*
X0181171Y0146357D01*
X0181243Y0146214D01*
X0181385Y0146071D01*
X0181528Y0146000D01*
X0181814D01*
X0181957Y0146071D01*
X0182100Y0146214D01*
X0182171Y0146357D01*
Y0146571D01*
X0181814D02*
X0182171D01*
X0182514Y0147500D02*
Y0146000D01*
Y0147500D02*
X0183156D01*
X0183371Y0147428D01*
X0183442Y0147357D01*
X0183514Y0147214D01*
Y0147071D01*
X0183442Y0146928D01*
X0183371Y0146857D01*
X0183156Y0146786D01*
X0182514D02*
X0183156D01*
X0183371Y0146714D01*
X0183442Y0146643D01*
X0183514Y0146500D01*
Y0146286D01*
X0183442Y0146143D01*
X0183371Y0146071D01*
X0183156Y0146000D01*
X0182514D01*
X0184278Y0147500D02*
X0184063Y0147428D01*
X0183921Y0147214D01*
X0183849Y0146857D01*
Y0146643D01*
X0183921Y0146286D01*
X0184063Y0146071D01*
X0184278Y0146000D01*
X0184420D01*
X0184635Y0146071D01*
X0184778Y0146286D01*
X0184849Y0146643D01*
Y0146857D01*
X0184778Y0147214D01*
X0184635Y0147428D01*
X0184420Y0147500D01*
X0184278D01*
X0185613D02*
X0185399Y0147428D01*
X0185256Y0147214D01*
X0185185Y0146857D01*
Y0146643D01*
X0185256Y0146286D01*
X0185399Y0146071D01*
X0185613Y0146000D01*
X0185756D01*
X0185970Y0146071D01*
X0186113Y0146286D01*
X0186184Y0146643D01*
Y0146857D01*
X0186113Y0147214D01*
X0185970Y0147428D01*
X0185756Y0147500D01*
X0185613D01*
X0186949D02*
X0186734Y0147428D01*
X0186591Y0147214D01*
X0186520Y0146857D01*
Y0146643D01*
X0186591Y0146286D01*
X0186734Y0146071D01*
X0186949Y0146000D01*
X0187091D01*
X0187306Y0146071D01*
X0187448Y0146286D01*
X0187520Y0146643D01*
Y0146857D01*
X0187448Y0147214D01*
X0187306Y0147428D01*
X0187091Y0147500D01*
X0186949D01*
X0187855Y0147214D02*
X0187998Y0147285D01*
X0188213Y0147500D01*
Y0146000D01*
X0190134Y0146857D02*
X0191419D01*
X0190134Y0146428D02*
X0191419D01*
X0193111Y0147143D02*
Y0147214D01*
X0193183Y0147357D01*
X0193254Y0147428D01*
X0193397Y0147500D01*
X0193683D01*
X0193826Y0147428D01*
X0193897Y0147357D01*
X0193968Y0147214D01*
Y0147071D01*
X0193897Y0146928D01*
X0193754Y0146714D01*
X0193040Y0146000D01*
X0194040D01*
X0194375Y0147500D02*
X0194947Y0146000D01*
X0195518Y0147500D02*
X0194947Y0146000D01*
X0195711Y0147214D02*
X0195854Y0147285D01*
X0196068Y0147500D01*
Y0146000D01*
X0197989Y0146857D02*
X0199274D01*
X0197989Y0146428D02*
X0199274D01*
X0200967Y0147143D02*
Y0147214D01*
X0201038Y0147357D01*
X0201110Y0147428D01*
X0201253Y0147500D01*
X0201538D01*
X0201681Y0147428D01*
X0201752Y0147357D01*
X0201824Y0147214D01*
Y0147071D01*
X0201752Y0146928D01*
X0201610Y0146714D01*
X0200896Y0146000D01*
X0201895D01*
X0203231Y0147500D02*
X0202517Y0146000D01*
X0202231Y0147500D02*
X0203231D01*
X0204745D02*
Y0146000D01*
Y0147500D02*
X0205316Y0146000D01*
X0205887Y0147500D02*
X0205316Y0146000D01*
X0205887Y0147500D02*
Y0146000D01*
X0207458D02*
X0206887Y0147500D01*
X0206316Y0146000D01*
X0206530Y0146500D02*
X0207244D01*
X0207808Y0147500D02*
X0208380Y0146786D01*
Y0146000D01*
X0208951Y0147500D02*
X0208380Y0146786D01*
X0210393Y0147143D02*
Y0147214D01*
X0210465Y0147357D01*
X0210536Y0147428D01*
X0210679Y0147500D01*
X0210965D01*
X0211108Y0147428D01*
X0211179Y0147357D01*
X0211250Y0147214D01*
Y0147071D01*
X0211179Y0146928D01*
X0211036Y0146714D01*
X0210322Y0146000D01*
X0211322D01*
X0212086Y0147500D02*
X0211872Y0147428D01*
X0211729Y0147214D01*
X0211658Y0146857D01*
Y0146643D01*
X0211729Y0146286D01*
X0211872Y0146071D01*
X0212086Y0146000D01*
X0212229D01*
X0212443Y0146071D01*
X0212586Y0146286D01*
X0212657Y0146643D01*
Y0146857D01*
X0212586Y0147214D01*
X0212443Y0147428D01*
X0212229Y0147500D01*
X0212086D01*
X0212993Y0147214D02*
X0213136Y0147285D01*
X0213350Y0147500D01*
Y0146000D01*
X0214950Y0147500D02*
X0214236D01*
X0214164Y0146857D01*
X0214236Y0146928D01*
X0214450Y0147000D01*
X0214664D01*
X0214878Y0146928D01*
X0215021Y0146786D01*
X0215092Y0146571D01*
Y0146428D01*
X0215021Y0146214D01*
X0214878Y0146071D01*
X0214664Y0146000D01*
X0214450D01*
X0214236Y0146071D01*
X0214164Y0146143D01*
X0214093Y0146286D01*
D82*
X0183000Y0175000D02*
G03*
X0180000Y0172000I0000000J-0003000D01*
G01*
X0255000D02*
G03*
X0252000Y0175000I-0003000J0000000D01*
G01*
X0252000Y0155000D02*
G03*
X0255000Y0158000I0000000J0003000D01*
G01*
X0180000D02*
G03*
X0183000Y0155000I0003000J0000000D01*
G01*
X0180000Y0158000D02*
Y0172000D01*
X0183000Y0175000D02*
X0252000D01*
X0255000Y0158000D02*
Y0172000D01*
X0183000Y0155000D02*
X0252000D01*
M02*
