G04 Layer_Physical_Order=1*
G04 Layer_Color=255*
%FSAX25Y25*%
%MOIN*%
G70*
G01*
G75*
%ADD10C,0.03937*%
%ADD11C,0.06693*%
%ADD12R,0.06693X0.06693*%
%ADD13C,0.04724*%
%ADD14C,0.05512*%
%ADD15R,0.04724X0.04724*%
%ADD16C,0.05906*%
%ADD17R,0.05906X0.05906*%
%ADD18R,0.05906X0.05906*%
%ADD19R,0.04724X0.04724*%
G36*
X0596971Y0122029D02*
X0221029D01*
Y0359471D01*
X0596971D01*
Y0122029D01*
D02*
G37*
%LPC*%
G36*
X0403362Y0331862D02*
X0400500D01*
Y0329000D01*
X0403362D01*
Y0331862D01*
D02*
G37*
G36*
X0399500D02*
X0396638D01*
Y0329000D01*
X0399500D01*
Y0331862D01*
D02*
G37*
G36*
X0403362Y0328000D02*
X0400500D01*
Y0325138D01*
X0403362D01*
Y0328000D01*
D02*
G37*
G36*
X0399500D02*
X0396638D01*
Y0325138D01*
X0399500D01*
Y0328000D01*
D02*
G37*
G36*
X0461500Y0318825D02*
Y0316000D01*
X0464325D01*
X0464276Y0316378D01*
X0463937Y0317196D01*
X0463398Y0317898D01*
X0462696Y0318437D01*
X0461878Y0318776D01*
X0461500Y0318825D01*
D02*
G37*
G36*
X0460500D02*
X0460122Y0318776D01*
X0459304Y0318437D01*
X0458602Y0317898D01*
X0458063Y0317196D01*
X0457724Y0316378D01*
X0457675Y0316000D01*
X0460500D01*
Y0318825D01*
D02*
G37*
G36*
X0464325Y0315000D02*
X0461500D01*
Y0312175D01*
X0461878Y0312224D01*
X0462696Y0312563D01*
X0463398Y0313102D01*
X0463937Y0313804D01*
X0464276Y0314622D01*
X0464325Y0315000D01*
D02*
G37*
G36*
X0460500D02*
X0457675D01*
X0457724Y0314622D01*
X0458063Y0313804D01*
X0458602Y0313102D01*
X0459304Y0312563D01*
X0460122Y0312224D01*
X0460500Y0312175D01*
Y0315000D01*
D02*
G37*
G36*
X0248362Y0302862D02*
X0245500D01*
Y0300000D01*
X0248362D01*
Y0302862D01*
D02*
G37*
G36*
X0244500D02*
X0241638D01*
Y0300000D01*
X0244500D01*
Y0302862D01*
D02*
G37*
G36*
X0248362Y0299000D02*
X0245500D01*
Y0296138D01*
X0248362D01*
Y0299000D01*
D02*
G37*
G36*
X0244500D02*
X0241638D01*
Y0296138D01*
X0244500D01*
Y0299000D01*
D02*
G37*
G36*
X0556500Y0298222D02*
Y0295000D01*
X0559723D01*
X0559659Y0295480D01*
X0559281Y0296394D01*
X0558679Y0297179D01*
X0557894Y0297781D01*
X0556981Y0298159D01*
X0556500Y0298222D01*
D02*
G37*
G36*
X0555500D02*
X0555020Y0298159D01*
X0554106Y0297781D01*
X0553321Y0297179D01*
X0552719Y0296394D01*
X0552341Y0295480D01*
X0552278Y0295000D01*
X0555500D01*
Y0298222D01*
D02*
G37*
G36*
X0559723Y0294000D02*
X0556500D01*
Y0290777D01*
X0556981Y0290841D01*
X0557894Y0291219D01*
X0558679Y0291821D01*
X0559281Y0292606D01*
X0559659Y0293519D01*
X0559723Y0294000D01*
D02*
G37*
G36*
X0555500D02*
X0552278D01*
X0552341Y0293519D01*
X0552719Y0292606D01*
X0553321Y0291821D01*
X0554106Y0291219D01*
X0555020Y0290841D01*
X0555500Y0290777D01*
Y0294000D01*
D02*
G37*
G36*
X0335500Y0282288D02*
X0334520Y0282159D01*
X0333606Y0281781D01*
X0332821Y0281179D01*
X0332219Y0280394D01*
X0331841Y0279481D01*
X0331712Y0278500D01*
X0331841Y0277519D01*
X0332219Y0276606D01*
X0332821Y0275821D01*
X0333606Y0275219D01*
X0334520Y0274841D01*
X0335500Y0274712D01*
X0336480Y0274841D01*
X0337394Y0275219D01*
X0338179Y0275821D01*
X0338781Y0276606D01*
X0339159Y0277519D01*
X0339288Y0278500D01*
X0339159Y0279481D01*
X0338781Y0280394D01*
X0338179Y0281179D01*
X0337394Y0281781D01*
X0336480Y0282159D01*
X0335500Y0282288D01*
D02*
G37*
G36*
X0556000Y0268288D02*
X0555020Y0268159D01*
X0554106Y0267781D01*
X0553321Y0267179D01*
X0552719Y0266394D01*
X0552341Y0265480D01*
X0552212Y0264500D01*
X0552341Y0263520D01*
X0552719Y0262606D01*
X0553321Y0261821D01*
X0554106Y0261219D01*
X0555020Y0260841D01*
X0556000Y0260712D01*
X0556981Y0260841D01*
X0557894Y0261219D01*
X0558679Y0261821D01*
X0559281Y0262606D01*
X0559659Y0263520D01*
X0559788Y0264500D01*
X0559659Y0265480D01*
X0559281Y0266394D01*
X0558679Y0267179D01*
X0557894Y0267781D01*
X0556981Y0268159D01*
X0556000Y0268288D01*
D02*
G37*
G36*
X0591000Y0254921D02*
Y0251500D01*
X0594421D01*
X0594351Y0252032D01*
X0593953Y0252993D01*
X0593319Y0253819D01*
X0592493Y0254453D01*
X0591532Y0254851D01*
X0591000Y0254921D01*
D02*
G37*
G36*
X0590000D02*
X0589468Y0254851D01*
X0588507Y0254453D01*
X0587681Y0253819D01*
X0587047Y0252993D01*
X0586649Y0252032D01*
X0586579Y0251500D01*
X0590000D01*
Y0254921D01*
D02*
G37*
G36*
X0298000Y0253891D02*
X0297122Y0253776D01*
X0296304Y0253437D01*
X0295602Y0252898D01*
X0295063Y0252196D01*
X0294724Y0251378D01*
X0294609Y0250500D01*
X0294724Y0249622D01*
X0295063Y0248804D01*
X0295602Y0248102D01*
X0296304Y0247563D01*
X0297122Y0247224D01*
X0298000Y0247109D01*
X0298878Y0247224D01*
X0299696Y0247563D01*
X0300398Y0248102D01*
X0300937Y0248804D01*
X0301276Y0249622D01*
X0301391Y0250500D01*
X0301276Y0251378D01*
X0300937Y0252196D01*
X0300398Y0252898D01*
X0299696Y0253437D01*
X0298878Y0253776D01*
X0298000Y0253891D01*
D02*
G37*
G36*
X0594421Y0250500D02*
X0591000D01*
Y0247079D01*
X0591532Y0247149D01*
X0592493Y0247547D01*
X0593319Y0248181D01*
X0593953Y0249007D01*
X0594351Y0249968D01*
X0594421Y0250500D01*
D02*
G37*
G36*
X0590000D02*
X0586579D01*
X0586649Y0249968D01*
X0587047Y0249007D01*
X0587681Y0248181D01*
X0588507Y0247547D01*
X0589468Y0247149D01*
X0590000Y0247079D01*
Y0250500D01*
D02*
G37*
G36*
X0335500Y0252288D02*
X0334520Y0252159D01*
X0333606Y0251781D01*
X0332821Y0251179D01*
X0332219Y0250394D01*
X0331841Y0249481D01*
X0331712Y0248500D01*
X0331841Y0247519D01*
X0332219Y0246606D01*
X0332821Y0245821D01*
X0333606Y0245219D01*
X0334520Y0244841D01*
X0335500Y0244712D01*
X0336480Y0244841D01*
X0337394Y0245219D01*
X0338179Y0245821D01*
X0338781Y0246606D01*
X0339159Y0247519D01*
X0339288Y0248500D01*
X0339159Y0249481D01*
X0338781Y0250394D01*
X0338179Y0251179D01*
X0337394Y0251781D01*
X0336480Y0252159D01*
X0335500Y0252288D01*
D02*
G37*
G36*
X0594453Y0244953D02*
X0586547D01*
Y0237047D01*
X0594453D01*
Y0244953D01*
D02*
G37*
G36*
X0275000Y0302891D02*
X0274122Y0302776D01*
X0273304Y0302437D01*
X0272602Y0301898D01*
X0272063Y0301196D01*
X0271724Y0300378D01*
X0271609Y0299500D01*
X0271724Y0298622D01*
X0272006Y0297943D01*
Y0253500D01*
X0272108Y0252725D01*
X0272407Y0252003D01*
X0272883Y0251383D01*
X0294782Y0229484D01*
X0295063Y0228804D01*
X0295602Y0228102D01*
X0296304Y0227563D01*
X0297122Y0227224D01*
X0298000Y0227109D01*
X0298878Y0227224D01*
X0299696Y0227563D01*
X0300398Y0228102D01*
X0300937Y0228804D01*
X0301276Y0229622D01*
X0301391Y0230500D01*
X0301276Y0231378D01*
X0300937Y0232196D01*
X0300398Y0232898D01*
X0299696Y0233437D01*
X0299016Y0233718D01*
X0277994Y0254740D01*
Y0297943D01*
X0278276Y0298622D01*
X0278391Y0299500D01*
X0278276Y0300378D01*
X0277937Y0301196D01*
X0277398Y0301898D01*
X0276696Y0302437D01*
X0275878Y0302776D01*
X0275000Y0302891D01*
D02*
G37*
G36*
X0258500Y0210825D02*
Y0208000D01*
X0261325D01*
X0261276Y0208378D01*
X0260937Y0209196D01*
X0260398Y0209898D01*
X0259696Y0210437D01*
X0258878Y0210776D01*
X0258500Y0210825D01*
D02*
G37*
G36*
X0257500D02*
X0257122Y0210776D01*
X0256304Y0210437D01*
X0255602Y0209898D01*
X0255063Y0209196D01*
X0254724Y0208378D01*
X0254675Y0208000D01*
X0257500D01*
Y0210825D01*
D02*
G37*
G36*
X0400000Y0301891D02*
X0399122Y0301776D01*
X0398304Y0301437D01*
X0397602Y0300898D01*
X0397063Y0300196D01*
X0396724Y0299378D01*
X0396609Y0298500D01*
X0396724Y0297622D01*
X0397063Y0296804D01*
X0397602Y0296102D01*
X0398304Y0295563D01*
X0398984Y0295282D01*
X0440120Y0254146D01*
Y0208097D01*
X0439647Y0207936D01*
X0439521Y0208100D01*
X0438613Y0208797D01*
X0437556Y0209235D01*
X0436421Y0209384D01*
X0435287Y0209235D01*
X0434229Y0208797D01*
X0433321Y0208100D01*
X0432625Y0207192D01*
X0432187Y0206135D01*
X0432037Y0205000D01*
X0432187Y0203865D01*
X0432625Y0202808D01*
X0433321Y0201900D01*
X0433427Y0201819D01*
Y0188097D01*
X0432954Y0187937D01*
X0432828Y0188100D01*
X0431920Y0188797D01*
X0430863Y0189235D01*
X0429728Y0189384D01*
X0428594Y0189235D01*
X0427536Y0188797D01*
X0426628Y0188100D01*
X0425932Y0187192D01*
X0425494Y0186135D01*
X0425344Y0185000D01*
X0425494Y0183865D01*
X0425932Y0182808D01*
X0426628Y0181900D01*
X0427536Y0181203D01*
X0428594Y0180765D01*
X0429728Y0180616D01*
X0430863Y0180765D01*
X0431920Y0181203D01*
X0432828Y0181900D01*
X0432954Y0182063D01*
X0433427Y0181903D01*
Y0145579D01*
X0433529Y0144804D01*
X0433828Y0144082D01*
X0434304Y0143462D01*
X0438779Y0138986D01*
X0438841Y0138520D01*
X0439219Y0137606D01*
X0439821Y0136821D01*
X0440606Y0136219D01*
X0441519Y0135841D01*
X0442500Y0135712D01*
X0443480Y0135841D01*
X0444394Y0136219D01*
X0445179Y0136821D01*
X0445781Y0137606D01*
X0446159Y0138520D01*
X0446288Y0139500D01*
X0446159Y0140480D01*
X0445781Y0141394D01*
X0445179Y0142179D01*
X0444394Y0142781D01*
X0443480Y0143159D01*
X0443014Y0143221D01*
X0439415Y0146819D01*
Y0181903D01*
X0439889Y0182064D01*
X0440014Y0181900D01*
X0440922Y0181203D01*
X0441980Y0180765D01*
X0443114Y0180616D01*
X0444249Y0180765D01*
X0445306Y0181203D01*
X0446214Y0181900D01*
X0446911Y0182808D01*
X0447349Y0183865D01*
X0447498Y0185000D01*
X0447349Y0186135D01*
X0446911Y0187192D01*
X0446214Y0188100D01*
X0446108Y0188181D01*
Y0201903D01*
X0446582Y0202063D01*
X0446707Y0201900D01*
X0447615Y0201203D01*
X0448672Y0200765D01*
X0449307Y0200682D01*
Y0205000D01*
Y0209318D01*
X0448672Y0209235D01*
X0447615Y0208797D01*
X0446707Y0208100D01*
X0446582Y0207937D01*
X0446108Y0208097D01*
Y0255386D01*
X0446006Y0256161D01*
X0445707Y0256883D01*
X0445231Y0257503D01*
X0403218Y0299516D01*
X0402937Y0300196D01*
X0402398Y0300898D01*
X0401696Y0301437D01*
X0400878Y0301776D01*
X0400000Y0301891D01*
D02*
G37*
G36*
X0450307Y0209318D02*
Y0205500D01*
X0454125D01*
X0454042Y0206135D01*
X0453604Y0207192D01*
X0452907Y0208100D01*
X0451999Y0208797D01*
X0450942Y0209235D01*
X0450307Y0209318D01*
D02*
G37*
G36*
X0261325Y0207000D02*
X0258500D01*
Y0204175D01*
X0258878Y0204224D01*
X0259696Y0204563D01*
X0260398Y0205102D01*
X0260937Y0205804D01*
X0261276Y0206622D01*
X0261325Y0207000D01*
D02*
G37*
G36*
X0257500D02*
X0254675D01*
X0254724Y0206622D01*
X0255063Y0205804D01*
X0255602Y0205102D01*
X0256304Y0204563D01*
X0257122Y0204224D01*
X0257500Y0204175D01*
Y0207000D01*
D02*
G37*
G36*
X0454125Y0204500D02*
X0450307D01*
Y0200682D01*
X0450942Y0200765D01*
X0451999Y0201203D01*
X0452907Y0201900D01*
X0453604Y0202808D01*
X0454042Y0203865D01*
X0454125Y0204500D01*
D02*
G37*
G36*
X0476579Y0209384D02*
X0475444Y0209235D01*
X0474387Y0208797D01*
X0473479Y0208100D01*
X0472782Y0207192D01*
X0472344Y0206135D01*
X0472195Y0205000D01*
X0472212Y0204868D01*
X0460983Y0193638D01*
X0460507Y0193018D01*
X0460208Y0192296D01*
X0460106Y0191521D01*
Y0188218D01*
X0459632Y0188058D01*
X0459600Y0188100D01*
X0458692Y0188797D01*
X0457635Y0189235D01*
X0456500Y0189384D01*
X0455365Y0189235D01*
X0454308Y0188797D01*
X0453400Y0188100D01*
X0452703Y0187192D01*
X0452265Y0186135D01*
X0452116Y0185000D01*
X0452265Y0183865D01*
X0452703Y0182808D01*
X0453400Y0181900D01*
X0454308Y0181203D01*
X0455365Y0180765D01*
X0456500Y0180616D01*
X0457635Y0180765D01*
X0458692Y0181203D01*
X0459600Y0181900D01*
X0459632Y0181942D01*
X0460106Y0181782D01*
Y0148900D01*
X0460208Y0148125D01*
X0460507Y0147403D01*
X0460983Y0146783D01*
X0468779Y0138986D01*
X0468841Y0138520D01*
X0469219Y0137606D01*
X0469821Y0136821D01*
X0470606Y0136219D01*
X0471520Y0135841D01*
X0472500Y0135712D01*
X0473481Y0135841D01*
X0474394Y0136219D01*
X0475179Y0136821D01*
X0475781Y0137606D01*
X0476159Y0138520D01*
X0476288Y0139500D01*
X0476159Y0140480D01*
X0475781Y0141394D01*
X0475179Y0142179D01*
X0474394Y0142781D01*
X0473481Y0143159D01*
X0473014Y0143221D01*
X0466094Y0150140D01*
Y0182024D01*
X0466568Y0182185D01*
X0466786Y0181900D01*
X0467694Y0181203D01*
X0468751Y0180765D01*
X0469886Y0180616D01*
X0470018Y0180633D01*
X0489006Y0161646D01*
Y0131453D01*
X0488047D01*
Y0123547D01*
X0495953D01*
Y0131453D01*
X0494994D01*
Y0162886D01*
X0494892Y0163661D01*
X0494717Y0164084D01*
X0494593Y0164383D01*
X0494117Y0165003D01*
X0474252Y0184868D01*
X0474270Y0185000D01*
X0474120Y0186135D01*
X0473682Y0187192D01*
X0472986Y0188100D01*
X0472078Y0188797D01*
X0471020Y0189235D01*
X0469886Y0189384D01*
X0468751Y0189235D01*
X0467694Y0188797D01*
X0466786Y0188100D01*
X0466568Y0187815D01*
X0466094Y0187976D01*
Y0190281D01*
X0476447Y0200633D01*
X0476579Y0200616D01*
X0477713Y0200765D01*
X0478771Y0201203D01*
X0479679Y0201900D01*
X0480375Y0202808D01*
X0480813Y0203865D01*
X0480963Y0205000D01*
X0480813Y0206135D01*
X0480375Y0207192D01*
X0479679Y0208100D01*
X0478771Y0208797D01*
X0477713Y0209235D01*
X0476579Y0209384D01*
D02*
G37*
G36*
X0463193D02*
X0462058Y0209235D01*
X0461001Y0208797D01*
X0460093Y0208100D01*
X0459396Y0207192D01*
X0458958Y0206135D01*
X0458809Y0205000D01*
X0458958Y0203865D01*
X0459396Y0202808D01*
X0460093Y0201900D01*
X0461001Y0201203D01*
X0462058Y0200765D01*
X0463193Y0200616D01*
X0464327Y0200765D01*
X0465385Y0201203D01*
X0466293Y0201900D01*
X0466989Y0202808D01*
X0467427Y0203865D01*
X0467577Y0205000D01*
X0467427Y0206135D01*
X0466989Y0207192D01*
X0466293Y0208100D01*
X0465385Y0208797D01*
X0464327Y0209235D01*
X0463193Y0209384D01*
D02*
G37*
G36*
X0423035D02*
X0421901Y0209235D01*
X0420843Y0208797D01*
X0419936Y0208100D01*
X0419239Y0207192D01*
X0418801Y0206135D01*
X0418651Y0205000D01*
X0418801Y0203865D01*
X0419239Y0202808D01*
X0419936Y0201900D01*
X0420843Y0201203D01*
X0421901Y0200765D01*
X0423035Y0200616D01*
X0424170Y0200765D01*
X0425227Y0201203D01*
X0426135Y0201900D01*
X0426832Y0202808D01*
X0427270Y0203865D01*
X0427419Y0205000D01*
X0427270Y0206135D01*
X0426832Y0207192D01*
X0426135Y0208100D01*
X0425227Y0208797D01*
X0424170Y0209235D01*
X0423035Y0209384D01*
D02*
G37*
G36*
X0483272Y0189384D02*
X0482137Y0189235D01*
X0481080Y0188797D01*
X0480172Y0188100D01*
X0479475Y0187192D01*
X0479037Y0186135D01*
X0478888Y0185000D01*
X0479037Y0183865D01*
X0479475Y0182808D01*
X0480172Y0181900D01*
X0481080Y0181203D01*
X0482137Y0180765D01*
X0483272Y0180616D01*
X0484406Y0180765D01*
X0485464Y0181203D01*
X0486372Y0181900D01*
X0487068Y0182808D01*
X0487506Y0183865D01*
X0487656Y0185000D01*
X0487506Y0186135D01*
X0487068Y0187192D01*
X0486372Y0188100D01*
X0485464Y0188797D01*
X0484406Y0189235D01*
X0483272Y0189384D01*
D02*
G37*
G36*
X0258000Y0200891D02*
X0257122Y0200776D01*
X0256304Y0200437D01*
X0255602Y0199898D01*
X0255063Y0199196D01*
X0254724Y0198378D01*
X0254609Y0197500D01*
X0254724Y0196622D01*
X0255006Y0195943D01*
Y0176768D01*
X0254719Y0176394D01*
X0254341Y0175480D01*
X0254212Y0174500D01*
X0254341Y0173520D01*
X0254719Y0172606D01*
X0255321Y0171821D01*
X0256106Y0171219D01*
X0257019Y0170841D01*
X0258000Y0170712D01*
X0258980Y0170841D01*
X0259894Y0171219D01*
X0260679Y0171821D01*
X0261281Y0172606D01*
X0261659Y0173520D01*
X0261788Y0174500D01*
X0261659Y0175480D01*
X0261281Y0176394D01*
X0260994Y0176768D01*
Y0195943D01*
X0261276Y0196622D01*
X0261391Y0197500D01*
X0261276Y0198378D01*
X0260937Y0199196D01*
X0260398Y0199898D01*
X0259696Y0200437D01*
X0258878Y0200776D01*
X0258000Y0200891D01*
D02*
G37*
G36*
X0261362Y0220862D02*
X0254638D01*
Y0218372D01*
X0232883Y0196617D01*
X0232407Y0195997D01*
X0232108Y0195275D01*
X0232006Y0194500D01*
Y0172953D01*
X0231047D01*
Y0165047D01*
X0238953D01*
Y0172953D01*
X0237994D01*
Y0193260D01*
X0258872Y0214138D01*
X0261362D01*
Y0220862D01*
D02*
G37*
G36*
X0235500Y0162921D02*
Y0159500D01*
X0238921D01*
X0238851Y0160032D01*
X0238453Y0160993D01*
X0237819Y0161819D01*
X0236993Y0162453D01*
X0236032Y0162851D01*
X0235500Y0162921D01*
D02*
G37*
G36*
X0234500D02*
X0233968Y0162851D01*
X0233007Y0162453D01*
X0232181Y0161819D01*
X0231547Y0160993D01*
X0231149Y0160032D01*
X0231079Y0159500D01*
X0234500D01*
Y0162921D01*
D02*
G37*
G36*
X0238921Y0158500D02*
X0235500D01*
Y0155079D01*
X0236032Y0155149D01*
X0236993Y0155547D01*
X0237819Y0156181D01*
X0238453Y0157007D01*
X0238851Y0157968D01*
X0238921Y0158500D01*
D02*
G37*
G36*
X0234500D02*
X0231079D01*
X0231149Y0157968D01*
X0231547Y0157007D01*
X0232181Y0156181D01*
X0233007Y0155547D01*
X0233968Y0155149D01*
X0234500Y0155079D01*
Y0158500D01*
D02*
G37*
G36*
X0258000Y0148288D02*
X0257019Y0148159D01*
X0256106Y0147781D01*
X0255321Y0147179D01*
X0254719Y0146394D01*
X0254341Y0145481D01*
X0254212Y0144500D01*
X0254341Y0143519D01*
X0254719Y0142606D01*
X0255321Y0141821D01*
X0256106Y0141219D01*
X0257019Y0140841D01*
X0258000Y0140712D01*
X0258980Y0140841D01*
X0259894Y0141219D01*
X0260679Y0141821D01*
X0261281Y0142606D01*
X0261659Y0143519D01*
X0261788Y0144500D01*
X0261659Y0145481D01*
X0261281Y0146394D01*
X0260679Y0147179D01*
X0259894Y0147781D01*
X0258980Y0148159D01*
X0258000Y0148288D01*
D02*
G37*
G36*
X0494362Y0318862D02*
X0487638D01*
Y0312138D01*
X0488006D01*
Y0261363D01*
X0487050Y0209347D01*
X0485618D01*
Y0200654D01*
X0490077D01*
X0507006Y0183724D01*
Y0131953D01*
X0506047D01*
Y0124047D01*
X0513953D01*
Y0131953D01*
X0512994D01*
Y0184965D01*
X0512892Y0185740D01*
X0512593Y0186462D01*
X0512117Y0187082D01*
X0494311Y0204888D01*
Y0209347D01*
X0493396D01*
X0493046Y0209703D01*
X0493994Y0261280D01*
X0493991Y0261308D01*
X0493994Y0261335D01*
Y0312138D01*
X0494362D01*
Y0318862D01*
D02*
G37*
%LPD*%
D10*
X0235000Y0159000D02*
X0239000Y0163000D01*
X0246500Y0169500D01*
Y0196000D01*
X0258000Y0207500D01*
X0461000Y0216193D02*
Y0315500D01*
X0449807Y0205000D02*
X0461000Y0216193D01*
X0556000Y0285500D02*
X0590500Y0251000D01*
X0556000Y0285500D02*
Y0294500D01*
X0235000Y0169000D02*
Y0194500D01*
X0258000Y0217500D01*
X0245000Y0299500D02*
X0263400Y0281100D01*
Y0212900D02*
Y0281100D01*
X0258000Y0207500D02*
X0263400Y0212900D01*
X0443114Y0185000D02*
Y0255386D01*
X0275000Y0253500D02*
X0298000Y0230500D01*
X0275000Y0253500D02*
Y0299500D01*
X0492000Y0127500D02*
Y0162886D01*
X0489965Y0205000D02*
X0510000Y0184965D01*
X0489965Y0205000D02*
X0491000Y0261335D01*
Y0315500D01*
X0463100Y0148900D02*
X0472500Y0139500D01*
X0463100Y0148900D02*
Y0191521D01*
X0476579Y0205000D01*
X0258000Y0174500D02*
Y0197500D01*
X0436421Y0145579D02*
Y0205000D01*
Y0145579D02*
X0442500Y0139500D01*
X0469886Y0185000D02*
X0492000Y0162886D01*
X0510000Y0128000D02*
Y0184965D01*
X0400000Y0298500D02*
X0443114Y0255386D01*
D11*
Y0185000D02*
D03*
X0436421Y0205000D02*
D03*
X0429728Y0185000D02*
D03*
X0423035Y0205000D02*
D03*
X0483272Y0185000D02*
D03*
X0476579Y0205000D02*
D03*
X0469886Y0185000D02*
D03*
X0463193Y0205000D02*
D03*
X0456500Y0185000D02*
D03*
X0449807Y0205000D02*
D03*
D12*
X0489965D02*
D03*
D13*
X0298000Y0230500D02*
D03*
Y0250500D02*
D03*
X0258000Y0197500D02*
D03*
Y0207500D02*
D03*
X0461000Y0315500D02*
D03*
X0275000Y0299500D02*
D03*
X0400000Y0298500D02*
D03*
D14*
X0442500Y0139500D02*
D03*
X0472500D02*
D03*
X0335500Y0248500D02*
D03*
Y0278500D02*
D03*
X0556000Y0294500D02*
D03*
Y0264500D02*
D03*
X0258000Y0174500D02*
D03*
Y0144500D02*
D03*
D15*
Y0217500D02*
D03*
X0400000Y0328500D02*
D03*
D16*
X0235000Y0159000D02*
D03*
X0590500Y0251000D02*
D03*
D17*
X0235000Y0169000D02*
D03*
X0590500Y0241000D02*
D03*
D18*
X0492000Y0127500D02*
D03*
X0510000Y0128000D02*
D03*
D19*
X0491000Y0315500D02*
D03*
X0245000Y0299500D02*
D03*
M02*
