G04 Layer_Color=2752767*
%FSAX25Y25*%
%MOIN*%
G70*
G01*
G75*
%ADD33C,0.00200*%
%ADD34C,0.00267*%
D33*
X0399200Y0327700D02*
Y0329300D01*
X0400800D01*
Y0327700D01*
X0399200D01*
Y0297700D02*
Y0299300D01*
X0400800D01*
Y0297700D01*
X0399200D01*
X0244200Y0298700D02*
Y0300300D01*
X0245800D01*
Y0298700D01*
X0244200D01*
X0274200D02*
Y0300300D01*
X0275800D01*
Y0298700D01*
X0274200D01*
X0490200Y0314700D02*
Y0316300D01*
X0491800D01*
Y0314700D01*
X0490200D01*
X0460200D02*
Y0316300D01*
X0461800D01*
Y0314700D01*
X0460200D01*
X0258000Y0143700D02*
X0257200Y0145300D01*
X0258800D01*
X0258000Y0143700D01*
Y0173700D02*
X0257200Y0175300D01*
X0258800D01*
X0258000Y0173700D01*
X0257200Y0216700D02*
Y0218300D01*
X0258800D01*
Y0216700D01*
X0257200D01*
Y0206700D02*
Y0208300D01*
X0258800D01*
Y0206700D01*
X0257200D01*
Y0196700D02*
Y0198300D01*
X0258800D01*
Y0196700D01*
X0257200D01*
X0556000Y0263700D02*
X0555200Y0265300D01*
X0556800D01*
X0556000Y0263700D01*
Y0293700D02*
X0555200Y0295300D01*
X0556800D01*
X0556000Y0293700D01*
X0335500Y0277700D02*
X0334700Y0279300D01*
X0336300D01*
X0335500Y0277700D01*
Y0247700D02*
X0334700Y0249300D01*
X0336300D01*
X0335500Y0247700D01*
X0472500Y0138700D02*
X0471700Y0140300D01*
X0473300D01*
X0472500Y0138700D01*
X0442500D02*
X0441700Y0140300D01*
X0443300D01*
X0442500Y0138700D01*
X0297200Y0249700D02*
Y0251300D01*
X0298800D01*
Y0249700D01*
X0297200D01*
Y0229700D02*
Y0231300D01*
X0298800D01*
Y0229700D01*
X0297200D01*
X0449807Y0204200D02*
X0450207Y0204600D01*
X0450607D01*
X0450207Y0205000D01*
X0450607Y0205400D01*
X0450207D01*
X0449807Y0205800D01*
X0449407Y0205400D01*
X0449007D01*
X0449407Y0205000D01*
X0449007Y0204600D01*
X0449407D01*
X0449807Y0204200D01*
X0456500Y0184200D02*
X0456900Y0184600D01*
X0457300D01*
X0456900Y0185000D01*
X0457300Y0185400D01*
X0456900D01*
X0456500Y0185800D01*
X0456100Y0185400D01*
X0455700D01*
X0456100Y0185000D01*
X0455700Y0184600D01*
X0456100D01*
X0456500Y0184200D01*
X0463193Y0204200D02*
X0463593Y0204600D01*
X0463993D01*
X0463593Y0205000D01*
X0463993Y0205400D01*
X0463593D01*
X0463193Y0205800D01*
X0462793Y0205400D01*
X0462393D01*
X0462793Y0205000D01*
X0462393Y0204600D01*
X0462793D01*
X0463193Y0204200D01*
X0469886Y0184200D02*
X0470286Y0184600D01*
X0470686D01*
X0470286Y0185000D01*
X0470686Y0185400D01*
X0470286D01*
X0469886Y0185800D01*
X0469486Y0185400D01*
X0469086D01*
X0469486Y0185000D01*
X0469086Y0184600D01*
X0469486D01*
X0469886Y0184200D01*
X0476579Y0204200D02*
X0476979Y0204600D01*
X0477379D01*
X0476979Y0205000D01*
X0477379Y0205400D01*
X0476979D01*
X0476579Y0205800D01*
X0476179Y0205400D01*
X0475779D01*
X0476179Y0205000D01*
X0475779Y0204600D01*
X0476179D01*
X0476579Y0204200D01*
X0483272Y0184200D02*
X0483672Y0184600D01*
X0484072D01*
X0483672Y0185000D01*
X0484072Y0185400D01*
X0483672D01*
X0483272Y0185800D01*
X0482872Y0185400D01*
X0482472D01*
X0482872Y0185000D01*
X0482472Y0184600D01*
X0482872D01*
X0483272Y0184200D01*
X0489965Y0204200D02*
X0490365Y0204600D01*
X0490765D01*
X0490365Y0205000D01*
X0490765Y0205400D01*
X0490365D01*
X0489965Y0205800D01*
X0489565Y0205400D01*
X0489165D01*
X0489565Y0205000D01*
X0489165Y0204600D01*
X0489565D01*
X0489965Y0204200D01*
X0423035D02*
X0423435Y0204600D01*
X0423835D01*
X0423435Y0205000D01*
X0423835Y0205400D01*
X0423435D01*
X0423035Y0205800D01*
X0422635Y0205400D01*
X0422235D01*
X0422635Y0205000D01*
X0422235Y0204600D01*
X0422635D01*
X0423035Y0204200D01*
X0429728Y0184200D02*
X0430128Y0184600D01*
X0430528D01*
X0430128Y0185000D01*
X0430528Y0185400D01*
X0430128D01*
X0429728Y0185800D01*
X0429328Y0185400D01*
X0428928D01*
X0429328Y0185000D01*
X0428928Y0184600D01*
X0429328D01*
X0429728Y0184200D01*
X0436421Y0204200D02*
X0436821Y0204600D01*
X0437221D01*
X0436821Y0205000D01*
X0437221Y0205400D01*
X0436821D01*
X0436421Y0205800D01*
X0436021Y0205400D01*
X0435621D01*
X0436021Y0205000D01*
X0435621Y0204600D01*
X0436021D01*
X0436421Y0204200D01*
X0443114Y0184200D02*
X0443514Y0184600D01*
X0443914D01*
X0443514Y0185000D01*
X0443914Y0185400D01*
X0443514D01*
X0443114Y0185800D01*
X0442714Y0185400D01*
X0442314D01*
X0442714Y0185000D01*
X0442314Y0184600D01*
X0442714D01*
X0443114Y0184200D01*
D34*
X0591300Y0241000D02*
G03*
X0591300Y0241000I-0000800J0000000D01*
G01*
Y0251000D02*
G03*
X0591300Y0251000I-0000800J0000000D01*
G01*
X0510800Y0128000D02*
G03*
X0510800Y0128000I-0000800J0000000D01*
G01*
X0492800Y0127500D02*
G03*
X0492800Y0127500I-0000800J0000000D01*
G01*
X0235800Y0169000D02*
G03*
X0235800Y0169000I-0000800J0000000D01*
G01*
Y0159000D02*
G03*
X0235800Y0159000I-0000800J0000000D01*
G01*
M02*
