M48
;Layer_Color=9474304
;FILE_FORMAT=2:5
INCH
;TYPE=PLATED
T1F00S00C0.02756
T2F00S00C0.03346
T3F00S00C0.03543
T4F00S00C0.04331
%
T01
X0400000Y0298500
X0275000Y0299500
X0245000
X0258000Y0217500
Y0207500
Y0197500
X0298000Y0230500
Y0250500
X0400000Y0328500
X0461000Y0315500
X0491000
T02
X0258000Y0144500
X0442500Y0139500
X0472500
X0556000Y0264500
Y0294500
X0335500Y0278500
Y0248500
X0258000Y0174500
T03
X0492000Y0127500
X0510000Y0128000
X0590500Y0241000
Y0251000
X0235000Y0169000
Y0159000
T04
X0469886Y0185000
X0483272
X0476579Y0205000
X0489965
X0463193
X0449807
X0436421
X0423035
X0429728Y0185000
X0443114
X0456500
M30
