G04 Layer_Color=65535*
%FSAX25Y25*%
%MOIN*%
G70*
G01*
G75*
%ADD20C,0.00984*%
%ADD21C,0.00787*%
%ADD22C,0.01000*%
%ADD23C,0.00591*%
D20*
X0495968Y0205000D02*
G03*
X0495968Y0205000I-0000492J0000000D01*
G01*
X0492492Y0135571D02*
G03*
X0492492Y0135571I-0000492J0000000D01*
G01*
X0510492Y0136071D02*
G03*
X0510492Y0136071I-0000492J0000000D01*
G01*
X0582921Y0241000D02*
G03*
X0582921Y0241000I-0000492J0000000D01*
G01*
D21*
X0506000Y0315500D02*
G03*
X0506000Y0315500I-0030000J0000000D01*
G01*
X0290000Y0299500D02*
G03*
X0290000Y0299500I-0030000J0000000D01*
G01*
X0430000Y0313500D02*
G03*
X0430000Y0313500I-0030000J0000000D01*
G01*
X0416539Y0168071D02*
Y0186575D01*
X0496461Y0168071D02*
Y0186575D01*
X0416539Y0168071D02*
X0496461D01*
X0416539Y0170039D02*
X0496461D01*
X0490965Y0186575D02*
X0496461D01*
X0416539D02*
X0421957D01*
X0290500Y0223000D02*
Y0258000D01*
Y0223000D02*
X0305500D01*
Y0258000D01*
X0290500D02*
X0305500D01*
X0467500Y0139500D02*
X0468400D01*
X0446600D02*
X0447500D01*
X0467500Y0136500D02*
Y0139500D01*
X0447500Y0136500D02*
X0467500D01*
X0447500D02*
Y0142500D01*
X0467500D01*
Y0139500D02*
Y0142500D01*
X0335500Y0273500D02*
Y0274400D01*
Y0252600D02*
Y0253500D01*
Y0273500D02*
X0338500D01*
Y0253500D02*
Y0273500D01*
X0332500Y0253500D02*
X0338500D01*
X0332500D02*
Y0273500D01*
X0335500D01*
X0556000Y0268600D02*
Y0269500D01*
Y0289500D02*
Y0290400D01*
X0553000Y0269500D02*
X0556000D01*
X0553000D02*
Y0289500D01*
X0559000D01*
Y0269500D02*
Y0289500D01*
X0556000Y0269500D02*
X0559000D01*
X0268000Y0187500D02*
Y0227500D01*
X0258000Y0187500D02*
X0268000D01*
X0258000Y0182500D02*
Y0187500D01*
X0248000Y0182500D02*
X0258000D01*
X0248000D02*
Y0227500D01*
X0268000D01*
X0258000Y0148600D02*
Y0149500D01*
Y0169500D02*
Y0170400D01*
X0255000Y0149500D02*
X0258000D01*
X0255000D02*
Y0169500D01*
X0261000D01*
Y0149500D02*
Y0169500D01*
X0258000Y0149500D02*
X0261000D01*
X0240000Y0154000D02*
Y0174000D01*
X0230000D02*
X0240000D01*
X0230000Y0154000D02*
Y0174000D01*
Y0154000D02*
X0240000D01*
X0486488Y0133012D02*
X0497512D01*
Y0121988D02*
Y0133012D01*
X0486488Y0121988D02*
X0497512D01*
X0486488D02*
Y0133012D01*
X0504488Y0133512D02*
X0515512D01*
Y0122488D02*
Y0133512D01*
X0504488Y0122488D02*
X0515512D01*
X0504488D02*
Y0133512D01*
X0584988Y0235488D02*
X0596012D01*
X0584988Y0256512D02*
X0596012D01*
X0584988Y0235488D02*
Y0256512D01*
X0596012Y0235488D02*
Y0256512D01*
D22*
X0417100Y0217698D02*
Y0212700D01*
X0418100Y0211700D01*
X0420099D01*
X0421099Y0212700D01*
Y0217698D01*
X0423098Y0211700D02*
X0425097D01*
X0424098D01*
Y0217698D01*
X0423098Y0216698D01*
X0287099Y0256398D02*
X0286099Y0257398D01*
X0284100D01*
X0283100Y0256398D01*
Y0255399D01*
X0284100Y0254399D01*
X0286099D01*
X0287099Y0253399D01*
Y0252400D01*
X0286099Y0251400D01*
X0284100D01*
X0283100Y0252400D01*
X0440300Y0145900D02*
Y0151898D01*
X0443299D01*
X0444299Y0150898D01*
Y0148899D01*
X0443299Y0147899D01*
X0440300D01*
X0442299D02*
X0444299Y0145900D01*
X0450297Y0151898D02*
X0446298D01*
Y0148899D01*
X0448297Y0149899D01*
X0449297D01*
X0450297Y0148899D01*
Y0146900D01*
X0449297Y0145900D01*
X0447298D01*
X0446298Y0146900D01*
X0333150Y0284650D02*
Y0290648D01*
X0336149D01*
X0337149Y0289648D01*
Y0287649D01*
X0336149Y0286649D01*
X0333150D01*
X0335149D02*
X0337149Y0284650D01*
X0342147D02*
Y0290648D01*
X0339148Y0287649D01*
X0343147D01*
X0553600Y0300700D02*
Y0306698D01*
X0556599D01*
X0557599Y0305698D01*
Y0303699D01*
X0556599Y0302699D01*
X0553600D01*
X0555599D02*
X0557599Y0300700D01*
X0559598Y0305698D02*
X0560598Y0306698D01*
X0562597D01*
X0563597Y0305698D01*
Y0304699D01*
X0562597Y0303699D01*
X0561597D01*
X0562597D01*
X0563597Y0302699D01*
Y0301700D01*
X0562597Y0300700D01*
X0560598D01*
X0559598Y0301700D01*
X0248600Y0230900D02*
Y0236898D01*
X0251599D01*
X0252599Y0235898D01*
Y0233899D01*
X0251599Y0232899D01*
X0248600D01*
X0250599D02*
X0252599Y0230900D01*
X0258597D02*
X0254598D01*
X0258597Y0234899D01*
Y0235898D01*
X0257597Y0236898D01*
X0255598D01*
X0254598Y0235898D01*
X0255600Y0180700D02*
Y0186698D01*
X0258599D01*
X0259599Y0185698D01*
Y0183699D01*
X0258599Y0182699D01*
X0255600D01*
X0257599D02*
X0259599Y0180700D01*
X0261598D02*
X0263597D01*
X0262598D01*
Y0186698D01*
X0261598Y0185698D01*
X0222600Y0167400D02*
Y0173398D01*
X0225599D01*
X0226599Y0172398D01*
Y0170399D01*
X0225599Y0169399D01*
X0222600D01*
X0487050Y0139550D02*
Y0145548D01*
X0490049D01*
X0491049Y0144548D01*
Y0142549D01*
X0490049Y0141549D01*
X0487050D01*
X0493048Y0142549D02*
X0497047D01*
X0505050Y0140050D02*
Y0146048D01*
X0508049D01*
X0509049Y0145048D01*
Y0143049D01*
X0508049Y0142049D01*
X0505050D01*
X0511048Y0143049D02*
X0515047D01*
X0513047Y0145048D02*
Y0141050D01*
X0582400Y0265898D02*
Y0259900D01*
X0586399D01*
X0592397Y0264898D02*
X0591397Y0265898D01*
X0589398D01*
X0588398Y0264898D01*
Y0263899D01*
X0589398Y0262899D01*
X0591397D01*
X0592397Y0261899D01*
Y0260900D01*
X0591397Y0259900D01*
X0589398D01*
X0588398Y0260900D01*
X0450599Y0353898D02*
X0449599Y0354898D01*
X0447600D01*
X0446600Y0353898D01*
Y0349900D01*
X0447600Y0348900D01*
X0449599D01*
X0450599Y0349900D01*
X0452598Y0353898D02*
X0453598Y0354898D01*
X0455597D01*
X0456597Y0353898D01*
Y0352899D01*
X0455597Y0351899D01*
X0454597D01*
X0455597D01*
X0456597Y0350899D01*
Y0349900D01*
X0455597Y0348900D01*
X0453598D01*
X0452598Y0349900D01*
X0228499Y0337898D02*
X0227499Y0338898D01*
X0225500D01*
X0224500Y0337898D01*
Y0333900D01*
X0225500Y0332900D01*
X0227499D01*
X0228499Y0333900D01*
X0234497Y0332900D02*
X0230498D01*
X0234497Y0336899D01*
Y0337898D01*
X0233497Y0338898D01*
X0231498D01*
X0230498Y0337898D01*
X0374599Y0357998D02*
X0373599Y0358998D01*
X0371600D01*
X0370600Y0357998D01*
Y0354000D01*
X0371600Y0353000D01*
X0373599D01*
X0374599Y0354000D01*
X0376598Y0353000D02*
X0378597D01*
X0377598D01*
Y0358998D01*
X0376598Y0357998D01*
D23*
X0508015Y0315551D02*
X0511951D01*
X0509983Y0317519D02*
Y0313583D01*
X0227985Y0299449D02*
X0224049D01*
X0226017Y0297481D02*
Y0301417D01*
X0399949Y0345515D02*
Y0349451D01*
X0397981Y0347483D02*
X0401917D01*
M02*
