G04 Layer_Color=128*
%FSAX25Y25*%
%MOIN*%
G70*
G01*
G75*
%ADD33C,0.00200*%
D33*
X0398622Y0328500D02*
X0401378D01*
X0400000Y0327122D02*
Y0329878D01*
X0398622Y0298500D02*
X0401378D01*
X0400000Y0297122D02*
Y0299878D01*
X0243622Y0299500D02*
X0246378D01*
X0245000Y0298122D02*
Y0300878D01*
X0273622Y0299500D02*
X0276378D01*
X0275000Y0298122D02*
Y0300878D01*
X0489622Y0315500D02*
X0492378D01*
X0491000Y0314122D02*
Y0316878D01*
X0459622Y0315500D02*
X0462378D01*
X0461000Y0314122D02*
Y0316878D01*
X0588728Y0241000D02*
X0592272D01*
X0590500Y0239228D02*
Y0242772D01*
X0588728Y0251000D02*
X0592272D01*
X0590500Y0249228D02*
Y0252772D01*
X0508228Y0128000D02*
X0511772D01*
X0510000Y0126228D02*
Y0129772D01*
X0490228Y0127500D02*
X0493772D01*
X0492000Y0125728D02*
Y0129272D01*
X0233228Y0169000D02*
X0236772D01*
X0235000Y0167228D02*
Y0170772D01*
X0233228Y0159000D02*
X0236772D01*
X0235000Y0157228D02*
Y0160772D01*
X0256327Y0144500D02*
X0259673D01*
X0258000Y0142827D02*
Y0146173D01*
X0256327Y0174500D02*
X0259673D01*
X0258000Y0172827D02*
Y0176173D01*
X0256622Y0217500D02*
X0259378D01*
X0258000Y0216122D02*
Y0218878D01*
X0256622Y0207500D02*
X0259378D01*
X0258000Y0206122D02*
Y0208878D01*
X0256622Y0197500D02*
X0259378D01*
X0258000Y0196122D02*
Y0198878D01*
X0554327Y0264500D02*
X0557673D01*
X0556000Y0262827D02*
Y0266173D01*
X0554327Y0294500D02*
X0557673D01*
X0556000Y0292827D02*
Y0296173D01*
X0333827Y0278500D02*
X0337173D01*
X0335500Y0276827D02*
Y0280173D01*
X0333827Y0248500D02*
X0337173D01*
X0335500Y0246827D02*
Y0250173D01*
X0470827Y0139500D02*
X0474173D01*
X0472500Y0137827D02*
Y0141173D01*
X0440827Y0139500D02*
X0444173D01*
X0442500Y0137827D02*
Y0141173D01*
X0296622Y0250500D02*
X0299378D01*
X0298000Y0249122D02*
Y0251878D01*
X0296622Y0230500D02*
X0299378D01*
X0298000Y0229122D02*
Y0231878D01*
X0447642Y0205000D02*
X0451972D01*
X0449807Y0202835D02*
Y0207165D01*
X0454335Y0185000D02*
X0458665D01*
X0456500Y0182835D02*
Y0187165D01*
X0461027Y0205000D02*
X0465358D01*
X0463193Y0202835D02*
Y0207165D01*
X0467720Y0185000D02*
X0472051D01*
X0469886Y0182835D02*
Y0187165D01*
X0474413Y0205000D02*
X0478744D01*
X0476579Y0202835D02*
Y0207165D01*
X0481106Y0185000D02*
X0485437D01*
X0483272Y0182835D02*
Y0187165D01*
X0487799Y0205000D02*
X0492130D01*
X0489965Y0202835D02*
Y0207165D01*
X0420870Y0205000D02*
X0425201D01*
X0423035Y0202835D02*
Y0207165D01*
X0427563Y0185000D02*
X0431894D01*
X0429728Y0182835D02*
Y0187165D01*
X0434256Y0205000D02*
X0438587D01*
X0436421Y0202835D02*
Y0207165D01*
X0440949Y0185000D02*
X0445280D01*
X0443114Y0182835D02*
Y0187165D01*
M02*
