G04 Layer_Color=8388736*
%FSAX25Y25*%
%MOIN*%
G70*
G01*
G75*
%ADD24C,0.07493*%
%ADD25R,0.07493X0.07493*%
%ADD26C,0.05524*%
%ADD27C,0.06312*%
%ADD28R,0.05524X0.05524*%
%ADD29C,0.06706*%
%ADD30R,0.06706X0.06706*%
%ADD31R,0.06706X0.06706*%
%ADD32R,0.05524X0.05524*%
D24*
X0443114Y0185000D02*
D03*
X0436421Y0205000D02*
D03*
X0429728Y0185000D02*
D03*
X0423035Y0205000D02*
D03*
X0483272Y0185000D02*
D03*
X0476579Y0205000D02*
D03*
X0469886Y0185000D02*
D03*
X0463193Y0205000D02*
D03*
X0456500Y0185000D02*
D03*
X0449807Y0205000D02*
D03*
D25*
X0489965D02*
D03*
D26*
X0298000Y0230500D02*
D03*
Y0250500D02*
D03*
X0258000Y0197500D02*
D03*
Y0207500D02*
D03*
X0461000Y0315500D02*
D03*
X0275000Y0299500D02*
D03*
X0400000Y0298500D02*
D03*
D27*
X0442500Y0139500D02*
D03*
X0472500D02*
D03*
X0335500Y0248500D02*
D03*
Y0278500D02*
D03*
X0556000Y0294500D02*
D03*
Y0264500D02*
D03*
X0258000Y0174500D02*
D03*
Y0144500D02*
D03*
D28*
Y0217500D02*
D03*
X0400000Y0328500D02*
D03*
D29*
X0235000Y0159000D02*
D03*
X0590500Y0251000D02*
D03*
D30*
X0235000Y0169000D02*
D03*
X0590500Y0241000D02*
D03*
D31*
X0492000Y0127500D02*
D03*
X0510000Y0128000D02*
D03*
D32*
X0491000Y0315500D02*
D03*
X0245000Y0299500D02*
D03*
M02*
